<?xml version="1.0" standalone="no"?>
<!DOCTYPE svg PUBLIC "-//W3C//DTD SVG 1.1//EN" "http://www.w3.org/Graphics/SVG/1.1/DTD/svg11.dtd" >
<svg xmlns="http://www.w3.org/2000/svg" xmlns:xlink="http://www.w3.org/1999/xlink" version="1.1">
<metadata>
Created by FontForge 20160407 at Wed Jun 29 19:31:20 2016
 By Jimmy Wärting
Please contact us to learn more about license restrictions.
</metadata>
<defs>
<font id="UniviaProMedium-Italic" horiz-adv-x="598" >
  <font-face 
    font-family="Univia Pro Medium"
    font-weight="500"
    font-style="italic"
    font-stretch="normal"
    units-per-em="1000"
    panose-1="0 0 6 0 0 0 0 0 0 0"
    ascent="800"
    descent="-200"
    x-height="553"
    cap-height="765"
    bbox="-197.936 -273.375 1315.62 1141.39"
    underline-thickness="50"
    underline-position="-100"
    slope="-9"
    stemh="105"
    stemv="121"
    unicode-range="U+0020-1F603"
  />
<missing-glyph horiz-adv-x="445" 
d="M213 765h480c10 0 14 -5 13 -15l-116 -735c-2 -10 -8 -15 -18 -15h-480c-10 0 -14 5 -13 15l117 735c1 10 7 15 17 15zM421 629c-52 0 -89 -3 -122 -9c-9 -2 -14 -6 -15 -15l-7 -45c-1 -7 1 -10 8 -10h123c54 0 87 -3 79 -50l-4 -24c-5 -34 -19 -47 -45 -59l-87 -39
c-44 -23 -52 -36 -53 -68l-2 -37c0 -3 2 -6 6 -6h57c4 0 8 3 8 7l3 13c4 19 15 24 41 36l72 32c56 25 79 49 90 119l6 37c17 105 -63 118 -158 118zM323 218c-33 0 -54 -17 -59 -48c-5 -30 10 -47 43 -47c32 0 53 17 58 47c5 31 -10 48 -42 48z" />
    <glyph glyph-name="f_b" unicode="fb" horiz-adv-x="963" 
d="M383 770c41 0 146 -5 231 -12c10 -1 15 -5 13 -15l-30 -191c33 4 77 6 129 6c185 0 219 -60 184 -282c-36 -223 -89 -281 -291 -281c-72 0 -127 4 -210 18c-12 2 -17 7 -16 21l100 629l-132 2c-48 0 -83 -4 -90 -47l-11 -66h121c11 0 14 -5 10 -16l-21 -65
c-4 -10 -10 -14 -19 -14h-105l-71 -442c-1 -10 -7 -15 -17 -15h-91c-10 0 -14 5 -13 15l70 442h-67c-11 0 -16 5 -14 15l10 65c1 10 8 15 18 15h68l14 90c20 119 130 128 230 128zM690 453h-109l-55 -345c35 -5 80 -8 111 -8c113 0 130 40 151 176c24 144 14 177 -98 177z
" />
    <glyph glyph-name="f_f" unicode="ff" horiz-adv-x="752" 
d="M714 770c30 0 66 -4 96 -9c10 -2 14 -7 12 -18l-9 -63c-2 -10 -9 -15 -19 -15h-67c-48 0 -71 -4 -78 -47l-10 -66h125c10 0 14 -5 10 -16l-22 -65c-3 -10 -9 -14 -19 -14h-109l-70 -442c-2 -10 -8 -15 -18 -15h-91c-10 0 -14 5 -13 15l71 442h-258l-70 -442
c-1 -10 -7 -15 -17 -15h-91c-10 0 -14 5 -13 15l70 442h-68c-10 0 -15 5 -14 15l11 65c1 10 7 15 18 15h68l14 90c19 119 109 128 182 128c30 0 67 -4 97 -9c9 -2 13 -7 11 -18l-9 -63c-2 -10 -8 -15 -19 -15h-66c-49 0 -71 -4 -79 -47l-10 -66h257l15 90
c19 119 109 128 182 128z" />
    <glyph glyph-name="f_f_b" unicode="ffb" horiz-adv-x="1344" 
d="M764 770c41 0 145 -5 231 -12c9 -1 14 -5 12 -15l-30 -191c34 4 78 6 130 6c185 0 218 -60 183 -282c-35 -223 -88 -281 -290 -281c-72 0 -128 4 -211 18c-11 2 -17 7 -15 21l100 629l-132 2c-49 0 -83 -4 -90 -47l-11 -66h121c11 0 14 -5 10 -16l-22 -65
c-3 -10 -9 -14 -18 -14h-106l-70 -442c-1 -10 -7 -15 -17 -15h-91c-10 0 -14 5 -13 15l70 442h-260l-70 -442c-1 -10 -7 -15 -17 -15h-92c-10 0 -14 5 -12 15l70 442h-68c-11 0 -15 5 -14 15l11 65c1 10 7 15 18 15h68l14 90c19 119 109 128 182 128c30 0 67 -4 97 -9
c9 -2 13 -7 11 -18l-9 -63c-2 -10 -9 -15 -19 -15h-67c-48 0 -71 -4 -78 -47l-10 -66h260l14 90c19 119 130 128 230 128zM1071 453h-110l-54 -345c35 -5 79 -8 111 -8c112 0 130 40 151 176c23 144 14 177 -98 177z" />
    <glyph glyph-name="f_f_i" unicode="ffi" horiz-adv-x="1014" 
d="M962 780c46 0 68 -25 61 -69s-36 -69 -83 -69s-69 25 -62 69s37 69 84 69zM714 770c25 0 52 -3 85 -9c10 -2 14 -7 12 -18l-10 -63c-2 -10 -8 -15 -19 -15h-55c-48 0 -71 -4 -78 -47l-10 -66h332c10 0 14 -5 13 -15l-83 -522c-2 -10 -8 -15 -18 -15h-91
c-10 0 -14 5 -13 15l71 442h-226l-70 -442c-2 -10 -8 -15 -18 -15h-91c-10 0 -14 5 -13 15l71 442h-258l-70 -442c-1 -10 -7 -15 -17 -15h-91c-10 0 -14 5 -13 15l70 442h-68c-10 0 -15 5 -14 15l11 65c1 10 7 15 18 15h68l14 90c19 119 109 128 182 128c30 0 61 -4 91 -9
c9 -2 14 -7 12 -18l-10 -63c-2 -10 -8 -15 -19 -15h-60c-49 0 -71 -4 -79 -47l-10 -66h257l15 90c19 119 109 128 182 128z" />
    <glyph glyph-name="f_f_j" unicode="ffj" horiz-adv-x="998" 
d="M946 780c47 0 69 -25 62 -69s-37 -69 -83 -69c-47 0 -70 25 -62 69c6 44 37 69 83 69zM714 770c27 0 54 -4 81 -9c9 -2 14 -7 12 -18l-10 -63c-2 -10 -8 -15 -19 -15h-51c-48 0 -71 -4 -78 -47l-10 -66h316c10 0 14 -5 13 -15l-101 -637c-15 -95 -75 -104 -141 -104
c-15 0 -57 3 -67 6c-10 2 -14 7 -13 18l11 67c1 10 8 14 19 14h24c42 0 47 5 53 44l81 512h-210l-70 -442c-2 -10 -8 -15 -18 -15h-91c-10 0 -14 5 -13 15l71 442h-258l-70 -442c-1 -10 -7 -15 -17 -15h-91c-10 0 -14 5 -13 15l70 442h-68c-10 0 -15 5 -14 15l11 65
c1 10 7 15 18 15h68l14 90c19 119 109 128 182 128c27 0 65 -4 92 -9c9 -2 13 -7 11 -18l-9 -63c-2 -10 -8 -15 -19 -15h-61c-49 0 -71 -4 -79 -47l-10 -66h257l15 90c19 119 109 128 182 128z" />
    <glyph glyph-name="f_f_k" unicode="ffk" horiz-adv-x="1278" 
d="M760 770c41 0 145 -5 231 -12c9 -1 14 -5 12 -15l-60 -383l183 183c6 6 13 10 22 10h108c18 0 17 -8 6 -19l-201 -199l172 -308c6 -12 6 -27 -21 -27h-97c-10 0 -17 5 -20 11l-161 297l-46 -293c-1 -10 -7 -15 -17 -15h-91c-10 0 -14 5 -13 15l103 648l-132 2
c-49 0 -83 -4 -91 -47l-10 -66h121c11 0 14 -5 10 -16l-22 -65c-3 -10 -9 -14 -19 -14h-105l-70 -442c-1 -10 -7 -15 -17 -15h-91c-10 0 -14 5 -13 15l70 442h-256l-70 -442c-1 -10 -7 -15 -17 -15h-92c-10 0 -14 5 -12 15l70 442h-68c-11 0 -15 5 -14 15l11 65
c1 10 7 15 18 15h68l14 90c19 119 109 128 182 128c30 0 67 -4 97 -9c9 -2 13 -7 11 -18l-9 -63c-2 -10 -9 -15 -19 -15h-67c-48 0 -71 -4 -78 -47l-10 -66h256l14 90c19 119 130 128 230 128z" />
    <glyph glyph-name="f_f_l" unicode="ffl" horiz-adv-x="1002" 
d="M761 770c41 0 146 -5 231 -12c10 -1 15 -5 13 -15l-115 -728c-2 -10 -8 -15 -18 -15h-91c-10 0 -14 5 -13 15l103 648l-132 2c-48 0 -83 -4 -90 -47l-10 -66h117c10 0 14 -5 10 -16l-22 -65c-3 -10 -9 -14 -19 -14h-101l-70 -442c-2 -10 -8 -15 -18 -15h-91
c-10 0 -14 5 -13 15l71 442h-258l-70 -442c-1 -10 -7 -15 -17 -15h-91c-10 0 -14 5 -13 15l70 442h-68c-10 0 -15 5 -14 15l11 65c1 10 7 15 18 15h68l14 90c19 119 109 128 182 128c30 0 77 -4 107 -9c9 -2 14 -7 12 -18l-10 -63c-2 -10 -8 -15 -19 -15h-76
c-49 0 -71 -4 -79 -47l-10 -66h257l15 90c19 119 129 128 229 128z" />
    <glyph glyph-name="f_j" unicode="fj" horiz-adv-x="620" 
d="M568 780c46 0 68 -25 62 -69c-8 -44 -37 -69 -84 -69s-69 25 -62 69s37 69 84 69zM335 770c27 0 57 -4 84 -9c9 -2 13 -7 11 -18l-9 -63c-2 -10 -9 -15 -19 -15h-53c-49 0 -71 -4 -79 -47l-10 -66h317c10 0 14 -5 13 -15l-102 -637c-15 -95 -74 -104 -141 -104
c-14 0 -57 3 -67 6c-10 2 -14 7 -12 18l11 67c1 10 8 14 18 14h24c42 0 47 5 54 44l81 512h-211l-70 -442c-1 -10 -7 -15 -17 -15h-91c-10 0 -14 5 -13 15l70 442h-68c-10 0 -15 5 -14 15l11 65c1 10 7 15 18 15h68l14 90c19 119 109 128 182 128z" />
    <glyph glyph-name="f_k" unicode="fk" horiz-adv-x="901" 
d="M383 770c41 0 145 -5 231 -12c9 -1 14 -5 12 -15l-60 -383l183 183c6 6 13 10 22 10h108c18 0 17 -8 6 -19l-201 -199l172 -308c6 -12 6 -27 -21 -27h-97c-10 0 -17 5 -20 11l-161 297l-46 -293c-1 -10 -7 -15 -17 -15h-91c-10 0 -14 5 -13 15l103 648l-132 2
c-49 0 -83 -4 -91 -47l-10 -66h121c11 0 14 -5 10 -16l-22 -65c-3 -10 -9 -14 -19 -14h-105l-70 -442c-1 -10 -7 -15 -17 -15h-91c-10 0 -14 5 -13 15l70 442h-68c-10 0 -15 5 -14 15l11 65c1 10 7 15 18 15h68l14 90c19 119 130 128 230 128z" />
    <glyph glyph-name="fi" unicode="fi" horiz-adv-x="635" 
d="M583 780c47 0 69 -25 62 -69s-37 -69 -84 -69c-46 0 -69 25 -61 69c6 44 36 69 83 69zM335 770c27 0 53 -4 81 -9c9 -2 14 -7 12 -18l-10 -63c-2 -10 -8 -15 -19 -15h-50c-49 0 -71 -4 -79 -47l-10 -66h332c10 0 14 -5 13 -15l-83 -522c-1 -10 -7 -15 -17 -15h-91
c-10 0 -14 5 -13 15l70 442h-226l-70 -442c-1 -10 -7 -15 -17 -15h-91c-10 0 -14 5 -13 15l70 442h-68c-10 0 -15 5 -14 15l11 65c1 10 7 15 18 15h68l14 90c19 119 109 128 182 128z" />
    <glyph glyph-name="fl" unicode="fl" horiz-adv-x="623" 
d="M383 770c41 0 145 -5 231 -12c9 -1 14 -5 12 -15l-115 -728c-1 -10 -7 -15 -17 -15h-91c-10 0 -14 5 -13 15l103 648l-132 2c-49 0 -83 -4 -91 -47l-10 -66h121c11 0 14 -5 10 -16l-22 -65c-3 -10 -9 -14 -19 -14h-105l-70 -442c-1 -10 -7 -15 -17 -15h-91
c-10 0 -14 5 -13 15l70 442h-68c-10 0 -15 5 -14 15l11 65c1 10 7 15 18 15h68l14 90c19 119 130 128 230 128z" />
    <glyph glyph-name=".notdef" horiz-adv-x="445" 
d="M213 765h480c10 0 14 -5 13 -15l-116 -735c-2 -10 -8 -15 -18 -15h-480c-10 0 -14 5 -13 15l117 735c1 10 7 15 17 15zM421 629c-52 0 -89 -3 -122 -9c-9 -2 -14 -6 -15 -15l-7 -45c-1 -7 1 -10 8 -10h123c54 0 87 -3 79 -50l-4 -24c-5 -34 -19 -47 -45 -59l-87 -39
c-44 -23 -52 -36 -53 -68l-2 -37c0 -3 2 -6 6 -6h57c4 0 8 3 8 7l3 13c4 19 15 24 41 36l72 32c56 25 79 49 90 119l6 37c17 105 -63 118 -158 118zM323 218c-33 0 -54 -17 -59 -48c-5 -30 10 -47 43 -47c32 0 53 17 58 47c5 31 -10 48 -42 48z" />
    <glyph glyph-name="A" unicode="A" horiz-adv-x="690" 
d="M414 770c112 0 126 -12 139 -117l72 -637c1 -12 -3 -16 -14 -16h-103c-8 0 -10 4 -11 16l-25 215h-285l-94 -215c-6 -12 -8 -16 -16 -16h-103c-11 0 -14 4 -9 16l279 637c46 105 66 117 170 117zM397 661c-23 0 -26 -5 -42 -41l-121 -281h227l-32 281c-4 36 -4 41 -32 41
z" />
    <glyph glyph-name="Aacute" unicode="&#xc1;" horiz-adv-x="690" 
d="M485 975h116c6 0 8 -3 8 -10v-5c0 -5 0 -8 -7 -14l-180 -135c-5 -4 -9 -4 -14 0l-28 19c-4 3 -4 9 -1 14l93 125c3 4 7 6 13 6zM414 770c112 0 126 -12 139 -117l72 -637c1 -12 -3 -16 -14 -16h-103c-8 0 -10 4 -11 16l-25 215h-285l-94 -215c-6 -12 -8 -16 -16 -16h-103
c-11 0 -14 4 -9 16l279 637c46 105 66 117 170 117zM397 661c-23 0 -26 -5 -42 -41l-121 -281h227l-32 281c-4 36 -4 41 -32 41z" />
    <glyph glyph-name="Abreve" unicode="&#x102;" horiz-adv-x="690" 
d="M548 965h45c12 0 15 -5 11 -16c-29 -97 -73 -128 -181 -128c-110 0 -142 31 -142 128c0 12 5 16 17 16h44c10 0 13 -4 15 -12c11 -41 30 -54 78 -54s71 13 94 54c4 8 10 12 19 12zM414 770c112 0 126 -12 139 -117l72 -637c1 -12 -3 -16 -14 -16h-103c-8 0 -10 4 -11 16
l-25 215h-285l-94 -215c-6 -12 -8 -16 -16 -16h-103c-11 0 -14 4 -9 16l279 637c46 105 66 117 170 117zM397 661c-23 0 -26 -5 -42 -41l-121 -281h227l-32 281c-4 36 -4 41 -32 41z" />
    <glyph glyph-name="Acaron" unicode="&#x1cd;" horiz-adv-x="690" 
d="M561 972l22 -14c5 -4 6 -10 1 -15l-113 -127c-4 -5 -8 -8 -19 -8h-63c-12 0 -15 3 -17 8l-72 127c-4 5 -2 11 6 15l26 14c6 4 11 4 16 0l87 -74l110 74c6 4 11 4 16 0zM414 770c112 0 126 -12 139 -117l72 -637c1 -12 -3 -16 -14 -16h-103c-8 0 -10 4 -11 16l-25 215
h-285l-94 -215c-6 -12 -8 -16 -16 -16h-103c-11 0 -14 4 -9 16l279 637c46 105 66 117 170 117zM397 661c-23 0 -26 -5 -42 -41l-121 -281h227l-32 281c-4 36 -4 41 -32 41z" />
    <glyph glyph-name="Acircumflex" unicode="&#xc2;" horiz-adv-x="690" 
d="M415 975h63c12 0 15 -3 17 -8l72 -127c4 -5 2 -11 -5 -15l-27 -14c-6 -4 -11 -4 -16 0l-86 74l-111 -74c-6 -4 -10 -4 -16 0l-22 14c-5 4 -6 10 -1 15l113 127c4 5 8 8 19 8zM414 770c112 0 126 -12 139 -117l72 -637c1 -12 -3 -16 -14 -16h-103c-8 0 -10 4 -11 16
l-25 215h-285l-94 -215c-6 -12 -8 -16 -16 -16h-103c-11 0 -14 4 -9 16l279 637c46 105 66 117 170 117zM397 661c-23 0 -26 -5 -42 -41l-121 -281h227l-32 281c-4 36 -4 41 -32 41z" />
    <glyph glyph-name="Adieresis" unicode="&#xc4;" horiz-adv-x="690" 
d="M343 957c46 0 64 -24 58 -66c-7 -43 -34 -67 -79 -67s-66 23 -59 67s35 66 80 66zM546 957c46 0 65 -24 58 -66c-6 -43 -34 -67 -79 -67s-66 23 -59 67s35 66 80 66zM414 770c112 0 126 -12 139 -117l72 -637c1 -12 -3 -16 -14 -16h-103c-8 0 -10 4 -11 16l-25 215h-285
l-94 -215c-6 -12 -8 -16 -16 -16h-103c-11 0 -14 4 -9 16l279 637c46 105 66 117 170 117zM397 661c-23 0 -26 -5 -42 -41l-121 -281h227l-32 281c-4 36 -4 41 -32 41z" />
    <glyph glyph-name="Agrave" unicode="&#xc0;" horiz-adv-x="690" 
d="M311 975h116c6 0 9 -1 11 -6l53 -125c3 -5 1 -11 -5 -14l-34 -19c-6 -4 -10 -5 -14 0l-135 133c-3 3 -4 7 -4 13v8c0 7 6 10 12 10zM414 770c112 0 126 -12 139 -117l72 -637c1 -12 -3 -16 -14 -16h-103c-8 0 -10 4 -11 16l-25 215h-285l-94 -215c-6 -12 -8 -16 -16 -16
h-103c-11 0 -14 4 -9 16l279 637c46 105 66 117 170 117zM397 661c-23 0 -26 -5 -42 -41l-121 -281h227l-32 281c-4 36 -4 41 -32 41z" />
    <glyph glyph-name="Amacron" unicode="&#x100;" horiz-adv-x="690" 
d="M302 922h273c10 0 14 -5 12 -15l-8 -51c-1 -10 -7 -15 -17 -15h-273c-10 0 -14 5 -13 15l8 51c2 10 8 15 18 15zM414 770c112 0 126 -12 139 -117l72 -637c1 -12 -3 -16 -14 -16h-103c-8 0 -10 4 -11 16l-25 215h-285l-94 -215c-6 -12 -8 -16 -16 -16h-103
c-11 0 -14 4 -9 16l279 637c46 105 66 117 170 117zM397 661c-23 0 -26 -5 -42 -41l-121 -281h227l-32 281c-4 36 -4 41 -32 41z" />
    <glyph glyph-name="Aogonek" unicode="&#x104;" horiz-adv-x="690" 
d="M414 770c112 0 126 -12 139 -117l72 -637c0 -12 -4 -16 -15 -16h-49c-10 -26 -15 -41 -17 -55c-5 -28 12 -29 46 -29h36c10 0 14 -4 12 -14l-7 -47c-2 -9 -7 -15 -15 -18c-13 -5 -50 -8 -71 -8c-66 0 -95 19 -86 77c6 38 18 71 38 106l-25 219h-285l-94 -215
c-6 -12 -8 -16 -16 -16h-103c-11 0 -14 4 -9 16l279 637c46 105 66 117 170 117zM397 661c-23 0 -26 -5 -42 -41l-121 -281h227l-32 281c-4 36 -4 41 -32 41z" />
    <glyph glyph-name="Aring" unicode="&#xc5;" horiz-adv-x="690" 
d="M455 1021c74 0 105 -37 94 -107c-11 -71 -55 -107 -128 -107c-72 0 -105 36 -94 107c11 70 55 107 128 107zM448 976c-41 0 -66 -22 -72 -62c-6 -41 11 -62 52 -62c42 0 66 21 72 62c6 40 -10 62 -52 62zM414 770c112 0 126 -12 139 -117l72 -637c1 -12 -3 -16 -14 -16
h-103c-8 0 -10 4 -11 16l-25 215h-285l-94 -215c-6 -12 -8 -16 -16 -16h-103c-11 0 -14 4 -9 16l279 637c46 105 66 117 170 117zM397 661c-23 0 -26 -5 -42 -41l-121 -281h227l-32 281c-4 36 -4 41 -32 41z" />
    <glyph glyph-name="Aringacute" unicode="&#x1fa;" horiz-adv-x="690" 
d="M485 1104h116c6 0 8 -3 8 -10v-5c0 -5 -1 -8 -8 -14l-87 -66c30 -15 42 -47 35 -94c-11 -70 -55 -107 -128 -107s-106 37 -95 107c9 56 38 90 86 102l60 81c2 4 7 6 13 6zM448 977c-42 0 -67 -21 -73 -62c-6 -40 11 -62 53 -62c41 0 65 22 71 62c6 41 -10 62 -51 62z
M414 770c112 0 126 -12 139 -117l72 -637c1 -12 -3 -16 -14 -16h-103c-8 0 -10 4 -11 16l-25 215h-285l-94 -215c-6 -12 -8 -16 -16 -16h-103c-11 0 -14 4 -9 16l279 637c46 105 66 117 170 117zM397 661c-23 0 -26 -5 -42 -41l-121 -281h227l-32 281c-4 36 -4 41 -32 41z
" />
    <glyph glyph-name="Atilde" unicode="&#xc3;" horiz-adv-x="690" 
d="M497 826c-49 0 -99 40 -133 40c-24 0 -35 -8 -50 -34c-8 -12 -12 -13 -21 -10l-31 8c-9 4 -12 9 -7 22c36 83 61 106 115 106c49 0 100 -40 133 -40c24 0 35 7 50 34c8 11 12 13 21 10l31 -9c10 -4 13 -9 7 -22c-36 -83 -61 -105 -115 -105zM414 770
c112 0 126 -12 139 -117l72 -637c1 -12 -3 -16 -14 -16h-103c-8 0 -10 4 -11 16l-25 215h-285l-94 -215c-6 -12 -8 -16 -16 -16h-103c-11 0 -14 4 -9 16l279 637c46 105 66 117 170 117zM397 661c-23 0 -26 -5 -42 -41l-121 -281h227l-32 281c-4 36 -4 41 -32 41z" />
    <glyph glyph-name="AE" unicode="&#xc6;" horiz-adv-x="992" 
d="M414 770l246 -5h340c10 0 14 -5 13 -15l-13 -82c-1 -10 -8 -15 -18 -15h-330l-36 -224h298c10 0 15 -5 13 -15l-12 -79c-2 -10 -8 -15 -18 -15h-298l-33 -208h331c10 0 14 -5 12 -15l-13 -82c-1 -10 -7 -15 -17 -15h-444c-10 0 -14 5 -13 15l35 216h-270l-94 -215
c-6 -12 -8 -16 -16 -16h-103c-11 0 -14 4 -9 16l279 637c46 105 66 117 170 117zM525 661h-118c-31 0 -38 -8 -55 -49l-118 -273h240z" />
    <glyph glyph-name="AEacute" unicode="&#x1fc;" horiz-adv-x="992" 
d="M688 974h116c6 0 8 -3 8 -10v-6c0 -5 -1 -8 -8 -13l-180 -136c-5 -4 -9 -3 -14 0l-28 19c-4 4 -4 9 0 14l93 126c2 4 7 6 13 6zM414 770l246 -5h340c10 0 14 -5 13 -15l-13 -82c-1 -10 -8 -15 -18 -15h-330l-36 -224h298c10 0 15 -5 13 -15l-12 -79
c-2 -10 -8 -15 -18 -15h-298l-33 -208h331c10 0 14 -5 12 -15l-13 -82c-1 -10 -7 -15 -17 -15h-444c-10 0 -14 5 -13 15l35 216h-270l-94 -215c-6 -12 -8 -16 -16 -16h-103c-11 0 -14 4 -9 16l279 637c46 105 66 117 170 117zM525 661h-118c-31 0 -38 -8 -55 -49l-118 -273
h240z" />
    <glyph glyph-name="B" unicode="B" horiz-adv-x="691" 
d="M430 770c182 0 261 -49 235 -212c-17 -101 -52 -157 -127 -172l-1 -3c90 -13 106 -83 90 -180c-26 -166 -121 -208 -293 -208c-68 0 -214 3 -293 9c-12 1 -14 3 -13 14l116 730c1 11 5 13 17 14c81 6 200 8 269 8zM400 658h-142l-37 -227h113c133 0 183 8 199 111
c15 95 -29 116 -133 116zM386 334h-179l-36 -227h178c92 0 137 20 151 108c15 98 -30 119 -114 119z" />
    <glyph glyph-name="C" unicode="C" horiz-adv-x="608" 
d="M434 770c76 0 141 -3 190 -12c11 -2 17 -8 15 -21l-10 -63c-2 -11 -7 -16 -17 -16h-196c-156 0 -193 -62 -226 -275c-34 -213 -17 -276 139 -276h195c10 0 14 -5 13 -15l-10 -63c-2 -13 -10 -20 -23 -22c-50 -8 -117 -12 -193 -12c-249 0 -298 89 -251 388
c47 300 124 387 374 387z" />
    <glyph glyph-name="Cacute" unicode="&#x106;" horiz-adv-x="608" 
d="M483 975h116c6 0 8 -3 8 -10v-5c0 -5 0 -8 -7 -14l-180 -135c-5 -4 -9 -4 -14 0l-28 19c-4 3 -4 9 -1 14l93 125c3 4 7 6 13 6zM434 770c76 0 141 -3 190 -12c11 -2 17 -8 15 -21l-10 -63c-2 -11 -7 -16 -17 -16h-196c-156 0 -193 -62 -226 -275
c-34 -213 -17 -276 139 -276h195c10 0 14 -5 13 -15l-10 -63c-2 -13 -10 -20 -23 -22c-50 -8 -117 -12 -193 -12c-249 0 -298 89 -251 388c47 300 124 387 374 387z" />
    <glyph glyph-name="Ccaron" unicode="&#x10c;" horiz-adv-x="608" 
d="M572 972l22 -14c5 -4 6 -10 1 -15l-113 -127c-4 -5 -8 -8 -19 -8h-64c-11 0 -14 3 -16 8l-72 127c-5 5 -2 11 5 15l27 14c6 4 11 4 16 0l86 -74l111 74c6 4 10 4 16 0zM434 770c76 0 141 -3 190 -12c11 -2 17 -8 15 -21l-10 -63c-2 -11 -7 -16 -17 -16h-196
c-156 0 -193 -62 -226 -275c-34 -213 -17 -276 139 -276h195c10 0 14 -5 13 -15l-10 -63c-2 -13 -10 -20 -23 -22c-50 -8 -117 -12 -193 -12c-249 0 -298 89 -251 388c47 300 124 387 374 387z" />
    <glyph glyph-name="Ccedilla" unicode="&#xc7;" horiz-adv-x="608" 
d="M625 758c11 -2 17 -8 15 -21l-10 -63c-2 -11 -7 -16 -17 -16h-196c-156 0 -193 -62 -226 -275c-34 -213 -17 -276 139 -276h195c10 0 14 -5 13 -15l-10 -63c-2 -13 -10 -20 -23 -22c-46 -7 -107 -11 -175 -12c4 -30 6 -61 1 -89c-9 -58 -44 -77 -110 -77
c-21 0 -57 3 -68 8c-8 3 -11 9 -9 18l7 47c1 10 6 14 16 14h36c34 0 51 1 56 29c1 14 2 29 1 51c-204 13 -243 110 -199 387c47 300 124 387 374 387c76 0 141 -3 190 -12z" />
    <glyph glyph-name="Ccircumflex" unicode="&#x108;" horiz-adv-x="608" 
d="M423 975h63c12 0 15 -3 17 -8l72 -127c5 -5 2 -11 -5 -15l-27 -14c-6 -4 -11 -4 -16 0l-86 74l-111 -74c-6 -4 -10 -4 -16 0l-22 14c-5 4 -6 10 -1 15l113 127c4 5 8 8 19 8zM434 770c76 0 141 -3 190 -12c11 -2 17 -8 15 -21l-10 -63c-2 -11 -7 -16 -17 -16h-196
c-156 0 -193 -62 -226 -275c-34 -213 -17 -276 139 -276h195c10 0 14 -5 13 -15l-10 -63c-2 -13 -10 -20 -23 -22c-50 -8 -117 -12 -193 -12c-249 0 -298 89 -251 388c47 300 124 387 374 387z" />
    <glyph glyph-name="Cdotaccent" unicode="&#x10a;" horiz-adv-x="608" 
d="M459 959c47 0 68 -24 61 -68c-7 -46 -36 -69 -82 -69s-69 23 -62 69c8 45 37 68 83 68zM434 770c76 0 141 -3 190 -12c11 -2 17 -8 15 -21l-10 -63c-2 -11 -7 -16 -17 -16h-196c-156 0 -193 -62 -226 -275c-34 -213 -17 -276 139 -276h195c10 0 14 -5 13 -15l-10 -63
c-2 -13 -10 -20 -23 -22c-50 -8 -117 -12 -193 -12c-249 0 -298 89 -251 388c47 300 124 387 374 387z" />
    <glyph glyph-name="D" unicode="D" horiz-adv-x="739" 
d="M444 770c231 0 299 -114 256 -388c-43 -273 -148 -387 -379 -387c-92 0 -201 3 -280 9c-12 1 -14 2 -13 13l116 731c1 11 5 13 17 14c81 6 191 8 283 8zM416 658h-158l-87 -551h169c137 0 200 82 231 275c34 213 -9 276 -155 276z" />
    <glyph glyph-name="Eth" unicode="&#xd0;" horiz-adv-x="750" 
d="M455 770c231 0 299 -114 256 -388c-43 -273 -148 -387 -379 -387c-92 0 -201 3 -281 9c-11 1 -14 2 -12 13l51 321h-71c-10 0 -14 5 -12 15l8 51c2 10 7 15 17 15h71l52 329c1 11 5 13 17 14c81 6 191 8 283 8zM582 382c34 213 -9 276 -155 276h-158l-38 -239h144
c10 0 14 -5 13 -15l-8 -51c-2 -10 -8 -15 -18 -15h-144l-36 -231h168c138 0 201 82 232 275z" />
    <glyph glyph-name="Dcaron" unicode="&#x10e;" horiz-adv-x="739" 
d="M555 971l22 -14c5 -4 6 -9 1 -15l-113 -127c-4 -4 -8 -8 -19 -8h-63c-12 0 -15 4 -17 8l-72 127c-5 6 -2 11 5 15l27 14c6 4 11 5 16 0l86 -74l111 74c6 5 10 4 16 0zM444 770c231 0 299 -114 256 -388c-43 -273 -148 -387 -379 -387c-92 0 -201 3 -280 9
c-12 1 -14 2 -13 13l116 731c1 11 5 13 17 14c81 6 191 8 283 8zM416 658h-158l-87 -551h169c137 0 200 82 231 275c34 213 -9 276 -155 276z" />
    <glyph glyph-name="Dcroat" unicode="&#x110;" horiz-adv-x="750" 
d="M455 770c231 0 299 -114 256 -388c-43 -273 -148 -387 -379 -387c-92 0 -201 3 -281 9c-11 1 -14 2 -12 13l51 321h-71c-10 0 -14 5 -12 15l8 51c2 10 7 15 17 15h71l52 329c1 11 5 13 17 14c81 6 191 8 283 8zM582 382c34 213 -9 276 -155 276h-158l-38 -239h144
c10 0 14 -5 13 -15l-8 -51c-2 -10 -8 -15 -18 -15h-144l-36 -231h168c138 0 201 82 232 275z" />
    <glyph glyph-name="E" unicode="E" horiz-adv-x="637" 
d="M161 765h484c10 0 14 -5 13 -15l-13 -82c-1 -10 -7 -15 -17 -15h-371l-36 -224h339c10 0 14 -5 13 -15l-13 -79c-2 -10 -8 -15 -18 -15h-338l-32 -208h370c10 0 15 -5 13 -15l-13 -82c-1 -10 -8 -15 -18 -15h-484c-10 0 -14 5 -12 15l116 735c1 10 7 15 17 15z" />
    <glyph glyph-name="Eacute" unicode="&#xc9;" horiz-adv-x="637" 
d="M433 975h116c6 0 8 -3 8 -10v-5c0 -5 -1 -8 -7 -14l-180 -135c-6 -4 -9 -4 -14 0l-28 19c-4 3 -4 9 -1 14l93 125c3 4 7 6 13 6zM161 765h484c10 0 14 -5 13 -15l-13 -82c-1 -10 -7 -15 -17 -15h-371l-36 -224h339c10 0 14 -5 13 -15l-13 -79c-2 -10 -8 -15 -18 -15h-338
l-32 -208h370c10 0 15 -5 13 -15l-13 -82c-1 -10 -8 -15 -18 -15h-484c-10 0 -14 5 -12 15l116 735c1 10 7 15 17 15z" />
    <glyph glyph-name="Ebreve" unicode="&#x114;" horiz-adv-x="637" 
d="M530 965h45c12 0 15 -5 12 -16c-30 -97 -74 -128 -182 -128c-110 0 -141 31 -142 128c0 12 5 16 17 16h45c9 0 13 -4 15 -12c10 -41 29 -54 77 -54s71 13 94 54c5 8 10 12 19 12zM161 765h484c10 0 14 -5 13 -15l-13 -82c-1 -10 -7 -15 -17 -15h-371l-36 -224h339
c10 0 14 -5 13 -15l-13 -79c-2 -10 -8 -15 -18 -15h-338l-32 -208h370c10 0 15 -5 13 -15l-13 -82c-1 -10 -8 -15 -18 -15h-484c-10 0 -14 5 -12 15l116 735c1 10 7 15 17 15z" />
    <glyph glyph-name="Ecaron" unicode="&#x11a;" horiz-adv-x="637" 
d="M543 972l22 -14c5 -4 6 -10 1 -15l-112 -127c-5 -5 -8 -8 -20 -8h-63c-12 0 -15 3 -17 8l-72 127c-4 5 -1 11 6 15l27 14c6 4 10 4 15 0l87 -74l110 74c6 4 11 4 16 0zM161 765h484c10 0 14 -5 13 -15l-13 -82c-1 -10 -7 -15 -17 -15h-371l-36 -224h339
c10 0 14 -5 13 -15l-13 -79c-2 -10 -8 -15 -18 -15h-338l-32 -208h370c10 0 15 -5 13 -15l-13 -82c-1 -10 -8 -15 -18 -15h-484c-10 0 -14 5 -12 15l116 735c1 10 7 15 17 15z" />
    <glyph glyph-name="Ecircumflex" unicode="&#xca;" horiz-adv-x="637" 
d="M398 975h63c11 0 14 -3 17 -8l72 -127c4 -5 1 -11 -6 -15l-27 -14c-6 -4 -10 -4 -16 0l-86 74l-110 -74c-6 -4 -11 -4 -16 0l-22 14c-6 4 -6 10 -1 15l112 127c4 5 8 8 20 8zM161 765h484c10 0 14 -5 13 -15l-13 -82c-1 -10 -7 -15 -17 -15h-371l-36 -224h339
c10 0 14 -5 13 -15l-13 -79c-2 -10 -8 -15 -18 -15h-338l-32 -208h370c10 0 15 -5 13 -15l-13 -82c-1 -10 -8 -15 -18 -15h-484c-10 0 -14 5 -12 15l116 735c1 10 7 15 17 15z" />
    <glyph glyph-name="Edieresis" unicode="&#xcb;" horiz-adv-x="637" 
d="M325 957c46 0 65 -24 58 -66c-7 -43 -34 -67 -79 -67c-44 0 -66 23 -59 67s36 66 80 66zM528 957c46 0 65 -24 59 -66c-7 -43 -35 -67 -80 -67c-44 0 -65 23 -58 67s35 66 79 66zM161 765h484c10 0 14 -5 13 -15l-13 -82c-1 -10 -7 -15 -17 -15h-371l-36 -224h339
c10 0 14 -5 13 -15l-13 -79c-2 -10 -8 -15 -18 -15h-338l-32 -208h370c10 0 15 -5 13 -15l-13 -82c-1 -10 -8 -15 -18 -15h-484c-10 0 -14 5 -12 15l116 735c1 10 7 15 17 15z" />
    <glyph glyph-name="Edotaccent" unicode="&#x116;" horiz-adv-x="637" 
d="M426 959c48 0 68 -24 61 -68c-7 -46 -36 -69 -82 -69s-69 23 -61 69c7 45 36 68 82 68zM161 765h484c10 0 14 -5 13 -15l-13 -82c-1 -10 -7 -15 -17 -15h-371l-36 -224h339c10 0 14 -5 13 -15l-13 -79c-2 -10 -8 -15 -18 -15h-338l-32 -208h370c10 0 15 -5 13 -15
l-13 -82c-1 -10 -8 -15 -18 -15h-484c-10 0 -14 5 -12 15l116 735c1 10 7 15 17 15z" />
    <glyph glyph-name="Egrave" unicode="&#xc8;" horiz-adv-x="637" 
d="M293 975h116c6 0 9 -1 11 -6l53 -125c3 -5 1 -11 -5 -14l-34 -19c-6 -4 -10 -5 -14 0l-134 133c-4 3 -4 7 -4 13v8c0 7 5 10 11 10zM161 765h484c10 0 14 -5 13 -15l-13 -82c-1 -10 -7 -15 -17 -15h-371l-36 -224h339c10 0 14 -5 13 -15l-13 -79c-2 -10 -8 -15 -18 -15
h-338l-32 -208h370c10 0 15 -5 13 -15l-13 -82c-1 -10 -8 -15 -18 -15h-484c-10 0 -14 5 -12 15l116 735c1 10 7 15 17 15z" />
    <glyph glyph-name="Emacron" unicode="&#x112;" horiz-adv-x="637" 
d="M284 922h273c10 0 14 -5 13 -15l-9 -51c-1 -10 -7 -15 -17 -15h-273c-10 0 -14 5 -13 15l8 51c2 10 8 15 18 15zM161 765h484c10 0 14 -5 13 -15l-13 -82c-1 -10 -7 -15 -17 -15h-371l-36 -224h339c10 0 14 -5 13 -15l-13 -79c-2 -10 -8 -15 -18 -15h-338l-32 -208h370
c10 0 15 -5 13 -15l-13 -82c-1 -10 -8 -15 -18 -15h-484c-10 0 -14 5 -12 15l116 735c1 10 7 15 17 15z" />
    <glyph glyph-name="Eogonek" unicode="&#x118;" horiz-adv-x="637" 
d="M161 765h484c10 0 14 -5 13 -15l-13 -82c-1 -10 -7 -15 -17 -15h-371l-36 -224h339c10 0 14 -5 13 -15l-13 -79c-2 -10 -8 -15 -18 -15h-338l-32 -208h370c10 0 15 -5 13 -15l-13 -82c-1 -10 -8 -15 -18 -15h-147c-8 -24 -13 -40 -16 -55c-4 -28 12 -29 46 -29h36
c10 0 14 -4 12 -14l-7 -47c-1 -9 -6 -15 -15 -18c-12 -5 -50 -8 -71 -8c-66 0 -95 19 -86 77c6 29 17 63 31 94h-267c-10 0 -14 5 -12 15l116 735c1 10 7 15 17 15z" />
    <glyph glyph-name="F" unicode="F" horiz-adv-x="602" 
d="M161 765h473c10 0 15 -5 14 -15l-14 -82c-1 -10 -7 -15 -17 -15h-360l-36 -224h328c10 0 14 -5 13 -15l-13 -79c-1 -10 -8 -15 -18 -15h-327l-48 -305c-1 -10 -7 -15 -17 -15h-99c-10 0 -14 5 -12 15l116 735c1 10 7 15 17 15z" />
    <glyph glyph-name="G" unicode="G" horiz-adv-x="672" 
d="M434 770c63 0 153 -3 201 -12c12 -2 17 -8 15 -21l-10 -63c-2 -11 -7 -16 -17 -16h-207c-156 0 -193 -63 -227 -276c-33 -213 -16 -275 140 -275h139l41 254c1 10 7 16 17 16h90c10 0 14 -6 13 -16l-46 -291c-3 -13 -4 -17 -8 -22c-28 -44 -160 -53 -264 -53
c-249 0 -298 88 -251 387c47 300 124 388 374 388z" />
    <glyph glyph-name="Gbreve" unicode="&#x11e;" horiz-adv-x="672" 
d="M551 965h45c12 0 15 -5 11 -16c-30 -97 -73 -128 -181 -128c-110 0 -142 31 -143 128c0 12 5 16 17 16h45c10 0 13 -4 15 -12c11 -41 30 -54 78 -54s70 13 94 54c4 8 10 12 19 12zM434 770c63 0 153 -3 201 -12c12 -2 17 -8 15 -21l-10 -63c-2 -11 -7 -16 -17 -16h-207
c-156 0 -193 -63 -227 -276c-33 -213 -16 -275 140 -275h139l41 254c1 10 7 16 17 16h90c10 0 14 -6 13 -16l-46 -291c-3 -13 -4 -17 -8 -22c-28 -44 -160 -53 -264 -53c-249 0 -298 88 -251 387c47 300 124 388 374 388z" />
    <glyph glyph-name="Gcircumflex" unicode="&#x11c;" horiz-adv-x="672" 
d="M417 975h63c12 0 15 -3 17 -8l72 -127c5 -5 2 -11 -5 -15l-27 -14c-6 -4 -11 -4 -16 0l-86 74l-111 -74c-6 -4 -10 -4 -16 0l-22 14c-5 4 -6 10 -1 15l113 127c4 5 8 8 19 8zM434 770c63 0 153 -3 201 -12c12 -2 17 -8 15 -21l-10 -63c-2 -11 -7 -16 -17 -16h-207
c-156 0 -193 -63 -227 -276c-33 -213 -16 -275 140 -275h139l41 254c1 10 7 16 17 16h90c10 0 14 -6 13 -16l-46 -291c-3 -13 -4 -17 -8 -22c-28 -44 -160 -53 -264 -53c-249 0 -298 88 -251 387c47 300 124 388 374 388z" />
    <glyph glyph-name="Gcommaaccent" unicode="&#x122;" horiz-adv-x="672" 
d="M434 770c63 0 153 -3 201 -12c12 -2 17 -8 15 -21l-10 -63c-2 -11 -7 -16 -17 -16h-207c-156 0 -193 -63 -227 -276c-33 -213 -16 -275 140 -275h139l41 254c1 10 7 16 17 16h90c10 0 14 -6 13 -16l-46 -291c-3 -13 -4 -17 -8 -22c-28 -44 -160 -53 -264 -53
c-249 0 -298 88 -251 387c47 300 124 388 374 388zM235 -39h100c6 0 7 -3 7 -10v-6c0 -5 0 -8 -7 -13l-162 -126c-6 -4 -10 -4 -14 0l-24 17c-5 3 -5 9 -1 14l88 118c3 4 7 6 13 6z" />
    <glyph glyph-name="Gdotaccent" unicode="&#x120;" horiz-adv-x="672" 
d="M455 959c47 0 68 -24 61 -68c-7 -46 -37 -69 -83 -69s-68 23 -61 69c8 45 37 68 83 68zM434 770c63 0 153 -3 201 -12c12 -2 17 -8 15 -21l-10 -63c-2 -11 -7 -16 -17 -16h-207c-156 0 -193 -63 -227 -276c-33 -213 -16 -275 140 -275h139l41 254c1 10 7 16 17 16h90
c10 0 14 -6 13 -16l-46 -291c-3 -13 -4 -17 -8 -22c-28 -44 -160 -53 -264 -53c-249 0 -298 88 -251 387c47 300 124 388 374 388z" />
    <glyph glyph-name="H" unicode="H" horiz-adv-x="779" 
d="M659 765h99c10 0 14 -5 13 -15l-117 -734c-1 -11 -7 -16 -17 -16h-99c-10 0 -14 5 -12 16l49 313h-370l-49 -313c-1 -11 -7 -16 -17 -16h-99c-10 0 -14 5 -12 16l116 734c1 10 7 15 17 15h99c10 0 14 -5 13 -15l-50 -308h370l49 308c1 10 7 15 17 15z" />
    <glyph glyph-name="Hbar" unicode="&#x126;" horiz-adv-x="789" 
d="M763 666h45c10 0 14 -5 13 -15l-6 -38c-2 -10 -8 -15 -18 -15h-45l-92 -582c-2 -12 -8 -16 -18 -16h-98c-10 0 -14 5 -13 16l50 313h-370l-49 -313c-2 -12 -8 -16 -18 -16h-98c-10 0 -14 5 -13 16l93 582h-47c-10 0 -14 5 -12 15l6 38c1 10 7 15 17 15h47l13 84
c1 10 7 15 17 15h98c10 0 14 -5 13 -15l-13 -84h370l13 84c1 10 7 15 17 15h98c10 0 14 -5 13 -15zM599 442l25 156h-370l-25 -156h370z" />
    <glyph glyph-name="Hcircumflex" unicode="&#x124;" horiz-adv-x="779" 
d="M469 975h63c12 0 15 -3 17 -8l72 -127c4 -5 2 -11 -5 -15l-27 -14c-6 -4 -11 -4 -16 0l-86 74l-111 -74c-6 -4 -10 -4 -16 0l-22 14c-5 4 -6 10 -1 15l113 127c4 5 8 8 19 8zM659 765h99c10 0 14 -5 13 -15l-117 -734c-1 -11 -7 -16 -17 -16h-99c-10 0 -14 5 -12 16
l49 313h-370l-49 -313c-1 -11 -7 -16 -17 -16h-99c-10 0 -14 5 -12 16l116 734c1 10 7 15 17 15h99c10 0 14 -5 13 -15l-50 -308h370l49 308c1 10 7 15 17 15z" />
    <glyph glyph-name="I" unicode="I" horiz-adv-x="281" 
d="M162 765h98c10 0 14 -5 13 -15l-116 -734c-2 -11 -8 -16 -18 -16h-98c-10 0 -14 5 -13 16l117 734c1 10 7 15 17 15z" />
    <glyph glyph-name="IJ" unicode="&#x132;" horiz-adv-x="860" 
d="M162 765h98c10 0 14 -5 13 -15l-116 -734c-2 -11 -8 -16 -18 -16h-98c-10 0 -14 5 -13 16l117 734c1 10 7 15 17 15zM504 765h341c10 0 14 -5 13 -15l-58 -373c-47 -295 -128 -382 -382 -382c-64 0 -104 4 -153 12c-11 2 -17 8 -15 21l10 64c2 10 8 15 18 15h158
c161 0 203 60 235 270l44 276h-228c-11 0 -15 5 -14 15l14 82c1 10 7 15 17 15z" />
    <glyph glyph-name="Iacute" unicode="&#xcd;" horiz-adv-x="281" 
d="M267 975h116c6 0 8 -3 8 -10v-5c0 -5 0 -8 -7 -14l-180 -135c-5 -4 -9 -4 -14 0l-28 19c-4 3 -4 9 -1 14l93 125c3 4 7 6 13 6zM162 765h98c10 0 14 -5 13 -15l-116 -734c-2 -11 -8 -16 -18 -16h-98c-10 0 -14 5 -13 16l117 734c1 10 7 15 17 15z" />
    <glyph glyph-name="Icaron" unicode="&#x1cf;" horiz-adv-x="281" 
d="M358 972l21 -14c6 -4 6 -10 1 -15l-112 -127c-4 -5 -8 -8 -19 -8h-64c-11 0 -14 3 -17 8l-71 127c-5 5 -2 11 5 15l27 14c6 4 10 4 16 0l86 -74l111 74c6 4 10 4 16 0zM162 765h98c10 0 14 -5 13 -15l-116 -734c-2 -11 -8 -16 -18 -16h-98c-10 0 -14 5 -13 16l117 734
c1 10 7 15 17 15z" />
    <glyph glyph-name="Icircumflex" unicode="&#xce;" horiz-adv-x="281" 
d="M212 975h63c12 0 15 -3 17 -8l72 -127c4 -5 1 -11 -6 -15l-26 -14c-6 -4 -11 -4 -16 0l-87 74l-110 -74c-6 -4 -11 -4 -16 0l-22 14c-5 4 -6 10 -1 15l112 127c5 5 8 8 20 8zM162 765h98c10 0 14 -5 13 -15l-116 -734c-2 -11 -8 -16 -18 -16h-98c-10 0 -14 5 -13 16
l117 734c1 10 7 15 17 15z" />
    <glyph glyph-name="Idieresis" unicode="&#xcf;" horiz-adv-x="281" 
d="M140 957c45 0 64 -24 57 -66c-6 -43 -33 -67 -79 -67c-44 0 -66 23 -59 67s36 66 81 66zM343 957c45 0 65 -24 58 -66c-7 -43 -34 -67 -80 -67c-44 0 -65 23 -58 67s35 66 80 66zM162 765h98c10 0 14 -5 13 -15l-116 -734c-2 -11 -8 -16 -18 -16h-98c-10 0 -14 5 -13 16
l117 734c1 10 7 15 17 15z" />
    <glyph glyph-name="Idotaccent" unicode="&#x130;" horiz-adv-x="281" 
d="M241 959c47 0 68 -24 61 -68c-7 -46 -37 -69 -83 -69s-68 23 -61 69c7 45 37 68 83 68zM162 765h98c10 0 14 -5 13 -15l-116 -734c-2 -11 -8 -16 -18 -16h-98c-10 0 -14 5 -13 16l117 734c1 10 7 15 17 15z" />
    <glyph glyph-name="Igrave" unicode="&#xcc;" horiz-adv-x="281" 
d="M86 975h116c6 0 9 -1 11 -6l53 -125c3 -5 1 -11 -5 -14l-34 -19c-6 -4 -10 -5 -14 0l-135 133c-3 3 -4 7 -4 13v8c0 7 6 10 12 10zM162 765h98c10 0 14 -5 13 -15l-116 -734c-2 -11 -8 -16 -18 -16h-98c-10 0 -14 5 -13 16l117 734c1 10 7 15 17 15z" />
    <glyph glyph-name="Imacron" unicode="&#x12a;" horiz-adv-x="281" 
d="M98 922h274c10 0 14 -5 12 -15l-8 -51c-2 -10 -7 -15 -17 -15h-273c-10 0 -15 5 -13 15l8 51c1 10 7 15 17 15zM162 765h98c10 0 14 -5 13 -15l-116 -734c-2 -11 -8 -16 -18 -16h-98c-10 0 -14 5 -13 16l117 734c1 10 7 15 17 15z" />
    <glyph glyph-name="Iogonek" unicode="&#x12e;" horiz-adv-x="281" 
d="M162 765h98c10 0 14 -5 13 -15l-116 -734c-2 -12 -8 -16 -18 -16h-44c-10 -26 -14 -41 -17 -55c-4 -28 12 -29 46 -29h36c10 0 14 -3 12 -14l-7 -47c-2 -11 -6 -15 -15 -18c-12 -5 -50 -8 -71 -8c-66 0 -95 19 -86 77c5 32 18 65 34 100l118 743c2 10 7 16 17 16z" />
    <glyph glyph-name="Itilde" unicode="&#x128;" horiz-adv-x="281" 
d="M294 826c-49 0 -100 40 -134 40c-23 0 -34 -8 -50 -34c-7 -12 -11 -13 -20 -10l-31 8c-9 4 -13 9 -7 22c36 83 61 106 115 106c48 0 99 -40 133 -40c23 0 34 7 50 34c7 11 11 13 21 10l31 -9c10 -4 12 -9 7 -22c-36 -83 -61 -105 -115 -105zM162 765h98
c10 0 14 -5 13 -15l-116 -734c-2 -11 -8 -16 -18 -16h-98c-10 0 -14 5 -13 16l117 734c1 10 7 15 17 15z" />
    <glyph glyph-name="J" unicode="J" horiz-adv-x="579" 
d="M223 765h341c10 0 14 -5 13 -15l-58 -373c-47 -295 -128 -382 -382 -382c-64 0 -104 4 -153 12c-11 2 -17 8 -15 21l10 64c2 10 8 15 18 15h158c161 0 203 60 235 270l44 276h-228c-11 0 -15 5 -14 15l14 82c1 10 7 15 17 15z" />
    <glyph glyph-name="Jcircumflex" unicode="&#x134;" horiz-adv-x="572" 
d="M393 975h63c12 0 15 -3 17 -8l72 -127c4 -5 1 -11 -6 -15l-26 -14c-6 -4 -11 -4 -16 0l-87 74l-110 -74c-6 -4 -11 -4 -16 0l-22 14c-5 4 -6 10 -1 15l112 127c5 5 8 8 20 8zM216 765h341c10 0 14 -5 13 -15l-58 -373c-47 -295 -128 -382 -382 -382c-64 0 -104 4 -153 12
c-11 2 -17 8 -15 21l10 64c2 10 8 15 18 15h158c161 0 203 60 235 270l44 276h-228c-11 0 -15 5 -14 15l14 82c1 10 7 15 17 15z" />
    <glyph glyph-name="K" unicode="K" horiz-adv-x="646" 
d="M569 765h110c18 0 16 -9 6 -19l-332 -334l242 -385c7 -12 6 -27 -21 -27h-108c-10 0 -15 3 -20 11l-231 372l-59 -368c-1 -10 -7 -15 -17 -15h-99c-10 0 -14 5 -12 15l116 735c1 10 7 15 17 15h99c10 0 14 -5 13 -15l-51 -316l325 321c6 6 13 10 22 10z" />
    <glyph glyph-name="Kcommaaccent" unicode="&#x136;" horiz-adv-x="646" 
d="M569 765h110c18 0 16 -9 6 -19l-332 -334l242 -385c7 -12 6 -27 -21 -27h-108c-10 0 -15 3 -20 11l-231 372l-59 -368c-1 -10 -7 -15 -17 -15h-99c-10 0 -14 5 -12 15l116 735c1 10 7 15 17 15h99c10 0 14 -5 13 -15l-51 -316l325 321c6 6 13 10 22 10zM232 -39h100
c6 0 7 -3 7 -10v-6c0 -5 0 -8 -7 -13l-162 -126c-6 -4 -10 -4 -14 0l-24 17c-5 3 -5 9 -1 14l88 118c3 4 7 6 13 6z" />
    <glyph glyph-name="L" unicode="L" horiz-adv-x="578" 
d="M161 765h99c10 0 14 -5 13 -15l-101 -638h346c10 0 14 -5 12 -15l-13 -82c-1 -10 -7 -15 -17 -15h-460c-10 0 -14 5 -12 15l116 735c1 10 7 15 17 15z" />
    <glyph glyph-name="Lacute" unicode="&#x139;" horiz-adv-x="578" 
d="M298 975h116c6 0 8 -3 8 -10v-5c0 -5 0 -8 -7 -14l-180 -135c-5 -4 -9 -4 -14 0l-28 19c-4 3 -4 9 -1 14l93 125c3 4 7 6 13 6zM161 765h99c10 0 14 -5 13 -15l-101 -638h346c10 0 14 -5 12 -15l-13 -82c-1 -10 -7 -15 -17 -15h-460c-10 0 -14 5 -12 15l116 735
c1 10 7 15 17 15z" />
    <glyph glyph-name="Lcaron" unicode="&#x13d;" horiz-adv-x="571" 
d="M161 765h99c10 0 14 -5 13 -15l-101 -638h346c10 0 14 -5 12 -15l-13 -82c-1 -10 -7 -15 -17 -15h-460c-10 0 -14 5 -12 15l116 735c1 10 7 15 17 15zM443 765h116c6 0 8 -3 8 -10v-5c0 -5 -1 -8 -8 -14l-180 -135c-5 -4 -9 -4 -14 0l-28 19c-4 3 -4 9 0 14l93 125
c2 4 7 6 13 6z" />
    <glyph glyph-name="Lcommaaccent" unicode="&#x13b;" horiz-adv-x="578" 
d="M161 765h99c10 0 14 -5 13 -15l-101 -638h346c10 0 14 -5 12 -15l-13 -82c-1 -10 -7 -15 -17 -15h-460c-10 0 -14 5 -12 15l116 735c1 10 7 15 17 15zM210 -39h100c6 0 7 -3 7 -10v-6c0 -5 0 -8 -7 -13l-162 -126c-6 -4 -10 -4 -14 0l-24 17c-5 3 -5 9 -1 14l88 118
c3 4 7 6 13 6z" />
    <glyph glyph-name="Ldot" unicode="&#x13f;" horiz-adv-x="578" 
d="M161 765h99c10 0 14 -5 13 -15l-101 -638h346c10 0 14 -5 12 -15l-13 -82c-1 -10 -7 -15 -17 -15h-460c-10 0 -14 5 -12 15l116 735c1 10 7 15 17 15zM386 382c46 0 72 -24 72 -68c0 -45 -26 -70 -72 -70c-47 0 -73 25 -73 70c0 44 26 68 73 68z" />
    <glyph glyph-name="Lslash" unicode="&#x141;" horiz-adv-x="595" 
d="M189 112h346c10 0 14 -5 12 -15l-13 -82c-1 -10 -7 -15 -17 -15h-460c-10 0 -14 5 -12 15l43 276l-69 -37c-10 -6 -14 -4 -18 6l-13 30c-4 9 -3 13 6 18l106 56l61 386c1 10 7 15 17 15h99c10 0 14 -5 13 -15l-49 -311l117 62c11 5 17 4 21 -5l12 -31c4 -8 3 -14 -9 -20
l-153 -81z" />
    <glyph glyph-name="M" unicode="M" horiz-adv-x="962" 
d="M802 765h99c10 0 12 -5 12 -15l-48 -734c-1 -11 -8 -16 -18 -16h-98c-10 0 -13 5 -13 16l39 525l-278 -503c-5 -9 -13 -13 -22 -13h-83c-9 0 -15 4 -17 13l-118 503l-129 -525c-3 -11 -8 -16 -18 -16h-98c-10 0 -15 5 -13 16l185 734c2 9 6 15 16 15h99
c28 0 36 -9 42 -39l120 -529l287 530c16 29 26 38 54 38z" />
    <glyph glyph-name="N" unicode="N" horiz-adv-x="777" 
d="M658 765h98c10 0 14 -5 13 -15l-117 -734c-1 -11 -7 -16 -17 -16h-77c-19 0 -30 4 -38 22l-277 539l-87 -545c-1 -11 -7 -16 -17 -16h-99c-10 0 -14 5 -12 16l116 734c1 10 7 15 17 15h83c38 -1 42 -7 55 -31l259 -503l83 519c1 10 7 15 17 15z" />
    <glyph glyph-name="Nacute" unicode="&#x143;" horiz-adv-x="777" 
d="M496 975h116c6 0 8 -3 8 -10v-5c0 -5 -1 -8 -7 -14l-180 -135c-6 -4 -9 -4 -14 0l-28 19c-4 3 -4 9 -1 14l93 125c3 4 7 6 13 6zM658 765h98c10 0 14 -5 13 -15l-117 -734c-1 -11 -7 -16 -17 -16h-77c-19 0 -30 4 -38 22l-277 539l-87 -545c-1 -11 -7 -16 -17 -16h-99
c-10 0 -14 5 -12 16l116 734c1 10 7 15 17 15h83c38 -1 42 -7 55 -31l259 -503l83 519c1 10 7 15 17 15z" />
    <glyph glyph-name="Ncaron" unicode="&#x147;" horiz-adv-x="777" 
d="M606 972l22 -14c6 -4 6 -10 1 -15l-112 -127c-4 -5 -8 -8 -20 -8h-63c-11 0 -14 3 -17 8l-72 127c-4 5 -1 11 6 15l27 14c6 4 10 4 16 0l86 -74l110 74c6 4 11 4 16 0zM658 765h98c10 0 14 -5 13 -15l-117 -734c-1 -11 -7 -16 -17 -16h-77c-19 0 -30 4 -38 22l-277 539
l-87 -545c-1 -11 -7 -16 -17 -16h-99c-10 0 -14 5 -12 16l116 734c1 10 7 15 17 15h83c38 -1 42 -7 55 -31l259 -503l83 519c1 10 7 15 17 15z" />
    <glyph glyph-name="Ncommaaccent" unicode="&#x145;" horiz-adv-x="777" 
d="M658 765h98c10 0 14 -5 13 -15l-117 -734c-1 -11 -7 -16 -17 -16h-77c-19 0 -30 4 -38 22l-277 539l-87 -545c-1 -11 -7 -16 -17 -16h-99c-10 0 -14 5 -12 16l116 734c1 10 7 15 17 15h83c38 -1 42 -7 55 -31l259 -503l83 519c1 10 7 15 17 15zM302 -39h100
c6 0 7 -3 7 -10v-6c0 -5 0 -8 -7 -13l-162 -126c-6 -4 -10 -4 -14 0l-25 17c-4 3 -4 9 -1 14l89 118c2 4 7 6 13 6z" />
    <glyph glyph-name="Eng" unicode="&#x14a;" horiz-adv-x="777" 
d="M658 765h98c10 0 14 -5 13 -15l-90 -571c-46 -295 -103 -382 -335 -382c-46 0 -70 4 -99 10c-12 2 -18 8 -16 21l11 66c2 10 8 15 18 15h89c113 0 164 32 177 129l-281 523l-87 -545c-1 -11 -7 -16 -17 -16h-99c-10 0 -14 5 -12 16l116 734c1 10 7 15 17 15h83
c38 -1 42 -7 55 -31l259 -503l83 519c1 10 7 15 17 15z" />
    <glyph glyph-name="Ntilde" unicode="&#xd1;" horiz-adv-x="777" 
d="M542 826c-48 0 -99 40 -133 40c-23 0 -34 -8 -50 -34c-7 -12 -11 -13 -20 -10l-32 8c-9 4 -12 9 -7 22c37 83 62 106 116 106c48 0 99 -40 133 -40c23 0 34 7 50 34c7 11 11 13 21 10l31 -9c9 -4 12 -9 7 -22c-37 -83 -61 -105 -116 -105zM658 765h98c10 0 14 -5 13 -15
l-117 -734c-1 -11 -7 -16 -17 -16h-77c-19 0 -30 4 -38 22l-277 539l-87 -545c-1 -11 -7 -16 -17 -16h-99c-10 0 -14 5 -12 16l116 734c1 10 7 15 17 15h83c38 -1 42 -7 55 -31l259 -503l83 519c1 10 7 15 17 15z" />
    <glyph glyph-name="O" unicode="O" horiz-adv-x="731" 
d="M436 770c250 0 300 -89 253 -389c-47 -298 -126 -386 -376 -386c-249 0 -299 88 -252 386c47 300 126 389 375 389zM419 658c-156 0 -195 -64 -229 -277c-34 -211 -15 -274 141 -274s195 63 228 274c35 213 16 277 -140 277z" />
    <glyph glyph-name="Oacute" unicode="&#xd3;" horiz-adv-x="731" 
d="M521 975h116c6 0 8 -3 8 -10v-5c0 -5 0 -8 -7 -14l-180 -135c-5 -4 -9 -4 -14 0l-28 19c-4 3 -4 9 -1 14l93 125c3 4 7 6 13 6zM436 770c250 0 300 -89 253 -389c-47 -298 -126 -386 -376 -386c-249 0 -299 88 -252 386c47 300 126 389 375 389zM419 658
c-156 0 -195 -64 -229 -277c-34 -211 -15 -274 141 -274s195 63 228 274c35 213 16 277 -140 277z" />
    <glyph glyph-name="Obreve" unicode="&#x14e;" horiz-adv-x="731" 
d="M570 965h45c12 0 15 -5 12 -16c-30 -97 -74 -128 -182 -128c-110 0 -141 31 -142 128c0 12 5 16 17 16h44c10 0 13 -4 15 -12c11 -41 30 -54 78 -54s71 13 94 54c5 8 10 12 19 12zM436 770c250 0 300 -89 253 -389c-47 -298 -126 -386 -376 -386c-249 0 -299 88 -252 386
c47 300 126 389 375 389zM419 658c-156 0 -195 -64 -229 -277c-34 -211 -15 -274 141 -274s195 63 228 274c35 213 16 277 -140 277z" />
    <glyph glyph-name="Ocaron" unicode="&#x1d1;" horiz-adv-x="731" 
d="M583 972l22 -14c5 -4 6 -10 1 -15l-112 -127c-5 -5 -8 -8 -20 -8h-63c-12 0 -15 3 -17 8l-72 127c-4 5 -1 11 6 15l26 14c6 4 11 4 16 0l87 -74l110 74c6 4 11 4 16 0zM436 770c250 0 300 -89 253 -389c-47 -298 -126 -386 -376 -386c-249 0 -299 88 -252 386
c47 300 126 389 375 389zM419 658c-156 0 -195 -64 -229 -277c-34 -211 -15 -274 141 -274s195 63 228 274c35 213 16 277 -140 277z" />
    <glyph glyph-name="Ocircumflex" unicode="&#xd4;" horiz-adv-x="731" 
d="M437 975h64c11 0 14 -3 17 -8l71 -127c5 -5 2 -11 -5 -15l-27 -14c-6 -4 -10 -4 -16 0l-86 74l-111 -74c-6 -4 -10 -4 -16 0l-21 14c-6 4 -6 10 -1 15l112 127c4 5 8 8 19 8zM436 770c250 0 300 -89 253 -389c-47 -298 -126 -386 -376 -386c-249 0 -299 88 -252 386
c47 300 126 389 375 389zM419 658c-156 0 -195 -64 -229 -277c-34 -211 -15 -274 141 -274s195 63 228 274c35 213 16 277 -140 277z" />
    <glyph glyph-name="Odieresis" unicode="&#xd6;" horiz-adv-x="731" 
d="M365 957c46 0 65 -24 58 -66c-7 -43 -34 -67 -79 -67s-66 23 -59 67s36 66 80 66zM568 957c46 0 65 -24 59 -66c-7 -43 -35 -67 -80 -67s-65 23 -58 67s35 66 79 66zM436 770c250 0 300 -89 253 -389c-47 -298 -126 -386 -376 -386c-249 0 -299 88 -252 386
c47 300 126 389 375 389zM419 658c-156 0 -195 -64 -229 -277c-34 -211 -15 -274 141 -274s195 63 228 274c35 213 16 277 -140 277z" />
    <glyph glyph-name="Ograve" unicode="&#xd2;" horiz-adv-x="731" 
d="M333 975h116c6 0 9 -1 11 -6l53 -125c3 -5 1 -11 -5 -14l-34 -19c-6 -4 -10 -5 -14 0l-134 133c-4 3 -4 7 -4 13v8c0 7 5 10 11 10zM436 770c250 0 300 -89 253 -389c-47 -298 -126 -386 -376 -386c-249 0 -299 88 -252 386c47 300 126 389 375 389zM419 658
c-156 0 -195 -64 -229 -277c-34 -211 -15 -274 141 -274s195 63 228 274c35 213 16 277 -140 277z" />
    <glyph glyph-name="Ohungarumlaut" unicode="&#x150;" horiz-adv-x="731" 
d="M416 975h88c6 0 8 -3 8 -10v-6c0 -5 -2 -8 -8 -13l-163 -131c-5 -4 -9 -4 -14 0l-17 15c-4 4 -4 9 0 14l93 125c2 4 7 6 13 6zM597 975h89c6 0 8 -3 8 -10v-6c0 -5 -2 -8 -8 -13l-163 -131c-5 -4 -9 -4 -14 0l-17 15c-4 4 -4 9 -1 14l93 125c3 4 7 6 13 6zM436 770
c250 0 300 -89 253 -389c-47 -298 -126 -386 -376 -386c-249 0 -299 88 -252 386c47 300 126 389 375 389zM419 658c-156 0 -195 -64 -229 -277c-34 -211 -15 -274 141 -274s195 63 228 274c35 213 16 277 -140 277z" />
    <glyph glyph-name="Omacron" unicode="&#x14c;" horiz-adv-x="731" 
d="M324 922h273c10 0 14 -5 12 -15l-8 -51c-1 -10 -7 -15 -17 -15h-273c-10 0 -14 5 -13 15l8 51c2 10 8 15 18 15zM436 770c250 0 300 -89 253 -389c-47 -298 -126 -386 -376 -386c-249 0 -299 88 -252 386c47 300 126 389 375 389zM419 658c-156 0 -195 -64 -229 -277
c-34 -211 -15 -274 141 -274s195 63 228 274c35 213 16 277 -140 277z" />
    <glyph glyph-name="Oslash" unicode="&#xd8;" horiz-adv-x="731" 
d="M313 -5c-87 0 -151 11 -194 38l-36 -42c-8 -9 -12 -10 -21 -3l-30 23c-7 5 -7 12 -1 20l42 49c-35 60 -35 155 -12 301c47 300 126 389 375 389c90 0 154 -11 196 -40l33 38c7 8 13 11 22 4l30 -23c7 -5 7 -12 0 -21l-40 -46c35 -60 35 -156 12 -301
c-47 -298 -126 -386 -376 -386zM419 658c-156 0 -195 -64 -229 -277c-13 -79 -17 -136 -10 -177l362 421c-24 24 -64 33 -123 33zM570 558l-360 -420c24 -22 63 -31 121 -31c156 0 195 63 228 274c13 78 18 136 11 177z" />
    <glyph glyph-name="Oslashacute" unicode="&#x1fe;" horiz-adv-x="731" 
d="M515 975h116c6 0 8 -3 8 -10v-5c0 -5 -1 -8 -8 -14l-180 -135c-5 -4 -9 -4 -14 0l-28 19c-4 3 -4 9 0 14l93 125c2 4 7 6 13 6zM689 381c-47 -298 -126 -386 -376 -386c-87 0 -151 11 -194 38l-36 -42c-8 -9 -12 -10 -21 -3l-30 23c-7 5 -7 12 -1 20l42 49
c-35 60 -35 155 -12 301c47 300 126 389 375 389c90 0 154 -11 196 -40l33 38c7 8 13 11 22 4l30 -23c7 -5 7 -12 0 -21l-40 -46c35 -60 35 -156 12 -301zM419 658c-156 0 -195 -64 -229 -277c-13 -79 -17 -136 -10 -177l362 421c-24 24 -64 33 -123 33zM570 558l-360 -420
c24 -22 63 -31 121 -31c156 0 195 63 228 274c13 78 18 136 11 177z" />
    <glyph glyph-name="Otilde" unicode="&#xd5;" horiz-adv-x="731" 
d="M519 826c-48 0 -99 40 -133 40c-23 0 -34 -8 -50 -34c-7 -12 -11 -13 -21 -10l-31 8c-9 4 -12 9 -7 22c36 83 61 106 115 106c49 0 100 -40 134 -40c23 0 34 7 50 34c7 11 11 13 20 10l31 -9c10 -4 13 -9 7 -22c-36 -83 -61 -105 -115 -105zM436 770
c250 0 300 -89 253 -389c-47 -298 -126 -386 -376 -386c-249 0 -299 88 -252 386c47 300 126 389 375 389zM419 658c-156 0 -195 -64 -229 -277c-34 -211 -15 -274 141 -274s195 63 228 274c35 213 16 277 -140 277z" />
    <glyph glyph-name="OE" unicode="&#x152;" horiz-adv-x="1055" 
d="M436 770l347 -5h279c10 0 15 -5 14 -15l-14 -82c-1 -10 -7 -15 -17 -15h-366l-36 -224h334c10 0 14 -5 13 -15l-13 -79c-1 -10 -8 -15 -18 -15h-333l-33 -208h366c10 0 15 -5 13 -15l-13 -82c-1 -10 -8 -15 -18 -15l-628 -5c-250 -3 -300 88 -253 386
c48 300 127 393 376 389zM551 658h-133c-156 0 -195 -64 -229 -277c-33 -211 -14 -274 142 -274h133z" />
    <glyph glyph-name="P" unicode="P" horiz-adv-x="659" 
d="M401 770c222 0 290 -46 257 -249c-33 -207 -112 -240 -334 -240h-126l-42 -266c-2 -12 -5 -15 -17 -15h-99c-12 0 -15 3 -12 15l116 733c1 11 5 13 17 14c81 6 171 8 240 8zM371 658h-113l-44 -274h113c143 0 182 12 201 134c19 119 -14 140 -157 140z" />
    <glyph glyph-name="Thorn" unicode="&#xde;" horiz-adv-x="653" 
d="M162 766h98c10 0 14 -5 13 -16l-19 -118c43 1 85 2 120 2c222 0 288 -47 256 -251c-32 -203 -114 -250 -336 -250c-34 0 -77 1 -119 2l-19 -118c-1 -11 -7 -16 -17 -16h-99c-10 0 -14 5 -12 16l116 733c2 11 8 16 18 16zM344 523h-108l-43 -280h107c142 0 182 20 201 140
c19 119 -15 140 -157 140z" />
    <glyph glyph-name="Q" unicode="Q" horiz-adv-x="731" 
d="M437 770c249 0 300 -89 252 -389c-42 -267 -109 -365 -302 -383l16 -123c1 -11 -7 -16 -17 -16h-89c-10 0 -17 4 -19 16l-16 122c-204 12 -244 108 -201 384c48 300 126 389 376 389zM560 381c34 213 15 277 -141 277s-194 -64 -229 -277c-33 -211 -14 -274 142 -274
s194 63 228 274z" />
    <glyph glyph-name="R" unicode="R" horiz-adv-x="675" 
d="M401 770c222 0 290 -46 257 -249c-25 -156 -76 -213 -195 -231l126 -270c6 -11 0 -20 -15 -20h-93c-23 0 -29 7 -37 22l-123 259h-123l-42 -266c-2 -12 -5 -15 -17 -15h-99c-12 0 -15 3 -12 15l116 733c1 11 5 13 17 14c81 6 171 8 240 8zM371 658h-113l-44 -274h113
c143 0 182 12 201 134c19 119 -14 140 -157 140z" />
    <glyph glyph-name="Racute" unicode="&#x154;" horiz-adv-x="675" 
d="M449 975h116c6 0 8 -3 8 -10v-5c0 -5 -1 -8 -7 -14l-180 -135c-6 -4 -9 -4 -14 0l-28 19c-4 3 -4 9 -1 14l93 125c3 4 7 6 13 6zM401 770c222 0 290 -46 257 -249c-25 -156 -76 -213 -195 -231l126 -270c6 -11 0 -20 -15 -20h-93c-23 0 -29 7 -37 22l-123 259h-123
l-42 -266c-2 -12 -5 -15 -17 -15h-99c-12 0 -15 3 -12 15l116 733c1 11 5 13 17 14c81 6 171 8 240 8zM371 658h-113l-44 -274h113c143 0 182 12 201 134c19 119 -14 140 -157 140z" />
    <glyph glyph-name="Rcaron" unicode="&#x158;" horiz-adv-x="675" 
d="M559 972l22 -14c6 -4 6 -10 1 -15l-112 -127c-4 -5 -8 -8 -20 -8h-63c-11 0 -14 3 -17 8l-71 127c-5 5 -2 11 5 15l27 14c6 4 10 4 16 0l86 -74l110 74c6 4 11 4 16 0zM401 770c222 0 290 -46 257 -249c-25 -156 -76 -213 -195 -231l126 -270c6 -11 0 -20 -15 -20h-93
c-23 0 -29 7 -37 22l-123 259h-123l-42 -266c-2 -12 -5 -15 -17 -15h-99c-12 0 -15 3 -12 15l116 733c1 11 5 13 17 14c81 6 171 8 240 8zM371 658h-113l-44 -274h113c143 0 182 12 201 134c19 119 -14 140 -157 140z" />
    <glyph glyph-name="Rcommaaccent" unicode="&#x156;" horiz-adv-x="675" 
d="M401 770c222 0 290 -46 257 -249c-25 -156 -76 -213 -195 -231l126 -270c6 -11 0 -20 -15 -20h-93c-23 0 -29 7 -37 22l-123 259h-123l-42 -266c-2 -12 -5 -15 -17 -15h-99c-12 0 -15 3 -12 15l116 733c1 11 5 13 17 14c81 6 171 8 240 8zM371 658h-113l-44 -274h113
c143 0 182 12 201 134c19 119 -14 140 -157 140zM254 -39h100c6 0 8 -3 8 -10v-6c0 -5 -1 -8 -8 -13l-162 -126c-6 -4 -9 -4 -14 0l-24 17c-4 3 -4 9 -1 14l88 118c3 4 7 6 13 6z" />
    <glyph glyph-name="S" unicode="S" horiz-adv-x="613" 
d="M393 770c83 0 122 -5 200 -17c12 -2 13 -8 12 -15l-11 -65c-2 -10 -8 -15 -18 -15h-230c-75 0 -116 -24 -124 -77l-3 -16c-6 -42 3 -67 53 -89l190 -81c88 -38 113 -90 97 -187l-5 -31c-23 -150 -147 -182 -304 -182c-78 0 -156 5 -243 18c-10 2 -14 7 -12 18l11 59
c2 12 8 17 20 17h277c74 0 115 22 123 75l3 17c7 46 -5 73 -59 96l-203 85c-76 30 -92 90 -77 186l4 23c24 150 140 181 299 181z" />
    <glyph glyph-name="Sacute" unicode="&#x15a;" horiz-adv-x="613" 
d="M439 975h116c6 0 8 -3 8 -10v-5c0 -5 0 -8 -7 -14l-180 -135c-5 -4 -9 -4 -14 0l-28 19c-4 3 -4 9 -1 14l93 125c3 4 7 6 13 6zM393 770c83 0 122 -5 200 -17c12 -2 13 -8 12 -15l-11 -65c-2 -10 -8 -15 -18 -15h-230c-75 0 -116 -24 -124 -77l-3 -16
c-6 -42 3 -67 53 -89l190 -81c88 -38 113 -90 97 -187l-5 -31c-23 -150 -147 -182 -304 -182c-78 0 -156 5 -243 18c-10 2 -14 7 -12 18l11 59c2 12 8 17 20 17h277c74 0 115 22 123 75l3 17c7 46 -5 73 -59 96l-203 85c-76 30 -92 90 -77 186l4 23c24 150 140 181 299 181z
" />
    <glyph glyph-name="Scaron" unicode="&#x160;" horiz-adv-x="613" 
d="M533 972l22 -14c5 -4 6 -10 1 -15l-112 -127c-5 -5 -8 -8 -20 -8h-63c-12 0 -15 3 -17 8l-72 127c-4 5 -1 11 6 15l27 14c6 4 10 4 15 0l87 -74l110 74c6 4 11 4 16 0zM393 770c83 0 122 -5 200 -17c12 -2 13 -8 12 -15l-11 -65c-2 -10 -8 -15 -18 -15h-230
c-75 0 -116 -24 -124 -77l-3 -16c-6 -42 3 -67 53 -89l190 -81c88 -38 113 -90 97 -187l-5 -31c-23 -150 -147 -182 -304 -182c-78 0 -156 5 -243 18c-10 2 -14 7 -12 18l11 59c2 12 8 17 20 17h277c74 0 115 22 123 75l3 17c7 46 -5 73 -59 96l-203 85
c-76 30 -92 90 -77 186l4 23c24 150 140 181 299 181z" />
    <glyph glyph-name="Scedilla" unicode="&#x15e;" horiz-adv-x="613" 
d="M593 753c12 -2 13 -8 12 -15l-11 -65c-2 -10 -8 -15 -18 -15h-230c-75 0 -116 -24 -124 -77l-3 -16c-6 -42 3 -67 53 -89l190 -81c88 -38 113 -90 97 -187l-5 -31c-21 -135 -124 -174 -259 -181c4 -30 6 -62 1 -90c-10 -58 -45 -77 -111 -77c-21 0 -56 3 -68 8
c-7 3 -10 9 -9 18l8 47c1 10 6 14 16 14h36c34 0 50 1 55 29c2 14 2 28 2 50c-70 1 -141 7 -218 18c-10 2 -14 7 -12 18l11 59c2 12 8 17 20 17h277c74 0 115 22 123 75l3 17c7 46 -5 73 -59 96l-203 85c-76 30 -92 90 -77 186l4 23c24 150 140 181 299 181
c83 0 122 -5 200 -17z" />
    <glyph glyph-name="Scircumflex" unicode="&#x15c;" horiz-adv-x="613" 
d="M379 975h63c12 0 15 -3 17 -8l72 -127c4 -5 1 -11 -6 -15l-27 -14c-6 -4 -10 -4 -15 0l-87 74l-110 -74c-6 -4 -11 -4 -16 0l-22 14c-5 4 -6 10 -1 15l112 127c5 5 8 8 20 8zM393 770c83 0 122 -5 200 -17c12 -2 13 -8 12 -15l-11 -65c-2 -10 -8 -15 -18 -15h-230
c-75 0 -116 -24 -124 -77l-3 -16c-6 -42 3 -67 53 -89l190 -81c88 -38 113 -90 97 -187l-5 -31c-23 -150 -147 -182 -304 -182c-78 0 -156 5 -243 18c-10 2 -14 7 -12 18l11 59c2 12 8 17 20 17h277c74 0 115 22 123 75l3 17c7 46 -5 73 -59 96l-203 85
c-76 30 -92 90 -77 186l4 23c24 150 140 181 299 181z" />
    <glyph glyph-name="Scommaaccent" unicode="&#x218;" horiz-adv-x="613" 
d="M393 770c83 0 122 -5 200 -17c12 -2 13 -8 12 -15l-11 -65c-2 -10 -8 -15 -18 -15h-230c-75 0 -116 -24 -124 -77l-3 -16c-6 -42 3 -67 53 -89l190 -81c88 -38 113 -90 97 -187l-5 -31c-23 -150 -147 -182 -304 -182c-78 0 -156 5 -243 18c-10 2 -14 7 -12 18l11 59
c2 12 8 17 20 17h277c74 0 115 22 123 75l3 17c7 46 -5 73 -59 96l-203 85c-76 30 -92 90 -77 186l4 23c24 150 140 181 299 181zM206 -39h100c6 0 7 -3 7 -10v-6c0 -5 0 -8 -7 -13l-162 -126c-6 -4 -10 -4 -14 0l-24 17c-5 3 -5 9 -1 14l88 118c3 4 7 6 13 6z" />
    <glyph glyph-name="T" unicode="T" horiz-adv-x="622" 
d="M98 765h564c10 0 15 -5 14 -15l-13 -82c-2 -10 -8 -15 -18 -15h-218l-101 -638c-2 -10 -8 -15 -18 -15h-98c-10 0 -14 5 -13 15l101 638h-217c-11 0 -15 5 -13 15l13 82c1 10 7 15 17 15z" />
    <glyph glyph-name="Tbar" unicode="&#x166;" horiz-adv-x="641" 
d="M107 765h565c10 0 14 -5 13 -15l-13 -82c-2 -10 -8 -15 -18 -15h-218l-36 -224h154c10 0 14 -5 13 -15l-8 -49c-2 -10 -7 -15 -17 -15h-154l-53 -335c-1 -10 -7 -15 -17 -15h-99c-10 0 -14 5 -13 15l54 335h-153c-10 0 -15 5 -13 15l8 49c1 10 7 15 17 15h153l36 224
h-218c-11 0 -15 5 -13 15l13 82c1 10 7 15 17 15z" />
    <glyph glyph-name="Tcaron" unicode="&#x164;" horiz-adv-x="622" 
d="M528 972l22 -14c5 -4 6 -10 1 -15l-113 -127c-4 -5 -8 -8 -19 -8h-63c-12 0 -15 3 -17 8l-72 127c-4 5 -2 11 6 15l26 14c6 4 11 4 16 0l87 -74l110 74c6 4 11 4 16 0zM98 765h564c10 0 15 -5 14 -15l-13 -82c-2 -10 -8 -15 -18 -15h-218l-101 -638
c-2 -10 -8 -15 -18 -15h-98c-10 0 -14 5 -13 15l101 638h-217c-11 0 -15 5 -13 15l13 82c1 10 7 15 17 15z" />
    <glyph glyph-name="Tcedilla" unicode="&#x162;" horiz-adv-x="622" 
d="M98 765h564c10 0 15 -5 14 -15l-13 -82c-2 -10 -8 -15 -18 -15h-218l-103 -647c5 -33 7 -69 2 -100c-10 -58 -45 -77 -111 -77c-21 0 -56 3 -68 8c-7 3 -10 9 -9 18l7 47c2 10 7 14 17 14h35c35 0 51 1 56 29c2 14 2 29 1 55h-44c-10 0 -14 5 -13 15l101 638h-217
c-11 0 -15 5 -13 15l13 82c1 10 7 15 17 15z" />
    <glyph glyph-name="uni021A" unicode="&#x21a;" horiz-adv-x="622" 
d="M98 765h564c10 0 15 -5 14 -15l-13 -82c-2 -10 -8 -15 -18 -15h-218l-101 -638c-2 -10 -8 -15 -18 -15h-98c-10 0 -14 5 -13 15l101 638h-217c-11 0 -15 5 -13 15l13 82c1 10 7 15 17 15zM206 -39h100c6 0 8 -3 8 -10v-6c0 -5 -1 -8 -8 -13l-162 -126c-6 -4 -9 -4 -14 0
l-24 17c-5 3 -5 9 -1 14l88 118c3 4 7 6 13 6z" />
    <glyph glyph-name="U" unicode="U" horiz-adv-x="753" 
d="M641 765h98c11 0 15 -3 13 -15l-59 -369c-49 -309 -123 -386 -368 -386s-294 77 -245 386l58 369c2 12 6 15 17 15h99c11 0 14 -3 13 -15l-59 -369c-35 -219 -7 -274 135 -274c143 0 187 55 222 274l59 369c1 12 5 15 17 15z" />
    <glyph glyph-name="Uacute" unicode="&#xda;" horiz-adv-x="753" 
d="M485 975h116c6 0 8 -3 8 -10v-5c0 -5 -1 -8 -8 -14l-180 -135c-5 -4 -9 -4 -14 0l-28 19c-4 3 -4 9 0 14l93 125c2 4 7 6 13 6zM641 765h98c11 0 15 -3 13 -15l-59 -369c-49 -309 -123 -386 -368 -386s-294 77 -245 386l58 369c2 12 6 15 17 15h99c11 0 14 -3 13 -15
l-59 -369c-35 -219 -7 -274 135 -274c143 0 187 55 222 274l59 369c1 12 5 15 17 15z" />
    <glyph glyph-name="Ubreve" unicode="&#x16c;" horiz-adv-x="753" 
d="M582 965h45c12 0 15 -5 11 -16c-29 -97 -73 -128 -181 -128c-110 0 -142 31 -142 128c0 12 5 16 17 16h44c10 0 13 -4 15 -12c11 -41 30 -54 78 -54s71 13 94 54c4 8 10 12 19 12zM641 765h98c11 0 15 -3 13 -15l-59 -369c-49 -309 -123 -386 -368 -386s-294 77 -245 386
l58 369c2 12 6 15 17 15h99c11 0 14 -3 13 -15l-59 -369c-35 -219 -7 -274 135 -274c143 0 187 55 222 274l59 369c1 12 5 15 17 15z" />
    <glyph glyph-name="Ucaron" unicode="&#x1d3;" horiz-adv-x="753" 
d="M595 972l22 -14c5 -4 6 -10 1 -15l-113 -127c-4 -5 -8 -8 -19 -8h-63c-12 0 -15 3 -17 8l-72 127c-4 5 -2 11 6 15l26 14c6 4 11 4 16 0l87 -74l110 74c6 4 11 4 16 0zM641 765h98c11 0 15 -3 13 -15l-59 -369c-49 -309 -123 -386 -368 -386s-294 77 -245 386l58 369
c2 12 6 15 17 15h99c11 0 14 -3 13 -15l-59 -369c-35 -219 -7 -274 135 -274c143 0 187 55 222 274l59 369c1 12 5 15 17 15z" />
    <glyph glyph-name="Ucircumflex" unicode="&#xdb;" horiz-adv-x="753" 
d="M449 975h63c12 0 15 -3 17 -8l72 -127c5 -5 2 -11 -5 -15l-27 -14c-6 -4 -11 -4 -16 0l-86 74l-111 -74c-6 -4 -10 -4 -16 0l-22 14c-5 4 -6 10 -1 15l113 127c4 5 8 8 19 8zM641 765h98c11 0 15 -3 13 -15l-59 -369c-49 -309 -123 -386 -368 -386s-294 77 -245 386
l58 369c2 12 6 15 17 15h99c11 0 14 -3 13 -15l-59 -369c-35 -219 -7 -274 135 -274c143 0 187 55 222 274l59 369c1 12 5 15 17 15z" />
    <glyph glyph-name="Udieresis" unicode="&#xdc;" horiz-adv-x="753" 
d="M377 957c46 0 64 -24 58 -66c-7 -43 -34 -67 -79 -67s-66 23 -59 67s35 66 80 66zM580 957c46 0 65 -24 58 -66c-6 -43 -34 -67 -79 -67s-66 23 -59 67s35 66 80 66zM641 765h98c11 0 15 -3 13 -15l-59 -369c-49 -309 -123 -386 -368 -386s-294 77 -245 386l58 369
c2 12 6 15 17 15h99c11 0 14 -3 13 -15l-59 -369c-35 -219 -7 -274 135 -274c143 0 187 55 222 274l59 369c1 12 5 15 17 15z" />
    <glyph glyph-name="Udieresisacute" unicode="&#x1d7;" horiz-adv-x="753" 
d="M542 1138h116c6 0 8 -3 8 -10v-5c0 -5 -1 -8 -7 -14l-180 -135c-5 -4 -9 -4 -14 0l-28 19c-4 4 -4 9 -1 14l93 125c3 4 7 6 13 6zM377 957c46 0 64 -24 58 -66c-7 -43 -34 -67 -79 -67s-66 23 -59 67s35 66 80 66zM580 957c46 0 65 -24 58 -66c-6 -43 -34 -67 -79 -67
s-66 23 -59 67s35 66 80 66zM641 765h98c11 0 15 -3 13 -15l-59 -369c-49 -309 -123 -386 -368 -386s-294 77 -245 386l58 369c2 12 6 15 17 15h99c11 0 14 -3 13 -15l-59 -369c-35 -219 -7 -274 135 -274c143 0 187 55 222 274l59 369c1 12 5 15 17 15z" />
    <glyph glyph-name="Udieresiscaron" unicode="&#x1d9;" horiz-adv-x="753" 
d="M620 1138l22 -14c5 -4 6 -9 1 -15l-112 -127c-5 -4 -8 -8 -20 -8h-63c-12 0 -15 4 -17 8l-72 127c-4 6 -1 11 6 15l27 14c5 4 10 5 15 0l87 -74l110 74c6 5 11 4 16 0zM377 957c46 0 64 -24 58 -66c-7 -43 -34 -67 -79 -67s-66 23 -59 67s35 66 80 66zM580 957
c46 0 65 -24 58 -66c-6 -43 -34 -67 -79 -67s-66 23 -59 67s35 66 80 66zM641 765h98c11 0 15 -3 13 -15l-59 -369c-49 -309 -123 -386 -368 -386s-294 77 -245 386l58 369c2 12 6 15 17 15h99c11 0 14 -3 13 -15l-59 -369c-35 -219 -7 -274 135 -274c143 0 187 55 222 274
l59 369c1 12 5 15 17 15z" />
    <glyph glyph-name="Udieresisgrave" unicode="&#x1db;" horiz-adv-x="753" 
d="M343 1138h116c6 0 9 -1 11 -6l53 -125c3 -5 1 -10 -5 -14l-34 -19c-6 -4 -10 -5 -14 0l-134 133c-4 3 -4 7 -4 14v7c0 7 5 10 11 10zM377 957c46 0 64 -24 58 -66c-7 -43 -34 -67 -79 -67s-66 23 -59 67s35 66 80 66zM580 957c46 0 65 -24 58 -66c-6 -43 -34 -67 -79 -67
s-66 23 -59 67s35 66 80 66zM641 765h98c11 0 15 -3 13 -15l-59 -369c-49 -309 -123 -386 -368 -386s-294 77 -245 386l58 369c2 12 6 15 17 15h99c11 0 14 -3 13 -15l-59 -369c-35 -219 -7 -274 135 -274c143 0 187 55 222 274l59 369c1 12 5 15 17 15z" />
    <glyph glyph-name="Udieresismacron" unicode="&#x1d5;" horiz-adv-x="753" 
d="M357 1100h273c10 0 14 -5 13 -15l-8 -51c-2 -10 -7 -15 -17 -15h-274c-10 0 -14 5 -13 15l9 51c1 10 7 15 17 15zM377 957c46 0 64 -24 58 -66c-7 -43 -34 -67 -79 -67s-66 23 -59 67s35 66 80 66zM580 957c46 0 65 -24 58 -66c-6 -43 -34 -67 -79 -67s-66 23 -59 67
s35 66 80 66zM641 765h98c11 0 15 -3 13 -15l-59 -369c-49 -309 -123 -386 -368 -386s-294 77 -245 386l58 369c2 12 6 15 17 15h99c11 0 14 -3 13 -15l-59 -369c-35 -219 -7 -274 135 -274c143 0 187 55 222 274l59 369c1 12 5 15 17 15z" />
    <glyph glyph-name="Ugrave" unicode="&#xd9;" horiz-adv-x="753" 
d="M345 975h116c6 0 9 -1 11 -6l53 -125c3 -5 1 -11 -5 -14l-34 -19c-6 -4 -10 -5 -14 0l-135 133c-3 3 -4 7 -4 13v8c0 7 6 10 12 10zM641 765h98c11 0 15 -3 13 -15l-59 -369c-49 -309 -123 -386 -368 -386s-294 77 -245 386l58 369c2 12 6 15 17 15h99c11 0 14 -3 13 -15
l-59 -369c-35 -219 -7 -274 135 -274c143 0 187 55 222 274l59 369c1 12 5 15 17 15z" />
    <glyph glyph-name="Uhungarumlaut" unicode="&#x170;" horiz-adv-x="753" 
d="M336 975h88c6 0 9 -3 9 -10v-6c0 -5 -2 -8 -8 -13l-163 -131c-6 -4 -10 -4 -14 0l-17 15c-4 4 -4 9 -1 14l93 125c2 4 7 6 13 6zM518 975h88c6 0 9 -3 9 -10v-6c0 -5 -2 -8 -8 -13l-164 -131c-5 -4 -9 -4 -14 0l-17 15c-4 4 -4 9 0 14l93 125c2 4 7 6 13 6zM641 765h98
c11 0 15 -3 13 -15l-59 -369c-49 -309 -123 -386 -368 -386s-294 77 -245 386l58 369c2 12 6 15 17 15h99c11 0 14 -3 13 -15l-59 -369c-35 -219 -7 -274 135 -274c143 0 187 55 222 274l59 369c1 12 5 15 17 15z" />
    <glyph glyph-name="Umacron" unicode="&#x16a;" horiz-adv-x="753" 
d="M336 922h273c10 0 14 -5 12 -15l-8 -51c-1 -10 -7 -15 -17 -15h-273c-10 0 -14 5 -13 15l8 51c2 10 8 15 18 15zM641 765h98c11 0 15 -3 13 -15l-59 -369c-49 -309 -123 -386 -368 -386s-294 77 -245 386l58 369c2 12 6 15 17 15h99c11 0 14 -3 13 -15l-59 -369
c-35 -219 -7 -274 135 -274c143 0 187 55 222 274l59 369c1 12 5 15 17 15z" />
    <glyph glyph-name="Uogonek" unicode="&#x172;" horiz-adv-x="753" 
d="M641 765h98c11 0 15 -3 13 -15l-59 -369c-47 -297 -117 -380 -340 -386c-8 -21 -13 -36 -15 -50c-5 -28 12 -29 46 -29h36c10 0 14 -4 12 -14l-7 -47c-2 -9 -7 -15 -15 -18c-13 -5 -50 -8 -71 -8c-66 0 -95 19 -86 77c4 28 15 60 29 90c-208 9 -248 95 -202 385l58 369
c2 12 6 15 17 15h99c11 0 14 -3 13 -15l-59 -369c-35 -219 -7 -274 135 -274c143 0 187 55 222 274l59 369c1 12 5 15 17 15z" />
    <glyph glyph-name="Uring" unicode="&#x16e;" horiz-adv-x="753" 
d="M489 1022c73 0 105 -37 94 -108c-11 -70 -55 -107 -128 -107s-106 37 -95 107c11 71 56 108 129 108zM482 976c-42 0 -66 -21 -72 -62c-6 -40 11 -62 52 -62s66 22 72 62c6 41 -10 62 -52 62zM641 765h98c11 0 15 -3 13 -15l-59 -369c-49 -309 -123 -386 -368 -386
s-294 77 -245 386l58 369c2 12 6 15 17 15h99c11 0 14 -3 13 -15l-59 -369c-35 -219 -7 -274 135 -274c143 0 187 55 222 274l59 369c1 12 5 15 17 15z" />
    <glyph glyph-name="Utilde" unicode="&#x168;" horiz-adv-x="753" 
d="M531 826c-49 0 -99 40 -133 40c-24 0 -35 -8 -50 -34c-8 -12 -12 -13 -21 -10l-31 8c-9 4 -12 9 -7 22c36 83 61 106 115 106c49 0 100 -40 133 -40c24 0 35 7 50 34c8 11 12 13 21 10l31 -9c10 -4 13 -9 7 -22c-36 -83 -61 -105 -115 -105zM641 765h98
c11 0 15 -3 13 -15l-59 -369c-49 -309 -123 -386 -368 -386s-294 77 -245 386l58 369c2 12 6 15 17 15h99c11 0 14 -3 13 -15l-59 -369c-35 -219 -7 -274 135 -274c143 0 187 55 222 274l59 369c1 12 5 15 17 15z" />
    <glyph glyph-name="V" unicode="V" horiz-adv-x="678" 
d="M611 765h102c11 0 15 -3 10 -16l-266 -636c-45 -105 -61 -118 -172 -118c-104 0 -117 12 -128 118l-71 636c-1 13 3 16 14 16h102c9 0 9 -3 11 -16l66 -605c4 -35 6 -42 23 -42c22 0 26 7 41 42l252 605c5 13 7 16 16 16z" />
    <glyph glyph-name="W" unicode="W" horiz-adv-x="1092" 
d="M1017 765h105c12 0 15 -3 11 -16l-231 -636c-38 -104 -58 -118 -159 -118c-113 0 -123 13 -131 118l-33 417l-165 -417c-43 -105 -56 -118 -170 -118c-100 0 -116 14 -120 118l-29 636c-1 13 3 16 15 16h104c9 0 11 -3 12 -16l24 -587c3 -35 7 -42 24 -42
c22 0 26 7 41 42l226 558c5 13 12 16 21 16h98c9 0 16 -3 17 -16l49 -558c4 -35 7 -42 29 -42c16 0 22 7 36 42l211 587c4 13 7 16 15 16z" />
    <glyph glyph-name="Wacute" unicode="&#x1e82;" horiz-adv-x="1092" 
d="M685 975h116c6 0 8 -3 8 -10v-5c0 -5 -1 -8 -8 -14l-179 -135c-6 -4 -9 -4 -14 0l-29 19c-4 3 -4 9 0 14l93 125c2 4 7 6 13 6zM1017 765h105c12 0 15 -3 11 -16l-231 -636c-38 -104 -58 -118 -159 -118c-113 0 -123 13 -131 118l-33 417l-165 -417
c-43 -105 -56 -118 -170 -118c-100 0 -116 14 -120 118l-29 636c-1 13 3 16 15 16h104c9 0 11 -3 12 -16l24 -587c3 -35 7 -42 24 -42c22 0 26 7 41 42l226 558c5 13 12 16 21 16h98c9 0 16 -3 17 -16l49 -558c4 -35 7 -42 29 -42c16 0 22 7 36 42l211 587c4 13 7 16 15 16z
" />
    <glyph glyph-name="Wcircumflex" unicode="&#x174;" horiz-adv-x="1092" 
d="M618 975h63c12 0 15 -3 17 -8l72 -127c4 -5 2 -11 -6 -15l-26 -14c-6 -4 -11 -4 -16 0l-86 74l-111 -74c-6 -4 -11 -4 -16 0l-22 14c-5 4 -6 10 -1 15l113 127c4 5 7 8 19 8zM1017 765h105c12 0 15 -3 11 -16l-231 -636c-38 -104 -58 -118 -159 -118
c-113 0 -123 13 -131 118l-33 417l-165 -417c-43 -105 -56 -118 -170 -118c-100 0 -116 14 -120 118l-29 636c-1 13 3 16 15 16h104c9 0 11 -3 12 -16l24 -587c3 -35 7 -42 24 -42c22 0 26 7 41 42l226 558c5 13 12 16 21 16h98c9 0 16 -3 17 -16l49 -558
c4 -35 7 -42 29 -42c16 0 22 7 36 42l211 587c4 13 7 16 15 16z" />
    <glyph glyph-name="Wdieresis" unicode="&#x1e84;" horiz-adv-x="1092" 
d="M546 957c45 0 64 -24 58 -66c-7 -43 -34 -67 -80 -67c-44 0 -65 23 -59 67c7 44 36 66 81 66zM749 957c45 0 65 -24 58 -66c-6 -43 -34 -67 -80 -67c-44 0 -65 23 -58 67s35 66 80 66zM1017 765h105c12 0 15 -3 11 -16l-231 -636c-38 -104 -58 -118 -159 -118
c-113 0 -123 13 -131 118l-33 417l-165 -417c-43 -105 -56 -118 -170 -118c-100 0 -116 14 -120 118l-29 636c-1 13 3 16 15 16h104c9 0 11 -3 12 -16l24 -587c3 -35 7 -42 24 -42c22 0 26 7 41 42l226 558c5 13 12 16 21 16h98c9 0 16 -3 17 -16l49 -558
c4 -35 7 -42 29 -42c16 0 22 7 36 42l211 587c4 13 7 16 15 16z" />
    <glyph glyph-name="Wgrave" unicode="&#x1e80;" horiz-adv-x="1092" 
d="M514 975h116c6 0 9 -1 11 -6l53 -125c2 -5 0 -11 -6 -14l-34 -19c-5 -4 -10 -5 -14 0l-134 133c-3 3 -4 7 -4 13v8c0 7 6 10 12 10zM1017 765h105c12 0 15 -3 11 -16l-231 -636c-38 -104 -58 -118 -159 -118c-113 0 -123 13 -131 118l-33 417l-165 -417
c-43 -105 -56 -118 -170 -118c-100 0 -116 14 -120 118l-29 636c-1 13 3 16 15 16h104c9 0 11 -3 12 -16l24 -587c3 -35 7 -42 24 -42c22 0 26 7 41 42l226 558c5 13 12 16 21 16h98c9 0 16 -3 17 -16l49 -558c4 -35 7 -42 29 -42c16 0 22 7 36 42l211 587c4 13 7 16 15 16z
" />
    <glyph glyph-name="X" unicode="X" horiz-adv-x="669" 
d="M591 765h109c15 0 19 -8 8 -22l-287 -345l193 -376c8 -16 -1 -22 -15 -22h-108c-15 0 -19 5 -24 16l-137 278l-225 -278c-9 -11 -15 -16 -30 -16h-108c-14 0 -21 6 -8 22l312 376l-177 345c-7 14 -1 22 14 22h109c16 0 20 -6 25 -16l121 -247l199 247c7 10 13 16 29 16z
" />
    <glyph glyph-name="Y" unicode="Y" horiz-adv-x="683" 
d="M629 765h108c14 0 19 -6 8 -22l-353 -504l-35 -223c-2 -11 -8 -16 -18 -16h-98c-10 0 -14 5 -13 16l36 224l-193 503c-7 16 0 22 14 22h108c15 0 20 -5 25 -16l131 -377l251 377c7 11 14 16 29 16z" />
    <glyph glyph-name="Yacute" unicode="&#xdd;" horiz-adv-x="683" 
d="M483 975h116c6 0 8 -3 8 -10v-5c0 -5 -1 -8 -7 -14l-180 -135c-6 -4 -9 -4 -14 0l-28 19c-4 3 -4 9 -1 14l93 125c3 4 7 6 13 6zM629 765h108c14 0 19 -6 8 -22l-353 -504l-35 -223c-2 -11 -8 -16 -18 -16h-98c-10 0 -14 5 -13 16l36 224l-193 503c-7 16 0 22 14 22h108
c15 0 20 -5 25 -16l131 -377l251 377c7 11 14 16 29 16z" />
    <glyph glyph-name="Ycircumflex" unicode="&#x176;" horiz-adv-x="683" 
d="M414 975h63c11 0 14 -3 17 -8l71 -127c5 -5 2 -11 -5 -15l-27 -14c-6 -4 -10 -4 -16 0l-86 74l-110 -74c-6 -4 -11 -4 -16 0l-22 14c-6 4 -6 10 -1 15l112 127c4 5 8 8 20 8zM629 765h108c14 0 19 -6 8 -22l-353 -504l-35 -223c-2 -11 -8 -16 -18 -16h-98
c-10 0 -14 5 -13 16l36 224l-193 503c-7 16 0 22 14 22h108c15 0 20 -5 25 -16l131 -377l251 377c7 11 14 16 29 16z" />
    <glyph glyph-name="Ydieresis" unicode="&#x178;" horiz-adv-x="683" 
d="M341 957c46 0 65 -24 58 -66c-7 -43 -34 -67 -79 -67c-44 0 -66 23 -59 67s36 66 80 66zM544 957c46 0 65 -24 59 -66c-7 -43 -35 -67 -80 -67c-44 0 -65 23 -58 67s35 66 79 66zM629 765h108c14 0 19 -6 8 -22l-353 -504l-35 -223c-2 -11 -8 -16 -18 -16h-98
c-10 0 -14 5 -13 16l36 224l-193 503c-7 16 0 22 14 22h108c15 0 20 -5 25 -16l131 -377l251 377c7 11 14 16 29 16z" />
    <glyph glyph-name="Ygrave" unicode="&#x1ef2;" horiz-adv-x="683" 
d="M309 975h116c6 0 9 -1 11 -6l53 -125c3 -5 1 -11 -5 -14l-34 -19c-6 -4 -10 -5 -14 0l-134 133c-4 3 -4 7 -4 13v8c0 7 5 10 11 10zM629 765h108c14 0 19 -6 8 -22l-353 -504l-35 -223c-2 -11 -8 -16 -18 -16h-98c-10 0 -14 5 -13 16l36 224l-193 503c-7 16 0 22 14 22
h108c15 0 20 -5 25 -16l131 -377l251 377c7 11 14 16 29 16z" />
    <glyph glyph-name="Ytilde" unicode="&#x1ef8;" horiz-adv-x="683" 
d="M495 826c-48 0 -99 40 -133 40c-23 0 -34 -8 -50 -34c-7 -12 -11 -13 -21 -10l-31 8c-9 4 -12 9 -7 22c37 83 61 106 116 106c48 0 99 -40 133 -40c23 0 34 7 50 34c7 11 11 13 20 10l31 -9c10 -4 13 -9 7 -22c-36 -83 -61 -105 -115 -105zM629 765h108c14 0 19 -6 8 -22
l-353 -504l-35 -223c-2 -11 -8 -16 -18 -16h-98c-10 0 -14 5 -13 16l36 224l-193 503c-7 16 0 22 14 22h108c15 0 20 -5 25 -16l131 -377l251 377c7 11 14 16 29 16z" />
    <glyph glyph-name="Z" unicode="Z" horiz-adv-x="667" 
d="M126 765h557c10 0 14 -4 13 -15l-12 -73c-1 -8 -3 -12 -10 -19l-509 -546h423c10 0 15 -5 13 -15l-13 -82c-1 -10 -8 -15 -18 -15h-576c-10 0 -14 5 -13 15l11 72c1 7 2 11 10 19l509 547h-402c-11 0 -15 5 -13 14l12 83c1 11 7 15 18 15z" />
    <glyph glyph-name="Zacute" unicode="&#x179;" horiz-adv-x="667" 
d="M461 975h116c6 0 8 -3 8 -10v-5c0 -5 -1 -8 -8 -14l-180 -135c-5 -4 -9 -4 -14 0l-28 19c-4 3 -4 9 0 14l93 125c2 4 7 6 13 6zM126 765h557c10 0 14 -4 13 -15l-12 -73c-1 -8 -3 -12 -10 -19l-509 -546h423c10 0 15 -5 13 -15l-13 -82c-1 -10 -8 -15 -18 -15h-576
c-10 0 -14 5 -13 15l11 72c1 7 2 11 10 19l509 547h-402c-11 0 -15 5 -13 14l12 83c1 11 7 15 18 15z" />
    <glyph glyph-name="Zcaron" unicode="&#x17d;" horiz-adv-x="667" 
d="M551 972l22 -14c5 -4 6 -10 1 -15l-113 -127c-4 -5 -8 -8 -19 -8h-63c-12 0 -15 3 -17 8l-72 127c-5 5 -2 11 5 15l27 14c6 4 11 4 16 0l86 -74l111 74c6 4 10 4 16 0zM126 765h557c10 0 14 -4 13 -15l-12 -73c-1 -8 -3 -12 -10 -19l-509 -546h423c10 0 15 -5 13 -15
l-13 -82c-1 -10 -8 -15 -18 -15h-576c-10 0 -14 5 -13 15l11 72c1 7 2 11 10 19l509 547h-402c-11 0 -15 5 -13 14l12 83c1 11 7 15 18 15z" />
    <glyph glyph-name="Zdotaccent" unicode="&#x17b;" horiz-adv-x="667" 
d="M434 959c47 0 68 -24 61 -68c-7 -46 -37 -69 -83 -69s-68 23 -61 69c7 45 37 68 83 68zM126 765h557c10 0 14 -4 13 -15l-12 -73c-1 -8 -3 -12 -10 -19l-509 -546h423c10 0 15 -5 13 -15l-13 -82c-1 -10 -8 -15 -18 -15h-576c-10 0 -14 5 -13 15l11 72c1 7 2 11 10 19
l509 547h-402c-11 0 -15 5 -13 14l12 83c1 11 7 15 18 15z" />
    <glyph glyph-name="Q.alt" horiz-adv-x="731" 
d="M689 381c-35 -225 -89 -330 -220 -368l106 -58c8 -5 9 -13 3 -21l-53 -71c-7 -9 -12 -10 -21 -5l-208 137c-234 4 -281 95 -235 386c47 300 126 389 375 389c250 0 300 -89 253 -389zM331 107c156 0 195 63 228 274c35 213 16 277 -140 277s-195 -64 -229 -277
c-34 -211 -15 -274 141 -274z" />
    <glyph glyph-name="a" unicode="a" horiz-adv-x="548" 
d="M292 558c176 0 225 -56 208 -164l-56 -348c-1 -13 -5 -23 -24 -29c-55 -15 -144 -22 -229 -22c-140 0 -207 22 -185 167c21 127 93 159 216 159h145l8 52c8 56 -20 80 -100 80h-165c-11 0 -14 3 -12 16l10 60c2 12 6 14 16 16c62 11 116 13 168 13zM353 234h-138
c-53 0 -80 -17 -88 -67c-9 -57 16 -71 90 -71c25 0 80 2 116 11z" />
    <glyph glyph-name="aacute" unicode="&#xe1;" horiz-adv-x="548" 
d="M359 775h116c6 0 8 -3 8 -10v-5c0 -5 -1 -8 -8 -14l-180 -135c-5 -4 -9 -4 -14 0l-28 19c-4 3 -4 9 0 14l93 125c2 4 7 6 13 6zM292 558c176 0 225 -56 208 -164l-56 -348c-1 -13 -5 -23 -24 -29c-55 -15 -144 -22 -229 -22c-140 0 -207 22 -185 167
c21 127 93 159 216 159h145l8 52c8 56 -20 80 -100 80h-165c-11 0 -14 3 -12 16l10 60c2 12 6 14 16 16c62 11 116 13 168 13zM353 234h-138c-53 0 -80 -17 -88 -67c-9 -57 16 -71 90 -71c25 0 80 2 116 11z" />
    <glyph glyph-name="abreve" unicode="&#x103;" horiz-adv-x="548" 
d="M445 765h45c12 0 15 -5 12 -16c-30 -97 -74 -128 -182 -128c-110 0 -141 31 -142 128c0 12 5 16 17 16h45c9 0 13 -4 15 -12c10 -41 29 -54 77 -54s71 13 94 54c5 8 10 12 19 12zM292 558c176 0 225 -56 208 -164l-56 -348c-1 -13 -5 -23 -24 -29
c-55 -15 -144 -22 -229 -22c-140 0 -207 22 -185 167c21 127 93 159 216 159h145l8 52c8 56 -20 80 -100 80h-165c-11 0 -14 3 -12 16l10 60c2 12 6 14 16 16c62 11 116 13 168 13zM353 234h-138c-53 0 -80 -17 -88 -67c-9 -57 16 -71 90 -71c25 0 80 2 116 11z" />
    <glyph glyph-name="acaron" unicode="&#x1ce;" horiz-adv-x="548" 
d="M449 772l22 -14c5 -4 6 -10 1 -15l-113 -127c-4 -5 -8 -8 -19 -8h-63c-12 0 -15 3 -17 8l-72 127c-5 5 -2 11 5 15l27 14c6 4 11 4 16 0l86 -74l111 74c6 4 10 4 16 0zM292 558c176 0 225 -56 208 -164l-56 -348c-1 -13 -5 -23 -24 -29c-55 -15 -144 -22 -229 -22
c-140 0 -207 22 -185 167c21 127 93 159 216 159h145l8 52c8 56 -20 80 -100 80h-165c-11 0 -14 3 -12 16l10 60c2 12 6 14 16 16c62 11 116 13 168 13zM353 234h-138c-53 0 -80 -17 -88 -67c-9 -57 16 -71 90 -71c25 0 80 2 116 11z" />
    <glyph glyph-name="acircumflex" unicode="&#xe2;" horiz-adv-x="548" 
d="M304 775h64c11 0 14 -3 16 -8l72 -127c5 -5 2 -11 -5 -15l-27 -14c-6 -4 -11 -4 -16 0l-86 74l-111 -74c-6 -4 -10 -4 -16 0l-22 14c-5 4 -5 10 -1 15l113 127c4 5 8 8 19 8zM292 558c176 0 225 -56 208 -164l-56 -348c-1 -13 -5 -23 -24 -29c-55 -15 -144 -22 -229 -22
c-140 0 -207 22 -185 167c21 127 93 159 216 159h145l8 52c8 56 -20 80 -100 80h-165c-11 0 -14 3 -12 16l10 60c2 12 6 14 16 16c62 11 116 13 168 13zM353 234h-138c-53 0 -80 -17 -88 -67c-9 -57 16 -71 90 -71c25 0 80 2 116 11z" />
    <glyph glyph-name="adieresis" unicode="&#xe4;" horiz-adv-x="548" 
d="M243 757c45 0 64 -24 57 -66c-6 -43 -33 -67 -79 -67c-44 0 -66 23 -59 67s36 66 81 66zM446 757c45 0 65 -24 58 -66c-7 -43 -34 -67 -80 -67c-44 0 -65 23 -58 67s35 66 80 66zM293 558c176 0 225 -56 208 -164l-56 -348c-1 -13 -5 -23 -24 -29
c-55 -15 -144 -22 -229 -22c-140 0 -207 22 -185 167c21 127 93 159 216 159h145l8 52c8 56 -20 80 -100 80h-165c-11 0 -14 3 -12 16l10 60c2 12 6 14 16 16c62 11 116 13 168 13zM354 234h-138c-53 0 -80 -17 -88 -67c-9 -57 16 -71 90 -71c25 0 80 2 116 11z" />
    <glyph glyph-name="agrave" unicode="&#xe0;" horiz-adv-x="548" 
d="M190 775h116c6 0 9 -1 11 -6l53 -125c3 -5 1 -11 -5 -14l-34 -19c-5 -4 -10 -5 -14 0l-134 133c-3 3 -4 7 -4 13v8c0 7 5 10 11 10zM292 558c176 0 225 -56 208 -164l-56 -348c-1 -13 -5 -23 -24 -29c-55 -15 -144 -22 -229 -22c-140 0 -207 22 -185 167
c21 127 93 159 216 159h145l8 52c8 56 -20 80 -100 80h-165c-11 0 -14 3 -12 16l10 60c2 12 6 14 16 16c62 11 116 13 168 13zM353 234h-138c-53 0 -80 -17 -88 -67c-9 -57 16 -71 90 -71c25 0 80 2 116 11z" />
    <glyph glyph-name="amacron" unicode="&#x101;" horiz-adv-x="548" 
d="M202 722h273c10 0 14 -5 12 -15l-8 -51c-1 -10 -7 -15 -17 -15h-273c-10 0 -14 5 -13 15l8 51c2 10 8 15 18 15zM292 558c176 0 225 -56 208 -164l-56 -348c-1 -13 -5 -23 -24 -29c-55 -15 -144 -22 -229 -22c-140 0 -207 22 -185 167c21 127 93 159 216 159h145l8 52
c8 56 -20 80 -100 80h-165c-11 0 -14 3 -12 16l10 60c2 12 6 14 16 16c62 11 116 13 168 13zM353 234h-138c-53 0 -80 -17 -88 -67c-9 -57 16 -71 90 -71c25 0 80 2 116 11z" />
    <glyph glyph-name="aogonek" unicode="&#x105;" horiz-adv-x="548" 
d="M292 558c176 0 225 -56 208 -164l-56 -348c-1 -13 -5 -23 -24 -29s-46 -10 -77 -14c-11 -32 -15 -44 -17 -58c-5 -28 12 -29 46 -29h36c10 0 14 -3 12 -14l-7 -47c-2 -11 -7 -15 -15 -18c-13 -5 -50 -8 -71 -8c-66 0 -95 19 -86 77c5 29 16 61 30 91
c-25 -1 -52 -2 -80 -2c-140 0 -207 22 -185 167c21 127 93 159 216 159h145l8 52c8 56 -20 80 -100 80h-165c-11 0 -14 3 -12 16l10 60c2 12 6 14 16 16c62 11 116 13 168 13zM353 234h-138c-53 0 -80 -17 -88 -67c-9 -57 16 -71 90 -71c25 0 80 2 116 11z" />
    <glyph glyph-name="aring" unicode="&#xe5;" horiz-adv-x="548" 
d="M337 823c73 0 105 -37 94 -108c-11 -70 -55 -107 -128 -107c-72 0 -105 37 -94 107c11 71 55 108 128 108zM330 777c-41 0 -66 -21 -72 -62c-6 -40 11 -62 52 -62c42 0 66 22 72 62c6 41 -10 62 -52 62zM292 558c176 0 225 -56 208 -164l-56 -348c-1 -13 -5 -23 -24 -29
c-55 -15 -144 -22 -229 -22c-140 0 -207 22 -185 167c21 127 93 159 216 159h145l8 52c8 56 -20 80 -100 80h-165c-11 0 -14 3 -12 16l10 60c2 12 6 14 16 16c62 11 116 13 168 13zM353 234h-138c-53 0 -80 -17 -88 -67c-9 -57 16 -71 90 -71c25 0 80 2 116 11z" />
    <glyph glyph-name="aringacute" unicode="&#x1fb;" horiz-adv-x="548" 
d="M384 916h116c6 0 8 -3 8 -10v-6c0 -5 -1 -8 -7 -13l-103 -77c31 -16 43 -48 35 -95c-10 -70 -55 -107 -127 -107c-73 0 -106 37 -95 107c9 58 40 93 92 103l68 92c3 4 7 6 13 6zM332 777c-41 0 -66 -21 -72 -62c-6 -40 11 -62 52 -62c42 0 66 22 72 62
c6 41 -10 62 -52 62zM293 558c176 0 225 -56 208 -164l-56 -348c-1 -13 -5 -23 -24 -29c-55 -15 -144 -22 -229 -22c-140 0 -207 22 -185 167c21 127 93 159 216 159h145l8 52c8 56 -20 80 -100 80h-165c-11 0 -14 3 -12 16l10 60c2 12 6 14 16 16c62 11 116 13 168 13z
M354 234h-138c-53 0 -80 -17 -88 -67c-9 -57 16 -71 90 -71c25 0 80 2 116 11z" />
    <glyph glyph-name="atilde" unicode="&#xe3;" horiz-adv-x="548" 
d="M398 626c-49 0 -99 40 -133 40c-24 0 -35 -8 -50 -34c-8 -12 -12 -13 -21 -10l-31 8c-9 4 -12 9 -7 22c36 83 61 106 115 106c49 0 100 -40 133 -40c24 0 35 7 50 34c8 11 12 13 21 10l31 -9c10 -4 13 -9 7 -22c-36 -83 -61 -105 -115 -105zM293 558
c176 0 225 -56 208 -164l-56 -348c-1 -13 -5 -23 -24 -29c-55 -15 -144 -22 -229 -22c-140 0 -207 22 -185 167c21 127 93 159 216 159h145l8 52c8 56 -20 80 -100 80h-165c-11 0 -14 3 -12 16l10 60c2 12 6 14 16 16c62 11 116 13 168 13zM354 234h-138
c-53 0 -80 -17 -88 -67c-9 -57 16 -71 90 -71c25 0 80 2 116 11z" />
    <glyph glyph-name="ae" unicode="&#xe6;" horiz-adv-x="877" 
d="M644 558c188 0 224 -54 191 -271l-5 -30c-3 -19 -9 -27 -38 -27h-316c-15 -106 5 -130 103 -130h170c10 0 14 -5 13 -15l-10 -62c-1 -11 -7 -15 -17 -17c-53 -8 -117 -11 -181 -11c-60 0 -133 17 -163 39c-56 -27 -107 -39 -200 -39c-140 0 -207 22 -186 156l2 18
c20 120 92 152 215 152h145l8 52c8 56 -20 80 -100 80h-165c-11 0 -13 3 -12 15l10 61c2 12 6 14 16 16c62 11 116 13 168 13c81 0 139 -14 171 -47c42 34 100 47 181 47zM627 453c-92 0 -120 -28 -139 -136h230c16 108 -2 136 -91 136zM356 234h-138c-73 0 -82 -15 -90 -66
l-2 -7c-9 -59 22 -66 83 -66c36 0 110 6 147 22c-8 28 -7 77 0 117z" />
    <glyph glyph-name="aeacute" unicode="&#x1fd;" horiz-adv-x="877" 
d="M547 775h116c6 0 10 -3 9 -10l-2 -7c0 -5 -3 -9 -6 -12l-180 -135c-5 -4 -9 -4 -14 0l-28 19c-4 3 -4 9 -1 14l93 125c3 4 7 6 13 6zM644 558c188 0 224 -54 191 -271l-5 -30c-3 -19 -9 -27 -38 -27h-316c-15 -106 5 -130 103 -130h170c10 0 14 -5 13 -15l-10 -62
c-1 -11 -7 -15 -17 -17c-53 -8 -117 -11 -181 -11c-60 0 -133 17 -163 39c-56 -27 -107 -39 -200 -39c-140 0 -207 22 -186 156l2 18c20 120 92 152 215 152h145l8 52c8 56 -20 80 -100 80h-165c-11 0 -13 3 -12 15l10 61c2 12 6 14 16 16c62 11 116 13 168 13
c81 0 139 -14 171 -47c42 34 100 47 181 47zM627 453c-92 0 -120 -28 -139 -136h230c16 108 -2 136 -91 136zM356 234h-138c-73 0 -82 -15 -90 -66l-2 -7c-9 -59 22 -66 83 -66c36 0 110 6 147 22c-8 28 -7 77 0 117z" />
    <glyph glyph-name="b" unicode="b" horiz-adv-x="588" 
d="M148 764h91c11 0 15 -4 13 -15l-31 -197c34 4 77 6 129 6c186 0 219 -60 184 -282c-35 -223 -88 -281 -290 -281c-72 0 -128 4 -211 18c-12 2 -17 7 -15 21l113 715c2 11 7 15 17 15zM314 453h-109l-55 -345c35 -5 80 -8 112 -8c112 0 130 40 151 176
c23 144 14 177 -99 177z" />
    <glyph glyph-name="c" unicode="c" horiz-adv-x="496" 
d="M328 558c40 0 105 -2 156 -11c9 -2 14 -7 12 -18l-10 -61c-1 -10 -7 -15 -18 -15h-157c-107 0 -127 -35 -150 -176c-22 -141 -13 -177 94 -177h157c11 0 15 -5 14 -15l-10 -61c-2 -11 -8 -16 -19 -18c-53 -9 -119 -11 -159 -11c-203 0 -233 56 -198 282
c36 225 85 281 288 281z" />
    <glyph glyph-name="cacute" unicode="&#x107;" horiz-adv-x="496" 
d="M382 775h116c6 0 8 -3 8 -10v-5c0 -5 -1 -8 -7 -14l-180 -135c-5 -4 -9 -4 -14 0l-28 19c-4 3 -4 9 -1 14l93 125c3 4 7 6 13 6zM328 558c40 0 105 -2 156 -11c9 -2 14 -7 12 -18l-10 -61c-1 -10 -7 -15 -18 -15h-157c-107 0 -127 -35 -150 -176
c-22 -141 -13 -177 94 -177h157c11 0 15 -5 14 -15l-10 -61c-2 -11 -8 -16 -19 -18c-53 -9 -119 -11 -159 -11c-203 0 -233 56 -198 282c36 225 85 281 288 281z" />
    <glyph glyph-name="ccaron" unicode="&#x10d;" horiz-adv-x="496" 
d="M464 772l22 -14c5 -4 6 -10 1 -15l-113 -127c-4 -5 -8 -8 -19 -8h-63c-12 0 -15 3 -17 8l-72 127c-4 5 -2 11 6 15l26 14c6 4 11 4 16 0l87 -74l110 74c6 4 10 4 16 0zM328 558c40 0 105 -2 156 -11c9 -2 14 -7 12 -18l-10 -61c-1 -10 -7 -15 -18 -15h-157
c-107 0 -127 -35 -150 -176c-22 -141 -13 -177 94 -177h157c11 0 15 -5 14 -15l-10 -61c-2 -11 -8 -16 -19 -18c-53 -9 -119 -11 -159 -11c-203 0 -233 56 -198 282c36 225 85 281 288 281z" />
    <glyph glyph-name="ccedilla" unicode="&#xe7;" horiz-adv-x="496" 
d="M328 558c40 0 105 -2 156 -11c9 -2 14 -7 12 -18l-10 -61c-1 -10 -7 -15 -18 -15h-157c-107 0 -127 -35 -150 -176c-22 -141 -13 -177 94 -177h157c11 0 15 -5 14 -15l-10 -61c-2 -11 -8 -16 -19 -18c-40 -7 -88 -10 -126 -11c3 -29 5 -61 0 -89c-9 -58 -45 -77 -111 -77
c-21 0 -56 3 -68 8c-7 3 -10 9 -9 18l8 47c1 10 6 14 16 14h36c34 0 51 1 55 29c2 14 2 28 2 51c-168 7 -193 70 -160 281c36 225 85 281 288 281z" />
    <glyph glyph-name="ccircumflex" unicode="&#x109;" horiz-adv-x="496" 
d="M314 775h63c12 0 15 -3 17 -8l72 -127c4 -5 2 -11 -6 -15l-26 -14c-6 -4 -11 -4 -16 0l-86 74l-111 -74c-6 -4 -11 -4 -16 0l-22 14c-5 4 -6 10 -1 15l112 127c5 5 8 8 20 8zM328 558c40 0 105 -2 156 -11c9 -2 14 -7 12 -18l-10 -61c-1 -10 -7 -15 -18 -15h-157
c-107 0 -127 -35 -150 -176c-22 -141 -13 -177 94 -177h157c11 0 15 -5 14 -15l-10 -61c-2 -11 -8 -16 -19 -18c-53 -9 -119 -11 -159 -11c-203 0 -233 56 -198 282c36 225 85 281 288 281z" />
    <glyph glyph-name="cdotaccent" unicode="&#x10b;" horiz-adv-x="496" 
d="M325 759c48 0 69 -24 62 -68c-8 -46 -37 -69 -83 -69s-69 23 -61 69c7 45 36 68 82 68zM328 558c40 0 105 -2 156 -11c9 -2 14 -7 12 -18l-10 -61c-1 -10 -7 -15 -18 -15h-157c-107 0 -127 -35 -150 -176c-22 -141 -13 -177 94 -177h157c11 0 15 -5 14 -15l-10 -61
c-2 -11 -8 -16 -19 -18c-53 -9 -119 -11 -159 -11c-203 0 -233 56 -198 282c36 225 85 281 288 281z" />
    <glyph glyph-name="d" unicode="d" horiz-adv-x="589" 
d="M489 764h91c11 0 15 -4 13 -15l-113 -715c-2 -14 -10 -19 -22 -21c-87 -14 -145 -18 -217 -18c-202 0 -236 57 -201 281c35 222 88 282 274 282c52 0 93 -2 127 -6l31 197c1 11 7 15 17 15zM425 453h-110c-112 0 -131 -33 -154 -177c-22 -136 -17 -176 95 -176
c32 0 78 3 114 8z" />
    <glyph glyph-name="eth" unicode="&#xf0;" horiz-adv-x="579" 
d="M262 764h98c8 0 14 -3 17 -10l19 -45l88 30c10 4 16 1 17 -9l6 -26c2 -9 -3 -16 -12 -19l-76 -26l102 -238c18 -37 12 -93 0 -171c-32 -202 -86 -255 -284 -255s-234 53 -203 255c31 198 83 250 269 250c20 0 40 -1 56 -3l-54 123l-91 -30c-11 -4 -16 -1 -18 9l-5 26
c-2 9 2 16 12 19l80 27l-34 75c-4 10 1 18 13 18zM301 400c-105 0 -127 -33 -146 -150c-18 -117 -7 -150 98 -150s127 33 146 150c18 117 7 150 -98 150z" />
    <glyph glyph-name="dcaron" unicode="&#x10f;" horiz-adv-x="619" 
d="M696 766h105c6 0 10 -3 9 -10l-2 -7c0 -5 -4 -9 -6 -12l-136 -135c-4 -5 -9 -4 -14 0l-21 18c-5 4 -5 8 -2 15l52 124c2 5 7 7 15 7zM489 764h91c11 0 15 -4 13 -15l-113 -715c-2 -14 -10 -19 -22 -21c-87 -14 -145 -18 -217 -18c-202 0 -236 57 -201 281
c35 222 88 282 274 282c52 0 93 -2 127 -6l31 197c1 11 7 15 17 15zM425 453h-110c-112 0 -131 -33 -154 -177c-22 -136 -17 -176 95 -176c32 0 78 3 114 8z" />
    <glyph glyph-name="dcroat" unicode="&#x111;" horiz-adv-x="588" 
d="M584 693h61c10 0 15 -5 13 -15l-5 -32c-1 -10 -7 -15 -17 -15h-62l-94 -597c-2 -14 -10 -19 -22 -21c-87 -14 -145 -18 -217 -18c-202 0 -236 57 -201 281c35 222 88 282 274 282c52 0 93 -2 127 -6l12 79h-132c-10 0 -14 5 -13 15l6 32c1 10 7 15 17 15h132l9 56
c1 11 7 15 17 15h91c11 0 15 -4 13 -15zM370 108l55 345h-110c-112 0 -131 -33 -154 -177c-22 -136 -17 -176 95 -176c32 0 78 3 114 8z" />
    <glyph glyph-name="e" unicode="e" horiz-adv-x="557" 
d="M324 558c188 0 224 -54 191 -271l-5 -30c-3 -19 -9 -27 -38 -27h-316c-14 -106 6 -130 103 -130h170c10 0 14 -5 13 -15l-10 -62c-1 -11 -7 -15 -17 -17c-53 -8 -116 -11 -180 -11c-195 0 -230 56 -195 281c36 226 90 282 284 282zM308 453c-93 0 -120 -28 -139 -136h229
c16 108 -1 136 -90 136z" />
    <glyph glyph-name="eacute" unicode="&#xe9;" horiz-adv-x="557" 
d="M396 775h116c6 0 8 -3 8 -10v-5c0 -5 -1 -8 -7 -14l-180 -135c-6 -4 -9 -4 -14 0l-28 19c-4 3 -4 9 -1 14l93 125c3 4 7 6 13 6zM324 558c188 0 224 -54 191 -271l-5 -30c-3 -19 -9 -27 -38 -27h-316c-14 -106 6 -130 103 -130h170c10 0 14 -5 13 -15l-10 -62
c-1 -11 -7 -15 -17 -17c-53 -8 -116 -11 -180 -11c-195 0 -230 56 -195 281c36 226 90 282 284 282zM308 453c-93 0 -120 -28 -139 -136h229c16 108 -1 136 -90 136z" />
    <glyph glyph-name="ebreve" unicode="&#x115;" horiz-adv-x="557" 
d="M462 765h45c12 0 15 -5 11 -16c-29 -97 -73 -128 -181 -128c-110 0 -142 31 -142 128c0 12 5 16 17 16h44c10 0 13 -4 15 -12c11 -41 30 -54 78 -54s71 13 94 54c4 8 10 12 19 12zM324 558c188 0 224 -54 191 -271l-5 -30c-3 -19 -9 -27 -38 -27h-316
c-14 -106 6 -130 103 -130h170c10 0 14 -5 13 -15l-10 -62c-1 -11 -7 -15 -17 -17c-53 -8 -116 -11 -180 -11c-195 0 -230 56 -195 281c36 226 90 282 284 282zM308 453c-93 0 -120 -28 -139 -136h229c16 108 -1 136 -90 136z" />
    <glyph glyph-name="ecaron" unicode="&#x11b;" horiz-adv-x="557" 
d="M471 772l22 -14c6 -4 6 -10 1 -15l-112 -127c-4 -5 -8 -8 -20 -8h-63c-11 0 -14 3 -17 8l-72 127c-4 5 -1 11 6 15l27 14c6 4 10 4 16 0l86 -74l110 74c6 4 11 4 16 0zM324 558c188 0 224 -54 191 -271l-5 -30c-3 -19 -9 -27 -38 -27h-316c-14 -106 6 -130 103 -130h170
c10 0 14 -5 13 -15l-10 -62c-1 -11 -7 -15 -17 -17c-53 -8 -116 -11 -180 -11c-195 0 -230 56 -195 281c36 226 90 282 284 282zM308 453c-93 0 -120 -28 -139 -136h229c16 108 -1 136 -90 136z" />
    <glyph glyph-name="ecircumflex" unicode="&#xea;" horiz-adv-x="557" 
d="M326 775h63c12 0 15 -3 17 -8l72 -127c4 -5 1 -11 -6 -15l-27 -14c-6 -4 -10 -4 -15 0l-87 74l-110 -74c-6 -4 -11 -4 -16 0l-22 14c-5 4 -6 10 -1 15l112 127c5 5 8 8 20 8zM324 558c188 0 224 -54 191 -271l-5 -30c-3 -19 -9 -27 -38 -27h-316
c-14 -106 6 -130 103 -130h170c10 0 14 -5 13 -15l-10 -62c-1 -11 -7 -15 -17 -17c-53 -8 -116 -11 -180 -11c-195 0 -230 56 -195 281c36 226 90 282 284 282zM308 453c-93 0 -120 -28 -139 -136h229c16 108 -1 136 -90 136z" />
    <glyph glyph-name="edieresis" unicode="&#xeb;" horiz-adv-x="557" 
d="M253 757c46 0 65 -24 58 -66c-6 -43 -33 -67 -79 -67c-44 0 -66 23 -59 67s36 66 80 66zM456 757c46 0 66 -24 59 -66c-7 -43 -34 -67 -80 -67c-44 0 -65 23 -58 67s35 66 79 66zM324 558c188 0 224 -54 191 -271l-5 -30c-3 -19 -9 -27 -38 -27h-316
c-14 -106 6 -130 103 -130h170c10 0 14 -5 13 -15l-10 -62c-1 -11 -7 -15 -17 -17c-53 -8 -116 -11 -180 -11c-195 0 -230 56 -195 281c36 226 90 282 284 282zM308 453c-93 0 -120 -28 -139 -136h229c16 108 -1 136 -90 136z" />
    <glyph glyph-name="edotaccent" unicode="&#x117;" horiz-adv-x="557" 
d="M355 759c47 0 68 -24 61 -68c-8 -46 -37 -69 -83 -69s-68 23 -61 69c7 45 37 68 83 68zM324 558c188 0 224 -54 191 -271l-5 -30c-3 -19 -9 -27 -38 -27h-316c-14 -106 6 -130 103 -130h170c10 0 14 -5 13 -15l-10 -62c-1 -11 -7 -15 -17 -17c-53 -8 -116 -11 -180 -11
c-195 0 -230 56 -195 281c36 226 90 282 284 282zM308 453c-93 0 -120 -28 -139 -136h229c16 108 -1 136 -90 136z" />
    <glyph glyph-name="egrave" unicode="&#xe8;" horiz-adv-x="557" 
d="M199 775h116c6 0 9 -1 11 -6l53 -125c3 -5 1 -11 -5 -14l-34 -19c-6 -4 -10 -5 -14 0l-134 133c-4 3 -4 7 -4 13v8c0 7 5 10 11 10zM324 558c188 0 224 -54 191 -271l-5 -30c-3 -19 -9 -27 -38 -27h-316c-14 -106 6 -130 103 -130h170c10 0 14 -5 13 -15l-10 -62
c-1 -11 -7 -15 -17 -17c-53 -8 -116 -11 -180 -11c-195 0 -230 56 -195 281c36 226 90 282 284 282zM308 453c-93 0 -120 -28 -139 -136h229c16 108 -1 136 -90 136z" />
    <glyph glyph-name="emacron" unicode="&#x113;" horiz-adv-x="557" 
d="M212 722h273c10 0 14 -5 13 -15l-9 -51c-1 -10 -7 -15 -17 -15h-273c-10 0 -14 5 -13 15l9 51c1 10 7 15 17 15zM324 558c188 0 224 -54 191 -271l-5 -30c-3 -19 -9 -27 -38 -27h-316c-14 -106 6 -130 103 -130h170c10 0 14 -5 13 -15l-10 -62c-1 -11 -7 -15 -17 -17
c-53 -8 -116 -11 -180 -11c-195 0 -230 56 -195 281c36 226 90 282 284 282zM308 453c-93 0 -120 -28 -139 -136h229c16 108 -1 136 -90 136z" />
    <glyph glyph-name="eogonek" unicode="&#x119;" horiz-adv-x="557" 
d="M324 558c188 0 224 -54 191 -271l-5 -30c-3 -19 -9 -27 -38 -27h-316c-14 -106 6 -130 103 -130h170c10 0 14 -5 13 -15l-10 -62c-1 -11 -7 -15 -17 -17c-22 -3 -46 -6 -72 -8c-9 -24 -13 -39 -16 -53c-4 -28 12 -29 47 -29h35c10 0 14 -4 13 -14l-8 -47
c-1 -9 -6 -15 -15 -18c-12 -5 -50 -8 -71 -8c-66 0 -95 19 -86 77c5 28 16 59 29 89h-36c-195 0 -230 56 -195 281c36 226 90 282 284 282zM308 453c-93 0 -120 -28 -139 -136h229c16 108 -1 136 -90 136z" />
    <glyph glyph-name="f" unicode="f" horiz-adv-x="373" 
d="M335 770c30 0 67 -4 97 -9c9 -2 13 -7 11 -18l-9 -63c-2 -10 -8 -15 -19 -15h-66c-49 0 -71 -4 -79 -47l-10 -66h125c11 0 14 -5 10 -16l-22 -65c-3 -10 -9 -14 -18 -14h-110l-70 -442c-1 -10 -7 -15 -17 -15h-91c-10 0 -14 5 -13 15l70 442h-68c-10 0 -15 5 -14 15
l11 65c1 10 7 15 18 15h68l14 90c19 119 109 128 182 128z" />
    <glyph glyph-name="g" unicode="g" horiz-adv-x="589" 
d="M332 558c87 0 161 -8 209 -18c12 -1 18 -8 16 -20l-77 -488c-28 -174 -72 -237 -275 -237c-50 0 -110 3 -163 11c-9 2 -13 7 -11 16l10 59c1 11 6 15 16 15h156c101 0 128 24 141 103v5c-44 -7 -82 -9 -129 -9c-185 0 -220 60 -184 286c35 220 89 277 291 277zM425 453
h-114c-110 0 -128 -39 -150 -176c-22 -143 -13 -176 100 -176c32 0 74 1 109 6z" />
    <glyph glyph-name="gbreve" unicode="&#x11f;" horiz-adv-x="589" 
d="M469 765h45c12 0 15 -5 11 -16c-30 -97 -73 -128 -182 -128s-141 31 -142 128c0 12 5 16 17 16h45c10 0 13 -4 15 -12c11 -41 30 -54 78 -54s70 13 94 54c4 8 9 12 19 12zM332 558c87 0 161 -8 209 -18c12 -1 18 -8 16 -20l-77 -488c-28 -174 -72 -237 -275 -237
c-50 0 -110 3 -163 11c-9 2 -13 7 -11 16l10 59c1 11 6 15 16 15h156c101 0 128 24 141 103v5c-44 -7 -82 -9 -129 -9c-185 0 -220 60 -184 286c35 220 89 277 291 277zM425 453h-114c-110 0 -128 -39 -150 -176c-22 -143 -13 -176 100 -176c32 0 74 1 109 6z" />
    <glyph glyph-name="gcircumflex" unicode="&#x11d;" horiz-adv-x="589" 
d="M336 775h63c12 0 15 -3 17 -8l72 -127c4 -5 1 -11 -6 -15l-26 -14c-6 -4 -11 -4 -16 0l-87 74l-110 -74c-6 -4 -11 -4 -16 0l-22 14c-5 4 -6 10 -1 15l112 127c5 5 8 8 20 8zM332 558c87 0 161 -8 209 -18c12 -1 18 -8 16 -20l-77 -488c-28 -174 -72 -237 -275 -237
c-50 0 -110 3 -163 11c-9 2 -13 7 -11 16l10 59c1 11 6 15 16 15h156c101 0 128 24 141 103v5c-44 -7 -82 -9 -129 -9c-185 0 -220 60 -184 286c35 220 89 277 291 277zM425 453h-114c-110 0 -128 -39 -150 -176c-22 -143 -13 -176 100 -176c32 0 74 1 109 6z" />
    <glyph glyph-name="gcommaaccent" unicode="&#x123;" horiz-adv-x="589" 
d="M463 768l26 -17c4 -4 4 -9 1 -14l-82 -118c-2 -4 -6 -6 -12 -6h-107c-6 0 -10 3 -10 10v6c0 5 1 8 8 13l162 126c5 4 9 3 14 0zM332 558c87 0 161 -8 209 -18c12 -1 18 -8 16 -20l-77 -488c-28 -174 -72 -237 -275 -237c-50 0 -110 3 -163 11c-9 2 -13 7 -11 16l10 59
c1 11 6 15 16 15h156c101 0 128 24 141 103v5c-44 -7 -82 -9 -129 -9c-185 0 -220 60 -184 286c35 220 89 277 291 277zM425 453h-114c-110 0 -128 -39 -150 -176c-22 -143 -13 -176 100 -176c32 0 74 1 109 6z" />
    <glyph glyph-name="gdotaccent" unicode="&#x121;" horiz-adv-x="589" 
d="M365 759c47 0 68 -24 61 -68c-8 -46 -37 -69 -83 -69s-68 23 -61 69c7 45 37 68 83 68zM332 558c87 0 161 -8 209 -18c12 -1 18 -8 16 -20l-77 -488c-28 -174 -72 -237 -275 -237c-50 0 -110 3 -163 11c-9 2 -13 7 -11 16l10 59c1 11 6 15 16 15h156
c101 0 128 24 141 103v5c-44 -7 -82 -9 -129 -9c-185 0 -220 60 -184 286c35 220 89 277 291 277zM425 453h-114c-110 0 -128 -39 -150 -176c-22 -143 -13 -176 100 -176c32 0 74 1 109 6z" />
    <glyph glyph-name="h" unicode="h" 
d="M149 764h91c10 0 14 -5 13 -15l-32 -196c44 5 90 5 118 5c185 0 232 -28 199 -237l-49 -306c-1 -10 -7 -15 -17 -15h-91c-10 0 -14 5 -13 15l45 284c23 148 2 155 -92 155h-115l-70 -439c-1 -10 -7 -15 -17 -15h-92c-10 0 -13 5 -12 15l117 734c1 10 7 15 17 15z" />
    <glyph glyph-name="hbar" unicode="&#x127;" 
d="M339 558c185 0 232 -28 199 -237l-49 -306c-1 -10 -7 -15 -17 -15h-91c-10 0 -14 5 -13 15l45 284c23 148 2 155 -92 155h-115l-70 -439c-1 -10 -7 -15 -17 -15h-92c-10 0 -13 5 -12 15l98 616h-60c-10 0 -14 5 -13 15l5 32c2 10 7 15 17 15h61l9 56c1 10 7 15 17 15h91
c10 0 14 -5 13 -15l-9 -56h133c10 0 14 -5 13 -15l-5 -32c-2 -10 -8 -15 -18 -15h-133l-13 -78c44 5 90 5 118 5z" />
    <glyph glyph-name="hcircumflex" unicode="&#x125;" 
d="M191 962h63c12 0 14 -3 17 -8l72 -126c4 -6 1 -12 -6 -16l-26 -14c-7 -4 -11 -4 -16 0l-86 74l-111 -74c-7 -4 -11 -4 -16 0l-22 14c-6 4 -6 10 -1 16l113 126c3 5 7 8 19 8zM149 764h91c10 0 14 -5 13 -15l-32 -196c44 5 90 5 118 5c185 0 232 -28 199 -237l-49 -306
c-1 -10 -7 -15 -17 -15h-91c-10 0 -14 5 -13 15l45 284c23 148 2 155 -92 155h-115l-70 -439c-1 -10 -7 -15 -17 -15h-92c-10 0 -13 5 -12 15l117 734c1 10 7 15 17 15z" />
    <glyph glyph-name="i" unicode="i" horiz-adv-x="249" 
d="M198 780c46 0 68 -25 61 -69s-37 -69 -83 -69c-47 0 -69 25 -62 69s37 69 84 69zM116 553h91c10 0 14 -5 12 -15l-83 -523c-1 -10 -7 -15 -17 -15h-91c-10 0 -14 5 -13 15l83 523c2 10 8 15 18 15z" />
    <glyph glyph-name="dotlessi" unicode="&#x131;" horiz-adv-x="249" 
d="M116 553h91c10 0 14 -5 12 -15l-83 -523c-1 -10 -7 -15 -17 -15h-91c-10 0 -14 5 -13 15l83 523c2 10 8 15 18 15z" />
    <glyph glyph-name="iacute" unicode="&#xed;" horiz-adv-x="249" 
d="M220 775h116c6 0 8 -3 8 -10v-5c0 -5 -1 -8 -8 -14l-180 -135c-5 -4 -9 -4 -14 0l-28 19c-4 3 -4 9 0 14l93 125c2 4 7 6 13 6zM116 553h91c10 0 14 -5 12 -15l-83 -523c-1 -10 -7 -15 -17 -15h-91c-10 0 -14 5 -13 15l83 523c2 10 8 15 18 15z" />
    <glyph glyph-name="icaron" unicode="&#x1d0;" horiz-adv-x="249" 
d="M309 772l22 -14c5 -4 6 -10 1 -15l-113 -127c-4 -5 -8 -8 -19 -8h-63c-12 0 -15 3 -17 8l-72 127c-4 5 -2 11 6 15l26 14c6 4 11 4 16 0l87 -74l110 74c6 4 11 4 16 0zM116 553h91c10 0 14 -5 12 -15l-83 -523c-1 -10 -7 -15 -17 -15h-91c-10 0 -14 5 -13 15l83 523
c2 10 8 15 18 15z" />
    <glyph glyph-name="icircumflex" unicode="&#xee;" horiz-adv-x="249" 
d="M163 775h63c12 0 15 -3 17 -8l72 -127c5 -5 2 -11 -5 -15l-27 -14c-6 -4 -11 -4 -16 0l-86 74l-111 -74c-6 -4 -10 -4 -16 0l-22 14c-5 4 -6 10 -1 15l113 127c4 5 8 8 19 8zM116 553h91c10 0 14 -5 12 -15l-83 -523c-1 -10 -7 -15 -17 -15h-91c-10 0 -14 5 -13 15
l83 523c2 10 8 15 18 15z" />
    <glyph glyph-name="idieresis" unicode="&#xef;" horiz-adv-x="249" 
d="M91 757c46 0 64 -24 58 -66c-7 -43 -34 -67 -79 -67s-66 23 -59 67s35 66 80 66zM294 757c46 0 65 -24 58 -66c-6 -43 -34 -67 -79 -67s-66 23 -59 67s35 66 80 66zM116 553h91c10 0 14 -5 12 -15l-83 -523c-1 -10 -7 -15 -17 -15h-91c-10 0 -14 5 -13 15l83 523
c2 10 8 15 18 15z" />
    <glyph glyph-name="i.loclTRK" horiz-adv-x="249" 
d="M192 759c47 0 68 -24 61 -68c-7 -46 -36 -69 -82 -69s-69 23 -62 69c8 45 37 68 83 68zM116 553h91c10 0 14 -5 12 -15l-83 -523c-1 -10 -7 -15 -17 -15h-91c-10 0 -14 5 -13 15l83 523c2 10 8 15 18 15z" />
    <glyph glyph-name="igrave" unicode="&#xec;" horiz-adv-x="249" 
d="M47 775h116c6 0 9 -1 11 -6l53 -125c2 -5 0 -11 -6 -14l-34 -19c-5 -4 -10 -5 -14 0l-134 133c-3 3 -4 7 -4 13v8c0 7 6 10 12 10zM116 553h91c10 0 14 -5 12 -15l-83 -523c-1 -10 -7 -15 -17 -15h-91c-10 0 -14 5 -13 15l83 523c2 10 8 15 18 15z" />
    <glyph glyph-name="ij" unicode="&#x133;" horiz-adv-x="503" 
d="M198 780c46 0 68 -25 61 -69s-37 -69 -83 -69c-47 0 -69 25 -62 69s37 69 84 69zM116 553h91c10 0 14 -5 12 -15l-83 -523c-1 -10 -7 -15 -17 -15h-91c-10 0 -14 5 -13 15l83 523c2 10 8 15 18 15zM451 780c47 0 69 -25 62 -69s-37 -69 -83 -69c-47 0 -70 25 -62 69
c6 44 36 69 83 69zM369 553h91c10 0 14 -5 13 -15l-101 -638c-15 -95 -75 -104 -141 -104c-15 0 -57 3 -67 6c-11 2 -14 7 -13 18l11 67c1 10 8 14 19 14h24c41 0 47 5 53 44l94 593c1 10 7 15 17 15z" />
    <glyph glyph-name="imacron" unicode="&#x12b;" horiz-adv-x="249" 
d="M50 722h273c10 0 14 -5 12 -15l-8 -51c-1 -10 -7 -15 -17 -15h-273c-10 0 -14 5 -13 15l8 51c2 10 8 15 18 15zM116 553h91c10 0 14 -5 12 -15l-83 -523c-1 -10 -7 -15 -17 -15h-91c-10 0 -14 5 -13 15l83 523c2 10 8 15 18 15z" />
    <glyph glyph-name="iogonek" unicode="&#x12f;" horiz-adv-x="249" 
d="M192 759c47 0 68 -24 61 -68c-7 -46 -36 -69 -82 -69s-69 23 -62 69c8 45 37 68 83 68zM116 553h91c10 0 14 -5 12 -15l-83 -523c-1 -10 -7 -15 -17 -15h-38c-9 -26 -14 -41 -16 -55c-5 -28 11 -29 46 -29h35c10 0 14 -4 13 -14l-8 -47c-1 -9 -6 -15 -15 -18
c-12 -5 -50 -8 -71 -8c-66 0 -95 19 -86 77c6 31 20 67 35 100l84 532c2 10 8 15 18 15z" />
    <glyph glyph-name="itilde" unicode="&#x129;" horiz-adv-x="249" 
d="M245 626c-49 0 -99 40 -133 40c-24 0 -35 -8 -50 -34c-8 -12 -12 -13 -21 -10l-31 8c-9 4 -12 9 -7 22c36 83 61 106 115 106c49 0 100 -40 133 -40c24 0 35 7 50 34c8 11 12 13 21 10l31 -9c10 -4 13 -9 7 -22c-36 -83 -61 -105 -115 -105zM116 553h91
c10 0 14 -5 12 -15l-83 -523c-1 -10 -7 -15 -17 -15h-91c-10 0 -14 5 -13 15l83 523c2 10 8 15 18 15z" />
    <glyph glyph-name="j" unicode="j" horiz-adv-x="254" 
d="M202 780c47 0 69 -25 62 -69s-37 -69 -83 -69c-47 0 -70 25 -62 69c6 44 36 69 83 69zM120 553h91c10 0 14 -5 13 -15l-101 -638c-15 -95 -75 -104 -141 -104c-15 0 -57 3 -67 6c-11 2 -14 7 -13 18l11 67c1 10 8 14 19 14h24c41 0 47 5 53 44l94 593c1 10 7 15 17 15z
" />
    <glyph glyph-name="jcircumflex" unicode="&#x135;" horiz-adv-x="254" 
d="M168 775h63c11 0 14 -3 17 -8l71 -127c5 -5 2 -11 -5 -15l-27 -14c-6 -4 -10 -4 -16 0l-86 74l-110 -74c-6 -4 -11 -4 -16 0l-22 14c-6 4 -6 10 -1 15l112 127c4 5 8 8 20 8zM120 553h91c10 0 14 -5 13 -15l-101 -638c-15 -95 -75 -104 -141 -104c-15 0 -57 3 -67 6
c-11 2 -14 7 -13 18l11 67c1 10 8 14 19 14h24c41 0 47 5 53 44l94 593c1 10 7 15 17 15z" />
    <glyph glyph-name="k" unicode="k" horiz-adv-x="527" 
d="M149 764h91c10 0 14 -6 13 -16l-62 -388l183 183c6 6 14 10 23 10h108c18 0 17 -8 6 -19l-201 -199l171 -308c7 -12 6 -27 -21 -27h-97c-10 0 -16 5 -20 11l-160 297l-46 -292c-2 -11 -8 -16 -18 -16h-91c-10 0 -14 5 -12 16l116 732c1 10 7 16 17 16z" />
    <glyph glyph-name="kcommaaccent" unicode="&#x137;" horiz-adv-x="527" 
d="M149 764h91c10 0 14 -6 13 -16l-62 -388l183 183c6 6 14 10 23 10h108c18 0 17 -8 6 -19l-201 -199l171 -308c7 -12 6 -27 -21 -27h-97c-10 0 -16 5 -20 11l-160 297l-46 -292c-2 -11 -8 -16 -18 -16h-91c-10 0 -14 5 -12 16l116 732c1 10 7 16 17 16zM182 -39h100
c6 0 7 -3 7 -10v-6c0 -5 0 -8 -7 -13l-162 -126c-6 -4 -10 -4 -14 0l-24 17c-5 3 -5 9 -1 14l88 118c3 4 7 6 13 6z" />
    <glyph glyph-name="kgreenlandic" unicode="&#x138;" horiz-adv-x="556" 
d="M447 553h110c15 0 15 -8 4 -19l-241 -250l178 -264c7 -11 6 -22 -15 -22h-118c-9 0 -16 4 -20 10l-164 242l-38 -235c-1 -10 -7 -15 -17 -15h-99c-10 0 -14 5 -12 15l83 523c1 10 7 15 17 15h98c10 0 14 -5 13 -15l-37 -237l234 242c7 6 14 10 24 10z" />
    <glyph glyph-name="l" unicode="l" horiz-adv-x="249" 
d="M149 765h91c10 0 14 -5 13 -15l-117 -735c-1 -10 -7 -15 -17 -15h-91c-10 0 -14 5 -13 15l117 735c1 10 7 15 17 15z" />
    <glyph glyph-name="lacute" unicode="&#x13a;" horiz-adv-x="249" 
d="M262 975h116c6 0 8 -3 8 -10v-5c0 -5 -1 -8 -8 -14l-179 -135c-6 -4 -9 -4 -14 0l-29 19c-4 3 -4 9 0 14l93 125c2 4 7 6 13 6zM149 765h91c10 0 14 -5 13 -15l-117 -735c-1 -10 -7 -15 -17 -15h-91c-10 0 -14 5 -13 15l117 735c1 10 7 15 17 15z" />
    <glyph glyph-name="lcaron" unicode="&#x13e;" horiz-adv-x="279" 
d="M346 766h106c6 0 10 -3 9 -10l-2 -7c0 -5 -4 -9 -6 -12l-136 -135c-4 -5 -9 -4 -14 0l-21 18c-5 4 -5 8 -2 15l52 124c2 5 7 7 14 7zM149 765h91c10 0 14 -5 13 -15l-117 -735c-1 -10 -7 -15 -17 -15h-91c-10 0 -14 5 -13 15l117 735c1 10 7 15 17 15z" />
    <glyph glyph-name="lcommaaccent" unicode="&#x13c;" horiz-adv-x="249" 
d="M148 765h91c10 0 14 -5 13 -15l-117 -735c-1 -10 -7 -15 -17 -15h-91c-10 0 -14 5 -13 15l117 735c1 10 7 15 17 15zM18 -39h100c6 0 7 -3 7 -10v-6c0 -5 0 -8 -7 -13l-162 -126c-6 -4 -10 -4 -14 0l-24 17c-5 3 -5 9 -1 14l88 118c3 4 7 6 13 6z" />
    <glyph glyph-name="ldot" unicode="&#x140;" horiz-adv-x="372" 
d="M149 765h91c10 0 14 -5 13 -15l-117 -735c-1 -10 -7 -15 -17 -15h-91c-10 0 -14 5 -13 15l117 735c1 10 7 15 17 15zM327 421c47 0 68 -23 61 -67c-7 -45 -36 -69 -82 -69c-48 0 -69 24 -62 69c7 44 36 67 83 67z" />
    <glyph glyph-name="lslash" unicode="&#x142;" horiz-adv-x="301" 
d="M166 765h91c10 0 14 -5 13 -15l-49 -309l55 30c11 5 18 4 21 -5l12 -31c4 -8 3 -14 -9 -20l-91 -48l-56 -352c-1 -10 -7 -15 -17 -15h-91c-10 0 -14 5 -13 15l45 283l-45 -24c-10 -6 -17 -3 -18 6l-13 30c-3 8 0 15 8 20l80 42l60 378c1 10 7 15 17 15z" />
    <glyph glyph-name="m" unicode="m" horiz-adv-x="877" 
d="M634 559c165 0 216 -33 185 -222l-52 -322c-2 -10 -7 -15 -17 -15h-91c-10 0 -13 5 -12 15l45 284c23 148 1 155 -86 155c-34 0 -70 -3 -100 -8c5 -30 3 -70 -5 -125l-50 -306c-2 -11 -7 -15 -16 -15h-92c-10 0 -14 5 -12 15l48 304c20 129 -4 134 -89 134h-85l-69 -438
c-2 -10 -8 -15 -18 -15h-91c-10 0 -13 5 -12 15l80 511c2 12 7 14 17 16c56 11 133 16 182 16c70 0 133 -13 167 -30c56 19 124 31 173 31z" />
    <glyph glyph-name="n" unicode="n" 
d="M339 558c184 0 231 -28 198 -237l-48 -306c-2 -10 -9 -15 -19 -15h-90c-10 0 -14 5 -13 15l46 284c23 148 1 154 -93 154h-115l-69 -438c-2 -10 -8 -15 -18 -15h-92c-10 0 -13 5 -12 15l81 511c2 13 7 14 17 16c76 15 166 16 227 16z" />
    <glyph glyph-name="nacute" unicode="&#x144;" 
d="M375 775h116c6 0 8 -3 8 -10v-5c0 -5 -1 -8 -8 -14l-180 -135c-5 -4 -9 -4 -14 0l-28 19c-4 3 -4 9 0 14l93 125c2 4 7 6 13 6zM339 558c184 0 231 -28 198 -237l-48 -306c-2 -10 -9 -15 -19 -15h-90c-10 0 -14 5 -13 15l46 284c23 148 1 154 -93 154h-115l-69 -438
c-2 -10 -8 -15 -18 -15h-92c-10 0 -13 5 -12 15l81 511c2 13 7 14 17 16c76 15 166 16 227 16z" />
    <glyph glyph-name="napostrophe" unicode="&#x149;" 
d="M127 775h116c6 0 8 -3 8 -10v-5c0 -5 0 -8 -7 -14l-180 -135c-5 -4 -9 -4 -14 0l-28 19c-4 3 -4 9 -1 14l93 125c3 4 7 6 13 6zM339 558c184 0 231 -28 198 -237l-48 -306c-2 -10 -9 -15 -19 -15h-90c-10 0 -14 5 -13 15l46 284c23 148 1 154 -93 154h-115l-69 -438
c-2 -10 -8 -15 -18 -15h-92c-10 0 -13 5 -12 15l81 511c2 13 7 14 17 16c76 15 166 16 227 16z" />
    <glyph glyph-name="ncaron" unicode="&#x148;" 
d="M485 772l22 -14c5 -4 6 -10 1 -15l-112 -127c-5 -5 -8 -8 -20 -8h-63c-12 0 -15 3 -17 8l-72 127c-4 5 -2 11 6 15l26 14c6 4 11 4 16 0l87 -74l110 74c6 4 11 4 16 0zM339 558c184 0 231 -28 198 -237l-48 -306c-2 -10 -9 -15 -19 -15h-90c-10 0 -14 5 -13 15l46 284
c23 148 1 154 -93 154h-115l-69 -438c-2 -10 -8 -15 -18 -15h-92c-10 0 -13 5 -12 15l81 511c2 13 7 14 17 16c76 15 166 16 227 16z" />
    <glyph glyph-name="ncommaaccent" unicode="&#x146;" 
d="M339 558c184 0 231 -28 198 -237l-48 -306c-2 -10 -9 -15 -19 -15h-90c-10 0 -14 5 -13 15l46 284c23 148 1 154 -93 154h-115l-69 -438c-2 -10 -8 -15 -18 -15h-92c-10 0 -13 5 -12 15l81 511c2 13 7 14 17 16c76 15 166 16 227 16zM198 -39h100c6 0 7 -3 7 -10v-6
c0 -5 0 -8 -7 -13l-162 -126c-6 -4 -10 -4 -14 0l-24 17c-5 3 -5 9 -1 14l88 118c3 4 7 6 13 6z" />
    <glyph glyph-name="eng" unicode="&#x14b;" horiz-adv-x="597" 
d="M339 558c184 0 231 -28 198 -237l-67 -421c-15 -95 -74 -104 -141 -104c-14 0 -57 3 -67 6c-10 2 -14 7 -12 18l11 67c1 10 8 14 19 14h23c42 0 47 5 54 44l56 354c23 148 1 154 -93 154h-115l-69 -438c-2 -10 -8 -15 -18 -15h-92c-10 0 -13 5 -12 15l81 511
c2 13 7 14 17 16c76 15 166 16 227 16z" />
    <glyph glyph-name="ntilde" unicode="&#xf1;" 
d="M421 626c-48 0 -99 40 -133 40c-23 0 -34 -8 -50 -34c-7 -12 -11 -13 -21 -10l-31 8c-9 4 -12 9 -7 22c36 83 61 106 115 106c49 0 100 -40 133 -40c24 0 35 7 50 34c8 11 12 13 21 10l31 -9c10 -4 13 -9 7 -22c-36 -83 -61 -105 -115 -105zM339 558
c184 0 231 -28 198 -237l-48 -306c-2 -10 -9 -15 -19 -15h-90c-10 0 -14 5 -13 15l46 284c23 148 1 154 -93 154h-115l-69 -438c-2 -10 -8 -15 -18 -15h-92c-10 0 -13 5 -12 15l81 511c2 13 7 14 17 16c76 15 166 16 227 16z" />
    <glyph glyph-name="o" unicode="o" horiz-adv-x="581" 
d="M329 558c200 0 234 -56 198 -282c-35 -225 -88 -281 -288 -281s-234 56 -199 281c36 226 89 282 289 282zM312 453c-107 0 -127 -35 -150 -177c-23 -141 -13 -176 94 -176s127 35 150 176c23 142 13 177 -94 177z" />
    <glyph glyph-name="oacute" unicode="&#xf3;" horiz-adv-x="581" 
d="M406 775h116c6 0 8 -3 8 -10v-5c0 -5 0 -8 -7 -14l-180 -135c-5 -4 -9 -4 -14 0l-28 19c-4 3 -4 9 -1 14l93 125c3 4 7 6 13 6zM329 558c200 0 234 -56 198 -282c-35 -225 -88 -281 -288 -281s-234 56 -199 281c36 226 89 282 289 282zM312 453
c-107 0 -127 -35 -150 -177c-23 -141 -13 -176 94 -176s127 35 150 176c23 142 13 177 -94 177z" />
    <glyph glyph-name="obreve" unicode="&#x14f;" horiz-adv-x="581" 
d="M464 765h45c12 0 15 -5 12 -16c-30 -97 -74 -128 -182 -128c-110 0 -141 31 -142 128c0 12 5 16 17 16h45c9 0 13 -4 15 -12c10 -41 29 -54 77 -54s71 13 94 54c5 8 10 12 19 12zM329 558c200 0 234 -56 198 -282c-35 -225 -88 -281 -288 -281s-234 56 -199 281
c36 226 89 282 289 282zM312 453c-107 0 -127 -35 -150 -177c-23 -141 -13 -176 94 -176s127 35 150 176c23 142 13 177 -94 177z" />
    <glyph glyph-name="ocaron" unicode="&#x1d2;" horiz-adv-x="581" 
d="M477 772l22 -14c5 -4 6 -10 1 -15l-112 -127c-5 -5 -8 -8 -20 -8h-63c-12 0 -15 3 -17 8l-72 127c-4 5 -1 11 6 15l26 14c6 4 11 4 16 0l87 -74l110 74c6 4 11 4 16 0zM329 558c200 0 234 -56 198 -282c-35 -225 -88 -281 -288 -281s-234 56 -199 281
c36 226 89 282 289 282zM312 453c-107 0 -127 -35 -150 -177c-23 -141 -13 -176 94 -176s127 35 150 176c23 142 13 177 -94 177z" />
    <glyph glyph-name="ocircumflex" unicode="&#xf4;" horiz-adv-x="581" 
d="M332 775h63c11 0 14 -3 17 -8l71 -127c5 -5 2 -11 -5 -15l-27 -14c-6 -4 -10 -4 -16 0l-86 74l-111 -74c-5 -4 -10 -4 -15 0l-22 14c-6 4 -6 10 -1 15l112 127c4 5 8 8 20 8zM329 558c200 0 234 -56 198 -282c-35 -225 -88 -281 -288 -281s-234 56 -199 281
c36 226 89 282 289 282zM312 453c-107 0 -127 -35 -150 -177c-23 -141 -13 -176 94 -176s127 35 150 176c23 142 13 177 -94 177z" />
    <glyph glyph-name="odieresis" unicode="&#xf6;" horiz-adv-x="581" 
d="M259 757c46 0 65 -24 58 -66c-7 -43 -34 -67 -79 -67c-44 0 -66 23 -59 67s36 66 80 66zM462 757c46 0 65 -24 59 -66c-7 -43 -35 -67 -80 -67c-44 0 -65 23 -58 67s35 66 79 66zM329 558c200 0 234 -56 198 -282c-35 -225 -88 -281 -288 -281s-234 56 -199 281
c36 226 89 282 289 282zM312 453c-107 0 -127 -35 -150 -177c-23 -141 -13 -176 94 -176s127 35 150 176c23 142 13 177 -94 177z" />
    <glyph glyph-name="ograve" unicode="&#xf2;" horiz-adv-x="581" 
d="M201 775h116c6 0 9 -1 11 -6l53 -125c3 -5 1 -11 -5 -14l-34 -19c-6 -4 -10 -5 -14 0l-134 133c-3 3 -4 7 -4 13v8c0 7 5 10 11 10zM329 558c200 0 234 -56 198 -282c-35 -225 -88 -281 -288 -281s-234 56 -199 281c36 226 89 282 289 282zM312 453
c-107 0 -127 -35 -150 -177c-23 -141 -13 -176 94 -176s127 35 150 176c23 142 13 177 -94 177z" />
    <glyph glyph-name="ohungarumlaut" unicode="&#x151;" horiz-adv-x="581" 
d="M303 775h88c7 0 9 -3 9 -10v-6c0 -5 -2 -8 -8 -13l-163 -131c-5 -4 -9 -4 -14 0l-17 15c-4 4 -4 9 -1 14l93 125c3 4 7 6 13 6zM485 775h89c6 0 8 -3 8 -10v-6c0 -5 -2 -8 -8 -13l-163 -131c-5 -4 -9 -4 -14 0l-17 15c-4 4 -4 9 -1 14l93 125c3 4 7 6 13 6zM329 558
c200 0 234 -56 198 -282c-35 -225 -88 -281 -288 -281s-234 56 -199 281c36 226 89 282 289 282zM312 453c-107 0 -127 -35 -150 -177c-23 -141 -13 -176 94 -176s127 35 150 176c23 142 13 177 -94 177z" />
    <glyph glyph-name="omacron" unicode="&#x14d;" horiz-adv-x="581" 
d="M218 722h273c10 0 14 -5 12 -15l-8 -51c-1 -10 -7 -15 -17 -15h-273c-10 0 -14 5 -13 15l8 51c2 10 8 15 18 15zM329 558c200 0 234 -56 198 -282c-35 -225 -88 -281 -288 -281s-234 56 -199 281c36 226 89 282 289 282zM312 453c-107 0 -127 -35 -150 -177
c-23 -141 -13 -176 94 -176s127 35 150 176c23 142 13 177 -94 177z" />
    <glyph glyph-name="oslash" unicode="&#xf8;" horiz-adv-x="581" 
d="M527 276c-35 -225 -88 -281 -288 -281c-63 0 -109 6 -141 20l-26 -29c-8 -9 -15 -10 -21 -3l-30 23c-7 5 -8 12 -1 20l29 33c-26 43 -26 110 -9 217c36 226 89 282 289 282c58 0 102 -5 135 -17l22 26c8 8 15 11 22 4l30 -23c8 -5 8 -12 0 -21l-22 -25
c29 -42 29 -113 11 -226zM312 453c-107 0 -127 -35 -150 -177c-7 -41 -10 -72 -9 -97l227 265c-16 6 -38 9 -68 9zM415 384l-233 -270c16 -10 40 -14 74 -14c107 0 127 35 150 176c8 48 12 82 9 108z" />
    <glyph glyph-name="oslashacute" unicode="&#x1ff;" horiz-adv-x="581" 
d="M401 775h116c6 0 10 -3 9 -10l-2 -7c0 -5 -4 -9 -6 -12l-180 -135c-6 -4 -9 -4 -14 0l-28 19c-4 3 -4 9 -1 14l93 125c2 4 7 6 13 6zM527 276c-35 -225 -88 -281 -288 -281c-63 0 -109 6 -141 20l-26 -29c-8 -9 -15 -10 -21 -3l-30 23c-7 5 -8 12 -1 20l29 33
c-26 43 -26 110 -9 217c36 226 89 282 289 282c58 0 102 -5 135 -17l22 26c8 8 15 11 22 4l30 -23c8 -5 8 -12 0 -21l-22 -25c29 -42 29 -113 11 -226zM312 453c-107 0 -127 -35 -150 -177c-7 -41 -10 -72 -9 -97l227 265c-16 6 -38 9 -68 9zM415 384l-233 -270
c16 -10 40 -14 74 -14c107 0 127 35 150 176c8 48 12 82 9 108z" />
    <glyph glyph-name="otilde" unicode="&#xf5;" horiz-adv-x="581" 
d="M413 626c-48 0 -99 40 -133 40c-23 0 -34 -8 -50 -34c-7 -12 -11 -13 -21 -10l-31 8c-9 4 -12 9 -7 22c37 83 61 106 115 106c49 0 100 -40 134 -40c23 0 34 7 50 34c7 11 11 13 20 10l31 -9c10 -4 13 -9 7 -22c-36 -83 -61 -105 -115 -105zM329 558
c200 0 234 -56 198 -282c-35 -225 -88 -281 -288 -281s-234 56 -199 281c36 226 89 282 289 282zM312 453c-107 0 -127 -35 -150 -177c-23 -141 -13 -176 94 -176s127 35 150 176c23 142 13 177 -94 177z" />
    <glyph glyph-name="oe" unicode="&#x153;" horiz-adv-x="924" 
d="M691 558c188 0 224 -54 191 -271l-5 -30c-3 -19 -9 -27 -38 -27h-316c-15 -106 5 -130 103 -130h170c10 0 14 -5 13 -15l-10 -62c-1 -11 -7 -15 -17 -17c-53 -8 -117 -11 -181 -11c-85 0 -142 15 -170 51c-41 -36 -104 -51 -192 -51c-200 0 -234 56 -199 281
c36 226 89 282 289 282c89 0 145 -14 174 -51c42 37 102 51 188 51zM312 453c-107 0 -127 -35 -150 -177c-23 -141 -13 -176 94 -176s127 35 150 176c23 142 13 177 -94 177zM674 453c-92 0 -120 -28 -139 -136h230c16 108 -2 136 -91 136z" />
    <glyph glyph-name="p" unicode="p" horiz-adv-x="588" 
d="M332 558c203 0 238 -58 203 -277c-36 -227 -90 -286 -275 -286c-46 0 -84 1 -126 6l-30 -185c-1 -11 -7 -16 -17 -16h-91c-10 0 -14 5 -13 16l112 704c2 12 9 18 21 20c88 14 145 18 216 18zM320 453h-115l-55 -346c34 -4 75 -6 108 -6c112 0 132 33 155 176
c22 137 18 176 -93 176z" />
    <glyph glyph-name="thorn" unicode="&#xfe;" horiz-adv-x="588" 
d="M149 764h91c10 0 14 -4 13 -15l-32 -197c34 4 78 6 130 6c185 0 218 -60 183 -282c-35 -223 -88 -281 -290 -281c-42 0 -72 1 -110 5l-29 -184c-2 -11 -7 -16 -17 -16h-92c-10 0 -14 5 -13 16l149 933c1 11 6 15 17 15zM315 453h-110l-54 -345c35 -5 79 -8 111 -8
c113 0 130 40 151 176c23 144 14 177 -98 177z" />
    <glyph glyph-name="q" unicode="q" horiz-adv-x="589" 
d="M332 558c71 0 127 -4 209 -18c12 -2 18 -8 16 -20l-112 -704c-1 -11 -7 -16 -17 -16h-91c-10 0 -14 5 -13 16l29 184c-44 -5 -82 -5 -128 -5c-185 0 -220 60 -184 286c34 220 88 277 291 277zM425 453h-114c-111 0 -128 -39 -150 -176c-22 -143 -13 -176 99 -176
c33 0 75 1 110 6z" />
    <glyph glyph-name="r" unicode="r" horiz-adv-x="381" 
d="M269 558c26 0 94 -3 120 -11c9 -3 14 -7 12 -18l-10 -61c-1 -11 -8 -16 -18 -15h-91c-60 0 -80 -10 -87 -54l-61 -384c-1 -10 -7 -15 -17 -15h-91c-10 0 -14 5 -13 15l66 415c19 119 115 128 190 128z" />
    <glyph glyph-name="racute" unicode="&#x155;" horiz-adv-x="381" 
d="M292 775h116c6 0 8 -3 8 -10v-5c0 -5 -1 -8 -7 -14l-180 -135c-6 -4 -9 -4 -14 0l-28 19c-4 3 -4 9 -1 14l93 125c3 4 7 6 13 6zM269 558c26 0 94 -3 120 -11c9 -3 14 -7 12 -18l-10 -61c-1 -11 -8 -16 -18 -15h-91c-60 0 -80 -10 -87 -54l-61 -384
c-1 -10 -7 -15 -17 -15h-91c-10 0 -14 5 -13 15l66 415c19 119 115 128 190 128z" />
    <glyph glyph-name="rcaron" unicode="&#x159;" horiz-adv-x="381" 
d="M391 772l22 -14c5 -4 6 -10 1 -15l-113 -127c-4 -5 -8 -8 -19 -8h-63c-12 0 -15 3 -17 8l-72 127c-4 5 -2 11 6 15l26 14c6 4 11 4 16 0l87 -74l110 74c6 4 11 4 16 0zM269 558c26 0 94 -3 120 -11c9 -3 14 -7 12 -18l-10 -61c-1 -11 -8 -16 -18 -15h-91
c-60 0 -80 -10 -87 -54l-61 -384c-1 -10 -7 -15 -17 -15h-91c-10 0 -14 5 -13 15l66 415c19 119 115 128 190 128z" />
    <glyph glyph-name="rcommaaccent" unicode="&#x157;" horiz-adv-x="381" 
d="M268 558c26 0 94 -3 120 -11c9 -3 14 -7 12 -18l-10 -61c-1 -11 -8 -16 -18 -15h-91c-60 0 -80 -10 -87 -54l-61 -384c-1 -10 -7 -15 -17 -15h-91c-10 0 -14 5 -13 15l66 415c19 119 115 128 190 128zM16 -39h100c6 0 7 -3 7 -10v-6c0 -5 0 -8 -7 -13l-162 -126
c-6 -4 -10 -4 -14 0l-24 17c-5 3 -5 9 -1 14l88 118c2 4 7 6 13 6z" />
    <glyph glyph-name="s" unicode="s" horiz-adv-x="493" 
d="M301 558c43 0 97 -2 154 -11c9 -2 13 -7 11 -16l-9 -59c-1 -10 -7 -15 -18 -15h-183c-43 0 -69 -13 -74 -44l-2 -12c-3 -24 6 -43 46 -59l124 -48c83 -33 89 -84 79 -146l-2 -13c-19 -114 -99 -140 -230 -140c-87 0 -161 6 -193 9c-12 1 -15 6 -13 15l10 62
c1 11 7 16 18 16h194c67 0 90 8 95 43l2 10c4 24 -6 40 -48 57l-125 50c-73 28 -85 88 -76 147l4 20c16 109 111 134 236 134z" />
    <glyph glyph-name="sacute" unicode="&#x15b;" horiz-adv-x="493" 
d="M327 775h116c6 0 8 -3 8 -10v-5c0 -5 -1 -8 -8 -14l-180 -135c-5 -4 -9 -4 -14 0l-28 19c-4 3 -4 9 0 14l93 125c2 4 7 6 13 6zM301 558c43 0 97 -2 154 -11c9 -2 13 -7 11 -16l-9 -59c-1 -10 -7 -15 -18 -15h-183c-43 0 -69 -13 -74 -44l-2 -12c-3 -24 6 -43 46 -59
l124 -48c83 -33 89 -84 79 -146l-2 -13c-19 -114 -99 -140 -230 -140c-87 0 -161 6 -193 9c-12 1 -15 6 -13 15l10 62c1 11 7 16 18 16h194c67 0 90 8 95 43l2 10c4 24 -6 40 -48 57l-125 50c-73 28 -85 88 -76 147l4 20c16 109 111 134 236 134z" />
    <glyph glyph-name="scaron" unicode="&#x161;" horiz-adv-x="493" 
d="M437 772l22 -14c5 -4 6 -10 1 -15l-113 -127c-4 -5 -8 -8 -19 -8h-63c-12 0 -15 3 -17 8l-72 127c-4 5 -2 11 6 15l26 14c6 4 11 4 16 0l87 -74l110 74c6 4 11 4 16 0zM301 558c43 0 97 -2 154 -11c9 -2 13 -7 11 -16l-9 -59c-1 -10 -7 -15 -18 -15h-183
c-43 0 -69 -13 -74 -44l-2 -12c-3 -24 6 -43 46 -59l124 -48c83 -33 89 -84 79 -146l-2 -13c-19 -114 -99 -140 -230 -140c-87 0 -161 6 -193 9c-12 1 -15 6 -13 15l10 62c1 11 7 16 18 16h194c67 0 90 8 95 43l2 10c4 24 -6 40 -48 57l-125 50c-73 28 -85 88 -76 147l4 20
c16 109 111 134 236 134z" />
    <glyph glyph-name="scedilla" unicode="&#x15f;" horiz-adv-x="493" 
d="M301 558c43 0 97 -2 154 -11c9 -2 13 -7 11 -16l-9 -59c-1 -10 -7 -15 -18 -15h-183c-43 0 -69 -13 -74 -44l-2 -12c-3 -24 6 -43 46 -59l124 -48c83 -33 89 -84 79 -146l-2 -13c-17 -103 -83 -134 -193 -139c3 -30 5 -62 0 -90c-9 -58 -44 -77 -110 -77
c-21 0 -57 3 -69 8c-7 3 -10 9 -9 18l8 47c1 10 6 14 16 14h36c34 0 51 1 56 29c2 14 2 28 1 50c-72 1 -134 7 -159 9c-12 1 -15 6 -13 15l10 62c1 11 7 16 18 16h194c67 0 90 8 95 43l2 10c4 24 -6 40 -48 57l-125 50c-73 28 -85 88 -76 147l4 20c16 109 111 134 236 134z
" />
    <glyph glyph-name="scircumflex" unicode="&#x15d;" horiz-adv-x="493" 
d="M291 775h63c12 0 15 -3 17 -8l72 -127c4 -5 2 -11 -5 -15l-27 -14c-6 -4 -11 -4 -16 0l-86 74l-111 -74c-6 -4 -10 -4 -16 0l-22 14c-5 4 -6 10 -1 15l113 127c4 5 8 8 19 8zM301 558c43 0 97 -2 154 -11c9 -2 13 -7 11 -16l-9 -59c-1 -10 -7 -15 -18 -15h-183
c-43 0 -69 -13 -74 -44l-2 -12c-3 -24 6 -43 46 -59l124 -48c83 -33 89 -84 79 -146l-2 -13c-19 -114 -99 -140 -230 -140c-87 0 -161 6 -193 9c-12 1 -15 6 -13 15l10 62c1 11 7 16 18 16h194c67 0 90 8 95 43l2 10c4 24 -6 40 -48 57l-125 50c-73 28 -85 88 -76 147l4 20
c16 109 111 134 236 134z" />
    <glyph glyph-name="scommaaccent" unicode="&#x219;" horiz-adv-x="493" 
d="M301 558c43 0 97 -2 154 -11c9 -2 13 -7 11 -16l-9 -59c-1 -10 -7 -15 -18 -15h-183c-43 0 -69 -13 -74 -44l-2 -12c-3 -24 6 -43 46 -59l124 -48c83 -33 89 -84 79 -146l-2 -13c-19 -114 -99 -140 -230 -140c-87 0 -161 6 -193 9c-12 1 -15 6 -13 15l10 62
c1 11 7 16 18 16h194c67 0 90 8 95 43l2 10c4 24 -6 40 -48 57l-125 50c-73 28 -85 88 -76 147l4 20c16 109 111 134 236 134zM145 -39h100c6 0 7 -3 7 -10v-6c0 -5 0 -8 -7 -13l-162 -126c-6 -4 -9 -4 -14 0l-24 17c-5 3 -5 9 -1 14l88 118c3 4 7 6 13 6z" />
    <glyph glyph-name="germandbls" unicode="&#xdf;" horiz-adv-x="612" 
d="M371 770c172 0 243 -49 217 -212c-17 -101 -51 -157 -125 -172l-1 -3c90 -13 104 -83 88 -180c-26 -166 -119 -208 -291 -208c-21 0 -45 2 -67 4c-10 1 -14 6 -10 17l31 78c4 9 9 13 16 13h48c90 1 135 21 150 108c14 98 -32 119 -116 119h-54c-10 0 -15 5 -13 15l10 67
c2 10 6 15 19 15h52c67 0 119 16 134 111s-19 116 -106 116c-79 0 -114 -23 -130 -126l-82 -517c-1 -10 -7 -15 -17 -15h-95c-10 0 -14 5 -13 15l82 519c28 174 91 236 273 236z" />
    <glyph glyph-name="t" unicode="t" horiz-adv-x="357" 
d="M164 683l95 23c12 3 16 -3 14 -14l-22 -140h99c11 0 15 -5 14 -15l-11 -63c-1 -11 -7 -16 -18 -16h-99l-48 -305c-7 -44 5 -53 54 -53h44c11 0 16 -4 15 -14l-10 -66c-3 -11 -9 -16 -19 -18c-28 -5 -57 -7 -72 -7c-78 0 -158 2 -139 122l54 341h-57c-11 0 -15 5 -14 16
l10 63c1 10 8 15 18 15h58l18 115c2 10 7 14 16 16z" />
    <glyph glyph-name="tbar" unicode="&#x167;" horiz-adv-x="359" 
d="M252 552h99c11 0 15 -5 14 -15l-11 -63c-1 -11 -7 -16 -18 -16h-99l-19 -120h75c10 0 15 -5 13 -15l-7 -45c-2 -10 -8 -15 -18 -15h-75l-17 -110c-7 -44 5 -53 54 -53h44c11 0 16 -4 15 -14l-10 -66c-3 -11 -9 -16 -19 -18c-28 -5 -57 -7 -72 -7c-78 0 -158 2 -139 122
l23 146h-34c-10 0 -14 5 -13 15l7 45c2 10 8 15 18 15h34l19 120h-57c-11 0 -15 5 -14 16l10 63c1 10 8 15 18 15h58l18 115c2 10 7 14 16 16l95 23c12 3 16 -3 14 -14z" />
    <glyph glyph-name="tcaron" unicode="&#x165;" horiz-adv-x="378" 
d="M404 766h106c6 0 10 -3 9 -10l-2 -7c0 -5 -3 -9 -6 -12l-134 -130c-5 -5 -9 -4 -15 -1l-22 14c-4 4 -5 8 -2 15l51 122c3 8 7 9 15 9zM164 683l95 23c12 3 16 -3 14 -14l-22 -140h99c11 0 15 -5 14 -15l-11 -63c-1 -11 -7 -16 -18 -16h-99l-48 -305c-7 -44 5 -53 54 -53
h44c11 0 16 -4 15 -14l-10 -66c-3 -11 -9 -16 -19 -18c-28 -5 -57 -7 -72 -7c-78 0 -158 2 -139 122l54 341h-57c-11 0 -15 5 -14 16l10 63c1 10 8 15 18 15h58l18 115c2 10 7 14 16 16z" />
    <glyph glyph-name="tcedilla" unicode="&#x163;" horiz-adv-x="357" 
d="M251 552h99c11 0 15 -5 14 -15l-11 -63c-1 -11 -7 -16 -18 -16h-99l-48 -305c-7 -44 5 -53 54 -53h44c11 0 16 -4 15 -14l-10 -66c-3 -11 -9 -16 -19 -18c-24 -4 -48 -6 -64 -7c3 -30 4 -61 0 -89c-9 -58 -44 -77 -110 -77c-21 0 -57 3 -69 8c-7 3 -10 9 -9 18l8 47
c1 10 6 14 16 14h36c34 0 51 1 55 29c3 14 3 30 2 53c-52 7 -90 32 -76 119l54 341h-57c-11 0 -15 5 -14 16l10 63c1 10 8 15 18 15h58l18 115c2 10 7 14 16 16l95 23c12 3 16 -3 14 -14z" />
    <glyph glyph-name="uni021B" unicode="&#x21b;" horiz-adv-x="357" 
d="M163 683l95 23c12 3 16 -3 14 -14l-22 -140h99c11 0 15 -5 14 -15l-11 -63c-1 -11 -7 -16 -18 -16h-99l-48 -305c-7 -44 5 -53 54 -53h44c11 0 16 -4 15 -14l-10 -66c-3 -11 -9 -16 -19 -18c-28 -5 -57 -7 -72 -7c-78 0 -158 2 -139 122l54 341h-57c-11 0 -15 5 -14 16
l10 63c1 10 8 15 18 15h58l18 115c2 10 7 14 16 16zM107 -39h100c6 0 9 -3 8 -10l-1 -7c-1 -5 -4 -10 -7 -12l-162 -126c-6 -4 -10 -4 -14 0l-24 17c-5 3 -5 9 -1 14l88 118c3 4 7 6 13 6z" />
    <glyph glyph-name="u" unicode="u" 
d="M465 553h92c10 0 14 -4 12 -15l-81 -510c-2 -13 -7 -14 -17 -16c-76 -15 -166 -17 -226 -17c-185 0 -232 29 -199 238l48 305c2 11 9 15 19 15h90c10 0 14 -5 13 -15l-46 -283c-23 -148 -1 -155 93 -155h115l69 438c2 11 8 15 18 15z" />
    <glyph glyph-name="uacute" unicode="&#xfa;" 
d="M383 775h116c6 0 8 -3 8 -10v-5c0 -5 0 -8 -7 -14l-180 -135c-5 -4 -9 -4 -14 0l-28 19c-4 3 -4 9 -1 14l93 125c3 4 7 6 13 6zM465 553h92c10 0 14 -4 12 -15l-81 -510c-2 -13 -7 -14 -17 -16c-76 -15 -166 -17 -226 -17c-185 0 -232 29 -199 238l48 305
c2 11 9 15 19 15h90c10 0 14 -5 13 -15l-46 -283c-23 -148 -1 -155 93 -155h115l69 438c2 11 8 15 18 15z" />
    <glyph glyph-name="ubreve" unicode="&#x16d;" 
d="M466 765h45c12 0 15 -5 11 -16c-29 -97 -73 -128 -181 -128c-110 0 -142 31 -142 128c0 12 5 16 17 16h44c10 0 13 -4 15 -12c11 -41 30 -54 78 -54s71 13 94 54c4 8 10 12 19 12zM465 553h92c10 0 14 -4 12 -15l-81 -510c-2 -13 -7 -14 -17 -16
c-76 -15 -166 -17 -226 -17c-185 0 -232 29 -199 238l48 305c2 11 9 15 19 15h90c10 0 14 -5 13 -15l-46 -283c-23 -148 -1 -155 93 -155h115l69 438c2 11 8 15 18 15z" />
    <glyph glyph-name="ucaron" unicode="&#x1d4;" 
d="M479 772l22 -14c5 -4 6 -10 1 -15l-113 -127c-4 -5 -8 -8 -19 -8h-63c-12 0 -15 3 -17 8l-72 127c-4 5 -2 11 6 15l26 14c6 4 11 4 16 0l87 -74l110 74c6 4 10 4 16 0zM465 553h92c10 0 14 -4 12 -15l-81 -510c-2 -13 -7 -14 -17 -16c-76 -15 -166 -17 -226 -17
c-185 0 -232 29 -199 238l48 305c2 11 9 15 19 15h90c10 0 14 -5 13 -15l-46 -283c-23 -148 -1 -155 93 -155h115l69 438c2 11 8 15 18 15z" />
    <glyph glyph-name="ucircumflex" unicode="&#xfb;" 
d="M333 775h63c12 0 15 -3 17 -8l72 -127c4 -5 2 -11 -6 -15l-26 -14c-6 -4 -11 -4 -16 0l-86 74l-111 -74c-6 -4 -10 -4 -16 0l-22 14c-5 4 -6 10 -1 15l113 127c4 5 8 8 19 8zM465 553h92c10 0 14 -4 12 -15l-81 -510c-2 -13 -7 -14 -17 -16c-76 -15 -166 -17 -226 -17
c-185 0 -232 29 -199 238l48 305c2 11 9 15 19 15h90c10 0 14 -5 13 -15l-46 -283c-23 -148 -1 -155 93 -155h115l69 438c2 11 8 15 18 15z" />
    <glyph glyph-name="udieresis" unicode="&#xfc;" 
d="M261 757c45 0 64 -24 58 -66c-7 -43 -34 -67 -79 -67s-66 23 -59 67s35 66 80 66zM464 757c45 0 65 -24 58 -66c-6 -43 -34 -67 -79 -67s-66 23 -59 67s35 66 80 66zM465 553h92c10 0 14 -4 12 -15l-81 -510c-2 -13 -7 -14 -17 -16c-76 -15 -166 -17 -226 -17
c-185 0 -232 29 -199 238l48 305c2 11 9 15 19 15h90c10 0 14 -5 13 -15l-46 -283c-23 -148 -1 -155 93 -155h115l69 438c2 11 8 15 18 15z" />
    <glyph glyph-name="udieresisacute" unicode="&#x1d8;" 
d="M430 945h116c6 0 8 -3 8 -10v-6c0 -5 -1 -8 -8 -13l-180 -136c-5 -4 -9 -3 -14 0l-28 19c-4 4 -4 9 0 14l93 126c2 4 7 6 13 6zM261 757c45 0 64 -24 58 -66c-7 -43 -34 -67 -79 -67s-66 23 -59 67s35 66 80 66zM464 757c45 0 65 -24 58 -66c-6 -43 -34 -67 -79 -67
s-66 23 -59 67s35 66 80 66zM465 553h92c10 0 14 -4 12 -15l-81 -510c-2 -13 -7 -14 -17 -16c-76 -15 -166 -17 -226 -17c-185 0 -232 29 -199 238l48 305c2 11 9 15 19 15h90c10 0 14 -5 13 -15l-46 -283c-23 -148 -1 -155 93 -155h115l69 438c2 11 8 15 18 15z" />
    <glyph glyph-name="udieresiscaron" unicode="&#x1da;" 
d="M501 941l22 -15c6 -4 6 -9 1 -15l-112 -127c-4 -4 -8 -7 -20 -7h-63c-11 0 -14 3 -17 7l-71 127c-5 6 -2 11 5 15l27 15c6 4 10 4 16 0l86 -75l111 75c5 4 10 4 15 0zM261 757c45 0 64 -24 58 -66c-7 -43 -34 -67 -79 -67s-66 23 -59 67s35 66 80 66zM464 757
c45 0 65 -24 58 -66c-6 -43 -34 -67 -79 -67s-66 23 -59 67s35 66 80 66zM465 553h92c10 0 14 -4 12 -15l-81 -510c-2 -13 -7 -14 -17 -16c-76 -15 -166 -17 -226 -17c-185 0 -232 29 -199 238l48 305c2 11 9 15 19 15h90c10 0 14 -5 13 -15l-46 -283
c-23 -148 -1 -155 93 -155h115l69 438c2 11 8 15 18 15z" />
    <glyph glyph-name="udieresisgrave" unicode="&#x1dc;" 
d="M222 945h116c6 0 9 -2 11 -6l53 -126c2 -5 0 -10 -6 -14l-34 -19c-5 -3 -10 -4 -14 0l-134 134c-3 3 -4 7 -4 13v8c0 7 6 10 12 10zM261 757c45 0 64 -24 58 -66c-7 -43 -34 -67 -79 -67s-66 23 -59 67s35 66 80 66zM464 757c45 0 65 -24 58 -66c-6 -43 -34 -67 -79 -67
s-66 23 -59 67s35 66 80 66zM465 553h92c10 0 14 -4 12 -15l-81 -510c-2 -13 -7 -14 -17 -16c-76 -15 -166 -17 -226 -17c-185 0 -232 29 -199 238l48 305c2 11 9 15 19 15h90c10 0 14 -5 13 -15l-46 -283c-23 -148 -1 -155 93 -155h115l69 438c2 11 8 15 18 15z" />
    <glyph glyph-name="udieresismacron" unicode="&#x1d6;" 
d="M250 905h273c10 0 14 -5 12 -15l-8 -50c-1 -10 -7 -15 -17 -15h-273c-10 0 -14 5 -13 15l8 50c2 10 8 15 18 15zM261 757c45 0 64 -24 58 -66c-7 -43 -34 -67 -79 -67s-66 23 -59 67s35 66 80 66zM464 757c45 0 65 -24 58 -66c-6 -43 -34 -67 -79 -67s-66 23 -59 67
s35 66 80 66zM465 553h92c10 0 14 -4 12 -15l-81 -510c-2 -13 -7 -14 -17 -16c-76 -15 -166 -17 -226 -17c-185 0 -232 29 -199 238l48 305c2 11 9 15 19 15h90c10 0 14 -5 13 -15l-46 -283c-23 -148 -1 -155 93 -155h115l69 438c2 11 8 15 18 15z" />
    <glyph glyph-name="ugrave" unicode="&#xf9;" 
d="M229 775h116c6 0 9 -1 11 -6l53 -125c2 -5 0 -11 -6 -14l-34 -19c-5 -4 -10 -5 -14 0l-134 133c-3 3 -4 7 -4 13v8c0 7 6 10 12 10zM465 553h92c10 0 14 -4 12 -15l-81 -510c-2 -13 -7 -14 -17 -16c-76 -15 -166 -17 -226 -17c-185 0 -232 29 -199 238l48 305
c2 11 9 15 19 15h90c10 0 14 -5 13 -15l-46 -283c-23 -148 -1 -155 93 -155h115l69 438c2 11 8 15 18 15z" />
    <glyph glyph-name="uhungarumlaut" unicode="&#x171;" 
d="M287 775h88c6 0 9 -3 9 -10v-6c0 -5 -2 -8 -8 -13l-163 -131c-6 -4 -10 -4 -14 0l-18 15c-4 4 -4 9 0 14l93 125c2 4 7 6 13 6zM468 775h89c6 0 9 -3 9 -10v-6c0 -5 -2 -8 -8 -13l-164 -131c-5 -4 -9 -4 -14 0l-17 15c-4 4 -4 9 0 14l92 125c3 4 7 6 13 6zM465 553h92
c10 0 14 -4 12 -15l-81 -510c-2 -13 -7 -14 -17 -16c-76 -15 -166 -17 -226 -17c-185 0 -232 29 -199 238l48 305c2 11 9 15 19 15h90c10 0 14 -5 13 -15l-46 -283c-23 -148 -1 -155 93 -155h115l69 438c2 11 8 15 18 15z" />
    <glyph glyph-name="umacron" unicode="&#x16b;" 
d="M220 722h273c10 0 14 -5 12 -15l-8 -51c-1 -10 -7 -15 -17 -15h-273c-10 0 -15 5 -13 15l8 51c2 10 8 15 18 15zM465 553h92c10 0 14 -4 12 -15l-81 -510c-2 -13 -7 -14 -17 -16c-76 -15 -166 -17 -226 -17c-185 0 -232 29 -199 238l48 305c2 11 9 15 19 15h90
c10 0 14 -5 13 -15l-46 -283c-23 -148 -1 -155 93 -155h115l69 438c2 11 8 15 18 15z" />
    <glyph glyph-name="uogonek" unicode="&#x173;" 
d="M465 553h92c10 0 14 -4 12 -15l-81 -510c-2 -13 -7 -14 -17 -16c-27 -5 -57 -9 -87 -12c-10 -26 -15 -41 -17 -55c-4 -28 12 -29 46 -29h36c10 0 14 -4 12 -14l-7 -47c-2 -9 -7 -15 -15 -18c-13 -5 -50 -8 -71 -8c-66 0 -95 19 -86 77c5 28 16 60 29 90
c-25 -1 -48 -1 -66 -1c-185 0 -232 29 -199 238l48 305c2 11 9 15 19 15h90c10 0 14 -5 13 -15l-46 -283c-23 -148 -1 -155 93 -155h115l69 438c2 11 8 15 18 15z" />
    <glyph glyph-name="uring" unicode="&#x16f;" 
d="M376 823c73 0 105 -37 94 -108c-11 -70 -55 -107 -128 -107s-106 37 -95 107c11 71 56 108 129 108zM369 777c-42 0 -66 -21 -72 -62c-6 -40 11 -62 52 -62s66 22 72 62c6 41 -10 62 -52 62zM465 553h92c10 0 14 -4 12 -15l-81 -510c-2 -13 -7 -14 -17 -16
c-76 -15 -166 -17 -226 -17c-185 0 -232 29 -199 238l48 305c2 11 9 15 19 15h90c10 0 14 -5 13 -15l-46 -283c-23 -148 -1 -155 93 -155h115l69 438c2 11 8 15 18 15z" />
    <glyph glyph-name="utilde" unicode="&#x169;" 
d="M415 626c-49 0 -100 40 -133 40c-24 0 -35 -8 -50 -34c-8 -12 -12 -13 -21 -10l-31 8c-9 4 -12 9 -7 22c36 83 61 106 115 106c49 0 100 -40 133 -40c24 0 35 7 50 34c8 11 12 13 21 10l31 -9c10 -4 12 -9 7 -22c-36 -83 -61 -105 -115 -105zM465 553h92
c10 0 14 -4 12 -15l-81 -510c-2 -13 -7 -14 -17 -16c-76 -15 -166 -17 -226 -17c-185 0 -232 29 -199 238l48 305c2 11 9 15 19 15h90c10 0 14 -5 13 -15l-46 -283c-23 -148 -1 -155 93 -155h115l69 438c2 11 8 15 18 15z" />
    <glyph glyph-name="v" unicode="v" horiz-adv-x="561" 
d="M463 553h99c11 0 14 -3 10 -16l-179 -424c-45 -105 -55 -118 -167 -118c-104 0 -111 12 -123 118l-49 424c0 13 3 16 14 16h99c9 0 10 -3 11 -16l41 -398c4 -35 7 -40 24 -40c21 0 26 5 41 40l163 398c5 13 7 16 16 16z" />
    <glyph glyph-name="w" unicode="w" horiz-adv-x="857" 
d="M756 553h98c11 0 14 -3 10 -15l-155 -436c-35 -95 -59 -107 -145 -107c-100 0 -108 12 -113 107l-18 252l-97 -252c-37 -95 -47 -107 -148 -107c-86 0 -105 12 -109 107l-18 436c0 12 3 15 14 15h99c7 0 9 -3 10 -15l10 -409c2 -27 7 -29 18 -29c13 0 15 2 26 29l157 393
c5 11 10 15 17 15h101c7 0 10 -4 11 -15l33 -393c2 -27 4 -29 17 -29c11 0 16 2 27 29l141 409c4 12 6 15 14 15z" />
    <glyph glyph-name="wacute" unicode="&#x1e83;" horiz-adv-x="857" 
d="M539 775h116c6 0 8 -3 8 -10v-5c0 -5 -1 -8 -7 -14l-180 -135c-5 -4 -9 -4 -14 0l-28 19c-4 3 -4 9 -1 14l93 125c3 4 7 6 13 6zM756 553h98c11 0 14 -3 10 -15l-155 -436c-35 -95 -59 -107 -145 -107c-100 0 -108 12 -113 107l-18 252l-97 -252
c-37 -95 -47 -107 -148 -107c-86 0 -105 12 -109 107l-18 436c0 12 3 15 14 15h99c7 0 9 -3 10 -15l10 -409c2 -27 7 -29 18 -29c13 0 15 2 26 29l157 393c5 11 10 15 17 15h101c7 0 10 -4 11 -15l33 -393c2 -27 4 -29 17 -29c11 0 16 2 27 29l141 409c4 12 6 15 14 15z" />
    <glyph glyph-name="wcircumflex" unicode="&#x175;" horiz-adv-x="857" 
d="M468 775h63c12 0 15 -3 17 -8l72 -127c4 -5 2 -11 -5 -15l-27 -14c-6 -4 -11 -4 -16 0l-86 74l-111 -74c-6 -4 -10 -4 -16 0l-22 14c-5 4 -6 10 -1 15l113 127c4 5 8 8 19 8zM756 553h98c11 0 14 -3 10 -15l-155 -436c-35 -95 -59 -107 -145 -107
c-100 0 -108 12 -113 107l-18 252l-97 -252c-37 -95 -47 -107 -148 -107c-86 0 -105 12 -109 107l-18 436c0 12 3 15 14 15h99c7 0 9 -3 10 -15l10 -409c2 -27 7 -29 18 -29c13 0 15 2 26 29l157 393c5 11 10 15 17 15h101c7 0 10 -4 11 -15l33 -393c2 -27 4 -29 17 -29
c11 0 16 2 27 29l141 409c4 12 6 15 14 15z" />
    <glyph glyph-name="wdieresis" unicode="&#x1e85;" horiz-adv-x="857" 
d="M396 757c46 0 64 -24 58 -66c-7 -43 -34 -67 -79 -67s-66 23 -59 67s35 66 80 66zM599 757c46 0 65 -24 58 -66c-6 -43 -34 -67 -79 -67s-66 23 -59 67s35 66 80 66zM756 553h98c11 0 14 -3 10 -15l-155 -436c-35 -95 -59 -107 -145 -107c-100 0 -108 12 -113 107
l-18 252l-97 -252c-37 -95 -47 -107 -148 -107c-86 0 -105 12 -109 107l-18 436c0 12 3 15 14 15h99c7 0 9 -3 10 -15l10 -409c2 -27 7 -29 18 -29c13 0 15 2 26 29l157 393c5 11 10 15 17 15h101c7 0 10 -4 11 -15l33 -393c2 -27 4 -29 17 -29c11 0 16 2 27 29l141 409
c4 12 6 15 14 15z" />
    <glyph glyph-name="wgrave" unicode="&#x1e81;" horiz-adv-x="857" 
d="M321 775h116c6 0 9 -1 11 -6l53 -125c3 -5 1 -11 -5 -14l-34 -19c-6 -4 -10 -5 -14 0l-134 133c-4 3 -4 7 -4 13v8c0 7 5 10 11 10zM756 553h98c11 0 14 -3 10 -15l-155 -436c-35 -95 -59 -107 -145 -107c-100 0 -108 12 -113 107l-18 252l-97 -252
c-37 -95 -47 -107 -148 -107c-86 0 -105 12 -109 107l-18 436c0 12 3 15 14 15h99c7 0 9 -3 10 -15l10 -409c2 -27 7 -29 18 -29c13 0 15 2 26 29l157 393c5 11 10 15 17 15h101c7 0 10 -4 11 -15l33 -393c2 -27 4 -29 17 -29c11 0 16 2 27 29l141 409c4 12 6 15 14 15z" />
    <glyph glyph-name="x" unicode="x" horiz-adv-x="550" 
d="M438 553h111c12 0 14 -8 4 -18l-210 -243l149 -274c4 -10 0 -18 -12 -18h-111c-6 0 -11 3 -13 9l-100 187l-161 -187c-4 -6 -10 -9 -16 -9h-111c-12 0 -14 8 -5 18l235 273l-134 244c-6 10 -1 18 10 18h112c7 0 12 -3 15 -9l84 -157l135 157c5 6 11 9 18 9z" />
    <glyph glyph-name="y" unicode="y" horiz-adv-x="604" 
d="M470 553h91c10 0 14 -5 13 -15l-80 -506c-28 -174 -72 -237 -275 -237c-67 0 -115 3 -168 11c-8 2 -12 7 -10 16l9 59c1 11 6 15 16 15h161c101 0 128 24 141 103v5c-44 -7 -82 -9 -129 -9c-185 0 -222 63 -190 265l44 278c1 10 7 15 17 15h92c10 0 14 -5 12 -15
l-41 -261c-23 -143 -11 -176 102 -176c32 0 74 1 109 6l69 431c1 10 7 15 17 15z" />
    <glyph glyph-name="yacute" unicode="&#xfd;" horiz-adv-x="604" 
d="M387 775h116c6 0 8 -3 8 -10v-5c0 -5 0 -8 -7 -14l-180 -135c-5 -4 -9 -4 -14 0l-28 19c-4 3 -4 9 -1 14l93 125c3 4 7 6 13 6zM470 553h91c10 0 14 -5 13 -15l-80 -506c-28 -174 -72 -237 -275 -237c-67 0 -115 3 -168 11c-8 2 -12 7 -10 16l9 59c1 11 6 15 16 15h161
c101 0 128 24 141 103v5c-44 -7 -82 -9 -129 -9c-185 0 -222 63 -190 265l44 278c1 10 7 15 17 15h92c10 0 14 -5 12 -15l-41 -261c-23 -143 -11 -176 102 -176c32 0 74 1 109 6l69 431c1 10 7 15 17 15z" />
    <glyph glyph-name="ycircumflex" unicode="&#x177;" horiz-adv-x="604" 
d="M344 775h64c11 0 14 -3 16 -8l72 -127c5 -5 2 -11 -5 -15l-27 -14c-6 -4 -11 -4 -16 0l-86 74l-111 -74c-6 -4 -10 -4 -16 0l-22 14c-5 4 -5 10 -1 15l113 127c4 5 8 8 19 8zM470 553h91c10 0 14 -5 13 -15l-80 -506c-28 -174 -72 -237 -275 -237c-67 0 -115 3 -168 11
c-8 2 -12 7 -10 16l9 59c1 11 6 15 16 15h161c101 0 128 24 141 103v5c-44 -7 -82 -9 -129 -9c-185 0 -222 63 -190 265l44 278c1 10 7 15 17 15h92c10 0 14 -5 12 -15l-41 -261c-23 -143 -11 -176 102 -176c32 0 74 1 109 6l69 431c1 10 7 15 17 15z" />
    <glyph glyph-name="ydieresis" unicode="&#xff;" horiz-adv-x="604" 
d="M272 757c46 0 65 -24 58 -66c-7 -43 -34 -67 -79 -67s-66 23 -59 67s36 66 80 66zM475 757c46 0 65 -24 59 -66c-7 -43 -35 -67 -80 -67s-65 23 -58 67c6 44 35 66 79 66zM470 553h91c10 0 14 -5 13 -15l-80 -506c-28 -174 -72 -237 -275 -237c-67 0 -115 3 -168 11
c-8 2 -12 7 -10 16l9 59c1 11 6 15 16 15h161c101 0 128 24 141 103v5c-44 -7 -82 -9 -129 -9c-185 0 -222 63 -190 265l44 278c1 10 7 15 17 15h92c10 0 14 -5 12 -15l-41 -261c-23 -143 -11 -176 102 -176c32 0 74 1 109 6l69 431c1 10 7 15 17 15z" />
    <glyph glyph-name="ygrave" unicode="&#x1ef3;" horiz-adv-x="604" 
d="M240 775h116c6 0 9 -1 11 -6l53 -125c3 -5 1 -11 -5 -14l-34 -19c-6 -4 -10 -5 -14 0l-134 133c-4 3 -4 7 -4 13v8c0 7 5 10 11 10zM470 553h91c10 0 14 -5 13 -15l-80 -506c-28 -174 -72 -237 -275 -237c-67 0 -115 3 -168 11c-8 2 -12 7 -10 16l9 59c1 11 6 15 16 15
h161c101 0 128 24 141 103v5c-44 -7 -82 -9 -129 -9c-185 0 -222 63 -190 265l44 278c1 10 7 15 17 15h92c10 0 14 -5 12 -15l-41 -261c-23 -143 -11 -176 102 -176c32 0 74 1 109 6l69 431c1 10 7 15 17 15z" />
    <glyph glyph-name="ytilde" unicode="&#x1ef9;" horiz-adv-x="604" 
d="M426 626c-48 0 -99 40 -133 40c-23 0 -34 -8 -50 -34c-7 -12 -11 -13 -21 -10l-31 8c-9 4 -12 9 -7 22c36 83 61 106 115 106c49 0 100 -40 133 -40c24 0 35 7 51 34c7 11 11 13 20 10l31 -9c10 -4 13 -9 7 -22c-36 -83 -61 -105 -115 -105zM470 553h91
c10 0 14 -5 13 -15l-80 -506c-28 -174 -72 -237 -275 -237c-67 0 -115 3 -168 11c-8 2 -12 7 -10 16l9 59c1 11 6 15 16 15h161c101 0 128 24 141 103v5c-44 -7 -82 -9 -129 -9c-185 0 -222 63 -190 265l44 278c1 10 7 15 17 15h92c10 0 14 -5 12 -15l-41 -261
c-23 -143 -11 -176 102 -176c32 0 74 1 109 6l69 431c1 10 7 15 17 15z" />
    <glyph glyph-name="z" unicode="z" horiz-adv-x="525" 
d="M95 553h408c12 0 16 -5 15 -15l-7 -45c-2 -7 -4 -12 -10 -18l-330 -370h273c10 0 15 -5 14 -15l-12 -75c-1 -10 -8 -15 -19 -15h-432c-10 0 -15 5 -14 15l8 47c1 7 3 12 9 18l332 369h-251c-12 0 -16 6 -14 16l11 73c1 10 8 15 19 15z" />
    <glyph glyph-name="zacute" unicode="&#x17a;" horiz-adv-x="525" 
d="M338 775h116c6 0 8 -3 8 -10v-5c0 -5 -1 -8 -8 -14l-180 -135c-5 -4 -9 -4 -14 0l-28 19c-4 3 -4 9 0 14l93 125c2 4 7 6 13 6zM95 553h408c12 0 16 -5 15 -15l-7 -45c-2 -7 -4 -12 -10 -18l-330 -370h273c10 0 15 -5 14 -15l-12 -75c-1 -10 -8 -15 -19 -15h-432
c-10 0 -15 5 -14 15l8 47c1 7 3 12 9 18l332 369h-251c-12 0 -16 6 -14 16l11 73c1 10 8 15 19 15z" />
    <glyph glyph-name="zcaron" unicode="&#x17e;" horiz-adv-x="525" 
d="M448 772l22 -14c5 -4 6 -10 1 -15l-112 -127c-5 -5 -8 -8 -20 -8h-63c-12 0 -15 3 -17 8l-72 127c-4 5 -2 11 6 15l26 14c6 4 11 4 16 0l87 -74l110 74c6 4 11 4 16 0zM95 553h408c12 0 16 -5 15 -15l-7 -45c-2 -7 -4 -12 -10 -18l-330 -370h273c10 0 15 -5 14 -15
l-12 -75c-1 -10 -8 -15 -19 -15h-432c-10 0 -15 5 -14 15l8 47c1 7 3 12 9 18l332 369h-251c-12 0 -16 6 -14 16l11 73c1 10 8 15 19 15z" />
    <glyph glyph-name="zdotaccent" unicode="&#x17c;" horiz-adv-x="525" 
d="M331 759c47 0 68 -24 61 -68c-7 -46 -36 -69 -82 -69s-69 23 -62 69c8 45 37 68 83 68zM95 553h408c12 0 16 -5 15 -15l-7 -45c-2 -7 -4 -12 -10 -18l-330 -370h273c10 0 15 -5 14 -15l-12 -75c-1 -10 -8 -15 -19 -15h-432c-10 0 -15 5 -14 15l8 47c1 7 3 12 9 18
l332 369h-251c-12 0 -16 6 -14 16l11 73c1 10 8 15 19 15z" />
    <glyph glyph-name="g.alt" horiz-adv-x="584" 
d="M548 585l40 -48c7 -7 5 -14 -4 -21l-47 -41c8 -30 5 -69 -3 -121c-25 -160 -73 -198 -273 -198c-36 0 -66 1 -91 5l-11 -19c-18 -35 -14 -42 45 -47l187 -16c94 -8 92 -74 82 -135l-1 -9c-19 -116 -98 -137 -246 -137c-94 0 -218 8 -229 9c-12 1 -13 7 -12 15l10 60
c1 11 7 15 18 15h246c67 0 89 7 94 42l1 5c4 24 0 36 -40 39l-201 17c-94 8 -91 70 -62 124l33 61c-43 28 -48 79 -34 169c27 164 75 204 275 204c68 0 117 -5 151 -18l51 45c8 7 15 7 21 0zM308 455c-105 0 -124 -24 -136 -102c-13 -78 -1 -103 104 -103s124 25 137 103
c12 78 1 102 -105 102z" />
    <glyph glyph-name="gbreve.alt" horiz-adv-x="584" 
d="M466 765h45c12 0 15 -5 11 -16c-30 -97 -73 -128 -182 -128s-141 31 -142 128c0 12 5 16 17 16h45c10 0 13 -4 15 -12c11 -41 30 -54 78 -54s70 13 94 54c4 8 9 12 19 12zM548 585l40 -48c7 -7 5 -14 -4 -21l-47 -41c8 -30 5 -69 -3 -121c-25 -160 -73 -198 -273 -198
c-36 0 -66 1 -91 5l-11 -19c-18 -35 -14 -42 45 -47l187 -16c94 -8 92 -74 82 -135l-1 -9c-19 -116 -98 -137 -246 -137c-94 0 -218 8 -229 9c-12 1 -13 7 -12 15l10 60c1 11 7 15 18 15h246c67 0 89 7 94 42l1 5c4 24 0 36 -40 39l-201 17c-94 8 -91 70 -62 124l33 61
c-43 28 -48 79 -34 169c27 164 75 204 275 204c68 0 117 -5 151 -18l51 45c8 7 15 7 21 0zM308 455c-105 0 -124 -24 -136 -102c-13 -78 -1 -103 104 -103s124 25 137 103c12 78 1 102 -105 102z" />
    <glyph glyph-name="gcircumflex.alt" horiz-adv-x="584" 
d="M331 775h63c12 0 15 -3 17 -8l72 -127c4 -5 2 -11 -6 -15l-26 -14c-6 -4 -11 -4 -16 0l-86 74l-111 -74c-6 -4 -10 -4 -16 0l-22 14c-5 4 -6 10 -1 15l113 127c4 5 8 8 19 8zM548 585l40 -48c7 -7 5 -14 -4 -21l-47 -41c8 -30 5 -69 -3 -121c-25 -160 -73 -198 -273 -198
c-36 0 -66 1 -91 5l-11 -19c-18 -35 -14 -42 45 -47l187 -16c94 -8 92 -74 82 -135l-1 -9c-19 -116 -98 -137 -246 -137c-94 0 -218 8 -229 9c-12 1 -13 7 -12 15l10 60c1 11 7 15 18 15h246c67 0 89 7 94 42l1 5c4 24 0 36 -40 39l-201 17c-94 8 -91 70 -62 124l33 61
c-43 28 -48 79 -34 169c27 164 75 204 275 204c68 0 117 -5 151 -18l51 45c8 7 15 7 21 0zM308 455c-105 0 -124 -24 -136 -102c-13 -78 -1 -103 104 -103s124 25 137 103c12 78 1 102 -105 102z" />
    <glyph glyph-name="gcommaaccent.alt" horiz-adv-x="583" 
d="M444 768l25 -17c4 -4 5 -9 2 -14l-82 -118c-3 -4 -7 -6 -13 -6h-107c-6 0 -9 3 -9 10v6c0 5 1 8 7 13l163 126c5 4 8 3 14 0zM548 585l40 -48c6 -7 5 -14 -4 -21l-47 -41c7 -30 5 -69 -3 -121c-26 -160 -73 -198 -274 -198c-36 0 -66 1 -91 5l-10 -19
c-19 -35 -15 -42 45 -47l187 -16c94 -8 92 -74 82 -135l-1 -9c-19 -116 -98 -137 -246 -137c-95 0 -218 8 -229 9c-12 1 -14 7 -13 15l10 60c2 11 7 15 19 15h245c68 0 89 7 95 42l1 5c3 24 0 36 -40 39l-202 17c-93 8 -90 70 -61 124l33 61c-43 28 -48 79 -34 169
c26 164 74 204 274 204c69 0 118 -5 152 -18l51 45c8 7 15 7 21 0zM308 455c-106 0 -124 -24 -137 -102c-12 -78 -1 -103 104 -103c106 0 125 25 137 103s2 102 -104 102z" />
    <glyph glyph-name="gdotaccent.alt" horiz-adv-x="584" 
d="M354 759c47 0 68 -24 61 -68c-8 -46 -37 -69 -83 -69s-68 23 -61 69c7 45 37 68 83 68zM548 585l40 -48c7 -7 5 -14 -4 -21l-47 -41c8 -30 5 -69 -3 -121c-25 -160 -73 -198 -273 -198c-36 0 -66 1 -91 5l-11 -19c-18 -35 -14 -42 45 -47l187 -16c94 -8 92 -74 82 -135
l-1 -9c-19 -116 -98 -137 -246 -137c-94 0 -218 8 -229 9c-12 1 -13 7 -12 15l10 60c1 11 7 15 18 15h246c67 0 89 7 94 42l1 5c4 24 0 36 -40 39l-201 17c-94 8 -91 70 -62 124l33 61c-43 28 -48 79 -34 169c27 164 75 204 275 204c68 0 117 -5 151 -18l51 45
c8 7 15 7 21 0zM308 455c-105 0 -124 -24 -136 -102c-13 -78 -1 -103 104 -103s124 25 137 103c12 78 1 102 -105 102z" />
    <glyph glyph-name="ordfeminine" unicode="&#xaa;" horiz-adv-x="389" 
d="M256 770c108 0 136 -34 126 -100l-33 -208c-2 -8 -5 -15 -16 -18c-36 -9 -89 -12 -136 -12c-88 0 -128 12 -114 98c13 82 58 103 133 103h84l5 24c5 35 -17 48 -59 48h-101c-7 0 -7 1 -7 8l7 40c1 7 3 8 10 10c36 6 68 7 101 7zM291 571h-74c-38 0 -53 -9 -58 -38
c-5 -31 12 -39 49 -39c14 0 51 1 71 5zM88 373h222c10 0 15 -5 13 -15l-5 -29c-1 -10 -7 -15 -17 -15h-222c-10 0 -14 5 -13 15l5 29c2 10 7 15 17 15z" />
    <glyph glyph-name="ordmasculine" unicode="&#xba;" horiz-adv-x="403" 
d="M272 770c121 0 142 -34 120 -169c-21 -136 -53 -169 -173 -169c-121 0 -143 33 -121 169c22 135 54 169 174 169zM261 705c-61 0 -74 -21 -88 -104c-12 -83 -6 -103 56 -103s75 20 87 103c14 83 8 104 -55 104zM98 373h222c10 0 15 -5 13 -15l-5 -29
c-1 -10 -7 -15 -17 -15h-222c-10 0 -14 5 -13 15l5 29c2 10 7 15 17 15z" />
    <glyph glyph-name="uni0410" unicode="&#x410;" horiz-adv-x="684" 
d="M411 770c112 0 126 -12 139 -117l72 -637c0 -12 -4 -16 -15 -16h-102c-9 0 -10 4 -11 16l-25 215h-285l-94 -215c-6 -12 -8 -16 -16 -16h-103c-11 0 -14 4 -9 16l279 637c46 105 66 117 170 117zM394 661c-23 0 -26 -5 -42 -41l-121 -281h227l-32 281c-4 36 -4 41 -32 41
z" />
    <glyph glyph-name="uni0411" unicode="&#x411;" horiz-adv-x="687" 
d="M162 765h502c10 0 14 -5 13 -15l-13 -82c-1 -10 -8 -15 -18 -15h-388l-31 -191h182c172 0 253 -45 227 -211l-8 -48c-26 -166 -121 -208 -293 -208c-68 0 -214 3 -293 9c-12 1 -14 3 -13 14l116 732c1 10 7 15 17 15zM390 352h-180l-38 -245h178c92 0 137 20 151 108
l4 24c15 94 -33 113 -115 113z" />
    <glyph glyph-name="uni0412" unicode="&#x412;" horiz-adv-x="691" 
d="M430 770c182 0 261 -49 235 -212c-17 -101 -52 -157 -127 -172l-1 -3c90 -13 106 -83 90 -180c-26 -166 -121 -208 -293 -208c-68 0 -214 3 -293 9c-12 1 -14 3 -13 14l116 730c1 11 5 13 17 14c81 6 200 8 269 8zM400 658h-142l-37 -227h113c133 0 183 8 199 111
c15 95 -29 116 -133 116zM386 334h-179l-36 -227h178c92 0 137 20 151 108c15 98 -30 119 -114 119z" />
    <glyph glyph-name="uni0413" unicode="&#x413;" horiz-adv-x="552" 
d="M161 765h434c10 0 14 -5 13 -15l-13 -82c-1 -10 -7 -15 -17 -15h-321l-101 -638c-1 -10 -7 -15 -17 -15h-99c-10 0 -14 5 -12 15l116 735c1 10 7 15 17 15z" />
    <glyph glyph-name="uni0414" unicode="&#x414;" horiz-adv-x="714" 
d="M293 765h376c10 0 14 -5 13 -15l-100 -638h44c10 0 14 -5 13 -15l-38 -235c-1 -10 -7 -15 -17 -15h-92c-10 0 -15 5 -13 15l22 138h-402l-22 -138c-2 -10 -7 -15 -17 -15h-93c-10 0 -14 5 -13 15l38 237c2 10 8 13 18 13h41c49 15 69 64 88 135l137 503c2 10 7 15 17 15z
M539 653h-161l-121 -445c-11 -37 -23 -69 -37 -96h233z" />
    <glyph glyph-name="uni0415" unicode="&#x415;" horiz-adv-x="634" 
d="M161 765h484c10 0 14 -5 13 -15l-13 -82c-1 -10 -7 -15 -17 -15h-371l-36 -224h339c10 0 14 -5 13 -15l-13 -79c-2 -10 -8 -15 -18 -15h-338l-32 -208h370c10 0 15 -5 13 -15l-13 -82c-1 -10 -8 -15 -18 -15h-484c-10 0 -14 5 -12 15l116 735c1 10 7 15 17 15z" />
    <glyph glyph-name="uni0401" unicode="&#x401;" horiz-adv-x="634" 
d="M325 957c45 0 65 -23 58 -66s-34 -67 -79 -67c-46 0 -66 24 -59 67s35 66 80 66zM528 957c45 0 65 -23 59 -66c-7 -43 -35 -67 -80 -67c-46 0 -65 24 -58 67c6 43 34 66 79 66zM161 765h484c10 0 14 -5 13 -15l-13 -82c-1 -10 -7 -15 -17 -15h-371l-36 -224h339
c10 0 14 -5 13 -15l-13 -79c-2 -10 -8 -15 -18 -15h-338l-32 -208h370c10 0 15 -5 13 -15l-13 -82c-1 -10 -8 -15 -18 -15h-484c-10 0 -14 5 -12 15l116 735c1 10 7 15 17 15z" />
    <glyph glyph-name="uni0416" unicode="&#x416;" horiz-adv-x="976" 
d="M899 765h110c18 0 17 -9 6 -19l-320 -334l230 -385c7 -12 6 -27 -21 -27h-107c-10 0 -17 4 -20 11l-214 372l-59 -368c-1 -10 -7 -15 -17 -15h-98c-10 0 -14 5 -13 15l59 368l-332 -372c-5 -7 -14 -11 -24 -11h-107c-27 0 -25 15 -13 27l352 385l-215 334
c-6 10 -6 19 12 19h111c9 0 16 -4 20 -10l203 -321l51 316c1 10 7 15 17 15h98c10 0 14 -5 13 -15l-50 -316l306 321c6 6 13 10 22 10z" />
    <glyph glyph-name="uni0417" unicode="&#x417;" horiz-adv-x="614" 
d="M317 770c222 0 304 -33 278 -196l-6 -33c-11 -70 -40 -139 -116 -158c70 -21 78 -87 67 -157l-5 -30c-26 -164 -115 -201 -340 -201c-62 0 -137 4 -186 11c-12 3 -18 5 -16 15l12 76c1 7 7 10 17 10h187c154 0 187 22 200 107l2 6c11 79 -2 111 -108 111h-204
c-10 0 -13 3 -12 12l13 79c1 9 5 13 15 13h204c106 0 130 30 143 112l2 12c13 85 -22 99 -173 99h-182c-10 0 -15 3 -13 11l11 74c1 10 9 13 22 16c51 8 127 11 188 11z" />
    <glyph glyph-name="uni0418" unicode="&#x418;" horiz-adv-x="777" 
d="M673 765h83c10 0 14 -5 13 -15l-117 -734c-1 -11 -7 -16 -17 -16h-98c-10 0 -14 5 -13 16l87 545l-448 -539c-15 -18 -27 -22 -46 -22h-77c-10 0 -14 5 -12 16l116 734c1 10 7 15 17 15h99c10 0 14 -5 13 -15l-83 -519l419 503c19 24 26 30 64 31z" />
    <glyph glyph-name="uni0419" unicode="&#x419;" horiz-adv-x="777" 
d="M589 965h45c12 0 15 -5 11 -16c-29 -97 -74 -128 -182 -128c-109 0 -142 31 -141 128c0 11 4 16 17 16h44c10 0 13 -4 15 -12c11 -41 30 -54 78 -54s71 13 94 54c4 8 10 12 19 12zM673 765h83c10 0 14 -5 13 -15l-117 -734c-1 -11 -7 -16 -17 -16h-98c-10 0 -14 5 -13 16
l87 545l-448 -539c-15 -18 -27 -22 -46 -22h-77c-10 0 -14 5 -12 16l116 734c1 10 7 15 17 15h99c10 0 14 -5 13 -15l-83 -519l419 503c19 24 26 30 64 31z" />
    <glyph glyph-name="uni041A" unicode="&#x41a;" horiz-adv-x="646" 
d="M569 765h110c18 0 16 -9 6 -19l-332 -334l242 -385c7 -12 6 -27 -21 -27h-108c-10 0 -17 4 -20 11l-231 372l-59 -368c-1 -10 -7 -15 -17 -15h-99c-10 0 -14 5 -12 15l116 735c1 10 7 15 17 15h99c10 0 14 -5 13 -15l-51 -316l325 321c6 6 13 10 22 10z" />
    <glyph glyph-name="uni041B" unicode="&#x41b;" horiz-adv-x="706" 
d="M308 765h377c10 0 14 -5 13 -15l-117 -735c-1 -10 -7 -15 -17 -15h-98c-10 0 -14 5 -13 15l101 638h-160l-125 -460c-44 -160 -122 -198 -211 -198c-26 0 -44 2 -64 8c-13 3 -17 9 -15 22l10 67c2 10 8 15 18 15h20c80 0 101 38 124 125l140 518c2 10 7 15 17 15z" />
    <glyph glyph-name="uni041C" unicode="&#x41c;" horiz-adv-x="962" 
d="M802 765h99c10 0 12 -5 12 -15l-48 -734c-1 -11 -8 -16 -18 -16h-98c-10 0 -13 5 -13 16l39 525l-278 -503c-5 -9 -13 -13 -22 -13h-83c-9 0 -15 4 -17 13l-118 503l-129 -525c-3 -11 -8 -16 -18 -16h-98c-10 0 -15 5 -13 16l185 734c2 9 6 15 16 15h99
c28 0 36 -9 42 -39l120 -529l287 530c16 29 26 38 54 38z" />
    <glyph glyph-name="uni041D" unicode="&#x41d;" horiz-adv-x="779" 
d="M659 765h99c10 0 14 -5 13 -15l-117 -734c-1 -11 -7 -16 -17 -16h-99c-10 0 -14 5 -12 16l49 313h-370l-49 -313c-1 -11 -7 -16 -17 -16h-99c-10 0 -14 5 -12 16l116 734c1 10 7 15 17 15h99c10 0 14 -5 13 -15l-50 -308h370l49 308c1 10 7 15 17 15z" />
    <glyph glyph-name="uni041E" unicode="&#x41e;" horiz-adv-x="731" 
d="M436 770c250 0 300 -89 253 -389c-47 -298 -126 -386 -376 -386c-249 0 -299 88 -252 386c47 300 126 389 375 389zM419 658c-156 0 -195 -64 -229 -277c-34 -211 -15 -274 141 -274s195 63 228 274c35 213 16 277 -140 277z" />
    <glyph glyph-name="uni041F" unicode="&#x41f;" horiz-adv-x="696" 
d="M162 765h513c10 0 14 -5 13 -15l-117 -735c-1 -10 -7 -15 -17 -15h-98c-10 0 -14 5 -13 15l101 638h-286l-101 -638c-2 -10 -8 -15 -18 -15h-98c-10 0 -14 5 -13 15l117 735c1 10 7 15 17 15z" />
    <glyph glyph-name="uni0420" unicode="&#x420;" horiz-adv-x="659" 
d="M401 770c222 0 290 -46 257 -249c-33 -207 -112 -240 -334 -240h-126l-42 -266c-2 -12 -5 -15 -17 -15h-99c-12 0 -15 3 -12 15l116 733c1 11 5 13 17 14c81 6 171 8 240 8zM371 658h-113l-44 -274h113c143 0 182 12 201 134c19 119 -14 140 -157 140z" />
    <glyph glyph-name="uni0421" unicode="&#x421;" horiz-adv-x="608" 
d="M434 770c76 0 141 -3 190 -12c11 -2 17 -8 15 -21l-10 -63c-2 -11 -7 -16 -17 -16h-196c-156 0 -193 -62 -226 -275c-34 -213 -17 -276 139 -276h195c10 0 14 -5 13 -15l-10 -63c-2 -13 -10 -20 -23 -22c-50 -8 -117 -12 -193 -12c-249 0 -298 89 -251 388
c47 300 124 387 374 387z" />
    <glyph glyph-name="uni0422" unicode="&#x422;" horiz-adv-x="626" 
d="M100 765h564c10 0 15 -5 14 -15l-13 -82c-2 -10 -8 -15 -18 -15h-218l-101 -638c-2 -10 -8 -15 -18 -15h-98c-10 0 -14 5 -13 15l101 638h-217c-11 0 -15 5 -13 15l13 82c1 10 7 15 17 15z" />
    <glyph glyph-name="uni0423" unicode="&#x423;" horiz-adv-x="603" 
d="M555 765h105c12 0 15 -7 10 -17l-294 -555c-84 -157 -148 -198 -244 -198c-34 0 -59 4 -81 10c-12 3 -17 9 -15 23l10 64c2 10 8 15 18 15h61c47 0 73 22 112 86l-173 554c-3 11 3 18 15 18h109c8 0 14 -3 16 -11l122 -396l209 395c6 8 11 12 20 12z" />
    <glyph glyph-name="uni0424" unicode="&#x424;" horiz-adv-x="845" 
d="M447 773h95c10 0 14 -5 12 -15l-11 -74c248 -7 315 -67 278 -297c-37 -231 -122 -290 -373 -298l-11 -73c-2 -11 -8 -16 -18 -16h-95c-10 0 -14 5 -12 16l11 73c-248 8 -315 67 -279 298c37 230 123 290 373 297l12 74c2 10 8 15 18 15zM341 203l59 368
c-160 -7 -204 -45 -227 -184c-21 -139 11 -177 168 -184zM525 571l-58 -368c160 7 203 45 225 184s-10 177 -167 184z" />
    <glyph glyph-name="uni0425" unicode="&#x425;" horiz-adv-x="669" 
d="M591 765h109c15 0 19 -8 8 -22l-287 -345l194 -379c9 -16 0 -22 -14 -22h-108c-15 0 -19 5 -24 16l-139 281l-225 -278c-9 -11 -15 -16 -30 -16h-108c-14 0 -21 6 -8 22l312 376l-177 345c-7 14 -1 22 14 22h109c16 0 20 -6 25 -16l121 -247l199 247c7 10 13 16 29 16z
" />
    <glyph glyph-name="uni0427" unicode="&#x427;" horiz-adv-x="658" 
d="M538 765h99c10 0 14 -5 13 -15l-117 -734c-1 -11 -7 -16 -17 -16h-99c-10 0 -14 5 -12 16l41 259h-110c-222 0 -292 33 -258 239l37 236c1 10 7 15 17 15h99c10 0 14 -5 13 -15l-36 -230c-20 -121 16 -133 158 -133h97l58 363c1 10 7 15 17 15z" />
    <glyph glyph-name="uni0426" unicode="&#x426;" horiz-adv-x="732" 
d="M584 765h98c10 0 14 -5 13 -15l-100 -638h65c10 0 14 -5 13 -15l-38 -235c-1 -10 -7 -15 -17 -15h-92c-10 0 -14 5 -13 15l22 138h-494c-10 0 -14 5 -13 15l117 735c1 10 7 15 17 15h98c10 0 14 -5 13 -15l-100 -638h293l101 638c1 10 7 15 17 15z" />
    <glyph glyph-name="uni0428" unicode="&#x428;" horiz-adv-x="976" 
d="M856 765h99c10 0 14 -5 13 -15l-117 -735c-1 -10 -7 -15 -17 -15h-793c-10 0 -14 5 -13 15l117 735c1 10 7 15 17 15h98c10 0 14 -5 13 -15l-101 -638h219l101 638c1 10 7 15 17 15h98c10 0 14 -5 13 -15l-100 -638h218l101 638c1 10 7 15 17 15z" />
    <glyph glyph-name="uni0429" unicode="&#x429;" horiz-adv-x="1005" 
d="M856 765h99c10 0 14 -5 13 -15l-101 -638h65c10 0 14 -5 13 -15l-38 -235c-1 -10 -7 -15 -17 -15h-92c-10 0 -14 5 -13 15l23 138h-767c-10 0 -14 5 -13 15l117 735c1 10 7 15 17 15h98c10 0 14 -5 13 -15l-101 -638h219l101 638c1 10 7 15 17 15h98c10 0 14 -5 13 -15
l-100 -638h218l101 638c1 10 7 15 17 15z" />
    <glyph glyph-name="uni042F" unicode="&#x42f;" horiz-adv-x="675" 
d="M416 770c69 0 160 -2 238 -8c12 -1 14 -3 13 -14l-116 -733c-3 -12 -6 -15 -18 -15h-98c-12 0 -15 3 -13 15l42 266h-123l-205 -259c-12 -15 -20 -22 -43 -22h-94c-15 0 -19 9 -9 20l212 270c-114 18 -147 75 -121 231c32 203 113 249 335 249zM524 658h-113
c-142 0 -183 -21 -201 -140c-20 -122 15 -134 157 -134h113z" />
    <glyph glyph-name="uni042C" unicode="&#x42c;" horiz-adv-x="678" 
d="M162 765h99c10 0 14 -5 13 -15l-47 -288h182c172 0 253 -45 227 -211l-8 -48c-26 -166 -121 -208 -293 -208c-68 0 -214 3 -293 9c-12 1 -14 3 -13 14l116 732c1 10 7 15 17 15zM390 352h-180l-38 -245h178c92 0 137 20 151 108l4 24c15 94 -33 113 -115 113z" />
    <glyph glyph-name="uni042A" unicode="&#x42a;" horiz-adv-x="723" 
d="M99 765h206c10 0 14 -5 13 -15l-46 -288h182c172 0 253 -45 227 -211l-8 -48c-26 -166 -121 -208 -293 -208c-69 0 -215 3 -294 9c-12 1 -14 3 -12 14l100 635h-92c-10 0 -15 5 -13 15l13 82c1 10 7 15 17 15zM434 352h-179l-39 -245h178c93 0 138 20 152 108l3 24
c15 94 -32 113 -115 113z" />
    <glyph glyph-name="uni042B" unicode="&#x42b;" horiz-adv-x="939" 
d="M162 765h98c10 0 14 -5 13 -15l-46 -288h182c172 0 253 -45 227 -211l-8 -48c-26 -166 -121 -208 -293 -208c-68 0 -215 3 -294 9c-11 1 -14 3 -12 14l116 732c1 10 7 15 17 15zM819 765h99c10 0 14 -5 13 -15l-117 -734c-1 -11 -7 -16 -17 -16h-98c-10 0 -14 5 -13 16
l116 734c1 10 7 15 17 15zM389 352h-179l-38 -245h177c93 0 138 20 152 108l4 24c14 94 -33 113 -116 113z" />
    <glyph glyph-name="uni042D" unicode="&#x42d;" horiz-adv-x="633" 
d="M339 770c250 0 299 -87 252 -387c-48 -299 -125 -388 -374 -388c-76 0 -166 4 -215 12c-12 2 -17 9 -15 22l10 63c1 10 7 15 17 15h221c142 0 185 52 217 222h-285c-10 0 -15 5 -13 15l13 77c1 10 7 15 17 15h285c22 171 -5 222 -147 222h-220c-10 0 -15 5 -13 16l10 63
c2 13 10 19 22 21c51 9 143 12 218 12z" />
    <glyph glyph-name="uni042E" unicode="&#x42e;" horiz-adv-x="1016" 
d="M721 770c249 0 300 -89 253 -389c-47 -298 -126 -386 -376 -386c-233 0 -292 77 -260 334h-133l-49 -313c-1 -11 -7 -16 -17 -16h-99c-10 0 -14 5 -12 16l116 734c1 10 7 15 17 15h99c10 0 14 -5 13 -15l-50 -308h134c49 252 133 328 364 328zM704 658
c-156 0 -195 -64 -229 -277c-34 -211 -15 -274 141 -274s195 63 228 274c34 213 16 277 -140 277z" />
    <glyph glyph-name="uni0430" unicode="&#x430;" horiz-adv-x="549" 
d="M293 558c176 0 225 -56 208 -164l-56 -348c-1 -13 -5 -23 -24 -29c-55 -15 -144 -22 -229 -22c-140 0 -207 22 -185 167c21 127 93 159 216 159h145l8 52c8 56 -20 80 -100 80h-165c-11 0 -14 3 -12 16l10 60c2 12 6 14 16 16c62 11 116 13 168 13zM354 234h-138
c-53 0 -80 -17 -88 -67c-9 -57 16 -71 90 -71c25 0 80 2 116 11z" />
    <glyph glyph-name="uni0431" unicode="&#x431;" horiz-adv-x="590" 
d="M536 770h39c12 0 13 -12 10 -31c-12 -76 -57 -95 -136 -106c-138 -22 -214 -20 -247 -139c38 38 80 48 146 48c183 0 222 -57 188 -266c-35 -225 -88 -281 -288 -281s-235 56 -199 281l15 88c45 289 130 334 366 372c43 6 60 10 76 20c12 8 8 14 30 14zM319 441
c-107 0 -127 -35 -148 -165c-23 -141 -13 -176 94 -176s127 35 150 176c21 130 11 165 -96 165z" />
    <glyph glyph-name="uni0432" unicode="&#x432;" horiz-adv-x="563" 
d="M329 558c150 0 208 -40 190 -154c-12 -79 -41 -115 -105 -126v-2c75 -8 91 -50 79 -128c-19 -116 -90 -153 -234 -153c-62 0 -166 1 -233 8c-9 1 -12 6 -11 14l83 521c1 8 6 11 15 12c69 6 154 8 216 8zM301 454h-92l-21 -135h75c90 0 125 11 134 66c9 53 -21 69 -96 69z
M291 234h-116l-21 -134h115c68 0 99 14 107 65c9 54 -22 69 -85 69z" />
    <glyph glyph-name="uni0433" unicode="&#x433;" horiz-adv-x="460" 
d="M115 553h349c9 0 13 -4 11 -12l-14 -88c-1 -8 -6 -12 -15 -12h-233l-69 -429c-1 -8 -6 -12 -15 -12h-102c-9 0 -12 4 -11 12l83 529c2 8 7 12 16 12z" />
    <glyph glyph-name="uni0434" unicode="&#x434;" horiz-adv-x="586" 
d="M210 553h311c9 0 13 -4 11 -12l-68 -435h38c9 0 12 -4 11 -12l-30 -185c-1 -8 -6 -13 -14 -13h-89c-8 0 -12 5 -11 13l15 91h-296l-15 -91c-1 -8 -6 -13 -15 -13h-87c-9 0 -13 5 -12 13l30 186c1 8 6 11 15 11h31c38 12 55 55 68 104l92 331c2 8 7 12 15 12zM396 447
h-103l-78 -274c-7 -24 -16 -47 -25 -67h152z" />
    <glyph glyph-name="uni0435" unicode="&#x435;" horiz-adv-x="556" 
d="M323 558c187 0 224 -54 191 -271l-5 -30c-3 -19 -10 -27 -38 -27h-317c-14 -106 6 -130 103 -130h171c10 0 14 -5 13 -15l-10 -62c-2 -11 -8 -15 -17 -17c-53 -8 -117 -11 -181 -11c-195 0 -230 56 -194 281c35 226 89 282 284 282zM306 453c-92 0 -120 -28 -139 -136
h229c17 108 -1 136 -90 136z" />
    <glyph glyph-name="uni0451" unicode="&#x451;" horiz-adv-x="556" 
d="M252 757c45 0 64 -23 58 -66c-7 -43 -34 -67 -79 -67c-46 0 -66 24 -60 67c7 43 35 66 81 66zM455 757c45 0 65 -23 58 -66s-34 -67 -79 -67c-46 0 -66 24 -59 67s34 66 80 66zM323 558c187 0 224 -54 191 -271l-5 -30c-3 -19 -10 -27 -38 -27h-317
c-14 -106 6 -130 103 -130h171c10 0 14 -5 13 -15l-10 -62c-2 -11 -8 -15 -17 -17c-53 -8 -117 -11 -181 -11c-195 0 -230 56 -194 281c35 226 89 282 284 282zM306 453c-92 0 -120 -28 -139 -136h229c17 108 -1 136 -90 136z" />
    <glyph glyph-name="uni0436" unicode="&#x436;" horiz-adv-x="845" 
d="M730 553h110c13 0 18 -7 10 -15l-237 -239l177 -281c5 -9 0 -18 -13 -18h-119c-8 0 -13 2 -17 8l-164 262l-41 -255c-1 -10 -7 -15 -17 -15h-95c-10 0 -14 5 -13 15l40 255l-248 -262c-5 -6 -10 -8 -18 -8h-120c-12 0 -16 9 -6 18l265 281l-161 239c-5 8 2 15 14 15h111
c8 0 13 -1 15 -7l156 -230l35 222c1 10 7 15 17 15h95c10 0 14 -5 13 -15l-35 -222l228 230c5 6 10 7 18 7z" />
    <glyph glyph-name="uni0437" unicode="&#x437;" horiz-adv-x="510" 
d="M259 558c153 0 233 -22 215 -137l-7 -41c-6 -37 -25 -90 -94 -104c66 -13 67 -66 61 -104l-6 -38c-18 -115 -104 -139 -259 -139c-62 0 -124 6 -161 13c-11 3 -17 8 -14 21l9 63c2 8 7 12 16 12h161c98 0 119 14 126 58l1 7c7 43 -3 61 -72 61h-159c-7 0 -12 5 -11 13
l11 66c1 9 8 13 15 13h159c69 0 84 18 91 61l2 11c7 46 -16 55 -113 55h-157c-9 0 -12 3 -11 12l10 64c2 13 8 18 21 20c40 9 103 13 166 13z" />
    <glyph glyph-name="uni0438" unicode="&#x438;" horiz-adv-x="630" 
d="M516 553h75c8 0 11 -4 10 -11l-84 -530c-1 -8 -6 -12 -14 -12h-99c-8 0 -12 3 -10 12l54 338l-311 -331c-13 -14 -23 -19 -42 -19h-70c-8 0 -11 4 -10 12l84 530c1 7 6 11 14 11h99c8 0 11 -4 10 -11l-53 -330l295 317c14 16 24 24 52 24z" />
    <glyph glyph-name="uni0439" unicode="&#x439;" horiz-adv-x="630" 
d="M490 765h45c12 0 15 -5 12 -16c-30 -97 -74 -128 -182 -128s-143 31 -142 128c0 11 5 16 17 16h44c10 0 13 -4 15 -12c11 -41 30 -54 78 -54s71 13 94 54c5 8 10 12 19 12zM516 553h75c8 0 11 -4 10 -11l-84 -530c-1 -8 -6 -12 -14 -12h-99c-8 0 -12 3 -10 12l54 338
l-311 -331c-13 -14 -23 -19 -42 -19h-70c-8 0 -11 4 -10 12l84 530c1 7 6 11 14 11h99c8 0 11 -4 10 -11l-53 -330l295 317c14 16 24 24 52 24z" />
    <glyph glyph-name="uni043A" unicode="&#x43a;" horiz-adv-x="547" 
d="M438 553h110c13 0 17 -7 9 -15l-237 -239l177 -281c6 -9 0 -18 -12 -18h-119c-9 0 -14 2 -17 8l-165 262l-41 -255c-1 -10 -7 -15 -17 -15h-98c-10 0 -14 5 -13 15l83 523c2 10 8 15 18 15h98c10 0 14 -5 13 -15l-35 -222l228 230c4 5 10 7 18 7z" />
    <glyph glyph-name="uni043B" unicode="&#x43b;" horiz-adv-x="576" 
d="M217 553h320c8 0 12 -4 10 -11l-84 -531c-1 -7 -6 -11 -13 -11h-101c-7 0 -10 4 -9 11l69 434h-108l-81 -293c-28 -102 -85 -156 -176 -156c-23 0 -40 2 -56 6c-13 4 -16 9 -14 21l11 71c1 7 5 10 13 10h18c59 0 75 27 91 84l96 354c3 7 6 11 14 11z" />
    <glyph glyph-name="uni043C" unicode="&#x43c;" horiz-adv-x="786" 
d="M621 553h91c8 0 11 -4 11 -10l-28 -531c-1 -9 -6 -12 -13 -12h-102c-8 0 -11 3 -10 12l20 342l-191 -326c-4 -8 -9 -10 -17 -10h-76c-7 0 -12 3 -14 10l-86 326l-89 -342c-2 -9 -6 -12 -14 -12h-102c-8 0 -11 4 -9 11l140 531c2 7 7 11 15 11h90c25 0 35 -6 41 -29
l92 -344l202 345c13 23 24 28 49 28z" />
    <glyph glyph-name="uni043D" unicode="&#x43d;" horiz-adv-x="635" 
d="M494 553h98c10 0 14 -5 13 -15l-83 -523c-1 -10 -7 -15 -17 -15h-99c-10 0 -14 5 -13 15l33 203h-250l-33 -203c-1 -10 -7 -15 -17 -15h-98c-10 0 -14 5 -13 15l83 523c2 10 8 15 18 15h98c10 0 14 -5 13 -15l-33 -207h250l33 207c1 10 7 15 17 15z" />
    <glyph glyph-name="uni043E" unicode="&#x43e;" horiz-adv-x="579" 
d="M327 558c200 0 234 -56 199 -282c-36 -225 -88 -281 -289 -281c-200 0 -234 56 -198 281c35 226 88 282 288 282zM310 453c-107 0 -127 -35 -150 -177c-22 -141 -13 -176 94 -176s128 35 150 176c23 142 13 177 -94 177z" />
    <glyph glyph-name="uni043F" unicode="&#x43f;" horiz-adv-x="572" 
d="M116 553h413c10 0 14 -5 13 -15l-83 -523c-1 -10 -7 -15 -17 -15h-99c-10 0 -14 5 -13 15l69 426h-187l-69 -426c-1 -10 -7 -15 -17 -15h-98c-10 0 -14 5 -13 15l83 523c2 10 8 15 18 15z" />
    <glyph glyph-name="uni0440" unicode="&#x440;" horiz-adv-x="588" 
d="M333 558c202 0 238 -58 203 -277c-36 -227 -90 -286 -275 -286c-47 0 -85 1 -127 6l-29 -185c-1 -11 -7 -16 -17 -16h-91c-10 0 -15 5 -13 16l111 704c3 12 10 18 22 20c87 14 144 18 216 18zM320 453h-114l-55 -346c34 -4 75 -6 108 -6c112 0 132 33 155 176
c22 137 17 176 -94 176z" />
    <glyph glyph-name="uni0441" unicode="&#x441;" horiz-adv-x="498" 
d="M327 558c39 0 104 -2 155 -11c10 -2 15 -7 12 -18l-10 -61c-1 -10 -7 -15 -18 -15h-156c-107 0 -127 -35 -150 -176s-13 -177 94 -177h156c11 0 15 -5 14 -15l-9 -61c-2 -11 -8 -16 -19 -18c-53 -9 -119 -11 -159 -11c-203 0 -234 56 -198 282c35 225 85 281 288 281z
" />
    <glyph glyph-name="uni0442" unicode="&#x442;" horiz-adv-x="513" 
d="M71 553h445c10 0 14 -5 12 -15l-13 -82c-1 -10 -7 -15 -17 -15h-158l-68 -426c-1 -10 -7 -15 -17 -15h-99c-10 0 -14 5 -13 15l68 426h-158c-10 0 -15 5 -13 15l13 82c2 10 8 15 18 15z" />
    <glyph glyph-name="uni0443" unicode="&#x443;" horiz-adv-x="604" 
d="M470 553h92c10 0 14 -5 12 -15l-80 -506c-28 -174 -72 -237 -275 -237c-67 0 -114 3 -168 11c-8 2 -12 7 -10 16l9 59c2 11 7 15 17 15h160c101 0 128 24 141 103v5c-44 -7 -82 -9 -129 -9c-185 0 -222 63 -190 265l44 278c2 10 8 15 18 15h91c10 0 14 -5 12 -15
l-41 -261c-22 -143 -10 -176 102 -176c33 0 74 1 110 6l68 431c1 10 7 15 17 15z" />
    <glyph glyph-name="uni0444" unicode="&#x444;" horiz-adv-x="782" 
d="M416 765h91c10 0 14 -5 13 -15l-34 -217c28 18 72 25 105 25c122 0 172 -75 139 -282c-32 -206 -106 -281 -228 -281c-34 0 -81 7 -98 25l-32 -204c-2 -11 -7 -16 -17 -16h-92c-10 0 -14 5 -13 16l33 204c-23 -18 -72 -25 -106 -25c-122 0 -172 75 -139 281
c33 207 107 282 229 282c33 0 75 -7 97 -25l35 217c1 10 7 15 17 15zM278 452c-79 0 -99 -50 -119 -176c-20 -125 -15 -175 63 -175c24 0 58 5 76 18l50 315c-14 13 -46 18 -70 18zM546 452c-24 0 -57 -5 -75 -18l-50 -315c14 -13 45 -18 69 -18c79 0 99 50 119 175
c20 126 15 176 -63 176z" />
    <glyph glyph-name="uni0445" unicode="&#x445;" horiz-adv-x="550" 
d="M439 553h111c12 0 13 -8 4 -18l-210 -243l148 -274c5 -10 1 -18 -11 -18h-111c-6 0 -11 3 -14 9l-100 187l-160 -187c-5 -6 -10 -9 -16 -9h-111c-12 0 -14 8 -6 18l235 273l-133 244c-6 10 -2 18 10 18h111c8 0 13 -3 16 -9l85 -157l133 157c6 6 11 9 19 9z" />
    <glyph glyph-name="uni0447" unicode="&#x447;" horiz-adv-x="544" 
d="M404 553h98c10 0 14 -5 13 -15l-83 -522c-1 -11 -7 -16 -17 -16h-99c-10 0 -14 5 -12 16l26 166h-34c-222 0 -275 32 -242 239l18 117c2 10 8 15 18 15h99c10 0 14 -5 12 -15l-17 -111c-19 -121 0 -133 142 -133h22l38 244c2 10 8 15 18 15z" />
    <glyph glyph-name="uni0446" unicode="&#x446;" horiz-adv-x="600" 
d="M435 553h98c10 0 14 -5 13 -15l-67 -426h47c10 0 14 -5 13 -15l-30 -185c-1 -10 -7 -15 -17 -15h-93c-10 0 -14 5 -13 15l14 88h-372c-10 0 -14 5 -13 15l84 523c1 10 7 15 17 15h98c10 0 14 -5 13 -15l-67 -426h190l67 426c2 10 8 15 18 15z" />
    <glyph glyph-name="uni0448" unicode="&#x448;" horiz-adv-x="795" 
d="M654 553h99c10 0 14 -5 13 -15l-84 -523c-1 -10 -7 -15 -17 -15h-637c-10 0 -14 5 -13 15l83 523c2 10 8 15 18 15h98c10 0 14 -5 13 -15l-68 -429h144l68 429c1 10 7 15 17 15h92c10 0 14 -5 13 -15l-68 -429h145l67 429c1 10 7 15 17 15z" />
    <glyph glyph-name="uni0449" unicode="&#x449;" horiz-adv-x="815" 
d="M650 553h98c9 0 14 -6 13 -15l-67 -426h47c9 0 14 -6 13 -15l-30 -185c-1 -9 -8 -15 -17 -15h-93c-9 0 -14 6 -13 15l15 88h-588c-9 0 -14 6 -13 15l83 523c1 9 8 15 17 15h99c9 0 14 -6 12 -15l-67 -426h139l67 426c2 9 9 15 18 15h98c9 0 14 -6 13 -15l-67 -426h138
l67 426c2 9 9 15 18 15z" />
    <glyph glyph-name="uni044F" unicode="&#x44f;" horiz-adv-x="557" 
d="M320 558c65 0 128 0 196 -7c9 -1 12 -4 10 -11l-83 -529c-2 -9 -4 -11 -14 -11h-101c-9 0 -11 2 -9 11l29 186h-74l-156 -181c-9 -11 -16 -16 -34 -16h-97c-11 0 -14 6 -7 14l162 192c-85 16 -109 61 -93 165c23 140 92 187 271 187zM387 449h-84
c-90 0 -117 -17 -127 -83c-11 -67 12 -78 102 -78h84z" />
    <glyph glyph-name="uni044C" unicode="&#x44c;" horiz-adv-x="552" 
d="M113 553h99c9 0 13 -4 11 -12l-31 -199h124c147 0 205 -38 187 -152l-7 -42c-18 -115 -88 -153 -235 -153c-64 0 -168 1 -236 8c-9 1 -11 6 -10 13l84 526c1 7 6 11 14 11zM301 242h-125l-22 -140h117c68 0 96 12 103 61l3 17c9 50 -21 62 -76 62z" />
    <glyph glyph-name="uni044A" unicode="&#x44a;" horiz-adv-x="621" 
d="M66 553h217c8 0 12 -4 10 -11l-31 -200h124c147 0 205 -38 186 -152l-6 -42c-18 -115 -88 -153 -235 -153c-64 0 -168 1 -237 8c-9 1 -10 4 -9 11l68 429h-104c-9 0 -13 4 -12 11l15 88c1 7 6 11 14 11zM371 242h-125l-22 -140h116c69 0 97 12 104 61l3 17
c8 50 -22 62 -76 62z" />
    <glyph glyph-name="uni044B" unicode="&#x44b;" horiz-adv-x="764" 
d="M113 553h100c8 0 12 -4 10 -11l-31 -200h124c147 0 205 -38 187 -152l-7 -42c-18 -115 -88 -153 -235 -153c-64 0 -168 1 -236 8c-9 1 -11 4 -10 11l84 528c1 7 6 11 14 11zM630 553h91c10 0 14 -5 13 -15l-83 -523c-1 -10 -7 -15 -17 -15h-91c-10 0 -14 5 -13 15l83 523
c1 10 7 15 17 15zM301 242h-125l-22 -140h117c68 0 96 12 103 61l3 17c9 50 -21 62 -76 62z" />
    <glyph glyph-name="uni044D" unicode="&#x44d;" horiz-adv-x="523" 
d="M265 558c199 0 240 -66 206 -281c-35 -216 -97 -282 -296 -282c-68 0 -132 6 -170 13c-11 2 -16 7 -15 19l10 63c1 7 6 12 14 12h178c97 0 127 33 147 127h-216c-8 0 -12 4 -11 11l11 74c1 7 6 10 14 10h217c10 94 -10 128 -106 128h-179c-8 0 -11 3 -10 11l10 63
c3 13 9 17 22 20c38 8 106 12 174 12z" />
    <glyph glyph-name="uni044E" unicode="&#x44e;" horiz-adv-x="815" 
d="M563 558c200 0 234 -56 199 -282c-36 -225 -88 -281 -289 -281c-180 0 -225 46 -206 223h-91l-33 -203c-1 -10 -7 -15 -17 -15h-98c-10 0 -14 5 -13 15l83 523c2 10 8 15 18 15h98c10 0 14 -5 13 -15l-33 -207h92c36 181 95 227 277 227zM546 453
c-107 0 -127 -35 -150 -177c-22 -141 -13 -176 94 -176s128 35 150 176c23 142 13 177 -94 177z" />
    <glyph glyph-name="pi" unicode="&#x3c0;" horiz-adv-x="663" 
d="M73 554h592c10 0 14 -5 13 -15l-12 -79c-2 -10 -8 -15 -18 -15h-84l-68 -430c-1 -10 -7 -15 -17 -15h-85c-10 0 -14 5 -13 15l68 430h-191c-24 -147 -57 -283 -105 -430c-3 -10 -7 -15 -17 -15h-85c-10 0 -15 5 -13 15c48 147 82 283 105 430h-87c-10 0 -14 5 -13 15
l13 79c1 10 7 15 17 15z" />
    <glyph glyph-name="zero" unicode="0" horiz-adv-x="676" 
d="M409 770c231 0 272 -89 224 -389c-47 -299 -116 -386 -347 -386c-230 0 -271 87 -224 386c47 300 117 389 347 389zM392 658c-127 0 -168 -64 -202 -277c-34 -212 -12 -274 114 -274c127 0 167 62 201 274c33 213 14 277 -113 277z" />
    <glyph glyph-name="one" unicode="1" horiz-adv-x="462" 
d="M279 112h122c10 0 14 -5 13 -15l-14 -82c-1 -10 -7 -15 -17 -15h-374c-11 0 -15 5 -14 15l13 82c2 10 8 15 18 15h129l79 497c6 44 -10 53 -71 53h-60c-11 0 -16 5 -14 15l10 64c1 11 7 15 17 18c29 8 68 11 94 11c75 0 172 -9 153 -128z" />
    <glyph glyph-name="two" unicode="2" horiz-adv-x="607" 
d="M352 770c143 0 269 -20 244 -176l-12 -80c-12 -69 -28 -126 -124 -177l-223 -118c-48 -23 -64 -43 -69 -80l-5 -26h357c6 0 7 -1 6 -6l-16 -101c-1 -5 -3 -6 -7 -6h-494c-21 0 -24 11 -22 28l15 89c13 84 52 125 156 182l247 136c35 20 45 49 52 92l7 48
c12 71 -45 83 -138 83h-191c-7 0 -9 2 -9 9l12 72c2 10 6 13 16 16c73 10 110 15 198 15z" />
    <glyph glyph-name="three" unicode="3" horiz-adv-x="599" 
d="M304 770c222 0 304 -33 278 -196l-6 -33c-11 -70 -40 -139 -116 -158c70 -21 78 -87 67 -157l-5 -30c-26 -164 -115 -201 -340 -201c-62 0 -119 4 -168 11c-12 3 -18 5 -16 15l12 76c1 7 7 10 17 10h169c154 0 187 22 200 107l2 6c11 79 -2 111 -108 111h-186
c-10 0 -12 3 -11 12l12 79c2 9 6 13 16 13h185c106 0 130 30 143 112l2 12c13 85 -22 99 -173 99h-164c-10 0 -14 3 -13 11l12 74c1 10 8 13 21 16c51 8 109 11 170 11z" />
    <glyph glyph-name="four" unicode="4" horiz-adv-x="662" 
d="M255 765h98c12 0 13 -7 8 -18l-198 -445h213l30 189c1 9 6 15 15 18l104 35c11 4 18 2 16 -11l-37 -231h120c11 0 15 -5 14 -14l-13 -83c-2 -11 -8 -15 -19 -15h-120l-27 -175c-1 -10 -7 -15 -17 -15h-99c-10 0 -14 5 -13 15l28 175h-338c-10 0 -14 4 -12 15l9 54
c1 10 6 20 12 34l207 462c3 8 8 10 19 10z" />
    <glyph glyph-name="five" unicode="5" horiz-adv-x="620" 
d="M162 765h452c10 0 14 -5 13 -15l-13 -82c-1 -10 -7 -15 -17 -15h-352l-44 -189c33 3 75 5 98 5c213 0 290 -41 264 -214l-8 -48c-29 -171 -120 -212 -342 -212c-61 0 -141 3 -189 9c-12 3 -17 8 -16 18l12 74c1 8 7 11 17 11h195c145 0 183 27 198 119l1 8
c14 93 -14 123 -159 123h-189c-16 0 -21 5 -19 15l12 78l69 300c1 10 7 15 17 15z" />
    <glyph glyph-name="six" unicode="6" horiz-adv-x="616" 
d="M345 765h107c12 0 14 -8 7 -18l-190 -291c23 6 51 9 83 9c173 0 249 -61 225 -210l-7 -46c-25 -160 -129 -214 -306 -214c-179 0 -268 53 -242 214l7 46c8 49 18 78 39 113l258 387c5 7 11 10 19 10zM321 357c-111 0 -152 -35 -166 -123l-1 -4c-15 -88 17 -123 128 -123
c110 0 149 36 163 123l1 4c14 88 -16 123 -125 123z" />
    <glyph glyph-name="seven" unicode="7" horiz-adv-x="583" 
d="M104 765h514c10 0 15 -4 13 -15l-10 -62c-1 -10 -5 -16 -10 -23l-440 -655c-6 -7 -12 -10 -20 -10h-115c-12 0 -14 8 -7 18l429 635h-372c-11 0 -15 5 -13 14l13 83c2 11 7 15 18 15z" />
    <glyph glyph-name="eight" unicode="8" horiz-adv-x="645" 
d="M387 770h16c170 0 238 -67 215 -209c-14 -90 -53 -144 -128 -183c74 -36 104 -85 90 -176c-22 -140 -121 -207 -301 -207h-18c-182 0 -257 67 -234 211c12 76 65 142 151 186c-61 34 -85 90 -73 167c23 144 112 211 282 211zM384 658h-13c-76 0 -126 -30 -137 -98
c-10 -63 24 -90 75 -110l82 -27c58 30 88 71 97 127c12 72 -21 108 -104 108zM374 308l-101 35c-79 -36 -108 -75 -116 -126c-12 -73 31 -110 124 -110h14c95 0 147 34 157 99c10 66 -32 87 -78 102z" />
    <glyph glyph-name="nine" unicode="9" horiz-adv-x="616" 
d="M371 770c178 0 267 -54 242 -215l-7 -45c-8 -49 -18 -78 -40 -113l-257 -387c-6 -7 -12 -10 -20 -10h-106c-12 0 -14 8 -7 18l190 290c-23 -6 -51 -8 -82 -8c-174 0 -250 61 -226 210l7 46c25 160 128 214 306 214zM354 658c-110 0 -150 -36 -164 -123v-4
c-14 -88 14 -123 124 -123c111 0 153 35 166 123l1 3c14 89 -16 124 -127 124z" />
    <glyph glyph-name="zero.osf" horiz-adv-x="640" 
d="M358 559c206 0 261 -70 227 -284c-34 -211 -110 -280 -317 -280s-261 69 -227 280c34 214 110 284 317 284zM340 448c-109 0 -152 -43 -173 -173c-20 -126 9 -169 119 -169s153 43 173 169c20 130 -9 173 -119 173z" />
    <glyph glyph-name="one.osf" horiz-adv-x="476" 
d="M287 112h123c10 0 14 -5 12 -15l-13 -82c-1 -10 -7 -15 -17 -15h-375c-10 0 -14 5 -13 15l13 82c2 10 8 15 18 15h128l45 284c8 44 -9 53 -70 53h-60c-11 0 -16 5 -15 15l11 64c2 11 8 16 18 18c28 8 68 12 94 12c74 0 171 -10 152 -129z" />
    <glyph glyph-name="two.osf" 
d="M316 558c137 0 263 -9 241 -150l-5 -32c-11 -71 -30 -115 -127 -152l-166 -56c-46 -15 -57 -20 -63 -51l-1 -8h312c8 0 10 -3 9 -9l-15 -95c-1 -4 -3 -5 -8 -5h-475c-21 0 -24 10 -22 25l12 80c11 63 35 82 118 110l253 101c32 11 40 32 44 54l2 17c10 60 -48 59 -138 59
h-196c-7 0 -9 2 -8 8l13 77c0 9 5 12 15 14c73 9 116 13 205 13z" />
    <glyph glyph-name="three.osf" horiz-adv-x="590" 
d="M267 558c222 0 303 -33 278 -195l-6 -30c-10 -70 -40 -137 -116 -157c70 -20 78 -86 68 -154l-5 -28c-26 -162 -115 -199 -340 -199c-61 0 -119 4 -167 12c-12 3 -17 7 -16 18l11 70c2 9 7 13 17 13h164c153 0 192 20 205 103l1 5c12 77 -2 108 -108 108h-186
c-10 0 -12 4 -11 13l13 78c1 9 5 13 15 13h185c106 0 130 30 143 110l1 7c13 83 -22 101 -173 101h-166c-10 0 -12 5 -11 13l12 69c1 12 9 16 21 19c51 7 110 11 171 11z" />
    <glyph glyph-name="four.osf" horiz-adv-x="668" 
d="M228 553h98c12 0 13 -6 8 -18l-198 -440h213l30 188c2 9 6 15 15 18l105 36c11 3 17 1 15 -12l-36 -230h120c11 0 15 -5 14 -15l-14 -83c-1 -10 -7 -15 -18 -15h-120l-27 -166c-1 -11 -7 -16 -17 -16h-98c-10 0 -14 5 -13 16l26 166h-337c-10 0 -14 5 -12 16l8 53
c1 10 6 20 12 34l206 458c4 8 9 10 20 10z" />
    <glyph glyph-name="five.osf" horiz-adv-x="610" 
d="M125 553h444c10 0 14 -5 13 -15l-13 -82c-2 -10 -7 -15 -17 -15h-345l-41 -176c32 3 74 4 98 4c213 0 289 -41 263 -213l-7 -48c-29 -172 -120 -213 -342 -213c-61 0 -141 4 -189 10c-12 3 -17 7 -16 18l11 74c2 7 7 11 17 11h196c145 0 183 26 197 118l2 9
c13 92 -14 122 -160 122h-189c-15 0 -20 5 -19 16l12 78l67 287c2 10 8 15 18 15z" />
    <glyph glyph-name="six.osf" horiz-adv-x="616" 
d="M345 765h107c12 0 14 -8 7 -18l-190 -291c23 6 51 9 83 9c174 0 249 -61 225 -210l-7 -46c-25 -160 -129 -214 -306 -214c-179 0 -268 53 -242 214l7 46c8 49 18 78 39 113l258 387c5 7 11 10 19 10zM321 357c-111 0 -152 -35 -166 -123l-1 -4c-14 -88 17 -123 128 -123
c110 0 149 36 163 123l1 4c14 88 -16 123 -125 123z" />
    <glyph glyph-name="seven.osf" horiz-adv-x="580" 
d="M69 553h514c10 0 15 -4 13 -15l-10 -62c-2 -10 -5 -16 -11 -23l-435 -643c-5 -7 -11 -10 -19 -10h-114c-12 0 -14 8 -7 18l423 623h-372c-11 0 -16 5 -14 14l13 83c2 11 8 15 19 15z" />
    <glyph glyph-name="eight.osf" horiz-adv-x="645" 
d="M386 770h16c169 0 238 -67 215 -209c-14 -90 -54 -144 -128 -183c74 -36 104 -85 90 -176c-22 -140 -121 -207 -301 -207h-18c-183 0 -257 67 -235 211c13 76 66 142 152 186c-62 34 -85 90 -73 167c23 144 112 211 282 211zM383 658h-13c-76 0 -126 -30 -137 -98
c-10 -63 24 -90 75 -110l82 -27c58 30 88 71 97 127c11 72 -21 108 -104 108zM373 308l-101 35c-79 -36 -108 -75 -116 -126c-12 -73 31 -110 124 -110h14c95 0 147 34 157 99c10 66 -32 87 -78 102z" />
    <glyph glyph-name="nine.osf" horiz-adv-x="608" 
d="M335 558c179 0 268 -53 242 -214l-7 -46c-8 -49 -18 -78 -39 -113l-250 -375c-5 -7 -11 -10 -19 -10h-106c-12 0 -14 8 -8 18l182 279c-23 -7 -51 -9 -82 -9c-174 0 -249 61 -226 210l7 46c26 160 129 214 306 214zM317 446c-109 0 -148 -36 -162 -123l-1 -4
c-14 -88 15 -123 124 -123c111 0 153 35 167 123l1 4c14 88 -18 123 -129 123z" />
    <glyph glyph-name="zero.subs" horiz-adv-x="385" 
d="M178 232c126 0 149 -47 124 -208c-26 -160 -64 -207 -189 -207s-149 47 -123 207c25 161 63 208 188 208zM167 162c-60 0 -80 -32 -97 -138s-7 -137 54 -137s81 31 98 137c16 106 7 138 -55 138z" />
    <glyph glyph-name="one.subs" horiz-adv-x="276" 
d="M119 -110h64c5 0 8 -3 7 -8l-8 -54c-1 -5 -6 -8 -11 -8h-208c-6 0 -8 3 -7 8l8 54c1 5 5 8 10 8h67l39 246c5 25 -9 30 -33 30h-34c-6 0 -9 2 -7 8l7 42c0 6 4 9 9 11c18 4 40 5 55 5c47 0 95 -7 84 -73z" />
    <glyph glyph-name="two.subs" horiz-adv-x="350" 
d="M148 232c78 0 146 -12 133 -96l-7 -47c-6 -36 -14 -65 -70 -97l-107 -59c-18 -10 -40 -23 -42 -37l-1 -6h189c4 0 5 -1 4 -4l-10 -62c0 -3 -2 -4 -5 -4h-270c-11 0 -13 6 -11 15l8 47c6 45 27 64 82 96l117 70c27 16 33 31 37 54l2 14c6 38 -15 46 -64 46h-106
c-4 0 -6 2 -5 7l6 44c2 7 5 9 12 11c31 5 69 8 108 8z" />
    <glyph glyph-name="three.subs" horiz-adv-x="346" 
d="M148 232c83 0 143 -17 129 -103l-3 -23c-5 -33 -25 -71 -75 -81c48 -8 54 -48 49 -81l-4 -24c-13 -86 -78 -103 -161 -103c-41 0 -85 4 -117 9c-6 1 -9 4 -8 12l7 42c1 5 4 7 9 7h96c64 0 90 7 96 46l2 13c6 33 -15 47 -71 47h-82c-6 0 -6 3 -6 8l8 48c1 5 2 7 8 7h82
c55 0 80 10 86 49l2 11c6 39 -18 46 -81 46h-97c-5 0 -7 2 -6 7l6 43c2 7 6 10 12 11c33 6 79 9 119 9z" />
    <glyph glyph-name="four.subs" horiz-adv-x="379" 
d="M91 230h64c7 0 8 -4 4 -10l-101 -230h100l15 94c1 4 3 8 8 9l68 22c6 2 10 1 8 -6l-19 -119h60c6 0 8 -3 8 -7l-9 -55c-1 -6 -4 -7 -10 -7h-60l-14 -92c-1 -6 -5 -9 -10 -9h-65c-5 0 -6 3 -6 9l15 92h-179c-5 0 -8 1 -6 7l6 38c0 5 3 11 6 18l106 240c3 4 6 6 11 6z" />
    <glyph glyph-name="five.subs" horiz-adv-x="353" 
d="M45 230h240c5 0 8 -3 7 -8l-9 -55c0 -5 -4 -8 -9 -8h-178l-20 -90c16 3 45 5 58 5c88 0 143 -20 129 -110l-7 -37c-14 -90 -72 -110 -176 -110c-42 0 -80 2 -111 8c-5 2 -8 4 -7 11l7 45c1 4 4 6 9 6h107c58 0 86 8 92 49l3 16c7 43 -19 51 -76 51h-102
c-10 0 -13 4 -12 11l8 48l37 159c1 6 4 9 10 9z" />
    <glyph glyph-name="six.subs" horiz-adv-x="353" 
d="M138 230h69c6 0 7 -5 4 -11l-102 -156c13 4 32 6 47 6c74 0 128 -27 116 -98l-8 -54c-12 -77 -73 -100 -164 -100c-90 0 -146 23 -134 105l7 44c4 22 9 37 19 53l136 205c3 3 6 6 10 6zM129 3c-51 0 -71 -8 -78 -49l-3 -17c-6 -40 11 -50 63 -50c49 0 70 10 76 50l3 17
c6 41 -11 49 -61 49z" />
    <glyph glyph-name="seven.subs" horiz-adv-x="339" 
d="M15 230h281c6 0 8 -3 7 -8l-6 -42c-1 -5 -3 -8 -6 -12l-233 -342c-2 -4 -7 -6 -11 -6h-75c-6 0 -7 4 -4 9l226 330h-190c-6 0 -8 3 -8 7l9 56c1 5 4 8 10 8z" />
    <glyph glyph-name="eight.subs" horiz-adv-x="375" 
d="M170 232h9c94 0 133 -35 121 -112c-9 -50 -31 -77 -71 -98c42 -17 59 -45 51 -93c-12 -76 -66 -112 -168 -112h-10c-100 0 -144 36 -133 111c8 47 34 80 86 102c-40 18 -48 47 -41 91c12 76 62 111 156 111zM166 162h-7c-37 0 -60 -16 -65 -50c-4 -29 11 -40 35 -47
l47 -11c25 13 36 33 40 57c6 33 -9 51 -50 51zM165 -14l-58 14c-32 -12 -49 -31 -53 -58c-7 -37 14 -55 61 -55h6c48 0 74 16 79 49c4 28 -7 43 -35 50z" />
    <glyph glyph-name="nine.subs" horiz-adv-x="353" 
d="M158 232c91 0 147 -23 135 -105l-7 -44c-4 -22 -10 -37 -19 -52l-137 -205c-2 -4 -6 -6 -10 -6h-69c-7 0 -7 4 -4 10l103 156c-14 -4 -33 -5 -47 -5c-75 0 -128 25 -117 98l9 53c12 78 72 100 163 100zM147 161c-49 0 -69 -8 -75 -49l-3 -17c-6 -40 10 -49 60 -49
c51 0 72 9 79 49l2 17c7 41 -12 49 -63 49z" />
    <glyph glyph-name="zero.tf" horiz-adv-x="646" 
d="M395 770c230 0 271 -89 223 -389c-46 -299 -116 -386 -346 -386c-231 0 -272 87 -225 386c48 300 117 389 348 389zM377 658c-127 0 -168 -64 -202 -277c-33 -212 -12 -274 115 -274s167 62 200 274c34 213 14 277 -113 277z" />
    <glyph glyph-name="one.tf" horiz-adv-x="646" 
d="M371 112h123c10 0 14 -5 12 -15l-13 -82c-1 -10 -7 -15 -17 -15h-375c-10 0 -14 5 -13 15l13 82c2 10 8 15 18 15h128l79 497c7 44 -9 53 -70 53h-60c-12 0 -17 5 -15 15l11 64c1 11 7 15 17 18c29 8 68 11 94 11c75 0 172 -9 152 -128z" />
    <glyph glyph-name="two.tf" horiz-adv-x="646" 
d="M371 770c143 0 269 -20 244 -176l-13 -80c-11 -69 -27 -126 -123 -177l-224 -118c-47 -23 -63 -43 -68 -80l-5 -26h357c6 0 7 -1 6 -6l-16 -101c-1 -5 -3 -6 -7 -6h-494c-21 0 -24 11 -22 28l15 89c13 84 52 125 155 182l248 136c35 20 45 49 52 92l7 48
c11 71 -45 83 -139 83h-190c-8 0 -10 2 -9 9l12 72c2 10 6 13 16 16c72 10 110 15 198 15z" />
    <glyph glyph-name="three.tf" horiz-adv-x="646" 
d="M329 770c221 0 303 -33 277 -196l-5 -33c-11 -70 -41 -139 -117 -158c70 -21 78 -87 67 -157l-5 -30c-26 -164 -115 -201 -340 -201c-62 0 -119 4 -167 11c-12 3 -19 5 -17 15l12 76c1 7 7 10 17 10h170c153 0 186 22 200 107l1 6c11 79 -2 111 -108 111h-186
c-10 0 -12 3 -11 12l13 79c1 9 5 13 15 13h185c106 0 131 30 143 112l2 12c14 85 -22 99 -173 99h-164c-10 0 -14 3 -13 11l12 74c1 10 9 13 21 16c51 8 109 11 171 11z" />
    <glyph glyph-name="four.tf" horiz-adv-x="646" 
d="M247 765h98c12 0 13 -7 8 -18l-198 -445h213l30 189c1 9 6 15 15 18l105 35c11 4 17 2 15 -11l-36 -231h119c11 0 16 -5 14 -14l-13 -83c-2 -11 -8 -15 -19 -15h-120l-27 -175c-1 -10 -7 -15 -17 -15h-99c-10 0 -14 5 -12 15l27 175h-337c-10 0 -14 4 -12 15l8 54
c1 10 6 20 12 34l207 462c4 8 9 10 19 10z" />
    <glyph glyph-name="five.tf" horiz-adv-x="646" 
d="M175 765h452c10 0 15 -5 14 -15l-13 -82c-2 -10 -8 -15 -18 -15h-352l-44 -189c33 3 75 5 98 5c213 0 290 -41 264 -214l-8 -48c-28 -171 -120 -212 -341 -212c-62 0 -141 3 -189 9c-12 3 -18 8 -17 18l12 74c1 8 7 11 17 11h196c144 0 182 27 197 119l2 8
c13 93 -15 123 -160 123h-189c-16 0 -21 5 -19 15l13 78l68 300c1 10 7 15 17 15z" />
    <glyph glyph-name="six.tf" horiz-adv-x="646" 
d="M360 765h107c12 0 14 -8 7 -18l-190 -291c23 6 51 9 83 9c174 0 249 -61 225 -210l-7 -46c-25 -160 -129 -214 -306 -214c-179 0 -268 53 -242 214l7 46c8 49 18 78 39 113l258 387c5 7 11 10 19 10zM336 357c-111 0 -152 -35 -166 -123l-1 -4c-14 -88 17 -123 128 -123
c110 0 149 36 163 123l1 4c14 88 -16 123 -125 123z" />
    <glyph glyph-name="seven.tf" horiz-adv-x="646" 
d="M136 765h514c10 0 15 -4 13 -15l-10 -62c-1 -10 -5 -16 -10 -23l-440 -655c-6 -7 -12 -10 -20 -10h-115c-12 0 -14 8 -7 18l429 635h-372c-11 0 -15 5 -13 14l13 83c2 11 7 15 18 15z" />
    <glyph glyph-name="eight.tf" horiz-adv-x="646" 
d="M387 770h16c169 0 238 -67 215 -209c-14 -90 -54 -144 -128 -183c74 -36 104 -85 90 -176c-22 -140 -121 -207 -301 -207h-18c-183 0 -257 67 -235 211c13 76 66 142 152 186c-62 34 -85 90 -73 167c23 144 112 211 282 211zM384 658h-13c-76 0 -126 -30 -137 -98
c-10 -63 24 -90 75 -110l82 -27c58 30 88 71 97 127c11 72 -21 108 -104 108zM374 308l-101 35c-79 -36 -108 -75 -116 -126c-12 -73 31 -110 124 -110h14c95 0 147 34 157 99c10 66 -32 87 -78 102z" />
    <glyph glyph-name="nine.tf" horiz-adv-x="646" 
d="M386 770c178 0 267 -54 242 -215l-7 -45c-8 -49 -18 -78 -40 -113l-257 -387c-6 -7 -12 -10 -20 -10h-106c-12 0 -14 8 -7 18l190 290c-23 -6 -51 -8 -82 -8c-174 0 -250 61 -226 210l8 46c25 160 127 214 305 214zM369 658c-110 0 -150 -36 -164 -123v-4
c-14 -88 15 -123 124 -123c111 0 153 35 166 123l1 3c14 89 -16 124 -127 124z" />
    <glyph glyph-name="zero.tosf" horiz-adv-x="646" 
d="M361 559c206 0 261 -70 227 -284c-34 -211 -110 -280 -317 -280s-261 69 -227 280c34 214 110 284 317 284zM343 448c-109 0 -152 -43 -173 -173c-20 -126 9 -169 119 -169s153 43 173 169c20 130 -9 173 -119 173z" />
    <glyph glyph-name="one.tosf" horiz-adv-x="646" 
d="M372 112h123c10 0 14 -5 12 -15l-13 -82c-1 -10 -7 -15 -17 -15h-375c-10 0 -14 5 -13 15l13 82c2 10 8 15 18 15h128l45 284c8 44 -9 53 -70 53h-60c-11 0 -16 5 -15 15l11 64c2 11 8 16 18 18c28 8 68 12 94 12c74 0 171 -10 152 -129z" />
    <glyph glyph-name="two.tosf" horiz-adv-x="646" 
d="M340 558c137 0 263 -9 241 -150l-5 -32c-11 -71 -30 -115 -127 -152l-166 -56c-46 -15 -57 -20 -63 -51l-1 -8h312c8 0 10 -3 9 -9l-15 -95c-1 -4 -3 -5 -8 -5h-475c-21 0 -24 10 -22 25l12 80c11 63 35 82 118 110l253 101c32 11 40 32 44 54l2 17c10 60 -48 59 -138 59
h-196c-7 0 -9 2 -8 8l13 77c0 9 5 12 15 14c73 9 116 13 205 13z" />
    <glyph glyph-name="three.tosf" horiz-adv-x="646" 
d="M295 558c222 0 303 -33 278 -195l-6 -30c-10 -70 -40 -137 -116 -157c70 -20 78 -86 68 -154l-5 -28c-26 -162 -115 -199 -340 -199c-61 0 -119 4 -167 12c-12 3 -17 7 -16 18l11 70c2 9 7 13 17 13h164c153 0 192 20 205 103l1 5c12 77 -2 108 -108 108h-186
c-10 0 -12 4 -11 13l13 78c1 9 5 13 15 13h185c106 0 130 30 143 110l1 7c13 83 -22 101 -173 101h-166c-10 0 -12 5 -11 13l12 69c1 12 9 16 21 19c51 7 110 11 171 11z" />
    <glyph glyph-name="four.tosf" horiz-adv-x="646" 
d="M217 553h98c12 0 13 -6 8 -18l-198 -440h213l30 188c2 9 6 15 15 18l105 36c11 3 17 1 15 -12l-36 -230h120c11 0 15 -5 14 -15l-14 -83c-1 -10 -7 -15 -18 -15h-120l-27 -166c-1 -11 -7 -16 -17 -16h-98c-10 0 -14 5 -13 16l26 166h-337c-10 0 -14 5 -12 16l8 53
c1 10 6 20 12 34l206 458c4 8 9 10 20 10z" />
    <glyph glyph-name="five.tosf" horiz-adv-x="646" 
d="M143 553h444c10 0 14 -5 13 -15l-13 -82c-2 -10 -7 -15 -17 -15h-345l-41 -176c32 3 74 4 98 4c213 0 289 -41 263 -213l-7 -48c-29 -172 -120 -213 -342 -213c-61 0 -141 4 -189 10c-12 3 -17 7 -16 18l11 74c2 7 7 11 17 11h196c145 0 183 26 197 118l2 9
c13 92 -14 122 -160 122h-189c-15 0 -20 5 -19 16l12 78l67 287c2 10 8 15 18 15z" />
    <glyph glyph-name="six.tosf" horiz-adv-x="646" 
d="M360 765h107c12 0 14 -8 7 -18l-190 -291c23 6 51 9 83 9c174 0 249 -61 225 -210l-7 -46c-25 -160 -129 -214 -306 -214c-179 0 -268 53 -242 214l7 46c8 49 18 78 39 113l258 387c5 7 11 10 19 10zM336 357c-111 0 -152 -35 -166 -123l-1 -4c-14 -88 17 -123 128 -123
c110 0 149 36 163 123l1 4c14 88 -16 123 -125 123z" />
    <glyph glyph-name="seven.tosf" horiz-adv-x="646" 
d="M102 553h514c10 0 15 -4 13 -15l-10 -62c-2 -10 -5 -16 -11 -23l-435 -643c-5 -7 -11 -10 -19 -10h-114c-12 0 -14 8 -7 18l423 623h-372c-11 0 -16 5 -14 14l13 83c2 11 8 15 19 15z" />
    <glyph glyph-name="eight.tosf" horiz-adv-x="646" 
d="M387 770h16c169 0 238 -67 215 -209c-14 -90 -54 -144 -128 -183c74 -36 104 -85 90 -176c-22 -140 -121 -207 -301 -207h-18c-183 0 -257 67 -235 211c13 76 66 142 152 186c-62 34 -85 90 -73 167c23 144 112 211 282 211zM384 658h-13c-76 0 -126 -30 -137 -98
c-10 -63 24 -90 75 -110l82 -27c58 30 88 71 97 127c11 72 -21 108 -104 108zM374 308l-101 35c-79 -36 -108 -75 -116 -126c-12 -73 31 -110 124 -110h14c95 0 147 34 157 99c10 66 -32 87 -78 102z" />
    <glyph glyph-name="nine.tosf" horiz-adv-x="646" 
d="M354 558c179 0 268 -53 242 -214l-7 -46c-8 -49 -18 -78 -39 -113l-250 -375c-5 -7 -11 -10 -19 -10h-106c-12 0 -14 8 -8 18l182 279c-23 -7 -51 -9 -82 -9c-174 0 -249 61 -226 210l7 46c26 160 129 214 306 214zM336 446c-109 0 -148 -36 -162 -123l-1 -4
c-14 -88 15 -123 124 -123c111 0 153 35 167 123l1 4c14 88 -18 123 -129 123z" />
    <glyph glyph-name="zero.zero" horiz-adv-x="676" 
d="M409 770c231 0 272 -89 224 -389c-47 -299 -116 -386 -347 -386c-230 0 -271 87 -224 386c48 300 117 389 347 389zM392 658c-127 0 -168 -64 -202 -277c-8 -54 -13 -97 -13 -131l333 346c-16 45 -53 62 -118 62zM518 513l-332 -347c17 -43 54 -59 119 -59
c126 0 166 62 200 274c8 54 14 98 13 132z" />
    <glyph glyph-name="zero.osf.zero" horiz-adv-x="640" 
d="M358 559c206 0 261 -70 227 -284c-34 -211 -110 -280 -317 -280s-261 69 -227 280c34 214 110 284 317 284zM340 448c-109 0 -152 -43 -173 -173c-7 -43 -7 -76 -1 -101l251 261c-19 9 -45 13 -77 13zM456 388l-253 -265c19 -12 46 -17 83 -17c110 0 153 43 173 169
c7 51 7 88 -3 113z" />
    <glyph glyph-name="zero.tf.zero" horiz-adv-x="646" 
d="M394 770c231 0 272 -89 224 -389c-47 -299 -116 -386 -347 -386c-230 0 -271 87 -224 386c48 300 117 389 347 389zM377 658c-127 0 -168 -64 -202 -277c-8 -54 -13 -97 -13 -131l333 346c-16 45 -53 62 -118 62zM503 513l-332 -347c17 -43 54 -59 119 -59
c126 0 166 62 200 274c8 54 14 98 13 132z" />
    <glyph glyph-name="zero.tosf.zero" horiz-adv-x="646" 
d="M361 559c206 0 261 -70 227 -284c-34 -211 -110 -280 -317 -280s-261 69 -227 280c34 214 110 284 317 284zM343 448c-109 0 -152 -43 -173 -173c-7 -43 -7 -76 -1 -101l251 261c-19 9 -45 13 -77 13zM459 388l-253 -265c19 -12 46 -17 83 -17c110 0 153 43 173 169
c7 51 7 88 -3 113z" />
    <glyph glyph-name="fraction" unicode="&#x2044;" horiz-adv-x="140" 
d="M313 801h35c10 0 12 -6 5 -17l-480 -805c-8 -12 -15 -17 -25 -17h-37c-10 0 -12 5 -4 17l481 805c7 11 14 17 25 17z" />
    <glyph glyph-name="onehalf" unicode="&#xbd;" horiz-adv-x="847" 
d="M645 801h35c10 0 12 -6 5 -17l-479 -805c-8 -12 -16 -17 -26 -17h-37c-10 0 -12 5 -4 17l481 805c7 11 14 17 25 17zM257 356h-209c-5 0 -8 2 -7 8l8 53c1 5 5 9 10 9h68l39 246c3 25 -10 29 -34 29h-34c-6 0 -8 3 -8 9l7 42c1 6 5 8 10 10c19 4 40 6 55 6
c47 0 95 -8 84 -74l-42 -268h64c5 0 8 -3 7 -9l-8 -54c-1 -5 -5 -7 -10 -7zM678 412c79 0 147 -12 133 -96l-8 -47c-5 -36 -14 -65 -69 -97l-106 -59c-18 -10 -41 -23 -43 -37l-1 -6h189c4 0 5 -1 5 -4l-10 -62c-1 -3 -2 -4 -5 -4h-270c-11 0 -13 6 -12 15l7 47
c8 45 29 64 83 96l118 70c27 16 33 31 37 54l2 14c6 38 -15 46 -64 46h-106c-5 0 -6 2 -6 7l7 44c1 7 5 9 11 11c31 5 70 8 108 8z" />
    <glyph glyph-name="onequarter" unicode="&#xbc;" horiz-adv-x="872" 
d="M647 801h35c10 0 12 -6 5 -17l-479 -805c-8 -12 -16 -17 -26 -17h-37c-10 0 -12 5 -4 17l481 805c7 11 14 17 25 17zM264 356h-209c-5 0 -8 2 -7 8l8 53c1 5 5 9 10 9h68l39 246c3 25 -10 29 -34 29h-34c-6 0 -8 3 -8 9l7 42c1 6 5 8 10 10c19 4 40 6 55 6
c47 0 95 -8 84 -74l-42 -268h64c5 0 8 -3 7 -9l-8 -54c-1 -5 -5 -7 -10 -7zM755 170h60c6 0 8 -3 7 -7l-8 -55c-1 -6 -4 -7 -10 -7h-60l-15 -92c-1 -6 -3 -9 -9 -9h-65c-5 0 -7 3 -6 9l15 92h-179c-5 0 -7 1 -6 7l5 38c1 5 4 11 7 18l106 240c2 4 5 6 10 6h65
c6 0 7 -4 4 -10l-101 -230h100l14 94c1 4 4 8 8 9l68 22c6 2 10 1 9 -6z" />
    <glyph glyph-name="threequarters" unicode="&#xbe;" horiz-adv-x="912" 
d="M692 801h35c10 0 12 -6 5 -17l-480 -805c-8 -12 -15 -17 -25 -17h-37c-10 0 -12 5 -4 17l481 805c7 11 14 17 25 17zM238 768c84 0 143 -17 130 -103l-5 -23c-5 -34 -24 -71 -75 -81c48 -9 55 -48 50 -81l-4 -24c-14 -87 -79 -103 -162 -103c-41 0 -84 3 -115 9
c-7 1 -10 4 -9 12l7 42c0 5 4 7 9 7h96c64 0 90 6 95 46l2 12c7 34 -14 48 -70 48h-82c-5 0 -7 2 -6 7l8 48c0 5 3 7 8 7h82c55 0 80 10 86 49l2 12c6 38 -18 46 -82 46h-96c-5 0 -7 2 -7 7l8 43c1 7 5 10 11 11c33 6 79 9 119 9zM649 410h64c7 0 8 -4 5 -10l-102 -230h100
l15 94c1 4 3 8 8 9l68 22c6 2 9 1 9 -6l-19 -119h59c6 0 9 -3 8 -7l-9 -55c-1 -6 -4 -7 -10 -7h-59l-15 -92c-1 -6 -4 -9 -10 -9h-64c-5 0 -7 3 -6 9l14 92h-179c-5 0 -7 1 -6 7l6 38c1 5 3 11 7 18l106 240c2 4 5 6 10 6z" />
    <glyph glyph-name="oneeighth" unicode="&#x215b;" horiz-adv-x="862" 
d="M652 801h35c10 0 12 -6 5 -17l-479 -805c-8 -12 -16 -17 -26 -17h-37c-10 0 -12 5 -4 17l481 805c7 11 14 17 25 17zM163 768c47 0 94 -8 84 -74l-42 -268h64c5 0 8 -3 7 -9l-8 -54c-2 -5 -5 -7 -10 -7h-209c-6 0 -9 2 -7 8l8 53c1 5 4 9 10 9h67l39 246
c4 25 -10 29 -33 29h-34c-6 0 -8 3 -8 9l7 42c1 6 5 8 10 10c18 4 40 6 55 6zM690 412h9c94 0 133 -35 121 -112c-8 -50 -30 -77 -70 -98c42 -17 58 -45 51 -93c-12 -76 -66 -112 -168 -112h-10c-100 0 -145 36 -133 111c7 47 32 80 85 102c-39 18 -47 47 -40 91
c11 76 62 111 155 111zM687 342h-7c-37 0 -60 -16 -65 -50c-5 -29 10 -40 34 -47l47 -11c25 13 37 33 41 57c5 33 -10 51 -50 51zM684 166l-56 14c-33 -12 -50 -31 -54 -58c-6 -37 15 -55 62 -55h6c48 0 73 16 78 49c5 28 -7 43 -36 50z" />
    <glyph glyph-name="threeeighths" unicode="&#x215c;" horiz-adv-x="900" 
d="M677 801h35c10 0 12 -6 5 -17l-480 -805c-8 -12 -15 -17 -25 -17h-37c-10 0 -12 5 -4 17l481 805c7 11 14 17 25 17zM233 768c83 0 143 -17 129 -103l-4 -23c-5 -34 -25 -71 -75 -81c47 -9 54 -48 50 -81l-4 -24c-14 -87 -79 -103 -162 -103c-41 0 -85 3 -116 9
c-6 1 -10 4 -8 12l6 42c1 5 4 7 9 7h96c64 0 90 6 96 46l2 12c6 34 -15 48 -70 48h-82c-6 0 -7 2 -7 7l8 48c1 5 3 7 9 7h81c55 0 80 10 87 49l1 12c6 38 -18 46 -82 46h-96c-5 0 -7 2 -6 7l7 43c1 7 5 10 11 11c33 6 79 9 120 9zM729 412h9c94 0 132 -35 120 -112
c-8 -50 -30 -77 -70 -98c42 -17 59 -45 51 -93c-12 -76 -66 -112 -168 -112h-10c-100 0 -144 36 -132 111c7 47 32 80 84 102c-38 18 -47 47 -40 91c12 76 62 111 156 111zM725 342h-7c-37 0 -60 -16 -65 -50c-5 -29 10 -40 35 -47l47 -11c25 13 36 33 40 57
c5 33 -10 51 -50 51zM723 166l-57 14c-32 -12 -49 -31 -54 -58c-6 -37 16 -55 62 -55h7c47 0 73 16 78 49c4 28 -7 43 -36 50z" />
    <glyph glyph-name="fiveeighths" unicode="&#x215d;" horiz-adv-x="894" 
d="M687 801h35c10 0 11 -6 5 -17l-480 -805c-8 -12 -15 -17 -25 -17h-37c-10 0 -12 5 -4 17l481 805c7 11 14 17 25 17zM130 765h240c5 0 8 -3 7 -8l-8 -54c-2 -6 -5 -8 -10 -8h-178l-21 -90c17 3 46 4 59 4c88 0 142 -20 128 -109l-6 -38c-14 -89 -72 -109 -177 -109
c-41 0 -78 2 -109 8c-6 1 -10 4 -9 11l8 44c0 5 4 7 9 7h108c57 0 85 7 92 49l2 16c6 43 -19 51 -77 51h-102c-10 0 -12 4 -11 10l7 48l38 160c2 5 4 8 10 8zM722 412h9c94 0 133 -35 121 -112c-8 -50 -30 -77 -70 -98c42 -17 58 -45 51 -93c-12 -76 -66 -112 -168 -112h-10
c-100 0 -145 36 -133 111c7 47 33 80 85 102c-39 18 -47 47 -40 91c11 76 62 111 155 111zM719 342h-7c-37 0 -60 -16 -65 -50c-5 -29 10 -40 34 -47l47 -11c25 13 37 33 41 57c5 33 -10 51 -50 51zM717 166l-57 14c-33 -12 -50 -31 -54 -58c-6 -37 15 -55 62 -55h6
c48 0 73 16 78 49c5 28 -7 43 -35 50z" />
    <glyph glyph-name="seveneighths" unicode="&#x215e;" horiz-adv-x="840" 
d="M611 801h34c10 0 12 -6 5 -17l-479 -805c-8 -12 -16 -17 -26 -17h-37c-10 0 -12 5 -4 17l482 805c7 11 13 17 25 17zM105 765h281c6 0 9 -2 7 -8l-6 -41c-1 -5 -3 -9 -5 -12l-234 -343c-2 -4 -5 -5 -10 -5h-75c-6 0 -8 4 -4 9l226 330h-190c-7 0 -9 2 -8 7l8 55
c2 6 4 8 10 8zM667 412h9c94 0 133 -35 120 -112c-7 -50 -29 -77 -70 -98c43 -17 59 -45 51 -93c-12 -76 -66 -112 -167 -112h-10c-100 0 -145 36 -133 111c7 47 32 80 85 102c-39 18 -48 47 -41 91c12 76 62 111 156 111zM663 342h-6c-37 0 -60 -16 -66 -50
c-4 -29 11 -40 35 -47l47 -11c25 13 37 33 41 57c4 33 -10 51 -51 51zM661 166l-56 14c-33 -12 -50 -31 -55 -58c-5 -37 16 -55 62 -55h7c48 0 73 16 78 49c5 28 -7 43 -36 50z" />
    <glyph glyph-name="zero.dnom" horiz-adv-x="385" 
d="M207 412c126 0 149 -47 123 -208c-25 -160 -63 -207 -188 -207s-149 47 -124 207c26 161 64 208 189 208zM196 342c-61 0 -81 -32 -97 -138c-17 -106 -7 -137 54 -137s80 31 97 137s7 138 -54 138z" />
    <glyph glyph-name="one.dnom" horiz-adv-x="276" 
d="M147 70h64c5 0 9 -3 8 -8l-9 -54c-1 -5 -5 -8 -10 -8h-208c-6 0 -9 3 -8 8l9 54c1 5 4 8 10 8h67l39 246c4 25 -10 30 -34 30h-34c-6 0 -8 2 -7 8l7 42c1 6 4 9 10 11c18 4 39 5 55 5c46 0 94 -7 84 -73z" />
    <glyph glyph-name="two.dnom" horiz-adv-x="350" 
d="M176 412c79 0 147 -12 133 -96l-7 -47c-6 -36 -14 -65 -70 -97l-106 -59c-18 -10 -41 -23 -43 -37l-1 -6h189c4 0 5 -1 5 -4l-10 -62c-1 -3 -2 -4 -5 -4h-270c-11 0 -13 6 -12 15l8 47c7 45 28 64 82 96l118 70c27 16 33 31 37 54l2 14c6 38 -15 46 -64 46h-106
c-5 0 -6 2 -6 7l7 44c1 7 5 9 11 11c31 5 70 8 108 8z" />
    <glyph glyph-name="three.dnom" horiz-adv-x="346" 
d="M176 412c83 0 143 -17 129 -103l-3 -23c-6 -33 -25 -71 -76 -81c48 -8 55 -48 50 -81l-4 -24c-14 -86 -78 -103 -161 -103c-41 0 -86 4 -117 9c-6 1 -10 4 -8 12l7 42c1 5 3 7 8 7h97c63 0 90 7 96 46l2 13c5 33 -15 47 -71 47h-82c-6 0 -7 3 -6 8l7 48c1 5 3 7 9 7h82
c55 0 80 10 86 49l2 11c6 39 -18 46 -82 46h-96c-5 0 -7 2 -6 7l6 43c1 7 6 10 12 11c33 6 78 9 119 9z" />
    <glyph glyph-name="four.dnom" horiz-adv-x="379" 
d="M119 410h64c7 0 8 -4 5 -10l-101 -230h100l14 94c1 4 4 8 8 9l68 22c6 2 10 1 9 -6l-19 -119h60c6 0 8 -3 7 -7l-8 -55c-1 -6 -4 -7 -10 -7h-60l-15 -92c-1 -6 -4 -9 -9 -9h-65c-5 0 -7 3 -6 9l15 92h-179c-5 0 -8 1 -7 7l6 38c1 5 3 11 7 18l106 240c2 4 5 6 10 6z" />
    <glyph glyph-name="five.dnom" horiz-adv-x="353" 
d="M73 410h240c5 0 8 -3 8 -8l-9 -55c-1 -5 -5 -8 -10 -8h-178l-20 -90c17 3 46 5 59 5c88 0 142 -20 128 -110l-6 -37c-14 -90 -72 -110 -176 -110c-42 0 -80 2 -111 8c-5 2 -9 4 -7 11l7 45c1 4 4 6 9 6h107c58 0 85 8 92 49l2 16c7 43 -18 51 -75 51h-102
c-10 0 -14 4 -13 11l8 48l37 159c2 6 5 9 10 9z" />
    <glyph glyph-name="six.dnom" horiz-adv-x="353" 
d="M167 410h69c7 0 8 -5 4 -11l-102 -156c13 4 33 6 48 6c74 0 127 -27 116 -98l-9 -54c-12 -77 -72 -100 -163 -100c-90 0 -147 23 -135 105l7 44c4 22 9 37 19 53l136 205c3 3 7 6 10 6zM159 183c-52 0 -72 -8 -79 -49l-2 -17c-6 -40 11 -50 63 -50c49 0 69 10 75 50l3 17
c6 41 -11 49 -60 49z" />
    <glyph glyph-name="seven.dnom" horiz-adv-x="339" 
d="M43 410h281c5 0 7 -3 7 -8l-7 -42c0 -5 -3 -8 -5 -12l-234 -342c-2 -4 -6 -6 -10 -6h-75c-6 0 -8 4 -4 9l226 330h-190c-7 0 -9 3 -8 7l9 56c0 5 3 8 10 8z" />
    <glyph glyph-name="eight.dnom" horiz-adv-x="375" 
d="M198 412h9c94 0 133 -35 121 -112c-8 -50 -30 -77 -70 -98c42 -17 58 -45 51 -93c-12 -76 -66 -112 -168 -112h-10c-100 0 -145 36 -133 111c7 47 33 80 85 102c-39 18 -47 47 -40 91c11 76 62 111 155 111zM195 342h-7c-37 0 -60 -16 -65 -50c-5 -29 10 -40 34 -47
l47 -11c25 13 37 33 41 57c5 33 -10 51 -50 51zM193 166l-57 14c-33 -12 -50 -31 -54 -58c-6 -37 15 -55 62 -55h6c48 0 73 16 78 49c5 28 -7 43 -35 50z" />
    <glyph glyph-name="nine.dnom" horiz-adv-x="353" 
d="M187 412c90 0 146 -23 135 -105l-8 -44c-4 -22 -9 -37 -19 -52l-136 -205c-3 -4 -6 -6 -10 -6h-69c-7 0 -8 4 -4 10l103 156c-14 -4 -34 -5 -48 -5c-74 0 -127 25 -116 98l8 53c13 78 73 100 164 100zM175 341c-49 0 -69 -8 -75 -49l-2 -17c-7 -40 9 -49 59 -49
c51 0 72 9 79 49l3 17c6 41 -13 49 -64 49z" />
    <glyph glyph-name="zero.numr" horiz-adv-x="385" 
d="M264 768c125 0 148 -48 123 -208s-64 -207 -190 -207c-125 0 -147 47 -122 207s64 208 189 208zM252 698c-61 0 -80 -32 -97 -138c-16 -106 -7 -137 54 -137s81 31 97 137c17 106 7 138 -54 138z" />
    <glyph glyph-name="one.numr" horiz-adv-x="276" 
d="M204 426h64c5 0 8 -3 7 -9l-8 -54c-1 -5 -5 -7 -10 -7h-209c-5 0 -8 2 -7 8l8 53c1 5 5 9 10 9h68l38 246c4 25 -9 29 -33 29h-34c-6 0 -8 3 -8 9l7 42c1 6 5 8 10 10c19 4 40 6 55 6c47 0 94 -8 84 -74z" />
    <glyph glyph-name="two.numr" horiz-adv-x="350" 
d="M233 768c78 0 145 -13 133 -96l-8 -47c-6 -37 -14 -65 -69 -98l-106 -58c-19 -10 -41 -23 -43 -37l-1 -6h189c4 0 5 -1 5 -4l-11 -62c0 -3 -2 -4 -5 -4h-269c-11 0 -13 6 -12 15l7 46c7 46 28 65 82 97l119 70c27 15 32 31 35 54l3 14c6 37 -15 46 -64 46h-106
c-5 0 -6 2 -5 7l7 43c1 8 4 10 11 12c30 5 69 8 108 8z" />
    <glyph glyph-name="three.numr" horiz-adv-x="346" 
d="M233 768c83 0 142 -17 129 -103l-4 -23c-5 -34 -25 -71 -76 -81c48 -9 55 -48 50 -81l-3 -24c-15 -87 -80 -103 -163 -103c-41 0 -84 3 -115 9c-7 1 -10 4 -9 12l7 42c1 5 4 7 9 7h96c64 0 90 6 96 46l2 12c6 34 -15 48 -71 48h-82c-5 0 -7 2 -6 7l8 48c0 5 3 7 8 7h82
c55 0 80 10 86 49l2 12c6 38 -18 46 -82 46h-96c-5 0 -7 2 -7 7l8 43c1 7 5 10 11 11c33 6 79 9 120 9z" />
    <glyph glyph-name="four.numr" horiz-adv-x="379" 
d="M175 765h65c6 0 7 -3 4 -9l-101 -230h100l15 93c0 5 3 8 7 10l68 22c7 2 10 1 9 -6l-18 -119h59c6 0 8 -3 8 -8l-9 -54c-1 -6 -4 -8 -10 -8h-59l-15 -92c-1 -6 -4 -8 -10 -8h-64c-5 0 -8 2 -7 8l15 92h-179c-5 0 -7 2 -7 8l6 37c1 6 4 12 8 18l106 241c2 4 4 5 9 5z" />
    <glyph glyph-name="five.numr" horiz-adv-x="353" 
d="M130 765h240c5 0 8 -3 7 -8l-8 -54c-2 -6 -5 -8 -10 -8h-178l-20 -90c16 3 45 4 58 4c88 0 142 -20 128 -109l-6 -38c-14 -89 -72 -109 -177 -109c-41 0 -78 2 -109 8c-6 1 -9 4 -8 11l7 44c1 5 4 7 9 7h108c57 0 85 7 92 49l2 16c6 43 -19 51 -77 51h-102
c-9 0 -12 4 -11 10l8 48l37 160c2 5 4 8 10 8z" />
    <glyph glyph-name="six.numr" horiz-adv-x="353" 
d="M223 765h70c6 0 8 -4 4 -10l-103 -156c13 3 33 5 48 5c75 0 127 -26 116 -98l-9 -53c-12 -78 -72 -100 -164 -100c-90 0 -145 22 -134 104l8 45c3 22 9 36 18 52l137 206c2 3 6 5 9 5zM215 539c-51 0 -72 -9 -78 -49l-2 -17c-7 -40 11 -50 62 -50c50 0 69 10 76 50l2 17
c7 40 -10 49 -60 49z" />
    <glyph glyph-name="seven.numr" horiz-adv-x="339" 
d="M99 765h281c5 0 8 -2 7 -8l-6 -41c-2 -5 -3 -9 -6 -12l-234 -343c-2 -4 -5 -5 -9 -5h-76c-6 0 -7 4 -4 9l226 330h-190c-6 0 -9 2 -8 7l9 55c1 6 4 8 10 8z" />
    <glyph glyph-name="eight.numr" horiz-adv-x="375" 
d="M255 768h9c94 0 132 -36 120 -112c-8 -51 -30 -78 -71 -99c43 -16 60 -44 52 -93c-12 -75 -67 -111 -168 -111h-10c-100 0 -144 36 -132 110c7 48 32 81 84 103c-38 18 -47 47 -40 91c12 75 62 111 156 111zM251 698h-7c-37 0 -59 -16 -65 -50c-5 -30 11 -41 35 -48
l47 -10c25 12 37 33 40 56c5 33 -10 52 -50 52zM249 521l-56 14c-33 -12 -50 -31 -55 -58c-5 -37 16 -54 62 -54h7c47 0 72 15 78 48c5 29 -7 43 -36 50z" />
    <glyph glyph-name="nine.numr" horiz-adv-x="353" 
d="M242 767c91 0 147 -22 135 -104l-7 -45c-4 -22 -9 -36 -20 -51l-136 -206c-3 -4 -6 -5 -10 -5h-68c-7 0 -8 4 -5 9l104 157c-15 -4 -35 -5 -49 -5c-74 0 -127 25 -115 98l8 52c12 78 72 100 163 100zM231 697c-49 0 -69 -9 -75 -49l-3 -18c-7 -40 10 -49 59 -49
c52 0 73 9 79 49l3 18c6 40 -12 49 -63 49z" />
    <glyph glyph-name="uni24EA" unicode="&#x24ea;" horiz-adv-x="800" 
d="M468 749c244 0 346 -129 308 -366c-38 -238 -185 -365 -424 -365c-238 0 -346 127 -308 365c38 239 186 366 424 366zM460 698c-209 0 -332 -105 -365 -315c-33 -209 56 -314 266 -314c209 0 331 105 364 314s-51 315 -265 315zM443 590c125 0 148 -48 123 -208
s-64 -208 -190 -208c-125 0 -147 48 -122 208s64 208 189 208zM432 519c-61 0 -81 -31 -98 -137c-16 -106 -7 -137 54 -137s81 31 97 137c17 106 8 137 -53 137z" />
    <glyph glyph-name="uni2460" unicode="&#x2460;" horiz-adv-x="800" 
d="M468 749c239 0 345 -125 307 -366c-38 -238 -185 -365 -423 -365c-239 0 -346 127 -308 365c38 239 185 366 424 366zM460 698c-210 0 -332 -105 -365 -315c-33 -209 55 -314 265 -314s331 105 364 314c34 211 -54 315 -264 315zM403 589c47 0 95 -8 84 -74l-42 -268h64
c5 0 9 -3 7 -9l-8 -54c-1 -5 -5 -7 -10 -7h-209c-5 0 -8 2 -7 8l8 53c1 5 4 9 10 9h67l39 246c4 25 -9 29 -33 29h-34c-6 0 -8 3 -7 9l7 42c1 6 4 8 9 10c18 4 40 6 55 6z" />
    <glyph glyph-name="uni2461" unicode="&#x2461;" horiz-adv-x="800" 
d="M468 749c243 0 345 -129 307 -366c-38 -238 -185 -365 -423 -365c-239 0 -346 127 -308 365c38 239 185 366 424 366zM460 698c-210 0 -332 -105 -365 -315c-33 -209 55 -314 265 -314s331 105 364 314s-52 315 -264 315zM433 589c78 0 145 -13 132 -96l-7 -47
c-6 -37 -14 -65 -69 -98l-106 -58c-19 -10 -41 -23 -44 -37l-1 -6h189c4 0 5 -1 5 -4l-10 -62c0 -3 -2 -4 -5 -4h-270c-11 0 -13 6 -12 15l8 46c7 46 27 65 82 97l118 70c28 15 33 31 36 54l3 14c6 37 -15 46 -64 46h-106c-5 0 -6 2 -6 7l7 43c1 8 5 10 12 12
c30 5 69 8 108 8z" />
    <glyph glyph-name="uni2462" unicode="&#x2462;" horiz-adv-x="800" 
d="M468 749c239 0 345 -129 307 -366c-38 -238 -185 -365 -423 -365c-239 0 -346 127 -308 365c38 239 185 366 424 366zM460 698c-210 0 -332 -105 -365 -315c-33 -209 55 -314 265 -314s331 105 364 314s-54 315 -264 315zM434 589c83 0 142 -17 128 -103l-3 -23
c-5 -34 -25 -71 -75 -81c47 -9 54 -48 50 -81l-5 -24c-13 -87 -78 -103 -161 -103c-41 0 -85 3 -116 9c-6 1 -10 4 -8 12l6 42c1 5 4 7 9 7h96c64 0 89 6 96 46l2 12c6 34 -16 48 -71 48h-82c-6 0 -6 2 -6 7l8 48c1 5 2 7 8 7h82c54 0 80 10 87 49l1 12c6 38 -18 46 -82 46
h-96c-5 0 -7 2 -6 7l6 43c2 7 6 10 12 11c33 6 79 9 120 9z" />
    <glyph glyph-name="uni2463" unicode="&#x2463;" horiz-adv-x="800" 
d="M468 749c239 0 345 -129 307 -366c-38 -238 -185 -365 -423 -365c-239 0 -346 127 -308 365c38 239 185 366 424 366zM460 698c-210 0 -332 -105 -365 -315c-33 -209 55 -314 265 -314s331 105 364 314s-54 315 -264 315zM356 586h64c7 0 8 -3 4 -9l-100 -230h99l15 93
c0 5 3 8 8 10l68 22c6 2 9 1 8 -6l-18 -119h59c6 0 8 -3 8 -8l-9 -54c-1 -6 -4 -8 -10 -8h-59l-15 -92c-1 -6 -4 -8 -9 -8h-65c-5 0 -8 2 -6 8l14 92h-179c-4 0 -7 2 -6 8l6 37c1 6 3 12 6 18l107 241c2 4 4 5 10 5z" />
    <glyph glyph-name="uni2464" unicode="&#x2464;" horiz-adv-x="800" 
d="M468 749c239 0 345 -129 307 -366c-38 -238 -185 -365 -423 -365c-239 0 -346 127 -308 365c38 239 185 366 424 366zM460 698c-210 0 -332 -105 -365 -315c-33 -209 55 -314 265 -314s331 105 364 314s-54 315 -264 315zM322 586h240c5 0 8 -3 7 -8l-8 -54
c-1 -6 -5 -8 -10 -8h-178l-20 -90c17 3 46 4 58 4c88 0 143 -20 129 -109l-7 -38c-14 -89 -72 -109 -176 -109c-42 0 -79 2 -110 8c-5 1 -9 4 -8 11l8 44c0 5 3 7 8 7h108c57 0 85 7 91 49l3 16c7 43 -19 51 -76 51h-102c-10 0 -13 4 -12 10l8 48l38 160c1 5 4 8 9 8z" />
    <glyph glyph-name="uni2465" unicode="&#x2465;" horiz-adv-x="800" 
d="M468 749c239 0 345 -129 307 -366c-38 -238 -185 -365 -423 -365c-239 0 -346 127 -308 365c38 239 185 366 424 366zM460 698c-210 0 -332 -105 -365 -315c-33 -209 55 -314 265 -314s331 105 364 314s-54 315 -264 315zM416 586h69c6 0 8 -4 4 -10l-102 -156
c13 3 33 5 48 5c74 0 127 -26 115 -98l-8 -53c-12 -78 -73 -100 -164 -100c-90 0 -146 22 -134 104l7 45c4 22 9 36 19 52l136 206c3 3 6 5 10 5zM407 360c-51 0 -71 -9 -78 -49l-3 -17c-6 -40 12 -50 63 -50c50 0 70 10 76 50l3 17c6 40 -11 49 -61 49z" />
    <glyph glyph-name="uni2466" unicode="&#x2466;" horiz-adv-x="800" 
d="M468 749c239 0 345 -129 307 -366c-38 -238 -185 -365 -423 -365c-239 0 -346 127 -308 365c38 239 185 366 424 366zM460 698c-210 0 -332 -105 -365 -315c-33 -209 55 -314 265 -314s331 105 364 314s-54 315 -264 315zM302 586h281c5 0 8 -2 6 -8l-6 -41
c-1 -5 -3 -9 -6 -12l-233 -343c-2 -4 -5 -5 -10 -5h-75c-6 0 -8 4 -4 9l226 330h-190c-7 0 -9 2 -8 7l8 55c2 6 4 8 11 8z" />
    <glyph glyph-name="uni2467" unicode="&#x2467;" horiz-adv-x="800" 
d="M468 749c239 0 345 -129 307 -366c-38 -238 -185 -365 -423 -365c-239 0 -346 127 -308 365c38 239 185 366 424 366zM460 698c-210 0 -332 -105 -365 -315c-33 -209 55 -314 265 -314s331 105 364 314s-54 315 -264 315zM440 589h9c94 0 132 -36 120 -112
c-8 -51 -30 -78 -71 -99c42 -16 59 -44 52 -93c-12 -75 -67 -111 -169 -111h-10c-100 0 -144 36 -132 110c7 48 33 81 85 103c-39 18 -48 47 -41 91c12 75 63 111 157 111zM434 519h-7c-37 0 -59 -16 -65 -50c-4 -30 11 -41 35 -48l47 -10c25 12 37 33 40 56
c6 33 -10 52 -50 52zM434 342l-57 14c-32 -12 -50 -31 -54 -58c-6 -37 15 -54 62 -54h6c48 0 73 15 78 48c5 29 -6 43 -35 50z" />
    <glyph glyph-name="uni2468" unicode="&#x2468;" horiz-adv-x="800" 
d="M468 749c239 0 345 -129 307 -366c-38 -238 -185 -365 -423 -365c-239 0 -346 127 -308 365c38 239 185 366 424 366zM460 698c-210 0 -332 -105 -365 -315c-33 -209 55 -314 265 -314s331 105 364 314s-54 315 -264 315zM440 588c91 0 147 -22 135 -104l-7 -45
c-4 -22 -9 -36 -19 -51l-137 -206c-2 -4 -5 -5 -9 -5h-69c-7 0 -8 4 -4 9l102 157c-13 -4 -33 -5 -47 -5c-75 0 -128 25 -116 98l8 52c12 78 72 100 163 100zM430 518c-50 0 -69 -9 -76 -49l-2 -18c-7 -40 9 -49 59 -49c51 0 72 9 79 49l2 18c7 40 -11 49 -62 49z" />
    <glyph glyph-name="uni24FF" unicode="&#x24ff;" horiz-adv-x="800" 
d="M353 23c-224 0 -322 116 -287 340c36 224 171 340 395 340c226 0 321 -117 286 -340c-35 -224 -170 -340 -394 -340zM439 570c-125 0 -163 -48 -188 -208c-26 -160 -3 -208 122 -208c126 0 164 48 190 208c25 160 2 208 -124 208zM428 499c61 0 71 -31 54 -137
s-36 -137 -97 -137s-71 31 -54 137s36 137 97 137z" />
    <glyph glyph-name="uni2776" unicode="&#x2776;" horiz-adv-x="800" 
d="M461 703c225 0 321 -117 286 -340c-36 -224 -170 -340 -394 -340s-322 116 -287 340c36 224 171 340 395 340zM399 569c-15 0 -36 -2 -54 -6c-5 -2 -9 -4 -10 -10l-6 -42c-2 -6 1 -9 7 -9h34c24 0 37 -4 33 -29l-39 -246h-67c-6 0 -9 -4 -10 -9l-9 -53c0 -6 2 -8 8 -8
h209c5 0 9 2 9 7l9 54c2 6 -2 9 -7 9h-64l42 268c11 66 -38 74 -85 74z" />
    <glyph glyph-name="uni2777" unicode="&#x2777;" horiz-adv-x="800" 
d="M461 703c225 0 321 -117 286 -340c-36 -224 -170 -340 -394 -340s-322 116 -287 340c36 224 171 340 395 340zM429 569c-39 0 -77 -3 -108 -8c-7 -2 -10 -4 -11 -12l-7 -43c0 -5 1 -7 6 -7h106c49 0 69 -9 63 -46l-2 -14c-3 -23 -9 -39 -36 -54l-118 -70
c-55 -32 -75 -51 -82 -97l-8 -46c-2 -9 1 -15 12 -15h270c3 0 5 1 5 4l9 62c1 3 0 4 -4 4h-189l1 6c2 14 25 27 43 37l107 58c55 33 63 61 69 98l7 47c13 83 -55 96 -133 96z" />
    <glyph glyph-name="uni2778" unicode="&#x2778;" horiz-adv-x="800" 
d="M461 703c225 0 321 -117 286 -340c-36 -224 -170 -340 -394 -340s-322 116 -287 340c36 224 171 340 395 340zM430 569c-41 0 -86 -3 -119 -9c-6 -1 -10 -4 -12 -11l-6 -43c-1 -5 1 -7 6 -7h96c64 0 88 -8 82 -46l-2 -12c-6 -39 -32 -49 -86 -49h-82c-6 0 -7 -2 -8 -7
l-8 -48c0 -5 0 -7 6 -7h82c55 0 77 -14 71 -48l-2 -12c-7 -40 -32 -46 -96 -46h-97c-4 0 -7 -2 -8 -7l-7 -42c-1 -8 2 -11 8 -12c32 -6 76 -9 117 -9c83 0 148 16 161 103l5 24c4 33 -3 72 -50 81c50 10 70 47 75 81l3 23c14 86 -46 103 -129 103z" />
    <glyph glyph-name="uni2779" unicode="&#x2779;" horiz-adv-x="800" 
d="M461 703c225 0 321 -117 286 -340c-36 -224 -170 -340 -394 -340s-322 116 -287 340c36 224 171 340 395 340zM417 566h-64c-6 0 -8 -1 -11 -5l-106 -241c-3 -6 -6 -12 -6 -18l-6 -37c-2 -6 1 -8 5 -8h179l-14 -92c-1 -6 2 -8 7 -8h64c6 0 9 2 9 8l15 92h59
c6 0 10 2 11 8l9 54c0 5 -3 8 -9 8h-59l19 119c1 7 -2 8 -8 6l-68 -22c-5 -2 -8 -5 -8 -10l-16 -93h-99l101 230c4 6 3 9 -4 9z" />
    <glyph glyph-name="uni277A" unicode="&#x277a;" horiz-adv-x="800" 
d="M461 703c225 0 321 -117 286 -340c-36 -224 -170 -340 -394 -340s-322 116 -287 340c36 224 171 340 395 340zM559 566h-240c-5 0 -8 -3 -9 -8l-38 -160l-8 -48c-1 -6 2 -10 12 -10h102c57 0 83 -8 76 -51l-3 -16c-6 -42 -34 -49 -91 -49h-108c-5 0 -8 -2 -9 -7l-7 -44
c-1 -7 3 -10 8 -11c31 -6 68 -8 110 -8c104 0 162 20 176 109l6 38c15 89 -40 109 -128 109c-12 0 -42 -1 -58 -4l20 90h178c5 0 9 2 10 8l8 54c1 5 -2 8 -7 8z" />
    <glyph glyph-name="uni277B" unicode="&#x277b;" horiz-adv-x="800" 
d="M461 703c225 0 321 -117 286 -340c-36 -224 -170 -340 -394 -340s-322 116 -287 340c36 224 171 340 395 340zM482 566h-69c-4 0 -7 -2 -10 -5l-136 -206c-10 -16 -15 -30 -19 -52l-7 -45c-12 -82 44 -104 134 -104c91 0 151 22 164 100l8 53c12 72 -42 98 -116 98
c-15 0 -34 -2 -47 -5l102 156c4 6 2 10 -4 10zM404 340c50 0 67 -9 61 -49l-3 -17c-6 -40 -27 -50 -76 -50c-52 0 -69 10 -63 50l3 17c7 40 27 49 78 49z" />
    <glyph glyph-name="uni277C" unicode="&#x277c;" horiz-adv-x="800" 
d="M461 703c225 0 321 -117 286 -340c-36 -224 -170 -340 -394 -340s-322 116 -287 340c36 224 171 340 395 340zM580 566h-281c-7 0 -9 -2 -11 -8l-8 -55c-1 -5 1 -7 8 -7h190l-227 -330c-3 -5 -1 -9 5 -9h75c4 0 8 1 10 5l233 343c3 3 5 7 6 12l6 41c2 6 -1 8 -6 8z" />
    <glyph glyph-name="uni277D" unicode="&#x277d;" horiz-adv-x="800" 
d="M461 703c225 0 321 -117 286 -340c-36 -224 -170 -340 -394 -340s-322 116 -287 340c36 224 171 340 395 340zM445 569h-9c-94 0 -144 -36 -156 -111c-7 -44 2 -73 41 -91c-53 -22 -78 -55 -85 -103c-12 -74 32 -110 132 -110h10c102 0 157 36 168 111c8 49 -9 77 -51 93
c40 21 63 48 71 99c12 76 -27 112 -121 112zM424 499h7c40 0 55 -19 50 -52c-3 -23 -15 -44 -40 -56l-47 10c-24 7 -39 18 -35 48c5 34 28 50 65 50zM374 336l56 -14c29 -7 40 -21 36 -50c-5 -33 -31 -48 -78 -48h-7c-46 0 -67 17 -61 54c4 27 22 46 54 58z" />
    <glyph glyph-name="uni277E" unicode="&#x277e;" horiz-adv-x="800" 
d="M461 703c225 0 321 -117 286 -340c-36 -224 -170 -340 -394 -340s-322 116 -287 340c36 224 171 340 395 340zM437 568c-91 0 -151 -22 -163 -100l-9 -52c-11 -73 42 -98 117 -98c14 0 33 1 47 5l-103 -157c-3 -5 -2 -9 5 -9h68c5 0 8 1 10 5l137 206c10 15 15 29 19 51
l7 45c12 82 -44 104 -135 104zM427 498c51 0 69 -9 62 -49l-2 -18c-7 -40 -28 -49 -79 -49c-50 0 -66 9 -59 49l2 18c6 40 26 49 76 49z" />
    <glyph glyph-name="zerosuperior" unicode="&#x2070;" horiz-adv-x="385" 
d="M287 922c125 0 149 -48 123 -208c-25 -160 -63 -207 -189 -207c-125 0 -148 47 -123 207c26 160 64 208 189 208zM276 852c-61 0 -80 -32 -98 -138c-16 -106 -7 -137 54 -137s81 31 97 137c18 106 8 138 -53 138z" />
    <glyph glyph-name="onesuperior" unicode="&#xb9;" horiz-adv-x="276" 
d="M228 580h64c5 0 8 -3 8 -9l-9 -54c0 -5 -5 -7 -10 -7h-209c-5 0 -7 2 -7 8l9 53c0 5 4 9 9 9h68l38 246c4 25 -9 29 -32 29h-34c-6 0 -9 3 -8 9l6 42c1 6 5 8 10 10c19 4 40 6 55 6c47 0 95 -8 84 -74z" />
    <glyph glyph-name="twosuperior" unicode="&#xb2;" horiz-adv-x="350" 
d="M257 922c78 0 146 -13 133 -96l-8 -47c-5 -37 -13 -65 -68 -98l-107 -58c-18 -10 -41 -23 -43 -37l-1 -6h189c4 0 5 -1 5 -4l-10 -62c-1 -3 -3 -4 -6 -4h-269c-11 0 -13 6 -12 15l7 46c8 46 28 65 83 97l118 70c27 15 33 31 36 54l2 14c6 37 -14 46 -64 46h-105
c-5 0 -7 2 -6 7l7 43c1 8 5 10 11 12c31 5 69 8 108 8z" />
    <glyph glyph-name="threesuperior" unicode="&#xb3;" horiz-adv-x="346" 
d="M257 922c83 0 142 -17 129 -103l-4 -23c-5 -34 -25 -71 -75 -81c47 -9 55 -48 49 -81l-3 -24c-14 -87 -79 -103 -162 -103c-41 0 -85 3 -116 9c-7 1 -9 4 -8 12l6 42c1 5 4 7 9 7h96c64 0 90 6 97 46l1 12c7 34 -15 48 -70 48h-82c-6 0 -8 2 -7 7l8 48c1 5 3 7 9 7h81
c55 0 80 10 87 49l1 12c7 38 -17 46 -81 46h-96c-5 0 -8 2 -7 7l7 43c1 7 5 10 12 11c33 6 78 9 119 9z" />
    <glyph glyph-name="foursuperior" unicode="&#x2074;" horiz-adv-x="379" 
d="M200 919h65c6 0 7 -3 4 -9l-102 -230h100l15 93c1 5 3 8 8 10l68 22c6 2 9 1 9 -6l-19 -119h59c6 0 9 -3 8 -8l-9 -54c-1 -6 -4 -8 -10 -8h-59l-15 -92c0 -6 -4 -8 -10 -8h-64c-5 0 -7 2 -7 8l15 92h-179c-5 0 -7 2 -6 8l6 37c1 6 3 12 7 18l106 241c2 4 5 5 10 5z" />
    <glyph glyph-name="fivesuperior" unicode="&#x2075;" horiz-adv-x="353" 
d="M155 919h240c5 0 7 -3 6 -8l-8 -54c-1 -6 -5 -8 -10 -8h-178l-20 -90c16 3 46 4 58 4c88 0 142 -20 128 -109l-5 -38c-15 -89 -73 -109 -177 -109c-41 0 -79 2 -110 8c-6 1 -9 4 -8 11l7 44c1 5 4 7 9 7h108c57 0 85 7 92 49l2 16c7 43 -18 51 -76 51h-102
c-9 0 -13 4 -11 10l7 48l37 160c2 5 5 8 11 8z" />
    <glyph glyph-name="sixsuperior" unicode="&#x2076;" horiz-adv-x="353" 
d="M248 919h70c6 0 7 -4 4 -10l-103 -156c13 3 32 5 47 5c75 0 128 -26 116 -98l-8 -53c-13 -78 -73 -100 -164 -100c-90 0 -146 22 -134 104l7 45c3 22 9 36 19 52l136 206c2 3 7 5 10 5zM239 693c-51 0 -71 -9 -78 -49l-2 -17c-7 -40 11 -50 62 -50c50 0 70 10 76 50l2 17
c7 40 -10 49 -60 49z" />
    <glyph glyph-name="sevensuperior" unicode="&#x2077;" horiz-adv-x="339" 
d="M125 919h281c5 0 7 -2 6 -8l-6 -41c-1 -5 -3 -9 -6 -12l-233 -343c-3 -4 -6 -5 -10 -5h-76c-6 0 -7 4 -4 9l226 330h-190c-6 0 -8 2 -7 7l8 55c1 6 5 8 11 8z" />
    </font>
</defs>
</svg>
