<?xml version="1.0" standalone="no"?>
<!DOCTYPE svg PUBLIC "-//W3C//DTD SVG 1.1//EN" "http://www.w3.org/Graphics/SVG/1.1/DTD/svg11.dtd" >
<svg xmlns="http://www.w3.org/2000/svg" xmlns:xlink="http://www.w3.org/1999/xlink" version="1.1">
<metadata>
Created by FontForge 20160407 at Wed Jun 29 19:31:15 2016
 By Jimmy Wärting
Please contact us to learn more about license restrictions.
</metadata>
<defs>
<font id="UniviaProUltraLight-Italic" horiz-adv-x="565" >
  <font-face 
    font-family="Univia Pro Ultra Light"
    font-weight="250"
    font-style="italic"
    font-stretch="normal"
    units-per-em="1000"
    panose-1="0 0 3 0 0 0 0 0 0 0"
    ascent="800"
    descent="-200"
    x-height="532"
    cap-height="736"
    bbox="-170.546 -249.392 1184 1051.39"
    underline-thickness="50"
    underline-position="-100"
    slope="-9"
    stemh="35"
    stemv="39"
    unicode-range="U+0020-1F603"
  />
<missing-glyph horiz-adv-x="402" 
d="M212 736h452c4 0 7 -3 6 -7l-115 -722c-1 -4 -3 -7 -8 -7h-451c-4 0 -7 3 -6 7l114 722c1 4 4 7 8 7zM399 615c-31 0 -61 -1 -94 -4c-4 0 -7 -3 -7 -7l-4 -19c0 -4 2 -6 6 -6h93c68 0 122 -4 111 -77l-6 -35c-8 -51 -25 -69 -63 -86l-82 -37c-38 -18 -45 -27 -48 -54
l-6 -46c0 -3 1 -4 4 -4h25c3 0 4 2 5 4l6 36c5 21 9 24 34 36l77 35c54 24 77 47 88 116l6 37c16 101 -57 111 -145 111zM306 177c-17 0 -28 -9 -30 -26c-3 -17 5 -26 22 -26c16 0 27 9 30 26c2 17 -4 26 -22 26z" />
    <glyph glyph-name="f_b" unicode="fb" horiz-adv-x="869" 
d="M330 741c44 0 118 -4 167 -6c4 0 7 -3 6 -8l-31 -192c55 2 101 3 147 3c196 0 214 -49 180 -265c-35 -225 -69 -278 -243 -278c-51 0 -96 1 -194 15c-9 2 -10 7 -9 14l107 679l-133 3c-70 2 -117 -22 -130 -100l-11 -74h149c4 0 5 -3 3 -7l-7 -21c-1 -4 -4 -6 -8 -6h-142
l-78 -491c-1 -4 -4 -7 -8 -7h-25c-5 0 -7 3 -6 7l78 491h-82c-4 0 -7 3 -6 8l3 19c1 4 4 7 8 7h82l12 78c17 103 88 131 171 131zM613 503h-145l-73 -460c79 -11 122 -13 167 -13c141 0 167 47 198 243c30 187 18 230 -147 230z" />
    <glyph glyph-name="f_f" unicode="ff" horiz-adv-x="630" 
d="M608 741c28 0 60 -2 79 -4c5 -1 6 -3 5 -6l-3 -17c-1 -6 -5 -8 -9 -8h-72c-21 0 -84 0 -93 -58l-18 -116h149c4 0 5 -3 3 -7l-7 -21c-1 -4 -3 -6 -7 -6h-144l-78 -491c-1 -4 -3 -7 -7 -7h-26c-4 0 -6 3 -5 7l78 491h-272l-78 -491c-1 -4 -4 -7 -8 -7h-25c-4 0 -7 3 -6 7
l78 491h-82c-4 0 -7 2 -6 8l4 19c1 5 3 7 7 7h82l19 119c15 90 108 90 131 90c28 0 67 -2 86 -4c5 -1 6 -3 5 -6l-3 -17c-1 -5 -4 -8 -8 -8h-80c-21 0 -83 0 -93 -58l-18 -116h272l18 119c15 90 109 90 132 90z" />
    <glyph glyph-name="f_f_b" unicode="ffb" horiz-adv-x="1179" 
d="M641 741c44 0 118 -4 167 -6c4 0 7 -3 6 -7l-31 -193c54 2 101 3 147 3c196 0 214 -49 179 -265c-35 -225 -68 -278 -242 -278c-51 0 -97 1 -194 15c-10 2 -10 7 -9 14l107 679l-133 3c-71 2 -118 -22 -130 -100l-11 -74h149c4 0 5 -2 3 -7l-7 -21c-1 -4 -4 -6 -8 -6
h-142l-78 -491c-1 -4 -4 -7 -8 -7h-26c-4 0 -6 3 -5 7l78 491h-273l-78 -491c-1 -4 -3 -7 -8 -7h-25c-4 0 -6 3 -5 7l78 491h-82c-5 0 -8 2 -7 8l4 19c1 5 4 7 8 7h82l18 119c15 90 109 90 131 90c28 0 61 -2 80 -4c5 -1 6 -3 5 -6l-3 -17c-1 -6 -5 -8 -9 -8h-72
c-22 0 -84 0 -94 -58l-18 -116h273l12 78c17 103 88 131 171 131zM924 503h-146l-73 -460c80 -11 123 -13 168 -13c141 0 167 47 198 243c30 187 18 230 -147 230z" />
    <glyph glyph-name="f_f_i" unicode="ffi" horiz-adv-x="838" 
d="M608 741c26 0 58 -2 78 -4c5 -1 6 -3 5 -6l-3 -17c-1 -6 -5 -8 -9 -8h-71c-21 0 -84 0 -93 -58l-18 -116h288c5 0 8 -2 7 -7l-82 -518c-1 -4 -4 -7 -8 -7h-25c-5 0 -7 3 -6 7l78 491h-258l-78 -491c-1 -4 -3 -7 -7 -7h-26c-4 0 -6 3 -5 7l78 491h-272l-78 -491
c-1 -4 -4 -7 -8 -7h-25c-4 0 -7 3 -6 7l78 491h-82c-4 0 -7 2 -6 8l4 18c1 6 3 8 7 8h82l19 119c15 90 108 90 131 90c28 0 75 -2 95 -4c4 -1 5 -3 5 -6l-4 -17c-1 -5 -4 -8 -9 -8h-87c-21 0 -83 0 -93 -58l-18 -116h272l18 119c15 90 109 90 132 90zM799 693
c18 0 27 -11 24 -29c-3 -20 -15 -30 -34 -30c-18 0 -27 10 -24 30c3 18 15 29 34 29z" />
    <glyph glyph-name="f_f_j" unicode="ffj" horiz-adv-x="824" 
d="M608 741c28 0 49 -2 69 -4c5 -1 5 -3 5 -6l-3 -17c-2 -6 -5 -8 -9 -8h-62c-21 0 -84 0 -93 -58l-18 -116h275c5 0 6 -3 6 -7l-100 -633c-13 -84 -67 -85 -89 -85c-11 0 -31 0 -49 3c-5 1 -6 4 -5 8l4 18c1 5 3 7 8 7h43c18 0 42 0 50 56l96 599h-245l-78 -491
c-1 -4 -3 -7 -7 -7h-26c-4 0 -6 3 -5 7l78 491h-272l-78 -491c-1 -4 -4 -7 -8 -7h-25c-4 0 -7 3 -6 7l78 491h-82c-4 0 -7 3 -6 8l4 18c1 5 3 8 7 8h82l19 119c15 90 108 90 131 90c28 0 52 -2 72 -4c5 -1 5 -3 5 -6l-3 -17c-2 -6 -5 -8 -9 -8h-65c-21 0 -83 0 -93 -58
l-18 -116h272l18 119c15 90 109 90 132 90zM786 693c19 0 27 -11 25 -29c-4 -20 -16 -30 -34 -30c-19 0 -28 10 -25 30c3 18 16 29 34 29z" />
    <glyph glyph-name="f_f_k" unicode="ffk" horiz-adv-x="1074" 
d="M639 741c44 0 118 -4 167 -6c4 0 7 -3 6 -8l-62 -391l241 191c5 4 10 5 17 5h34c7 0 6 -6 2 -9l-252 -197l231 -317c2 -5 1 -9 -8 -9h-29c-5 0 -11 2 -14 7l-225 311l-49 -311c-1 -4 -4 -7 -8 -7h-25c-5 0 -7 3 -6 7l110 696l-133 3c-70 2 -117 -22 -130 -100l-11 -74
h149c4 0 5 -3 3 -7l-7 -21c-1 -4 -3 -6 -7 -6h-143l-78 -491c-1 -4 -4 -7 -8 -7h-25c-5 0 -7 3 -6 7l78 491h-271l-78 -491c-1 -4 -3 -7 -8 -7h-25c-4 0 -6 3 -5 7l78 491h-82c-5 0 -8 3 -7 7l4 19c1 6 4 8 8 8h82l18 119c15 90 109 90 131 90c28 0 60 -2 79 -4
c5 -1 7 -3 6 -6l-3 -17c-1 -6 -4 -8 -8 -8h-73c-22 0 -84 0 -94 -58l-18 -116h271l12 78c17 103 88 131 171 131z" />
    <glyph glyph-name="f_f_l" unicode="ffl" horiz-adv-x="827" 
d="M641 741c44 0 118 -4 167 -6c4 0 6 -3 5 -7l-114 -720c-1 -6 -3 -8 -7 -8h-26c-4 0 -6 3 -5 8l110 695l-134 3c-70 2 -117 -22 -129 -100l-11 -74h149c4 0 5 -3 3 -7l-7 -21c-1 -4 -3 -6 -7 -6h-144l-78 -491c-1 -4 -3 -7 -7 -7h-26c-4 0 -6 3 -5 7l78 491h-272l-78 -491
c-1 -4 -4 -7 -8 -7h-25c-4 0 -7 3 -6 7l78 491h-82c-4 0 -7 3 -6 7l4 19c1 5 3 8 7 8h82l19 119c15 90 108 90 131 90c28 0 81 -2 101 -4c4 -1 5 -3 5 -6l-4 -17c-1 -6 -3 -8 -8 -8h-94c-21 0 -83 0 -93 -58l-18 -116h272l12 78c17 103 88 131 171 131z" />
    <glyph glyph-name="f_j" unicode="fj" horiz-adv-x="513" 
d="M297 741c28 0 50 -2 70 -4c4 -1 5 -3 5 -6l-4 -17c-1 -5 -3 -8 -8 -8h-63c-21 0 -83 0 -93 -58l-18 -116h276c4 0 6 -3 6 -7l-101 -633c-13 -84 -67 -85 -89 -85c-11 0 -29 0 -47 3c-5 1 -7 3 -6 8l3 18c0 4 4 7 8 7h43c18 0 42 0 50 56l96 599h-244l-78 -491
c-1 -4 -4 -7 -8 -7h-25c-4 0 -7 3 -6 7l78 491h-82c-4 0 -7 3 -6 7l4 19c1 6 3 8 7 8h82l19 119c15 90 108 90 131 90zM476 693c18 0 27 -11 24 -29c-4 -20 -15 -30 -34 -30c-18 0 -28 10 -24 30c2 18 15 29 34 29z" />
    <glyph glyph-name="f_k" unicode="fk" horiz-adv-x="765" 
d="M330 741c44 0 118 -4 167 -6c5 0 7 -3 6 -7l-62 -392l241 191c5 4 10 5 17 5h34c7 0 7 -6 2 -9l-252 -197l231 -317c2 -5 0 -9 -9 -9h-27c-5 0 -11 1 -15 7l-225 311l-49 -311c-1 -4 -4 -7 -8 -7h-25c-4 0 -7 3 -6 7l110 696l-133 3c-70 2 -117 -22 -130 -100l-11 -74
h149c4 0 5 -3 3 -7l-7 -21c-1 -4 -3 -6 -7 -6h-143l-78 -491c-1 -4 -4 -7 -8 -7h-25c-4 0 -7 3 -6 7l78 491h-82c-4 0 -7 3 -6 7l4 19c1 5 3 8 7 8h82l12 78c17 103 88 131 171 131z" />
    <glyph glyph-name="fi" unicode="fi" horiz-adv-x="527" 
d="M297 741c28 0 52 -2 72 -4c4 -1 5 -3 5 -6l-4 -19c-1 -4 -4 -6 -8 -6h-65c-21 0 -83 0 -93 -58l-18 -116h289c5 0 6 -3 6 -7l-82 -518c-1 -4 -4 -7 -8 -7h-25c-4 0 -7 3 -6 7l78 491h-257l-78 -491c-1 -4 -4 -7 -8 -7h-25c-4 0 -7 3 -6 7l78 491h-82c-4 0 -7 2 -6 8l4 19
c1 4 3 7 7 7h82l19 119c15 90 108 90 131 90zM488 693c19 0 27 -11 25 -29c-4 -20 -16 -30 -34 -30c-19 0 -28 10 -25 30c3 18 16 29 34 29z" />
    <glyph glyph-name="fl" unicode="fl" horiz-adv-x="517" 
d="M330 741c44 0 118 -4 167 -6c5 0 7 -3 6 -7l-114 -721c-1 -4 -4 -7 -8 -7h-25c-4 0 -7 3 -6 7l110 696l-133 3c-70 2 -117 -22 -130 -100l-11 -74h149c4 0 5 -3 3 -7l-7 -21c-1 -4 -3 -6 -7 -6h-143l-78 -491c-1 -4 -4 -7 -8 -7h-25c-4 0 -7 3 -6 7l78 491h-82
c-4 0 -7 3 -6 8l4 19c1 4 3 7 7 7h82l12 78c17 103 88 131 171 131z" />
    <glyph glyph-name=".notdef" horiz-adv-x="402" 
d="M212 736h452c4 0 7 -3 6 -7l-115 -722c-1 -4 -3 -7 -8 -7h-451c-4 0 -7 3 -6 7l114 722c1 4 4 7 8 7zM399 615c-31 0 -61 -1 -94 -4c-4 0 -7 -3 -7 -7l-4 -19c0 -4 2 -6 6 -6h93c68 0 122 -4 111 -77l-6 -35c-8 -51 -25 -69 -63 -86l-82 -37c-38 -18 -45 -27 -48 -54
l-6 -46c0 -3 1 -4 4 -4h25c3 0 4 2 5 4l6 36c5 21 9 24 34 36l77 35c54 24 77 47 88 116l6 37c16 101 -57 111 -145 111zM306 177c-17 0 -28 -9 -30 -26c-3 -17 5 -26 22 -26c16 0 27 9 30 26c2 17 -4 26 -22 26z" />
    <glyph glyph-name="A" unicode="A" horiz-adv-x="629" 
d="M383 741c67 0 72 -16 84 -113l77 -620c1 -7 0 -8 -7 -8h-28c-3 0 -5 2 -5 6l-32 249h-332l-110 -249c-2 -4 -3 -6 -8 -6h-28c-5 0 -7 2 -5 8l275 620c43 97 54 113 119 113zM377 705c-37 0 -44 -12 -76 -86l-145 -327h311l-40 327c-9 74 -12 86 -50 86z" />
    <glyph glyph-name="Aacute" unicode="&#xc1;" horiz-adv-x="629" 
d="M464 935h27c3 0 4 -2 4 -5v-6c0 -4 -1 -7 -4 -9l-114 -118c-2 -3 -5 -3 -8 -1l-10 9c-2 2 -2 5 0 8l97 119c2 2 5 3 8 3zM383 741c67 0 72 -16 84 -113l77 -620c1 -7 0 -8 -7 -8h-28c-3 0 -5 2 -5 6l-32 249h-332l-110 -249c-2 -4 -3 -6 -8 -6h-28c-5 0 -7 2 -5 8
l275 620c43 97 54 113 119 113zM377 705c-37 0 -44 -12 -76 -86l-145 -327h311l-40 327c-9 74 -12 86 -50 86z" />
    <glyph glyph-name="Abreve" unicode="&#x102;" horiz-adv-x="629" 
d="M514 921h19c4 0 5 -2 4 -7c-16 -85 -49 -110 -145 -110s-121 25 -111 110c1 5 3 7 7 7h19c4 0 6 -2 5 -6c-5 -61 13 -79 85 -79s96 18 109 79c2 4 4 6 8 6zM383 741c67 0 72 -16 84 -113l77 -620c1 -7 0 -8 -7 -8h-28c-3 0 -5 2 -5 6l-32 249h-332l-110 -249
c-2 -4 -3 -6 -8 -6h-28c-5 0 -7 2 -5 8l275 620c43 97 54 113 119 113zM377 705c-37 0 -44 -12 -76 -86l-145 -327h311l-40 327c-9 74 -12 86 -50 86z" />
    <glyph glyph-name="Acaron" unicode="&#x1cd;" horiz-adv-x="629" 
d="M514 934l10 -8c2 -3 3 -5 0 -9l-115 -118c-2 -3 -4 -4 -8 -4h-18c-5 0 -6 0 -8 4l-78 118c-2 4 -1 5 2 8l13 9c3 2 6 2 8 -1l78 -99l108 99c3 3 6 3 8 1zM383 741c67 0 72 -16 84 -113l77 -620c1 -7 0 -8 -7 -8h-28c-3 0 -5 2 -5 6l-32 249h-332l-110 -249
c-2 -4 -3 -6 -8 -6h-28c-5 0 -7 2 -5 8l275 620c43 97 54 113 119 113zM377 705c-37 0 -44 -12 -76 -86l-145 -327h311l-40 327c-9 74 -12 86 -50 86z" />
    <glyph glyph-name="Acircumflex" unicode="&#xc2;" horiz-adv-x="629" 
d="M403 935h19c4 0 5 0 7 -3l78 -119c2 -3 1 -6 -3 -8l-12 -9c-3 -2 -6 -2 -8 1l-77 100l-109 -100c-3 -3 -5 -3 -8 -1l-10 9c-2 2 -3 5 0 8l115 119c2 2 4 3 8 3zM383 741c67 0 72 -16 84 -113l77 -620c1 -7 0 -8 -7 -8h-28c-3 0 -5 2 -5 6l-32 249h-332l-110 -249
c-2 -4 -3 -6 -8 -6h-28c-5 0 -7 2 -5 8l275 620c43 97 54 113 119 113zM377 705c-37 0 -44 -12 -76 -86l-145 -327h311l-40 327c-9 74 -12 86 -50 86z" />
    <glyph glyph-name="Adieresis" unicode="&#xc4;" horiz-adv-x="629" 
d="M329 889c18 0 30 -8 26 -31c-3 -19 -14 -31 -34 -31c-19 0 -31 10 -27 31c3 21 17 31 35 31zM481 889c17 0 29 -8 26 -31c-3 -19 -14 -31 -35 -31c-18 0 -30 10 -26 31c3 21 17 31 35 31zM383 741c67 0 72 -16 84 -113l77 -620c1 -7 0 -8 -7 -8h-28c-3 0 -5 2 -5 6
l-32 249h-332l-110 -249c-2 -4 -3 -6 -8 -6h-28c-5 0 -7 2 -5 8l275 620c43 97 54 113 119 113zM377 705c-37 0 -44 -12 -76 -86l-145 -327h311l-40 327c-9 74 -12 86 -50 86z" />
    <glyph glyph-name="Agrave" unicode="&#xc0;" horiz-adv-x="629" 
d="M323 935h27c4 0 5 -1 6 -3l60 -119c1 -3 1 -6 -3 -8l-12 -9c-4 -2 -6 -2 -9 1l-75 117c-1 2 -1 5 -1 8v8c0 3 3 5 7 5zM383 741c67 0 72 -16 84 -113l77 -620c1 -7 0 -8 -7 -8h-28c-3 0 -5 2 -5 6l-32 249h-332l-110 -249c-2 -4 -3 -6 -8 -6h-28c-5 0 -7 2 -5 8l275 620
c43 97 54 113 119 113zM377 705c-37 0 -44 -12 -76 -86l-145 -327h311l-40 327c-9 74 -12 86 -50 86z" />
    <glyph glyph-name="Amacron" unicode="&#x100;" horiz-adv-x="629" 
d="M284 866h236c5 0 8 -2 6 -7l-2 -20c-1 -5 -4 -7 -8 -7l-237 1c-4 0 -7 2 -6 7l3 19c1 5 4 7 8 7zM383 741c67 0 72 -16 84 -113l77 -620c1 -7 0 -8 -7 -8h-28c-3 0 -5 2 -5 6l-32 249h-332l-110 -249c-2 -4 -3 -6 -8 -6h-28c-5 0 -7 2 -5 8l275 620c43 97 54 113 119 113
zM377 705c-37 0 -44 -12 -76 -86l-145 -327h311l-40 327c-9 74 -12 86 -50 86z" />
    <glyph glyph-name="Aogonek" unicode="&#x104;" horiz-adv-x="629" 
d="M383 741c67 0 72 -16 84 -113l77 -620c0 -7 -2 -8 -7 -8h-6c-12 -28 -22 -56 -25 -74c-6 -41 8 -47 48 -47h42c5 0 7 -2 6 -7l-3 -15c0 -4 -2 -7 -7 -8c-24 -3 -39 -4 -48 -4c-58 0 -80 14 -71 74c4 25 15 58 30 89l-31 247h-332l-110 -249c-3 -5 -4 -6 -9 -6h-27
c-5 0 -7 2 -5 8l275 620c43 97 54 113 119 113zM377 705c-37 0 -44 -12 -76 -86l-145 -327h311l-40 327c-9 74 -12 86 -50 86z" />
    <glyph glyph-name="Aring" unicode="&#xc5;" horiz-adv-x="629" 
d="M420 974c61 0 87 -30 78 -89c-9 -58 -45 -88 -106 -88s-87 30 -77 88c9 59 44 89 105 89zM416 947c-42 0 -66 -21 -72 -62c-6 -40 10 -62 52 -62c41 0 66 22 72 62c6 41 -11 62 -52 62zM383 741c67 0 72 -16 84 -113l77 -620c1 -7 0 -8 -7 -8h-28c-3 0 -5 2 -5 6l-32 249
h-332l-110 -249c-2 -4 -3 -6 -8 -6h-28c-5 0 -7 2 -5 8l275 620c43 97 54 113 119 113zM377 705c-37 0 -44 -12 -76 -86l-145 -327h311l-40 327c-9 74 -12 86 -50 86z" />
    <glyph glyph-name="Aringacute" unicode="&#x1fa;" horiz-adv-x="629" 
d="M477 1050h26c4 0 5 -2 5 -6v-6c0 -3 -2 -6 -5 -9l-58 -58c42 -8 59 -37 52 -86c-9 -59 -45 -89 -106 -89s-87 30 -77 89c8 55 40 84 94 88l61 74c2 2 4 3 8 3zM415 947c-42 0 -66 -21 -72 -62c-6 -40 10 -62 52 -62c41 0 66 22 72 62c6 41 -11 62 -52 62zM383 741
c67 0 72 -16 84 -113l77 -620c1 -7 0 -8 -7 -8h-28c-3 0 -5 2 -5 6l-32 249h-332l-110 -249c-2 -4 -3 -6 -8 -6h-28c-5 0 -7 2 -5 8l275 620c43 97 54 113 119 113zM377 705c-37 0 -44 -12 -76 -86l-145 -327h311l-40 327c-9 74 -12 86 -50 86z" />
    <glyph glyph-name="Atilde" unicode="&#xc3;" horiz-adv-x="629" 
d="M464 816c-58 0 -83 58 -127 58c-21 0 -36 -12 -56 -55c-4 -6 -6 -7 -11 -5l-14 2c-5 2 -4 4 -2 9c24 62 45 84 85 84c59 0 82 -58 126 -58c26 0 40 17 57 51c3 6 4 6 8 5l16 -1c4 -1 6 -3 4 -9c-24 -63 -49 -81 -86 -81zM383 741c67 0 72 -16 84 -113l77 -620
c1 -7 0 -8 -7 -8h-28c-3 0 -5 2 -5 6l-32 249h-332l-110 -249c-2 -4 -3 -6 -8 -6h-28c-5 0 -7 2 -5 8l275 620c43 97 54 113 119 113zM377 705c-37 0 -44 -12 -76 -86l-145 -327h311l-40 327c-9 74 -12 86 -50 86z" />
    <glyph glyph-name="AE" unicode="&#xc6;" horiz-adv-x="973" 
d="M382 739l239 -3h363c4 0 6 -3 5 -7l-3 -23c-1 -4 -3 -6 -7 -6h-393l-53 -332h354c4 0 7 -2 6 -6l-3 -23c-1 -4 -4 -7 -8 -7h-354l-47 -296h392c4 0 6 -2 5 -7l-3 -22c-1 -5 -3 -7 -8 -7h-417c-10 0 -14 5 -13 14l39 241h-336l-110 -249c-3 -5 -4 -6 -9 -6h-27
c-5 0 -7 2 -5 8l275 620c43 97 54 112 118 111zM547 702h-170c-37 0 -44 -9 -76 -83l-145 -327h326z" />
    <glyph glyph-name="AEacute" unicode="&#x1fc;" horiz-adv-x="973" 
d="M681 935h26c4 0 5 -2 5 -6v-5c0 -4 -2 -7 -4 -9l-114 -118c-3 -3 -5 -3 -8 -1l-10 9c-2 2 -2 4 0 8l97 119c2 2 4 3 8 3zM382 739l239 -3h363c4 0 6 -3 5 -7l-3 -23c-1 -4 -3 -6 -7 -6h-393l-53 -332h354c4 0 7 -2 6 -6l-3 -23c-1 -4 -4 -7 -8 -7h-354l-47 -296h392
c4 0 6 -2 5 -7l-3 -22c-1 -5 -3 -7 -8 -7h-417c-10 0 -14 5 -13 14l39 241h-336l-110 -249c-3 -5 -4 -6 -9 -6h-27c-5 0 -7 2 -5 8l275 620c43 97 54 112 118 111zM547 702h-170c-37 0 -44 -9 -76 -83l-145 -327h326z" />
    <glyph glyph-name="B" unicode="B" horiz-adv-x="660" 
d="M397 741c161 0 243 -42 218 -203c-14 -89 -48 -148 -114 -163v-2c83 -16 93 -95 80 -177c-26 -165 -124 -201 -272 -201c-35 0 -206 0 -258 3c-4 0 -6 2 -6 6l116 727c0 5 2 7 7 7c54 2 193 3 229 3zM389 705h-194l-49 -313h245c110 0 164 21 184 145
c22 135 -49 168 -186 168zM401 357h-261l-52 -326h228c124 0 204 30 225 166c20 123 -30 160 -140 160z" />
    <glyph glyph-name="C" unicode="C" 
d="M422 741c37 0 118 -1 167 -3c5 -1 8 -2 6 -7l-3 -20c-1 -5 -4 -6 -8 -6h-168c-202 0 -257 -80 -297 -337c-41 -258 -11 -337 190 -337h168c5 0 7 -3 7 -7l-4 -19c-1 -5 -3 -7 -7 -7c-51 -3 -133 -3 -169 -3c-232 0 -270 88 -225 373c46 285 111 373 343 373z" />
    <glyph glyph-name="Cacute" unicode="&#x106;" 
d="M516 935h27c3 0 5 -2 5 -5v-6c0 -4 -2 -7 -5 -9l-114 -118c-2 -3 -4 -3 -8 -1l-9 9c-3 2 -3 5 -1 8l97 119c2 2 5 3 8 3zM422 741c37 0 118 -1 167 -3c5 -1 8 -2 6 -7l-3 -20c-1 -5 -4 -6 -8 -6h-168c-202 0 -257 -80 -297 -337c-41 -258 -11 -337 190 -337h168
c5 0 7 -3 7 -7l-4 -19c-1 -5 -3 -7 -7 -7c-51 -3 -133 -3 -169 -3c-232 0 -270 88 -225 373c46 285 111 373 343 373z" />
    <glyph glyph-name="Ccaron" unicode="&#x10c;" 
d="M544 934l9 -8c3 -3 4 -5 1 -9l-116 -118c-2 -3 -3 -4 -7 -4h-19c-5 0 -6 0 -8 4l-77 118c-3 4 -1 5 1 8l13 9c4 2 6 2 9 -1l77 -99l108 99c4 3 6 3 9 1zM422 741c37 0 118 -1 167 -3c5 -1 8 -2 6 -7l-3 -20c-1 -5 -4 -6 -8 -6h-168c-202 0 -257 -80 -297 -337
c-41 -258 -11 -337 190 -337h168c5 0 7 -3 7 -7l-4 -19c-1 -5 -3 -7 -7 -7c-51 -3 -133 -3 -169 -3c-232 0 -270 88 -225 373c46 285 111 373 343 373z" />
    <glyph glyph-name="Ccedilla" unicode="&#xc7;" 
d="M589 738c5 -1 8 -2 6 -7l-3 -20c-1 -5 -4 -6 -8 -6h-168c-202 0 -257 -80 -297 -337c-41 -258 -11 -337 190 -337h168c5 0 7 -3 7 -7l-4 -19c-1 -5 -3 -7 -7 -7c-51 -3 -133 -3 -169 -3h-11c2 -28 3 -55 -1 -76c-9 -60 -35 -74 -93 -74c-10 0 -24 1 -48 4c-5 1 -6 3 -5 8
l3 15c1 5 3 7 8 7h42c40 0 56 6 63 47c3 18 2 44 -1 70c-194 11 -224 106 -182 372c46 285 111 373 343 373c37 0 118 -1 167 -3z" />
    <glyph glyph-name="Ccircumflex" unicode="&#x108;" 
d="M425 935h19c5 0 6 0 8 -3l77 -119c2 -3 1 -6 -2 -8l-12 -9c-4 -2 -6 -2 -9 1l-76 100l-110 -100c-3 -3 -4 -3 -8 -1l-9 9c-3 2 -4 5 -1 8l115 119c3 2 4 3 8 3zM422 741c37 0 118 -1 167 -3c5 -1 8 -2 6 -7l-3 -20c-1 -5 -4 -6 -8 -6h-168c-202 0 -257 -80 -297 -337
c-41 -258 -11 -337 190 -337h168c5 0 7 -3 7 -7l-4 -19c-1 -5 -3 -7 -7 -7c-51 -3 -133 -3 -169 -3c-232 0 -270 88 -225 373c46 285 111 373 343 373z" />
    <glyph glyph-name="Cdotaccent" unicode="&#x10a;" 
d="M432 889c20 0 28 -11 26 -31c-3 -18 -14 -31 -36 -31c-19 0 -29 11 -25 31c3 22 17 31 35 31zM422 741c37 0 118 -1 167 -3c5 -1 8 -2 6 -7l-3 -20c-1 -5 -4 -6 -8 -6h-168c-202 0 -257 -80 -297 -337c-41 -258 -11 -337 190 -337h168c5 0 7 -3 7 -7l-4 -19
c-1 -5 -3 -7 -7 -7c-51 -3 -133 -3 -169 -3c-232 0 -270 88 -225 373c46 285 111 373 343 373z" />
    <glyph glyph-name="D" unicode="D" horiz-adv-x="722" 
d="M438 741c229 0 270 -93 226 -373c-45 -281 -115 -373 -344 -373c-42 0 -217 0 -269 3c-4 0 -6 2 -6 6l116 727c0 5 2 7 7 7c54 2 229 3 270 3zM429 705h-234l-107 -674h237c198 0 259 83 299 337c41 258 5 337 -195 337z" />
    <glyph glyph-name="Eth" unicode="&#xd0;" horiz-adv-x="723" 
d="M440 741c229 0 270 -93 225 -373c-44 -281 -115 -373 -344 -373c-41 0 -216 0 -268 3c-5 0 -7 2 -7 6l54 336h-69c-4 0 -7 1 -6 6l3 20c1 5 4 7 8 7h69l57 358c0 5 3 7 7 7c54 2 229 3 271 3zM626 368c40 258 5 337 -195 337h-234l-53 -332h183c4 0 6 -1 5 -7l-3 -20
c-1 -5 -3 -7 -8 -7l-182 1l-49 -309h237c198 0 258 83 299 337z" />
    <glyph glyph-name="Dcaron" unicode="&#x10e;" horiz-adv-x="722" 
d="M536 934l10 -8c2 -3 3 -5 0 -9l-115 -118c-3 -3 -4 -4 -8 -4h-19c-5 0 -6 0 -8 4l-77 118c-2 4 -1 5 2 8l12 9c4 2 6 2 9 -1l77 -99l109 99c3 3 5 3 8 1zM438 741c229 0 270 -93 226 -373c-45 -281 -115 -373 -344 -373c-42 0 -217 0 -269 3c-4 0 -6 2 -6 6l116 727
c0 5 2 7 7 7c54 2 229 3 270 3zM429 705h-234l-107 -674h237c198 0 259 83 299 337c41 258 5 337 -195 337z" />
    <glyph glyph-name="Dcroat" unicode="&#x110;" horiz-adv-x="723" 
d="M440 741c229 0 270 -93 225 -373c-44 -281 -115 -373 -344 -373c-41 0 -216 0 -268 3c-5 0 -7 2 -7 6l54 336h-69c-4 0 -7 1 -6 6l3 20c1 5 4 7 8 7h69l57 358c0 5 3 7 7 7c54 2 229 3 271 3zM626 368c40 258 5 337 -195 337h-234l-53 -332h183c4 0 6 -1 5 -7l-3 -20
c-1 -5 -3 -7 -8 -7l-182 1l-49 -309h237c198 0 258 83 299 337z" />
    <glyph glyph-name="E" unicode="E" horiz-adv-x="593" 
d="M176 736h427c4 0 7 -3 6 -7l-4 -23c-1 -4 -3 -6 -7 -6h-403l-53 -332h364c5 0 7 -2 6 -6l-3 -23c-1 -4 -4 -7 -8 -7h-364l-48 -296h403c4 0 7 -3 5 -7l-3 -22c-1 -4 -3 -7 -8 -7h-427c-10 0 -14 5 -13 14l113 707c1 10 7 15 17 15z" />
    <glyph glyph-name="Eacute" unicode="&#xc9;" horiz-adv-x="593" 
d="M444 935h27c3 0 4 -2 4 -5v-6c0 -4 -1 -7 -4 -9l-114 -118c-2 -3 -5 -3 -8 -1l-10 9c-2 2 -2 5 0 8l97 119c2 2 5 3 8 3zM176 736h427c4 0 7 -3 6 -7l-4 -23c-1 -4 -3 -6 -7 -6h-403l-53 -332h364c5 0 7 -2 6 -6l-3 -23c-1 -4 -4 -7 -8 -7h-364l-48 -296h403
c4 0 7 -3 5 -7l-3 -22c-1 -4 -3 -7 -8 -7h-427c-10 0 -14 5 -13 14l113 707c1 10 7 15 17 15z" />
    <glyph glyph-name="Ebreve" unicode="&#x114;" horiz-adv-x="593" 
d="M501 921h18c5 0 6 -2 5 -7c-16 -85 -49 -110 -145 -110c-97 0 -121 25 -111 110c1 5 3 7 7 7h19c4 0 6 -2 5 -6c-6 -61 12 -79 85 -79c72 0 96 18 109 79c2 4 3 6 8 6zM176 736h427c4 0 7 -3 6 -7l-4 -23c-1 -4 -3 -6 -7 -6h-403l-53 -332h364c5 0 7 -2 6 -6l-3 -23
c-1 -4 -4 -7 -8 -7h-364l-48 -296h403c4 0 7 -3 5 -7l-3 -22c-1 -4 -3 -7 -8 -7h-427c-10 0 -14 5 -13 14l113 707c1 10 7 15 17 15z" />
    <glyph glyph-name="Ecaron" unicode="&#x11a;" horiz-adv-x="593" 
d="M501 934l10 -8c2 -3 3 -5 0 -9l-115 -118c-2 -3 -4 -4 -8 -4h-18c-5 0 -7 0 -9 4l-77 118c-2 4 -1 5 2 8l13 9c3 2 5 2 8 -1l78 -99l108 99c3 3 6 3 8 1zM176 736h427c4 0 7 -3 6 -7l-4 -23c-1 -4 -3 -6 -7 -6h-403l-53 -332h364c5 0 7 -2 6 -6l-3 -23c-1 -4 -4 -7 -8 -7
h-364l-48 -296h403c4 0 7 -3 5 -7l-3 -22c-1 -4 -3 -7 -8 -7h-427c-10 0 -14 5 -13 14l113 707c1 10 7 15 17 15z" />
    <glyph glyph-name="Ecircumflex" unicode="&#xca;" horiz-adv-x="593" 
d="M390 935h19c4 0 5 0 7 -3l77 -119c3 -3 1 -6 -2 -8l-12 -9c-4 -2 -6 -2 -8 1l-77 100l-109 -100c-4 -3 -5 -3 -9 -1l-9 9c-3 2 -4 5 0 8l115 119c2 2 3 3 8 3zM176 736h427c4 0 7 -3 6 -7l-4 -23c-1 -4 -3 -6 -7 -6h-403l-53 -332h364c5 0 7 -2 6 -6l-3 -23
c-1 -4 -4 -7 -8 -7h-364l-48 -296h403c4 0 7 -3 5 -7l-3 -22c-1 -4 -3 -7 -8 -7h-427c-10 0 -14 5 -13 14l113 707c1 10 7 15 17 15z" />
    <glyph glyph-name="Edieresis" unicode="&#xcb;" horiz-adv-x="593" 
d="M316 889c18 0 29 -8 26 -31c-3 -19 -14 -31 -35 -31c-18 0 -30 10 -26 31c3 21 17 31 35 31zM468 889c17 0 29 -8 26 -31c-3 -19 -14 -31 -35 -31c-18 0 -30 10 -27 31c4 21 18 31 36 31zM176 736h427c4 0 7 -3 6 -7l-4 -23c-1 -4 -3 -6 -7 -6h-403l-53 -332h364
c5 0 7 -2 6 -6l-3 -23c-1 -4 -4 -7 -8 -7h-364l-48 -296h403c4 0 7 -3 5 -7l-3 -22c-1 -4 -3 -7 -8 -7h-427c-10 0 -14 5 -13 14l113 707c1 10 7 15 17 15z" />
    <glyph glyph-name="Edotaccent" unicode="&#x116;" horiz-adv-x="593" 
d="M393 889c20 0 28 -11 25 -31c-2 -18 -13 -31 -35 -31c-19 0 -29 11 -26 31c4 22 18 31 36 31zM176 736h427c4 0 7 -3 6 -7l-4 -23c-1 -4 -3 -6 -7 -6h-403l-53 -332h364c5 0 7 -2 6 -6l-3 -23c-1 -4 -4 -7 -8 -7h-364l-48 -296h403c4 0 7 -3 5 -7l-3 -22
c-1 -4 -3 -7 -8 -7h-427c-10 0 -14 5 -13 14l113 707c1 10 7 15 17 15z" />
    <glyph glyph-name="Egrave" unicode="&#xc8;" horiz-adv-x="593" 
d="M310 935h27c3 0 5 -1 6 -3l60 -119c1 -3 1 -6 -3 -8l-13 -9c-3 -2 -6 -2 -8 1l-75 117c-1 2 -1 5 -1 8v8c0 3 3 5 7 5zM176 736h427c4 0 7 -3 6 -7l-4 -23c-1 -4 -3 -6 -7 -6h-403l-53 -332h364c5 0 7 -2 6 -6l-3 -23c-1 -4 -4 -7 -8 -7h-364l-48 -296h403c4 0 7 -3 5 -7
l-3 -22c-1 -4 -3 -7 -8 -7h-427c-10 0 -14 5 -13 14l113 707c1 10 7 15 17 15z" />
    <glyph glyph-name="Emacron" unicode="&#x112;" horiz-adv-x="593" 
d="M271 866h236c5 0 7 -2 6 -7l-2 -20c-1 -5 -4 -7 -8 -7l-237 1c-4 0 -7 2 -6 7l3 19c1 5 4 7 8 7zM176 736h427c4 0 7 -3 6 -7l-4 -23c-1 -4 -3 -6 -7 -6h-403l-53 -332h364c5 0 7 -2 6 -6l-3 -23c-1 -4 -4 -7 -8 -7h-364l-48 -296h403c4 0 7 -3 5 -7l-3 -22
c-1 -4 -3 -7 -8 -7h-427c-10 0 -14 5 -13 14l113 707c1 10 7 15 17 15z" />
    <glyph glyph-name="Eogonek" unicode="&#x118;" horiz-adv-x="593" 
d="M176 736h427c4 0 7 -3 6 -7l-4 -23c-1 -4 -3 -6 -7 -6h-403l-53 -332h364c5 0 7 -2 6 -6l-3 -23c-1 -4 -4 -7 -8 -7h-364l-48 -296h403c4 0 7 -3 5 -7l-3 -22c-1 -4 -3 -7 -8 -7h-125c-8 -21 -21 -49 -24 -74c-6 -41 6 -47 47 -47h43c5 0 6 -2 5 -7l-2 -15
c-1 -4 -3 -7 -8 -8c-11 -3 -48 -4 -59 -4c-47 0 -70 20 -60 74c4 21 13 52 25 81h-269c-10 0 -14 5 -13 14l113 707c1 10 7 15 17 15z" />
    <glyph glyph-name="F" unicode="F" horiz-adv-x="578" 
d="M176 736h443c4 0 6 -3 5 -7l-4 -23c0 -4 -2 -6 -7 -6h-418l-53 -331h379c4 0 7 -2 7 -6l-4 -23c-1 -4 -4 -7 -8 -7h-379l-52 -326c-1 -4 -4 -7 -8 -7h-26c-4 0 -6 3 -5 7l113 714c1 10 7 15 17 15z" />
    <glyph glyph-name="G" unicode="G" horiz-adv-x="634" 
d="M423 741c36 0 119 -1 168 -3c5 -1 7 -2 6 -7l-4 -20c-1 -4 -3 -6 -8 -6h-169c-201 0 -256 -80 -297 -337c-41 -258 -11 -337 191 -337h181l51 317c0 4 3 7 8 7h25c4 0 5 -3 5 -7l-54 -337c0 -4 -2 -6 -5 -7c-47 -10 -176 -9 -217 -9c-232 0 -270 88 -224 373
c45 285 111 373 343 373z" />
    <glyph glyph-name="Gbreve" unicode="&#x11e;" horiz-adv-x="634" 
d="M535 921h19c5 0 6 -2 4 -7c-15 -85 -48 -110 -144 -110c-97 0 -122 25 -111 110c1 5 2 7 7 7h19c4 0 5 -2 5 -6c-6 -61 12 -79 85 -79c72 0 96 18 109 79c1 4 3 6 7 6zM423 741c36 0 119 -1 168 -3c5 -1 7 -2 6 -7l-4 -20c-1 -4 -3 -6 -8 -6h-169
c-201 0 -256 -80 -297 -337c-41 -258 -11 -337 191 -337h181l51 317c0 4 3 7 8 7h25c4 0 5 -3 5 -7l-54 -337c0 -4 -2 -6 -5 -7c-47 -10 -176 -9 -217 -9c-232 0 -270 88 -224 373c45 285 111 373 343 373z" />
    <glyph glyph-name="Gcircumflex" unicode="&#x11c;" horiz-adv-x="634" 
d="M435 935h19c4 0 6 0 8 -3l77 -119c2 -3 1 -6 -3 -8l-12 -9c-3 -2 -6 -2 -8 1l-77 100l-109 -100c-3 -3 -5 -3 -8 -1l-10 9c-2 2 -3 5 0 8l115 119c2 2 4 3 8 3zM423 741c36 0 119 -1 168 -3c5 -1 7 -2 6 -7l-4 -20c-1 -4 -3 -6 -8 -6h-169c-201 0 -256 -80 -297 -337
c-41 -258 -11 -337 191 -337h181l51 317c0 4 3 7 8 7h25c4 0 5 -3 5 -7l-54 -337c0 -4 -2 -6 -5 -7c-47 -10 -176 -9 -217 -9c-232 0 -270 88 -224 373c45 285 111 373 343 373z" />
    <glyph glyph-name="Gcommaaccent" unicode="&#x122;" horiz-adv-x="634" 
d="M423 741c36 0 119 -1 168 -3c5 -1 7 -2 6 -7l-4 -20c-1 -4 -3 -6 -8 -6h-169c-201 0 -256 -80 -297 -337c-41 -258 -11 -337 191 -337h181l51 317c0 4 3 7 8 7h25c4 0 5 -3 5 -7l-54 -337c0 -4 -2 -6 -5 -7c-47 -10 -176 -9 -217 -9c-232 0 -270 88 -224 373
c45 285 111 373 343 373zM291 -36h24c4 0 5 -2 5 -6v-5c0 -4 -2 -7 -5 -9l-111 -118c-3 -3 -5 -3 -9 -1l-9 9c-3 2 -3 4 0 8l97 119c2 2 4 3 8 3z" />
    <glyph glyph-name="Gdotaccent" unicode="&#x120;" horiz-adv-x="634" 
d="M445 889c19 0 28 -11 25 -31c-3 -18 -14 -31 -35 -31c-19 0 -30 11 -26 31c3 22 17 31 36 31zM423 741c36 0 119 -1 168 -3c5 -1 7 -2 6 -7l-4 -20c-1 -4 -3 -6 -8 -6h-169c-201 0 -256 -80 -297 -337c-41 -258 -11 -337 191 -337h181l51 317c0 4 3 7 8 7h25
c4 0 5 -3 5 -7l-54 -337c0 -4 -2 -6 -5 -7c-47 -10 -176 -9 -217 -9c-232 0 -270 88 -224 373c45 285 111 373 343 373z" />
    <glyph glyph-name="H" unicode="H" horiz-adv-x="756" 
d="M697 736h26c5 0 7 -3 6 -7l-114 -722c-1 -4 -4 -7 -8 -7h-26c-4 0 -7 3 -6 7l56 356h-490l-56 -356c-1 -4 -3 -7 -8 -7h-26c-4 0 -6 3 -5 7l114 722c1 4 4 7 8 7h26c4 0 7 -3 6 -7l-53 -330h490l52 330c1 4 4 7 8 7z" />
    <glyph glyph-name="Hbar" unicode="&#x126;" horiz-adv-x="755" 
d="M718 658h43c4 0 7 -1 6 -7l-4 -20c-1 -5 -3 -6 -8 -6h-43l-98 -618c-1 -5 -3 -7 -7 -7h-27c-4 0 -6 3 -5 7l56 356h-490l-56 -356c-1 -5 -4 -7 -8 -7h-26c-4 0 -6 3 -5 7l98 618h-45c-4 0 -7 1 -6 6l4 20c1 5 3 7 7 7h45l11 71c1 4 3 7 8 7h26c4 0 6 -3 5 -7l-11 -71h490
l11 71c1 4 4 7 8 7h26c4 0 7 -3 6 -7zM637 399l36 226h-490l-36 -226h490z" />
    <glyph glyph-name="Hcircumflex" unicode="&#x124;" horiz-adv-x="756" 
d="M459 935h19c5 0 6 0 8 -3l77 -119c2 -3 1 -6 -3 -8l-12 -9c-3 -2 -5 -2 -8 1l-77 100l-109 -100c-3 -3 -5 -3 -8 -1l-10 9c-2 2 -3 5 0 8l115 119c3 2 4 3 8 3zM697 736h26c5 0 7 -3 6 -7l-114 -722c-1 -4 -4 -7 -8 -7h-26c-4 0 -7 3 -6 7l56 356h-490l-56 -356
c-1 -4 -3 -7 -8 -7h-26c-4 0 -6 3 -5 7l114 722c1 4 4 7 8 7h26c4 0 7 -3 6 -7l-53 -330h490l52 330c1 4 4 7 8 7z" />
    <glyph glyph-name="I" unicode="I" horiz-adv-x="226" 
d="M168 736h26c4 0 7 -3 6 -7l-115 -722c-1 -4 -3 -7 -8 -7h-26c-4 0 -6 3 -5 7l114 722c1 4 4 7 8 7z" />
    <glyph glyph-name="IJ" unicode="&#x132;" horiz-adv-x="769" 
d="M168 736h26c4 0 7 -3 6 -7l-115 -722c-1 -4 -3 -7 -8 -7h-26c-4 0 -6 3 -5 7l114 722c1 4 4 7 8 7zM419 736h317c10 0 14 -5 13 -15l-53 -342c-47 -295 -120 -384 -362 -384c-54 0 -87 0 -134 3c-3 0 -7 2 -6 7l4 19c1 5 4 7 7 7h135c211 0 277 80 317 348l49 321h-293
c-4 0 -6 2 -6 6l4 23c1 4 4 7 8 7z" />
    <glyph glyph-name="Iacute" unicode="&#xcd;" horiz-adv-x="226" 
d="M278 935h27c3 0 5 -2 5 -5v-6c0 -4 -2 -7 -5 -9l-114 -118c-2 -3 -5 -3 -8 -1l-10 9c-2 2 -2 5 0 8l97 119c2 2 5 3 8 3zM168 736h26c4 0 7 -3 6 -7l-115 -722c-1 -4 -3 -7 -8 -7h-26c-4 0 -6 3 -5 7l114 722c1 4 4 7 8 7z" />
    <glyph glyph-name="Icaron" unicode="&#x1cf;" horiz-adv-x="226" 
d="M312 934l9 -8c3 -3 4 -5 1 -9l-116 -118c-2 -3 -3 -4 -7 -4h-19c-5 0 -6 0 -8 4l-77 118c-3 4 -1 5 2 8l12 9c4 2 6 2 9 -1l77 -99l109 99c3 3 5 3 8 1zM168 736h26c4 0 7 -3 6 -7l-115 -722c-1 -4 -3 -7 -8 -7h-26c-4 0 -6 3 -5 7l114 722c1 4 4 7 8 7z" />
    <glyph glyph-name="Icircumflex" unicode="&#xce;" horiz-adv-x="226" 
d="M203 935h19c4 0 5 0 7 -3l77 -119c3 -3 1 -6 -2 -8l-12 -9c-3 -2 -6 -2 -8 1l-77 100l-109 -100c-4 -3 -5 -3 -8 -1l-10 9c-3 2 -4 5 0 8l115 119c2 2 3 3 8 3zM168 736h26c4 0 7 -3 6 -7l-115 -722c-1 -4 -3 -7 -8 -7h-26c-4 0 -6 3 -5 7l114 722c1 4 4 7 8 7z" />
    <glyph glyph-name="Idieresis" unicode="&#xcf;" horiz-adv-x="226" 
d="M128 889c17 0 29 -8 25 -31c-2 -19 -14 -31 -34 -31c-18 0 -31 10 -27 31c3 21 18 31 36 31zM279 889c18 0 30 -8 26 -31c-3 -19 -14 -31 -35 -31c-18 0 -30 10 -26 31c3 21 17 31 35 31zM168 736h26c4 0 7 -3 6 -7l-115 -722c-1 -4 -3 -7 -8 -7h-26c-4 0 -6 3 -5 7
l114 722c1 4 4 7 8 7z" />
    <glyph glyph-name="Idotaccent" unicode="&#x130;" horiz-adv-x="226" 
d="M199 889c20 0 29 -11 26 -31c-3 -18 -14 -31 -35 -31c-19 0 -30 11 -26 31c3 22 17 31 35 31zM168 736h26c4 0 7 -3 6 -7l-115 -722c-1 -4 -3 -7 -8 -7h-26c-4 0 -6 3 -5 7l114 722c1 4 4 7 8 7z" />
    <glyph glyph-name="Igrave" unicode="&#xcc;" horiz-adv-x="226" 
d="M108 935h28c3 0 5 -1 6 -3l60 -119c1 -3 1 -6 -3 -8l-13 -9c-3 -2 -6 -2 -8 1l-75 117c-1 2 -2 5 -2 8v8c0 3 4 5 7 5zM168 736h26c4 0 7 -3 6 -7l-115 -722c-1 -4 -3 -7 -8 -7h-26c-4 0 -6 3 -5 7l114 722c1 4 4 7 8 7z" />
    <glyph glyph-name="Imacron" unicode="&#x12a;" horiz-adv-x="226" 
d="M75 866h236c5 0 7 -2 6 -7l-2 -20c-1 -5 -4 -7 -8 -7l-237 1c-5 0 -7 2 -6 7l3 19c1 5 4 7 8 7zM168 736h26c4 0 7 -3 6 -7l-115 -722c-1 -4 -3 -7 -8 -7h-26c-4 0 -6 3 -5 7l114 722c1 4 4 7 8 7z" />
    <glyph glyph-name="Iogonek" unicode="&#x12e;" horiz-adv-x="226" 
d="M168 736h26c4 0 7 -2 6 -8l-115 -723c-1 -3 -2 -5 -5 -5h-5c-11 -28 -21 -56 -24 -74c-7 -41 8 -47 47 -47h43c5 0 7 -2 6 -7l-3 -15c-1 -5 -3 -7 -8 -8c-23 -3 -38 -4 -47 -4c-59 0 -81 14 -72 74c5 23 16 54 29 85l114 725c1 5 4 7 8 7z" />
    <glyph glyph-name="Itilde" unicode="&#x128;" horiz-adv-x="226" 
d="M261 816c-59 0 -84 58 -127 58c-22 0 -37 -12 -57 -55c-3 -6 -5 -7 -10 -5l-14 2c-5 2 -5 4 -3 9c24 62 45 84 85 84c59 0 82 -58 127 -58c25 0 40 17 56 51c3 6 5 6 9 5l15 -1c5 -1 7 -3 4 -9c-23 -63 -48 -81 -85 -81zM168 736h26c4 0 7 -3 6 -7l-115 -722
c-1 -4 -3 -7 -8 -7h-26c-4 0 -6 3 -5 7l114 722c1 4 4 7 8 7z" />
    <glyph glyph-name="J" unicode="J" horiz-adv-x="543" 
d="M193 736h317c10 0 14 -5 13 -15l-53 -342c-47 -295 -120 -384 -362 -384c-54 0 -87 0 -134 3c-3 0 -7 2 -6 7l4 19c1 5 4 7 7 7h135c211 0 277 80 317 348l49 321h-293c-4 0 -6 2 -6 6l4 23c1 4 4 7 8 7z" />
    <glyph glyph-name="Jcircumflex" unicode="&#x134;" horiz-adv-x="538" 
d="M388 935h19c5 0 6 0 8 -3l77 -119c2 -3 1 -6 -3 -8l-12 -9c-3 -2 -5 -2 -8 1l-77 100l-109 -100c-3 -3 -5 -3 -8 -1l-10 9c-2 2 -3 5 0 8l115 119c3 2 4 3 8 3zM188 736h317c10 0 14 -5 13 -15l-53 -342c-47 -295 -120 -384 -362 -384c-54 0 -87 0 -134 3c-3 0 -7 2 -6 7
l4 19c1 5 4 7 7 7h135c211 0 277 80 317 348l49 321h-293c-4 0 -6 2 -6 6l4 23c1 4 4 7 8 7z" />
    <glyph glyph-name="K" unicode="K" horiz-adv-x="554" 
d="M551 736h39c6 0 7 -4 2 -9l-407 -330l307 -387c3 -5 1 -10 -7 -10h-30c-5 0 -8 2 -10 4l-300 381l-60 -378c-1 -5 -4 -7 -8 -7h-26c-4 0 -6 2 -5 7l114 722c1 5 3 7 8 7h26c4 0 6 -3 5 -7l-49 -309l391 311c2 3 6 5 10 5z" />
    <glyph glyph-name="Kcommaaccent" unicode="&#x136;" horiz-adv-x="554" 
d="M237 -36h25c3 0 4 -2 4 -6v-5c0 -4 -1 -7 -4 -9l-112 -118c-3 -3 -5 -3 -8 -1l-10 9c-2 2 -2 4 0 8l97 119c2 2 5 3 8 3zM551 736h39c6 0 7 -4 2 -9l-407 -330l307 -387c3 -5 1 -10 -7 -10h-30c-5 0 -8 2 -10 4l-300 381l-60 -378c-1 -5 -4 -7 -8 -7h-26c-4 0 -6 2 -5 7
l114 722c1 5 3 7 8 7h26c4 0 6 -3 5 -7l-49 -309l391 311c2 3 6 5 10 5z" />
    <glyph glyph-name="L" unicode="L" horiz-adv-x="550" 
d="M169 736h26c4 0 6 -2 5 -7l-110 -693h402c4 0 6 -2 5 -8l-3 -20c-1 -6 -3 -8 -8 -8h-426c-9 0 -14 4 -13 14l114 715c1 5 3 7 8 7z" />
    <glyph glyph-name="Lacute" unicode="&#x139;" horiz-adv-x="550" 
d="M282 935h26c4 0 5 -2 5 -5v-6c0 -4 -2 -7 -5 -9l-113 -118c-3 -3 -5 -3 -9 -1l-9 9c-3 2 -3 5 0 8l97 119c2 2 4 3 8 3zM169 736h26c4 0 6 -2 5 -7l-110 -693h402c4 0 6 -2 5 -8l-3 -20c-1 -6 -3 -8 -8 -8h-426c-9 0 -14 4 -13 14l114 715c1 5 3 7 8 7z" />
    <glyph glyph-name="Lcaron" unicode="&#x13d;" horiz-adv-x="550" 
d="M169 736h26c4 0 6 -2 5 -7l-110 -693h402c4 0 6 -2 5 -8l-3 -20c-1 -6 -3 -8 -8 -8h-426c-9 0 -14 4 -13 14l114 715c1 5 3 7 8 7zM443 736h26c4 0 5 -3 5 -6v-6c0 -3 -2 -6 -4 -9l-114 -118c-3 -3 -5 -3 -8 -1l-10 9c-2 2 -2 5 0 8l97 119c2 2 4 4 8 4z" />
    <glyph glyph-name="Lcommaaccent" unicode="&#x13b;" horiz-adv-x="550" 
d="M169 736h26c4 0 6 -2 5 -7l-110 -693h402c4 0 6 -2 5 -8l-3 -20c-1 -6 -3 -8 -8 -8h-426c-9 0 -14 4 -13 14l114 715c1 5 3 7 8 7zM259 -36h24c4 0 5 -2 5 -6v-5c0 -4 -2 -7 -5 -9l-111 -118c-3 -3 -5 -3 -9 -1l-9 9c-3 2 -3 4 0 8l97 119c2 2 4 3 8 3z" />
    <glyph glyph-name="Ldot" unicode="&#x13f;" horiz-adv-x="550" 
d="M169 736h26c4 0 6 -2 5 -7l-110 -693h402c4 0 6 -2 5 -8l-3 -20c-1 -6 -3 -8 -8 -8h-426c-9 0 -14 4 -13 14l114 715c1 5 3 7 8 7zM333 294c19 0 29 -11 29 -29c0 -20 -10 -30 -29 -30c-18 0 -29 10 -29 30c0 18 11 29 29 29z" />
    <glyph glyph-name="Lslash" unicode="&#x141;" horiz-adv-x="552" 
d="M93 36h402c4 0 6 -2 5 -8l-3 -20c-1 -6 -3 -8 -8 -8h-426c-9 0 -14 4 -13 14l46 291l-73 -39c-3 -2 -6 0 -8 3l-8 16c-1 4 0 7 5 9l90 48l62 387c1 5 3 7 8 7h26c4 0 6 -2 5 -7l-58 -364l116 61c5 2 8 2 11 -3l6 -14c3 -4 2 -7 -3 -10l-136 -72z" />
    <glyph glyph-name="M" unicode="M" horiz-adv-x="887" 
d="M793 736h20c8 0 15 -5 14 -15l-55 -713c0 -6 -4 -8 -8 -8h-26c-5 0 -6 3 -6 8l52 671l-357 -651c-4 -8 -11 -12 -20 -12h-21c-9 0 -14 4 -16 12l-151 651l-160 -672c-2 -4 -4 -7 -8 -7h-26c-5 0 -7 3 -6 7l171 714c2 10 10 15 18 15h20c17 0 21 -12 27 -38l149 -641
l350 641c14 26 22 38 39 38z" />
    <glyph glyph-name="N" unicode="N" horiz-adv-x="747" 
d="M688 736h26c5 0 7 -3 6 -8l-114 -720c-1 -6 -4 -8 -8 -8h-32c-4 0 -9 -1 -16 10l-357 678l-108 -681c-1 -4 -4 -7 -8 -7h-26c-4 0 -6 2 -5 7l114 722c1 4 3 7 8 7h33c7 -1 12 0 20 -13l352 -669l107 675c1 4 4 7 8 7z" />
    <glyph glyph-name="Nacute" unicode="&#x143;" horiz-adv-x="747" 
d="M517 935h27c3 0 5 -2 5 -5v-6c0 -4 -2 -7 -5 -9l-114 -118c-2 -3 -5 -3 -8 -1l-10 9c-2 2 -2 5 0 8l97 119c2 2 5 3 8 3zM688 736h26c5 0 7 -3 6 -8l-114 -720c-1 -6 -4 -8 -8 -8h-32c-4 0 -9 -1 -16 10l-357 678l-108 -681c-1 -4 -4 -7 -8 -7h-26c-4 0 -6 2 -5 7
l114 722c1 4 3 7 8 7h33c7 -1 12 0 20 -13l352 -669l107 675c1 4 4 7 8 7z" />
    <glyph glyph-name="Ncaron" unicode="&#x147;" horiz-adv-x="747" 
d="M574 934l10 -8c2 -3 3 -5 0 -9l-115 -118c-2 -3 -4 -4 -8 -4h-18c-5 0 -7 0 -9 4l-77 118c-2 4 -1 5 2 8l13 9c3 2 6 2 8 -1l78 -99l108 99c3 3 6 3 8 1zM688 736h26c5 0 7 -3 6 -8l-114 -720c-1 -6 -4 -8 -8 -8h-32c-4 0 -9 -1 -16 10l-357 678l-108 -681
c-1 -4 -4 -7 -8 -7h-26c-4 0 -6 2 -5 7l114 722c1 4 3 7 8 7h33c7 -1 12 0 20 -13l352 -669l107 675c1 4 4 7 8 7z" />
    <glyph glyph-name="Ncommaaccent" unicode="&#x145;" horiz-adv-x="747" 
d="M688 736h26c5 0 7 -3 6 -8l-114 -720c-1 -6 -4 -8 -8 -8h-32c-4 0 -9 -1 -16 10l-357 678l-108 -681c-1 -4 -4 -7 -8 -7h-26c-4 0 -6 2 -5 7l114 722c1 4 3 7 8 7h33c7 -1 12 0 20 -13l352 -669l107 675c1 4 4 7 8 7zM351 -36h24c4 0 5 -2 5 -6v-5c0 -4 -2 -7 -5 -9
l-111 -118c-3 -3 -5 -3 -8 -1l-10 9c-3 2 -3 4 0 8l97 119c2 2 4 3 8 3z" />
    <glyph glyph-name="Eng" unicode="&#x14a;" horiz-adv-x="746" 
d="M688 736h26c5 0 7 -3 6 -8l-86 -542c-45 -295 -71 -384 -312 -384c-53 0 -67 2 -86 3c-4 1 -5 3 -5 7l3 20c0 4 3 6 8 6h85c153 0 206 42 236 165l-370 685l-108 -681c-1 -5 -4 -7 -8 -7h-26c-4 0 -6 2 -5 7l114 722c1 4 3 7 8 7h33c9 -1 14 -1 20 -13l355 -662l104 668
c1 4 4 7 8 7z" />
    <glyph glyph-name="Ntilde" unicode="&#xd1;" horiz-adv-x="747" 
d="M524 816c-59 0 -84 58 -127 58c-22 0 -36 -12 -57 -55c-3 -6 -5 -7 -10 -5l-14 2c-5 2 -4 4 -3 9c25 62 46 84 86 84c58 0 82 -58 126 -58c26 0 40 17 57 51c3 6 4 6 8 5l16 -1c4 -1 6 -3 3 -9c-23 -63 -48 -81 -85 -81zM688 736h26c5 0 7 -3 6 -8l-114 -720
c-1 -6 -4 -8 -8 -8h-32c-4 0 -9 -1 -16 10l-357 678l-108 -681c-1 -4 -4 -7 -8 -7h-26c-4 0 -6 2 -5 7l114 722c1 4 3 7 8 7h33c7 -1 12 0 20 -13l352 -669l107 675c1 4 4 7 8 7z" />
    <glyph glyph-name="O" unicode="O" horiz-adv-x="705" 
d="M421 741c232 0 269 -87 223 -375s-110 -371 -342 -371s-269 83 -223 371c45 288 110 375 342 375zM415 705c-202 0 -256 -78 -297 -339s-12 -335 190 -335c201 0 256 74 297 335s11 339 -190 339z" />
    <glyph glyph-name="Oacute" unicode="&#xd3;" horiz-adv-x="705" 
d="M522 935h26c4 0 5 -2 5 -5v-6c0 -4 -2 -7 -5 -9l-113 -118c-3 -3 -5 -3 -9 -1l-9 9c-3 2 -3 5 0 8l97 119c2 2 4 3 8 3zM421 741c232 0 269 -87 223 -375s-110 -371 -342 -371s-269 83 -223 371c45 288 110 375 342 375zM415 705c-202 0 -256 -78 -297 -339
s-12 -335 190 -335c201 0 256 74 297 335s11 339 -190 339z" />
    <glyph glyph-name="Obreve" unicode="&#x14e;" horiz-adv-x="705" 
d="M561 921h18c5 0 6 -2 5 -7c-16 -85 -49 -110 -145 -110c-97 0 -121 25 -111 110c1 5 3 7 7 7h19c4 0 6 -2 5 -6c-5 -61 13 -79 85 -79s96 18 109 79c2 4 3 6 8 6zM421 741c232 0 269 -87 223 -375s-110 -371 -342 -371s-269 83 -223 371c45 288 110 375 342 375zM415 705
c-202 0 -256 -78 -297 -339s-12 -335 190 -335c201 0 256 74 297 335s11 339 -190 339z" />
    <glyph glyph-name="Ocaron" unicode="&#x1d1;" horiz-adv-x="705" 
d="M553 934l10 -8c2 -3 3 -5 0 -9l-115 -118c-3 -3 -4 -4 -8 -4h-19c-5 0 -6 0 -8 4l-77 118c-2 4 -1 5 2 8l13 9c3 2 5 2 8 -1l77 -99l109 99c3 3 5 3 8 1zM421 741c232 0 269 -87 223 -375s-110 -371 -342 -371s-269 83 -223 371c45 288 110 375 342 375zM415 705
c-202 0 -256 -78 -297 -339s-12 -335 190 -335c201 0 256 74 297 335s11 339 -190 339z" />
    <glyph glyph-name="Ocircumflex" unicode="&#xd4;" horiz-adv-x="705" 
d="M441 935h19c5 0 6 0 8 -3l77 -119c2 -3 1 -6 -2 -8l-12 -9c-4 -2 -6 -2 -9 1l-76 100l-110 -100c-3 -3 -4 -3 -8 -1l-9 9c-3 2 -4 5 -1 8l115 119c3 2 4 3 8 3zM421 741c232 0 269 -87 223 -375s-110 -371 -342 -371s-269 83 -223 371c45 288 110 375 342 375zM415 705
c-202 0 -256 -78 -297 -339s-12 -335 190 -335c201 0 256 74 297 335s11 339 -190 339z" />
    <glyph glyph-name="Odieresis" unicode="&#xd6;" horiz-adv-x="705" 
d="M368 889c17 0 29 -8 26 -31c-3 -19 -14 -31 -35 -31c-18 0 -30 10 -27 31c4 21 18 31 36 31zM520 889c17 0 29 -8 26 -31c-3 -19 -15 -31 -35 -31c-18 0 -30 10 -27 31c4 21 18 31 36 31zM421 741c232 0 269 -87 223 -375s-110 -371 -342 -371s-269 83 -223 371
c45 288 110 375 342 375zM415 705c-202 0 -256 -78 -297 -339s-12 -335 190 -335c201 0 256 74 297 335s11 339 -190 339z" />
    <glyph glyph-name="Ograve" unicode="&#xd2;" horiz-adv-x="705" 
d="M361 935h28c3 0 5 -1 6 -3l59 -119c2 -3 1 -6 -2 -8l-13 -9c-3 -2 -6 -2 -8 1l-75 117c-1 2 -2 5 -2 8v8c0 3 4 5 7 5zM421 741c232 0 269 -87 223 -375s-110 -371 -342 -371s-269 83 -223 371c45 288 110 375 342 375zM415 705c-202 0 -256 -78 -297 -339
s-12 -335 190 -335c201 0 256 74 297 335s11 339 -190 339z" />
    <glyph glyph-name="Ohungarumlaut" unicode="&#x150;" horiz-adv-x="705" 
d="M431 935h27c3 0 5 -2 5 -5v-6c0 -4 -2 -7 -5 -9l-114 -118c-2 -3 -4 -3 -8 -1l-9 9c-3 2 -3 5 -1 8l97 119c3 2 5 3 8 3zM580 935h26c4 0 5 -2 5 -5v-6c0 -4 -2 -7 -4 -9l-114 -118c-3 -3 -5 -3 -8 -1l-10 9c-2 2 -2 5 0 8l97 119c2 2 4 3 8 3zM421 741
c232 0 269 -87 223 -375s-110 -371 -342 -371s-269 83 -223 371c45 288 110 375 342 375zM415 705c-202 0 -256 -78 -297 -339s-12 -335 190 -335c201 0 256 74 297 335s11 339 -190 339z" />
    <glyph glyph-name="Omacron" unicode="&#x14c;" horiz-adv-x="705" 
d="M323 866h236c5 0 7 -2 6 -7l-3 -20c-1 -5 -3 -7 -8 -7l-237 1c-4 0 -6 2 -5 7l3 19c1 5 3 7 8 7zM421 741c232 0 269 -87 223 -375s-110 -371 -342 -371s-269 83 -223 371c45 288 110 375 342 375zM415 705c-202 0 -256 -78 -297 -339s-12 -335 190 -335
c201 0 256 74 297 335s11 339 -190 339z" />
    <glyph glyph-name="Oslash" unicode="&#xd8;" horiz-adv-x="705" 
d="M302 -5c-96 0 -159 14 -195 51l-46 -52c-3 -4 -6 -5 -10 -1l-16 12c-3 3 -3 6 0 10l51 58c-32 56 -30 149 -7 293c45 288 110 375 342 375c100 0 164 -17 200 -60l37 43c4 4 6 5 11 1l16 -14c3 -2 3 -4 -1 -8l-43 -49c28 -59 24 -150 3 -288
c-46 -288 -110 -371 -342 -371zM415 705c-202 0 -256 -78 -297 -339c-20 -123 -23 -204 0 -256l473 537c-30 42 -85 58 -176 58zM607 616l-471 -536c32 -36 87 -49 172 -49c201 0 256 74 297 335c18 117 22 197 2 250z" />
    <glyph glyph-name="Oslashacute" unicode="&#x1fe;" horiz-adv-x="705" 
d="M510 935h27c3 0 5 -3 5 -6v-6c0 -3 -2 -6 -5 -9l-114 -118c-2 -3 -5 -3 -8 -1l-10 9c-2 2 -2 5 0 8l97 119c2 2 5 4 8 4zM644 366c-46 -288 -110 -371 -342 -371c-96 0 -159 14 -195 51l-46 -52c-3 -4 -6 -5 -10 -1l-16 12c-3 3 -3 6 0 10l51 58c-32 56 -30 149 -7 293
c45 288 110 375 342 375c100 0 164 -17 200 -60l37 43c4 4 6 5 11 1l16 -14c3 -2 3 -4 -1 -8l-43 -49c28 -59 24 -150 3 -288zM415 705c-202 0 -256 -78 -297 -339c-20 -123 -23 -204 0 -256l473 537c-30 42 -85 58 -176 58zM607 616l-471 -536c32 -36 87 -49 172 -49
c201 0 256 74 297 335c18 117 22 197 2 250z" />
    <glyph glyph-name="Otilde" unicode="&#xd5;" horiz-adv-x="705" 
d="M503 816c-59 0 -84 58 -127 58c-22 0 -37 -12 -57 -55c-3 -6 -5 -7 -10 -5l-14 2c-5 2 -5 4 -3 9c24 62 45 84 85 84c59 0 82 -58 127 -58c25 0 40 17 56 51c3 6 5 6 9 5l15 -1c5 -1 7 -3 4 -9c-23 -63 -48 -81 -85 -81zM421 741c232 0 269 -87 223 -375
s-110 -371 -342 -371s-269 83 -223 371c45 288 110 375 342 375zM415 705c-202 0 -256 -78 -297 -339s-12 -335 190 -335c201 0 256 74 297 335s11 339 -190 339z" />
    <glyph glyph-name="OE" unicode="&#x152;" horiz-adv-x="993" 
d="M422 741l316 -5h267c4 0 6 -3 5 -8l-4 -21c-1 -5 -3 -7 -8 -7h-386l-53 -332h349c4 0 7 -2 6 -7l-3 -22c-2 -5 -5 -7 -9 -7h-349l-47 -296h388c4 0 6 -3 5 -8l-3 -21c0 -4 -4 -7 -8 -7h-266l-319 -5c-232 -3 -269 83 -223 371c45 288 110 378 342 375zM572 705h-156
c-202 0 -256 -78 -297 -339s-12 -335 190 -335h157z" />
    <glyph glyph-name="P" unicode="P" horiz-adv-x="610" 
d="M327 741c231 0 302 -16 269 -229c-34 -214 -111 -227 -342 -227h-125l-44 -278c-1 -6 -3 -7 -8 -7h-26c-4 0 -7 1 -5 7l115 724c0 5 2 7 7 7c54 2 123 3 159 3zM319 705h-124l-61 -384h124c204 0 269 10 298 191c29 180 -33 193 -237 193z" />
    <glyph glyph-name="Thorn" unicode="&#xde;" horiz-adv-x="609" 
d="M168 738h26c4 0 6 -2 6 -7l-21 -133c45 1 96 1 123 1c231 0 303 -16 269 -229c-33 -213 -110 -229 -341 -229c-27 0 -78 1 -123 2l-22 -133c-1 -5 -4 -8 -8 -8h-26c-4 0 -6 3 -5 8l115 721c1 5 2 7 7 7zM296 563h-123l-61 -386h123c204 0 269 13 297 193
c28 181 -33 193 -236 193z" />
    <glyph glyph-name="Q" unicode="Q" horiz-adv-x="705" 
d="M421 741c232 0 269 -87 223 -375c-45 -279 -106 -366 -322 -371l15 -114c1 -5 -2 -8 -7 -8h-25c-5 0 -7 1 -8 7l-16 115c-214 5 -247 92 -202 371c45 288 110 375 342 375zM605 366c41 261 11 339 -190 339c-202 0 -256 -78 -297 -339s-12 -335 190 -335
c201 0 256 74 297 335z" />
    <glyph glyph-name="R" unicode="R" horiz-adv-x="620" 
d="M327 741c231 0 302 -16 269 -229c-27 -167 -78 -211 -211 -223l133 -281c2 -4 0 -8 -6 -8h-26c-9 0 -11 3 -14 9l-131 276h-212l-44 -278c-1 -5 -3 -7 -8 -7h-26c-4 0 -7 2 -5 8l115 723c0 5 2 7 7 7c54 2 123 3 159 3zM319 705h-124l-61 -384h124c204 0 269 10 298 191
c29 180 -33 193 -237 193z" />
    <glyph glyph-name="Racute" unicode="&#x154;" horiz-adv-x="620" 
d="M448 935h26c4 0 5 -2 5 -5v-6c0 -4 -2 -7 -5 -9l-113 -118c-3 -3 -5 -3 -8 -1l-10 9c-2 2 -2 5 0 8l97 119c2 2 4 3 8 3zM327 741c231 0 302 -16 269 -229c-27 -167 -78 -211 -211 -223l133 -281c2 -4 0 -8 -6 -8h-26c-9 0 -11 3 -14 9l-131 276h-212l-44 -278
c-1 -5 -3 -7 -8 -7h-26c-4 0 -7 2 -5 8l115 723c0 5 2 7 7 7c54 2 123 3 159 3zM319 705h-124l-61 -384h124c204 0 269 10 298 191c29 180 -33 193 -237 193z" />
    <glyph glyph-name="Rcaron" unicode="&#x158;" horiz-adv-x="620" 
d="M505 934l10 -8c2 -3 3 -5 0 -9l-115 -118c-2 -3 -4 -4 -8 -4h-18c-5 0 -7 0 -9 4l-77 118c-2 4 -1 5 2 8l13 9c3 2 6 2 8 -1l78 -99l108 99c3 3 6 3 8 1zM327 741c231 0 302 -16 269 -229c-27 -167 -78 -211 -211 -223l133 -281c2 -4 0 -8 -6 -8h-26c-9 0 -11 3 -14 9
l-131 276h-212l-44 -278c-1 -5 -3 -7 -8 -7h-26c-4 0 -7 2 -5 8l115 723c0 5 2 7 7 7c54 2 123 3 159 3zM319 705h-124l-61 -384h124c204 0 269 10 298 191c29 180 -33 193 -237 193z" />
    <glyph glyph-name="Rcommaaccent" unicode="&#x156;" horiz-adv-x="620" 
d="M327 741c231 0 302 -16 269 -229c-27 -167 -78 -211 -211 -223l133 -281c2 -4 0 -8 -6 -8h-26c-9 0 -11 3 -14 9l-131 276h-212l-44 -278c-1 -5 -3 -7 -8 -7h-26c-4 0 -7 2 -5 8l115 723c0 5 2 7 7 7c54 2 123 3 159 3zM319 705h-124l-61 -384h124c204 0 269 10 298 191
c29 180 -33 193 -237 193zM282 -36h24c4 0 5 -2 5 -6v-5c0 -4 -2 -7 -5 -9l-111 -118c-3 -3 -5 -3 -9 -1l-9 9c-3 2 -3 4 0 8l96 119c3 2 5 3 9 3z" />
    <glyph glyph-name="S" unicode="S" horiz-adv-x="580" 
d="M348 741c38 0 153 -1 207 -4c4 0 6 -3 6 -6l-4 -20c0 -4 -4 -6 -7 -6h-214c-118 0 -179 -36 -192 -119l-1 -10c-11 -65 -1 -99 72 -133l221 -102c94 -44 81 -132 75 -168l-4 -24c-25 -157 -154 -154 -260 -154c-39 0 -186 1 -240 4c-4 0 -7 2 -6 7l4 18c1 4 4 7 8 7h245
c88 0 191 0 210 119l4 21c4 29 15 100 -61 138l-223 103c-91 41 -97 87 -87 158l4 17c18 114 101 154 243 154z" />
    <glyph glyph-name="Sacute" unicode="&#x15a;" horiz-adv-x="580" 
d="M443 935h27c3 0 5 -2 5 -5v-6c0 -4 -2 -7 -5 -9l-114 -118c-2 -3 -4 -3 -8 -1l-9 9c-3 2 -3 5 -1 8l97 119c3 2 5 3 8 3zM348 741c38 0 153 -1 207 -4c4 0 6 -3 6 -6l-4 -20c0 -4 -4 -6 -7 -6h-214c-118 0 -179 -36 -192 -119l-1 -10c-11 -65 -1 -99 72 -133l221 -102
c94 -44 81 -132 75 -168l-4 -24c-25 -157 -154 -154 -260 -154c-39 0 -186 1 -240 4c-4 0 -7 2 -6 7l4 18c1 4 4 7 8 7h245c88 0 191 0 210 119l4 21c4 29 15 100 -61 138l-223 103c-91 41 -97 87 -87 158l4 17c18 114 101 154 243 154z" />
    <glyph glyph-name="Scaron" unicode="&#x160;" horiz-adv-x="580" 
d="M481 934l9 -8c3 -3 4 -5 1 -9l-116 -118c-2 -3 -3 -4 -7 -4h-19c-5 0 -6 0 -8 4l-77 118c-3 4 -1 5 1 8l13 9c4 2 6 2 9 -1l77 -99l108 99c4 3 6 3 9 1zM348 741c38 0 153 -1 207 -4c4 0 6 -3 6 -6l-4 -20c0 -4 -4 -6 -7 -6h-214c-118 0 -179 -36 -192 -119l-1 -10
c-11 -65 -1 -99 72 -133l221 -102c94 -44 81 -132 75 -168l-4 -24c-25 -157 -154 -154 -260 -154c-39 0 -186 1 -240 4c-4 0 -7 2 -6 7l4 18c1 4 4 7 8 7h245c88 0 191 0 210 119l4 21c4 29 15 100 -61 138l-223 103c-91 41 -97 87 -87 158l4 17c18 114 101 154 243 154z
" />
    <glyph glyph-name="Scedilla" unicode="&#x15e;" horiz-adv-x="580" 
d="M555 737c4 0 6 -3 6 -6l-4 -20c0 -4 -4 -6 -7 -6h-214c-118 0 -179 -36 -192 -119l-1 -10c-11 -65 -1 -99 72 -133l221 -102c94 -44 81 -132 75 -168l-4 -24c-24 -153 -147 -153 -250 -154c2 -28 3 -55 -1 -76c-9 -60 -35 -74 -93 -74c-10 0 -24 1 -48 4c-5 1 -6 3 -5 8
l3 15c1 5 3 7 8 7h42c40 0 56 6 63 47c2 17 2 43 -1 69c-57 0 -171 1 -218 4c-4 0 -7 2 -6 7l4 18c1 4 4 7 8 7h245c88 0 191 0 210 119l4 21c4 29 15 100 -61 138l-223 103c-91 41 -97 87 -87 158l4 17c18 114 101 154 243 154c38 0 153 -1 207 -4z" />
    <glyph glyph-name="Scircumflex" unicode="&#x15c;" horiz-adv-x="580" 
d="M369 935h19c5 0 6 0 8 -3l77 -119c2 -3 1 -6 -2 -8l-12 -9c-4 -2 -6 -2 -9 1l-76 100l-110 -100c-3 -3 -4 -3 -8 -1l-9 9c-3 2 -4 5 -1 8l115 119c3 2 4 3 8 3zM348 741c38 0 153 -1 207 -4c4 0 6 -3 6 -6l-4 -20c0 -4 -4 -6 -7 -6h-214c-118 0 -179 -36 -192 -119
l-1 -10c-11 -65 -1 -99 72 -133l221 -102c94 -44 81 -132 75 -168l-4 -24c-25 -157 -154 -154 -260 -154c-39 0 -186 1 -240 4c-4 0 -7 2 -6 7l4 18c1 4 4 7 8 7h245c88 0 191 0 210 119l4 21c4 29 15 100 -61 138l-223 103c-91 41 -97 87 -87 158l4 17
c18 114 101 154 243 154z" />
    <glyph glyph-name="Scommaaccent" unicode="&#x218;" horiz-adv-x="580" 
d="M348 741c38 0 153 -1 207 -4c4 0 6 -3 6 -6l-4 -20c0 -4 -4 -6 -7 -6h-214c-118 0 -179 -36 -192 -119l-1 -10c-11 -65 -1 -99 72 -133l221 -102c94 -44 81 -132 75 -168l-4 -24c-25 -157 -154 -154 -260 -154c-39 0 -186 1 -240 4c-4 0 -7 2 -6 7l4 18c1 4 4 7 8 7h245
c88 0 191 0 210 119l4 21c4 29 15 100 -61 138l-223 103c-91 41 -97 87 -87 158l4 17c18 114 101 154 243 154zM229 -36h24c4 0 5 -2 5 -6v-5c0 -4 -2 -7 -5 -9l-111 -118c-3 -3 -5 -3 -9 -1l-9 9c-3 2 -3 4 0 8l97 119c2 2 4 3 8 3z" />
    <glyph glyph-name="T" unicode="T" horiz-adv-x="568" 
d="M85 736h534c4 0 6 -3 5 -8l-4 -21c-1 -5 -3 -7 -8 -7h-245l-110 -692c-1 -5 -4 -8 -8 -8h-26c-4 0 -7 3 -6 8l110 692h-247c-4 0 -8 1 -7 7l4 22c1 5 4 7 8 7z" />
    <glyph glyph-name="Tbar" unicode="&#x166;" horiz-adv-x="575" 
d="M88 736h533c4 0 7 -3 6 -8l-4 -21c-1 -5 -4 -7 -8 -7h-246l-49 -311h112c4 0 7 -3 6 -7l-3 -20c-1 -4 -4 -6 -8 -6h-112l-56 -348c-1 -5 -3 -8 -8 -8h-26c-4 0 -6 3 -5 8l55 348h-114c-4 0 -6 1 -5 6l3 20c1 4 3 7 7 7h114l50 311h-248c-4 0 -7 1 -6 7l4 22c1 5 4 7 8 7z
" />
    <glyph glyph-name="Tcaron" unicode="&#x164;" horiz-adv-x="568" 
d="M485 934l10 -8c2 -3 3 -5 0 -9l-115 -118c-2 -3 -4 -4 -8 -4h-18c-5 0 -7 0 -9 4l-77 118c-2 4 -1 5 2 8l13 9c3 2 5 2 8 -1l78 -99l108 99c3 3 6 3 8 1zM85 736h534c4 0 6 -3 5 -8l-4 -21c-1 -5 -3 -7 -8 -7h-245l-110 -692c-1 -5 -4 -8 -8 -8h-26c-4 0 -7 3 -6 8
l110 692h-247c-4 0 -8 1 -7 7l4 22c1 5 4 7 8 7z" />
    <glyph glyph-name="Tcedilla" unicode="&#x162;" horiz-adv-x="568" 
d="M85 736h534c4 0 6 -3 5 -8l-4 -21c-1 -5 -3 -7 -8 -7h-245l-111 -695c4 -36 4 -63 0 -86c-9 -60 -35 -74 -93 -74c-10 0 -24 1 -48 4c-5 1 -6 3 -5 8l3 15c1 5 3 7 8 7h42c40 0 56 6 63 47c3 18 4 46 2 74h-7c-3 0 -5 3 -4 8l110 692h-247c-4 0 -8 1 -7 7l4 22
c1 5 4 7 8 7z" />
    <glyph glyph-name="uni021A" unicode="&#x21a;" horiz-adv-x="568" 
d="M85 736h534c4 0 6 -3 5 -8l-4 -21c-1 -5 -3 -7 -8 -7h-245l-110 -692c-1 -5 -4 -8 -8 -8h-26c-4 0 -7 3 -6 8l110 692h-247c-4 0 -8 1 -7 7l4 22c1 5 4 7 8 7zM218 -36h24c4 0 5 -2 5 -6v-5c0 -4 -2 -7 -5 -9l-111 -118c-3 -3 -5 -3 -9 -1l-9 9c-3 2 -3 4 0 8l97 119
c2 2 4 3 8 3z" />
    <glyph glyph-name="U" unicode="U" horiz-adv-x="725" 
d="M673 736h26c5 0 7 -3 6 -8l-57 -360c-48 -298 -114 -373 -335 -373s-264 75 -217 373l57 361c1 4 4 7 8 7h26c5 0 7 -3 6 -8l-57 -360c-43 -269 -7 -337 182 -337c190 0 248 68 290 337l57 361c1 4 4 7 8 7z" />
    <glyph glyph-name="Uacute" unicode="&#xda;" horiz-adv-x="725" 
d="M506 935h27c3 0 5 -2 5 -5v-6c0 -4 -2 -7 -5 -9l-114 -118c-2 -3 -5 -3 -8 -1l-10 9c-2 2 -2 5 0 8l97 119c2 2 5 3 8 3zM673 736h26c5 0 7 -3 6 -8l-57 -360c-48 -298 -114 -373 -335 -373s-264 75 -217 373l57 361c1 4 4 7 8 7h26c5 0 7 -3 6 -8l-57 -360
c-43 -269 -7 -337 182 -337c190 0 248 68 290 337l57 361c1 4 4 7 8 7z" />
    <glyph glyph-name="Ubreve" unicode="&#x16c;" horiz-adv-x="725" 
d="M563 921h19c4 0 5 -2 4 -7c-16 -85 -49 -110 -145 -110s-121 25 -111 110c1 5 3 7 7 7h19c4 0 6 -2 5 -6c-5 -61 13 -79 85 -79s96 18 109 79c2 4 4 6 8 6zM673 736h26c5 0 7 -3 6 -8l-57 -360c-48 -298 -114 -373 -335 -373s-264 75 -217 373l57 361c1 4 4 7 8 7h26
c5 0 7 -3 6 -8l-57 -360c-43 -269 -7 -337 182 -337c190 0 248 68 290 337l57 361c1 4 4 7 8 7z" />
    <glyph glyph-name="Ucaron" unicode="&#x1d3;" horiz-adv-x="725" 
d="M563 934l10 -8c2 -3 3 -5 0 -9l-115 -118c-2 -3 -4 -4 -8 -4h-18c-5 0 -6 0 -8 4l-78 118c-2 4 -1 5 2 8l13 9c3 2 6 2 8 -1l78 -99l108 99c3 3 6 3 8 1zM673 736h26c5 0 7 -3 6 -8l-57 -360c-48 -298 -114 -373 -335 -373s-264 75 -217 373l57 361c1 4 4 7 8 7h26
c5 0 7 -3 6 -8l-57 -360c-43 -269 -7 -337 182 -337c190 0 248 68 290 337l57 361c1 4 4 7 8 7z" />
    <glyph glyph-name="Ucircumflex" unicode="&#xdb;" horiz-adv-x="725" 
d="M452 935h19c4 0 5 0 7 -3l78 -119c2 -3 1 -6 -3 -8l-12 -9c-3 -2 -6 -2 -8 1l-77 100l-109 -100c-4 -3 -5 -3 -8 -1l-10 9c-2 2 -3 5 0 8l115 119c2 2 4 3 8 3zM673 736h26c5 0 7 -3 6 -8l-57 -360c-48 -298 -114 -373 -335 -373s-264 75 -217 373l57 361c1 4 4 7 8 7h26
c5 0 7 -3 6 -8l-57 -360c-43 -269 -7 -337 182 -337c190 0 248 68 290 337l57 361c1 4 4 7 8 7z" />
    <glyph glyph-name="Udieresis" unicode="&#xdc;" horiz-adv-x="725" 
d="M378 889c18 0 30 -8 26 -31c-3 -19 -14 -31 -34 -31c-19 0 -31 10 -27 31c3 21 17 31 35 31zM530 889c17 0 29 -8 26 -31c-3 -19 -14 -31 -35 -31c-18 0 -30 10 -26 31c3 21 17 31 35 31zM673 736h26c5 0 7 -3 6 -8l-57 -360c-48 -298 -114 -373 -335 -373
s-264 75 -217 373l57 361c1 4 4 7 8 7h26c5 0 7 -3 6 -8l-57 -360c-43 -269 -7 -337 182 -337c190 0 248 68 290 337l57 361c1 4 4 7 8 7z" />
    <glyph glyph-name="Udieresisacute" unicode="&#x1d7;" horiz-adv-x="725" 
d="M548 1051h27c3 0 5 -2 5 -6v-5c0 -4 -2 -7 -5 -9l-114 -118c-2 -3 -4 -3 -8 -1l-9 9c-3 2 -3 4 -1 8l97 119c3 2 5 3 8 3zM378 889c18 0 30 -8 26 -31c-3 -19 -14 -31 -34 -31c-19 0 -31 10 -27 31c3 21 17 31 35 31zM530 889c17 0 29 -8 26 -31c-3 -19 -14 -31 -35 -31
c-18 0 -30 10 -26 31c3 21 17 31 35 31zM673 736h26c5 0 7 -3 6 -8l-57 -360c-48 -298 -114 -373 -335 -373s-264 75 -217 373l57 361c1 4 4 7 8 7h26c5 0 7 -3 6 -8l-57 -360c-43 -269 -7 -337 182 -337c190 0 248 68 290 337l57 361c1 4 4 7 8 7z" />
    <glyph glyph-name="Udieresiscaron" unicode="&#x1d9;" horiz-adv-x="725" 
d="M584 1050l10 -9c2 -2 3 -5 0 -8l-115 -119c-3 -2 -4 -4 -8 -4h-18c-5 0 -7 1 -9 4l-77 119c-2 3 -1 5 2 7l13 10c3 2 5 2 8 -1l78 -100l108 100c3 3 5 3 8 1zM378 889c18 0 30 -8 26 -31c-3 -19 -14 -31 -34 -31c-19 0 -31 10 -27 31c3 21 17 31 35 31zM530 889
c17 0 29 -8 26 -31c-3 -19 -14 -31 -35 -31c-18 0 -30 10 -26 31c3 21 17 31 35 31zM673 736h26c5 0 7 -3 6 -8l-57 -360c-48 -298 -114 -373 -335 -373s-264 75 -217 373l57 361c1 4 4 7 8 7h26c5 0 7 -3 6 -8l-57 -360c-43 -269 -7 -337 182 -337c190 0 248 68 290 337
l57 361c1 4 4 7 8 7z" />
    <glyph glyph-name="Udieresisgrave" unicode="&#x1db;" horiz-adv-x="725" 
d="M379 1051h27c3 0 5 -1 6 -3l60 -119c1 -4 1 -6 -3 -8l-13 -9c-3 -2 -5 -2 -8 1l-75 116c-1 3 -1 6 -1 9v7c0 4 3 6 7 6zM378 889c18 0 30 -8 26 -31c-3 -19 -14 -31 -34 -31c-19 0 -31 10 -27 31c3 21 17 31 35 31zM530 889c17 0 29 -8 26 -31c-3 -19 -14 -31 -35 -31
c-18 0 -30 10 -26 31c3 21 17 31 35 31zM673 736h26c5 0 7 -3 6 -8l-57 -360c-48 -298 -114 -373 -335 -373s-264 75 -217 373l57 361c1 4 4 7 8 7h26c5 0 7 -3 6 -8l-57 -360c-43 -269 -7 -337 182 -337c190 0 248 68 290 337l57 361c1 4 4 7 8 7z" />
    <glyph glyph-name="Udieresismacron" unicode="&#x1d5;" horiz-adv-x="725" 
d="M345 990h236c5 0 7 -2 6 -7l-3 -20c-1 -5 -3 -7 -8 -7l-237 1c-4 0 -6 2 -5 7l3 19c1 5 3 7 8 7zM378 889c18 0 30 -8 26 -31c-3 -19 -14 -31 -34 -31c-19 0 -31 10 -27 31c3 21 17 31 35 31zM530 889c17 0 29 -8 26 -31c-3 -19 -14 -31 -35 -31c-18 0 -30 10 -26 31
c3 21 17 31 35 31zM673 736h26c5 0 7 -3 6 -8l-57 -360c-48 -298 -114 -373 -335 -373s-264 75 -217 373l57 361c1 4 4 7 8 7h26c5 0 7 -3 6 -8l-57 -360c-43 -269 -7 -337 182 -337c190 0 248 68 290 337l57 361c1 4 4 7 8 7z" />
    <glyph glyph-name="Ugrave" unicode="&#xd9;" horiz-adv-x="725" 
d="M372 935h27c4 0 5 -1 6 -3l60 -119c1 -3 1 -6 -3 -8l-12 -9c-4 -2 -6 -2 -9 1l-75 117c-1 2 -1 5 -1 8v8c0 3 3 5 7 5zM673 736h26c5 0 7 -3 6 -8l-57 -360c-48 -298 -114 -373 -335 -373s-264 75 -217 373l57 361c1 4 4 7 8 7h26c5 0 7 -3 6 -8l-57 -360
c-43 -269 -7 -337 182 -337c190 0 248 68 290 337l57 361c1 4 4 7 8 7z" />
    <glyph glyph-name="Uhungarumlaut" unicode="&#x170;" horiz-adv-x="725" 
d="M402 935h27c3 0 5 -2 5 -5v-6c0 -4 -2 -7 -5 -9l-113 -118c-3 -3 -5 -3 -9 -1l-9 9c-3 2 -3 5 -1 8l97 119c3 2 5 3 8 3zM551 935h26c4 0 5 -2 5 -5v-6c0 -4 -1 -7 -4 -9l-114 -118c-2 -3 -5 -3 -8 -1l-10 9c-2 2 -2 5 0 8l97 119c2 2 4 3 8 3zM673 736h26c5 0 7 -3 6 -8
l-57 -360c-48 -298 -114 -373 -335 -373s-264 75 -217 373l57 361c1 4 4 7 8 7h26c5 0 7 -3 6 -8l-57 -360c-43 -269 -7 -337 182 -337c190 0 248 68 290 337l57 361c1 4 4 7 8 7z" />
    <glyph glyph-name="Umacron" unicode="&#x16a;" horiz-adv-x="725" 
d="M333 866h236c5 0 8 -2 6 -7l-2 -20c-1 -5 -4 -7 -8 -7l-237 1c-4 0 -7 2 -6 7l3 19c1 5 4 7 8 7zM673 736h26c5 0 7 -3 6 -8l-57 -360c-48 -298 -114 -373 -335 -373s-264 75 -217 373l57 361c1 4 4 7 8 7h26c5 0 7 -3 6 -8l-57 -360c-43 -269 -7 -337 182 -337
c190 0 248 68 290 337l57 361c1 4 4 7 8 7z" />
    <glyph glyph-name="Uogonek" unicode="&#x172;" horiz-adv-x="725" 
d="M673 736h26c5 0 7 -3 6 -8l-57 -360c-47 -293 -112 -371 -325 -373c-8 -20 -18 -46 -22 -69c-6 -41 6 -47 47 -47h43c5 0 6 -2 5 -7l-2 -15c-1 -4 -3 -7 -8 -8c-11 -3 -48 -4 -59 -4c-47 0 -70 20 -60 74c4 20 13 49 24 76c-202 6 -240 85 -195 373l57 361c1 4 4 7 8 7
h26c5 0 7 -3 6 -8l-57 -360c-43 -269 -7 -337 182 -337c190 0 248 68 290 337l57 361c1 4 4 7 8 7z" />
    <glyph glyph-name="Uring" unicode="&#x16e;" horiz-adv-x="725" 
d="M468 972c61 0 87 -30 78 -88c-9 -59 -45 -89 -106 -89s-87 30 -77 89c9 58 44 88 105 88zM463 946c-41 0 -65 -21 -71 -62c-6 -40 10 -62 51 -62c42 0 67 22 73 62c6 41 -11 62 -53 62zM673 736h26c5 0 7 -3 6 -8l-57 -360c-48 -298 -114 -373 -335 -373
s-264 75 -217 373l57 361c1 4 4 7 8 7h26c5 0 7 -3 6 -8l-57 -360c-43 -269 -7 -337 182 -337c190 0 248 68 290 337l57 361c1 4 4 7 8 7z" />
    <glyph glyph-name="Utilde" unicode="&#x168;" horiz-adv-x="725" 
d="M513 816c-58 0 -83 58 -127 58c-21 0 -36 -12 -57 -55c-3 -6 -5 -7 -10 -5l-14 2c-5 2 -4 4 -2 9c24 62 45 84 85 84c59 0 82 -58 126 -58c26 0 40 17 57 51c3 6 4 6 8 5l16 -1c4 -1 6 -3 4 -9c-24 -63 -49 -81 -86 -81zM673 736h26c5 0 7 -3 6 -8l-57 -360
c-48 -298 -114 -373 -335 -373s-264 75 -217 373l57 361c1 4 4 7 8 7h26c5 0 7 -3 6 -8l-57 -360c-43 -269 -7 -337 182 -337c190 0 248 68 290 337l57 361c1 4 4 7 8 7z" />
    <glyph glyph-name="V" unicode="V" horiz-adv-x="616" 
d="M613 736h27c6 0 8 -3 5 -8l-277 -620c-43 -97 -51 -113 -111 -113c-58 0 -60 16 -73 113l-80 619c-1 6 1 9 7 9h29c4 0 5 -2 6 -6l77 -613c9 -78 11 -86 40 -86c30 0 36 8 68 86l274 612c1 4 3 7 8 7z" />
    <glyph glyph-name="W" unicode="W" horiz-adv-x="1035" 
d="M1029 736h29c6 0 7 -3 4 -8l-265 -620c-41 -97 -51 -113 -109 -113c-60 0 -66 16 -74 113l-46 518l-211 -518c-39 -97 -50 -113 -110 -113c-58 0 -63 16 -73 113l-69 619c-1 6 1 9 6 9h30c3 0 5 -2 6 -6l66 -613c8 -78 10 -86 39 -86c31 0 37 8 69 86l236 580
c2 5 4 7 9 7h28c5 0 6 -2 7 -6l52 -581c8 -78 10 -86 40 -86s35 9 68 86l260 612c2 5 4 7 8 7z" />
    <glyph glyph-name="Wacute" unicode="&#x1e82;" horiz-adv-x="1035" 
d="M698 935h26c4 0 5 -2 5 -5v-6c0 -4 -2 -7 -4 -9l-114 -118c-3 -3 -5 -3 -8 -1l-10 9c-2 2 -2 5 0 8l97 119c2 2 4 3 8 3zM1029 736h29c6 0 7 -3 4 -8l-265 -620c-41 -97 -51 -113 -109 -113c-60 0 -66 16 -74 113l-46 518l-211 -518c-39 -97 -50 -113 -110 -113
c-58 0 -63 16 -73 113l-69 619c-1 6 1 9 6 9h30c3 0 5 -2 6 -6l66 -613c8 -78 10 -86 39 -86c31 0 37 8 69 86l236 580c2 5 4 7 9 7h28c5 0 6 -2 7 -6l52 -581c8 -78 10 -86 40 -86s35 9 68 86l260 612c2 5 4 7 8 7z" />
    <glyph glyph-name="Wcircumflex" unicode="&#x174;" horiz-adv-x="1035" 
d="M607 935h19c4 0 6 0 8 -3l77 -119c2 -3 1 -6 -3 -8l-12 -9c-3 -2 -6 -2 -8 1l-77 100l-109 -100c-3 -3 -5 -3 -8 -1l-10 9c-2 2 -3 5 0 8l115 119c2 2 4 3 8 3zM1029 736h29c6 0 7 -3 4 -8l-265 -620c-41 -97 -51 -113 -109 -113c-60 0 -66 16 -74 113l-46 518l-211 -518
c-39 -97 -50 -113 -110 -113c-58 0 -63 16 -73 113l-69 619c-1 6 1 9 6 9h30c3 0 5 -2 6 -6l66 -613c8 -78 10 -86 39 -86c31 0 37 8 69 86l236 580c2 5 4 7 9 7h28c5 0 6 -2 7 -6l52 -581c8 -78 10 -86 40 -86s35 9 68 86l260 612c2 5 4 7 8 7z" />
    <glyph glyph-name="Wdieresis" unicode="&#x1e84;" horiz-adv-x="1035" 
d="M534 889c17 0 29 -8 25 -31c-2 -19 -14 -31 -34 -31c-18 0 -31 10 -27 31c3 21 17 31 36 31zM685 889c18 0 30 -8 26 -31c-3 -19 -14 -31 -35 -31c-18 0 -30 10 -26 31c3 21 17 31 35 31zM1029 736h29c6 0 7 -3 4 -8l-265 -620c-41 -97 -51 -113 -109 -113
c-60 0 -66 16 -74 113l-46 518l-211 -518c-39 -97 -50 -113 -110 -113c-58 0 -63 16 -73 113l-69 619c-1 6 1 9 6 9h30c3 0 5 -2 6 -6l66 -613c8 -78 10 -86 39 -86c31 0 37 8 69 86l236 580c2 5 4 7 9 7h28c5 0 6 -2 7 -6l52 -581c8 -78 10 -86 40 -86s35 9 68 86l260 612
c2 5 4 7 8 7z" />
    <glyph glyph-name="Wgrave" unicode="&#x1e80;" horiz-adv-x="1035" 
d="M527 935h27c4 0 5 -1 6 -3l60 -119c1 -3 1 -6 -2 -8l-13 -9c-4 -2 -6 -2 -9 1l-74 117c-2 2 -2 5 -2 8v8c0 3 3 5 7 5zM1029 736h29c6 0 7 -3 4 -8l-265 -620c-41 -97 -51 -113 -109 -113c-60 0 -66 16 -74 113l-46 518l-211 -518c-39 -97 -50 -113 -110 -113
c-58 0 -63 16 -73 113l-69 619c-1 6 1 9 6 9h30c3 0 5 -2 6 -6l66 -613c8 -78 10 -86 39 -86c31 0 37 8 69 86l236 580c2 5 4 7 9 7h28c5 0 6 -2 7 -6l52 -581c8 -78 10 -86 40 -86s35 9 68 86l260 612c2 5 4 7 8 7z" />
    <glyph glyph-name="X" unicode="X" horiz-adv-x="584" 
d="M575 736h32c6 0 7 -4 3 -9l-281 -341l192 -377c3 -5 0 -9 -5 -9h-33c-5 0 -7 2 -9 5l-174 345l-285 -345c-2 -3 -5 -5 -10 -5h-33c-5 0 -7 4 -4 9l313 377l-173 341c-3 5 0 9 6 9h31c6 0 7 -3 9 -6l157 -307l254 307c2 4 5 6 10 6z" />
    <glyph glyph-name="Y" unicode="Y" horiz-adv-x="606" 
d="M626 736h30c5 0 8 -3 4 -9l-353 -517l-32 -203c-1 -5 -4 -7 -8 -7h-26c-4 0 -7 3 -6 8l33 202l-190 517c-2 6 1 9 7 9h29c5 0 7 -1 9 -8l172 -469l320 471c3 4 6 6 11 6z" />
    <glyph glyph-name="Yacute" unicode="&#xdd;" horiz-adv-x="606" 
d="M476 935h27c3 0 5 -2 5 -5v-6c0 -4 -2 -7 -5 -9l-114 -118c-2 -3 -5 -3 -8 -1l-10 9c-2 2 -2 5 0 8l97 119c2 2 5 3 8 3zM626 736h30c5 0 8 -3 4 -9l-353 -517l-32 -203c-1 -5 -4 -7 -8 -7h-26c-4 0 -7 3 -6 8l33 202l-190 517c-2 6 1 9 7 9h29c5 0 7 -1 9 -8l172 -469
l320 471c3 4 6 6 11 6z" />
    <glyph glyph-name="Ycircumflex" unicode="&#x176;" horiz-adv-x="606" 
d="M392 935h19c5 0 6 0 8 -3l77 -119c2 -3 1 -6 -2 -8l-12 -9c-4 -2 -6 -2 -9 1l-77 100l-109 -100c-3 -3 -4 -3 -8 -1l-10 9c-2 2 -3 5 0 8l115 119c3 2 4 3 8 3zM626 736h30c5 0 8 -3 4 -9l-353 -517l-32 -203c-1 -5 -4 -7 -8 -7h-26c-4 0 -7 3 -6 8l33 202l-190 517
c-2 6 1 9 7 9h29c5 0 7 -1 9 -8l172 -469l320 471c3 4 6 6 11 6z" />
    <glyph glyph-name="Ydieresis" unicode="&#x178;" horiz-adv-x="606" 
d="M319 889c17 0 29 -8 26 -31c-3 -19 -14 -31 -35 -31c-18 0 -30 10 -27 31c4 21 18 31 36 31zM471 889c17 0 29 -8 25 -31c-2 -19 -14 -31 -34 -31c-18 0 -30 10 -27 31c4 21 18 31 36 31zM626 736h30c5 0 8 -3 4 -9l-353 -517l-32 -203c-1 -5 -4 -7 -8 -7h-26
c-4 0 -7 3 -6 8l33 202l-190 517c-2 6 1 9 7 9h29c5 0 7 -1 9 -8l172 -469l320 471c3 4 6 6 11 6z" />
    <glyph glyph-name="Ygrave" unicode="&#x1ef2;" horiz-adv-x="606" 
d="M312 935h28c3 0 4 -1 6 -3l59 -119c2 -3 1 -6 -2 -8l-13 -9c-3 -2 -6 -2 -8 1l-75 117c-1 2 -2 5 -2 8v8c0 3 4 5 7 5zM626 736h30c5 0 8 -3 4 -9l-353 -517l-32 -203c-1 -5 -4 -7 -8 -7h-26c-4 0 -7 3 -6 8l33 202l-190 517c-2 6 1 9 7 9h29c5 0 7 -1 9 -8l172 -469
l320 471c3 4 6 6 11 6z" />
    <glyph glyph-name="Ytilde" unicode="&#x1ef8;" horiz-adv-x="606" 
d="M454 816c-59 0 -84 58 -127 58c-22 0 -37 -12 -57 -55c-3 -6 -5 -7 -10 -5l-14 2c-5 2 -5 4 -3 9c24 62 45 84 85 84c59 0 82 -58 127 -58c25 0 40 17 56 51c3 6 5 6 9 5l15 -1c5 -1 7 -3 4 -9c-23 -63 -48 -81 -85 -81zM626 736h30c5 0 8 -3 4 -9l-353 -517l-32 -203
c-1 -5 -4 -7 -8 -7h-26c-4 0 -7 3 -6 8l33 202l-190 517c-2 6 1 9 7 9h29c5 0 7 -1 9 -8l172 -469l320 471c3 4 6 6 11 6z" />
    <glyph glyph-name="Z" unicode="Z" horiz-adv-x="610" 
d="M116 736h510c8 0 11 -3 10 -11l-2 -14c-1 -7 -2 -9 -8 -15l-587 -660h490c4 0 7 -3 5 -8l-3 -20c-1 -5 -4 -8 -8 -8h-532c-8 0 -10 3 -9 10l2 11c1 7 3 9 9 16l589 663h-471c-4 0 -8 2 -7 7l4 21c1 6 4 8 8 8z" />
    <glyph glyph-name="Zacute" unicode="&#x179;" horiz-adv-x="610" 
d="M453 935h27c3 0 5 -2 5 -5v-6c0 -4 -2 -7 -5 -9l-113 -118c-3 -3 -5 -3 -9 -1l-9 9c-3 2 -3 5 -1 8l97 119c3 2 5 3 8 3zM116 736h510c8 0 11 -3 10 -11l-2 -14c-1 -7 -2 -9 -8 -15l-587 -660h490c4 0 7 -3 5 -8l-3 -20c-1 -5 -4 -8 -8 -8h-532c-8 0 -10 3 -9 10l2 11
c1 7 3 9 9 16l589 663h-471c-4 0 -8 2 -7 7l4 21c1 6 4 8 8 8z" />
    <glyph glyph-name="Zcaron" unicode="&#x17d;" horiz-adv-x="610" 
d="M505 934l10 -8c2 -3 3 -5 0 -9l-115 -118c-2 -3 -4 -4 -8 -4h-18c-5 0 -6 0 -8 4l-78 118c-2 4 -1 5 2 8l13 9c3 2 6 2 8 -1l78 -99l108 99c3 3 6 3 8 1zM116 736h510c8 0 11 -3 10 -11l-2 -14c-1 -7 -2 -9 -8 -15l-587 -660h490c4 0 7 -3 5 -8l-3 -20c-1 -5 -4 -8 -8 -8
h-532c-8 0 -10 3 -9 10l2 11c1 7 3 9 9 16l589 663h-471c-4 0 -8 2 -7 7l4 21c1 6 4 8 8 8z" />
    <glyph glyph-name="Zdotaccent" unicode="&#x17b;" horiz-adv-x="610" 
d="M397 889c20 0 28 -11 26 -31c-3 -18 -14 -31 -36 -31c-19 0 -29 11 -26 31c4 22 18 31 36 31zM116 736h510c8 0 11 -3 10 -11l-2 -14c-1 -7 -2 -9 -8 -15l-587 -660h490c4 0 7 -3 5 -8l-3 -20c-1 -5 -4 -8 -8 -8h-532c-8 0 -10 3 -9 10l2 11c1 7 3 9 9 16l589 663h-471
c-4 0 -8 2 -7 7l4 21c1 6 4 8 8 8z" />
    <glyph glyph-name="Q.alt" horiz-adv-x="705" 
d="M644 366c-41 -257 -96 -351 -272 -368l160 -102c4 -3 4 -7 2 -10l-15 -19c-3 -4 -6 -4 -8 -2l-203 130h-6c-232 0 -269 83 -223 371c45 288 110 375 342 375s269 -87 223 -375zM308 31c201 0 256 74 297 335s11 339 -190 339c-202 0 -256 -78 -297 -339
s-12 -335 190 -335z" />
    <glyph glyph-name="a" unicode="a" horiz-adv-x="504" 
d="M252 538c110 0 207 -27 187 -157l-56 -353c-1 -8 -4 -15 -21 -19c-41 -11 -152 -14 -195 -14c-137 0 -170 43 -151 155c14 93 62 138 177 138h192l15 90c16 103 -64 125 -153 125h-116c-4 0 -7 2 -6 8l3 13c1 7 2 8 7 9c47 5 84 5 117 5zM380 253h-193
c-88 0 -122 -33 -133 -103c-13 -86 8 -120 122 -120c26 0 122 1 170 11z" />
    <glyph glyph-name="aacute" unicode="&#xe1;" horiz-adv-x="504" 
d="M363 735h27c3 0 5 -2 5 -5v-6c0 -4 -2 -7 -5 -9l-113 -118c-3 -3 -5 -3 -9 -1l-9 9c-3 2 -3 5 -1 8l97 119c3 2 5 3 8 3zM252 538c110 0 207 -27 187 -157l-56 -353c-1 -8 -4 -15 -21 -19c-41 -11 -152 -14 -195 -14c-137 0 -170 43 -151 155c14 93 62 138 177 138h192
l15 90c16 103 -64 125 -153 125h-116c-4 0 -7 2 -6 8l3 13c1 7 2 8 7 9c47 5 84 5 117 5zM380 253h-193c-88 0 -122 -33 -133 -103c-13 -86 8 -120 122 -120c26 0 122 1 170 11z" />
    <glyph glyph-name="abreve" unicode="&#x103;" horiz-adv-x="504" 
d="M417 721h19c5 0 6 -2 4 -7c-15 -85 -48 -110 -145 -110c-96 0 -121 25 -110 110c1 5 2 7 7 7h19c4 0 5 -2 5 -6c-6 -61 12 -79 84 -79c73 0 96 18 110 79c1 4 3 6 7 6zM252 538c110 0 207 -27 187 -157l-56 -353c-1 -8 -4 -15 -21 -19c-41 -11 -152 -14 -195 -14
c-137 0 -170 43 -151 155c14 93 62 138 177 138h192l15 90c16 103 -64 125 -153 125h-116c-4 0 -7 2 -6 8l3 13c1 7 2 8 7 9c47 5 84 5 117 5zM380 253h-193c-88 0 -122 -33 -133 -103c-13 -86 8 -120 122 -120c26 0 122 1 170 11z" />
    <glyph glyph-name="acaron" unicode="&#x1ce;" horiz-adv-x="504" 
d="M415 734l10 -8c2 -3 3 -5 0 -9l-115 -118c-2 -3 -4 -4 -8 -4h-18c-5 0 -6 0 -8 4l-78 118c-2 4 -1 5 2 8l13 9c3 2 6 2 8 -1l78 -99l108 99c3 3 6 3 8 1zM252 538c110 0 207 -27 187 -157l-56 -353c-1 -8 -4 -15 -21 -19c-41 -11 -152 -14 -195 -14
c-137 0 -170 43 -151 155c14 93 62 138 177 138h192l15 90c16 103 -64 125 -153 125h-116c-4 0 -7 2 -6 8l3 13c1 7 2 8 7 9c47 5 84 5 117 5zM380 253h-193c-88 0 -122 -33 -133 -103c-13 -86 8 -120 122 -120c26 0 122 1 170 11z" />
    <glyph glyph-name="acircumflex" unicode="&#xe2;" horiz-adv-x="504" 
d="M304 735h19c4 0 6 0 8 -3l77 -119c2 -3 1 -6 -3 -8l-12 -9c-3 -2 -5 -2 -8 1l-77 100l-109 -100c-3 -3 -5 -3 -8 -1l-10 9c-2 2 -3 5 0 8l115 119c3 2 4 3 8 3zM252 538c110 0 207 -27 187 -157l-56 -353c-1 -8 -4 -15 -21 -19c-41 -11 -152 -14 -195 -14
c-137 0 -170 43 -151 155c14 93 62 138 177 138h192l15 90c16 103 -64 125 -153 125h-116c-4 0 -7 2 -6 8l3 13c1 7 2 8 7 9c47 5 84 5 117 5zM380 253h-193c-88 0 -122 -33 -133 -103c-13 -86 8 -120 122 -120c26 0 122 1 170 11z" />
    <glyph glyph-name="adieresis" unicode="&#xe4;" horiz-adv-x="504" 
d="M233 689c17 0 29 -8 26 -31c-3 -19 -14 -31 -35 -31c-18 0 -30 10 -27 31c4 21 18 31 36 31zM385 689c17 0 29 -8 26 -31c-3 -19 -14 -31 -35 -31c-18 0 -30 10 -27 31c4 21 18 31 36 31zM252 538c110 0 207 -27 187 -157l-56 -353c-1 -8 -4 -15 -21 -19
c-41 -11 -152 -14 -195 -14c-137 0 -170 43 -151 155c14 93 62 138 177 138h192l15 90c16 103 -64 125 -153 125h-116c-4 0 -7 2 -6 8l3 13c1 7 2 8 7 9c47 5 84 5 117 5zM380 253h-193c-88 0 -122 -33 -133 -103c-13 -86 8 -120 122 -120c26 0 122 1 170 11z" />
    <glyph glyph-name="agrave" unicode="&#xe0;" horiz-adv-x="504" 
d="M222 735h27c4 0 5 -1 6 -3l60 -119c1 -3 1 -6 -3 -8l-13 -9c-3 -2 -5 -2 -8 1l-75 117c-1 2 -1 5 -1 8v8c0 3 3 5 7 5zM252 538c110 0 207 -27 187 -157l-56 -353c-1 -8 -4 -15 -21 -19c-41 -11 -152 -14 -195 -14c-137 0 -170 43 -151 155c14 93 62 138 177 138h192
l15 90c16 103 -64 125 -153 125h-116c-4 0 -7 2 -6 8l3 13c1 7 2 8 7 9c47 5 84 5 117 5zM380 253h-193c-88 0 -122 -33 -133 -103c-13 -86 8 -120 122 -120c26 0 122 1 170 11z" />
    <glyph glyph-name="amacron" unicode="&#x101;" horiz-adv-x="504" 
d="M188 666h236c5 0 8 -2 7 -7l-3 -20c-1 -5 -4 -7 -8 -7l-237 1c-4 0 -7 2 -6 7l3 19c1 5 4 7 8 7zM252 538c110 0 207 -27 187 -157l-56 -353c-1 -8 -4 -15 -21 -19c-41 -11 -152 -14 -195 -14c-137 0 -170 43 -151 155c14 93 62 138 177 138h192l15 90
c16 103 -64 125 -153 125h-116c-4 0 -7 2 -6 8l3 13c1 7 2 8 7 9c47 5 84 5 117 5zM380 253h-193c-88 0 -122 -33 -133 -103c-13 -86 8 -120 122 -120c26 0 122 1 170 11z" />
    <glyph glyph-name="aogonek" unicode="&#x105;" horiz-adv-x="504" 
d="M252 538c110 0 207 -27 187 -157l-56 -353c-1 -8 -4 -15 -21 -19c-16 -4 -45 -8 -76 -10c-9 -24 -21 -49 -24 -73c-6 -41 6 -47 47 -47h43c5 0 7 -2 6 -7l-3 -15c-1 -4 -3 -7 -8 -8c-11 -3 -48 -4 -59 -4c-47 0 -70 20 -60 74c4 20 13 50 25 78c-35 -2 -68 -2 -86 -2
c-137 0 -170 43 -151 155c14 93 62 138 177 138h192l15 90c16 103 -64 125 -153 125h-116c-4 0 -7 2 -6 8l3 13c1 7 2 8 7 9c47 5 84 5 117 5zM380 253h-193c-88 0 -122 -33 -133 -103c-13 -86 8 -120 122 -120c26 0 122 1 170 11z" />
    <glyph glyph-name="aring" unicode="&#xe5;" horiz-adv-x="504" 
d="M307 773c61 0 87 -30 78 -88c-9 -59 -45 -89 -106 -89s-87 30 -77 89c9 58 44 88 105 88zM303 747c-42 0 -66 -21 -72 -62c-6 -40 10 -62 52 -62c41 0 66 22 72 62c6 41 -11 62 -52 62zM252 538c110 0 207 -27 187 -157l-56 -353c-1 -8 -4 -15 -21 -19
c-41 -11 -152 -14 -195 -14c-137 0 -170 43 -151 155c14 93 62 138 177 138h192l15 90c16 103 -64 125 -153 125h-116c-4 0 -7 2 -6 8l3 13c1 7 2 8 7 9c47 5 84 5 117 5zM380 253h-193c-88 0 -122 -33 -133 -103c-13 -86 8 -120 122 -120c26 0 122 1 170 11z" />
    <glyph glyph-name="aringacute" unicode="&#x1fb;" horiz-adv-x="504" 
d="M384 865h26c4 0 5 -2 5 -6v-6c0 -3 -2 -6 -5 -9l-69 -73c45 -6 64 -35 56 -86c-9 -59 -46 -89 -106 -89c-61 0 -87 30 -77 89c8 53 38 83 89 87l73 89c2 3 4 4 8 4zM314 747c-41 0 -65 -21 -71 -62c-6 -40 10 -62 51 -62c42 0 67 22 73 62c6 41 -11 62 -53 62zM252 538
c110 0 207 -27 187 -157l-56 -353c-1 -8 -4 -15 -21 -19c-41 -11 -152 -14 -195 -14c-137 0 -170 43 -151 155c14 93 62 138 177 138h192l15 90c16 103 -64 125 -153 125h-116c-4 0 -7 2 -6 8l3 13c1 7 2 8 7 9c47 5 84 5 117 5zM380 253h-193c-88 0 -122 -33 -133 -103
c-13 -86 8 -120 122 -120c26 0 122 1 170 11z" />
    <glyph glyph-name="atilde" unicode="&#xe3;" horiz-adv-x="504" 
d="M369 616c-59 0 -84 58 -128 58c-21 0 -36 -12 -56 -55c-3 -6 -6 -7 -11 -5l-14 2c-5 2 -4 4 -2 9c24 62 45 84 85 84c59 0 82 -58 126 -58c26 0 40 17 57 51c3 6 4 6 8 5l16 -1c4 -1 6 -3 4 -9c-24 -63 -49 -81 -85 -81zM252 538c110 0 207 -27 187 -157l-56 -353
c-1 -8 -4 -15 -21 -19c-41 -11 -152 -14 -195 -14c-137 0 -170 43 -151 155c14 93 62 138 177 138h192l15 90c16 103 -64 125 -153 125h-116c-4 0 -7 2 -6 8l3 13c1 7 2 8 7 9c47 5 84 5 117 5zM380 253h-193c-88 0 -122 -33 -133 -103c-13 -86 8 -120 122 -120
c26 0 122 1 170 11z" />
    <glyph glyph-name="ae" unicode="&#xe6;" horiz-adv-x="840" 
d="M630 538c157 0 187 -49 159 -247l-5 -30c-2 -9 -3 -13 -17 -13h-348c-26 -172 -5 -218 130 -218h144c5 0 8 -2 7 -6l-4 -17c-1 -4 -3 -7 -8 -8c-38 -4 -118 -4 -144 -4c-86 0 -139 16 -160 60c-72 -53 -172 -60 -226 -60c-128 0 -159 48 -143 153l1 4
c15 91 63 136 177 136h193l15 90c15 103 -64 125 -153 125h-116c-4 0 -7 2 -6 7l3 16c1 5 2 6 7 7c47 5 83 5 117 5c82 0 162 -16 182 -85c36 66 91 85 195 85zM624 503c-136 0 -171 -44 -200 -219h325c27 182 3 219 -125 219zM381 253h-192c-94 0 -123 -34 -134 -103l-1 -3
c-11 -71 2 -117 108 -117c46 0 149 10 212 55c-8 39 -4 95 7 168z" />
    <glyph glyph-name="aeacute" unicode="&#x1fd;" horiz-adv-x="840" 
d="M563 735h26c4 0 5 -2 5 -5v-7c0 -3 -3 -6 -5 -8l-113 -118c-3 -3 -5 -3 -9 -1l-9 9c-3 2 -3 5 0 8l97 119c2 2 4 3 8 3zM630 538c157 0 187 -49 159 -247l-5 -30c-2 -9 -3 -13 -17 -13h-348c-26 -172 -5 -218 130 -218h144c5 0 8 -2 7 -6l-4 -17c-1 -4 -3 -7 -8 -8
c-38 -4 -118 -4 -144 -4c-86 0 -139 16 -160 60c-72 -53 -172 -60 -226 -60c-128 0 -159 48 -143 153l1 4c15 91 63 136 177 136h193l15 90c15 103 -64 125 -153 125h-116c-4 0 -7 2 -6 7l3 16c1 5 2 6 7 7c47 5 83 5 117 5c82 0 162 -16 182 -85c36 66 91 85 195 85z
M624 503c-136 0 -171 -44 -200 -219h325c27 182 3 219 -125 219zM381 253h-192c-94 0 -123 -34 -134 -103l-1 -3c-11 -71 2 -117 108 -117c46 0 149 10 212 55c-8 39 -4 95 7 168z" />
    <glyph glyph-name="b" unicode="b" horiz-adv-x="550" 
d="M154 735h25c4 0 6 -2 5 -6l-31 -194c55 2 101 3 147 3c197 0 214 -49 180 -265c-35 -225 -69 -278 -242 -278c-51 0 -97 1 -195 15c-9 2 -10 7 -9 14l112 705c1 4 3 6 8 6zM295 503h-146l-73 -460c79 -11 123 -13 167 -13c141 0 167 47 198 243c30 187 18 230 -146 230z
" />
    <glyph glyph-name="c" unicode="c" horiz-adv-x="456" 
d="M308 538c24 0 106 0 142 -4c5 -1 6 -3 5 -7l-3 -17c-1 -5 -3 -7 -7 -7h-142c-139 0 -178 -48 -209 -236c-29 -188 -6 -237 133 -237h142c5 0 8 -2 7 -7l-4 -16c-1 -4 -3 -6 -8 -7c-38 -5 -118 -5 -142 -5c-169 0 -200 57 -166 272s83 271 252 271z" />
    <glyph glyph-name="cacute" unicode="&#x107;" horiz-adv-x="456" 
d="M403 735h27c3 0 5 -2 5 -5v-6c0 -4 -2 -7 -5 -9l-114 -118c-2 -3 -5 -3 -8 -1l-10 9c-2 2 -2 5 0 8l97 119c2 2 5 3 8 3zM308 538c24 0 106 0 142 -4c5 -1 6 -3 5 -7l-3 -17c-1 -5 -3 -7 -7 -7h-142c-139 0 -178 -48 -209 -236c-29 -188 -6 -237 133 -237h142
c5 0 8 -2 7 -7l-4 -16c-1 -4 -3 -6 -8 -7c-38 -5 -118 -5 -142 -5c-169 0 -200 57 -166 272s83 271 252 271z" />
    <glyph glyph-name="ccaron" unicode="&#x10d;" horiz-adv-x="456" 
d="M407 734l10 -8c2 -3 3 -5 0 -9l-115 -118c-2 -3 -4 -4 -8 -4h-18c-5 0 -7 0 -9 4l-77 118c-2 4 -1 5 2 8l13 9c3 2 5 2 8 -1l78 -99l108 99c3 3 6 3 8 1zM308 538c24 0 106 0 142 -4c5 -1 6 -3 5 -7l-3 -17c-1 -5 -3 -7 -7 -7h-142c-139 0 -178 -48 -209 -236
c-29 -188 -6 -237 133 -237h142c5 0 8 -2 7 -7l-4 -16c-1 -4 -3 -6 -8 -7c-38 -5 -118 -5 -142 -5c-169 0 -200 57 -166 272s83 271 252 271z" />
    <glyph glyph-name="ccedilla" unicode="&#xe7;" horiz-adv-x="456" 
d="M309 538c24 0 106 0 142 -4c5 -1 6 -3 5 -7l-3 -17c-1 -5 -3 -7 -7 -7h-142c-139 0 -178 -48 -209 -236c-29 -188 -6 -237 133 -237h142c5 0 8 -2 7 -7l-4 -16c-1 -4 -3 -6 -8 -7c-31 -4 -92 -5 -125 -5c3 -28 3 -55 -1 -76c-9 -60 -35 -74 -93 -74c-10 0 -24 1 -48 4
c-5 1 -6 3 -5 8l3 15c1 5 3 7 8 7h43c39 0 55 6 62 47c3 18 2 43 0 69c-157 3 -185 63 -152 272c34 215 83 271 252 271z" />
    <glyph glyph-name="ccircumflex" unicode="&#x109;" horiz-adv-x="456" 
d="M325 735h20c4 0 5 0 7 -3l77 -119c3 -3 1 -6 -2 -8l-12 -9c-4 -2 -6 -2 -9 1l-76 100l-109 -100c-4 -3 -5 -3 -9 -1l-9 9c-3 2 -4 5 -1 8l116 119c2 2 3 3 7 3zM308 538c24 0 106 0 142 -4c5 -1 6 -3 5 -7l-3 -17c-1 -5 -3 -7 -7 -7h-142c-139 0 -178 -48 -209 -236
c-29 -188 -6 -237 133 -237h142c5 0 8 -2 7 -7l-4 -16c-1 -4 -3 -6 -8 -7c-38 -5 -118 -5 -142 -5c-169 0 -200 57 -166 272s83 271 252 271z" />
    <glyph glyph-name="cdotaccent" unicode="&#x10b;" horiz-adv-x="456" 
d="M325 689c20 0 29 -11 26 -31c-3 -18 -14 -31 -36 -31c-18 0 -29 11 -25 31c3 22 17 31 35 31zM308 538c24 0 106 0 142 -4c5 -1 6 -3 5 -7l-3 -17c-1 -5 -3 -7 -7 -7h-142c-139 0 -178 -48 -209 -236c-29 -188 -6 -237 133 -237h142c5 0 8 -2 7 -7l-4 -16
c-1 -4 -3 -6 -8 -7c-38 -5 -118 -5 -142 -5c-169 0 -200 57 -166 272s83 271 252 271z" />
    <glyph glyph-name="d" unicode="d" horiz-adv-x="551" 
d="M506 735h25c5 0 7 -2 6 -7l-111 -704c-1 -7 -4 -12 -13 -14c-104 -14 -150 -15 -201 -15c-173 0 -189 53 -154 278c34 216 68 265 265 265c46 0 91 -1 144 -3l31 194c1 4 4 6 8 6zM463 503h-146c-164 0 -190 -43 -220 -230c-31 -196 -21 -243 121 -243c44 0 89 2 172 13z
" />
    <glyph glyph-name="eth" unicode="&#xf0;" horiz-adv-x="541" 
d="M300 735h26c4 0 6 0 8 -4l27 -60l111 38c3 1 7 1 8 -3l4 -16c1 -5 -1 -8 -5 -9l-107 -37l98 -227c16 -38 13 -94 0 -175c-31 -195 -80 -247 -248 -247s-201 52 -170 247s80 246 248 246c44 0 78 -4 104 -13l-68 157l-93 -31c-5 -1 -8 0 -9 4l-4 15c0 4 2 8 6 9l88 30
l-30 68c-1 5 0 8 6 8zM295 453c-138 0 -177 -43 -204 -211c-27 -169 -2 -213 136 -213c139 0 177 44 205 213c26 168 1 211 -137 211z" />
    <glyph glyph-name="dcaron" unicode="&#x10f;" horiz-adv-x="579" 
d="M506 735h25c5 0 7 -2 6 -7l-111 -704c-1 -7 -4 -12 -13 -14c-104 -14 -150 -15 -201 -15c-173 0 -189 53 -154 278c34 216 68 265 265 265c46 0 91 -1 144 -3l31 194c1 4 4 6 8 6zM684 735h24c4 0 5 -2 5 -5v-8c0 -3 -2 -5 -4 -7l-106 -118c-2 -3 -5 -3 -8 -1l-9 9
c-2 2 -3 4 0 8l90 118c2 3 4 4 8 4zM463 503h-146c-164 0 -190 -43 -220 -230c-31 -196 -21 -243 121 -243c44 0 89 2 172 13z" />
    <glyph glyph-name="dcroat" unicode="&#x111;" horiz-adv-x="551" 
d="M524 643h62c4 0 6 -3 5 -8l-3 -16c-1 -5 -3 -7 -7 -7h-62l-93 -588c-1 -7 -4 -12 -13 -14c-104 -14 -150 -15 -201 -15c-173 0 -189 53 -154 278c34 216 68 265 265 265c46 0 91 -1 144 -3l12 77h-156c-4 0 -7 1 -6 6l3 18c1 5 4 7 8 7h156l14 86c1 4 4 6 8 6h25
c5 0 7 -2 6 -7zM390 43l73 460h-146c-164 0 -190 -43 -220 -230c-31 -196 -21 -243 121 -243c44 0 89 2 172 13z" />
    <glyph glyph-name="e" unicode="e" horiz-adv-x="515" 
d="M305 538c157 0 187 -49 158 -247l-5 -30c-1 -9 -3 -13 -17 -13h-348c-25 -172 -4 -218 131 -218h144c5 0 7 -1 6 -6l-3 -17c-1 -4 -3 -6 -8 -7c-38 -5 -118 -5 -145 -5c-171 0 -195 56 -161 273c35 217 76 270 248 270zM299 503c-136 0 -171 -44 -200 -219h324
c28 182 4 219 -124 219z" />
    <glyph glyph-name="eacute" unicode="&#xe9;" horiz-adv-x="515" 
d="M410 735h26c4 0 5 -2 5 -5v-6c0 -4 -2 -7 -5 -9l-113 -118c-3 -3 -5 -3 -9 -1l-9 9c-3 2 -3 5 0 8l97 119c2 2 4 3 8 3zM305 538c157 0 187 -49 158 -247l-5 -30c-1 -9 -3 -13 -17 -13h-348c-25 -172 -4 -218 131 -218h144c5 0 7 -1 6 -6l-3 -17c-1 -4 -3 -6 -8 -7
c-38 -5 -118 -5 -145 -5c-171 0 -195 56 -161 273c35 217 76 270 248 270zM299 503c-136 0 -171 -44 -200 -219h324c28 182 4 219 -124 219z" />
    <glyph glyph-name="ebreve" unicode="&#x115;" horiz-adv-x="515" 
d="M441 721h19c5 0 6 -2 4 -7c-16 -85 -48 -110 -145 -110c-96 0 -121 25 -110 110c0 5 2 7 7 7h18c5 0 6 -2 6 -6c-6 -61 12 -79 84 -79c73 0 96 18 110 79c1 4 3 6 7 6zM305 538c157 0 187 -49 158 -247l-5 -30c-1 -9 -3 -13 -17 -13h-348c-25 -172 -4 -218 131 -218h144
c5 0 7 -1 6 -6l-3 -17c-1 -4 -3 -6 -8 -7c-38 -5 -118 -5 -145 -5c-171 0 -195 56 -161 273c35 217 76 270 248 270zM299 503c-136 0 -171 -44 -200 -219h324c28 182 4 219 -124 219z" />
    <glyph glyph-name="ecaron" unicode="&#x11b;" horiz-adv-x="515" 
d="M443 734l10 -8c2 -3 3 -5 0 -9l-115 -118c-2 -3 -4 -4 -8 -4h-18c-5 0 -7 0 -9 4l-77 118c-2 4 -1 5 2 8l13 9c3 2 6 2 8 -1l78 -99l108 99c3 3 6 3 8 1zM305 538c157 0 187 -49 158 -247l-5 -30c-1 -9 -3 -13 -17 -13h-348c-25 -172 -4 -218 131 -218h144c5 0 7 -1 6 -6
l-3 -17c-1 -4 -3 -6 -8 -7c-38 -5 -118 -5 -145 -5c-171 0 -195 56 -161 273c35 217 76 270 248 270zM299 503c-136 0 -171 -44 -200 -219h324c28 182 4 219 -124 219z" />
    <glyph glyph-name="ecircumflex" unicode="&#xea;" horiz-adv-x="515" 
d="M328 735h19c4 0 5 0 7 -3l77 -119c3 -3 1 -6 -2 -8l-12 -9c-4 -2 -6 -2 -8 1l-77 100l-109 -100c-4 -3 -5 -3 -9 -1l-9 9c-3 2 -4 5 0 8l115 119c2 2 3 3 8 3zM305 538c157 0 187 -49 158 -247l-5 -30c-1 -9 -3 -13 -17 -13h-348c-25 -172 -4 -218 131 -218h144
c5 0 7 -1 6 -6l-3 -17c-1 -4 -3 -6 -8 -7c-38 -5 -118 -5 -145 -5c-171 0 -195 56 -161 273c35 217 76 270 248 270zM299 503c-136 0 -171 -44 -200 -219h324c28 182 4 219 -124 219z" />
    <glyph glyph-name="edieresis" unicode="&#xeb;" horiz-adv-x="515" 
d="M253 689c17 0 29 -8 25 -31c-2 -19 -14 -31 -34 -31c-18 0 -31 10 -27 31c3 21 17 31 36 31zM404 689c18 0 30 -8 26 -31c-3 -19 -14 -31 -35 -31c-18 0 -30 10 -26 31c3 21 17 31 35 31zM305 538c157 0 187 -49 158 -247l-5 -30c-1 -9 -3 -13 -17 -13h-348
c-25 -172 -4 -218 131 -218h144c5 0 7 -1 6 -6l-3 -17c-1 -4 -3 -6 -8 -7c-38 -5 -118 -5 -145 -5c-171 0 -195 56 -161 273c35 217 76 270 248 270zM299 503c-136 0 -171 -44 -200 -219h324c28 182 4 219 -124 219z" />
    <glyph glyph-name="edotaccent" unicode="&#x117;" horiz-adv-x="515" 
d="M321 689c20 0 28 -11 26 -31c-3 -18 -14 -31 -36 -31c-19 0 -29 11 -26 31c4 22 18 31 36 31zM305 538c157 0 187 -49 158 -247l-5 -30c-1 -9 -3 -13 -17 -13h-348c-25 -172 -4 -218 131 -218h144c5 0 7 -1 6 -6l-3 -17c-1 -4 -3 -6 -8 -7c-38 -5 -118 -5 -145 -5
c-171 0 -195 56 -161 273c35 217 76 270 248 270zM299 503c-136 0 -171 -44 -200 -219h324c28 182 4 219 -124 219z" />
    <glyph glyph-name="egrave" unicode="&#xe8;" horiz-adv-x="515" 
d="M239 735h27c3 0 5 -1 6 -3l60 -119c1 -3 1 -6 -3 -8l-13 -9c-3 -2 -6 -2 -8 1l-75 117c-1 2 -1 5 -1 8v8c0 3 3 5 7 5zM305 538c157 0 187 -49 158 -247l-5 -30c-1 -9 -3 -13 -17 -13h-348c-25 -172 -4 -218 131 -218h144c5 0 7 -1 6 -6l-3 -17c-1 -4 -3 -6 -8 -7
c-38 -5 -118 -5 -145 -5c-171 0 -195 56 -161 273c35 217 76 270 248 270zM299 503c-136 0 -171 -44 -200 -219h324c28 182 4 219 -124 219z" />
    <glyph glyph-name="emacron" unicode="&#x113;" horiz-adv-x="515" 
d="M193 666h236c5 0 8 -2 6 -7l-2 -20c-1 -5 -4 -7 -8 -7l-237 1c-4 0 -7 2 -6 7l3 19c1 5 4 7 8 7zM305 538c157 0 187 -49 158 -247l-5 -30c-1 -9 -3 -13 -17 -13h-348c-25 -172 -4 -218 131 -218h144c5 0 7 -1 6 -6l-3 -17c-1 -4 -3 -6 -8 -7c-38 -5 -118 -5 -145 -5
c-171 0 -195 56 -161 273c35 217 76 270 248 270zM299 503c-136 0 -171 -44 -200 -219h324c28 182 4 219 -124 219z" />
    <glyph glyph-name="eogonek" unicode="&#x119;" horiz-adv-x="515" 
d="M305 538c157 0 187 -49 158 -247l-5 -30c-1 -9 -3 -13 -17 -13h-348c-25 -172 -4 -218 131 -218h144c5 0 7 -1 6 -6l-3 -17c-1 -4 -3 -6 -8 -7c-13 -2 -30 -3 -48 -4c-9 -21 -20 -47 -24 -70c-5 -41 6 -47 48 -47h43c5 0 6 -2 5 -7l-2 -15c-1 -4 -3 -7 -8 -8
c-11 -3 -48 -4 -59 -4c-47 0 -70 20 -60 74c4 20 12 49 24 77c-27 -1 -53 -1 -64 -1c-171 0 -195 56 -161 273c35 217 76 270 248 270zM299 503c-136 0 -171 -44 -200 -219h324c28 182 4 219 -124 219z" />
    <glyph glyph-name="f" unicode="f" horiz-adv-x="320" 
d="M297 741c28 0 60 -2 80 -4c4 -1 6 -3 5 -7l-4 -17c-1 -4 -3 -7 -8 -7h-73c-21 0 -83 0 -93 -58l-18 -116h149c4 0 5 -3 3 -7l-7 -21c-1 -4 -3 -6 -7 -6h-143l-78 -491c-1 -4 -4 -7 -8 -7h-25c-4 0 -7 3 -6 7l78 491h-82c-4 0 -7 3 -6 7l4 20c1 4 3 7 7 7h82l19 119
c15 90 108 90 131 90z" />
    <glyph glyph-name="g" unicode="g" horiz-adv-x="550" 
d="M298 538c55 0 103 0 195 -4c9 0 11 -8 10 -15l-83 -523c-24 -150 -69 -194 -239 -194c-42 0 -86 1 -131 4c-4 0 -7 3 -6 8l2 17c1 5 4 6 8 6h133c140 0 175 36 193 154l2 9c-57 -4 -102 -5 -146 -5c-197 0 -215 49 -180 265c35 225 69 278 242 278zM462 503h-170
c-141 0 -167 -46 -198 -242c-30 -188 -18 -231 147 -231c48 0 98 1 146 5z" />
    <glyph glyph-name="gbreve" unicode="&#x11f;" horiz-adv-x="550" 
d="M453 721h19c5 0 6 -2 4 -7c-16 -85 -48 -110 -145 -110c-96 0 -121 25 -110 110c0 5 2 7 7 7h18c5 0 6 -2 5 -6c-5 -61 13 -79 85 -79c73 0 96 18 110 79c1 4 3 6 7 6zM298 538c55 0 103 0 195 -4c9 0 11 -8 10 -15l-83 -523c-24 -150 -69 -194 -239 -194
c-42 0 -86 1 -131 4c-4 0 -7 3 -6 8l2 17c1 5 4 6 8 6h133c140 0 175 36 193 154l2 9c-57 -4 -102 -5 -146 -5c-197 0 -215 49 -180 265c35 225 69 278 242 278zM462 503h-170c-141 0 -167 -46 -198 -242c-30 -188 -18 -231 147 -231c48 0 98 1 146 5z" />
    <glyph glyph-name="gcircumflex" unicode="&#x11d;" horiz-adv-x="550" 
d="M342 735h19c4 0 6 0 8 -3l77 -119c2 -3 1 -6 -3 -8l-12 -9c-3 -2 -5 -2 -8 1l-77 100l-109 -100c-3 -3 -5 -3 -8 -1l-10 9c-2 2 -3 5 0 8l115 119c2 2 4 3 8 3zM298 538c55 0 103 0 195 -4c9 0 11 -8 10 -15l-83 -523c-24 -150 -69 -194 -239 -194c-42 0 -86 1 -131 4
c-4 0 -7 3 -6 8l2 17c1 5 4 6 8 6h133c140 0 175 36 193 154l2 9c-57 -4 -102 -5 -146 -5c-197 0 -215 49 -180 265c35 225 69 278 242 278zM462 503h-170c-141 0 -167 -46 -198 -242c-30 -188 -18 -231 147 -231c48 0 98 1 146 5z" />
    <glyph glyph-name="gcommaaccent" unicode="&#x123;" horiz-adv-x="550" 
d="M420 734l11 -9c2 -2 3 -5 1 -8l-81 -119c-2 -2 -4 -3 -7 -3h-27c-3 0 -6 2 -6 5v8c0 2 1 5 3 7l98 118c3 3 5 3 8 1zM298 538c55 0 103 0 195 -4c9 0 11 -8 10 -15l-83 -523c-24 -150 -69 -194 -239 -194c-42 0 -86 1 -131 4c-4 0 -7 3 -6 8l2 17c1 5 4 6 8 6h133
c140 0 175 36 193 154l2 9c-57 -4 -102 -5 -146 -5c-197 0 -215 49 -180 265c35 225 69 278 242 278zM462 503h-170c-141 0 -167 -46 -198 -242c-30 -188 -18 -231 147 -231c48 0 98 1 146 5z" />
    <glyph glyph-name="gdotaccent" unicode="&#x121;" horiz-adv-x="550" 
d="M345 689c20 0 29 -11 26 -31c-3 -18 -14 -31 -35 -31c-19 0 -30 11 -26 31c3 22 17 31 35 31zM298 538c55 0 103 0 195 -4c9 0 11 -8 10 -15l-83 -523c-24 -150 -69 -194 -239 -194c-42 0 -86 1 -131 4c-4 0 -7 3 -6 8l2 17c1 5 4 6 8 6h133c140 0 175 36 193 154l2 9
c-57 -4 -102 -5 -146 -5c-197 0 -215 49 -180 265c35 225 69 278 242 278zM462 503h-170c-141 0 -167 -46 -198 -242c-30 -188 -18 -231 147 -231c48 0 98 1 146 5z" />
    <glyph glyph-name="h" unicode="h" horiz-adv-x="566" 
d="M155 735h25c5 0 7 -1 6 -6l-31 -196c50 4 120 5 173 5c135 0 193 -27 164 -213l-50 -318c-1 -5 -4 -7 -8 -7h-25c-4 0 -7 2 -6 7l51 319c25 156 -22 177 -128 177h-176l-78 -496c-1 -5 -4 -7 -8 -7h-25c-5 0 -7 3 -6 8l114 721c1 5 4 6 8 6z" />
    <glyph glyph-name="hbar" unicode="&#x127;" horiz-adv-x="566" 
d="M328 538c135 0 193 -27 164 -213l-50 -318c-1 -5 -4 -7 -8 -7h-25c-4 0 -7 2 -6 7l51 319c25 156 -22 177 -128 177h-176l-78 -496c-1 -5 -4 -7 -8 -7h-25c-5 0 -7 3 -6 8l96 604h-62c-4 0 -8 2 -7 7l4 17c1 5 4 7 8 7h61l14 86c1 5 4 6 8 6h25c5 0 7 -1 6 -6l-14 -86
h158c4 0 6 -2 5 -8l-2 -16c-1 -5 -4 -7 -8 -7h-158l-12 -79c50 4 120 5 173 5z" />
    <glyph glyph-name="hcircumflex" unicode="&#x125;" horiz-adv-x="566" 
d="M180 893h19c4 0 6 0 8 -3l77 -119c2 -4 1 -6 -3 -8l-12 -9c-3 -2 -5 -2 -8 1l-77 99l-109 -99c-3 -3 -5 -3 -8 -1l-10 9c-2 2 -3 4 0 8l115 119c2 2 4 3 8 3zM155 735h25c5 0 7 -1 6 -6l-31 -196c50 4 120 5 173 5c135 0 193 -27 164 -213l-50 -318c-1 -5 -4 -7 -8 -7
h-25c-4 0 -7 2 -6 7l51 319c25 156 -22 177 -128 177h-176l-78 -496c-1 -5 -4 -7 -8 -7h-25c-5 0 -7 3 -6 8l114 721c1 5 4 6 8 6z" />
    <glyph glyph-name="i" unicode="i" horiz-adv-x="198" 
d="M160 693c18 0 26 -11 24 -29c-4 -20 -15 -30 -34 -30c-18 0 -28 10 -24 30c2 18 15 29 34 29zM122 532h25c4 0 6 -2 5 -7l-82 -518c-1 -5 -3 -7 -7 -7h-26c-4 0 -6 2 -5 7l82 517c1 5 3 8 8 8z" />
    <glyph glyph-name="dotlessi" unicode="&#x131;" horiz-adv-x="198" 
d="M122 532h25c4 0 6 -2 5 -7l-82 -518c-1 -5 -3 -7 -7 -7h-26c-4 0 -6 2 -5 7l82 517c1 5 3 8 8 8z" />
    <glyph glyph-name="iacute" unicode="&#xed;" horiz-adv-x="198" 
d="M231 735h26c4 0 5 -2 5 -5v-6c0 -4 -1 -7 -4 -9l-114 -118c-2 -3 -5 -3 -8 -1l-10 9c-2 2 -2 5 0 8l97 119c2 2 4 3 8 3zM122 532h25c4 0 6 -2 5 -7l-82 -518c-1 -5 -3 -7 -7 -7h-26c-4 0 -6 2 -5 7l82 517c1 5 3 8 8 8z" />
    <glyph glyph-name="icaron" unicode="&#x1d0;" horiz-adv-x="198" 
d="M267 734l10 -8c2 -3 3 -5 0 -9l-115 -118c-3 -3 -4 -4 -8 -4h-18c-6 0 -7 0 -9 4l-77 118c-2 4 -1 5 2 8l13 9c3 2 5 2 8 -1l77 -99l109 99c3 3 5 3 8 1zM122 532h25c4 0 6 -2 5 -7l-82 -518c-1 -5 -3 -7 -7 -7h-26c-4 0 -6 2 -5 7l82 517c1 5 3 8 8 8z" />
    <glyph glyph-name="icircumflex" unicode="&#xee;" horiz-adv-x="198" 
d="M155 735h19c5 0 6 0 8 -3l77 -119c2 -3 1 -6 -2 -8l-12 -9c-4 -2 -6 -2 -9 1l-76 100l-110 -100c-3 -3 -4 -3 -8 -1l-9 9c-3 2 -4 5 -1 8l115 119c3 2 4 3 8 3zM122 532h25c4 0 6 -2 5 -7l-82 -518c-1 -5 -3 -7 -7 -7h-26c-4 0 -6 2 -5 7l82 517c1 5 3 8 8 8z" />
    <glyph glyph-name="idieresis" unicode="&#xef;" horiz-adv-x="198" 
d="M82 689c17 0 29 -8 26 -31c-3 -19 -14 -31 -35 -31c-18 0 -30 10 -27 31c4 21 18 31 36 31zM234 689c17 0 29 -8 26 -31c-3 -19 -15 -31 -35 -31c-18 0 -30 10 -27 31c4 21 18 31 36 31zM122 532h25c4 0 6 -2 5 -7l-82 -518c-1 -5 -3 -7 -7 -7h-26c-4 0 -6 2 -5 7l82 517
c1 5 3 8 8 8z" />
    <glyph glyph-name="i.loclTRK" horiz-adv-x="198" 
d="M159 689c19 0 28 -11 25 -31c-2 -18 -14 -31 -35 -31c-19 0 -29 11 -26 31c4 22 17 31 36 31zM122 532h25c4 0 6 -2 5 -7l-82 -518c-1 -5 -3 -7 -7 -7h-26c-4 0 -6 2 -5 7l82 517c1 5 3 8 8 8z" />
    <glyph glyph-name="igrave" unicode="&#xec;" horiz-adv-x="198" 
d="M72 735h28c3 0 4 -1 6 -3l59 -119c2 -3 1 -6 -2 -8l-13 -9c-3 -2 -6 -2 -8 1l-75 117c-1 2 -2 5 -2 8v8c0 3 4 5 7 5zM122 532h25c4 0 6 -2 5 -7l-82 -518c-1 -5 -3 -7 -7 -7h-26c-4 0 -6 2 -5 7l82 517c1 5 3 8 8 8z" />
    <glyph glyph-name="ij" unicode="&#x133;" horiz-adv-x="398" 
d="M160 693c18 0 26 -11 24 -29c-4 -20 -15 -30 -34 -30c-18 0 -28 10 -24 30c2 18 15 29 34 29zM122 532h25c4 0 6 -2 5 -7l-82 -518c-1 -5 -3 -7 -7 -7h-26c-4 0 -6 2 -5 7l82 517c1 5 3 8 8 8zM360 693c19 0 27 -11 24 -29c-3 -20 -15 -30 -33 -30c-19 0 -28 10 -25 30
c3 18 16 29 34 29zM321 532h25c5 0 7 -2 6 -8l-101 -632c-13 -84 -67 -85 -88 -85c-11 0 -30 0 -47 3c-5 1 -8 3 -7 8l3 18c1 5 4 7 8 7h44c18 0 41 0 50 56l99 625c1 6 4 8 8 8z" />
    <glyph glyph-name="imacron" unicode="&#x12b;" horiz-adv-x="198" 
d="M37 666h236c5 0 7 -2 6 -7l-3 -20c-1 -5 -3 -7 -8 -7l-236 1c-5 0 -7 2 -6 7l3 19c1 5 4 7 8 7zM122 532h25c4 0 6 -2 5 -7l-82 -518c-1 -5 -3 -7 -7 -7h-26c-4 0 -6 2 -5 7l82 517c1 5 3 8 8 8z" />
    <glyph glyph-name="iogonek" unicode="&#x12f;" horiz-adv-x="199" 
d="M160 689c19 0 28 -11 25 -31c-2 -18 -14 -31 -35 -31c-19 0 -29 11 -26 31c4 22 17 31 36 31zM123 532h25c4 0 6 -2 5 -7l-82 -518c0 -4 -2 -5 -5 -5h-4c-9 -22 -20 -51 -23 -76c-6 -41 6 -47 47 -47h43c5 0 6 -2 5 -7l-2 -15c-1 -4 -3 -7 -8 -8c-11 -3 -48 -4 -59 -4
c-47 0 -70 20 -60 74c4 22 14 55 27 85l83 520c1 5 3 8 8 8z" />
    <glyph glyph-name="itilde" unicode="&#x129;" horiz-adv-x="198" 
d="M218 616c-59 0 -84 58 -127 58c-22 0 -37 -12 -57 -55c-3 -6 -5 -7 -10 -5l-14 2c-5 2 -5 4 -3 9c24 62 45 84 85 84c59 0 83 -58 127 -58c25 0 40 17 56 51c3 6 5 6 9 5l16 -1c4 -1 6 -3 3 -9c-23 -63 -48 -81 -85 -81zM123 532h25c4 0 6 -2 5 -7l-82 -518
c-1 -5 -3 -7 -7 -7h-26c-4 0 -6 2 -5 7l82 517c1 5 3 8 8 8z" />
    <glyph glyph-name="j" unicode="j" horiz-adv-x="200" 
d="M162 693c19 0 27 -11 24 -29c-3 -20 -15 -30 -33 -30c-19 0 -28 10 -25 30c3 18 16 29 34 29zM123 532h25c5 0 7 -2 6 -8l-101 -632c-13 -84 -67 -85 -88 -85c-11 0 -30 0 -47 3c-5 1 -8 3 -7 8l3 18c1 5 4 7 8 7h44c18 0 41 0 50 56l99 625c1 6 4 8 8 8z" />
    <glyph glyph-name="jcircumflex" unicode="&#x135;" horiz-adv-x="200" 
d="M154 735h20c4 0 5 0 7 -3l77 -119c3 -3 1 -6 -2 -8l-12 -9c-4 -2 -6 -2 -9 1l-76 100l-109 -100c-4 -3 -5 -3 -9 -1l-9 9c-3 2 -4 5 -1 8l116 119c2 2 3 3 7 3zM123 532h25c5 0 7 -2 6 -8l-101 -632c-13 -84 -67 -85 -88 -85c-11 0 -30 0 -47 3c-5 1 -8 3 -7 8l3 18
c1 5 4 7 8 7h44c18 0 41 0 50 56l99 625c1 6 4 8 8 8z" />
    <glyph glyph-name="k" unicode="k" horiz-adv-x="448" 
d="M155 735h25c4 0 6 -2 5 -6l-62 -393l241 191c6 4 10 5 17 5h35c7 0 6 -6 1 -9l-251 -197l230 -317c2 -5 0 -9 -8 -9h-28c-5 0 -11 2 -15 7l-224 311l-50 -311c-1 -4 -3 -7 -8 -7h-25c-4 0 -6 3 -5 7l114 721c1 5 3 7 8 7z" />
    <glyph glyph-name="kcommaaccent" unicode="&#x137;" horiz-adv-x="448" 
d="M155 735h25c4 0 6 -2 5 -6l-62 -393l241 191c6 4 10 5 17 5h35c7 0 6 -6 1 -9l-251 -197l230 -317c2 -5 0 -9 -8 -9h-28c-5 0 -11 2 -15 7l-224 311l-50 -311c-1 -4 -3 -7 -8 -7h-25c-4 0 -6 3 -5 7l114 721c1 5 3 7 8 7zM191 -36h25c3 0 4 -2 4 -6v-5c0 -4 -2 -7 -4 -9
l-112 -118c-3 -3 -5 -3 -8 -1l-10 9c-3 2 -3 4 0 8l97 119c2 2 4 3 8 3z" />
    <glyph glyph-name="kgreenlandic" unicode="&#x138;" horiz-adv-x="447" 
d="M409 532h30c6 0 6 -4 1 -9l-285 -233l226 -282c3 -4 2 -9 -5 -9h-33c-4 0 -7 2 -9 5l-220 272l-43 -269c-1 -4 -4 -7 -8 -7h-26c-4 0 -6 3 -5 7l82 517c0 4 3 8 7 8h27c4 0 5 -3 5 -7l-35 -222l277 223c3 4 9 6 14 6z" />
    <glyph glyph-name="l" unicode="l" horiz-adv-x="199" 
d="M155 736h25c4 0 6 -2 5 -8l-114 -721c-1 -5 -3 -7 -8 -7h-25c-4 0 -6 2 -5 7l114 722c1 5 3 7 8 7z" />
    <glyph glyph-name="lacute" unicode="&#x13a;" horiz-adv-x="199" 
d="M264 918h26c4 0 5 -2 5 -6v-6c0 -3 -2 -6 -4 -9l-114 -117c-3 -4 -5 -4 -8 -1l-10 8c-2 3 -2 5 0 9l97 119c2 2 4 3 8 3zM155 736h25c4 0 6 -2 5 -8l-114 -721c-1 -5 -3 -7 -8 -7h-25c-4 0 -6 2 -5 7l114 722c1 5 3 7 8 7z" />
    <glyph glyph-name="lcaron" unicode="&#x13e;" horiz-adv-x="228" 
d="M155 736h26c4 0 6 -2 5 -8l-114 -721c-1 -5 -4 -7 -8 -7h-25c-4 0 -7 2 -6 7l114 722c1 5 4 7 8 7zM321 735h25c4 0 6 0 5 -5l-1 -7c0 -3 -1 -6 -5 -10l-105 -116c-2 -3 -4 -3 -8 -1l-9 9c-2 2 -3 4 0 8l90 119c3 2 5 3 8 3z" />
    <glyph glyph-name="lcommaaccent" unicode="&#x13c;" horiz-adv-x="199" 
d="M155 736h25c4 0 6 -2 5 -8l-114 -721c-1 -5 -3 -7 -8 -7h-25c-4 0 -6 2 -5 7l114 722c1 5 3 7 8 7zM37 -36h25c4 0 5 -2 5 -6v-5c0 -4 -2 -7 -5 -9l-112 -118c-2 -3 -5 -3 -8 -1l-10 9c-2 2 -2 4 0 8l97 119c2 2 5 3 8 3z" />
    <glyph glyph-name="ldot" unicode="&#x140;" horiz-adv-x="240" 
d="M155 736h26c4 0 6 -2 5 -8l-114 -721c-1 -5 -4 -7 -8 -7h-25c-4 0 -7 2 -6 7l114 722c1 5 4 7 8 7zM224 327c19 0 28 -11 25 -30c-3 -21 -15 -32 -35 -32c-19 0 -30 11 -26 32c3 19 17 30 36 30z" />
    <glyph glyph-name="lslash" unicode="&#x142;" horiz-adv-x="233" 
d="M163 736h26c4 0 6 -2 5 -8l-62 -390l75 39c5 3 7 2 9 -2l8 -16c1 -4 0 -7 -4 -9l-93 -49l-47 -294c-1 -5 -4 -7 -8 -7h-25c-4 0 -7 2 -6 7l43 272l-61 -33c-3 -2 -7 -1 -8 3l-7 16c-1 4 -1 7 4 10l78 41l65 413c1 5 4 7 8 7z" />
    <glyph glyph-name="m" unicode="m" horiz-adv-x="864" 
d="M626 538c135 0 194 -27 165 -213l-51 -318c-1 -5 -4 -7 -8 -7h-25c-4 0 -6 2 -5 7l50 319c25 156 -22 177 -128 177c-61 0 -122 -6 -166 -16c16 -30 19 -75 8 -147l-54 -333c-1 -6 -3 -7 -7 -7h-26c-4 0 -6 2 -5 7l53 334c25 156 -25 162 -131 162h-147l-78 -496
c-1 -5 -4 -7 -8 -7h-25c-5 0 -7 2 -6 7l82 515c1 6 3 7 9 9c64 6 113 7 175 7c59 0 108 -5 137 -25c53 15 126 25 191 25z" />
    <glyph glyph-name="n" unicode="n" 
d="M327 538c135 0 193 -27 164 -213l-50 -318c-1 -4 -4 -7 -8 -7h-25c-4 0 -7 3 -6 7l51 319c25 156 -22 177 -128 177h-176l-78 -496c-1 -4 -4 -7 -8 -7h-25c-5 0 -7 3 -6 7l82 516c0 4 3 6 9 8c69 7 142 7 204 7z" />
    <glyph glyph-name="nacute" unicode="&#x144;" 
d="M396 735h27c4 0 5 -2 5 -5v-6c0 -4 -2 -7 -5 -9l-113 -118c-3 -3 -5 -3 -9 -1l-9 9c-3 2 -3 5 -1 8l97 119c3 2 5 3 8 3zM327 538c135 0 193 -27 164 -213l-50 -318c-1 -4 -4 -7 -8 -7h-25c-4 0 -7 3 -6 7l51 319c25 156 -22 177 -128 177h-176l-78 -496
c-1 -4 -4 -7 -8 -7h-25c-5 0 -7 3 -6 7l82 516c0 4 3 6 9 8c69 7 142 7 204 7z" />
    <glyph glyph-name="napostrophe" unicode="&#x149;" 
d="M165 735h27c3 0 5 -2 5 -5v-6c0 -4 -2 -7 -5 -9l-114 -118c-2 -3 -5 -3 -8 -1l-10 9c-2 2 -2 5 0 8l97 119c2 2 5 3 8 3zM327 538c135 0 193 -27 164 -213l-50 -318c-1 -4 -4 -7 -8 -7h-25c-4 0 -7 3 -6 7l51 319c25 156 -22 177 -128 177h-176l-78 -496
c-1 -4 -4 -7 -8 -7h-25c-5 0 -7 3 -6 7l82 516c0 4 3 6 9 8c69 7 142 7 204 7z" />
    <glyph glyph-name="ncaron" unicode="&#x148;" 
d="M454 734l9 -8c3 -3 4 -5 0 -9l-115 -118c-2 -3 -3 -4 -8 -4h-18c-5 0 -6 0 -8 4l-77 118c-3 4 -1 5 1 8l13 9c4 2 6 2 8 -1l78 -99l108 99c4 3 6 3 9 1zM327 538c135 0 193 -27 164 -213l-50 -318c-1 -4 -4 -7 -8 -7h-25c-4 0 -7 3 -6 7l51 319c25 156 -22 177 -128 177
h-176l-78 -496c-1 -4 -4 -7 -8 -7h-25c-5 0 -7 3 -6 7l82 516c0 4 3 6 9 8c69 7 142 7 204 7z" />
    <glyph glyph-name="ncommaaccent" unicode="&#x146;" 
d="M327 538c135 0 193 -27 164 -213l-50 -318c-1 -4 -4 -7 -8 -7h-25c-4 0 -7 3 -6 7l51 319c25 156 -22 177 -128 177h-176l-78 -496c-1 -4 -4 -7 -8 -7h-25c-5 0 -7 3 -6 7l82 516c0 4 3 6 9 8c69 7 142 7 204 7zM215 -36h24c4 0 5 -2 5 -6v-5c0 -4 -2 -7 -5 -9l-111 -118
c-3 -3 -5 -3 -9 -1l-9 9c-3 2 -3 4 0 8l96 119c3 2 5 3 9 3z" />
    <glyph glyph-name="eng" unicode="&#x14b;" 
d="M327 538c135 0 193 -27 164 -213l-69 -433c-13 -84 -67 -85 -88 -85c-11 0 -30 0 -48 3c-5 1 -7 4 -6 9l3 17c1 5 4 7 8 7h44c18 0 41 0 50 56l68 427c25 156 -22 177 -128 177h-176l-78 -496c-1 -5 -4 -7 -8 -7h-25c-5 0 -7 2 -6 7l82 515c1 6 2 7 9 9c69 7 142 7 204 7
z" />
    <glyph glyph-name="ntilde" unicode="&#xf1;" 
d="M404 616c-59 0 -84 58 -128 58c-21 0 -36 -12 -56 -55c-3 -6 -6 -7 -11 -5l-13 2c-5 2 -5 4 -3 9c24 62 45 84 85 84c59 0 82 -58 126 -58c26 0 40 17 57 51c3 6 4 6 9 5l15 -1c4 -1 6 -3 4 -9c-24 -63 -49 -81 -85 -81zM327 538c135 0 193 -27 164 -213l-50 -318
c-1 -4 -4 -7 -8 -7h-25c-4 0 -7 3 -6 7l51 319c25 156 -22 177 -128 177h-176l-78 -496c-1 -4 -4 -7 -8 -7h-25c-5 0 -7 3 -6 7l82 516c0 4 3 6 9 8c69 7 142 7 204 7z" />
    <glyph glyph-name="o" unicode="o" horiz-adv-x="543" 
d="M308 538c168 0 200 -56 166 -271s-84 -272 -252 -272c-169 0 -200 57 -166 272s83 271 252 271zM303 503c-139 0 -178 -48 -209 -236c-29 -188 -6 -237 133 -237s179 49 208 237c30 188 6 236 -132 236z" />
    <glyph glyph-name="oacute" unicode="&#xf3;" horiz-adv-x="543" 
d="M414 735h26c4 0 5 -2 5 -5v-6c0 -4 -2 -7 -4 -9l-114 -118c-3 -3 -5 -3 -8 -1l-10 9c-2 2 -2 5 0 8l97 119c2 2 4 3 8 3zM308 538c168 0 200 -56 166 -271s-84 -272 -252 -272c-169 0 -200 57 -166 272s83 271 252 271zM303 503c-139 0 -178 -48 -209 -236
c-29 -188 -6 -237 133 -237s179 49 208 237c30 188 6 236 -132 236z" />
    <glyph glyph-name="obreve" unicode="&#x14f;" horiz-adv-x="543" 
d="M440 721h18c5 0 6 -2 5 -7c-16 -85 -49 -110 -145 -110s-121 25 -111 110c1 5 3 7 7 7h19c4 0 6 -2 5 -6c-5 -61 13 -79 85 -79s96 18 109 79c2 4 4 6 8 6zM308 538c168 0 200 -56 166 -271s-84 -272 -252 -272c-169 0 -200 57 -166 272s83 271 252 271zM303 503
c-139 0 -178 -48 -209 -236c-29 -188 -6 -237 133 -237s179 49 208 237c30 188 6 236 -132 236z" />
    <glyph glyph-name="ocaron" unicode="&#x1d2;" horiz-adv-x="543" 
d="M440 734l10 -8c2 -3 3 -5 0 -9l-115 -118c-2 -3 -4 -4 -8 -4h-18c-5 0 -7 0 -9 4l-77 118c-2 4 -1 5 2 8l13 9c3 2 6 2 8 -1l78 -99l108 99c3 3 6 3 8 1zM308 538c168 0 200 -56 166 -271s-84 -272 -252 -272c-169 0 -200 57 -166 272s83 271 252 271zM303 503
c-139 0 -178 -48 -209 -236c-29 -188 -6 -237 133 -237s179 49 208 237c30 188 6 236 -132 236z" />
    <glyph glyph-name="ocircumflex" unicode="&#xf4;" horiz-adv-x="543" 
d="M329 735h19c4 0 5 0 7 -3l77 -119c3 -3 1 -6 -2 -8l-12 -9c-3 -2 -6 -2 -8 1l-77 100l-109 -100c-4 -3 -5 -3 -8 -1l-10 9c-2 2 -3 5 0 8l115 119c2 2 3 3 8 3zM308 538c168 0 200 -56 166 -271s-84 -272 -252 -272c-169 0 -200 57 -166 272s83 271 252 271zM303 503
c-139 0 -178 -48 -209 -236c-29 -188 -6 -237 133 -237s179 49 208 237c30 188 6 236 -132 236z" />
    <glyph glyph-name="odieresis" unicode="&#xf6;" horiz-adv-x="543" 
d="M255 689c18 0 30 -8 26 -31c-3 -19 -14 -31 -35 -31c-18 0 -30 10 -26 31c3 21 17 31 35 31zM407 689c17 0 29 -8 26 -31c-3 -19 -14 -31 -35 -31c-18 0 -30 10 -27 31c4 21 18 31 36 31zM308 538c168 0 200 -56 166 -271s-84 -272 -252 -272c-169 0 -200 57 -166 272
s83 271 252 271zM303 503c-139 0 -178 -48 -209 -236c-29 -188 -6 -237 133 -237s179 49 208 237c30 188 6 236 -132 236z" />
    <glyph glyph-name="ograve" unicode="&#xf2;" horiz-adv-x="543" 
d="M242 735h27c4 0 5 -1 6 -3l60 -119c2 -3 1 -6 -2 -8l-13 -9c-3 -2 -6 -2 -8 1l-75 117c-2 2 -2 5 -2 8v8c0 3 4 5 7 5zM308 538c168 0 200 -56 166 -271s-84 -272 -252 -272c-169 0 -200 57 -166 272s83 271 252 271zM303 503c-139 0 -178 -48 -209 -236
c-29 -188 -6 -237 133 -237s179 49 208 237c30 188 6 236 -132 236z" />
    <glyph glyph-name="ohungarumlaut" unicode="&#x151;" horiz-adv-x="543" 
d="M321 735h27c3 0 4 -2 4 -5v-6c0 -4 -1 -7 -4 -9l-114 -118c-2 -3 -5 -3 -8 -1l-10 9c-2 2 -2 5 0 8l97 119c2 2 4 3 8 3zM470 735h26c4 0 5 -2 5 -5v-6c0 -4 -2 -7 -5 -9l-113 -118c-3 -3 -5 -3 -9 -1l-9 9c-3 2 -3 5 0 8l96 119c3 2 5 3 9 3zM308 538
c168 0 200 -56 166 -271s-84 -272 -252 -272c-169 0 -200 57 -166 272s83 271 252 271zM303 503c-139 0 -178 -48 -209 -236c-29 -188 -6 -237 133 -237s179 49 208 237c30 188 6 236 -132 236z" />
    <glyph glyph-name="omacron" unicode="&#x14d;" horiz-adv-x="543" 
d="M210 666h236c5 0 8 -2 6 -7l-2 -20c-1 -5 -4 -7 -8 -7l-237 1c-4 0 -7 2 -6 7l3 19c1 5 4 7 8 7zM308 538c168 0 200 -56 166 -271s-84 -272 -252 -272c-169 0 -200 57 -166 272s83 271 252 271zM303 503c-139 0 -178 -48 -209 -236c-29 -188 -6 -237 133 -237
s179 49 208 237c30 188 6 236 -132 236z" />
    <glyph glyph-name="oslash" unicode="&#xf8;" horiz-adv-x="543" 
d="M474 267c-34 -215 -84 -272 -252 -272c-68 0 -114 9 -142 36l-29 -32c-4 -5 -7 -5 -10 -2l-15 13c-3 2 -3 6 0 9l33 38c-20 42 -19 108 -3 210c34 215 83 271 252 271c69 0 114 -10 142 -37l25 29c4 4 7 4 11 1l15 -11c3 -3 4 -6 0 -10l-31 -34c21 -41 20 -108 4 -209z
M303 503c-139 0 -178 -48 -209 -236c-13 -82 -15 -136 -2 -173l329 375c-22 25 -59 34 -118 34zM438 439l-330 -375c23 -25 61 -34 119 -34c139 0 179 49 208 237c13 81 16 136 3 172z" />
    <glyph glyph-name="oslashacute" unicode="&#x1ff;" horiz-adv-x="543" 
d="M381 735h26c4 0 5 -2 5 -5v-7c0 -3 -3 -6 -5 -8l-113 -118c-3 -3 -5 -3 -9 -1l-9 9c-3 2 -3 5 0 8l97 119c2 2 4 3 8 3zM474 267c-34 -215 -83 -272 -252 -272c-68 0 -114 9 -141 36l-29 -32c-5 -5 -7 -5 -10 -2l-15 13c-3 2 -3 6 0 9l33 38c-21 42 -20 108 -4 210
c35 215 84 271 253 271c69 0 114 -10 142 -37l25 29c4 4 7 4 10 1l16 -11c3 -3 3 -6 0 -10l-31 -34c21 -41 20 -108 3 -209zM303 503c-139 0 -178 -48 -208 -236c-13 -82 -15 -136 -3 -173l330 375c-22 25 -60 34 -119 34zM439 439l-330 -375c22 -25 61 -34 119 -34
c138 0 178 49 208 237c13 81 16 136 3 172z" />
    <glyph glyph-name="otilde" unicode="&#xf5;" horiz-adv-x="543" 
d="M390 616c-59 0 -84 58 -127 58c-21 0 -36 -12 -57 -55c-3 -6 -5 -7 -10 -5l-14 2c-5 2 -4 4 -3 9c25 62 46 84 86 84c58 0 82 -58 126 -58c26 0 40 17 57 51c3 6 4 6 8 5l16 -1c4 -1 6 -3 4 -9c-24 -63 -49 -81 -86 -81zM308 538c168 0 200 -56 166 -271
s-84 -272 -252 -272c-169 0 -200 57 -166 272s83 271 252 271zM303 503c-139 0 -178 -48 -209 -236c-29 -188 -6 -237 133 -237s179 49 208 237c30 188 6 236 -132 236z" />
    <glyph glyph-name="oe" unicode="&#x153;" horiz-adv-x="893" 
d="M683 538c157 0 187 -49 159 -247l-5 -30c-2 -9 -4 -13 -18 -13h-347c-26 -172 -5 -218 130 -218h144c5 0 8 -2 7 -6l-4 -17c-1 -4 -3 -6 -8 -7c-38 -5 -118 -5 -144 -5c-111 0 -159 24 -170 100c-38 -76 -97 -100 -205 -100c-168 0 -200 57 -166 272
c35 215 84 271 253 271c107 0 159 -23 172 -99c35 77 91 99 202 99zM303 503c-139 0 -178 -48 -208 -236c-29 -188 -6 -237 133 -237c138 0 178 49 208 237s6 236 -133 236zM677 503c-136 0 -171 -44 -200 -219h325c27 182 3 219 -125 219z" />
    <glyph glyph-name="p" unicode="p" horiz-adv-x="552" 
d="M325 538c174 0 190 -53 155 -278c-35 -216 -68 -265 -265 -265c-44 0 -88 2 -144 5l-29 -185c-1 -5 -4 -7 -8 -7h-26c-4 0 -6 2 -5 8l111 704c1 7 4 12 14 14c101 4 146 4 197 4zM320 503h-170l-74 -468c47 -4 97 -5 144 -5c165 0 191 43 221 230c31 196 27 243 -121 243
z" />
    <glyph glyph-name="thorn" unicode="&#xfe;" horiz-adv-x="551" 
d="M155 735h25c5 0 7 -2 6 -7l-31 -193c55 2 101 3 147 3c196 0 214 -49 179 -265c-35 -225 -68 -278 -242 -278c-44 0 -87 1 -168 11l-29 -191c-1 -5 -4 -7 -8 -7h-26c-4 0 -6 2 -5 7l144 914c1 4 4 6 8 6zM296 503h-146l-72 -460c79 -11 122 -13 167 -13
c141 0 167 47 198 243c30 187 18 230 -147 230z" />
    <glyph glyph-name="q" unicode="q" horiz-adv-x="550" 
d="M298 538c51 0 97 0 197 -4c8 -2 9 -7 8 -14l-111 -705c-1 -5 -4 -7 -8 -7h-25c-5 0 -7 2 -6 8l29 184c-56 -3 -102 -5 -146 -5c-197 0 -215 49 -180 265c35 225 68 278 242 278zM462 503h-170c-143 0 -167 -46 -198 -242c-30 -188 -18 -231 147 -231c48 0 98 1 146 5z
" />
    <glyph glyph-name="r" unicode="r" horiz-adv-x="314" 
d="M233 538c27 0 76 -2 94 -5c5 -1 7 -3 6 -7l-4 -16c-1 -5 -3 -7 -7 -7h-91c-23 0 -83 -2 -93 -59l-69 -437c-1 -4 -4 -7 -8 -7h-25c-4 0 -7 3 -6 7l70 441c15 90 110 90 133 90z" />
    <glyph glyph-name="racute" unicode="&#x155;" horiz-adv-x="314" 
d="M303 735h27c3 0 5 -2 5 -5v-6c0 -4 -2 -7 -5 -9l-114 -118c-2 -3 -4 -3 -8 -1l-10 9c-2 2 -2 5 0 8l97 119c2 2 5 3 8 3zM233 538c27 0 76 -2 94 -5c5 -1 7 -3 6 -7l-4 -16c-1 -5 -3 -7 -7 -7h-91c-23 0 -83 -2 -93 -59l-69 -437c-1 -4 -4 -7 -8 -7h-25c-4 0 -7 3 -6 7
l70 441c15 90 110 90 133 90z" />
    <glyph glyph-name="rcaron" unicode="&#x159;" horiz-adv-x="314" 
d="M345 734l10 -8c2 -3 3 -5 0 -9l-115 -118c-2 -3 -4 -4 -8 -4h-18c-5 0 -6 0 -8 4l-78 118c-2 4 -1 5 2 8l13 9c3 2 6 2 8 -1l78 -99l108 99c4 3 6 3 8 1zM233 538c27 0 76 -2 94 -5c5 -1 7 -3 6 -7l-4 -16c-1 -5 -3 -7 -7 -7h-91c-23 0 -83 -2 -93 -59l-69 -437
c-1 -4 -4 -7 -8 -7h-25c-4 0 -7 3 -6 7l70 441c15 90 110 90 133 90z" />
    <glyph glyph-name="rcommaaccent" unicode="&#x157;" horiz-adv-x="314" 
d="M233 538c27 0 76 -2 94 -5c5 -1 7 -3 6 -7l-4 -16c-1 -5 -3 -7 -7 -7h-91c-23 0 -83 -2 -93 -59l-69 -437c-1 -4 -4 -7 -8 -7h-25c-4 0 -7 3 -6 7l70 441c15 90 110 90 133 90zM33 -36h25c4 0 5 -2 5 -6v-5c0 -4 -2 -7 -5 -9l-112 -118c-2 -3 -5 -3 -8 -1l-10 9
c-2 2 -2 4 0 8l97 119c2 2 5 3 8 3z" />
    <glyph glyph-name="s" unicode="s" horiz-adv-x="456" 
d="M250 538c24 0 128 0 166 -4c5 -1 6 -4 5 -8l-3 -16c-1 -5 -3 -7 -7 -7h-173c-39 0 -114 -6 -125 -74l-3 -22c-7 -44 -1 -69 54 -94l150 -68c64 -30 74 -68 65 -120l-2 -16c-15 -89 -65 -114 -206 -114c-32 0 -132 1 -161 5c-6 1 -7 3 -6 7l3 16c1 5 3 7 8 7h162
c112 0 152 19 161 79l2 17c7 38 -2 66 -48 87l-152 68c-70 32 -77 70 -69 127l4 22c16 102 120 108 175 108z" />
    <glyph glyph-name="sacute" unicode="&#x15b;" horiz-adv-x="456" 
d="M360 735h27c3 0 5 -2 5 -5v-6c0 -4 -2 -7 -5 -9l-114 -118c-2 -3 -5 -3 -8 -1l-10 9c-2 2 -2 5 0 8l97 119c2 2 5 3 8 3zM250 538c24 0 128 0 166 -4c5 -1 6 -4 5 -8l-3 -16c-1 -5 -3 -7 -7 -7h-173c-39 0 -114 -6 -125 -74l-3 -22c-7 -44 -1 -69 54 -94l150 -68
c64 -30 74 -68 65 -120l-2 -16c-15 -89 -65 -114 -206 -114c-32 0 -132 1 -161 5c-6 1 -7 3 -6 7l3 16c1 5 3 7 8 7h162c112 0 152 19 161 79l2 17c7 38 -2 66 -48 87l-152 68c-70 32 -77 70 -69 127l4 22c16 102 120 108 175 108z" />
    <glyph glyph-name="scaron" unicode="&#x161;" horiz-adv-x="456" 
d="M399 734l10 -8c2 -3 3 -5 0 -9l-115 -118c-2 -3 -4 -4 -8 -4h-18c-5 0 -7 0 -9 4l-77 118c-2 4 -1 5 2 8l13 9c3 2 5 2 8 -1l78 -99l108 99c3 3 6 3 8 1zM250 538c24 0 128 0 166 -4c5 -1 6 -4 5 -8l-3 -16c-1 -5 -3 -7 -7 -7h-173c-39 0 -114 -6 -125 -74l-3 -22
c-7 -44 -1 -69 54 -94l150 -68c64 -30 74 -68 65 -120l-2 -16c-15 -89 -65 -114 -206 -114c-32 0 -132 1 -161 5c-6 1 -7 3 -6 7l3 16c1 5 3 7 8 7h162c112 0 152 19 161 79l2 17c7 38 -2 66 -48 87l-152 68c-70 32 -77 70 -69 127l4 22c16 102 120 108 175 108z" />
    <glyph glyph-name="scedilla" unicode="&#x15f;" horiz-adv-x="456" 
d="M250 538c24 0 128 0 166 -4c5 -1 6 -4 5 -8l-3 -16c-1 -5 -3 -7 -7 -7h-173c-39 0 -114 -6 -125 -74l-3 -22c-7 -44 -1 -69 54 -94l150 -68c64 -30 74 -68 65 -120l-2 -16c-14 -82 -58 -110 -175 -114c3 -27 3 -55 0 -76c-9 -60 -36 -74 -94 -74c-9 0 -24 1 -47 4
c-6 1 -6 3 -5 8l2 15c1 5 3 7 8 7h43c40 0 56 6 62 47c3 17 2 43 0 69c-34 0 -132 1 -161 5c-6 1 -7 3 -6 7l3 16c1 5 3 7 8 7h162c112 0 152 19 161 79l2 17c7 38 -2 66 -48 87l-152 68c-70 32 -77 70 -69 127l4 22c16 102 120 108 175 108z" />
    <glyph glyph-name="scircumflex" unicode="&#x15d;" horiz-adv-x="456" 
d="M278 735h19c4 0 5 0 7 -3l77 -119c3 -3 1 -6 -2 -8l-12 -9c-4 -2 -6 -2 -8 1l-77 100l-109 -100c-4 -3 -5 -3 -9 -1l-9 9c-3 2 -4 5 0 8l115 119c2 2 3 3 8 3zM250 538c24 0 128 0 166 -4c5 -1 6 -4 5 -8l-3 -16c-1 -5 -3 -7 -7 -7h-173c-39 0 -114 -6 -125 -74l-3 -22
c-7 -44 -1 -69 54 -94l150 -68c64 -30 74 -68 65 -120l-2 -16c-15 -89 -65 -114 -206 -114c-32 0 -132 1 -161 5c-6 1 -7 3 -6 7l3 16c1 5 3 7 8 7h162c112 0 152 19 161 79l2 17c7 38 -2 66 -48 87l-152 68c-70 32 -77 70 -69 127l4 22c16 102 120 108 175 108z" />
    <glyph glyph-name="scommaaccent" unicode="&#x219;" horiz-adv-x="456" 
d="M250 538c24 0 128 0 166 -4c5 -1 6 -4 5 -8l-3 -16c-1 -5 -3 -7 -7 -7h-173c-39 0 -114 -6 -125 -74l-3 -22c-7 -44 -1 -69 54 -94l150 -68c64 -30 74 -68 65 -120l-2 -16c-15 -89 -65 -114 -206 -114c-32 0 -132 1 -161 5c-6 1 -7 3 -6 7l3 16c1 5 3 7 8 7h162
c112 0 152 19 161 79l2 17c7 38 -2 66 -48 87l-152 68c-70 32 -77 70 -69 127l4 22c16 102 120 108 175 108zM180 -36h25c4 0 5 -2 5 -6v-5c0 -4 -2 -7 -5 -9l-112 -118c-2 -3 -5 -3 -8 -1l-10 9c-2 2 -2 4 0 8l97 119c2 2 5 3 8 3z" />
    <glyph glyph-name="germandbls" unicode="&#xdf;" horiz-adv-x="570" 
d="M345 741c149 0 210 -42 184 -203c-14 -89 -47 -148 -113 -163v-2c83 -16 92 -95 79 -177c-26 -165 -123 -201 -271 -201c-19 0 -50 1 -104 2c-5 1 -8 3 -6 7l9 21c1 4 4 6 8 6h100c124 0 204 30 226 166c19 123 -31 160 -141 160h-92c-4 0 -7 3 -6 7l4 22c0 4 3 6 7 6h92
c95 0 150 22 170 145c21 135 -27 168 -152 168c-138 0 -166 -58 -183 -164l-84 -534c-1 -4 -4 -7 -8 -7h-25c-5 0 -7 3 -6 7l84 532c21 131 59 202 228 202z" />
    <glyph glyph-name="t" unicode="t" horiz-adv-x="286" 
d="M160 679l27 6c4 1 7 0 6 -6l-23 -147h120c4 0 6 -2 5 -7l-4 -19c-1 -6 -3 -8 -8 -8h-118l-65 -409c-7 -46 4 -59 54 -59h65c4 0 8 -1 7 -7l-3 -16c-1 -5 -4 -7 -9 -8c-20 -3 -54 -4 -63 -4c-73 0 -103 17 -90 90l65 413h-58c-5 0 -8 3 -7 8l4 19c1 5 4 7 8 7h58l23 140
c0 4 2 6 6 7z" />
    <glyph glyph-name="tbar" unicode="&#x167;" horiz-adv-x="288" 
d="M172 532h120c4 0 6 -2 5 -7l-4 -19c-1 -6 -3 -8 -8 -8h-118l-30 -186h97c4 0 6 -2 5 -6l-3 -19c-1 -5 -4 -8 -8 -8h-96l-30 -190c-7 -46 4 -59 54 -59h65c4 0 8 -1 7 -7l-3 -16c-1 -5 -4 -7 -9 -8c-20 -3 -54 -4 -63 -4c-73 0 -103 17 -90 90l31 194h-47c-4 0 -7 2 -6 6
l3 20c1 5 4 7 8 7h47l29 186h-58c-5 0 -8 3 -7 8l4 19c1 5 4 7 8 7h58l23 140c0 4 2 6 6 7l27 6c4 1 7 0 6 -6z" />
    <glyph glyph-name="tcaron" unicode="&#x165;" horiz-adv-x="304" 
d="M361 735h25c4 0 5 -2 5 -5v-7c0 -3 -2 -6 -4 -8l-106 -118c-2 -3 -5 -3 -8 -1l-9 9c-2 2 -3 4 0 8l89 119c2 3 4 3 8 3zM160 679l27 6c4 1 7 0 6 -6l-23 -147h120c4 0 6 -2 5 -7l-4 -19c-1 -6 -3 -8 -8 -8h-118l-65 -409c-7 -46 4 -59 54 -59h65c4 0 8 -1 7 -7l-3 -16
c-1 -5 -4 -7 -9 -8c-20 -3 -54 -4 -63 -4c-73 0 -103 17 -90 90l65 413h-58c-5 0 -8 3 -7 8l4 19c1 5 4 7 8 7h58l23 140c0 4 2 6 6 7z" />
    <glyph glyph-name="tcedilla" unicode="&#x163;" horiz-adv-x="286" 
d="M170 532h120c4 0 6 -2 5 -7l-4 -19c-1 -6 -3 -8 -8 -8h-118l-65 -409c-7 -46 4 -59 54 -59h65c4 0 8 -1 7 -7l-3 -16c-1 -5 -4 -7 -9 -8c-16 -2 -42 -4 -56 -4c2 -28 3 -55 -1 -76c-9 -60 -35 -74 -93 -74c-9 0 -24 1 -48 4c-5 1 -5 3 -4 8l2 15c1 5 3 7 8 7h43
c39 0 55 6 62 47c3 18 2 44 -1 70c-55 4 -76 25 -65 89l65 413h-58c-5 0 -8 3 -7 8l4 19c1 5 4 7 8 7h58l23 140c0 4 2 6 6 7l27 6c4 1 7 0 6 -6z" />
    <glyph glyph-name="uni021B" unicode="&#x21b;" horiz-adv-x="286" 
d="M160 679l27 6c4 1 7 0 6 -6l-23 -147h120c4 0 6 -2 5 -7l-4 -19c-1 -6 -3 -8 -8 -8h-118l-65 -409c-7 -46 4 -59 54 -59h65c4 0 8 -1 7 -7l-3 -16c-1 -5 -4 -7 -9 -8c-20 -3 -54 -4 -63 -4c-73 0 -103 17 -90 90l65 413h-58c-5 0 -8 3 -7 8l4 19c1 5 4 7 8 7h58l23 140
c0 4 2 6 6 7zM123 -36h25c4 0 5 -2 5 -6v-6c0 -3 -2 -6 -5 -8l-112 -118c-2 -3 -5 -3 -8 -1l-9 9c-3 2 -3 4 -1 8l97 119c3 2 5 3 8 3z" />
    <glyph glyph-name="u" unicode="u" 
d="M488 532h26c4 0 6 -3 5 -8l-82 -514c0 -3 -2 -6 -9 -7c-69 -8 -142 -8 -203 -8c-136 0 -194 27 -165 212l50 317c1 5 4 8 8 8h25c5 0 6 -3 6 -7l-51 -318c-24 -157 22 -177 129 -177h175l78 495c2 5 4 7 8 7z" />
    <glyph glyph-name="uacute" unicode="&#xfa;" 
d="M396 735h27c3 0 5 -2 5 -5v-6c0 -4 -2 -7 -5 -9l-113 -118c-3 -3 -5 -3 -9 -1l-9 9c-3 2 -3 5 -1 8l97 119c3 2 5 3 8 3zM488 532h26c4 0 6 -3 5 -8l-82 -514c0 -3 -2 -6 -9 -7c-69 -8 -142 -8 -203 -8c-136 0 -194 27 -165 212l50 317c1 5 4 8 8 8h25c5 0 6 -3 6 -7
l-51 -318c-24 -157 22 -177 129 -177h175l78 495c2 5 4 7 8 7z" />
    <glyph glyph-name="ubreve" unicode="&#x16d;" 
d="M449 721h19c5 0 6 -2 4 -7c-15 -85 -48 -110 -145 -110c-96 0 -121 25 -110 110c1 5 2 7 7 7h19c4 0 5 -2 5 -6c-6 -61 12 -79 84 -79c73 0 96 18 110 79c1 4 3 6 7 6zM488 532h26c4 0 6 -3 5 -8l-82 -514c0 -3 -2 -6 -9 -7c-69 -8 -142 -8 -203 -8
c-136 0 -194 27 -165 212l50 317c1 5 4 8 8 8h25c5 0 6 -3 6 -7l-51 -318c-24 -157 22 -177 129 -177h175l78 495c2 5 4 7 8 7z" />
    <glyph glyph-name="ucaron" unicode="&#x1d4;" 
d="M450 734l9 -8c3 -3 4 -5 1 -9l-116 -118c-2 -3 -3 -4 -7 -4h-19c-5 0 -6 0 -8 4l-77 118c-3 4 -1 5 1 8l13 9c4 2 6 2 9 -1l77 -99l108 99c4 3 6 3 9 1zM488 532h26c4 0 6 -3 5 -8l-82 -514c0 -3 -2 -6 -9 -7c-69 -8 -142 -8 -203 -8c-136 0 -194 27 -165 212l50 317
c1 5 4 8 8 8h25c5 0 6 -3 6 -7l-51 -318c-24 -157 22 -177 129 -177h175l78 495c2 5 4 7 8 7z" />
    <glyph glyph-name="ucircumflex" unicode="&#xfb;" 
d="M338 735h19c4 0 6 0 8 -3l77 -119c2 -3 1 -6 -3 -8l-12 -9c-3 -2 -5 -2 -8 1l-77 100l-109 -100c-3 -3 -5 -3 -8 -1l-10 9c-2 2 -3 5 0 8l115 119c3 2 4 3 8 3zM488 532h26c4 0 6 -3 5 -8l-82 -514c0 -3 -2 -6 -9 -7c-69 -8 -142 -8 -203 -8c-136 0 -194 27 -165 212
l50 317c1 5 4 8 8 8h25c5 0 6 -3 6 -7l-51 -318c-24 -157 22 -177 129 -177h175l78 495c2 5 4 7 8 7z" />
    <glyph glyph-name="udieresis" unicode="&#xfc;" 
d="M265 689c17 0 29 -8 25 -31c-2 -19 -13 -31 -34 -31c-18 0 -30 10 -27 31c4 21 18 31 36 31zM416 689c18 0 30 -8 26 -31c-2 -19 -14 -31 -34 -31c-19 0 -31 10 -27 31c3 21 17 31 35 31zM488 532h26c4 0 6 -3 5 -8l-82 -514c0 -3 -2 -6 -9 -7c-69 -8 -142 -8 -203 -8
c-136 0 -194 27 -165 212l50 317c1 5 4 8 8 8h25c5 0 6 -3 6 -7l-51 -318c-24 -157 22 -177 129 -177h175l78 495c2 5 4 7 8 7z" />
    <glyph glyph-name="udieresisacute" unicode="&#x1d8;" 
d="M433 847h27c3 0 5 -2 5 -6v-6c0 -3 -2 -6 -5 -9l-114 -118c-2 -3 -4 -3 -8 -1l-10 9c-2 2 -2 5 0 8l97 119c2 3 5 4 8 4zM265 689c17 0 29 -8 25 -31c-2 -19 -13 -31 -34 -31c-18 0 -30 10 -27 31c4 21 18 31 36 31zM416 689c18 0 30 -8 26 -31c-2 -19 -14 -31 -34 -31
c-19 0 -31 10 -27 31c3 21 17 31 35 31zM488 532h26c4 0 6 -3 5 -8l-82 -514c0 -3 -2 -6 -9 -7c-69 -8 -142 -8 -203 -8c-136 0 -194 27 -165 212l50 317c1 5 4 8 8 8h25c5 0 6 -3 6 -7l-51 -318c-24 -157 22 -177 129 -177h175l78 495c2 5 4 7 8 7z" />
    <glyph glyph-name="udieresiscaron" unicode="&#x1da;" 
d="M468 844l9 -8c3 -2 4 -5 1 -8l-116 -119c-2 -3 -3 -4 -7 -4h-19c-5 0 -6 1 -8 4l-77 119c-3 3 -1 5 2 7l12 9c4 3 6 3 9 0l77 -100l109 100c3 3 5 3 8 0zM265 689c17 0 29 -8 25 -31c-2 -19 -13 -31 -34 -31c-18 0 -30 10 -27 31c4 21 18 31 36 31zM416 689
c18 0 30 -8 26 -31c-2 -19 -14 -31 -34 -31c-19 0 -31 10 -27 31c3 21 17 31 35 31zM488 532h26c4 0 6 -3 5 -8l-82 -514c0 -3 -2 -6 -9 -7c-69 -8 -142 -8 -203 -8c-136 0 -194 27 -165 212l50 317c1 5 4 8 8 8h25c5 0 6 -3 6 -7l-51 -318c-24 -157 22 -177 129 -177h175
l78 495c2 5 4 7 8 7z" />
    <glyph glyph-name="udieresisgrave" unicode="&#x1dc;" 
d="M255 847h27c4 0 5 -1 6 -4l60 -119c2 -3 1 -6 -2 -8l-13 -9c-4 -2 -6 -2 -8 1l-75 117c-2 2 -2 5 -2 8v8c0 4 3 6 7 6zM265 689c17 0 29 -8 25 -31c-2 -19 -13 -31 -34 -31c-18 0 -30 10 -27 31c4 21 18 31 36 31zM416 689c18 0 30 -8 26 -31c-2 -19 -14 -31 -34 -31
c-19 0 -31 10 -27 31c3 21 17 31 35 31zM488 532h26c4 0 6 -3 5 -8l-82 -514c0 -3 -2 -6 -9 -7c-69 -8 -142 -8 -203 -8c-136 0 -194 27 -165 212l50 317c1 5 4 8 8 8h25c5 0 6 -3 6 -7l-51 -318c-24 -157 22 -177 129 -177h175l78 495c2 5 4 7 8 7z" />
    <glyph glyph-name="udieresismacron" unicode="&#x1d6;" 
d="M237 804h236c5 0 7 -2 6 -7l-3 -20c-1 -5 -3 -7 -7 -7l-237 1c-5 0 -7 2 -6 7l3 19c1 5 4 7 8 7zM265 689c17 0 29 -8 25 -31c-2 -19 -13 -31 -34 -31c-18 0 -30 10 -27 31c4 21 18 31 36 31zM416 689c18 0 30 -8 26 -31c-2 -19 -14 -31 -34 -31c-19 0 -31 10 -27 31
c3 21 17 31 35 31zM488 532h26c4 0 6 -3 5 -8l-82 -514c0 -3 -2 -6 -9 -7c-69 -8 -142 -8 -203 -8c-136 0 -194 27 -165 212l50 317c1 5 4 8 8 8h25c5 0 6 -3 6 -7l-51 -318c-24 -157 22 -177 129 -177h175l78 495c2 5 4 7 8 7z" />
    <glyph glyph-name="ugrave" unicode="&#xf9;" 
d="M258 735h27c4 0 5 -1 6 -3l60 -119c2 -3 1 -6 -2 -8l-13 -9c-3 -2 -6 -2 -8 1l-75 117c-2 2 -2 5 -2 8v8c0 3 4 5 7 5zM488 532h26c4 0 6 -3 5 -8l-82 -514c0 -3 -2 -6 -9 -7c-69 -8 -142 -8 -203 -8c-136 0 -194 27 -165 212l50 317c1 5 4 8 8 8h25c5 0 6 -3 6 -7
l-51 -318c-24 -157 22 -177 129 -177h175l78 495c2 5 4 7 8 7z" />
    <glyph glyph-name="uhungarumlaut" unicode="&#x171;" 
d="M302 735h27c3 0 4 -2 4 -5v-6c0 -4 -1 -7 -4 -9l-114 -118c-2 -3 -5 -3 -8 -1l-10 9c-2 2 -2 5 0 8l97 119c2 2 5 3 8 3zM451 735h26c4 0 5 -2 5 -5v-6c0 -4 -2 -7 -5 -9l-113 -118c-3 -3 -5 -3 -9 -1l-9 9c-3 2 -3 5 0 8l97 119c2 2 4 3 8 3zM488 532h26c4 0 6 -3 5 -8
l-82 -514c0 -3 -2 -6 -9 -7c-69 -8 -142 -8 -203 -8c-136 0 -194 27 -165 212l50 317c1 5 4 8 8 8h25c5 0 6 -3 6 -7l-51 -318c-24 -157 22 -177 129 -177h175l78 495c2 5 4 7 8 7z" />
    <glyph glyph-name="umacron" unicode="&#x16b;" 
d="M219 666h237c5 0 7 -2 6 -7l-3 -20c-1 -5 -4 -7 -8 -7l-237 1c-4 0 -6 2 -5 7l2 19c2 5 4 7 8 7zM488 532h26c4 0 6 -3 5 -8l-82 -514c0 -3 -2 -6 -9 -7c-69 -8 -142 -8 -203 -8c-136 0 -194 27 -165 212l50 317c1 5 4 8 8 8h25c5 0 6 -3 6 -7l-51 -318
c-24 -157 22 -177 129 -177h175l78 495c2 5 4 7 8 7z" />
    <glyph glyph-name="uogonek" unicode="&#x173;" 
d="M488 532h26c4 0 6 -3 5 -8l-82 -514c0 -3 -2 -6 -9 -7c-28 -3 -57 -5 -86 -6c-8 -22 -20 -48 -23 -71c-6 -41 6 -47 48 -47h42c5 0 7 -2 6 -7l-3 -15c-1 -4 -2 -7 -7 -8c-11 -3 -49 -4 -60 -4c-46 0 -69 20 -59 74c3 20 12 49 23 77c-29 -1 -58 -1 -84 -1
c-136 0 -194 27 -165 212l50 317c1 5 4 8 8 8h25c5 0 6 -3 6 -7l-51 -318c-24 -157 22 -177 129 -177h175l78 495c2 5 4 7 8 7z" />
    <glyph glyph-name="uring" unicode="&#x16f;" 
d="M347 773c61 0 87 -30 78 -88c-9 -59 -45 -89 -106 -89c-60 0 -86 30 -77 89c9 58 44 88 105 88zM343 747c-41 0 -66 -21 -72 -62c-6 -40 10 -62 52 -62s66 22 72 62c6 41 -11 62 -52 62zM488 532h26c4 0 6 -3 5 -8l-82 -514c0 -3 -2 -6 -9 -7c-69 -8 -142 -8 -203 -8
c-136 0 -194 27 -165 212l50 317c1 5 4 8 8 8h25c5 0 6 -3 6 -7l-51 -318c-24 -157 22 -177 129 -177h175l78 495c2 5 4 7 8 7z" />
    <glyph glyph-name="utilde" unicode="&#x169;" 
d="M400 616c-59 0 -84 58 -127 58c-22 0 -37 -12 -57 -55c-3 -6 -5 -7 -10 -5l-14 2c-5 2 -5 4 -3 9c24 62 45 84 85 84c59 0 82 -58 126 -58c26 0 40 17 57 51c3 6 5 6 9 5l15 -1c4 -1 7 -3 4 -9c-23 -63 -49 -81 -85 -81zM488 532h26c4 0 6 -3 5 -8l-82 -514
c0 -3 -2 -6 -9 -7c-69 -8 -142 -8 -203 -8c-136 0 -194 27 -165 212l50 317c1 5 4 8 8 8h25c5 0 6 -3 6 -7l-51 -318c-24 -157 22 -177 129 -177h175l78 495c2 5 4 7 8 7z" />
    <glyph glyph-name="v" unicode="v" horiz-adv-x="497" 
d="M462 532h26c6 0 7 -3 6 -8l-187 -416c-43 -97 -49 -113 -109 -113c-59 0 -60 16 -72 113l-55 415c-1 6 1 9 7 9h28c4 0 5 -2 6 -7l52 -408c8 -78 11 -85 40 -85c31 0 35 7 68 85l182 409c2 4 3 6 8 6z" />
    <glyph glyph-name="w" unicode="w" horiz-adv-x="780" 
d="M742 532h25c6 0 7 -3 5 -8l-155 -399c-47 -120 -57 -130 -107 -130c-53 0 -57 10 -68 130l-30 331l-134 -331c-48 -120 -56 -130 -109 -130c-50 0 -57 10 -66 130l-28 398c0 7 0 9 6 9h27c4 0 6 -2 6 -6l28 -394c7 -87 12 -99 33 -99c24 0 30 6 67 99l146 357
c5 13 8 16 15 16h34c7 0 10 -3 11 -16l32 -357c9 -93 12 -99 37 -99c21 0 29 12 63 99l154 393c2 5 3 7 8 7z" />
    <glyph glyph-name="wacute" unicode="&#x1e83;" horiz-adv-x="780" 
d="M521 735h27c3 0 5 -2 5 -5v-6c0 -4 -2 -7 -5 -9l-114 -118c-2 -3 -4 -3 -8 -1l-10 9c-2 2 -2 5 0 8l97 119c2 2 5 3 8 3zM742 532h25c6 0 7 -3 5 -8l-155 -399c-47 -120 -57 -130 -107 -130c-53 0 -57 10 -68 130l-30 331l-134 -331c-48 -120 -56 -130 -109 -130
c-50 0 -57 10 -66 130l-28 398c0 7 0 9 6 9h27c4 0 6 -2 6 -6l28 -394c7 -87 12 -99 33 -99c24 0 30 6 67 99l146 357c5 13 8 16 15 16h34c7 0 10 -3 11 -16l32 -357c9 -93 12 -99 37 -99c21 0 29 12 63 99l154 393c2 5 3 7 8 7z" />
    <glyph glyph-name="wcircumflex" unicode="&#x175;" horiz-adv-x="780" 
d="M446 735h19c5 0 6 0 8 -3l77 -119c2 -3 1 -6 -3 -8l-12 -9c-3 -2 -5 -2 -8 1l-77 100l-109 -100c-3 -3 -5 -3 -8 -1l-10 9c-2 2 -3 5 0 8l115 119c3 2 4 3 8 3zM742 532h25c6 0 7 -3 5 -8l-155 -399c-47 -120 -57 -130 -107 -130c-53 0 -57 10 -68 130l-30 331l-134 -331
c-48 -120 -56 -130 -109 -130c-50 0 -57 10 -66 130l-28 398c0 7 0 9 6 9h27c4 0 6 -2 6 -6l28 -394c7 -87 12 -99 33 -99c24 0 30 6 67 99l146 357c5 13 8 16 15 16h34c7 0 10 -3 11 -16l32 -357c9 -93 12 -99 37 -99c21 0 29 12 63 99l154 393c2 5 3 7 8 7z" />
    <glyph glyph-name="wdieresis" unicode="&#x1e85;" horiz-adv-x="780" 
d="M373 689c17 0 29 -8 26 -31c-3 -19 -14 -31 -35 -31c-18 0 -30 10 -27 31c4 21 18 31 36 31zM525 689c17 0 29 -8 25 -31c-2 -19 -14 -31 -34 -31c-18 0 -31 10 -27 31s17 31 36 31zM742 532h25c6 0 7 -3 5 -8l-155 -399c-47 -120 -57 -130 -107 -130
c-53 0 -57 10 -68 130l-30 331l-134 -331c-48 -120 -56 -130 -109 -130c-50 0 -57 10 -66 130l-28 398c0 7 0 9 6 9h27c4 0 6 -2 6 -6l28 -394c7 -87 12 -99 33 -99c24 0 30 6 67 99l146 357c5 13 8 16 15 16h34c7 0 10 -3 11 -16l32 -357c9 -93 12 -99 37 -99
c21 0 29 12 63 99l154 393c2 5 3 7 8 7z" />
    <glyph glyph-name="wgrave" unicode="&#x1e81;" horiz-adv-x="780" 
d="M339 735h27c3 0 5 -1 6 -3l60 -119c1 -3 1 -6 -3 -8l-13 -9c-3 -2 -6 -2 -8 1l-75 117c-1 2 -1 5 -1 8v8c0 3 3 5 7 5zM742 532h25c6 0 7 -3 5 -8l-155 -399c-47 -120 -57 -130 -107 -130c-53 0 -57 10 -68 130l-30 331l-134 -331c-48 -120 -56 -130 -109 -130
c-50 0 -57 10 -66 130l-28 398c0 7 0 9 6 9h27c4 0 6 -2 6 -6l28 -394c7 -87 12 -99 33 -99c24 0 30 6 67 99l146 357c5 13 8 16 15 16h34c7 0 10 -3 11 -16l32 -357c9 -93 12 -99 37 -99c21 0 29 12 63 99l154 393c2 5 3 7 8 7z" />
    <glyph glyph-name="x" unicode="x" horiz-adv-x="482" 
d="M435 532h34c5 0 5 -4 2 -8l-211 -241l153 -275c1 -4 0 -8 -5 -8h-33c-3 0 -6 1 -7 4l-136 247l-216 -247c-2 -3 -5 -4 -8 -4h-33c-5 0 -6 4 -3 8l242 275l-134 241c-3 4 0 8 5 8h32c4 0 6 -3 7 -5l118 -211l184 212c3 2 6 4 9 4z" />
    <glyph glyph-name="y" unicode="y" horiz-adv-x="562" 
d="M485 532h26c4 0 6 -2 5 -7l-83 -523c-24 -155 -67 -200 -239 -200c-47 0 -89 1 -134 4c-4 0 -6 3 -5 7l2 18c1 5 4 6 8 6h134c140 0 175 36 194 154l2 16c-83 -10 -127 -12 -171 -12c-174 0 -189 53 -154 278l40 252c1 5 3 7 8 7h25c4 0 6 -2 5 -7l-40 -252
c-31 -196 -20 -243 121 -243c45 0 90 1 172 13l77 481c1 5 3 8 7 8z" />
    <glyph glyph-name="yacute" unicode="&#xfd;" horiz-adv-x="562" 
d="M405 735h26c4 0 5 -2 5 -5v-6c0 -4 -2 -7 -5 -9l-113 -118c-3 -3 -5 -3 -8 -1l-10 9c-2 2 -2 5 0 8l97 119c2 2 4 3 8 3zM485 532h26c4 0 6 -2 5 -7l-83 -523c-24 -155 -67 -200 -239 -200c-47 0 -89 1 -134 4c-4 0 -6 3 -5 7l2 18c1 5 4 6 8 6h134c140 0 175 36 194 154
l2 16c-83 -10 -127 -12 -171 -12c-174 0 -189 53 -154 278l40 252c1 5 3 7 8 7h25c4 0 6 -2 5 -7l-40 -252c-31 -196 -20 -243 121 -243c45 0 90 1 172 13l77 481c1 5 3 8 7 8z" />
    <glyph glyph-name="ycircumflex" unicode="&#x177;" horiz-adv-x="562" 
d="M350 735h19c4 0 6 0 8 -3l77 -119c2 -3 1 -6 -3 -8l-12 -9c-3 -2 -5 -2 -8 1l-77 100l-109 -100c-3 -3 -5 -3 -8 -1l-10 9c-2 2 -3 5 0 8l115 119c3 2 4 3 8 3zM485 532h26c4 0 6 -2 5 -7l-83 -523c-24 -155 -67 -200 -239 -200c-47 0 -89 1 -134 4c-4 0 -6 3 -5 7l2 18
c1 5 4 6 8 6h134c140 0 175 36 194 154l2 16c-83 -10 -127 -12 -171 -12c-174 0 -189 53 -154 278l40 252c1 5 3 7 8 7h25c4 0 6 -2 5 -7l-40 -252c-31 -196 -20 -243 121 -243c45 0 90 1 172 13l77 481c1 5 3 8 7 8z" />
    <glyph glyph-name="ydieresis" unicode="&#xff;" horiz-adv-x="562" 
d="M277 689c17 0 29 -8 25 -31c-2 -19 -13 -31 -34 -31c-18 0 -30 10 -27 31c4 21 18 31 36 31zM429 689c17 0 29 -8 25 -31c-2 -19 -14 -31 -34 -31c-19 0 -31 10 -27 31c3 21 17 31 36 31zM485 532h26c4 0 6 -2 5 -7l-83 -523c-24 -155 -67 -200 -239 -200
c-47 0 -89 1 -134 4c-4 0 -6 3 -5 7l2 18c1 5 4 6 8 6h134c140 0 175 36 194 154l2 16c-83 -10 -127 -12 -171 -12c-174 0 -189 53 -154 278l40 252c1 5 3 7 8 7h25c4 0 6 -2 5 -7l-40 -252c-31 -196 -20 -243 121 -243c45 0 90 1 172 13l77 481c1 5 3 8 7 8z" />
    <glyph glyph-name="ygrave" unicode="&#x1ef3;" horiz-adv-x="562" 
d="M270 735h27c4 0 5 -1 7 -3l59 -119c2 -3 1 -6 -2 -8l-13 -9c-3 -2 -6 -2 -8 1l-75 117c-2 2 -2 5 -2 8v8c0 3 4 5 7 5zM485 532h26c4 0 6 -2 5 -7l-83 -523c-24 -155 -67 -200 -239 -200c-47 0 -89 1 -134 4c-4 0 -6 3 -5 7l2 18c1 5 4 6 8 6h134c140 0 175 36 194 154
l2 16c-83 -10 -127 -12 -171 -12c-174 0 -189 53 -154 278l40 252c1 5 3 7 8 7h25c4 0 6 -2 5 -7l-40 -252c-31 -196 -20 -243 121 -243c45 0 90 1 172 13l77 481c1 5 3 8 7 8z" />
    <glyph glyph-name="ytilde" unicode="&#x1ef9;" horiz-adv-x="562" 
d="M412 616c-59 0 -84 58 -127 58c-22 0 -37 -12 -57 -55c-3 -6 -5 -7 -10 -5l-14 2c-5 2 -5 4 -3 9c24 62 45 84 85 84c59 0 82 -58 126 -58c26 0 40 17 57 51c3 6 5 6 9 5l15 -1c5 -1 7 -3 4 -9c-23 -63 -49 -81 -85 -81zM485 532h26c4 0 6 -2 5 -7l-83 -523
c-24 -155 -67 -200 -239 -200c-47 0 -89 1 -134 4c-4 0 -6 3 -5 7l2 18c1 5 4 6 8 6h134c140 0 175 36 194 154l2 16c-83 -10 -127 -12 -171 -12c-174 0 -189 53 -154 278l40 252c1 5 3 7 8 7h25c4 0 6 -2 5 -7l-40 -252c-31 -196 -20 -243 121 -243c45 0 90 1 172 13
l77 481c1 5 3 8 7 8z" />
    <glyph glyph-name="z" unicode="z" horiz-adv-x="484" 
d="M90 532h380c5 0 6 -3 6 -7l-2 -13c-1 -5 -3 -9 -8 -14l-423 -463h354c4 0 7 -1 6 -7l-3 -20c-1 -5 -4 -8 -8 -8h-400c-5 0 -7 2 -6 7l2 14c1 5 3 9 8 14l423 461h-335c-4 0 -7 2 -6 8l3 22c1 4 5 6 9 6z" />
    <glyph glyph-name="zacute" unicode="&#x17a;" horiz-adv-x="484" 
d="M364 735h27c4 0 5 -2 5 -5v-6c0 -4 -2 -7 -5 -9l-113 -118c-3 -3 -5 -3 -9 -1l-9 9c-3 2 -3 5 -1 8l97 119c3 2 5 3 8 3zM90 532h380c5 0 6 -3 6 -7l-2 -13c-1 -5 -3 -9 -8 -14l-423 -463h354c4 0 7 -1 6 -7l-3 -20c-1 -5 -4 -8 -8 -8h-400c-5 0 -7 2 -6 7l2 14
c1 5 3 9 8 14l423 461h-335c-4 0 -7 2 -6 8l3 22c1 4 5 6 9 6z" />
    <glyph glyph-name="zcaron" unicode="&#x17e;" horiz-adv-x="484" 
d="M409 734l10 -8c2 -3 3 -5 0 -9l-115 -118c-2 -3 -4 -4 -8 -4h-18c-5 0 -7 0 -9 4l-77 118c-2 4 -1 5 2 8l13 9c3 2 5 2 8 -1l78 -99l108 99c3 3 6 3 8 1zM90 532h380c5 0 6 -3 6 -7l-2 -13c-1 -5 -3 -9 -8 -14l-423 -463h354c4 0 7 -1 6 -7l-3 -20c-1 -5 -4 -8 -8 -8
h-400c-5 0 -7 2 -6 7l2 14c1 5 3 9 8 14l423 461h-335c-4 0 -7 2 -6 8l3 22c1 4 5 6 9 6z" />
    <glyph glyph-name="zdotaccent" unicode="&#x17c;" horiz-adv-x="484" 
d="M301 689c20 0 28 -11 25 -31c-2 -18 -13 -31 -35 -31c-19 0 -29 11 -26 31c4 22 18 31 36 31zM90 532h380c5 0 6 -3 6 -7l-2 -13c-1 -5 -3 -9 -8 -14l-423 -463h354c4 0 7 -1 6 -7l-3 -20c-1 -5 -4 -8 -8 -8h-400c-5 0 -7 2 -6 7l2 14c1 5 3 9 8 14l423 461h-335
c-4 0 -7 2 -6 8l3 22c1 4 5 6 9 6z" />
    <glyph glyph-name="g.alt" horiz-adv-x="536" 
d="M505 551l13 -16c2 -3 1 -6 -2 -9l-43 -37c21 -30 22 -77 11 -148c-25 -157 -73 -199 -241 -199c-54 0 -94 4 -123 16l-16 -31c-25 -48 -22 -63 44 -70l195 -19c69 -8 74 -62 66 -113l-2 -8c-13 -88 -64 -115 -205 -115c-31 0 -176 2 -207 5c-5 1 -6 3 -5 8l2 16
c1 6 4 7 8 7h209c111 0 150 18 160 79l2 8c5 39 0 75 -49 79l-199 20c-82 8 -88 45 -56 103l25 46c-36 28 -40 80 -26 168c24 157 71 197 240 197c69 0 115 -7 144 -26l45 39c3 3 7 3 10 0zM301 503c-139 0 -177 -36 -197 -162c-20 -128 6 -164 145 -164s175 36 196 164
c20 126 -6 162 -144 162z" />
    <glyph glyph-name="gbreve.alt" horiz-adv-x="536" 
d="M430 721h18c5 0 6 -2 5 -7c-16 -85 -49 -110 -145 -110c-97 0 -122 25 -111 110c1 5 2 7 7 7h19c4 0 5 -2 5 -6c-6 -61 12 -79 85 -79c72 0 96 18 109 79c2 4 3 6 8 6zM505 551l13 -16c2 -3 1 -6 -2 -9l-43 -37c21 -30 22 -77 11 -148c-25 -157 -73 -199 -241 -199
c-54 0 -94 4 -123 16l-16 -31c-25 -48 -22 -63 44 -70l195 -19c69 -8 74 -62 66 -113l-2 -8c-13 -88 -64 -115 -205 -115c-31 0 -176 2 -207 5c-5 1 -6 3 -5 8l2 16c1 6 4 7 8 7h209c111 0 150 18 160 79l2 8c5 39 0 75 -49 79l-199 20c-82 8 -88 45 -56 103l25 46
c-36 28 -40 80 -26 168c24 157 71 197 240 197c69 0 115 -7 144 -26l45 39c3 3 7 3 10 0zM301 503c-139 0 -177 -36 -197 -162c-20 -128 6 -164 145 -164s175 36 196 164c20 126 -6 162 -144 162z" />
    <glyph glyph-name="gcircumflex.alt" horiz-adv-x="536" 
d="M321 735h19c4 0 5 0 7 -3l78 -119c2 -3 1 -6 -3 -8l-12 -9c-3 -2 -6 -2 -8 1l-77 100l-109 -100c-4 -3 -5 -3 -8 -1l-10 9c-2 2 -3 5 0 8l115 119c2 2 4 3 8 3zM505 551l13 -16c2 -3 1 -6 -2 -9l-43 -37c21 -30 22 -77 11 -148c-25 -157 -73 -199 -241 -199
c-54 0 -94 4 -123 16l-16 -31c-25 -48 -22 -63 44 -70l195 -19c69 -8 74 -62 66 -113l-2 -8c-13 -88 -64 -115 -205 -115c-31 0 -176 2 -207 5c-5 1 -6 3 -5 8l2 16c1 6 4 7 8 7h209c111 0 150 18 160 79l2 8c5 39 0 75 -49 79l-199 20c-82 8 -88 45 -56 103l25 46
c-36 28 -40 80 -26 168c24 157 71 197 240 197c69 0 115 -7 144 -26l45 39c3 3 7 3 10 0zM301 503c-139 0 -177 -36 -197 -162c-20 -128 6 -164 145 -164s175 36 196 164c20 126 -6 162 -144 162z" />
    <glyph glyph-name="gcommaaccent.alt" horiz-adv-x="536" 
d="M395 734l11 -9c2 -2 3 -5 1 -8l-82 -119c-2 -2 -3 -3 -7 -3h-26c-4 0 -6 2 -6 5v8c0 2 0 5 3 7l98 118c2 3 5 3 8 1zM505 551l13 -16c3 -3 2 -6 -1 -9l-43 -37c20 -30 21 -77 10 -148c-25 -157 -72 -199 -241 -199c-54 0 -94 4 -122 16l-16 -31c-26 -48 -23 -63 43 -70
l195 -19c70 -8 75 -62 67 -113l-2 -8c-14 -88 -64 -115 -205 -115c-32 0 -177 2 -207 5c-6 1 -7 3 -6 8l3 16c1 6 3 7 8 7h208c112 0 151 18 160 79l2 8c6 39 0 75 -49 79l-198 20c-83 8 -88 45 -57 103l25 46c-35 28 -40 80 -26 168c25 157 72 197 240 197
c69 0 116 -7 145 -26l45 39c3 3 6 3 9 0zM301 503c-139 0 -176 -36 -196 -162c-21 -128 6 -164 144 -164c139 0 176 36 197 164c20 126 -6 162 -145 162z" />
    <glyph glyph-name="gdotaccent.alt" horiz-adv-x="536" 
d="M324 689c20 0 29 -11 26 -31c-3 -18 -14 -31 -35 -31c-19 0 -30 11 -26 31c3 22 17 31 35 31zM505 551l13 -16c2 -3 1 -6 -2 -9l-43 -37c21 -30 22 -77 11 -148c-25 -157 -73 -199 -241 -199c-54 0 -94 4 -123 16l-16 -31c-25 -48 -22 -63 44 -70l195 -19
c69 -8 74 -62 66 -113l-2 -8c-13 -88 -64 -115 -205 -115c-31 0 -176 2 -207 5c-5 1 -6 3 -5 8l2 16c1 6 4 7 8 7h209c111 0 150 18 160 79l2 8c5 39 0 75 -49 79l-199 20c-82 8 -88 45 -56 103l25 46c-36 28 -40 80 -26 168c24 157 71 197 240 197c69 0 115 -7 144 -26
l45 39c3 3 7 3 10 0zM301 503c-139 0 -177 -36 -197 -162c-20 -128 6 -164 145 -164s175 36 196 164c20 126 -6 162 -144 162z" />
    <glyph glyph-name="ordfeminine" unicode="&#xaa;" horiz-adv-x="389" 
d="M247 741c75 0 127 -21 115 -96l-34 -211c-1 -4 -2 -10 -13 -13c-27 -7 -91 -9 -120 -9c-83 0 -108 23 -96 92c9 65 40 89 112 89h108l8 48c9 56 -33 68 -85 68h-75c-4 0 -4 3 -4 6l2 15c0 4 2 5 5 6c30 4 55 5 77 5zM315 563h-108c-54 0 -68 -16 -74 -58
c-8 -48 7 -64 67 -64c15 0 70 1 97 7zM95 341h198c4 0 7 -2 6 -6l-3 -16c-1 -6 -5 -8 -9 -8h-197c-4 0 -8 3 -7 7l4 16c1 6 4 7 8 7z" />
    <glyph glyph-name="ordmasculine" unicode="&#xba;" horiz-adv-x="406" 
d="M271 741c106 0 125 -35 104 -164c-21 -131 -51 -165 -156 -165s-125 34 -104 165c20 129 51 164 156 164zM266 709c-78 0 -100 -27 -117 -132c-17 -107 -3 -135 75 -135s100 28 117 135c16 105 4 132 -75 132zM110 341h197c4 0 7 -2 6 -6l-3 -16c-1 -6 -5 -8 -9 -8h-197
c-4 0 -7 3 -6 7l3 16c1 6 4 7 9 7z" />
    <glyph glyph-name="uni0410" unicode="&#x410;" horiz-adv-x="607" 
d="M372 741c67 0 72 -16 84 -113l77 -620c0 -7 -1 -8 -7 -8h-28c-3 0 -5 2 -5 6l-32 249h-332l-110 -249c-2 -4 -3 -6 -8 -6h-28c-5 0 -7 2 -5 8l275 620c43 97 54 113 119 113zM366 705c-37 0 -44 -12 -76 -86l-145 -327h311l-40 327c-9 74 -12 86 -50 86z" />
    <glyph glyph-name="uni0411" unicode="&#x411;" horiz-adv-x="651" 
d="M168 736h461c4 0 7 -3 6 -7l-4 -22c-1 -6 -5 -7 -9 -7h-427l-46 -288h226c148 0 234 -37 208 -202l-2 -14c-26 -165 -124 -201 -272 -201c-35 0 -206 0 -258 3c-4 0 -6 2 -6 6l115 725c1 4 3 7 8 7zM371 376h-227l-56 -345h228c124 0 204 30 225 166l2 12
c22 137 -50 167 -172 167z" />
    <glyph glyph-name="uni0412" unicode="&#x412;" horiz-adv-x="660" 
d="M397 741c161 0 243 -42 218 -203c-14 -89 -48 -148 -114 -163v-2c83 -16 93 -95 80 -177c-26 -165 -124 -201 -272 -201c-35 0 -206 0 -258 3c-4 0 -6 2 -6 6l116 727c0 5 2 7 7 7c54 2 193 3 229 3zM389 705h-194l-49 -313h245c110 0 164 21 184 145
c22 135 -49 168 -186 168zM401 357h-261l-52 -326h228c124 0 204 30 225 166c20 123 -30 160 -140 160z" />
    <glyph glyph-name="uni0413" unicode="&#x413;" horiz-adv-x="526" 
d="M175 736h400c4 0 6 -2 5 -8l-4 -22c-1 -4 -3 -6 -9 -6h-372l-110 -693c-1 -4 -4 -7 -8 -7h-26c-4 0 -6 3 -5 7l113 714c1 10 7 15 16 15z" />
    <glyph glyph-name="uni0414" unicode="&#x414;" horiz-adv-x="663" 
d="M293 736h320c10 0 14 -5 13 -15l-109 -685h38c9 0 15 -4 13 -14l-25 -164c-1 -5 -4 -7 -8 -7h-25c-4 0 -6 2 -5 7l22 142h-508l-22 -142c-1 -5 -3 -7 -8 -7h-24c-4 0 -7 2 -6 7l26 164c2 10 8 14 17 14h47c38 33 48 54 70 128l159 561c2 7 6 11 15 11zM584 700h-274
l-154 -543c-15 -57 -31 -96 -56 -121h378z" />
    <glyph glyph-name="uni0415" unicode="&#x415;" horiz-adv-x="589" 
d="M176 736h427c4 0 7 -3 6 -7l-4 -23c-1 -4 -3 -6 -7 -6h-403l-53 -332h364c5 0 7 -2 6 -6l-3 -23c-1 -4 -4 -7 -8 -7h-364l-48 -296h403c4 0 7 -3 5 -7l-3 -22c-1 -4 -3 -7 -8 -7h-427c-10 0 -14 5 -13 14l113 707c1 10 7 15 17 15z" />
    <glyph glyph-name="uni0401" unicode="&#x401;" horiz-adv-x="588" 
d="M333 889c20 0 29 -11 26 -31s-16 -31 -36 -31c-19 0 -28 11 -25 31s16 31 35 31zM485 889c20 0 29 -11 26 -31s-16 -31 -36 -31c-19 0 -28 11 -26 31c4 20 17 31 36 31zM176 736h427c4 0 6 -3 5 -7l-4 -23c0 -4 -3 -6 -7 -6h-402l-53 -332h364c4 0 7 -2 6 -6l-4 -23
c-1 -4 -3 -7 -8 -7h-364l-47 -296h403c4 0 6 -3 5 -7l-3 -22c-1 -4 -4 -7 -8 -7h-427c-10 0 -14 5 -13 14l113 707c1 10 7 15 17 15z" />
    <glyph glyph-name="uni0416" unicode="&#x416;" horiz-adv-x="877" 
d="M875 736h38c6 0 7 -4 2 -9l-403 -330l303 -387c3 -5 1 -10 -7 -10h-30c-5 0 -8 2 -10 4l-297 381l-60 -378c-1 -4 -3 -7 -8 -7h-26c-4 0 -6 2 -5 8l59 372l-412 -376c-3 -2 -6 -4 -10 -4h-36c-9 0 -9 5 -4 10l426 387l-299 330c-4 5 -2 9 5 9h31c4 0 8 -2 10 -5l294 -319
l50 317c1 5 4 7 8 7h26c4 0 6 -3 5 -7l-49 -312l388 314c3 4 7 5 11 5z" />
    <glyph glyph-name="uni0417" unicode="&#x417;" horiz-adv-x="581" 
d="M310 741c156 0 264 -24 239 -179l-5 -32c-15 -97 -79 -148 -153 -162c69 -15 117 -65 102 -162l-5 -32c-24 -155 -140 -179 -297 -179c-33 0 -137 0 -186 3c-4 0 -7 2 -6 6l4 21c1 5 3 6 8 6h187c131 0 231 20 251 144l4 30c19 120 -66 145 -182 145h-173c-5 0 -7 3 -6 7
l4 22c0 4 3 6 7 6h174c116 0 209 25 228 146l5 32c20 124 -76 142 -207 142h-186c-5 0 -7 2 -6 5l4 21c1 5 3 7 7 7c51 2 154 3 188 3z" />
    <glyph glyph-name="uni0418" unicode="&#x418;" horiz-adv-x="747" 
d="M683 736h31c5 0 7 -3 6 -7l-114 -722c-1 -4 -4 -7 -8 -7h-26c-4 0 -7 3 -6 7l108 681l-572 -678c-9 -11 -14 -10 -21 -10h-30c-4 0 -6 3 -5 7l114 722c1 5 3 7 8 7h26c4 0 6 -2 5 -7l-107 -675l565 668c11 13 16 13 26 14z" />
    <glyph glyph-name="uni0419" unicode="&#x419;" horiz-adv-x="747" 
d="M559 921h19c4 0 5 -2 4 -7c-16 -85 -49 -110 -145 -110c-97 0 -121 25 -111 110c1 5 3 7 7 7h19c4 0 6 -2 5 -6c-5 -61 13 -79 85 -79s96 18 109 79c2 4 4 6 8 6zM683 736h31c5 0 7 -3 6 -7l-114 -722c-1 -4 -4 -7 -8 -7h-26c-4 0 -7 3 -6 7l108 681l-572 -678
c-9 -11 -14 -10 -21 -10h-30c-4 0 -6 3 -5 7l114 722c1 5 3 7 8 7h26c4 0 6 -2 5 -7l-107 -675l565 668c11 13 16 13 26 14z" />
    <glyph glyph-name="uni041A" unicode="&#x41a;" horiz-adv-x="554" 
d="M551 736h39c6 0 7 -4 2 -9l-407 -330l307 -387c3 -5 1 -10 -7 -10h-30c-5 0 -8 2 -10 4l-300 381l-60 -378c-1 -5 -4 -7 -8 -7h-26c-4 0 -6 2 -5 7l114 722c1 5 3 7 8 7h26c4 0 6 -3 5 -7l-49 -309l391 311c2 3 6 5 10 5z" />
    <glyph glyph-name="uni041B" unicode="&#x41b;" horiz-adv-x="668" 
d="M307 736h321c9 0 14 -5 13 -15l-114 -714c-1 -4 -3 -7 -8 -7h-26c-4 0 -6 3 -5 7l110 693h-274l-154 -543c-35 -123 -70 -162 -170 -162c-7 0 -12 0 -18 2c-3 1 -7 3 -5 8l3 19c1 5 5 7 9 7h10c86 0 107 40 134 133l159 561c2 7 6 11 15 11z" />
    <glyph glyph-name="uni041C" unicode="&#x41c;" horiz-adv-x="887" 
d="M793 736h20c8 0 15 -5 14 -15l-55 -713c0 -6 -4 -8 -8 -8h-26c-5 0 -6 3 -6 8l52 671l-357 -651c-4 -8 -11 -12 -20 -12h-21c-9 0 -14 4 -16 12l-151 651l-160 -672c-2 -4 -4 -7 -8 -7h-26c-5 0 -7 3 -6 7l171 714c2 10 10 15 18 15h20c17 0 21 -12 27 -38l149 -641
l350 641c14 26 22 38 39 38z" />
    <glyph glyph-name="uni041D" unicode="&#x41d;" horiz-adv-x="756" 
d="M697 736h26c5 0 7 -3 6 -7l-114 -722c-1 -4 -4 -7 -8 -7h-26c-4 0 -7 3 -6 7l56 356h-490l-56 -356c-1 -4 -3 -7 -8 -7h-26c-4 0 -6 3 -5 7l114 722c1 4 4 7 8 7h26c4 0 7 -3 6 -7l-53 -330h490l52 330c1 4 4 7 8 7z" />
    <glyph glyph-name="uni041E" unicode="&#x41e;" horiz-adv-x="705" 
d="M421 741c232 0 269 -87 223 -375s-110 -371 -342 -371s-269 83 -223 371c45 288 110 375 342 375zM415 705c-202 0 -256 -78 -297 -339s-12 -335 190 -335c201 0 256 74 297 335s11 339 -190 339z" />
    <glyph glyph-name="uni041F" unicode="&#x41f;" horiz-adv-x="684" 
d="M176 736h467c10 0 14 -5 13 -15l-113 -714c-1 -4 -4 -7 -8 -7h-26c-4 0 -6 3 -5 8l110 692h-419l-110 -693c-1 -4 -4 -7 -8 -7h-26c-4 0 -7 3 -6 8l114 713c2 10 8 15 17 15z" />
    <glyph glyph-name="uni0420" unicode="&#x420;" horiz-adv-x="610" 
d="M327 741c231 0 302 -16 269 -229c-34 -214 -111 -227 -342 -227h-125l-44 -278c-1 -6 -3 -7 -8 -7h-26c-4 0 -7 1 -5 7l115 724c0 5 2 7 7 7c54 2 123 3 159 3zM319 705h-124l-61 -384h124c204 0 269 10 298 191c29 180 -33 193 -237 193z" />
    <glyph glyph-name="uni0421" unicode="&#x421;" 
d="M422 741c37 0 118 -1 167 -3c5 -1 8 -2 6 -7l-3 -20c-1 -5 -4 -6 -8 -6h-168c-202 0 -257 -80 -297 -337c-41 -258 -11 -337 190 -337h168c5 0 7 -3 7 -7l-4 -19c-1 -5 -3 -7 -7 -7c-51 -3 -133 -3 -169 -3c-232 0 -270 88 -225 373c46 285 111 373 343 373z" />
    <glyph glyph-name="uni0422" unicode="&#x422;" horiz-adv-x="578" 
d="M90 736h534c4 0 6 -3 5 -8l-4 -21c-1 -5 -3 -7 -8 -7h-245l-110 -692c-1 -5 -4 -8 -8 -8h-26c-4 0 -7 3 -6 8l110 692h-247c-4 0 -8 1 -7 7l4 22c1 5 4 7 8 7z" />
    <glyph glyph-name="uni0423" unicode="&#x423;" horiz-adv-x="578" 
d="M599 736h29c5 0 6 -3 4 -8l-296 -535c-94 -169 -137 -198 -215 -198c-14 0 -40 1 -48 3c-4 1 -6 3 -5 8l4 17c1 6 3 8 8 8h43c51 0 84 21 140 112l-190 585c-2 5 1 8 6 8h28c3 0 7 -2 8 -6l176 -540l299 540c2 4 5 6 9 6z" />
    <glyph glyph-name="uni0424" unicode="&#x424;" horiz-adv-x="844" 
d="M477 737h27c4 0 6 -2 5 -7l-14 -89c272 -1 345 -46 309 -272c-36 -227 -122 -271 -396 -273l-13 -89c-1 -4 -4 -7 -8 -7h-26c-5 0 -7 3 -6 7l14 89c-271 2 -346 46 -310 273c36 226 124 270 397 272l13 89c2 5 4 7 8 7zM375 132l75 473c-244 -2 -321 -40 -352 -236
c-31 -197 34 -236 277 -237zM489 605l-74 -473c245 1 319 40 350 237s-31 235 -276 236z" />
    <glyph glyph-name="uni0425" unicode="&#x425;" horiz-adv-x="583" 
d="M575 736h32c6 0 7 -4 3 -9l-281 -341l192 -378c3 -5 1 -9 -5 -9h-33c-5 0 -7 2 -9 5l-174 346l-285 -345c-2 -3 -5 -5 -10 -5h-33c-5 0 -7 4 -4 9l313 377l-173 341c-3 5 0 9 6 9h31c6 0 7 -3 9 -6l157 -307l254 307c2 4 5 6 10 6z" />
    <glyph glyph-name="uni0427" unicode="&#x427;" horiz-adv-x="599" 
d="M540 736h26c4 0 6 -3 5 -7l-114 -722c-1 -4 -4 -7 -8 -7h-26c-4 0 -6 3 -5 7l43 278h-102c-231 0 -303 13 -269 227l34 217c1 4 4 7 8 7h26c5 0 7 -3 6 -7l-34 -217c-29 -181 32 -191 236 -191h101l65 408c1 4 4 7 8 7z" />
    <glyph glyph-name="uni0426" unicode="&#x426;" horiz-adv-x="718" 
d="M645 736h26c4 0 7 -3 6 -7l-110 -693h70c9 0 15 -4 13 -14l-26 -164c-1 -5 -3 -7 -8 -7h-24c-4 0 -6 2 -5 7l22 142h-549c-9 0 -14 4 -13 14l114 715c1 4 3 7 8 7h26c4 0 6 -3 5 -7l-110 -693h437l110 693c1 4 4 7 8 7z" />
    <glyph glyph-name="uni0428" unicode="&#x428;" horiz-adv-x="956" 
d="M897 736h26c5 0 7 -3 6 -7l-113 -715c-1 -10 -8 -14 -17 -14h-739c-9 0 -14 4 -13 14l114 715c1 4 3 7 8 7h26c4 0 6 -3 5 -7l-110 -693h325l110 693c1 4 4 7 8 7h26c4 0 7 -3 6 -7l-110 -693h325l109 693c1 4 4 7 8 7z" />
    <glyph glyph-name="uni0429" unicode="&#x429;" horiz-adv-x="970" 
d="M897 736h26c5 0 7 -3 6 -7l-110 -693h70c9 0 15 -4 13 -14l-25 -164c-1 -5 -4 -7 -8 -7h-25c-4 0 -6 2 -5 7l22 142h-801c-9 0 -14 4 -13 14l114 715c1 4 3 7 8 7h26c4 0 6 -3 5 -7l-110 -693h325l110 693c1 4 4 7 8 7h26c4 0 7 -3 6 -7l-110 -693h325l109 693
c1 4 4 7 8 7z" />
    <glyph glyph-name="uni042F" unicode="&#x42f;" horiz-adv-x="621" 
d="M432 741c35 0 105 -1 157 -3c4 0 7 -2 6 -7l-115 -724c-1 -5 -3 -7 -8 -7h-26c-4 0 -6 2 -5 7l44 278h-212l-219 -276c-5 -6 -7 -9 -16 -9h-27c-5 0 -7 4 -3 8l222 281c-128 12 -167 56 -140 223c34 213 111 229 342 229zM551 705h-124c-204 0 -268 -13 -297 -193
c-29 -181 32 -191 236 -191h124z" />
    <glyph glyph-name="uni042C" unicode="&#x42c;" horiz-adv-x="639" 
d="M168 736h26c4 0 6 -3 5 -7l-50 -317h226c148 0 234 -37 208 -202l-2 -14c-26 -165 -124 -201 -272 -201c-35 0 -206 0 -258 3c-4 0 -6 2 -6 6l115 725c1 4 3 7 8 7zM371 376h-227l-56 -345h228c124 0 204 30 225 166l2 12c22 137 -50 167 -172 167z" />
    <glyph glyph-name="uni042A" unicode="&#x42a;" horiz-adv-x="682" 
d="M87 736h150c4 0 6 -3 5 -7l-50 -317h226c148 0 234 -37 208 -202l-2 -14c-26 -165 -124 -201 -272 -201c-35 0 -206 0 -258 3c-5 0 -7 2 -6 6l110 696h-116c-4 0 -7 2 -7 6l4 23c1 4 4 7 8 7zM414 376h-228l-55 -345h228c124 0 204 30 225 166l2 12
c22 137 -50 167 -172 167z" />
    <glyph glyph-name="uni042B" unicode="&#x42b;" horiz-adv-x="827" 
d="M168 736h26c5 0 7 -3 6 -7l-50 -317h226c148 0 233 -37 207 -202l-2 -14c-26 -165 -123 -201 -271 -201c-35 0 -206 0 -258 3c-5 0 -7 2 -6 6l114 725c1 4 4 7 8 7zM768 736h26c4 0 7 -3 6 -7l-114 -722c-1 -4 -4 -7 -8 -7h-26c-5 0 -7 3 -6 7l114 722c1 4 4 7 8 7z
M372 376h-228l-55 -345h227c125 0 205 30 226 166l2 12c22 137 -50 167 -172 167z" />
    <glyph glyph-name="uni042D" unicode="&#x42d;" horiz-adv-x="588" 
d="M303 741c232 0 270 -88 225 -373c-46 -285 -111 -373 -343 -373c-37 0 -141 0 -190 3c-4 0 -7 3 -6 8l4 17c1 6 3 8 8 8h189c198 0 254 76 295 319h-338c-4 0 -6 2 -5 8l3 21c0 6 3 7 8 7h338c36 243 3 319 -194 319h-190c-5 0 -7 2 -6 6l4 20c1 5 3 6 7 7
c51 2 155 3 191 3z" />
    <glyph glyph-name="uni042E" unicode="&#x42e;" horiz-adv-x="953" 
d="M668 741c232 0 269 -87 224 -375c-46 -288 -110 -371 -342 -371c-231 0 -269 82 -224 368h-184l-56 -356c-1 -4 -4 -7 -8 -7h-26c-4 0 -7 3 -6 7l114 722c1 4 4 7 8 7h26c5 0 7 -3 6 -7l-53 -330h184c43 262 114 342 337 342zM662 705c-201 0 -255 -78 -296 -339
s-12 -335 189 -335c202 0 256 74 297 335c42 261 12 339 -190 339z" />
    <glyph glyph-name="uni0430" unicode="&#x430;" horiz-adv-x="507" 
d="M255 538c110 0 207 -27 187 -157l-56 -353c-1 -8 -4 -15 -21 -19c-41 -11 -152 -14 -195 -14c-137 0 -170 43 -151 155c14 93 62 138 177 138h192l15 90c16 103 -64 125 -153 125h-116c-4 0 -7 2 -6 8l3 13c1 7 2 8 7 9c47 5 84 5 117 5zM383 253h-193
c-88 0 -122 -33 -133 -103c-13 -86 8 -120 122 -120c26 0 122 1 170 11z" />
    <glyph glyph-name="uni0431" unicode="&#x431;" horiz-adv-x="554" 
d="M520 741h20c4 0 5 -4 3 -11c-11 -38 -46 -56 -99 -65c-164 -31 -256 -49 -301 -198c38 50 93 71 176 71c168 0 200 -56 166 -271s-84 -272 -252 -272c-169 0 -201 57 -166 272l14 91c44 275 136 299 362 340c34 7 55 18 66 37c3 4 3 6 11 6zM314 503
c-139 0 -178 -48 -209 -236c-29 -188 -6 -237 133 -237s179 49 208 237c30 188 6 236 -132 236z" />
    <glyph glyph-name="uni0432" unicode="&#x432;" horiz-adv-x="530" 
d="M301 538c125 0 188 -33 169 -149c-10 -66 -35 -107 -86 -118v-1c64 -12 73 -68 63 -128c-19 -118 -94 -147 -208 -147c-31 0 -158 1 -200 3c-5 0 -7 3 -7 7l84 523c0 4 4 7 8 8c44 1 146 2 177 2zM293 502h-142l-34 -215h171c87 0 128 12 142 100c15 92 -35 115 -137 115
zM302 254h-190l-36 -223h169c90 0 148 22 162 113c15 86 -24 110 -105 110z" />
    <glyph glyph-name="uni0433" unicode="&#x433;" horiz-adv-x="426" 
d="M127 532h307c4 0 5 -3 5 -6l-4 -24c0 -4 -3 -6 -7 -6h-279l-77 -490c-1 -4 -4 -6 -8 -6h-27c-4 0 -6 2 -5 6l81 515c2 7 6 11 14 11z" />
    <glyph glyph-name="uni0434" unicode="&#x434;" horiz-adv-x="532" 
d="M216 532h250c7 0 11 -4 10 -11l-77 -485h30c7 0 11 -3 10 -10l-21 -128c-1 -4 -3 -6 -7 -6h-25c-4 0 -6 2 -5 6l16 102h-378l-16 -102c-1 -4 -3 -6 -7 -6h-25c-4 0 -6 2 -5 6l20 128c1 7 6 10 13 10h35c31 21 40 40 56 93l115 394c1 5 3 9 11 9zM433 496h-197l-110 -377
c-10 -38 -23 -65 -40 -83h273z" />
    <glyph glyph-name="uni0435" unicode="&#x435;" horiz-adv-x="515" 
d="M305 538c157 0 187 -49 158 -247l-5 -30c-1 -9 -3 -13 -17 -13h-348c-25 -172 -4 -218 131 -218h144c5 0 7 -1 6 -6l-3 -17c-1 -4 -3 -6 -8 -7c-38 -5 -118 -5 -145 -5c-172 0 -195 56 -161 273c35 217 76 270 248 270zM299 503c-136 0 -171 -44 -200 -219h324
c28 182 4 219 -124 219z" />
    <glyph glyph-name="uni0451" unicode="&#x451;" horiz-adv-x="515" 
d="M242 689c20 0 28 -11 25 -31s-15 -31 -35 -31c-19 0 -29 11 -26 31s17 31 36 31zM393 689c20 0 29 -11 26 -31s-15 -31 -35 -31c-19 0 -30 11 -26 31c3 20 16 31 35 31zM305 538c157 0 187 -49 158 -247l-5 -30c-1 -9 -3 -13 -17 -13h-348c-25 -172 -4 -218 131 -218h144
c5 0 7 -1 6 -6l-3 -17c-1 -4 -3 -6 -8 -7c-38 -5 -118 -5 -145 -5c-172 0 -195 56 -161 273c35 217 76 270 248 270zM299 503c-136 0 -171 -44 -200 -219h324c28 182 4 219 -124 219z" />
    <glyph glyph-name="uni0436" unicode="&#x436;" horiz-adv-x="711" 
d="M680 532h29c6 0 7 -4 2 -8l-300 -237l231 -279c3 -4 1 -8 -6 -8h-33c-4 0 -7 1 -9 4l-223 271l-43 -268c-1 -5 -4 -7 -8 -7h-26c-4 0 -7 2 -6 7l43 268l-311 -271c-2 -3 -5 -4 -9 -4h-34c-6 0 -7 4 -2 8l318 279l-224 237c-5 5 -2 8 5 8h30c4 0 6 -1 10 -5l221 -228
l35 226c1 5 4 7 8 7h26c5 0 7 -2 6 -7l-36 -226l293 229c5 3 8 4 13 4z" />
    <glyph glyph-name="uni0437" unicode="&#x437;" horiz-adv-x="471" 
d="M232 537c129 0 207 -18 189 -130l-3 -25c-11 -66 -55 -105 -111 -116c52 -11 85 -49 74 -115l-4 -24c-18 -112 -101 -132 -231 -132c-28 0 -102 2 -140 4c-4 0 -7 2 -6 6l3 19c0 6 3 7 8 7h142c104 0 171 15 184 98l3 20c13 81 -42 100 -130 100h-135c-4 0 -7 2 -6 7
l3 20c1 6 4 7 8 7h135c88 0 150 19 163 101l3 21c13 84 -53 96 -156 96h-141c-4 0 -5 2 -5 7l3 18c1 6 4 8 9 8c39 2 113 3 141 3z" />
    <glyph glyph-name="uni0438" unicode="&#x438;" horiz-adv-x="593" 
d="M515 532h27c5 0 6 -3 5 -6l-82 -520c-1 -4 -3 -6 -7 -6h-26c-4 0 -7 2 -6 6l75 471l-420 -468c-8 -8 -11 -9 -18 -9h-26c-4 0 -6 2 -5 6l82 520c1 3 4 6 8 6h27c4 0 5 -3 5 -6l-74 -464l411 458c9 11 13 12 24 12z" />
    <glyph glyph-name="uni0439" unicode="&#x439;" horiz-adv-x="593" 
d="M468 721h18c5 0 6 -2 5 -7c-16 -85 -49 -110 -145 -110s-121 25 -111 110c1 5 3 7 7 7h19c4 0 6 -2 5 -6c-5 -61 13 -79 85 -79s96 18 109 79c2 4 4 6 8 6zM515 532h27c5 0 6 -3 5 -6l-82 -520c-1 -4 -3 -6 -7 -6h-26c-4 0 -7 2 -6 6l75 471l-420 -468
c-8 -8 -11 -9 -18 -9h-26c-4 0 -6 2 -5 6l82 520c1 3 4 6 8 6h27c4 0 5 -3 5 -6l-74 -464l411 458c9 11 13 12 24 12z" />
    <glyph glyph-name="uni043A" unicode="&#x43a;" horiz-adv-x="450" 
d="M421 532h32c6 0 7 -4 2 -8l-300 -237l231 -279c2 -4 1 -8 -6 -8h-33c-4 0 -7 1 -9 4l-224 272l-42 -269c-1 -4 -3 -7 -8 -7h-26c-4 0 -7 3 -6 7l82 518c0 4 4 7 8 7h26c4 0 6 -3 6 -7l-36 -226l293 229c4 2 6 4 10 4z" />
    <glyph glyph-name="uni043B" unicode="&#x43b;" horiz-adv-x="567" 
d="M262 532h245c9 0 14 -4 13 -14l-81 -512c-1 -4 -4 -6 -8 -6h-27c-4 0 -6 2 -5 6l78 490h-197l-108 -346c-34 -113 -64 -155 -164 -155c-7 0 -11 1 -17 2c-4 1 -6 3 -5 7l3 21c0 4 3 6 7 6h11c82 0 100 38 128 126l113 364c2 7 6 11 14 11z" />
    <glyph glyph-name="uni043C" unicode="&#x43c;" horiz-adv-x="705" 
d="M601 532h22c7 0 10 -4 10 -10l-36 -515c-1 -5 -3 -7 -7 -7h-27c-4 0 -6 2 -5 6l33 462l-259 -447c-3 -6 -8 -8 -15 -8h-24c-6 0 -11 2 -12 8l-116 448l-114 -463c-1 -4 -4 -6 -8 -6h-26c-4 0 -7 2 -5 6l127 515c2 7 6 11 14 11h22c13 0 17 -9 22 -28l115 -447l258 448
c12 19 18 27 31 27z" />
    <glyph glyph-name="uni043D" unicode="&#x43d;" horiz-adv-x="599" 
d="M522 532h26c4 0 5 -3 5 -7l-82 -518c-1 -4 -4 -7 -8 -7h-26c-4 0 -6 3 -5 7l39 249h-360l-39 -249c-1 -4 -4 -7 -8 -7h-26c-4 0 -7 3 -6 7l82 518c0 4 4 7 8 7h26c4 0 6 -3 6 -7l-37 -233h360l37 233c0 4 3 7 8 7z" />
    <glyph glyph-name="uni043E" unicode="&#x43e;" horiz-adv-x="543" 
d="M308 538c168 0 200 -56 166 -271c-35 -215 -84 -272 -252 -272c-169 0 -200 57 -166 272s83 271 252 271zM302 503c-138 0 -177 -48 -208 -236c-29 -188 -6 -237 133 -237s179 49 208 237c30 188 6 236 -133 236z" />
    <glyph glyph-name="uni043F" unicode="&#x43f;" horiz-adv-x="543" 
d="M122 532h370c4 0 5 -3 5 -7l-82 -518c-1 -4 -4 -7 -8 -7h-26c-4 0 -6 3 -5 7l77 489h-304l-77 -489c-1 -4 -4 -7 -8 -7h-26c-4 0 -7 3 -6 7l82 518c0 4 4 7 8 7z" />
    <glyph glyph-name="uni0440" unicode="&#x440;" horiz-adv-x="551" 
d="M325 538c173 0 189 -53 154 -278c-34 -216 -68 -265 -264 -265c-45 0 -89 2 -145 5l-29 -185c-1 -5 -4 -7 -8 -7h-25c-4 0 -7 2 -6 8l111 704c2 7 4 12 14 14c101 4 147 4 198 4zM320 503h-170l-75 -468c47 -4 97 -5 145 -5c164 0 190 43 221 230c30 196 26 243 -121 243
z" />
    <glyph glyph-name="uni0441" unicode="&#x441;" horiz-adv-x="460" 
d="M308 538c24 0 105 0 142 -4c5 -1 6 -3 5 -7l-3 -17c-1 -5 -3 -7 -7 -7h-143c-138 0 -177 -48 -208 -236c-29 -188 -6 -237 133 -237h142c5 0 7 -2 6 -7l-3 -16c-1 -4 -3 -6 -8 -7c-38 -5 -119 -5 -142 -5c-169 0 -200 57 -166 272s83 271 252 271z" />
    <glyph glyph-name="uni0442" unicode="&#x442;" horiz-adv-x="462" 
d="M62 532h409c5 0 6 -3 6 -7l-4 -23c0 -4 -3 -6 -7 -6h-184l-78 -489c-1 -4 -4 -7 -8 -7h-26c-4 0 -6 3 -5 7l77 489h-185c-5 0 -7 2 -7 6l4 23c0 4 4 7 8 7z" />
    <glyph glyph-name="uni0443" unicode="&#x443;" horiz-adv-x="562" 
d="M485 532h26c4 0 6 -2 5 -7l-83 -523c-24 -155 -67 -200 -239 -200c-47 0 -89 1 -134 4c-4 0 -6 3 -5 7l2 18c1 5 4 6 8 6h134c140 0 175 36 194 154l2 16c-83 -10 -127 -12 -171 -12c-174 0 -189 53 -154 278l40 252c1 5 3 7 8 7h25c4 0 6 -2 5 -7l-40 -252
c-31 -196 -20 -243 121 -243c45 0 90 1 172 13l77 481c1 5 3 8 7 8z" />
    <glyph glyph-name="uni0444" unicode="&#x444;" horiz-adv-x="733" 
d="M422 736h25c4 0 6 -2 5 -7l-33 -213c25 17 88 22 110 22c147 0 168 -58 134 -271c-33 -213 -74 -271 -220 -271c-23 0 -83 5 -103 22l-32 -203c-1 -5 -4 -7 -8 -7h-25c-4 0 -7 2 -6 7l33 203c-26 -17 -89 -22 -111 -22c-147 0 -168 58 -135 271c34 213 74 271 221 271
c22 0 83 -5 104 -22l33 213c1 5 3 7 8 7zM274 503c-122 0 -149 -50 -179 -236c-29 -186 -18 -236 104 -236c25 0 85 5 108 21l67 430c-16 16 -76 21 -100 21zM521 503c-24 0 -85 -5 -108 -21l-67 -430c16 -16 76 -21 101 -21c122 0 149 50 178 236s18 236 -104 236z" />
    <glyph glyph-name="uni0445" unicode="&#x445;" horiz-adv-x="482" 
d="M436 532h32c6 0 6 -4 3 -8l-210 -241l153 -275c1 -4 0 -8 -5 -8h-33c-3 0 -6 1 -7 4l-136 247l-216 -247c-3 -3 -5 -4 -9 -4h-31c-5 0 -7 4 -3 8l241 275l-134 241c-3 4 -1 8 5 8h32c4 0 5 -3 7 -5l118 -211l184 212c3 2 5 4 9 4z" />
    <glyph glyph-name="uni0447" unicode="&#x447;" horiz-adv-x="493" 
d="M416 532h26c4 0 5 -3 5 -7l-82 -518c-1 -4 -4 -7 -8 -7h-26c-4 0 -6 3 -5 7l30 193h-55c-231 0 -265 14 -231 228l15 97c1 4 4 7 8 7h26c5 0 6 -3 6 -7l-15 -98c-29 -181 -6 -191 198 -191h54l46 289c0 4 3 7 8 7z" />
    <glyph glyph-name="uni0446" unicode="&#x446;" horiz-adv-x="571" 
d="M479 532h26c4 0 6 -3 6 -7l-78 -489h58c4 0 6 -3 5 -7l-20 -130c-1 -5 -3 -7 -8 -7h-23c-4 0 -7 2 -6 7l16 101h-417c-5 0 -7 3 -6 7l82 518c0 4 4 7 8 7h26c4 0 6 -3 6 -7l-78 -489h317l78 489c0 4 4 7 8 7z" />
    <glyph glyph-name="uni0448" unicode="&#x448;" horiz-adv-x="751" 
d="M674 532h26c4 0 5 -3 5 -7l-82 -518c-1 -4 -4 -7 -8 -7h-577c-4 0 -7 3 -6 7l82 518c0 4 4 7 8 7h26c4 0 6 -3 6 -7l-78 -489h237l77 489c0 4 4 7 8 7h26c4 0 6 -3 6 -7l-78 -489h236l78 489c0 4 3 7 8 7z" />
    <glyph glyph-name="uni0449" unicode="&#x449;" horiz-adv-x="765" 
d="M674 532h26c4 0 6 -3 6 -7l-78 -489h57c4 0 7 -3 6 -7l-20 -130c-1 -4 -4 -7 -8 -7h-24c-5 0 -7 3 -6 7l16 101h-611c-4 0 -7 3 -6 7l82 518c0 4 4 7 8 7h26c4 0 6 -3 6 -7l-78 -489h237l77 489c0 4 4 7 8 7h26c4 0 6 -3 6 -7l-78 -489h237l77 489c1 4 4 7 8 7z" />
    <glyph glyph-name="uni044F" unicode="&#x44f;" horiz-adv-x="503" 
d="M325 538c30 0 84 -1 127 -2c5 -1 6 -3 5 -6l-82 -524c-2 -4 -3 -6 -8 -6h-26c-5 0 -6 2 -5 6l31 198h-154l-162 -195c-5 -6 -9 -9 -18 -9h-25c-5 0 -6 4 -2 7l166 201c-97 9 -126 43 -107 161c25 152 84 169 260 169zM415 502h-95c-148 0 -195 -12 -215 -133
c-19 -123 25 -130 174 -130h94z" />
    <glyph glyph-name="uni044C" unicode="&#x44c;" horiz-adv-x="512" 
d="M123 532h27c4 0 5 -3 5 -6l-36 -224h168c115 0 180 -28 161 -146l-2 -14c-18 -118 -93 -147 -207 -147c-31 0 -159 1 -201 3c-4 1 -6 2 -6 6l83 522c1 3 4 6 8 6zM283 267h-169l-38 -236h169c90 0 147 22 161 113l2 10c15 93 -37 113 -125 113z" />
    <glyph glyph-name="uni044A" unicode="&#x44a;" horiz-adv-x="564" 
d="M60 532h141c4 0 6 -3 5 -6l-35 -224h168c115 0 180 -28 161 -146l-2 -14c-19 -118 -93 -147 -208 -147c-31 0 -158 1 -200 3c-4 1 -6 2 -6 6l79 492h-109c-4 0 -6 2 -6 6l4 24c1 3 4 6 8 6zM335 267h-169l-38 -236h169c90 0 147 22 161 113l2 10c14 93 -37 113 -125 113z
" />
    <glyph glyph-name="uni044B" unicode="&#x44b;" horiz-adv-x="661" 
d="M123 532h27c4 0 5 -3 5 -6l-36 -224h168c115 0 180 -28 161 -146l-2 -14c-18 -118 -93 -147 -207 -147c-31 0 -159 1 -201 3c-4 1 -6 2 -6 6l83 522c1 3 4 6 8 6zM584 532h26c4 0 5 -3 5 -7l-82 -518c-1 -4 -3 -7 -8 -7h-25c-4 0 -6 3 -5 7l82 518c0 4 3 7 7 7zM283 267
h-169l-38 -236h169c90 0 147 22 161 113l2 10c15 93 -37 113 -125 113z" />
    <glyph glyph-name="uni044D" unicode="&#x44d;" horiz-adv-x="478" 
d="M233 537c178 0 208 -65 176 -271c-33 -206 -84 -271 -263 -271c-32 0 -110 2 -147 4c-4 0 -7 3 -6 7l3 19c0 4 3 6 7 6h149c144 0 186 53 214 218h-252c-4 0 -6 2 -5 6l3 23c1 4 4 6 8 6h251c25 165 -1 217 -145 217h-149c-4 0 -5 3 -5 6l3 20c1 4 4 6 8 6
c39 3 117 4 150 4z" />
    <glyph glyph-name="uni044E" unicode="&#x44e;" horiz-adv-x="776" 
d="M541 538c168 0 200 -56 166 -271s-84 -272 -252 -272c-166 0 -199 55 -168 261h-176l-39 -249c-1 -4 -4 -7 -8 -7h-26c-4 0 -7 3 -6 7l82 518c0 4 4 7 8 7h26c4 0 6 -3 6 -7l-37 -233h176c34 195 86 246 248 246zM536 503c-139 0 -178 -48 -209 -236
c-29 -188 -6 -237 133 -237s179 49 208 237c30 188 6 236 -132 236z" />
    <glyph glyph-name="pi" unicode="&#x3c0;" horiz-adv-x="601" 
d="M70 537h538c4 0 6 -2 5 -6l-3 -22c-1 -4 -3 -7 -8 -7h-92l-78 -495c-1 -4 -4 -7 -8 -7h-24c-5 0 -7 2 -6 7l79 495h-275c-27 -165 -67 -330 -125 -495c-2 -4 -4 -7 -8 -7h-24c-5 0 -8 3 -6 8c58 165 98 329 125 494h-95c-5 0 -8 3 -7 8l4 21c1 5 4 6 8 6z" />
    <glyph glyph-name="zero" unicode="0" horiz-adv-x="656" 
d="M397 741c209 0 245 -88 200 -375c-46 -287 -110 -371 -319 -371s-246 84 -200 371c45 287 109 375 319 375zM390 705c-177 0 -232 -79 -273 -339s-11 -335 167 -335c177 0 232 75 273 335s11 339 -167 339z" />
    <glyph glyph-name="one" unicode="1" horiz-adv-x="366" 
d="M179 36h119c4 0 7 -3 6 -7l-3 -22c-1 -4 -4 -7 -8 -7h-284c-4 0 -7 3 -6 7l3 22c1 4 4 7 8 7h126l96 610c9 57 -39 59 -74 59h-58c-5 -1 -6 2 -6 6l3 18c1 4 2 5 6 6c20 3 37 6 65 6c35 0 119 -1 104 -91z" />
    <glyph glyph-name="two" unicode="2" horiz-adv-x="554" 
d="M302 741c136 0 255 -21 231 -174l-7 -46c-11 -68 -30 -121 -114 -165l-261 -139c-64 -35 -88 -60 -96 -112l-11 -69h405c4 0 6 -1 5 -6l-4 -25c0 -3 -3 -5 -6 -5h-420c-20 0 -23 11 -21 28l12 77c11 67 41 100 122 143l261 139c64 35 79 78 89 134l6 46
c20 121 -82 138 -198 138h-155c-4 0 -5 1 -5 5l4 20c1 5 3 7 7 7c56 3 115 4 156 4z" />
    <glyph glyph-name="three" unicode="3" 
d="M294 741c156 0 265 -24 240 -179l-5 -32c-15 -97 -80 -148 -153 -162c69 -15 117 -65 102 -162l-5 -32c-24 -155 -140 -179 -297 -179c-33 0 -114 0 -163 3c-4 0 -8 2 -7 5l4 22c1 4 4 6 8 6h165c131 0 230 20 251 144l4 30c19 120 -66 145 -182 145h-151c-4 0 -6 2 -5 6
l3 22c1 6 3 7 7 7h151c116 0 210 25 228 146l6 32c20 124 -76 142 -207 142h-164c-4 0 -7 1 -6 5l4 21c1 5 4 7 8 7c51 2 131 3 164 3z" />
    <glyph glyph-name="four" unicode="4" horiz-adv-x="591" 
d="M265 736h26c6 0 7 -3 4 -8l-228 -482h305l34 213c1 4 3 6 7 8l28 10c4 1 7 0 6 -5l-36 -226h137c4 0 7 -2 6 -6l-3 -23c-2 -4 -4 -7 -9 -7h-136l-32 -203c-1 -4 -4 -7 -8 -7h-26c-5 0 -7 3 -6 8l32 202h-339c-4 0 -6 3 -5 8l2 13c2 10 7 22 11 30l221 470c3 3 5 5 9 5z
" />
    <glyph glyph-name="five" unicode="5" horiz-adv-x="560" 
d="M170 736h366c4 0 6 -3 5 -7l-3 -22c-1 -6 -5 -7 -9 -7h-340l-63 -285c43 1 101 2 127 2c157 0 264 -26 239 -183l-8 -57c-25 -157 -142 -182 -298 -182c-33 0 -111 0 -160 2c-5 1 -8 2 -7 7l4 20c1 6 4 7 8 7h163c129 0 230 20 250 146l9 56c20 127 -74 148 -203 148
h-164c-4 0 -6 2 -6 5l4 27l68 309c2 9 7 14 18 14z" />
    <glyph glyph-name="six" unicode="6" horiz-adv-x="589" 
d="M356 736h29c5 0 7 -3 4 -8l-221 -323c42 17 93 21 151 21c144 0 240 -29 215 -183l-10 -65c-24 -154 -129 -183 -274 -183c-144 0 -239 28 -215 183l9 57c9 53 16 76 39 109l263 387c3 3 6 5 10 5zM313 390c-121 0 -209 -22 -228 -147l-10 -65c-21 -125 60 -147 181 -147
s208 22 229 147l10 64c19 126 -61 148 -182 148z" />
    <glyph glyph-name="seven" unicode="7" horiz-adv-x="523" 
d="M94 736h466c4 0 7 -3 5 -7l-2 -18c0 -3 -3 -7 -4 -10l-462 -696c-2 -4 -5 -5 -9 -5h-29c-6 0 -8 3 -4 8l458 692h-425c-4 0 -7 2 -6 6l3 23c2 4 4 7 9 7z" />
    <glyph glyph-name="eight" unicode="8" horiz-adv-x="635" 
d="M380 741h15c155 0 216 -66 195 -202c-14 -88 -50 -145 -122 -182c78 -32 98 -94 86 -166c-21 -134 -115 -196 -279 -196h-17c-165 0 -237 62 -216 197c15 89 68 153 144 194c-55 33 -79 77 -66 158c21 131 105 197 260 197zM388 705h-15c-128 0 -197 -56 -213 -159
c-15 -94 39 -135 100 -144l177 -28c70 38 102 98 113 165c18 112 -34 166 -162 166zM391 341l-169 28c-76 -37 -127 -94 -140 -178c-17 -109 45 -160 182 -160h17c141 0 217 56 233 154c14 90 -29 141 -123 156z" />
    <glyph glyph-name="nine" unicode="9" horiz-adv-x="590" 
d="M358 741c144 0 239 -29 215 -183l-9 -57c-9 -53 -16 -76 -39 -110l-263 -386c-3 -4 -6 -5 -10 -5h-29c-5 0 -7 3 -4 8l221 323c-42 -17 -93 -21 -151 -21c-144 0 -239 28 -215 183l10 65c24 154 129 183 274 183zM351 705c-121 0 -207 -23 -228 -148l-10 -64
c-19 -125 61 -147 182 -147s209 22 228 147l10 64c21 126 -61 148 -182 148z" />
    <glyph glyph-name="zero.osf" horiz-adv-x="620" 
d="M346 538c196 1 235 -66 202 -273s-91 -268 -287 -268c-197 -1 -236 60 -203 267c32 207 92 274 288 274zM341 502c-166 0 -216 -58 -244 -238c-29 -180 4 -232 169 -231c166 0 214 52 243 232c28 180 -3 238 -168 237z" />
    <glyph glyph-name="one.osf" horiz-adv-x="377" 
d="M187 36h119c4 0 6 -3 5 -7l-3 -22c-1 -4 -4 -7 -8 -7h-284c-4 0 -6 3 -5 7l3 22c1 4 4 7 8 7h126l63 408c10 56 -38 58 -73 58h-58c-5 0 -8 2 -7 7l4 17c1 4 2 6 7 7c20 3 36 5 63 5c35 0 119 0 105 -90z" />
    <glyph glyph-name="two.osf" horiz-adv-x="553" 
d="M270 538c129 0 251 -6 230 -138l-4 -25c-10 -65 -22 -117 -110 -139l-236 -64c-64 -17 -85 -41 -94 -92l-7 -44h401c4 0 5 -2 5 -5l-4 -26c-1 -3 -3 -5 -6 -5h-416c-20 0 -23 11 -21 28l9 53c10 68 40 101 118 122l237 64c68 18 76 55 85 108l4 25
c15 100 -88 102 -196 102h-156c-3 0 -5 2 -5 5l4 22c0 3 3 5 6 5c56 4 116 4 156 4z" />
    <glyph glyph-name="three.osf" horiz-adv-x="556" 
d="M257 537c156 0 264 -24 240 -181l-5 -24c-14 -97 -79 -147 -152 -161c69 -15 117 -65 101 -161l-3 -24c-25 -155 -140 -179 -296 -179c-34 0 -115 1 -165 3c-4 0 -6 2 -5 6l3 21c1 4 4 6 8 6h164c131 0 232 19 251 143l4 22c18 120 -66 145 -182 145h-151c-5 0 -6 2 -5 6
l3 23c1 4 3 6 7 6h151c116 0 209 24 228 145l4 23c20 126 -76 145 -206 145h-165c-4 0 -5 2 -5 6l3 21c1 3 4 6 8 6c51 2 132 3 165 3z" />
    <glyph glyph-name="four.osf" horiz-adv-x="590" 
d="M236 532h26c5 0 6 -4 4 -9l-228 -481h304l34 212c1 5 3 7 7 9l28 10c5 1 7 0 6 -5l-35 -226h136c5 0 7 -2 6 -6l-3 -23c-1 -4 -4 -7 -8 -7h-137l-31 -192c0 -4 -3 -7 -7 -7h-26c-4 0 -6 3 -6 7l31 192h-339c-4 0 -6 3 -6 8l2 13c1 10 8 22 12 30l221 470c2 3 5 5 9 5z
" />
    <glyph glyph-name="five.osf" horiz-adv-x="549" 
d="M133 532h364c4 0 5 -3 5 -7l-4 -23c0 -4 -3 -6 -7 -6h-339l-64 -283c44 2 102 2 128 2c157 0 264 -26 239 -183l-7 -48c-25 -157 -141 -182 -297 -182c-33 0 -112 0 -161 3c-4 0 -7 2 -6 6l3 22c1 3 4 5 8 5h164c129 0 229 20 249 146l8 48c19 126 -75 147 -203 147h-164
c-4 0 -6 2 -6 6l4 26l68 307c2 9 7 14 18 14z" />
    <glyph glyph-name="six.osf" horiz-adv-x="589" 
d="M356 736h29c5 0 7 -3 4 -8l-220 -323c41 17 92 21 150 21c145 0 240 -29 215 -183l-10 -65c-24 -154 -129 -183 -274 -183c-144 0 -239 28 -215 183l9 57c9 53 16 76 39 109l264 387c2 3 5 5 9 5zM313 390c-121 0 -209 -22 -228 -147l-10 -65c-20 -125 60 -147 181 -147
s209 22 229 147l10 64c19 126 -61 148 -182 148z" />
    <glyph glyph-name="seven.osf" horiz-adv-x="517" 
d="M57 532h467c4 0 5 -3 5 -7l-3 -18c-1 -3 -2 -7 -4 -10l-454 -684c-3 -5 -6 -5 -10 -5h-28c-5 0 -7 3 -3 8l450 680h-425c-5 0 -7 2 -7 6l4 23c1 4 4 7 8 7z" />
    <glyph glyph-name="eight.osf" horiz-adv-x="634" 
d="M379 741h15c156 0 217 -66 195 -202c-14 -88 -49 -145 -121 -182c78 -32 97 -94 86 -166c-21 -134 -115 -196 -279 -196h-17c-165 0 -237 62 -216 197c15 89 68 153 144 194c-55 33 -79 77 -66 158c21 131 105 197 259 197zM388 705h-15c-128 0 -197 -56 -213 -159
c-15 -94 39 -135 100 -144l177 -28c70 38 102 98 113 165c18 112 -34 166 -162 166zM391 341l-169 28c-76 -37 -127 -94 -140 -178c-17 -109 44 -160 181 -160h17c142 0 218 56 233 154c15 90 -29 141 -122 156z" />
    <glyph glyph-name="nine.osf" horiz-adv-x="579" 
d="M322 538c144 0 240 -28 215 -183l-8 -49c-8 -53 -16 -76 -39 -110l-262 -384c-2 -4 -5 -5 -8 -5h-30c-5 0 -7 3 -3 8l218 321c-41 -17 -92 -21 -150 -21c-145 0 -240 28 -215 183l8 58c25 154 129 182 274 182zM316 502c-121 0 -208 -22 -229 -147l-8 -57
c-20 -125 60 -147 181 -147s209 22 229 147l8 57c21 125 -60 147 -181 147z" />
    <glyph glyph-name="zero.subs" horiz-adv-x="368" 
d="M169 226c115 0 135 -46 111 -201c-25 -154 -60 -200 -175 -200c-114 0 -134 46 -110 200c24 155 60 201 174 201zM164 194c-86 0 -113 -40 -133 -169c-21 -130 -6 -168 79 -168c86 0 113 38 134 168c20 129 6 169 -80 169z" />
    <glyph glyph-name="one.subs" horiz-adv-x="226" 
d="M70 -140h64c3 0 5 -1 5 -6l-4 -20c0 -5 -3 -6 -6 -6h-165c-3 0 -5 2 -4 6l3 20c1 5 2 6 6 6h66l48 304c5 29 -15 31 -37 31h-32c-3 0 -6 1 -5 5l3 17c1 4 2 4 6 5c11 2 25 4 39 4c26 0 71 -2 63 -55z" />
    <glyph glyph-name="two.subs" horiz-adv-x="320" 
d="M127 226c73 0 138 -11 125 -93l-5 -30c-6 -36 -15 -64 -62 -90l-132 -70c-30 -17 -45 -30 -49 -55l-5 -28h209c3 0 5 -1 4 -4l-4 -24c-1 -3 -2 -4 -5 -4h-234c-10 0 -12 6 -11 15l7 42c6 39 23 58 70 83l135 73c30 16 38 37 42 64l3 25c9 55 -37 64 -95 64h-87
c-3 0 -5 1 -4 4l4 18c1 4 2 6 6 6c32 3 59 4 88 4z" />
    <glyph glyph-name="three.subs" horiz-adv-x="324" 
d="M120 226c91 0 145 -14 132 -97l-3 -18c-7 -47 -35 -77 -76 -85c38 -8 56 -38 49 -85l-3 -17c-13 -84 -70 -99 -163 -99c-23 0 -62 2 -88 3c-4 0 -5 2 -5 6l3 19c1 4 3 4 6 4h88c71 0 114 11 124 70l2 13c9 57 -25 71 -85 71h-85c-3 0 -4 1 -3 5l2 20c1 3 3 4 6 4h85
c59 0 98 14 107 72l2 13c10 59 -31 69 -102 69h-89c-3 0 -5 1 -4 4l4 19c1 4 2 6 6 6c27 2 67 3 90 3z" />
    <glyph glyph-name="four.subs" horiz-adv-x="340" 
d="M96 223h27c3 0 4 -2 2 -5l-116 -250h146l17 109c1 3 2 5 5 6l28 9c3 1 5 1 5 -3l-19 -121h69c4 0 6 -2 6 -5l-4 -21c-1 -4 -3 -5 -7 -5h-69l-16 -104c-1 -3 -3 -5 -6 -5h-26c-3 0 -5 2 -4 5l16 104h-179c-3 0 -5 1 -4 5l3 13c0 5 3 12 6 17l114 248c1 3 3 3 6 3z" />
    <glyph glyph-name="five.subs" horiz-adv-x="325" 
d="M48 223h208c3 0 5 -1 5 -4l-4 -23c0 -3 -3 -5 -6 -5h-182l-30 -135c21 2 49 2 62 2c91 0 144 -16 131 -102l-5 -29c-14 -86 -73 -102 -164 -102c-22 0 -64 2 -90 3c-4 1 -6 3 -5 7l3 18c0 3 3 4 6 4h91c71 0 114 12 124 73l4 23c9 61 -31 73 -101 73h-91c-4 0 -6 1 -6 4
l4 23l37 163c1 5 4 7 9 7z" />
    <glyph glyph-name="six.subs" horiz-adv-x="331" 
d="M143 223h28c4 0 5 -2 3 -5l-113 -167c20 8 43 9 70 9c80 0 129 -20 116 -100l-5 -33c-13 -82 -69 -102 -150 -102c-82 0 -133 19 -120 102l6 30c3 27 8 40 20 58l138 205c2 2 4 3 7 3zM123 29c-62 0 -101 -13 -110 -73l-4 -25c-9 -60 25 -74 88 -74c62 0 100 14 109 74
l4 25c10 60 -25 73 -87 73z" />
    <glyph glyph-name="seven.subs" horiz-adv-x="306" 
d="M9 223h256c3 0 5 -1 5 -4l-3 -17l-3 -8l-242 -363c-2 -2 -4 -3 -7 -3h-30c-4 0 -4 3 -2 6l238 357h-217c-3 0 -5 1 -4 5l4 23c0 3 2 4 5 4z" />
    <glyph glyph-name="eight.subs" horiz-adv-x="355" 
d="M161 226h8c86 0 119 -35 108 -109c-8 -46 -28 -76 -67 -96c42 -18 54 -49 47 -90c-11 -72 -62 -106 -152 -106h-9c-90 0 -129 34 -118 107c7 46 36 80 78 102c-31 18 -44 43 -37 85c12 72 57 107 142 107zM164 194h-7c-60 0 -94 -25 -102 -74c-7 -45 18 -64 49 -70
l80 -16c34 19 51 49 56 82c8 52 -16 78 -76 78zM165 4l-80 16c-40 -18 -64 -47 -71 -86c-8 -52 22 -77 87 -77h9c68 0 103 26 111 73c6 44 -15 66 -56 74z" />
    <glyph glyph-name="nine.subs" horiz-adv-x="331" 
d="M149 226c82 0 132 -19 119 -102l-4 -29c-5 -28 -9 -41 -21 -59l-139 -204c-1 -3 -4 -4 -7 -4h-28c-4 0 -4 3 -2 6l111 167c-19 -8 -42 -10 -69 -10c-80 0 -128 20 -116 100l5 33c14 83 69 102 151 102zM144 194c-62 0 -101 -14 -110 -73l-4 -26c-10 -59 25 -73 87 -73
s101 14 110 73l4 26c10 59 -25 73 -87 73z" />
    <glyph glyph-name="zero.tf" horiz-adv-x="596" 
d="M367 741c209 0 246 -88 200 -375s-109 -371 -318 -371c-210 0 -247 84 -201 371s110 375 319 375zM361 705c-178 0 -232 -79 -273 -339s-11 -335 166 -335c178 0 233 75 274 335s11 339 -167 339z" />
    <glyph glyph-name="one.tf" horiz-adv-x="596" 
d="M294 36h119c4 0 6 -3 5 -7l-3 -22c-1 -4 -4 -7 -8 -7h-284c-4 0 -6 3 -5 7l3 22c1 4 4 7 8 7h126l96 610c8 57 -39 59 -75 59h-58c-4 -1 -6 2 -6 6l3 18c1 4 2 5 7 6c20 3 37 6 64 6c36 0 119 -1 105 -91z" />
    <glyph glyph-name="two.tf" horiz-adv-x="596" 
d="M323 741c136 0 255 -21 231 -174l-7 -46c-11 -68 -30 -121 -114 -165l-261 -139c-64 -35 -88 -60 -96 -112l-11 -69h405c4 0 6 -1 5 -6l-4 -25c0 -3 -3 -5 -6 -5h-420c-20 0 -23 11 -21 28l12 77c11 67 41 100 122 143l261 139c64 35 79 78 89 134l6 46
c20 121 -82 138 -198 138h-155c-3 0 -5 1 -4 5l4 20c1 5 2 7 6 7c56 3 116 4 156 4z" />
    <glyph glyph-name="three.tf" horiz-adv-x="596" 
d="M309 741c156 0 264 -24 240 -179l-5 -32c-15 -97 -80 -148 -153 -162c69 -15 117 -65 101 -162l-4 -32c-24 -155 -140 -179 -297 -179c-33 0 -114 0 -164 3c-4 0 -7 2 -6 5l4 22c1 4 4 6 8 6h165c131 0 230 20 250 144l5 30c19 120 -66 145 -182 145h-151c-4 0 -6 2 -5 6
l3 22c1 6 3 7 7 7h151c116 0 210 25 228 146l6 32c20 124 -76 142 -207 142h-164c-4 0 -7 1 -6 5l4 21c1 5 4 7 8 7c51 2 131 3 164 3z" />
    <glyph glyph-name="four.tf" horiz-adv-x="596" 
d="M268 736h26c6 0 7 -3 4 -8l-228 -482h304l34 213c1 4 4 6 7 8l28 10c5 1 8 0 6 -5l-35 -226h137c4 0 6 -2 5 -6l-3 -23c-1 -4 -4 -7 -8 -7h-137l-32 -203c-1 -4 -3 -7 -8 -7h-26c-4 0 -6 3 -5 8l32 202h-339c-4 0 -6 3 -5 8l2 13c2 10 7 22 11 30l221 470c2 3 5 5 9 5z
" />
    <glyph glyph-name="five.tf" horiz-adv-x="596" 
d="M188 736h366c4 0 6 -3 5 -7l-4 -22c-1 -6 -4 -7 -8 -7h-340l-64 -285c44 1 102 2 128 2c156 0 263 -26 239 -183l-9 -57c-25 -157 -141 -182 -297 -182c-33 0 -111 0 -160 2c-6 1 -8 2 -7 7l4 20c1 6 4 7 8 7h163c129 0 229 20 250 146l8 56c21 127 -73 148 -202 148
h-164c-4 0 -6 2 -6 5l4 27l68 309c2 9 7 14 18 14z" />
    <glyph glyph-name="six.tf" horiz-adv-x="596" 
d="M360 736h29c5 0 7 -3 4 -8l-220 -323c41 17 92 21 150 21c145 0 240 -29 215 -183l-10 -65c-24 -154 -129 -183 -274 -183c-144 0 -239 28 -215 183l9 57c9 53 16 76 39 109l264 387c2 3 5 5 9 5zM317 390c-121 0 -209 -22 -228 -147l-10 -65c-20 -125 60 -147 181 -147
s209 22 229 147l10 64c19 126 -61 148 -182 148z" />
    <glyph glyph-name="seven.tf" horiz-adv-x="596" 
d="M130 736h467c4 0 6 -3 5 -7l-2 -18c-1 -3 -3 -7 -5 -10l-461 -696c-3 -4 -5 -5 -9 -5h-29c-6 0 -8 3 -4 8l458 692h-425c-4 0 -7 2 -7 6l4 23c2 4 4 7 8 7z" />
    <glyph glyph-name="eight.tf" horiz-adv-x="596" 
d="M360 741h15c156 0 217 -66 195 -202c-14 -88 -49 -145 -121 -182c78 -32 97 -94 86 -166c-21 -134 -115 -196 -279 -196h-17c-165 0 -237 62 -216 197c15 89 68 153 144 194c-55 33 -79 77 -66 158c21 131 105 197 259 197zM369 705h-15c-128 0 -197 -56 -213 -159
c-15 -94 39 -135 100 -144l177 -28c70 38 102 98 113 165c18 112 -34 166 -162 166zM372 341l-169 28c-76 -37 -127 -94 -140 -178c-17 -109 44 -160 181 -160h17c142 0 218 56 233 154c15 90 -29 141 -122 156z" />
    <glyph glyph-name="nine.tf" horiz-adv-x="596" 
d="M360 741c144 0 239 -29 215 -183l-8 -57c-9 -53 -17 -76 -39 -110l-264 -386c-3 -4 -5 -5 -9 -5h-30c-5 0 -7 3 -3 8l220 323c-42 -17 -93 -21 -151 -21c-144 0 -239 28 -215 183l10 65c24 154 129 183 274 183zM354 705c-121 0 -208 -23 -228 -148l-10 -64
c-20 -125 61 -147 181 -147c121 0 209 22 228 147l11 64c20 126 -61 148 -182 148z" />
    <glyph glyph-name="zero.tosf" horiz-adv-x="596" 
d="M334 538c196 1 235 -66 202 -273s-91 -268 -287 -268c-197 -1 -236 60 -203 267c32 207 92 274 288 274zM329 502c-166 0 -216 -58 -244 -238c-29 -180 4 -232 169 -231c166 0 214 52 243 232c28 180 -3 238 -168 237z" />
    <glyph glyph-name="one.tosf" horiz-adv-x="596" 
d="M296 36h119c4 0 7 -3 5 -7l-3 -22c-1 -4 -3 -7 -8 -7h-283c-5 0 -7 3 -6 7l3 22c1 4 4 7 8 7h126l64 408c9 56 -38 58 -74 58h-58c-4 0 -8 2 -7 7l4 17c1 4 2 6 7 7c20 3 36 5 63 5c36 0 119 0 105 -90z" />
    <glyph glyph-name="two.tosf" horiz-adv-x="596" 
d="M291 538c129 0 251 -6 230 -138l-4 -25c-10 -65 -22 -117 -110 -139l-236 -64c-64 -17 -85 -41 -94 -92l-7 -44h401c4 0 5 -2 5 -5l-4 -26c-1 -3 -3 -5 -6 -5h-416c-20 0 -23 11 -21 28l9 53c10 68 40 101 118 122l237 64c68 18 76 55 85 108l4 25
c15 100 -88 102 -196 102h-156c-3 0 -5 2 -5 5l4 22c0 3 3 5 6 5c56 4 116 4 156 4z" />
    <glyph glyph-name="three.tosf" horiz-adv-x="596" 
d="M277 537c156 0 264 -24 240 -181l-5 -24c-14 -97 -79 -147 -152 -161c69 -15 117 -65 101 -161l-3 -24c-25 -155 -140 -179 -296 -179c-34 0 -115 1 -165 3c-4 0 -6 2 -5 6l3 21c1 4 4 6 8 6h164c131 0 232 19 251 143l4 22c18 120 -66 145 -182 145h-151c-5 0 -6 2 -5 6
l3 23c1 4 3 6 7 6h151c116 0 209 24 228 145l4 23c20 126 -76 145 -206 145h-165c-4 0 -5 2 -5 6l3 21c1 3 4 6 8 6c51 2 132 3 165 3z" />
    <glyph glyph-name="four.tosf" horiz-adv-x="596" 
d="M239 532h26c6 0 7 -4 4 -9l-228 -481h305l33 212c1 5 4 7 8 9l28 10c4 1 7 0 6 -5l-36 -226h137c4 0 6 -2 5 -6l-3 -23c-1 -4 -3 -7 -8 -7h-136l-31 -192c-1 -4 -3 -7 -7 -7h-27c-4 0 -6 3 -6 7l31 192h-339c-4 0 -6 3 -5 8l1 13c1 10 8 22 12 30l221 470c2 3 5 5 9 5z
" />
    <glyph glyph-name="five.tosf" horiz-adv-x="596" 
d="M156 532h364c4 0 5 -3 5 -7l-4 -23c0 -4 -3 -6 -7 -6h-339l-64 -283c44 2 102 2 128 2c157 0 264 -26 239 -183l-7 -48c-25 -157 -141 -182 -297 -182c-33 0 -112 0 -161 3c-4 0 -7 2 -6 6l3 22c1 3 4 5 8 5h164c129 0 229 20 249 146l8 48c19 126 -75 147 -203 147h-164
c-4 0 -6 2 -6 6l4 26l68 307c2 9 7 14 18 14z" />
    <glyph glyph-name="six.tosf" horiz-adv-x="596" 
d="M360 736h29c5 0 7 -3 4 -8l-220 -323c41 17 92 21 150 21c145 0 240 -29 215 -183l-10 -65c-24 -154 -129 -183 -274 -183c-144 0 -239 28 -215 183l9 57c9 53 16 76 39 109l264 387c2 3 5 5 9 5zM317 390c-121 0 -209 -22 -228 -147l-10 -65c-20 -125 60 -147 181 -147
s209 22 229 147l10 64c19 126 -61 148 -182 148z" />
    <glyph glyph-name="seven.tosf" horiz-adv-x="596" 
d="M96 532h467c4 0 6 -3 5 -7l-2 -18c-2 -3 -3 -7 -5 -10l-454 -684c-3 -5 -6 -5 -10 -5h-27c-6 0 -8 3 -4 8l450 680h-425c-4 0 -7 2 -7 6l4 23c1 4 4 7 8 7z" />
    <glyph glyph-name="eight.tosf" horiz-adv-x="596" 
d="M360 741h15c156 0 217 -66 195 -202c-14 -88 -49 -145 -121 -182c78 -32 97 -94 86 -166c-21 -134 -115 -196 -279 -196h-17c-165 0 -237 62 -216 197c15 89 68 153 144 194c-55 33 -79 77 -66 158c21 131 105 197 259 197zM369 705h-15c-128 0 -197 -56 -213 -159
c-15 -94 39 -135 100 -144l177 -28c70 38 102 98 113 165c18 112 -34 166 -162 166zM372 341l-169 28c-76 -37 -127 -94 -140 -178c-17 -109 44 -160 181 -160h17c142 0 218 56 233 154c15 90 -29 141 -122 156z" />
    <glyph glyph-name="nine.tosf" horiz-adv-x="596" 
d="M331 538c144 0 240 -28 215 -183l-8 -49c-8 -53 -16 -76 -39 -110l-262 -384c-2 -4 -5 -5 -8 -5h-30c-5 0 -7 3 -3 8l218 321c-41 -17 -92 -21 -150 -21c-145 0 -240 28 -215 183l8 58c25 154 129 182 274 182zM325 502c-121 0 -208 -22 -229 -147l-8 -57
c-20 -125 60 -147 181 -147s209 22 229 147l8 57c21 125 -60 147 -181 147z" />
    <glyph glyph-name="zero.zero" horiz-adv-x="657" 
d="M397 741c210 0 246 -88 201 -375c-46 -287 -110 -371 -319 -371s-247 84 -201 371s110 375 319 375zM391 705c-178 0 -232 -79 -273 -339c-16 -96 -21 -168 -12 -218l455 476c-24 58 -76 81 -170 81zM569 590l-455 -477c23 -60 75 -82 170 -82c178 0 233 75 274 335
c15 100 21 172 11 224z" />
    <glyph glyph-name="zero.osf.zero" horiz-adv-x="620" 
d="M346 538c196 1 235 -66 202 -273s-91 -268 -287 -268c-197 -1 -236 60 -203 267c32 207 92 274 288 274zM341 502c-166 0 -216 -58 -244 -238c-14 -85 -14 -141 9 -177l369 387c-28 20 -72 28 -134 28zM496 453l-371 -389c28 -23 73 -31 141 -31c166 0 214 52 243 232
c14 92 13 151 -13 188z" />
    <glyph glyph-name="zero.tf.zero" horiz-adv-x="596" 
d="M367 741c210 0 246 -88 201 -375c-46 -287 -110 -371 -319 -371s-247 84 -201 371s110 375 319 375zM361 705c-178 0 -232 -79 -273 -339c-16 -96 -21 -168 -12 -218l455 476c-24 58 -76 81 -170 81zM539 590l-455 -477c23 -60 75 -82 170 -82c178 0 233 75 274 335
c15 100 21 172 11 224z" />
    <glyph glyph-name="zero.tosf.zero" horiz-adv-x="596" 
d="M334 538c196 1 235 -66 202 -273s-91 -268 -287 -268c-197 -1 -236 60 -203 267c32 207 92 274 288 274zM329 502c-166 0 -216 -58 -244 -238c-14 -85 -14 -141 9 -177l369 387c-28 20 -72 28 -134 28zM484 453l-371 -389c28 -23 73 -31 141 -31c166 0 214 52 243 232
c14 92 13 151 -13 188z" />
    <glyph glyph-name="fraction" unicode="&#x2044;" horiz-adv-x="140" 
d="M302 762h22c4 0 5 -3 1 -7l-459 -773c-4 -6 -7 -7 -11 -7h-22c-4 0 -5 2 -1 7l459 773c5 6 6 7 11 7z" />
    <glyph glyph-name="onehalf" unicode="&#xbd;" horiz-adv-x="742" 
d="M582 762h21c4 0 5 -3 2 -7l-459 -773c-4 -6 -7 -7 -11 -7h-22c-4 0 -5 2 -2 7l460 773c4 6 6 7 11 7zM222 341h-166c-3 0 -4 2 -3 5l3 22c0 3 2 5 5 5h67l48 304c4 29 -17 31 -39 31h-31c-3 0 -4 1 -4 4l3 18c0 2 2 4 5 5c12 2 24 4 39 4c25 0 71 -2 63 -55l-49 -311h64
c3 0 4 -2 4 -5l-3 -22c-1 -3 -3 -5 -6 -5zM569 398c74 0 138 -11 125 -93l-4 -31c-6 -36 -16 -63 -62 -89l-132 -71c-30 -16 -46 -30 -50 -55l-4 -27h209c3 0 3 -1 2 -3l-4 -26c0 -2 -1 -3 -2 -3h-236c-10 0 -12 6 -11 15l7 42c6 39 24 57 70 83l136 73c29 16 36 37 41 64
l4 25c8 55 -37 64 -96 64h-87c-2 0 -3 1 -3 3l2 20c1 3 3 4 6 5c31 2 61 4 89 4z" />
    <glyph glyph-name="onequarter" unicode="&#xbc;" horiz-adv-x="771" 
d="M592 762h21c4 0 5 -3 2 -7l-459 -773c-4 -6 -7 -7 -11 -7h-22c-4 0 -5 2 -2 7l460 773c4 6 6 7 11 7zM225 341h-166c-3 0 -4 2 -3 5l3 22c0 3 2 5 5 5h67l49 304c4 29 -17 31 -39 31h-32c-3 0 -4 1 -4 4l3 18c0 2 2 4 5 5c13 2 25 4 40 4c25 0 71 -2 62 -55l-49 -311h64
c3 0 5 -2 5 -5l-3 -22c-1 -3 -4 -5 -7 -5zM642 140h70c3 0 5 -2 4 -5l-3 -22c-1 -4 -3 -5 -6 -5h-70l-16 -103c-1 -3 -2 -5 -6 -5h-26c-3 0 -5 2 -4 5l16 103h-179c-3 0 -5 1 -4 5l2 15c1 5 4 11 7 16l114 247c1 3 3 4 6 4h27c3 0 4 -2 2 -6l-116 -249h146l17 108
c0 3 2 5 5 6l28 10c3 1 5 0 5 -4z" />
    <glyph glyph-name="threequarters" unicode="&#xbe;" horiz-adv-x="820" 
d="M647 762h22c4 0 5 -3 2 -7l-460 -773c-3 -6 -6 -7 -11 -7h-22c-4 0 -4 2 -1 7l459 773c5 6 7 7 11 7zM216 739c91 0 145 -14 132 -97l-2 -18c-8 -48 -37 -77 -76 -86c37 -8 56 -37 48 -84l-2 -17c-13 -84 -72 -99 -164 -99c-23 0 -62 2 -87 3c-4 0 -6 2 -6 6l3 19
c0 3 3 4 6 4h88c71 0 115 11 124 70l2 13c10 57 -25 70 -85 70h-84c-4 0 -5 2 -4 5l3 21c1 3 2 4 5 4h85c60 0 98 14 108 72l2 13c9 58 -32 69 -103 69h-88c-3 0 -4 1 -4 3l3 21c1 3 3 4 7 5c26 2 65 3 89 3zM596 395h27c3 0 4 -2 2 -6l-115 -249h145l17 108c1 3 3 5 5 6
l29 10c3 1 5 0 5 -4l-20 -120h70c3 0 5 -2 4 -5l-3 -22c-1 -4 -3 -5 -6 -5h-70l-16 -103c-1 -3 -2 -5 -5 -5h-27c-3 0 -5 2 -4 5l16 103h-179c-3 0 -5 1 -4 5l2 15c1 5 4 11 7 16l114 247c1 3 3 4 6 4z" />
    <glyph glyph-name="oneeighth" unicode="&#x215b;" horiz-adv-x="767" 
d="M570 762h21c4 0 5 -3 2 -7l-459 -773c-4 -6 -7 -7 -11 -7h-22c-4 0 -5 2 -2 7l460 773c4 6 6 7 11 7zM150 739c26 0 71 -2 63 -55l-49 -311h64c3 0 4 -2 4 -5l-3 -22c-1 -3 -3 -5 -6 -5h-166c-3 0 -4 2 -3 5l3 22c0 3 2 5 5 5h67l48 304c4 29 -17 31 -39 31h-31
c-3 0 -4 1 -4 4l3 18c0 2 2 4 5 5c12 2 25 4 39 4zM598 398h8c85 0 118 -36 106 -109c-7 -46 -26 -76 -65 -97c42 -17 53 -48 46 -89c-11 -72 -61 -106 -151 -106h-9c-90 0 -130 34 -118 107c7 45 36 79 77 102c-30 18 -43 43 -36 85c11 71 57 107 142 107zM601 366h-8
c-59 0 -94 -26 -101 -74c-7 -45 18 -65 49 -71l79 -15c34 19 51 48 57 82c7 52 -16 78 -76 78zM601 176l-79 16c-41 -19 -65 -47 -71 -87c-8 -51 21 -76 86 -76h9c67 0 104 26 111 73c7 44 -15 66 -56 74z" />
    <glyph glyph-name="threeeighths" unicode="&#x215c;" horiz-adv-x="827" 
d="M631 762h22c4 0 5 -3 2 -7l-460 -773c-3 -6 -6 -7 -11 -7h-22c-4 0 -4 2 -1 7l459 773c5 6 7 7 11 7zM213 739c91 0 145 -14 132 -97l-2 -18c-8 -48 -37 -77 -77 -86c38 -8 57 -37 49 -84l-2 -17c-13 -84 -72 -99 -164 -99c-23 0 -62 2 -87 3c-4 0 -7 2 -6 6l3 19
c0 3 3 4 6 4h88c71 0 115 11 124 70l2 13c10 57 -25 70 -85 70h-84c-4 0 -5 2 -4 5l3 21c1 3 2 4 5 4h85c60 0 98 14 108 72l2 13c9 58 -32 69 -103 69h-88c-3 0 -4 1 -4 3l3 21c0 3 3 4 7 5c26 2 65 3 89 3zM658 398h8c85 0 118 -36 106 -109c-7 -46 -26 -76 -65 -97
c42 -17 53 -48 46 -89c-11 -72 -61 -106 -151 -106h-10c-90 0 -129 34 -118 107c8 45 37 79 78 102c-31 18 -43 43 -36 85c11 71 57 107 142 107zM661 366h-8c-59 0 -94 -26 -102 -74c-6 -45 19 -65 49 -71l80 -15c34 19 51 48 57 82c7 52 -16 78 -76 78zM661 176l-80 16
c-40 -19 -64 -47 -70 -87c-8 -51 21 -76 86 -76h8c68 0 105 26 112 73c7 44 -15 66 -56 74z" />
    <glyph glyph-name="fiveeighths" unicode="&#x215d;" horiz-adv-x="812" 
d="M632 762h21c5 0 6 -3 2 -7l-459 -773c-4 -6 -7 -7 -11 -7h-22c-4 0 -5 2 -2 7l460 773c4 6 6 7 11 7zM141 736h207c3 0 5 -2 4 -5l-3 -22c-1 -3 -3 -5 -6 -5h-182l-30 -135c22 1 50 1 63 1c91 0 144 -15 130 -101l-4 -29c-14 -86 -74 -102 -165 -102c-23 0 -64 1 -89 3
c-4 0 -6 2 -6 6l4 19c0 3 2 4 5 4h91c71 0 114 11 125 72l3 23c10 61 -30 74 -100 74h-91c-4 0 -6 1 -6 4l4 22l36 163c2 5 4 8 10 8zM642 398h8c85 0 118 -36 106 -109c-7 -46 -26 -76 -65 -97c42 -17 53 -48 46 -89c-11 -72 -61 -106 -151 -106h-9c-90 0 -129 34 -118 107
c7 45 36 79 77 102c-30 18 -43 43 -36 85c11 71 57 107 142 107zM645 366h-8c-59 0 -94 -26 -101 -74c-7 -45 18 -65 49 -71l79 -15c35 19 52 48 57 82c8 52 -16 78 -76 78zM645 176l-79 16c-41 -19 -64 -47 -71 -87c-8 -51 21 -76 86 -76h9c68 0 104 26 112 73
c6 44 -16 66 -57 74z" />
    <glyph glyph-name="seveneighths" unicode="&#x215e;" horiz-adv-x="758" 
d="M557 762h21c4 0 5 -3 2 -7l-459 -773c-4 -6 -7 -7 -11 -7h-22c-4 0 -5 2 -2 7l460 773c4 6 6 7 11 7zM102 736h255c3 0 5 -2 4 -5l-3 -17c0 -3 -1 -5 -3 -7l-241 -363c-2 -2 -4 -3 -6 -3h-30c-4 0 -6 3 -3 6l238 357h-216c-4 0 -6 2 -5 5l3 22c1 3 3 5 7 5zM586 398h9
c85 0 118 -36 106 -109c-7 -46 -27 -76 -66 -97c42 -17 54 -48 47 -89c-11 -72 -62 -106 -152 -106h-9c-90 0 -129 34 -118 107c7 45 36 79 78 102c-31 18 -44 43 -37 85c11 71 58 107 142 107zM589 366h-7c-60 0 -94 -26 -102 -74c-7 -45 18 -65 49 -71l80 -15
c34 19 51 48 56 82c8 52 -16 78 -76 78zM590 176l-80 16c-40 -19 -64 -47 -71 -87c-7 -51 22 -76 87 -76h8c68 0 104 26 112 73c7 44 -16 66 -56 74z" />
    <glyph glyph-name="zero.dnom" horiz-adv-x="368" 
d="M198 398c115 0 135 -47 111 -202c-24 -154 -59 -199 -174 -199c-114 0 -135 45 -111 199c24 155 60 202 174 202zM193 366c-86 0 -113 -40 -133 -170c-20 -129 -7 -167 79 -167s113 38 134 167c20 130 6 170 -80 170z" />
    <glyph glyph-name="one.dnom" horiz-adv-x="226" 
d="M98 32h64c3 0 5 -2 4 -5l-3 -22c-1 -3 -3 -5 -6 -5h-166c-4 0 -5 2 -4 5l3 22c1 3 3 5 6 5h66l49 304c4 29 -16 31 -38 31h-32c-3 0 -5 1 -5 4l3 18c1 2 3 4 6 5c12 2 25 4 40 4c25 0 71 -2 62 -55z" />
    <glyph glyph-name="two.dnom" horiz-adv-x="320" 
d="M154 398c73 0 138 -11 125 -93l-4 -31c-6 -36 -16 -63 -62 -89l-132 -71c-31 -16 -46 -30 -50 -55l-4 -27h209c3 0 3 -1 2 -3l-4 -26c0 -2 -1 -3 -2 -3h-236c-10 0 -12 6 -11 15l7 42c6 39 24 57 70 83l136 73c29 16 36 37 41 64l4 25c8 55 -37 64 -96 64h-87
c-2 0 -4 1 -3 3l2 20c1 3 3 4 6 5c31 2 61 4 89 4z" />
    <glyph glyph-name="three.dnom" horiz-adv-x="324" 
d="M147 398c91 0 145 -14 132 -97l-3 -18c-7 -48 -36 -77 -76 -86c38 -8 56 -37 49 -84l-3 -18c-13 -83 -70 -98 -162 -98c-23 0 -63 2 -89 3c-3 0 -6 2 -5 6l3 19c0 3 2 4 5 4h88c72 0 115 11 125 70l2 13c9 57 -25 70 -85 70h-85c-3 0 -4 2 -3 5l3 21c1 3 2 4 5 4h85
c60 0 98 14 107 72l2 13c10 58 -30 69 -102 69h-88c-3 0 -5 1 -5 3l4 21c0 3 3 4 6 5c27 2 67 3 90 3z" />
    <glyph glyph-name="four.dnom" horiz-adv-x="340" 
d="M124 395h27c3 0 4 -2 2 -6l-116 -249h146l17 108c1 3 3 5 5 6l28 10c4 1 6 0 6 -4l-20 -120h70c3 0 5 -2 4 -5l-3 -22c-1 -4 -3 -5 -6 -5h-70l-16 -103c-1 -3 -2 -5 -5 -5h-27c-3 0 -5 2 -4 5l16 103h-179c-3 0 -5 1 -4 5l2 15c1 5 4 11 7 16l114 247c1 3 3 4 6 4z" />
    <glyph glyph-name="five.dnom" horiz-adv-x="325" 
d="M75 395h208c3 0 5 -2 4 -5l-3 -22c-1 -3 -3 -5 -6 -5h-182l-30 -135c22 1 50 1 63 1c90 0 144 -15 130 -101l-4 -29c-14 -87 -73 -102 -165 -102c-22 0 -64 1 -90 3c-3 0 -6 2 -5 6l3 19c0 3 2 4 5 4h92c70 0 114 11 124 72l3 23c10 61 -29 74 -100 74h-90
c-4 0 -7 1 -6 4l3 22l37 163c1 5 4 8 9 8z" />
    <glyph glyph-name="six.dnom" horiz-adv-x="331" 
d="M170 395h29c4 0 5 -3 2 -6l-112 -166c19 8 43 9 69 9c80 0 129 -20 116 -100l-5 -34c-13 -82 -69 -101 -150 -101s-132 18 -119 101l5 31c4 26 8 39 20 57l139 205c1 2 3 4 6 4zM150 201c-62 0 -100 -13 -110 -74l-4 -24c-9 -60 25 -74 87 -74s101 14 111 74l4 24
c9 61 -26 74 -88 74z" />
    <glyph glyph-name="seven.dnom" horiz-adv-x="306" 
d="M37 395h255c3 0 5 -2 4 -5l-2 -17c-1 -3 -2 -5 -4 -7l-241 -363c-2 -2 -4 -3 -6 -3h-30c-4 0 -6 3 -3 6l238 357h-217c-3 0 -5 2 -4 5l4 22c0 3 2 5 6 5z" />
    <glyph glyph-name="eight.dnom" horiz-adv-x="355" 
d="M189 398h8c85 0 118 -36 106 -109c-7 -46 -27 -76 -65 -97c41 -17 53 -48 46 -89c-11 -72 -61 -106 -152 -106h-9c-90 0 -129 34 -118 107c7 45 36 79 78 102c-31 18 -43 43 -36 85c11 71 57 107 142 107zM191 366h-7c-60 0 -94 -26 -102 -74c-6 -45 18 -65 49 -71
l80 -15c34 19 51 48 57 82c7 52 -17 78 -77 78zM192 176l-80 16c-40 -19 -64 -47 -71 -87c-7 -51 22 -76 87 -76h8c68 0 105 26 112 73c7 44 -15 66 -56 74z" />
    <glyph glyph-name="nine.dnom" horiz-adv-x="331" 
d="M177 397c81 0 131 -18 118 -101l-4 -30c-5 -27 -10 -40 -21 -58l-139 -205c-2 -2 -3 -3 -6 -3h-29c-4 0 -5 3 -2 6l112 166c-20 -7 -43 -9 -69 -9c-81 0 -129 20 -116 100l5 33c13 83 69 101 151 101zM171 366c-61 0 -101 -14 -110 -73l-4 -26c-9 -59 25 -73 87 -73
s101 14 111 73l4 26c9 59 -25 73 -88 73z" />
    <glyph glyph-name="zero.numr" horiz-adv-x="368" 
d="M250 739c116 0 136 -47 112 -202c-24 -154 -60 -199 -175 -199c-114 0 -134 45 -110 199c25 155 59 202 173 202zM245 707c-85 0 -111 -40 -132 -170c-20 -129 -7 -167 79 -167s114 38 134 167c20 130 5 170 -81 170z" />
    <glyph glyph-name="one.numr" horiz-adv-x="226" 
d="M151 373h64c3 0 4 -2 4 -5l-3 -22c-1 -3 -3 -5 -6 -5h-166c-3 0 -5 2 -4 5l4 22c0 3 2 5 5 5h66l49 304c4 29 -17 31 -39 31h-31c-3 0 -4 1 -4 4l3 18c0 2 2 4 5 5c12 2 24 4 39 4c25 0 71 -2 63 -55z" />
    <glyph glyph-name="two.numr" horiz-adv-x="320" 
d="M207 739c74 0 139 -11 126 -93l-4 -31c-6 -36 -16 -63 -62 -89l-132 -71c-31 -16 -46 -30 -50 -55l-4 -27h209c3 0 3 -1 3 -3l-5 -26c0 -2 -1 -3 -2 -3h-236c-10 0 -12 6 -11 15l7 42c6 39 24 58 70 83l136 73c30 16 36 37 41 64l4 25c9 55 -38 64 -96 64h-88
c-2 0 -2 1 -2 3l2 20c1 3 3 4 6 5c31 2 60 4 88 4z" />
    <glyph glyph-name="three.numr" horiz-adv-x="324" 
d="M200 739c92 0 146 -14 133 -97l-3 -18c-7 -48 -36 -77 -76 -86c38 -8 57 -37 49 -84l-2 -17c-14 -84 -72 -99 -164 -99c-23 0 -62 2 -88 3c-3 0 -6 2 -5 6l3 19c0 3 2 4 5 4h88c72 0 116 11 125 70l2 13c10 57 -25 70 -85 70h-85c-3 0 -4 2 -3 5l3 21c1 3 2 4 5 4h85
c60 0 98 14 108 72l2 13c9 58 -32 69 -104 69h-88c-3 0 -4 1 -4 3l4 21c0 3 3 4 6 5c27 2 66 3 89 3z" />
    <glyph glyph-name="four.numr" horiz-adv-x="340" 
d="M177 736h27c3 0 4 -2 2 -6l-115 -249h145l18 108c0 3 2 5 4 6l29 10c3 1 5 1 4 -4l-19 -120h70c3 0 5 -2 4 -5l-3 -21c-1 -4 -3 -5 -6 -5h-70l-16 -104c-1 -3 -2 -5 -5 -5h-27c-3 0 -5 2 -4 5l16 104h-179c-3 0 -5 1 -4 5l2 14c1 5 4 11 7 16l113 247c2 3 4 4 7 4z" />
    <glyph glyph-name="five.numr" horiz-adv-x="325" 
d="M129 736h208c3 0 5 -2 4 -5l-3 -22c-1 -3 -3 -5 -6 -5h-182l-30 -135c22 1 50 1 63 1c90 0 144 -15 130 -101l-4 -29c-14 -86 -74 -102 -165 -102c-23 0 -64 1 -90 3c-3 0 -6 2 -5 6l3 19c0 3 2 4 5 4h92c71 0 114 11 124 72l3 23c11 61 -29 74 -100 74h-90
c-4 0 -6 1 -6 4l4 22l36 163c1 5 4 8 9 8z" />
    <glyph glyph-name="six.numr" horiz-adv-x="331" 
d="M224 736h29c4 0 5 -3 2 -6l-112 -166c20 8 43 9 69 9c81 0 129 -20 116 -100l-5 -34c-13 -82 -70 -101 -151 -101s-131 18 -118 101l4 31c5 26 9 39 21 57l138 205c2 2 4 4 7 4zM205 542c-63 0 -101 -13 -111 -74l-4 -24c-9 -60 25 -74 87 -74s101 14 111 74l4 24
c9 61 -25 74 -87 74z" />
    <glyph glyph-name="seven.numr" horiz-adv-x="306" 
d="M90 736h255c3 0 5 -2 4 -5l-2 -17c-1 -3 -2 -5 -4 -7l-241 -363c-2 -2 -4 -3 -6 -3h-30c-4 0 -5 3 -2 6l237 357h-216c-4 0 -6 2 -5 5l4 22c1 3 3 5 6 5z" />
    <glyph glyph-name="eight.numr" horiz-adv-x="355" 
d="M242 739h8c85 0 119 -36 107 -109c-7 -46 -26 -76 -65 -97c41 -17 52 -48 46 -89c-11 -72 -62 -106 -152 -106h-10c-90 0 -128 34 -117 107c8 45 37 79 78 102c-31 18 -43 43 -36 85c11 71 56 107 141 107zM245 707h-8c-59 0 -93 -26 -101 -74c-7 -45 19 -65 49 -71
l80 -15c34 19 51 48 56 82c8 52 -16 78 -76 78zM246 517l-80 16c-41 -18 -64 -47 -70 -87c-9 -51 21 -76 86 -76h8c68 0 105 26 112 73c7 44 -15 66 -56 74z" />
    <glyph glyph-name="nine.numr" horiz-adv-x="331" 
d="M230 738c81 0 132 -18 119 -101l-5 -30c-4 -27 -9 -40 -20 -58l-139 -205c-2 -2 -3 -3 -6 -3h-29c-4 0 -5 3 -2 6l112 166c-20 -7 -43 -9 -69 -9c-81 0 -129 20 -116 100l5 33c13 83 68 101 150 101zM225 707c-62 0 -100 -14 -110 -73l-4 -26c-9 -59 25 -73 87 -73
c63 0 101 14 111 73l4 26c9 59 -26 73 -88 73z" />
    <glyph glyph-name="uni24EA" unicode="&#x24ea;" horiz-adv-x="800" 
d="M467 722c232 0 335 -128 298 -356c-36 -232 -180 -356 -412 -356c-231 0 -337 124 -300 356c37 231 182 356 414 356zM461 690c-215 0 -342 -109 -377 -324c-33 -215 60 -324 275 -324s341 109 375 324c33 212 -57 324 -273 324zM441 564c115 0 134 -46 110 -201
c-24 -154 -59 -199 -174 -199c-114 0 -134 45 -110 199c24 155 60 201 174 201zM436 533c-86 0 -113 -40 -133 -170c-21 -129 -6 -167 79 -167c86 0 113 38 133 167c21 130 7 170 -79 170z" />
    <glyph glyph-name="uni2460" unicode="&#x2460;" horiz-adv-x="800" 
d="M467 722c233 0 335 -127 298 -356c-36 -232 -181 -356 -412 -356s-337 124 -300 356c37 231 182 356 414 356zM461 690c-215 0 -342 -109 -377 -324c-33 -215 60 -324 275 -324c214 0 341 109 374 324c34 213 -55 324 -272 324zM396 564c26 0 71 -1 63 -54l-50 -311h64
c3 0 5 -2 4 -6l-3 -21c-1 -3 -3 -5 -6 -5h-166c-3 0 -4 2 -3 5l3 21c1 3 2 6 5 6h67l48 304c4 28 -16 30 -38 30h-31c-3 0 -5 1 -5 5l3 18c1 2 2 3 5 4c12 2 26 4 40 4z" />
    <glyph glyph-name="uni2461" unicode="&#x2461;" horiz-adv-x="800" 
d="M467 722c232 0 335 -128 298 -356c-36 -232 -181 -356 -412 -356s-337 124 -300 356c37 231 182 356 414 356zM461 690c-215 0 -342 -109 -377 -324c-33 -215 60 -324 275 -324c214 0 341 109 374 324c34 212 -57 324 -272 324zM423 564c74 0 138 -11 125 -92l-4 -31
c-6 -36 -16 -63 -62 -89l-131 -71c-31 -16 -46 -30 -51 -55l-4 -27h209c3 0 3 -1 3 -3l-4 -26c-1 -2 -2 -3 -3 -3h-236c-10 0 -12 6 -10 15l6 42c6 38 24 57 70 82l137 73c29 17 36 38 40 65l4 24c9 56 -37 64 -96 64h-87c-2 0 -3 2 -3 4l3 19c1 3 2 4 5 6c32 2 61 3 89 3z
" />
    <glyph glyph-name="uni2462" unicode="&#x2462;" horiz-adv-x="800" 
d="M467 722c231 0 335 -128 298 -356c-36 -232 -181 -356 -412 -356s-337 124 -300 356c37 231 182 356 414 356zM461 690c-215 0 -342 -109 -377 -324c-33 -215 60 -324 275 -324c214 0 341 109 374 324c34 212 -57 324 -272 324zM415 564c91 0 145 -14 132 -97l-3 -18
c-7 -47 -35 -76 -76 -85c38 -8 56 -37 50 -85l-4 -17c-13 -84 -70 -98 -162 -98c-24 0 -63 1 -89 3c-3 0 -6 1 -5 5l3 19c0 3 3 5 6 5h88c72 0 115 11 124 69l2 13c10 57 -25 71 -85 71h-85c-3 0 -4 1 -3 5l3 21c1 3 2 4 5 4h85c60 0 98 14 108 72l2 13c9 58 -31 68 -103 68
h-88c-3 0 -5 2 -5 4l4 21c0 3 3 4 6 4c27 3 67 3 90 3z" />
    <glyph glyph-name="uni2463" unicode="&#x2463;" horiz-adv-x="800" 
d="M467 722c231 0 335 -128 298 -356c-36 -232 -181 -356 -412 -356s-337 124 -300 356c37 231 182 356 414 356zM461 690c-215 0 -342 -109 -377 -324c-33 -215 60 -324 275 -324c214 0 341 109 374 324c34 212 -57 324 -272 324zM378 561h26c3 0 4 -2 2 -5l-115 -249h145
l18 108c1 3 2 5 4 6l29 9c3 1 5 1 5 -3l-20 -120h70c3 0 5 -2 5 -5l-4 -22c0 -4 -3 -5 -6 -5h-70l-16 -103c-1 -3 -2 -5 -5 -5h-27c-3 0 -5 2 -4 5l16 103h-179c-3 0 -4 1 -4 5l3 15c0 5 3 11 6 16l115 247c1 3 3 3 6 3z" />
    <glyph glyph-name="uni2464" unicode="&#x2464;" horiz-adv-x="800" 
d="M467 722c231 0 335 -128 298 -356c-36 -232 -181 -356 -412 -356s-337 124 -300 356c37 231 182 356 414 356zM461 690c-215 0 -342 -109 -377 -324c-33 -215 60 -324 275 -324c214 0 341 109 374 324c34 212 -57 324 -272 324zM337 561h208c3 0 5 -1 5 -4l-4 -23
c0 -3 -3 -5 -6 -5h-183l-29 -135c21 2 49 2 63 2c90 0 143 -15 130 -101l-5 -30c-14 -86 -73 -101 -164 -101c-23 0 -64 1 -90 3c-4 0 -6 2 -5 6l3 18c0 3 3 5 6 5h92c70 0 114 11 123 72l4 23c9 61 -31 73 -101 73h-91c-4 0 -6 2 -6 5l4 22l37 163c1 5 4 7 9 7z" />
    <glyph glyph-name="uni2465" unicode="&#x2465;" horiz-adv-x="800" 
d="M467 722c231 0 335 -128 298 -356c-36 -232 -181 -356 -412 -356s-337 124 -300 356c37 231 182 356 414 356zM461 690c-215 0 -342 -109 -377 -324c-33 -215 60 -324 275 -324c214 0 341 109 374 324c34 212 -57 324 -272 324zM429 561h29c4 0 5 -2 2 -5l-112 -166
c20 7 43 8 70 8c80 0 128 -20 116 -99l-5 -34c-13 -82 -70 -101 -151 -101s-132 18 -119 101l5 31c4 26 8 39 20 57l139 205c1 2 4 3 6 3zM410 367c-62 0 -101 -13 -110 -73l-4 -24c-10 -61 25 -74 88 -74c61 0 100 13 109 74l4 24c10 60 -25 73 -87 73z" />
    <glyph glyph-name="uni2466" unicode="&#x2466;" horiz-adv-x="800" 
d="M467 722c231 0 335 -128 298 -356c-36 -232 -181 -356 -412 -356s-337 124 -300 356c37 231 182 356 414 356zM461 690c-215 0 -342 -109 -377 -324c-33 -215 60 -324 275 -324c214 0 341 109 374 324c34 212 -57 324 -272 324zM313 561h255c3 0 5 -1 5 -4l-2 -17
c-1 -3 -2 -5 -4 -7l-241 -363c-3 -2 -5 -3 -7 -3h-30c-4 0 -4 3 -2 6l238 356h-217c-3 0 -4 2 -4 5l4 23c0 3 2 4 5 4z" />
    <glyph glyph-name="uni2467" unicode="&#x2467;" horiz-adv-x="800" 
d="M467 722c231 0 335 -128 298 -356c-36 -232 -181 -356 -412 -356s-337 124 -300 356c37 231 182 356 414 356zM461 690c-215 0 -342 -109 -377 -324c-33 -215 60 -324 275 -324c214 0 341 109 374 324c34 212 -57 324 -272 324zM439 564h8c85 0 118 -35 107 -108
c-8 -47 -27 -77 -67 -97c42 -17 54 -48 47 -90c-11 -71 -62 -105 -152 -105h-9c-90 0 -129 34 -118 106c7 46 36 80 78 103c-31 17 -44 42 -37 85c12 71 58 106 143 106zM440 532h-7c-60 0 -94 -25 -102 -73c-6 -46 18 -65 50 -71l79 -15c34 18 51 48 56 82
c8 51 -16 77 -76 77zM442 343l-80 16c-40 -19 -64 -47 -71 -87c-7 -51 23 -76 88 -76h8c68 0 103 26 111 72c7 44 -15 67 -56 75z" />
    <glyph glyph-name="uni2468" unicode="&#x2468;" horiz-adv-x="800" 
d="M467 722c231 0 335 -128 298 -356c-36 -232 -181 -356 -412 -356s-337 124 -300 356c37 231 182 356 414 356zM461 690c-215 0 -342 -109 -377 -324c-33 -215 60 -324 275 -324c214 0 341 109 374 324c34 212 -57 324 -272 324zM441 564c81 0 132 -18 119 -101l-5 -30
c-4 -27 -9 -40 -21 -58l-138 -205c-3 -2 -4 -3 -7 -3h-28c-4 0 -5 3 -2 6l112 166c-20 -8 -44 -9 -70 -9c-80 0 -129 19 -116 99l5 34c14 83 69 101 151 101zM436 532c-62 0 -101 -13 -110 -73l-4 -25c-10 -60 25 -73 87 -73s101 13 110 73l4 25c9 60 -25 73 -87 73z" />
    <glyph glyph-name="uni24FF" unicode="&#x24ff;" horiz-adv-x="800" 
d="M352 6c-224 0 -323 116 -287 340c35 224 171 340 395 340s321 -119 286 -340c-36 -224 -170 -340 -394 -340zM437 544c-114 0 -150 -46 -174 -201c-24 -154 -5 -199 109 -199c115 0 151 45 175 199c24 155 5 201 -110 201zM431 513c86 0 101 -40 80 -170
c-20 -129 -48 -167 -133 -167c-86 0 -100 38 -79 167c20 130 47 170 132 170z" />
    <glyph glyph-name="uni2776" unicode="&#x2776;" horiz-adv-x="800" 
d="M460 686c224 0 321 -119 286 -340c-35 -224 -170 -340 -394 -340s-322 116 -286 340c35 224 170 340 394 340zM393 544c-15 0 -28 -2 -40 -4c-3 -1 -4 -2 -5 -4l-3 -18c0 -4 2 -5 5 -5h31c22 0 42 -2 38 -30l-48 -304h-67c-3 0 -4 -3 -5 -6l-3 -21c-1 -3 0 -5 3 -5h166
c3 0 5 2 6 5l3 21c1 4 -1 6 -4 6h-64l49 311c9 53 -37 54 -62 54z" />
    <glyph glyph-name="uni2777" unicode="&#x2777;" horiz-adv-x="800" 
d="M460 686c224 0 321 -119 286 -340c-35 -224 -170 -340 -394 -340s-322 116 -286 340c35 224 170 340 394 340zM420 544c-28 0 -58 -1 -89 -3c-3 -2 -4 -3 -6 -6l-2 -19c0 -2 1 -4 3 -4h87c59 0 104 -8 96 -64l-4 -24c-5 -27 -12 -48 -41 -65l-136 -73
c-46 -25 -64 -44 -70 -82l-7 -42c-1 -9 1 -15 11 -15h236c1 0 2 1 2 3l4 26c1 2 1 3 -2 3h-209l4 27c4 25 19 39 50 55l132 71c46 26 56 53 62 89l4 31c13 81 -51 92 -125 92z" />
    <glyph glyph-name="uni2778" unicode="&#x2778;" horiz-adv-x="800" 
d="M460 686c224 0 321 -119 286 -340c-35 -224 -170 -340 -394 -340s-322 116 -286 340c35 224 170 340 394 340zM412 544c-23 0 -63 0 -90 -3c-3 0 -6 -1 -6 -4l-4 -21c0 -2 2 -4 5 -4h88c72 0 112 -10 102 -68l-2 -13c-9 -58 -47 -72 -107 -72h-85c-3 0 -4 -1 -5 -4
l-3 -21c-1 -4 0 -5 3 -5h85c60 0 95 -14 85 -71l-2 -13c-10 -58 -53 -69 -125 -69h-88c-3 0 -5 -2 -5 -5l-4 -19c0 -4 2 -5 6 -5c26 -2 65 -3 88 -3c92 0 150 14 163 98l3 17c7 48 -11 77 -49 85c40 9 69 38 76 85l3 18c13 83 -41 97 -132 97z" />
    <glyph glyph-name="uni2779" unicode="&#x2779;" horiz-adv-x="800" 
d="M460 686c224 0 321 -119 286 -340c-35 -224 -170 -340 -394 -340s-322 116 -286 340c35 224 170 340 394 340zM401 541h-26c-3 0 -5 0 -7 -3l-114 -247c-3 -5 -6 -11 -7 -16l-2 -15c-1 -4 1 -5 4 -5h179l-16 -103c-1 -3 1 -5 4 -5h27c3 0 4 2 5 5l16 103h70c3 0 5 1 6 5
l3 22c1 3 -1 5 -4 5h-70l20 120c0 4 -2 4 -5 3l-29 -9c-2 -1 -4 -3 -4 -6l-18 -108h-145l115 249c2 3 1 5 -2 5z" />
    <glyph glyph-name="uni277A" unicode="&#x277a;" horiz-adv-x="800" 
d="M460 686c224 0 321 -119 286 -340c-35 -224 -170 -340 -394 -340s-322 116 -286 340c35 224 170 340 394 340zM542 541h-208c-5 0 -8 -2 -9 -7l-37 -163l-4 -22c0 -3 2 -5 6 -5h91c70 0 110 -12 100 -73l-3 -23c-10 -61 -54 -72 -124 -72h-92c-3 0 -5 -2 -5 -5l-3 -18
c-1 -4 1 -6 5 -6c26 -2 67 -3 89 -3c91 0 151 15 165 101l4 30c14 86 -39 101 -129 101c-14 0 -42 0 -63 -2l29 135h183c3 0 5 2 6 5l3 23c1 3 -1 4 -4 4z" />
    <glyph glyph-name="uni277B" unicode="&#x277b;" horiz-adv-x="800" 
d="M460 686c224 0 321 -119 286 -340c-35 -224 -170 -340 -394 -340s-322 116 -286 340c35 224 170 340 394 340zM455 541h-29c-2 0 -5 -1 -6 -3l-139 -205c-12 -18 -16 -31 -20 -57l-5 -31c-13 -83 37 -101 119 -101c80 0 138 19 151 101l5 34c12 79 -36 99 -117 99
c-26 0 -49 -1 -69 -8l112 166c3 3 2 5 -2 5zM407 347c62 0 97 -13 87 -73l-4 -24c-9 -61 -49 -74 -110 -74c-63 0 -97 13 -87 74l4 24c9 60 48 73 110 73z" />
    <glyph glyph-name="uni277C" unicode="&#x277c;" horiz-adv-x="800" 
d="M460 686c224 0 321 -119 286 -340c-35 -224 -170 -340 -394 -340s-322 116 -286 340c35 224 170 340 394 340zM565 541h-255c-3 0 -5 -1 -6 -4l-3 -23c-1 -3 1 -5 4 -5h217l-238 -356c-3 -3 -2 -6 2 -6h30c2 0 4 1 6 3l241 363c3 2 4 4 5 7l1 17c1 3 -1 4 -4 4z" />
    <glyph glyph-name="uni277D" unicode="&#x277d;" horiz-adv-x="800" 
d="M460 686c224 0 321 -119 286 -340c-35 -224 -170 -340 -394 -340s-322 116 -286 340c35 224 170 340 394 340zM444 544h-9c-85 0 -130 -35 -142 -106c-7 -43 6 -68 37 -85c-42 -23 -71 -57 -78 -103c-11 -72 27 -106 117 -106h9c91 0 142 34 153 105c7 42 -5 73 -47 90
c39 20 59 50 66 97c12 73 -21 108 -106 108zM430 512h7c60 0 84 -26 76 -77c-5 -34 -22 -64 -56 -82l-80 15c-31 6 -55 25 -49 71c8 48 42 73 102 73zM359 339l80 -16c41 -8 63 -31 56 -75c-8 -46 -44 -72 -112 -72h-8c-65 0 -94 25 -87 76c7 40 31 68 71 87z" />
    <glyph glyph-name="uni277E" unicode="&#x277e;" horiz-adv-x="800" 
d="M460 686c224 0 321 -119 286 -340c-35 -224 -170 -340 -394 -340s-322 116 -286 340c35 224 170 340 394 340zM438 544c-82 0 -138 -18 -151 -101l-5 -34c-13 -80 36 -99 116 -99c26 0 50 1 69 9l-112 -166c-2 -3 -1 -6 3 -6h28c3 0 4 1 6 3l139 205c12 18 17 31 21 58
l4 30c14 83 -37 101 -118 101zM433 512c62 0 96 -13 87 -73l-4 -25c-9 -60 -48 -73 -110 -73s-97 13 -87 73l4 25c9 60 48 73 110 73z" />
    <glyph glyph-name="zerosuperior" unicode="&#x2070;" horiz-adv-x="368" 
d="M274 881c115 0 135 -46 110 -201c-24 -154 -59 -200 -174 -200c-114 0 -134 46 -110 200c24 155 60 201 174 201zM269 849c-86 0 -113 -39 -133 -169c-21 -130 -6 -168 79 -168c86 0 113 38 133 168c21 130 6 169 -79 169z" />
    <glyph glyph-name="onesuperior" unicode="&#xb9;" horiz-adv-x="226" 
d="M174 515h64c3 0 5 -2 4 -5l-3 -22c-1 -3 -3 -5 -6 -5h-166c-3 0 -4 2 -3 6l3 21c1 3 2 5 5 5h67l48 305c4 28 -15 30 -38 30h-31c-3 0 -5 1 -5 4l3 18c1 3 2 4 5 5c12 2 26 4 40 4c26 0 71 -2 63 -54z" />
    <glyph glyph-name="twosuperior" unicode="&#xb2;" horiz-adv-x="320" 
d="M231 881c73 0 138 -11 125 -92l-5 -31c-6 -36 -15 -64 -62 -89l-132 -71c-30 -16 -46 -30 -50 -55l-4 -28h210c3 0 3 -1 3 -3l-5 -26c0 -2 -1 -3 -3 -3h-235c-10 0 -12 6 -11 15l7 43c6 38 23 57 70 82l135 73c30 17 37 37 42 64l3 25c9 56 -37 64 -95 64h-88
c-2 0 -3 1 -3 4l3 19c1 3 3 4 5 5c32 3 61 4 90 4z" />
    <glyph glyph-name="threesuperior" unicode="&#xb3;" horiz-adv-x="324" 
d="M224 881c91 0 144 -14 131 -97l-2 -18c-8 -47 -36 -76 -76 -85c37 -8 56 -38 48 -85l-2 -17c-13 -84 -71 -99 -163 -99c-23 0 -62 2 -88 3c-4 1 -6 2 -6 6l4 19c0 3 3 4 6 4h88c71 0 114 11 123 70l2 13c10 57 -25 71 -84 71h-85c-3 0 -5 1 -4 4l3 21c1 3 2 5 6 5h84
c60 0 98 13 108 71l2 13c9 59 -31 69 -102 69h-88c-3 0 -5 1 -5 4l4 20c0 3 2 5 6 5c27 3 66 3 90 3z" />
    <glyph glyph-name="foursuperior" unicode="&#x2074;" horiz-adv-x="340" 
d="M201 878h26c4 0 5 -2 3 -5l-116 -249h146l17 108c0 3 2 5 4 6l29 9c3 1 5 1 5 -3l-20 -120h70c3 0 5 -2 4 -5l-3 -22c-1 -4 -3 -5 -6 -5h-70l-16 -103c0 -4 -2 -6 -5 -6h-26c-3 0 -5 2 -4 6l16 103h-179c-3 0 -5 1 -4 5l2 14c0 5 3 12 6 17l115 247c1 3 3 3 6 3z" />
    <glyph glyph-name="fivesuperior" unicode="&#x2075;" horiz-adv-x="325" 
d="M152 878h208c3 0 5 -1 4 -4l-4 -23c0 -3 -3 -5 -6 -5h-182l-29 -135c21 2 49 2 62 2c91 0 144 -15 131 -102l-5 -29c-14 -86 -73 -102 -164 -102c-23 0 -65 2 -90 3c-4 1 -6 3 -5 7l3 18c0 3 3 4 6 4h91c71 0 113 12 124 73l4 23c9 61 -31 73 -101 73h-91c-4 0 -6 2 -6 4
l4 23l36 163c2 5 5 7 10 7z" />
    <glyph glyph-name="sixsuperior" unicode="&#x2076;" horiz-adv-x="331" 
d="M247 878h28c4 0 5 -2 2 -5l-112 -166c20 7 43 8 70 8c80 0 128 -20 116 -100l-5 -33c-13 -82 -70 -102 -151 -102s-132 19 -119 102l5 30c4 27 8 40 21 58l138 205c1 2 4 3 7 3zM227 684c-62 0 -101 -13 -110 -73l-4 -25c-10 -60 25 -74 87 -74s101 14 110 74l4 25
c10 60 -25 73 -87 73z" />
    <glyph glyph-name="sevensuperior" unicode="&#x2077;" horiz-adv-x="306" 
d="M112 878h256c3 0 5 -1 4 -4l-2 -17c-1 -3 -2 -5 -4 -7l-242 -363c-2 -3 -4 -4 -6 -4h-30c-4 0 -5 3 -2 6l238 357h-217c-3 0 -5 2 -4 5l3 23c1 3 3 4 6 4z" />
    <glyph glyph-name="eightsuperior" unicode="&#x2078;" horiz-adv-x="355" 
d="M265 881h8c85 0 118 -35 106 -109c-7 -46 -26 -76 -65 -96c42 -17 53 -48 46 -90c-11 -71 -61 -106 -151 -106h-9c-90 0 -129 35 -118 107c7 46 36 80 77 102c-30 18 -43 43 -36 85c11 72 57 107 142 107zM268 849h-8c-59 0 -94 -25 -101 -74c-7 -45 18 -64 49 -70
l79 -16c35 19 51 49 57 82c8 52 -16 78 -76 78zM268 659l-79 17c-41 -19 -64 -48 -71 -87c-8 -52 22 -77 87 -77h9c67 0 103 26 111 73c6 44 -16 67 -57 74z" />
    <glyph glyph-name="ninesuperior" unicode="&#x2079;" horiz-adv-x="331" 
d="M253 881c82 0 132 -19 119 -102l-5 -29c-4 -28 -9 -41 -21 -58l-139 -205c-2 -3 -3 -4 -6 -4h-28c-5 0 -5 3 -3 6l112 167c-19 -8 -43 -10 -69 -10c-80 0 -128 20 -116 100l5 33c13 84 69 102 151 102zM248 849c-62 0 -101 -14 -110 -73l-4 -26c-10 -59 25 -73 87 -73
s101 14 110 73l4 26c10 59 -25 73 -87 73z" />
    <glyph glyph-name="asterisk" unicode="*" horiz-adv-x="416" 
d="M267 752h17c6 0 9 -3 8 -8l-23 -137l133 46c5 2 8 0 9 -4l4 -16c0 -6 -2 -9 -8 -11l-132 -43l70 -104c2 -5 1 -8 -4 -11l-14 -11c-4 -3 -8 -1 -11 2l-70 107l-101 -109c-3 -4 -7 -5 -11 -1l-11 10c-4 3 -4 6 0 11l102 106l-120 43c-5 1 -7 6 -4 12l8 14c2 5 7 8 12 5
l117 -46l21 137c1 5 3 8 8 8z" />
    <glyph glyph-name="backslash" unicode="\" horiz-adv-x="423" 
d="M100 762h23c4 0 6 -1 7 -7l217 -773c1 -5 -1 -7 -5 -7h-23c-4 0 -7 1 -8 7l-216 773c0 4 1 7 5 7z" />
    <glyph glyph-name="periodcentered" unicode="&#xb7;" horiz-adv-x="209" 
d="M102 294c19 0 27 -11 25 -29c-4 -20 -16 -30 -34 -30c-19 0 -28 10 -25 30c3 18 15 29 34 29z" />
    <glyph glyph-name="bullet" unicode="&#x2022;" horiz-adv-x="560" 
d="M287 353c59 0 88 -31 80 -85c-8 -52 -48 -84 -107 -84c-60 0 -89 32 -81 84c8 54 48 85 108 85z" />
    <glyph glyph-name="colon" unicode=":" horiz-adv-x="210" 
d="M142 538c19 0 27 -10 24 -29c-2 -19 -15 -30 -33 -30c-19 0 -27 11 -25 30c3 19 16 29 34 29zM65 54c20 0 28 -11 25 -29c-3 -19 -16 -30 -34 -30c-19 0 -27 11 -25 30c4 18 16 29 34 29z" />
    <glyph glyph-name="comma" unicode="," horiz-adv-x="192" 
d="M71 99h30c4 0 5 -2 5 -5v-9c-1 -4 -3 -8 -5 -12l-121 -207c-2 -3 -5 -4 -8 -2l-9 4c-3 1 -3 5 -2 8l104 219c1 3 2 4 6 4z" />
    <glyph glyph-name="ellipsis" unicode="&#x2026;" horiz-adv-x="503" 
d="M58 54c19 0 28 -11 24 -29c-2 -19 -15 -30 -33 -30c-19 0 -27 11 -25 30c4 18 16 29 34 29zM218 54c20 0 28 -11 25 -29c-3 -19 -16 -30 -34 -30c-19 0 -27 11 -24 30c3 18 15 29 33 29zM379 54c19 0 27 -11 24 -29c-3 -19 -15 -30 -34 -30c-18 0 -27 11 -24 30
c3 18 15 29 34 29z" />
    <glyph glyph-name="exclam" unicode="!" horiz-adv-x="230" 
d="M170 736h25c4 0 6 -3 5 -7l-63 -402c-1 -5 -1 -8 -3 -14l-28 -149c-1 -4 -3 -7 -7 -7h-16c-4 0 -6 3 -6 7l19 149l2 14l64 402c1 4 4 7 8 7zM74 54c19 0 28 -11 24 -29c-2 -19 -15 -30 -33 -30c-19 0 -27 11 -25 30c4 18 16 29 34 29z" />
    <glyph glyph-name="exclamdown" unicode="&#xa1;" horiz-adv-x="220" 
d="M146 538c19 0 27 -10 24 -30c-2 -18 -14 -29 -33 -29s-27 11 -25 29c3 20 16 30 34 30zM115 386h15c4 0 6 -2 5 -6l-18 -150c-1 -5 -2 -9 -2 -13l-64 -402c-1 -5 -3 -7 -8 -7h-25c-4 0 -6 2 -5 7l63 402l3 13l28 150c1 4 3 6 8 6z" />
    <glyph glyph-name="numbersign" unicode="#" horiz-adv-x="589" 
d="M421 541h141c5 0 6 -3 6 -7l-4 -23c-1 -5 -4 -7 -8 -7h-141l-44 -280h143c4 0 6 -2 6 -7l-4 -23c-1 -4 -4 -7 -8 -7h-143l-28 -180c-1 -4 -4 -7 -8 -7h-25c-4 0 -6 3 -5 7l28 180h-108l-28 -180c-1 -4 -4 -7 -8 -7h-25c-4 0 -6 3 -5 7l28 180h-136c-5 0 -7 3 -6 7l4 23
c0 5 3 7 8 7h136l44 280h-138c-4 0 -7 2 -6 7l4 23c0 4 4 7 8 7h138l30 188c1 4 3 7 8 7h24c4 0 7 -3 6 -7l-30 -188h108l30 188c1 4 4 7 8 7h24c4 0 7 -3 6 -7zM333 224l44 280h-108l-44 -280h108z" />
    <glyph glyph-name="period" unicode="." horiz-adv-x="183" 
d="M58 54c19 0 28 -11 24 -29c-2 -19 -15 -30 -34 -30c-18 0 -27 11 -24 30c3 18 16 29 34 29z" />
    <glyph glyph-name="question" unicode="?" horiz-adv-x="460" 
d="M234 741c133 0 243 -13 218 -169l-9 -56c-16 -105 -50 -140 -133 -177l-123 -55c-37 -16 -41 -21 -47 -54l-11 -66c-1 -4 -2 -7 -6 -7h-24c-3 0 -6 1 -5 6l11 75c7 41 16 51 76 80l117 52c65 29 92 59 105 146l9 56c20 125 -72 133 -184 133h-128c-4 0 -7 2 -6 6l4 19
c1 4 3 7 7 8c51 2 92 3 129 3zM95 54c20 0 28 -11 25 -29c-3 -19 -16 -30 -34 -30c-19 0 -27 11 -25 30c4 18 16 29 34 29z" />
    <glyph glyph-name="questiondown" unicode="&#xbf;" horiz-adv-x="453" 
d="M358 538c19 0 27 -10 24 -30c-2 -18 -14 -29 -33 -29s-27 11 -25 29c3 20 16 30 34 30zM323 386h24c3 0 5 -2 4 -6l-10 -75c-6 -42 -16 -52 -77 -80l-117 -52c-65 -29 -91 -59 -105 -146l-9 -54c-19 -124 77 -135 192 -135h120c4 0 7 -2 5 -7l-2 -18c-1 -6 -4 -8 -8 -8
c-50 -3 -84 -3 -121 -3c-136 0 -250 16 -226 171l9 54c17 104 50 140 134 177l122 55c37 16 41 21 47 54l12 66c0 4 2 7 6 7z" />
    <glyph glyph-name="quotedbl" unicode="&#x22;" horiz-adv-x="336" 
d="M147 736h25c4 0 6 -3 5 -7l-23 -147c-1 -4 -1 -8 -2 -13l-21 -107c-2 -4 -4 -6 -8 -6h-16c-4 0 -6 1 -5 7l12 106c1 5 1 9 2 13l23 147c1 4 4 7 8 7zM298 736h25c4 0 6 -3 5 -7l-23 -147c-1 -4 -1 -8 -2 -13l-21 -107c-2 -4 -4 -6 -8 -6h-16c-4 0 -6 1 -5 7l12 106
c1 5 1 9 2 13l23 147c1 4 4 7 8 7z" />
    <glyph glyph-name="quotesingle" unicode="'" horiz-adv-x="185" 
d="M147 736h25c4 0 6 -3 5 -7l-23 -147c-1 -4 -1 -8 -2 -13l-21 -107c-2 -4 -4 -6 -9 -6h-15c-4 0 -6 1 -5 7l11 106c1 5 1 9 2 13l24 147c1 4 3 7 8 7z" />
    <glyph glyph-name="semicolon" unicode=";" horiz-adv-x="241" 
d="M163 538c19 0 27 -10 24 -29s-15 -30 -34 -30c-18 0 -27 11 -24 30c2 19 15 29 34 29zM85 99h30c4 0 5 -2 5 -5v-9c0 -4 -3 -8 -5 -12l-121 -207c-2 -3 -5 -4 -8 -2l-9 4c-3 1 -3 5 -2 8l104 219c1 3 2 4 6 4z" />
    <glyph glyph-name="slash" unicode="/" horiz-adv-x="435" 
d="M450 762h23c4 0 5 -3 1 -7l-459 -773c-4 -6 -7 -7 -11 -7h-23c-4 0 -4 2 -1 7l459 773c5 6 7 7 11 7z" />
    <glyph glyph-name="underscore" unicode="_" horiz-adv-x="495" 
d="M-48 -40h482c4 0 6 -3 5 -7l-3 -19c0 -4 -3 -7 -7 -7h-482c-4 0 -7 3 -6 7l3 19c1 4 4 7 8 7z" />
    <glyph glyph-name="asterisk.alt" horiz-adv-x="435" 
d="M277 765h18c6 0 9 -5 8 -12l-23 -116c-1 -7 -6 -11 -12 -11h-8c-6 0 -10 4 -9 11l14 116c1 7 6 12 12 12zM132 665l102 -40c5 -2 7 -8 5 -13l-3 -8c-3 -6 -10 -8 -15 -6l-107 31c-7 2 -9 8 -6 13l8 17c3 6 9 9 16 6zM295 625l114 40c7 3 14 0 15 -5l2 -17
c1 -7 -4 -12 -11 -14l-116 -31c-7 -2 -12 0 -13 6l-1 8c-1 5 2 11 10 13zM239 582l6 -5c4 -4 4 -9 -1 -15l-79 -97c-5 -5 -12 -7 -17 -3l-12 11c-5 3 -4 10 1 15l87 91c4 6 10 7 15 3zM269 577l6 5c6 4 11 3 15 -3l57 -91c3 -5 2 -12 -3 -15l-17 -11c-7 -5 -11 -2 -14 3
l-49 97c-4 6 -1 11 5 15z" />
    <glyph glyph-name="numbersign.alt" horiz-adv-x="719" 
d="M626 710h16c7 0 10 -7 7 -13l-63 -150h129c9 0 9 -7 8 -12l-3 -16c-1 -6 -7 -10 -12 -10h-138l-124 -290h130c9 0 9 -7 7 -13l-2 -15c-1 -7 -8 -10 -13 -10h-138l-75 -172c-3 -5 -6 -9 -12 -9h-17c-7 0 -10 7 -7 13l73 168h-197l-74 -172c-4 -5 -7 -9 -13 -9h-16
c-7 0 -10 7 -8 13l73 168h-135c-9 0 -9 7 -8 12l2 16c1 6 8 10 14 10h143l124 290h-135c-9 0 -9 7 -9 12l3 16c1 6 8 10 13 10h143l67 154c2 5 6 9 12 9h16c8 0 10 -7 8 -13l-64 -150h195l67 154c3 5 7 9 13 9zM531 509h-196l-123 -290h196z" />
    <glyph glyph-name="periodcentered.case" horiz-adv-x="216" 
d="M121 396c20 0 27 -11 25 -29c-4 -20 -16 -30 -34 -30c-19 0 -28 10 -25 30c3 18 16 29 34 29z" />
    <glyph glyph-name="bullet.case" horiz-adv-x="560" 
d="M302 452c59 0 88 -32 80 -85s-48 -85 -107 -85c-60 0 -89 32 -81 85c9 53 48 85 108 85z" />
    <glyph glyph-name="exclamdown.case" horiz-adv-x="239" 
d="M188 741c19 0 27 -11 25 -30c-4 -19 -15 -29 -34 -29s-28 10 -24 29c2 19 15 30 33 30zM155 579h15c4 0 6 -3 6 -7l-19 -150c-1 -5 -1 -9 -2 -13l-63 -402c-1 -4 -4 -7 -8 -7h-25c-5 0 -7 3 -6 7l64 402c1 4 1 8 2 13l29 150c0 4 3 7 7 7z" />
    <glyph glyph-name="questiondown.case" horiz-adv-x="458" 
d="M392 741c19 0 27 -10 25 -30c-3 -18 -15 -29 -34 -29s-27 11 -24 29c2 20 15 30 33 30zM356 580h24c3 0 4 -1 4 -5l-10 -76c-6 -41 -17 -52 -77 -79l-117 -53c-65 -29 -92 -58 -105 -146l-9 -53c-20 -125 77 -135 192 -135h120c4 0 6 -3 5 -7l-2 -19c-1 -4 -4 -7 -8 -7
c-50 -3 -84 -3 -121 -3c-136 0 -250 16 -225 171l8 53c16 105 50 140 134 177l123 55c36 17 40 21 46 54l12 66c0 4 2 7 6 7z" />
    <glyph glyph-name="comma.dnom" horiz-adv-x="137" 
d="M22 56h30c2 0 3 -1 2 -3l-1 -7c0 -2 -1 -4 -2 -6l-77 -115c-1 -2 -3 -3 -5 -2l-8 4c-2 1 -2 3 -1 6l56 120c1 2 3 3 6 3z" />
    <glyph glyph-name="period.dnom" horiz-adv-x="124" 
d="M21 41c14 0 21 -7 19 -21c-2 -15 -12 -23 -26 -23s-22 8 -19 23c2 14 11 21 26 21z" />
    <glyph glyph-name="semicolon.dnom" horiz-adv-x="168" 
d="M85 289c15 0 21 -8 19 -22s-11 -22 -26 -22c-14 0 -21 8 -19 22s12 22 26 22zM38 56h29c2 0 3 -1 3 -3l-1 -8c0 -3 -1 -4 -2 -6l-77 -114c-1 -2 -3 -3 -5 -2l-8 4c-2 1 -2 3 0 6l55 120c1 2 3 3 6 3z" />
    <glyph glyph-name="comma.numr" horiz-adv-x="137" 
d="M76 397h30c2 0 2 -1 2 -3l-1 -7c0 -2 -1 -4 -2 -6l-77 -115c-1 -2 -3 -3 -5 -2l-8 4c-2 1 -2 3 0 6l55 120c0 2 3 3 6 3z" />
    <glyph glyph-name="period.numr" horiz-adv-x="124" 
d="M74 382c15 0 22 -7 20 -21c-3 -15 -12 -23 -27 -23c-14 0 -21 8 -18 23c1 14 11 21 25 21z" />
    <glyph glyph-name="semicolon.numr" horiz-adv-x="168" 
d="M140 630c15 0 21 -8 19 -22s-11 -22 -26 -22c-14 0 -21 8 -19 22s12 22 26 22zM93 397h29c2 0 3 -2 3 -4l-1 -6c0 -3 0 -4 -2 -7l-77 -114c-1 -2 -2 -3 -5 -2l-8 4c-2 1 -2 3 0 6l55 120c1 2 3 3 6 3z" />
    <glyph glyph-name="comma.subs" horiz-adv-x="137" 
d="M-7 -116h31c2 0 3 -1 2 -3l-1 -7c0 -2 -1 -4 -2 -6l-77 -115c-2 -2 -4 -3 -5 -2l-9 5c-2 1 -2 3 0 5l56 120c1 2 2 3 5 3z" />
    <glyph glyph-name="period.subs" horiz-adv-x="124" 
d="M-6 -130c14 0 21 -8 19 -22c-2 -15 -12 -23 -26 -23c-15 0 -22 8 -20 23c3 14 12 22 27 22z" />
    <glyph glyph-name="semicolon.subs" horiz-adv-x="168" 
d="M59 117c14 0 20 -8 18 -22s-11 -22 -25 -22c-15 0 -22 8 -20 22s12 22 27 22zM10 -116h28c3 0 4 -1 4 -4v-6c0 -2 0 -4 -2 -7l-77 -114c-2 -2 -3 -3 -5 -2l-9 5c-2 1 -2 3 0 5l56 120c1 2 2 3 5 3z" />
    <glyph glyph-name="comma.sups" horiz-adv-x="137" 
d="M98 540h31c2 0 3 -1 2 -4l-1 -7c0 -2 -1 -4 -3 -6l-76 -115c-2 -2 -4 -3 -5 -2l-9 5c-2 1 -2 3 0 6l55 120c1 2 3 3 6 3z" />
    </font>
</defs>
</svg>
