<?xml version="1.0" standalone="no"?>
<!DOCTYPE svg PUBLIC "-//W3C//DTD SVG 1.1//EN" "http://www.w3.org/Graphics/SVG/1.1/DTD/svg11.dtd" >
<svg xmlns="http://www.w3.org/2000/svg" xmlns:xlink="http://www.w3.org/1999/xlink" version="1.1">
<metadata>
Created by FontForge 20160407 at Wed Jun 29 19:31:26 2016
 By Jimmy Wärting
Please contact us to learn more about license restrictions.
</metadata>
<defs>
<font id="UniviaProBlack" horiz-adv-x="677" >
  <font-face 
    font-family="Univia Pro Black"
    font-weight="800"
    font-stretch="normal"
    units-per-em="1000"
    panose-1="0 0 9 0 0 0 0 0 0 0"
    ascent="800"
    descent="-200"
    x-height="567"
    cap-height="783"
    bbox="-155.819 -292 1426.82 1203.39"
    underline-thickness="50"
    underline-position="-100"
    stemh="150"
    stemv="174"
    unicode-range="U+0020-1F603"
  />
<missing-glyph horiz-adv-x="452" 
d="M80 783h505c10 0 15 -6 15 -16v-751c0 -11 -5 -16 -15 -16h-505c-10 0 -15 5 -15 16v751c0 10 5 16 15 16zM321 629c-52 0 -88 -3 -120 -9c-9 -2 -13 -6 -13 -15v-45c0 -7 3 -10 10 -10h123c54 0 87 -3 87 -50v-24c0 -34 -12 -47 -36 -59l-81 -39
c-40 -23 -46 -36 -42 -68l4 -37c0 -3 3 -6 7 -6h57c4 0 7 3 7 7l1 13c1 19 11 24 35 36l67 32c52 25 71 49 71 119v37c0 105 -82 118 -177 118zM288 218c-33 0 -51 -17 -51 -48c0 -30 18 -47 51 -47c32 0 50 17 50 47c0 31 -18 48 -50 48z" />
    <glyph glyph-name="f_b" unicode="fb" horiz-adv-x="1030" 
d="M763 572c178 0 230 -67 230 -289c0 -227 -52 -288 -273 -288c-65 0 -147 8 -226 21c-15 2 -24 11 -24 29v592l-153 1c-30 0 -46 -6 -46 -32v-41h108c11 0 14 -4 12 -17l-19 -101c-2 -11 -8 -16 -18 -16h-83v-415c0 -11 -5 -16 -15 -16h-145c-10 0 -15 5 -15 16v415h-62
c-11 0 -17 5 -17 16v103c0 10 6 15 17 15h62v70c0 133 77 153 251 153c45 0 188 -6 283 -15c10 -1 15 -5 15 -15v-192c40 4 78 6 118 6zM724 145c90 0 94 39 94 138c0 115 -12 138 -102 138h-71v-269c25 -5 63 -7 79 -7z" />
    <glyph glyph-name="f_f" unicode="ff" horiz-adv-x="826" 
d="M822 777c11 -2 17 -7 17 -21v-102c0 -11 -6 -16 -18 -16h-90c-30 0 -43 -6 -43 -32v-41h119c11 0 14 -4 12 -17l-19 -101c-2 -11 -8 -16 -18 -16h-94v-415c0 -11 -5 -16 -15 -16h-144c-10 0 -15 5 -15 16v415h-243v-415c0 -11 -5 -16 -15 -16h-145c-10 0 -15 5 -15 16
v415h-62c-11 0 -17 5 -17 16v103c0 10 6 15 17 15h62v70c0 133 83 153 190 153c32 0 75 -3 118 -11c11 -2 17 -7 17 -21v-102c0 -11 -6 -16 -17 -16h-91c-30 0 -42 -6 -42 -32v-41h243v70c0 133 83 153 190 153c32 0 74 -3 118 -11z" />
    <glyph glyph-name="f_f_b" unicode="ffb" horiz-adv-x="1448" 
d="M1182 572c178 0 229 -67 229 -289c0 -227 -52 -288 -272 -288c-66 0 -148 8 -227 21c-14 2 -23 11 -23 29v592l-154 1c-30 0 -46 -6 -46 -32v-41h108c12 0 14 -4 12 -17l-19 -101c-2 -11 -8 -16 -17 -16h-84v-415c0 -11 -5 -16 -15 -16h-144c-10 0 -15 5 -15 16v415h-244
v-415c0 -11 -5 -16 -15 -16h-145c-10 0 -15 5 -15 16v415h-62c-11 0 -17 5 -17 16v103c0 10 6 15 17 15h62v70c0 133 83 153 190 153c32 0 74 -3 118 -11c11 -2 17 -7 17 -21v-102c0 -11 -6 -16 -18 -16h-90c-30 0 -42 -6 -42 -32v-41h244v70c0 133 77 153 250 153
c45 0 189 -6 283 -15c10 -1 15 -5 15 -15v-192c40 4 78 6 119 6zM1143 145c89 0 94 39 94 138c0 115 -13 138 -102 138h-72v-269c26 -5 63 -7 80 -7z" />
    <glyph glyph-name="f_f_i" unicode="ffi" horiz-adv-x="1128" 
d="M987 812c64 0 101 -34 101 -91c0 -58 -37 -92 -101 -92s-101 34 -101 92c0 57 37 91 101 91zM704 788c30 0 56 -3 100 -11c12 -2 17 -7 17 -21v-102c0 -11 -5 -16 -17 -16h-73c-30 0 -43 -6 -43 -32v-41h371c10 0 15 -6 15 -16v-533c0 -11 -5 -16 -15 -16h-145
c-10 0 -15 5 -15 16v415h-211v-415c0 -11 -5 -16 -15 -16h-144c-10 0 -15 5 -15 16v415h-243v-415c0 -11 -5 -16 -15 -16h-145c-10 0 -15 5 -15 16v415h-62c-11 0 -17 5 -17 16v103c0 10 6 15 17 15h62v70c0 133 83 153 190 153c32 0 60 -3 104 -11c11 -2 17 -7 17 -21v-102
c0 -11 -6 -16 -18 -16h-76c-30 0 -42 -6 -42 -32v-41h243v70c0 133 83 153 190 153z" />
    <glyph glyph-name="f_f_j" unicode="ffj" horiz-adv-x="1126" 
d="M986 812c63 0 100 -34 100 -91c0 -58 -37 -92 -100 -92c-64 0 -102 34 -102 92c0 57 38 91 102 91zM704 788c25 0 64 -5 99 -11c12 -2 17 -7 17 -21v-102c0 -11 -6 -16 -17 -16h-72c-30 0 -43 -6 -43 -32v-41h369c10 0 15 -6 15 -16v-612c0 -126 -56 -146 -157 -146
c-27 0 -81 6 -95 10c-12 4 -17 7 -17 21v104c0 11 6 15 17 15h26c43 0 52 6 52 47v443h-210v-415c0 -11 -5 -16 -15 -16h-144c-10 0 -15 5 -15 16v415h-243v-415c0 -11 -5 -16 -15 -16h-145c-10 0 -15 5 -15 16v415h-62c-11 0 -17 5 -17 16v103c0 10 6 15 17 15h62v70
c0 133 83 153 190 153c26 0 67 -5 103 -11c11 -2 16 -7 16 -21v-102c0 -11 -5 -16 -17 -16h-75c-30 0 -42 -6 -42 -32v-41h243v70c0 133 83 153 190 153z" />
    <glyph glyph-name="f_f_k" unicode="ffk" horiz-adv-x="1418" 
d="M1233 343l189 -316c7 -13 10 -27 -17 -27h-154c-10 0 -17 4 -22 11l-167 293v-288c0 -11 -5 -16 -15 -16h-144c-10 0 -15 5 -15 16v621l-154 1c-30 0 -46 -6 -46 -32v-41h108c11 0 14 -4 12 -17l-19 -101c-2 -11 -8 -16 -18 -16h-83v-415c0 -11 -5 -16 -15 -16h-145
c-10 0 -15 5 -15 16v415h-242v-415c0 -11 -5 -16 -15 -16h-145c-10 0 -15 5 -15 16v415h-62c-11 0 -17 5 -17 16v103c0 10 6 15 17 15h62v70c0 133 83 153 190 153c32 0 74 -3 118 -11c11 -2 17 -7 17 -21v-102c0 -11 -6 -16 -18 -16h-90c-30 0 -42 -6 -42 -32v-41h242v70
c0 133 78 153 251 153c45 0 189 -6 283 -15c10 -1 15 -5 15 -15v-383l133 182c5 6 12 10 21 10h160c18 0 18 -8 9 -19z" />
    <glyph glyph-name="f_f_l" unicode="ffl" horiz-adv-x="1117" 
d="M1048 773c10 -1 15 -5 15 -15v-742c0 -11 -5 -16 -15 -16h-145c-10 0 -15 5 -15 16v621l-153 1c-30 0 -47 -6 -47 -32v-41h99c11 0 14 -4 12 -17l-19 -101c-2 -11 -8 -16 -18 -16h-74v-415c0 -11 -5 -16 -15 -16h-144c-10 0 -15 5 -15 16v415h-243v-415
c0 -11 -5 -16 -15 -16h-145c-10 0 -15 5 -15 16v415h-62c-11 0 -17 5 -17 16v103c0 10 6 15 17 15h62v70c0 133 83 153 190 153c32 0 69 -3 112 -11c11 -2 17 -7 17 -21v-102c0 -11 -6 -16 -17 -16h-85c-30 0 -42 -6 -42 -32v-41h243v70c0 133 77 153 251 153
c45 0 188 -6 283 -15z" />
    <glyph glyph-name="f_j" unicode="fj" horiz-adv-x="709" 
d="M568 812c64 0 101 -34 101 -91c0 -58 -37 -92 -101 -92s-101 34 -101 92c0 57 37 91 101 91zM286 788c26 0 65 -5 100 -11c11 -2 17 -7 17 -21v-102c0 -11 -6 -16 -17 -16h-73c-30 0 -42 -6 -42 -32v-41h369c10 0 15 -6 15 -16v-612c0 -126 -57 -146 -157 -146
c-28 0 -82 6 -96 10c-12 4 -17 7 -17 21v104c0 11 6 15 17 15h26c44 0 52 6 52 47v443h-209v-415c0 -11 -5 -16 -15 -16h-145c-10 0 -15 5 -15 16v415h-62c-11 0 -17 5 -17 16v103c0 10 6 15 17 15h62v70c0 133 83 153 190 153z" />
    <glyph glyph-name="f_k" unicode="fk" horiz-adv-x="1001" 
d="M816 343l189 -316c7 -13 10 -27 -17 -27h-154c-10 0 -18 4 -22 11l-167 293v-288c0 -11 -5 -16 -15 -16h-145c-10 0 -15 5 -15 16v621l-153 1c-30 0 -46 -6 -46 -32v-41h107c12 0 15 -4 13 -17l-19 -101c-2 -11 -8 -16 -18 -16h-83v-415c0 -11 -5 -16 -15 -16h-145
c-10 0 -15 5 -15 16v415h-62c-11 0 -17 5 -17 16v103c0 10 6 15 17 15h62v70c0 133 77 153 251 153c45 0 188 -6 283 -15c10 -1 15 -5 15 -15v-383l133 182c5 6 12 10 21 10h160c18 0 17 -8 9 -19z" />
    <glyph glyph-name="fi" unicode="fi" horiz-adv-x="710" 
d="M569 812c64 0 101 -34 101 -91c0 -58 -37 -92 -101 -92s-101 34 -101 92c0 57 37 91 101 91zM286 788c24 0 54 -4 91 -11c11 -2 17 -7 17 -21v-102c0 -11 -6 -16 -17 -16h-64c-30 0 -42 -6 -42 -32v-41h370c10 0 15 -6 15 -16v-533c0 -11 -5 -16 -15 -16h-145
c-10 0 -15 5 -15 16v415h-210v-415c0 -11 -5 -16 -15 -16h-145c-10 0 -15 5 -15 16v415h-62c-11 0 -17 5 -17 16v103c0 10 6 15 17 15h62v70c0 133 83 153 190 153z" />
    <glyph glyph-name="fl" unicode="fl" horiz-adv-x="699" 
d="M630 773c10 -1 15 -5 15 -15v-742c0 -11 -5 -16 -15 -16h-145c-10 0 -15 5 -15 16v621l-153 1c-30 0 -46 -6 -46 -32v-41h107c12 0 15 -4 13 -17l-19 -101c-2 -11 -8 -16 -18 -16h-83v-415c0 -11 -5 -16 -15 -16h-145c-10 0 -15 5 -15 16v415h-62c-11 0 -17 5 -17 16v103
c0 10 6 15 17 15h62v70c0 133 77 153 251 153c45 0 188 -6 283 -15z" />
    <glyph glyph-name=".notdef" horiz-adv-x="452" 
d="M80 783h505c10 0 15 -6 15 -16v-751c0 -11 -5 -16 -15 -16h-505c-10 0 -15 5 -15 16v751c0 10 5 16 15 16zM321 629c-52 0 -88 -3 -120 -9c-9 -2 -13 -6 -13 -15v-45c0 -7 3 -10 10 -10h123c54 0 87 -3 87 -50v-24c0 -34 -12 -47 -36 -59l-81 -39
c-40 -23 -46 -36 -42 -68l4 -37c0 -3 3 -6 7 -6h57c4 0 7 3 7 7l1 13c1 19 11 24 35 36l67 32c52 25 71 49 71 119v37c0 105 -82 118 -177 118zM288 218c-33 0 -51 -17 -51 -48c0 -30 18 -47 51 -47c32 0 50 17 50 47c0 31 -18 48 -50 48z" />
    <glyph glyph-name="A" unicode="A" horiz-adv-x="727" 
d="M363 789c130 0 151 -10 182 -121l178 -652c2 -11 -3 -16 -13 -16h-153c-9 0 -11 5 -14 16l-54 202h-251l-56 -202c-3 -11 -4 -16 -13 -16h-153c-10 0 -15 5 -13 16l179 652c31 112 53 121 181 121zM362 635c-11 0 -12 -3 -16 -16l-67 -250h169l-68 250
c-4 13 -5 16 -18 16z" />
    <glyph glyph-name="Aacute" unicode="&#xc1;" horiz-adv-x="727" 
d="M372 1009h174c6 0 10 -3 10 -10v-7c0 -5 -3 -10 -5 -12l-192 -157c-5 -4 -9 -3 -14 0l-55 31c-5 3 -6 9 -3 14l73 135c2 4 6 6 12 6zM363 789c130 0 151 -10 182 -121l178 -652c2 -11 -3 -16 -13 -16h-153c-9 0 -11 5 -14 16l-54 202h-251l-56 -202
c-3 -11 -4 -16 -13 -16h-153c-10 0 -15 5 -13 16l179 652c31 112 53 121 181 121zM362 635c-11 0 -12 -3 -16 -16l-67 -250h169l-68 250c-4 13 -5 16 -18 16z" />
    <glyph glyph-name="Abreve" unicode="&#x102;" horiz-adv-x="727" 
d="M462 995h72c10 0 16 -4 14 -15c-14 -107 -62 -144 -185 -144s-171 36 -185 143c-2 11 3 16 14 16h71c9 0 14 -3 17 -12c15 -36 38 -48 83 -48s67 12 82 48c4 9 9 12 17 12zM363 789c130 0 151 -10 182 -121l178 -652c2 -11 -3 -16 -13 -16h-153c-9 0 -11 5 -14 16
l-54 202h-251l-56 -202c-3 -11 -4 -16 -13 -16h-153c-10 0 -15 5 -13 16l179 652c31 112 53 121 181 121zM362 635c-11 0 -12 -3 -16 -16l-67 -250h169l-68 250c-4 13 -5 16 -18 16z" />
    <glyph glyph-name="Acaron" unicode="&#x1cd;" horiz-adv-x="727" 
d="M495 1006l38 -19c8 -4 9 -10 4 -17l-100 -139c-4 -6 -8 -10 -21 -10h-107c-13 0 -17 4 -21 10l-100 139c-5 7 -4 13 4 17l38 19c7 4 12 5 19 0l114 -76l113 76c7 5 12 4 19 0zM363 789c130 0 151 -10 182 -121l178 -652c2 -11 -3 -16 -13 -16h-153c-9 0 -11 5 -14 16
l-54 202h-251l-56 -202c-3 -11 -4 -16 -13 -16h-153c-10 0 -15 5 -13 16l179 652c31 112 53 121 181 121zM362 635c-11 0 -13 -3 -16 -16l-68 -250h170l-69 250c-3 13 -4 16 -17 16z" />
    <glyph glyph-name="Acircumflex" unicode="&#xc2;" horiz-adv-x="727" 
d="M309 1009h107c13 0 17 -4 21 -9l100 -140c5 -6 4 -13 -4 -17l-38 -19c-7 -4 -12 -5 -19 0l-113 76l-114 -76c-7 -5 -12 -4 -19 0l-38 19c-8 4 -9 11 -4 17l100 140c4 5 8 9 21 9zM363 789c130 0 151 -10 182 -121l178 -652c2 -11 -3 -16 -13 -16h-153c-9 0 -11 5 -14 16
l-54 202h-251l-56 -202c-3 -11 -4 -16 -13 -16h-153c-10 0 -15 5 -13 16l179 652c31 112 53 121 181 121zM362 635c-11 0 -12 -3 -16 -16l-67 -250h169l-68 250c-4 13 -5 16 -18 16z" />
    <glyph glyph-name="Adieresis" unicode="&#xc4;" horiz-adv-x="727" 
d="M244 994c55 0 85 -30 85 -79c0 -51 -30 -81 -85 -81c-56 0 -86 30 -86 81c0 49 30 79 86 79zM482 994c56 0 85 -30 85 -79c0 -51 -29 -81 -85 -81s-86 30 -86 81c0 49 30 79 86 79zM363 789c130 0 151 -10 182 -121l178 -652c2 -11 -3 -16 -13 -16h-153
c-9 0 -11 5 -14 16l-54 202h-251l-56 -202c-3 -11 -4 -16 -13 -16h-153c-10 0 -15 5 -13 16l179 652c31 112 53 121 181 121zM362 635c-11 0 -12 -3 -16 -16l-67 -250h169l-68 250c-4 13 -5 16 -18 16z" />
    <glyph glyph-name="Agrave" unicode="&#xc0;" horiz-adv-x="727" 
d="M162 1009h173c6 0 10 -2 12 -6l73 -135c3 -5 2 -11 -3 -14l-54 -31c-6 -3 -9 -4 -14 0l-192 157c-3 2 -5 7 -5 12v7c0 7 4 10 10 10zM363 789c130 0 151 -10 182 -121l178 -652c2 -11 -3 -16 -13 -16h-153c-9 0 -11 5 -14 16l-54 202h-251l-56 -202
c-3 -11 -4 -16 -13 -16h-153c-10 0 -15 5 -13 16l179 652c31 112 53 121 181 121zM362 635c-11 0 -12 -3 -16 -16l-67 -250h169l-68 250c-4 13 -5 16 -18 16z" />
    <glyph glyph-name="Amacron" unicode="&#x100;" horiz-adv-x="727" 
d="M210 956h306c10 0 15 -5 15 -15v-71c0 -10 -5 -15 -15 -15h-306c-10 0 -15 5 -15 15v71c0 10 5 15 15 15zM363 789c130 0 151 -10 182 -121l178 -652c2 -11 -3 -16 -13 -16h-153c-9 0 -11 5 -14 16l-54 202h-251l-56 -202c-3 -11 -4 -16 -13 -16h-153c-10 0 -15 5 -13 16
l179 652c31 112 53 121 181 121zM362 635c-11 0 -12 -3 -16 -16l-67 -250h169l-68 250c-4 13 -5 16 -18 16z" />
    <glyph glyph-name="Aogonek" unicode="&#x104;" horiz-adv-x="727" 
d="M363 789c130 0 151 -10 182 -121l178 -652c2 -11 -3 -16 -13 -16h-81c-3 -18 -5 -34 -5 -45c0 -25 25 -24 60 -24h35c10 0 13 -3 13 -13v-74c0 -9 -4 -15 -12 -18c-12 -5 -68 -8 -89 -8c-76 0 -112 26 -112 78c0 38 11 82 25 119l-55 203h-251l-56 -202
c-3 -11 -4 -16 -13 -16h-153c-10 0 -15 5 -13 16l179 652c31 112 53 121 181 121zM362 635c-11 0 -12 -3 -16 -16l-67 -250h169l-68 250c-4 13 -5 16 -18 16z" />
    <glyph glyph-name="Aring" unicode="&#xc5;" horiz-adv-x="727" 
d="M363 1051c80 0 122 -39 122 -117s-42 -118 -122 -118s-122 40 -122 118s42 117 122 117zM363 996c-41 0 -62 -21 -62 -62s21 -62 62 -62s62 21 62 62s-21 62 -62 62zM363 789c130 0 151 -10 182 -121l178 -652c2 -11 -3 -16 -13 -16h-153c-9 0 -11 5 -14 16l-54 202h-251
l-56 -202c-3 -11 -4 -16 -13 -16h-153c-10 0 -15 5 -13 16l179 652c31 112 53 121 181 121zM362 635c-11 0 -12 -3 -16 -16l-67 -250h169l-68 250c-4 13 -5 16 -18 16z" />
    <glyph glyph-name="Aringacute" unicode="&#x1fa;" horiz-adv-x="727" 
d="M379 1159h174c6 0 10 -3 10 -10v-7c0 -5 -3 -10 -5 -12l-138 -88c43 -16 65 -52 65 -108c0 -78 -42 -118 -122 -118s-122 40 -122 118c0 57 23 94 67 109l59 110c2 4 6 6 12 6zM363 996c-41 0 -62 -21 -62 -62s21 -62 62 -62s62 21 62 62s-21 62 -62 62zM363 789
c130 0 151 -10 182 -121l178 -652c2 -11 -3 -16 -13 -16h-153c-9 0 -11 5 -14 16l-54 202h-251l-56 -202c-3 -11 -4 -16 -13 -16h-153c-10 0 -15 5 -13 16l179 652c31 112 53 121 181 121zM362 635c-11 0 -12 -3 -16 -16l-67 -250h169l-68 250c-4 13 -5 16 -18 16z" />
    <glyph glyph-name="Atilde" unicode="&#xc3;" horiz-adv-x="727" 
d="M282 994c55 0 115 -39 147 -39c21 0 32 8 43 33c5 10 10 12 19 9l53 -14c9 -3 12 -9 10 -20c-23 -97 -49 -125 -111 -125c-55 0 -115 39 -147 39c-21 0 -32 -8 -43 -33c-5 -10 -10 -13 -19 -10l-53 15c-8 3 -12 9 -10 20c23 97 49 125 111 125zM363 789
c130 0 151 -10 182 -121l178 -652c2 -11 -3 -16 -13 -16h-153c-9 0 -11 5 -14 16l-54 202h-251l-56 -202c-3 -11 -4 -16 -13 -16h-153c-10 0 -15 5 -13 16l179 652c31 112 53 121 181 121zM362 635c-11 0 -12 -3 -16 -16l-67 -250h169l-68 250c-4 13 -5 16 -18 16z" />
    <glyph glyph-name="AE" unicode="&#xc6;" horiz-adv-x="1051" 
d="M363 789l298 -6h331c10 0 15 -5 15 -15v-131c0 -10 -5 -15 -15 -15h-336v-156h307c10 0 16 -5 16 -15v-124c0 -10 -6 -15 -16 -15h-307v-151h336c10 0 15 -5 15 -15v-131c0 -10 -5 -15 -15 -15h-506c-10 0 -15 5 -15 16v202h-233l-55 -202c-3 -11 -5 -16 -14 -16h-153
c-10 0 -15 5 -13 16l180 652c30 112 53 121 180 121zM471 635h-85c-29 0 -39 -9 -46 -36l-61 -230h192v266z" />
    <glyph glyph-name="AEacute" unicode="&#x1fc;" horiz-adv-x="1051" 
d="M594 1009h174c6 0 10 -3 10 -10v-7c0 -5 -3 -10 -5 -12l-192 -157c-5 -4 -8 -3 -14 0l-55 31c-5 3 -6 9 -3 14l73 135c2 4 6 6 12 6zM363 789l298 -6h331c10 0 15 -5 15 -15v-131c0 -10 -5 -15 -15 -15h-336v-156h307c10 0 16 -5 16 -15v-124c0 -10 -6 -15 -16 -15h-307
v-151h336c10 0 15 -5 15 -15v-131c0 -10 -5 -15 -15 -15h-506c-10 0 -15 5 -15 16v202h-233l-55 -202c-3 -11 -5 -16 -14 -16h-153c-10 0 -15 5 -13 16l180 652c30 112 53 121 180 121zM471 635h-85c-29 0 -39 -9 -46 -36l-61 -230h192v266z" />
    <glyph glyph-name="B" unicode="B" horiz-adv-x="709" 
d="M372 789c205 0 284 -58 284 -217c0 -115 -33 -164 -124 -179v-3c106 -10 141 -63 141 -179c0 -161 -79 -216 -282 -216c-94 0 -212 4 -310 12c-12 1 -15 4 -15 14v742c0 10 3 13 15 14c98 8 196 12 291 12zM352 628h-101v-171h92c93 0 125 17 125 84c0 66 -32 87 -116 87
zM375 328h-124v-172h123c80 0 111 20 111 83c0 67 -33 89 -110 89z" />
    <glyph glyph-name="C" unicode="C" horiz-adv-x="632" 
d="M372 789c98 0 153 -7 202 -18c17 -5 26 -11 26 -31v-97c0 -10 -5 -15 -15 -15h-213c-121 0 -143 -56 -143 -235s22 -237 143 -237h213c10 0 15 -5 15 -15v-97c0 -20 -9 -27 -26 -31c-49 -12 -104 -18 -202 -18c-261 0 -330 91 -330 398s69 396 330 396z" />
    <glyph glyph-name="Cacute" unicode="&#x106;" horiz-adv-x="632" 
d="M335 1009h173c6 0 10 -3 10 -10v-7c0 -5 -3 -10 -5 -12l-192 -157c-5 -4 -8 -3 -14 0l-54 31c-5 3 -6 9 -3 14l73 135c2 4 6 6 12 6zM372 789c98 0 153 -7 202 -18c17 -5 26 -11 26 -31v-97c0 -10 -5 -15 -15 -15h-213c-121 0 -143 -56 -143 -235s22 -237 143 -237h213
c10 0 15 -5 15 -15v-97c0 -20 -9 -27 -26 -31c-49 -12 -104 -18 -202 -18c-261 0 -330 91 -330 398s69 396 330 396z" />
    <glyph glyph-name="Ccaron" unicode="&#x10c;" horiz-adv-x="632" 
d="M449 1006l38 -19c8 -4 10 -10 4 -17l-100 -139c-3 -6 -7 -10 -21 -10h-106c-14 0 -18 4 -22 10l-100 139c-5 7 -4 13 4 17l38 19c7 4 12 5 19 0l114 -76l113 76c7 5 13 4 19 0zM372 789c98 0 153 -7 202 -18c17 -5 26 -11 26 -31v-97c0 -10 -5 -15 -15 -15h-213
c-121 0 -143 -56 -143 -235s22 -237 143 -237h213c10 0 15 -5 15 -15v-97c0 -20 -9 -27 -26 -31c-49 -12 -104 -18 -202 -18c-261 0 -330 91 -330 398s69 396 330 396z" />
    <glyph glyph-name="Ccedilla" unicode="&#xc7;" horiz-adv-x="632" 
d="M585 628h-213c-121 0 -143 -56 -143 -235s22 -237 143 -237h213c10 0 15 -5 15 -15v-97c0 -20 -9 -27 -26 -31c-44 -11 -93 -17 -173 -18c10 -32 18 -69 18 -99c0 -52 -36 -78 -112 -78c-21 0 -78 3 -90 8c-8 3 -12 9 -12 18v74c0 10 4 13 14 13h35c35 0 59 -1 59 24
c0 10 -1 26 -4 42c-209 15 -267 115 -267 396c0 307 69 396 330 396c98 0 153 -7 202 -18c17 -5 26 -11 26 -31v-97c0 -10 -5 -15 -15 -15z" />
    <glyph glyph-name="Ccircumflex" unicode="&#x108;" horiz-adv-x="632" 
d="M302 1009h106c14 0 18 -4 22 -9l99 -140c6 -6 5 -13 -3 -17l-38 -19c-7 -4 -12 -5 -19 0l-113 76l-115 -76c-6 -5 -12 -4 -18 0l-38 19c-8 4 -10 11 -4 17l100 140c3 5 7 9 21 9zM372 789c98 0 153 -7 202 -18c17 -5 26 -11 26 -31v-97c0 -10 -5 -15 -15 -15h-213
c-121 0 -143 -56 -143 -235s22 -237 143 -237h213c10 0 15 -5 15 -15v-97c0 -20 -9 -27 -26 -31c-49 -12 -104 -18 -202 -18c-261 0 -330 91 -330 398s69 396 330 396z" />
    <glyph glyph-name="Cdotaccent" unicode="&#x10a;" horiz-adv-x="632" 
d="M363 998c61 0 93 -30 93 -83c0 -55 -32 -85 -93 -85c-60 0 -93 30 -93 85c0 53 33 83 93 83zM372 789c98 0 153 -7 202 -18c17 -5 26 -11 26 -31v-97c0 -10 -5 -15 -15 -15h-213c-121 0 -143 -56 -143 -235s22 -237 143 -237h213c10 0 15 -5 15 -15v-97
c0 -20 -9 -27 -26 -31c-49 -12 -104 -18 -202 -18c-261 0 -330 91 -330 398s69 396 330 396z" />
    <glyph glyph-name="D" unicode="D" horiz-adv-x="749" 
d="M378 789c240 0 331 -118 331 -399c0 -278 -91 -395 -331 -395c-102 0 -199 4 -297 12c-12 1 -15 3 -15 12v744c0 10 3 13 15 14c98 8 195 12 297 12zM375 628h-124v-472h127c106 0 144 70 144 234c0 166 -39 238 -147 238z" />
    <glyph glyph-name="Eth" unicode="&#xd0;" horiz-adv-x="764" 
d="M393 789c240 0 331 -118 331 -399c0 -278 -91 -395 -331 -395c-101 0 -199 4 -297 12c-12 1 -15 3 -15 12v312h-64c-10 0 -15 5 -15 15v71c0 10 5 15 15 15h64v331c0 10 3 13 15 14c98 8 196 12 297 12zM266 156h127c106 0 144 70 144 234c0 166 -38 238 -147 238h-124
v-196h115c10 0 15 -5 15 -15v-71c0 -10 -5 -15 -15 -15h-115v-175z" />
    <glyph glyph-name="Dcaron" unicode="&#x10e;" horiz-adv-x="749" 
d="M480 1006l38 -19c8 -4 10 -10 4 -17l-100 -139c-3 -6 -7 -10 -21 -10h-106c-14 0 -18 4 -22 10l-99 139c-6 7 -5 13 3 17l38 19c7 4 12 5 19 0l114 -76l114 76c6 5 12 4 18 0zM378 789c240 0 331 -118 331 -399c0 -278 -91 -395 -331 -395c-102 0 -199 4 -297 12
c-12 1 -15 3 -15 12v744c0 10 3 13 15 14c98 8 195 12 297 12zM375 628h-124v-472h127c106 0 144 70 144 234c0 166 -39 238 -147 238z" />
    <glyph glyph-name="Dcroat" unicode="&#x110;" horiz-adv-x="764" 
d="M393 789c240 0 331 -118 331 -399c0 -278 -91 -395 -331 -395c-101 0 -199 4 -297 12c-12 1 -15 3 -15 12v312h-64c-10 0 -15 5 -15 15v71c0 10 5 15 15 15h64v331c0 10 3 13 15 14c98 8 196 12 297 12zM266 156h127c106 0 144 70 144 234c0 166 -38 238 -147 238h-124
v-196h115c10 0 15 -5 15 -15v-71c0 -10 -5 -15 -15 -15h-115v-175z" />
    <glyph glyph-name="E" unicode="E" horiz-adv-x="659" 
d="M81 783h518c10 0 16 -5 16 -15v-131c0 -10 -6 -15 -16 -15h-348v-156h319c10 0 16 -5 16 -15v-124c0 -10 -6 -15 -16 -15h-319v-151h348c10 0 16 -5 16 -15v-131c0 -10 -6 -15 -16 -15h-518c-10 0 -15 5 -15 16v751c0 10 5 16 15 16z" />
    <glyph glyph-name="Eacute" unicode="&#xc9;" horiz-adv-x="659" 
d="M334 1009h174c6 0 10 -3 10 -10v-7c0 -5 -3 -10 -5 -12l-192 -157c-5 -4 -9 -3 -14 0l-55 31c-5 3 -6 9 -3 14l73 135c2 4 6 6 12 6zM81 783h518c10 0 16 -5 16 -15v-131c0 -10 -6 -15 -16 -15h-348v-156h319c10 0 16 -5 16 -15v-124c0 -10 -6 -15 -16 -15h-319v-151h348
c10 0 16 -5 16 -15v-131c0 -10 -6 -15 -16 -15h-518c-10 0 -15 5 -15 16v751c0 10 5 16 15 16z" />
    <glyph glyph-name="Ebreve" unicode="&#x114;" horiz-adv-x="659" 
d="M442 995h71c11 0 16 -4 14 -15c-14 -107 -62 -144 -185 -144s-171 36 -185 143c-2 11 4 16 14 16h71c9 0 14 -3 17 -12c15 -36 38 -48 83 -48s67 12 83 48c3 9 8 12 17 12zM81 783h518c10 0 16 -5 16 -15v-131c0 -10 -6 -15 -16 -15h-348v-156h319c10 0 16 -5 16 -15
v-124c0 -10 -6 -15 -16 -15h-319v-151h348c10 0 16 -5 16 -15v-131c0 -10 -6 -15 -16 -15h-518c-10 0 -15 5 -15 16v751c0 10 5 16 15 16z" />
    <glyph glyph-name="Ecaron" unicode="&#x11a;" horiz-adv-x="659" 
d="M460 1006l38 -19c8 -4 9 -10 3 -17l-99 -139c-4 -6 -8 -10 -22 -10h-106c-14 0 -18 4 -21 10l-100 139c-6 7 -5 13 4 17l38 19c6 4 12 5 18 0l115 -76l113 76c6 5 12 4 19 0zM81 783h518c10 0 16 -5 16 -15v-131c0 -10 -6 -15 -16 -15h-348v-156h319c10 0 16 -5 16 -15
v-124c0 -10 -6 -15 -16 -15h-319v-151h348c10 0 16 -5 16 -15v-131c0 -10 -6 -15 -16 -15h-518c-10 0 -15 5 -15 16v751c0 10 5 16 15 16z" />
    <glyph glyph-name="Ecircumflex" unicode="&#xca;" horiz-adv-x="659" 
d="M274 1009h106c14 0 18 -4 22 -9l99 -140c6 -6 5 -13 -3 -17l-38 -19c-7 -4 -13 -5 -19 0l-113 76l-115 -76c-6 -5 -12 -4 -18 0l-38 19c-9 4 -10 11 -4 17l100 140c3 5 7 9 21 9zM81 783h518c10 0 16 -5 16 -15v-131c0 -10 -6 -15 -16 -15h-348v-156h319
c10 0 16 -5 16 -15v-124c0 -10 -6 -15 -16 -15h-319v-151h348c10 0 16 -5 16 -15v-131c0 -10 -6 -15 -16 -15h-518c-10 0 -15 5 -15 16v751c0 10 5 16 15 16z" />
    <glyph glyph-name="Edieresis" unicode="&#xcb;" horiz-adv-x="659" 
d="M208 994c56 0 85 -30 85 -79c0 -51 -29 -81 -85 -81s-86 30 -86 81c0 49 30 79 86 79zM447 994c55 0 85 -30 85 -79c0 -51 -30 -81 -85 -81c-56 0 -86 30 -86 81c0 49 30 79 86 79zM81 783h518c10 0 16 -5 16 -15v-131c0 -10 -6 -15 -16 -15h-348v-156h319
c10 0 16 -5 16 -15v-124c0 -10 -6 -15 -16 -15h-319v-151h348c10 0 16 -5 16 -15v-131c0 -10 -6 -15 -16 -15h-518c-10 0 -15 5 -15 16v751c0 10 5 16 15 16z" />
    <glyph glyph-name="Edotaccent" unicode="&#x116;" horiz-adv-x="659" 
d="M328 998c60 0 92 -30 92 -83c0 -55 -32 -85 -92 -85c-61 0 -94 30 -94 85c0 53 33 83 94 83zM81 783h518c10 0 16 -5 16 -15v-131c0 -10 -6 -15 -16 -15h-348v-156h319c10 0 16 -5 16 -15v-124c0 -10 -6 -15 -16 -15h-319v-151h348c10 0 16 -5 16 -15v-131
c0 -10 -6 -15 -16 -15h-518c-10 0 -15 5 -15 16v751c0 10 5 16 15 16z" />
    <glyph glyph-name="Egrave" unicode="&#xc8;" horiz-adv-x="659" 
d="M178 1009h174c6 0 10 -2 12 -6l73 -135c3 -5 2 -11 -3 -14l-55 -31c-6 -3 -9 -4 -14 0l-192 157c-2 2 -5 7 -5 12v7c0 7 4 10 10 10zM81 783h518c10 0 16 -5 16 -15v-131c0 -10 -6 -15 -16 -15h-348v-156h319c10 0 16 -5 16 -15v-124c0 -10 -6 -15 -16 -15h-319v-151h348
c10 0 16 -5 16 -15v-131c0 -10 -6 -15 -16 -15h-518c-10 0 -15 5 -15 16v751c0 10 5 16 15 16z" />
    <glyph glyph-name="Emacron" unicode="&#x112;" horiz-adv-x="659" 
d="M175 956h305c10 0 15 -5 15 -15v-71c0 -10 -5 -15 -15 -15h-305c-10 0 -15 5 -15 15v71c0 10 5 15 15 15zM81 783h518c10 0 16 -5 16 -15v-131c0 -10 -6 -15 -16 -15h-348v-156h319c10 0 16 -5 16 -15v-124c0 -10 -6 -15 -16 -15h-319v-151h348c10 0 16 -5 16 -15v-131
c0 -10 -6 -15 -16 -15h-518c-10 0 -15 5 -15 16v751c0 10 5 16 15 16z" />
    <glyph glyph-name="Eogonek" unicode="&#x118;" horiz-adv-x="659" 
d="M81 783h518c10 0 16 -5 16 -15v-131c0 -10 -6 -15 -16 -15h-348v-156h319c10 0 16 -5 16 -15v-124c0 -10 -6 -15 -16 -15h-319v-151h348c10 0 16 -5 16 -15v-131c0 -10 -6 -15 -16 -15h-98c-3 -18 -5 -34 -5 -45c0 -25 25 -24 60 -24h35c10 0 13 -3 13 -13v-74
c0 -9 -4 -15 -12 -18c-12 -5 -68 -8 -89 -8c-76 0 -112 26 -112 78c0 32 8 70 19 104h-329c-10 0 -15 5 -15 16v751c0 10 5 16 15 16z" />
    <glyph glyph-name="F" unicode="F" horiz-adv-x="612" 
d="M81 783h491c10 0 16 -5 16 -15v-131c0 -10 -6 -15 -16 -15h-321v-157h292c10 0 16 -5 16 -15v-123c0 -10 -6 -15 -16 -15h-292v-296c0 -11 -5 -16 -15 -16h-155c-10 0 -15 5 -15 16v751c0 10 5 16 15 16z" />
    <glyph glyph-name="G" unicode="G" horiz-adv-x="696" 
d="M372 789c68 0 175 -6 224 -18c17 -5 26 -11 26 -31v-97c0 -10 -5 -15 -15 -15h-235c-121 0 -143 -56 -143 -236c0 -179 22 -236 143 -236h111v212c0 10 5 17 15 17h143c10 0 15 -7 15 -17v-276c0 -17 -1 -21 -6 -28c-24 -40 -140 -69 -278 -69c-261 0 -330 90 -330 397
c0 308 69 397 330 397z" />
    <glyph glyph-name="Gbreve" unicode="&#x11e;" horiz-adv-x="696" 
d="M442 995h71c11 0 16 -4 14 -15c-13 -107 -62 -144 -185 -144s-171 36 -185 143c-2 11 4 16 14 16h71c9 0 14 -3 17 -12c16 -36 38 -48 83 -48s67 12 83 48c3 9 8 12 17 12zM372 789c68 0 175 -6 224 -18c17 -5 26 -11 26 -31v-97c0 -10 -5 -15 -15 -15h-235
c-121 0 -143 -56 -143 -236c0 -179 22 -236 143 -236h111v212c0 10 5 17 15 17h143c10 0 15 -7 15 -17v-276c0 -17 -1 -21 -6 -28c-24 -40 -140 -69 -278 -69c-261 0 -330 90 -330 397c0 308 69 397 330 397z" />
    <glyph glyph-name="Gcircumflex" unicode="&#x11c;" horiz-adv-x="696" 
d="M310 1009h106c14 0 18 -4 22 -9l100 -140c5 -6 4 -13 -4 -17l-38 -19c-7 -4 -12 -5 -19 0l-113 76l-114 -76c-7 -5 -12 -4 -19 0l-38 19c-8 4 -9 11 -4 17l100 140c4 5 7 9 21 9zM372 789c68 0 175 -6 224 -18c17 -5 26 -11 26 -31v-97c0 -10 -5 -15 -15 -15h-235
c-121 0 -143 -56 -143 -236c0 -179 22 -236 143 -236h111v212c0 10 5 17 15 17h143c10 0 15 -7 15 -17v-276c0 -17 -1 -21 -6 -28c-24 -40 -140 -69 -278 -69c-261 0 -330 90 -330 397c0 308 69 397 330 397z" />
    <glyph glyph-name="Gcommaaccent" unicode="&#x122;" horiz-adv-x="696" 
d="M372 789c68 0 175 -6 224 -18c17 -5 26 -11 26 -31v-97c0 -10 -5 -15 -15 -15h-235c-121 0 -143 -56 -143 -236c0 -179 22 -236 143 -236h111v212c0 10 5 17 15 17h143c10 0 15 -7 15 -17v-276c0 -17 -1 -21 -6 -28c-24 -40 -140 -69 -278 -69c-261 0 -330 90 -330 397
c0 308 69 397 330 397zM289 -40h149c6 0 10 -3 10 -10v-7c0 -5 -3 -10 -5 -12l-168 -133c-5 -4 -8 -3 -14 0l-44 26c-5 3 -6 9 -3 14l63 116c2 4 6 6 12 6z" />
    <glyph glyph-name="Gdotaccent" unicode="&#x120;" horiz-adv-x="696" 
d="M342 998c61 0 93 -30 93 -83c0 -55 -32 -85 -93 -85s-93 30 -93 85c0 53 32 83 93 83zM372 789c68 0 175 -6 224 -18c17 -5 26 -11 26 -31v-97c0 -10 -5 -15 -15 -15h-235c-121 0 -143 -56 -143 -236c0 -179 22 -236 143 -236h111v212c0 10 5 17 15 17h143
c10 0 15 -7 15 -17v-276c0 -17 -1 -21 -6 -28c-24 -40 -140 -69 -278 -69c-261 0 -330 90 -330 397c0 308 69 397 330 397z" />
    <glyph glyph-name="H" unicode="H" horiz-adv-x="795" 
d="M559 783h155c10 0 15 -6 15 -16v-750c0 -12 -5 -17 -15 -17h-155c-10 0 -15 5 -15 17v291h-293v-291c0 -12 -5 -17 -15 -17h-155c-10 0 -15 5 -15 17v750c0 10 5 16 15 16h155c10 0 15 -6 15 -16v-296h293v296c0 10 5 16 15 16z" />
    <glyph glyph-name="Hbar" unicode="&#x126;" horiz-adv-x="819" 
d="M741 681h53c10 0 15 -5 15 -15v-40c0 -10 -5 -15 -15 -15h-53v-594c0 -12 -5 -17 -15 -17h-155c-10 0 -15 5 -15 17v291h-293v-291c0 -12 -5 -17 -15 -17h-155c-10 0 -15 5 -15 17v594h-55c-10 0 -15 5 -15 15v40c0 10 5 15 15 15h55v86c0 10 5 16 15 16h155
c10 0 15 -6 15 -16v-86h293v86c0 10 5 16 15 16h155c10 0 15 -6 15 -16v-86zM556 471v140h-293v-140h293z" />
    <glyph glyph-name="Hcircumflex" unicode="&#x124;" horiz-adv-x="795" 
d="M347 1009h106c14 0 17 -4 21 -9l100 -140c6 -6 4 -13 -4 -17l-38 -19c-6 -4 -12 -5 -19 0l-113 76l-114 -76c-7 -5 -12 -4 -19 0l-38 19c-8 4 -9 11 -4 17l100 140c4 5 8 9 22 9zM559 783h155c10 0 15 -6 15 -16v-750c0 -12 -5 -17 -15 -17h-155c-10 0 -15 5 -15 17v291
h-293v-291c0 -12 -5 -17 -15 -17h-155c-10 0 -15 5 -15 17v750c0 10 5 16 15 16h155c10 0 15 -6 15 -16v-296h293v296c0 10 5 16 15 16z" />
    <glyph glyph-name="I" unicode="I" horiz-adv-x="317" 
d="M81 783h155c10 0 15 -6 15 -16v-750c0 -12 -5 -17 -15 -17h-155c-10 0 -15 5 -15 17v750c0 10 5 16 15 16z" />
    <glyph glyph-name="IJ" unicode="&#x132;" horiz-adv-x="914" 
d="M81 783h155c10 0 15 -6 15 -16v-750c0 -12 -5 -17 -15 -17h-155c-10 0 -15 5 -15 17v750c0 10 5 16 15 16zM486 783h354c10 0 15 -5 15 -15v-391c0 -295 -72 -382 -333 -382c-69 0 -116 6 -165 18c-17 4 -26 10 -26 28v100c0 10 5 15 15 15h176c122 0 148 48 148 221v245
h-184c-10 0 -16 5 -16 15v131c0 10 5 15 16 15z" />
    <glyph glyph-name="Iacute" unicode="&#xcd;" horiz-adv-x="317" 
d="M162 1009h174c6 0 10 -3 10 -10v-7c0 -5 -3 -10 -5 -12l-192 -157c-5 -4 -8 -3 -14 0l-55 31c-5 3 -6 9 -3 14l73 135c2 4 6 6 12 6zM81 783h155c10 0 15 -6 15 -16v-750c0 -12 -5 -17 -15 -17h-155c-10 0 -15 5 -15 17v750c0 10 5 16 15 16z" />
    <glyph glyph-name="Icaron" unicode="&#x1cf;" horiz-adv-x="317" 
d="M290 1006l38 -19c9 -4 10 -10 4 -17l-100 -139c-3 -6 -7 -10 -21 -10h-106c-14 0 -18 4 -22 10l-99 139c-6 7 -5 13 3 17l38 19c7 4 13 5 19 0l114 -76l114 76c6 5 12 4 18 0zM81 783h155c10 0 15 -6 15 -16v-750c0 -12 -5 -17 -15 -17h-155c-10 0 -15 5 -15 17v750
c0 10 5 16 15 16z" />
    <glyph glyph-name="Icircumflex" unicode="&#xce;" horiz-adv-x="317" 
d="M105 1009h106c14 0 18 -4 21 -9l100 -140c6 -6 4 -13 -4 -17l-38 -19c-6 -4 -12 -5 -18 0l-114 76l-114 -76c-6 -5 -12 -4 -19 0l-38 19c-8 4 -9 11 -3 17l99 140c4 5 8 9 22 9zM81 783h155c10 0 15 -6 15 -16v-750c0 -12 -5 -17 -15 -17h-155c-10 0 -15 5 -15 17v750
c0 10 5 16 15 16z" />
    <glyph glyph-name="Idieresis" unicode="&#xcf;" horiz-adv-x="317" 
d="M39 994c56 0 85 -30 85 -79c0 -51 -29 -81 -85 -81s-86 30 -86 81c0 49 30 79 86 79zM278 994c55 0 85 -30 85 -79c0 -51 -30 -81 -85 -81c-57 0 -86 30 -86 81c0 49 29 79 86 79zM81 783h155c10 0 15 -6 15 -16v-750c0 -12 -5 -17 -15 -17h-155c-10 0 -15 5 -15 17v750
c0 10 5 16 15 16z" />
    <glyph glyph-name="Idotaccent" unicode="&#x130;" horiz-adv-x="317" 
d="M158 998c60 0 93 -30 93 -83c0 -55 -33 -85 -93 -85c-61 0 -93 30 -93 85c0 53 32 83 93 83zM81 783h155c10 0 15 -6 15 -16v-750c0 -12 -5 -17 -15 -17h-155c-10 0 -15 5 -15 17v750c0 10 5 16 15 16z" />
    <glyph glyph-name="Igrave" unicode="&#xcc;" horiz-adv-x="317" 
d="M-19 1009h173c6 0 10 -2 12 -6l73 -135c3 -5 2 -11 -3 -14l-54 -31c-6 -3 -9 -4 -14 0l-192 157c-2 2 -5 7 -5 12v7c0 7 4 10 10 10zM81 783h155c10 0 15 -6 15 -16v-750c0 -12 -5 -17 -15 -17h-155c-10 0 -15 5 -15 17v750c0 10 5 16 15 16z" />
    <glyph glyph-name="Imacron" unicode="&#x12a;" horiz-adv-x="317" 
d="M5 956h306c10 0 15 -5 15 -15v-71c0 -10 -5 -15 -15 -15h-306c-10 0 -15 5 -15 15v71c0 10 5 15 15 15zM81 783h155c10 0 15 -6 15 -16v-750c0 -12 -5 -17 -15 -17h-155c-10 0 -15 5 -15 17v750c0 10 5 16 15 16z" />
    <glyph glyph-name="Iogonek" unicode="&#x12e;" horiz-adv-x="317" 
d="M81 783h155c10 0 15 -6 15 -16v-750c0 -12 -5 -17 -15 -17h-82c-3 -18 -5 -34 -5 -45c0 -25 25 -24 60 -24h35c10 0 13 -3 13 -13v-74c0 -9 -4 -15 -12 -18c-12 -5 -68 -8 -89 -8c-76 0 -112 26 -112 78c0 38 9 75 22 118v753c0 10 5 16 15 16z" />
    <glyph glyph-name="Itilde" unicode="&#x128;" horiz-adv-x="317" 
d="M77 994c56 0 115 -39 147 -39c21 0 33 8 44 33c4 10 10 12 18 9l53 -14c9 -3 12 -9 10 -20c-23 -97 -49 -125 -111 -125c-55 0 -114 39 -146 39c-21 0 -33 -8 -44 -33c-4 -10 -10 -13 -18 -10l-53 15c-9 3 -13 9 -10 20c23 97 49 125 110 125zM81 783h155
c10 0 15 -6 15 -16v-750c0 -12 -5 -17 -15 -17h-155c-10 0 -15 5 -15 17v750c0 10 5 16 15 16z" />
    <glyph glyph-name="J" unicode="J" horiz-adv-x="597" 
d="M169 783h354c10 0 15 -5 15 -15v-391c0 -295 -72 -382 -333 -382c-69 0 -116 6 -165 18c-17 4 -26 10 -26 28v100c0 10 5 15 15 15h176c122 0 148 48 148 221v245h-184c-10 0 -16 5 -16 15v131c0 10 5 15 16 15z" />
    <glyph glyph-name="Jcircumflex" unicode="&#x134;" horiz-adv-x="589" 
d="M283 1009h106c14 0 17 -4 21 -9l100 -140c5 -6 4 -13 -4 -17l-38 -19c-7 -4 -12 -5 -19 0l-113 76l-114 -76c-7 -5 -12 -4 -19 0l-38 19c-8 4 -9 11 -4 17l100 140c4 5 8 9 22 9zM161 783h354c10 0 15 -5 15 -15v-391c0 -295 -72 -382 -333 -382c-69 0 -116 6 -165 18
c-17 4 -26 10 -26 28v100c0 10 5 15 15 15h176c122 0 148 48 148 221v245h-184c-10 0 -16 5 -16 15v131c0 10 5 15 16 15z" />
    <glyph glyph-name="K" unicode="K" horiz-adv-x="708" 
d="M502 783h171c18 0 16 -8 9 -19l-242 -340l271 -397c9 -13 10 -27 -17 -27h-171c-10 0 -18 4 -22 11l-250 371v-366c0 -11 -5 -16 -15 -16h-155c-10 0 -15 5 -15 16v751c0 10 5 16 15 16h155c10 0 15 -6 15 -16v-319l230 325c5 6 12 10 21 10z" />
    <glyph glyph-name="Kcommaaccent" unicode="&#x136;" horiz-adv-x="708" 
d="M502 783h171c18 0 16 -8 9 -19l-242 -340l271 -397c9 -13 10 -27 -17 -27h-171c-10 0 -18 4 -22 11l-250 371v-366c0 -11 -5 -16 -15 -16h-155c-10 0 -15 5 -15 16v751c0 10 5 16 15 16h155c10 0 15 -6 15 -16v-319l230 325c5 6 12 10 21 10zM290 -40h149
c6 0 10 -3 10 -10v-7c0 -5 -3 -10 -5 -12l-168 -133c-5 -4 -8 -3 -14 0l-44 26c-5 3 -6 9 -3 14l63 116c2 4 6 6 12 6z" />
    <glyph glyph-name="L" unicode="L" horiz-adv-x="593" 
d="M81 783h155c10 0 15 -6 15 -16v-606h311c10 0 15 -5 15 -15v-131c0 -10 -5 -15 -15 -15h-481c-10 0 -15 5 -15 16v751c0 10 5 16 15 16z" />
    <glyph glyph-name="Lacute" unicode="&#x139;" horiz-adv-x="593" 
d="M163 1009h173c6 0 10 -3 10 -10v-7c0 -5 -3 -10 -5 -12l-192 -157c-5 -4 -8 -3 -14 0l-54 31c-5 3 -6 9 -3 14l73 135c2 4 6 6 12 6zM81 783h155c10 0 15 -6 15 -16v-606h311c10 0 15 -5 15 -15v-131c0 -10 -5 -15 -15 -15h-481c-10 0 -15 5 -15 16v751c0 10 5 16 15 16z
" />
    <glyph glyph-name="Lcaron" unicode="&#x13d;" horiz-adv-x="586" 
d="M373 788h157c6 0 10 -3 10 -10v-7c0 -5 -3 -10 -5 -12l-144 -157c-4 -5 -9 -4 -14 0l-40 29c-5 3 -7 8 -5 16l26 131c1 7 6 10 15 10zM81 783h155c10 0 15 -6 15 -16v-606h311c10 0 15 -5 15 -15v-131c0 -10 -5 -15 -15 -15h-481c-10 0 -15 5 -15 16v751c0 10 5 16 15 16
z" />
    <glyph glyph-name="Lcommaaccent" unicode="&#x13b;" horiz-adv-x="593" 
d="M81 783h155c10 0 15 -6 15 -16v-606h311c10 0 15 -5 15 -15v-131c0 -10 -5 -15 -15 -15h-481c-10 0 -15 5 -15 16v751c0 10 5 16 15 16zM251 -40h149c6 0 10 -3 10 -10v-7c0 -5 -3 -10 -5 -12l-168 -133c-5 -4 -8 -3 -14 0l-44 26c-5 3 -6 9 -3 14l63 116c2 4 6 6 12 6z
" />
    <glyph glyph-name="Ldot" unicode="&#x13f;" horiz-adv-x="594" 
d="M81 783h155c10 0 15 -6 15 -16v-606h311c10 0 15 -5 15 -15v-131c0 -10 -5 -15 -15 -15h-481c-10 0 -15 5 -15 16v751c0 10 5 16 15 16zM437 474c60 0 92 -29 92 -83s-32 -84 -92 -84c-61 0 -94 30 -94 84s33 83 94 83z" />
    <glyph glyph-name="Lslash" unicode="&#x141;" horiz-adv-x="616" 
d="M274 161h311c10 0 15 -5 15 -15v-131c0 -10 -5 -15 -15 -15h-481c-10 0 -15 5 -15 16v289l-62 -36c-9 -6 -16 -3 -19 6l-20 34c-5 8 -3 15 5 20l96 55v383c0 10 5 16 15 16h155c10 0 15 -6 15 -16v-276l111 64c10 5 17 4 21 -5l20 -34c5 -8 5 -14 -6 -20l-146 -84v-251z
" />
    <glyph glyph-name="M" unicode="M" horiz-adv-x="1002" 
d="M735 784h143c10 0 11 -7 12 -17l76 -750c1 -12 -5 -17 -15 -17h-155c-10 0 -14 5 -15 17l-43 436l-161 -413c-5 -11 -12 -16 -22 -16h-107c-10 0 -18 5 -22 16l-161 413l-44 -436c-1 -12 -5 -17 -15 -17h-155c-10 0 -16 5 -15 17l76 750c1 9 3 16 13 16h142
c36 0 52 -8 64 -40l170 -447l170 448c13 32 28 40 64 40z" />
    <glyph glyph-name="N" unicode="N" horiz-adv-x="794" 
d="M558 783h155c10 0 15 -6 15 -16v-750c0 -12 -5 -17 -15 -17h-109c-29 0 -43 8 -58 29l-295 423v-435c0 -12 -5 -17 -15 -17h-155c-10 0 -15 5 -15 17v750c0 10 5 16 15 16h114c42 0 48 -10 65 -35l283 -404v423c0 10 5 16 15 16z" />
    <glyph glyph-name="Nacute" unicode="&#x143;" horiz-adv-x="794" 
d="M382 1009h174c6 0 10 -3 10 -10v-7c0 -5 -3 -10 -5 -12l-192 -157c-5 -4 -9 -3 -14 0l-55 31c-5 3 -6 9 -3 14l73 135c2 4 6 6 12 6zM558 783h155c10 0 15 -6 15 -16v-750c0 -12 -5 -17 -15 -17h-109c-29 0 -43 8 -58 29l-295 423v-435c0 -12 -5 -17 -15 -17h-155
c-10 0 -15 5 -15 17v750c0 10 5 16 15 16h114c42 0 48 -10 65 -35l283 -404v423c0 10 5 16 15 16z" />
    <glyph glyph-name="Ncaron" unicode="&#x147;" horiz-adv-x="794" 
d="M529 1006l38 -19c8 -4 9 -10 4 -17l-100 -139c-4 -6 -8 -10 -22 -10h-106c-14 0 -17 4 -21 10l-100 139c-5 7 -4 13 4 17l38 19c7 4 12 5 19 0l114 -76l113 76c7 5 12 4 19 0zM558 783h155c10 0 15 -6 15 -16v-750c0 -12 -5 -17 -15 -17h-109c-29 0 -43 8 -58 29
l-295 423v-435c0 -12 -5 -17 -15 -17h-155c-10 0 -15 5 -15 17v750c0 10 5 16 15 16h114c42 0 48 -10 65 -35l283 -404v423c0 10 5 16 15 16z" />
    <glyph glyph-name="Ncommaaccent" unicode="&#x145;" horiz-adv-x="794" 
d="M558 783h155c10 0 15 -6 15 -16v-750c0 -12 -5 -17 -15 -17h-109c-29 0 -43 8 -58 29l-295 423v-435c0 -12 -5 -17 -15 -17h-155c-10 0 -15 5 -15 17v750c0 10 5 16 15 16h114c42 0 48 -10 65 -35l283 -404v423c0 10 5 16 15 16zM340 -40h148c6 0 10 -3 10 -10v-7
c0 -5 -2 -10 -5 -12l-167 -133c-5 -4 -9 -3 -14 0l-45 26c-5 3 -6 9 -3 14l64 116c2 4 6 6 12 6z" />
    <glyph glyph-name="Eng" unicode="&#x14a;" horiz-adv-x="792" 
d="M558 783h155c10 0 15 -6 15 -16v-589c0 -295 -81 -382 -285 -382c-42 0 -63 3 -106 12c-17 3 -26 10 -26 28v106c0 10 5 15 15 15h78c83 0 131 29 131 112l-284 383v-435c0 -12 -5 -17 -15 -17h-155c-10 0 -15 5 -15 17v750c0 10 5 16 15 16h114c42 0 48 -10 65 -35
l283 -404v423c0 10 5 16 15 16z" />
    <glyph glyph-name="Ntilde" unicode="&#xd1;" horiz-adv-x="794" 
d="M316 994c55 0 115 -39 147 -39c21 0 32 8 43 33c5 10 10 12 18 9l53 -14c10 -3 13 -9 11 -20c-24 -97 -49 -125 -111 -125c-55 0 -115 39 -147 39c-21 0 -32 -8 -43 -33c-5 -10 -10 -13 -19 -10l-53 15c-8 3 -12 9 -10 20c23 97 49 125 111 125zM558 783h155
c10 0 15 -6 15 -16v-750c0 -12 -5 -17 -15 -17h-109c-29 0 -43 8 -58 29l-295 423v-435c0 -12 -5 -17 -15 -17h-155c-10 0 -15 5 -15 17v750c0 10 5 16 15 16h114c42 0 48 -10 65 -35l283 -404v423c0 10 5 16 15 16z" />
    <glyph glyph-name="O" unicode="O" horiz-adv-x="751" 
d="M375 789c260 0 334 -91 334 -398c0 -305 -74 -396 -334 -396s-333 91 -333 396c0 307 73 398 333 398zM375 628c-120 0 -146 -58 -146 -237c0 -177 26 -235 146 -235c121 0 146 58 146 235c0 179 -25 237 -146 237z" />
    <glyph glyph-name="Oacute" unicode="&#xd3;" horiz-adv-x="751" 
d="M391 1009h174c6 0 10 -3 10 -10v-7c0 -5 -3 -10 -5 -12l-192 -157c-5 -4 -8 -3 -14 0l-55 31c-5 3 -6 9 -3 14l73 135c2 4 6 6 12 6zM375 789c260 0 334 -91 334 -398c0 -305 -74 -396 -334 -396s-333 91 -333 396c0 307 73 398 333 398zM375 628
c-120 0 -146 -58 -146 -237c0 -177 26 -235 146 -235c121 0 146 58 146 235c0 179 -25 237 -146 237z" />
    <glyph glyph-name="Obreve" unicode="&#x14e;" horiz-adv-x="751" 
d="M475 995h71c11 0 16 -4 14 -15c-13 -107 -61 -144 -185 -144c-123 0 -171 36 -185 143c-2 11 4 16 14 16h71c9 0 14 -3 17 -12c16 -36 38 -48 83 -48s67 12 83 48c3 9 8 12 17 12zM375 789c260 0 334 -91 334 -398c0 -305 -74 -396 -334 -396s-333 91 -333 396
c0 307 73 398 333 398zM375 628c-120 0 -146 -58 -146 -237c0 -177 26 -235 146 -235c121 0 146 58 146 235c0 179 -25 237 -146 237z" />
    <glyph glyph-name="Ocaron" unicode="&#x1d1;" horiz-adv-x="751" 
d="M507 1006l38 -19c8 -4 10 -10 4 -17l-100 -139c-3 -6 -7 -10 -21 -10h-106c-14 0 -18 4 -22 10l-99 139c-6 7 -5 13 3 17l38 19c7 4 12 5 19 0l114 -76l114 76c6 5 12 4 18 0zM375 789c260 0 334 -91 334 -398c0 -305 -74 -396 -334 -396s-333 91 -333 396
c0 307 73 398 333 398zM375 628c-120 0 -146 -58 -146 -237c0 -177 26 -235 146 -235c121 0 146 58 146 235c0 179 -25 237 -146 237z" />
    <glyph glyph-name="Ocircumflex" unicode="&#xd4;" horiz-adv-x="751" 
d="M322 1009h106c14 0 18 -4 21 -9l100 -140c6 -6 4 -13 -4 -17l-38 -19c-6 -4 -12 -5 -18 0l-114 76l-114 -76c-7 -5 -12 -4 -19 0l-38 19c-8 4 -9 11 -3 17l99 140c4 5 8 9 22 9zM375 789c260 0 334 -91 334 -398c0 -305 -74 -396 -334 -396s-333 91 -333 396
c0 307 73 398 333 398zM375 628c-120 0 -146 -58 -146 -237c0 -177 26 -235 146 -235c121 0 146 58 146 235c0 179 -25 237 -146 237z" />
    <glyph glyph-name="Odieresis" unicode="&#xd6;" horiz-adv-x="751" 
d="M256 994c56 0 85 -30 85 -79c0 -51 -29 -81 -85 -81s-86 30 -86 81c0 49 30 79 86 79zM495 994c55 0 84 -30 84 -79c0 -51 -29 -81 -84 -81c-57 0 -86 30 -86 81c0 49 29 79 86 79zM375 789c260 0 334 -91 334 -398c0 -305 -74 -396 -334 -396s-333 91 -333 396
c0 307 73 398 333 398zM375 628c-120 0 -146 -58 -146 -237c0 -177 26 -235 146 -235c121 0 146 58 146 235c0 179 -25 237 -146 237z" />
    <glyph glyph-name="Ograve" unicode="&#xd2;" horiz-adv-x="751" 
d="M159 1009h173c6 0 10 -2 12 -6l73 -135c3 -5 2 -11 -3 -14l-54 -31c-6 -3 -9 -4 -14 0l-192 157c-3 2 -5 7 -5 12v7c0 7 4 10 10 10zM375 789c260 0 334 -91 334 -398c0 -305 -74 -396 -334 -396s-333 91 -333 396c0 307 73 398 333 398zM375 628
c-120 0 -146 -58 -146 -237c0 -177 26 -235 146 -235c121 0 146 58 146 235c0 179 -25 237 -146 237z" />
    <glyph glyph-name="Ohungarumlaut" unicode="&#x150;" horiz-adv-x="751" 
d="M325 1009h105c6 0 10 -3 10 -10v-7c0 -5 -2 -10 -5 -12l-152 -146c-5 -4 -9 -4 -14 0l-26 20c-5 4 -6 9 -3 14l73 135c2 4 6 6 12 6zM516 1009h106c6 0 10 -3 10 -10v-7c0 -5 -3 -10 -5 -12l-152 -146c-5 -4 -9 -4 -14 0l-27 20c-5 4 -6 9 -3 14l73 135c2 4 6 6 12 6z
M375 789c260 0 334 -91 334 -398c0 -305 -74 -396 -334 -396s-333 91 -333 396c0 307 73 398 333 398zM375 628c-120 0 -146 -58 -146 -237c0 -177 26 -235 146 -235c121 0 146 58 146 235c0 179 -25 237 -146 237z" />
    <glyph glyph-name="Omacron" unicode="&#x14c;" horiz-adv-x="751" 
d="M222 956h306c10 0 15 -5 15 -15v-71c0 -10 -5 -15 -15 -15h-306c-10 0 -15 5 -15 15v71c0 10 5 15 15 15zM375 789c260 0 334 -91 334 -398c0 -305 -74 -396 -334 -396s-333 91 -333 396c0 307 73 398 333 398zM375 628c-120 0 -146 -58 -146 -237
c0 -177 26 -235 146 -235c121 0 146 58 146 235c0 179 -25 237 -146 237z" />
    <glyph glyph-name="Oslash" unicode="&#xd8;" horiz-adv-x="751" 
d="M375 789c91 0 159 -11 209 -39l29 42c6 8 13 11 21 4l34 -23c8 -5 9 -12 3 -21l-33 -46c52 -61 71 -161 71 -315c0 -305 -74 -396 -334 -396c-90 0 -158 11 -208 38l-31 -44c-6 -9 -13 -10 -20 -3l-34 24c-8 5 -9 12 -4 20l34 47c-52 62 -70 160 -70 314
c0 307 73 398 333 398zM375 628c-120 0 -146 -58 -146 -237c0 -56 3 -99 10 -132l237 339c-21 21 -54 30 -101 30zM511 524l-237 -338c22 -21 55 -30 101 -30c121 0 146 58 146 235c0 56 -2 100 -10 133z" />
    <glyph glyph-name="Oslashacute" unicode="&#x1fe;" horiz-adv-x="751" 
d="M391 1009h174c6 0 10 -3 10 -10v-7c0 -5 -3 -10 -5 -12l-192 -157c-5 -4 -8 -3 -14 0l-55 31c-5 3 -6 9 -3 14l73 135c2 4 6 6 12 6zM709 391c0 -305 -74 -396 -334 -396c-90 0 -158 11 -208 38l-31 -44c-6 -9 -13 -10 -20 -3l-34 24c-8 5 -9 12 -4 20l34 47
c-52 62 -70 160 -70 314c0 307 73 398 333 398c91 0 159 -11 209 -39l29 42c6 8 13 11 21 4l34 -23c8 -5 9 -12 3 -21l-33 -46c52 -61 71 -161 71 -315zM375 628c-120 0 -146 -58 -146 -237c0 -56 3 -99 10 -132l237 339c-21 21 -54 30 -101 30zM521 391
c0 56 -2 100 -10 133l-237 -338c22 -21 55 -30 101 -30c121 0 146 58 146 235z" />
    <glyph glyph-name="Otilde" unicode="&#xd5;" horiz-adv-x="751" 
d="M294 994c55 0 115 -39 147 -39c21 0 32 8 44 33c4 10 9 12 18 9l53 -14c9 -3 12 -9 10 -20c-23 -97 -49 -125 -111 -125c-55 0 -115 39 -146 39c-21 0 -33 -8 -44 -33c-4 -10 -10 -13 -18 -10l-53 15c-9 3 -13 9 -10 20c23 97 49 125 110 125zM375 789
c260 0 334 -91 334 -398c0 -305 -74 -396 -334 -396s-333 91 -333 396c0 307 73 398 333 398zM375 628c-120 0 -146 -58 -146 -237c0 -177 26 -235 146 -235c121 0 146 58 146 235c0 179 -25 237 -146 237z" />
    <glyph glyph-name="OE" unicode="&#x152;" horiz-adv-x="1079" 
d="M376 789l349 -6h294c10 0 16 -5 16 -15v-131c0 -10 -6 -15 -16 -15h-337v-156h308c10 0 16 -5 16 -15v-124c0 -10 -6 -15 -16 -15h-308v-151h337c10 0 16 -5 16 -15v-131c0 -10 -6 -15 -16 -15l-643 -5c-261 -3 -334 91 -334 396c0 307 73 402 334 398zM497 628h-121
c-121 0 -146 -58 -146 -237c0 -177 25 -235 146 -235h121v472z" />
    <glyph glyph-name="P" unicode="P" horiz-adv-x="689" 
d="M374 789c216 0 290 -66 290 -263c0 -199 -74 -247 -290 -247h-123v-263c0 -13 -3 -16 -15 -16h-155c-12 0 -15 3 -15 16v747c0 10 3 13 15 14c98 8 198 12 293 12zM354 628h-103v-211h103c96 0 122 20 122 103c0 82 -26 108 -122 108z" />
    <glyph glyph-name="Thorn" unicode="&#xde;" horiz-adv-x="687" 
d="M81 785h155c10 0 15 -5 15 -16v-115c41 3 82 4 121 4c217 0 290 -66 290 -264c0 -197 -73 -263 -290 -263c-39 0 -80 1 -121 3v-115c0 -12 -5 -17 -15 -17h-155c-10 0 -15 5 -15 17v750c0 11 5 16 15 16zM353 500h-102v-212h102c95 0 122 22 122 105
c0 81 -27 107 -122 107z" />
    <glyph glyph-name="Q" unicode="Q" horiz-adv-x="751" 
d="M709 391c0 -265 -55 -368 -240 -391l36 -124c3 -11 -5 -16 -15 -16h-137c-10 0 -14 5 -17 16l-36 122c-199 18 -258 120 -258 393c0 307 73 398 333 398c261 0 334 -91 334 -398zM375 156c121 0 146 58 146 235c0 179 -25 237 -146 237c-120 0 -146 -58 -146 -237
c0 -177 26 -235 146 -235z" />
    <glyph glyph-name="R" unicode="R" horiz-adv-x="709" 
d="M374 789c216 0 290 -66 290 -263c0 -147 -39 -211 -148 -235l170 -271c8 -11 3 -20 -12 -20h-156c-23 0 -30 7 -40 22l-163 257h-64v-263c0 -13 -3 -16 -15 -16h-155c-12 0 -15 3 -15 16v747c0 10 3 13 15 14c98 8 198 12 293 12zM354 628h-103v-211h103
c96 0 122 20 122 103c0 82 -26 108 -122 108z" />
    <glyph glyph-name="Racute" unicode="&#x154;" horiz-adv-x="709" 
d="M347 1009h173c6 0 10 -3 10 -10v-7c0 -5 -2 -10 -5 -12l-192 -157c-5 -4 -8 -3 -14 0l-54 31c-5 3 -6 9 -3 14l73 135c2 4 6 6 12 6zM374 789c216 0 290 -66 290 -263c0 -147 -39 -211 -148 -235l170 -271c8 -11 3 -20 -12 -20h-156c-23 0 -30 7 -40 22l-163 257h-64
v-263c0 -13 -3 -16 -15 -16h-155c-12 0 -15 3 -15 16v747c0 10 3 13 15 14c98 8 198 12 293 12zM354 628h-103v-211h103c96 0 122 20 122 103c0 82 -26 108 -122 108z" />
    <glyph glyph-name="Rcaron" unicode="&#x158;" horiz-adv-x="709" 
d="M483 1006l38 -19c8 -4 9 -10 3 -17l-99 -139c-4 -6 -8 -10 -22 -10h-106c-14 0 -18 4 -21 10l-100 139c-6 7 -5 13 4 17l38 19c6 4 12 5 18 0l115 -76l113 76c6 5 12 4 19 0zM374 789c216 0 290 -66 290 -263c0 -147 -39 -211 -148 -235l170 -271c8 -11 3 -20 -12 -20
h-156c-23 0 -30 7 -40 22l-163 257h-64v-263c0 -13 -3 -16 -15 -16h-155c-12 0 -15 3 -15 16v747c0 10 3 13 15 14c98 8 198 12 293 12zM354 628h-103v-211h103c96 0 122 20 122 103c0 82 -26 108 -122 108z" />
    <glyph glyph-name="Rcommaaccent" unicode="&#x156;" horiz-adv-x="709" 
d="M374 789c216 0 290 -66 290 -263c0 -147 -39 -211 -148 -235l170 -271c8 -11 3 -20 -12 -20h-156c-23 0 -30 7 -40 22l-163 257h-64v-263c0 -13 -3 -16 -15 -16h-155c-12 0 -15 3 -15 16v747c0 10 3 13 15 14c98 8 198 12 293 12zM354 628h-103v-211h103
c96 0 122 20 122 103c0 82 -26 108 -122 108zM307 -40h149c6 0 10 -3 10 -10v-7c0 -5 -3 -10 -5 -12l-168 -133c-5 -4 -8 -3 -14 0l-44 26c-5 3 -6 9 -3 14l63 116c2 4 6 6 12 6z" />
    <glyph glyph-name="S" unicode="S" horiz-adv-x="634" 
d="M333 789c83 0 140 -7 215 -23c15 -5 20 -10 20 -21v-97c0 -15 -6 -20 -20 -20h-243c-48 0 -74 -18 -74 -53v-12c0 -28 15 -49 51 -63l173 -64c98 -37 150 -79 150 -214v-26c0 -146 -111 -201 -300 -201c-71 0 -150 7 -249 25c-14 3 -19 10 -19 25v90c0 15 6 21 21 21h289
c46 0 71 15 71 49v10c0 38 -22 53 -70 70l-173 63c-85 30 -131 83 -131 219v22c0 146 94 200 289 200z" />
    <glyph glyph-name="Sacute" unicode="&#x15a;" horiz-adv-x="634" 
d="M308 1009h174c6 0 10 -3 10 -10v-7c0 -5 -3 -10 -5 -12l-192 -157c-5 -4 -9 -3 -14 0l-55 31c-5 3 -6 9 -3 14l73 135c2 4 6 6 12 6zM333 789c83 0 140 -7 215 -23c15 -5 20 -10 20 -21v-97c0 -15 -6 -20 -20 -20h-243c-48 0 -74 -18 -74 -53v-12c0 -28 15 -49 51 -63
l173 -64c98 -37 150 -79 150 -214v-26c0 -146 -111 -201 -300 -201c-71 0 -150 7 -249 25c-14 3 -19 10 -19 25v90c0 15 6 21 21 21h289c46 0 71 15 71 49v10c0 38 -22 53 -70 70l-173 63c-85 30 -131 83 -131 219v22c0 146 94 200 289 200z" />
    <glyph glyph-name="Scaron" unicode="&#x160;" horiz-adv-x="634" 
d="M448 1006l38 -19c8 -4 9 -10 4 -17l-100 -139c-4 -6 -8 -10 -22 -10h-106c-14 0 -18 4 -21 10l-100 139c-6 7 -4 13 4 17l38 19c6 4 12 5 19 0l114 -76l113 76c7 5 12 4 19 0zM333 789c83 0 140 -7 215 -23c15 -5 20 -10 20 -21v-97c0 -15 -6 -20 -20 -20h-243
c-48 0 -74 -18 -74 -53v-12c0 -28 15 -49 51 -63l173 -64c98 -37 150 -79 150 -214v-26c0 -146 -111 -201 -300 -201c-71 0 -150 7 -249 25c-14 3 -19 10 -19 25v90c0 15 6 21 21 21h289c46 0 71 15 71 49v10c0 38 -22 53 -70 70l-173 63c-85 30 -131 83 -131 219v22
c0 146 94 200 289 200z" />
    <glyph glyph-name="Scedilla" unicode="&#x15e;" horiz-adv-x="634" 
d="M333 789c83 0 140 -7 215 -23c15 -5 20 -10 20 -21v-97c0 -14 -6 -20 -20 -20h-243c-48 0 -74 -18 -74 -53v-12c0 -28 15 -49 51 -63l173 -64c98 -37 150 -79 150 -214v-26c0 -118 -73 -176 -200 -195c11 -34 20 -72 20 -105c0 -52 -36 -78 -112 -78c-21 0 -78 3 -90 8
c-8 3 -12 9 -12 18v74c0 10 4 13 14 13h35c35 0 59 -1 59 24c0 10 -1 24 -4 40h-10c-71 0 -150 7 -249 25c-14 3 -19 10 -19 25v90c0 15 6 21 21 21h289c46 0 71 15 71 49v10c0 38 -22 53 -70 70l-173 63c-85 30 -131 83 -131 219v22c0 146 94 200 289 200z" />
    <glyph glyph-name="Scircumflex" unicode="&#x15c;" horiz-adv-x="634" 
d="M262 1009h106c14 0 18 -4 22 -9l100 -140c5 -6 4 -13 -4 -17l-38 -19c-7 -4 -12 -5 -19 0l-113 76l-114 -76c-7 -5 -13 -4 -19 0l-38 19c-8 4 -10 11 -4 17l100 140c3 5 7 9 21 9zM333 789c83 0 140 -7 215 -23c15 -5 20 -10 20 -21v-97c0 -15 -6 -20 -20 -20h-243
c-48 0 -74 -18 -74 -53v-12c0 -28 15 -49 51 -63l173 -64c98 -37 150 -79 150 -214v-26c0 -146 -111 -201 -300 -201c-71 0 -150 7 -249 25c-14 3 -19 10 -19 25v90c0 15 6 21 21 21h289c46 0 71 15 71 49v10c0 38 -22 53 -70 70l-173 63c-85 30 -131 83 -131 219v22
c0 146 94 200 289 200z" />
    <glyph glyph-name="Scommaaccent" unicode="&#x218;" horiz-adv-x="634" 
d="M333 789c83 0 140 -7 215 -23c15 -5 20 -10 20 -21v-97c0 -15 -6 -20 -20 -20h-243c-48 0 -74 -18 -74 -53v-12c0 -28 15 -49 51 -63l173 -64c98 -37 150 -79 150 -214v-26c0 -146 -111 -201 -300 -201c-71 0 -150 7 -249 25c-14 3 -19 10 -19 25v90c0 15 6 21 21 21h289
c46 0 71 15 71 49v10c0 38 -22 53 -70 70l-173 63c-85 30 -131 83 -131 219v22c0 146 94 200 289 200zM231 -40h149c6 0 10 -3 10 -10v-7c0 -5 -3 -10 -5 -12l-168 -133c-5 -4 -8 -3 -14 0l-44 26c-5 3 -6 9 -3 14l63 116c2 4 6 6 12 6z" />
    <glyph glyph-name="T" unicode="T" horiz-adv-x="649" 
d="M31 783h586c10 0 16 -5 16 -15v-131c0 -10 -6 -15 -16 -15h-201v-606c0 -11 -5 -16 -15 -16h-155c-10 0 -15 5 -15 16v606h-200c-10 0 -15 5 -15 15v131c0 10 5 15 15 15z" />
    <glyph glyph-name="Tbar" unicode="&#x166;" horiz-adv-x="666" 
d="M40 783h586c10 0 16 -5 16 -15v-131c0 -10 -6 -15 -16 -15h-201v-197h139c10 0 15 -5 15 -15v-66c0 -10 -5 -15 -15 -15h-139v-313c0 -11 -5 -16 -15 -16h-155c-10 0 -15 5 -15 16v313h-137c-10 0 -15 5 -15 15v66c0 10 5 15 15 15h137v197h-200c-11 0 -16 5 -16 15v131
c0 10 5 15 16 15z" />
    <glyph glyph-name="Tcaron" unicode="&#x164;" horiz-adv-x="649" 
d="M456 1006l38 -19c8 -4 9 -10 4 -17l-100 -139c-4 -6 -8 -10 -22 -10h-106c-14 0 -17 4 -21 10l-100 139c-6 7 -4 13 4 17l38 19c6 4 12 5 19 0l114 -76l113 76c7 5 12 4 19 0zM31 783h586c10 0 16 -5 16 -15v-131c0 -10 -6 -15 -16 -15h-201v-606c0 -11 -5 -16 -15 -16
h-155c-10 0 -15 5 -15 16v606h-200c-10 0 -15 5 -15 15v131c0 10 5 15 15 15z" />
    <glyph glyph-name="Tcedilla" unicode="&#x162;" horiz-adv-x="649" 
d="M31 783h586c10 0 16 -5 16 -15v-131c0 -10 -6 -15 -16 -15h-201v-606c13 -41 24 -84 24 -120c0 -52 -36 -78 -112 -78c-21 0 -78 3 -90 8c-8 3 -12 9 -12 18v74c0 10 4 13 14 13h35c35 0 59 -1 59 24c0 11 -1 26 -4 45h-84c-10 0 -15 5 -15 16v606h-200
c-10 0 -15 5 -15 15v131c0 10 5 15 15 15z" />
    <glyph glyph-name="uni021A" unicode="&#x21a;" horiz-adv-x="649" 
d="M31 783h586c10 0 16 -5 16 -15v-131c0 -10 -6 -15 -16 -15h-201v-606c0 -11 -5 -16 -15 -16h-155c-10 0 -15 5 -15 16v606h-200c-10 0 -15 5 -15 15v131c0 10 5 15 15 15zM250 -40h148c6 0 10 -3 10 -10v-7c0 -5 -3 -10 -5 -12l-167 -133c-5 -4 -9 -3 -14 0l-45 26
c-5 3 -6 9 -3 14l64 116c2 4 6 6 12 6z" />
    <glyph glyph-name="U" unicode="U" horiz-adv-x="769" 
d="M540 783h155c11 0 15 -4 15 -15v-377c0 -317 -65 -396 -325 -396c-261 0 -326 79 -326 396v377c0 11 5 15 15 15h155c10 0 15 -4 15 -15v-377c0 -188 28 -235 141 -235c112 0 140 47 140 235v377c0 11 5 15 15 15z" />
    <glyph glyph-name="Uacute" unicode="&#xda;" horiz-adv-x="769" 
d="M376 1009h173c6 0 10 -3 10 -10v-7c0 -5 -3 -10 -5 -12l-192 -157c-5 -4 -8 -3 -14 0l-54 31c-5 3 -6 9 -3 14l73 135c2 4 6 6 12 6zM540 783h155c11 0 15 -4 15 -15v-377c0 -317 -65 -396 -325 -396c-261 0 -326 79 -326 396v377c0 11 5 15 15 15h155c10 0 15 -4 15 -15
v-377c0 -188 28 -235 141 -235c112 0 140 47 140 235v377c0 11 5 15 15 15z" />
    <glyph glyph-name="Ubreve" unicode="&#x16c;" horiz-adv-x="769" 
d="M484 995h72c10 0 16 -4 14 -15c-14 -107 -62 -144 -185 -144c-124 0 -172 36 -185 143c-2 11 3 16 14 16h70c10 0 14 -3 17 -12c16 -36 38 -48 84 -48c45 0 67 12 82 48c4 9 9 12 17 12zM540 783h155c11 0 15 -4 15 -15v-377c0 -317 -65 -396 -325 -396
c-261 0 -326 79 -326 396v377c0 11 5 15 15 15h155c10 0 15 -4 15 -15v-377c0 -188 28 -235 141 -235c112 0 140 47 140 235v377c0 11 5 15 15 15z" />
    <glyph glyph-name="Ucaron" unicode="&#x1d3;" horiz-adv-x="769" 
d="M517 1006l38 -19c8 -4 9 -10 4 -17l-100 -139c-4 -6 -8 -10 -22 -10h-106c-14 0 -17 4 -21 10l-100 139c-6 7 -4 13 4 17l38 19c6 4 12 5 19 0l114 -76l113 76c7 5 12 4 19 0zM540 783h155c11 0 15 -4 15 -15v-377c0 -317 -65 -396 -325 -396c-261 0 -326 79 -326 396
v377c0 11 5 15 15 15h155c10 0 15 -4 15 -15v-377c0 -188 28 -235 141 -235c112 0 140 47 140 235v377c0 11 5 15 15 15z" />
    <glyph glyph-name="Ucircumflex" unicode="&#xdb;" horiz-adv-x="769" 
d="M331 1009h106c14 0 18 -4 22 -9l100 -140c5 -6 4 -13 -4 -17l-38 -19c-7 -4 -12 -5 -19 0l-113 76l-114 -76c-7 -5 -13 -4 -19 0l-38 19c-8 4 -10 11 -4 17l100 140c4 5 7 9 21 9zM540 783h155c11 0 15 -4 15 -15v-377c0 -317 -65 -396 -325 -396
c-261 0 -326 79 -326 396v377c0 11 5 15 15 15h155c10 0 15 -4 15 -15v-377c0 -188 28 -235 141 -235c112 0 140 47 140 235v377c0 11 5 15 15 15z" />
    <glyph glyph-name="Udieresis" unicode="&#xdc;" horiz-adv-x="769" 
d="M266 994c55 0 84 -30 84 -79c0 -51 -29 -81 -84 -81c-57 0 -86 30 -86 81c0 49 29 79 86 79zM504 994c55 0 85 -30 85 -79c0 -51 -30 -81 -85 -81c-56 0 -86 30 -86 81c0 49 30 79 86 79zM540 783h155c11 0 15 -4 15 -15v-377c0 -317 -65 -396 -325 -396
c-261 0 -326 79 -326 396v377c0 11 5 15 15 15h155c10 0 15 -4 15 -15v-377c0 -188 28 -235 141 -235c112 0 140 47 140 235v377c0 11 5 15 15 15z" />
    <glyph glyph-name="Udieresisacute" unicode="&#x1d7;" horiz-adv-x="769" 
d="M420 1194h174c6 0 10 -3 10 -10v-7c0 -5 -3 -10 -5 -12l-192 -157c-5 -4 -8 -3 -14 0l-55 31c-5 3 -6 9 -3 14l73 135c2 4 6 6 12 6zM266 994c55 0 84 -30 84 -79c0 -51 -29 -81 -84 -81c-57 0 -86 30 -86 81c0 49 29 79 86 79zM504 994c55 0 85 -30 85 -79
c0 -51 -30 -81 -85 -81c-56 0 -86 30 -86 81c0 49 30 79 86 79zM540 783h155c11 0 15 -4 15 -15v-377c0 -317 -65 -396 -325 -396c-261 0 -326 79 -326 396v377c0 11 5 15 15 15h155c10 0 15 -4 15 -15v-377c0 -188 28 -235 141 -235c112 0 140 47 140 235v377
c0 11 5 15 15 15z" />
    <glyph glyph-name="Udieresiscaron" unicode="&#x1d9;" horiz-adv-x="769" 
d="M517 1200l38 -19c8 -4 9 -10 4 -17l-100 -139c-4 -6 -8 -10 -22 -10h-106c-14 0 -17 4 -21 10l-100 139c-6 7 -4 13 4 17l38 19c6 4 12 5 19 0l114 -76l113 76c7 5 12 4 19 0zM266 994c55 0 84 -30 84 -79c0 -51 -29 -81 -84 -81c-57 0 -86 30 -86 81c0 49 29 79 86 79z
M504 994c55 0 85 -30 85 -79c0 -51 -30 -81 -85 -81c-56 0 -86 30 -86 81c0 49 30 79 86 79zM540 783h155c11 0 15 -4 15 -15v-377c0 -317 -65 -396 -325 -396c-261 0 -326 79 -326 396v377c0 11 5 15 15 15h155c10 0 15 -4 15 -15v-377c0 -188 28 -235 141 -235
c112 0 140 47 140 235v377c0 11 5 15 15 15z" />
    <glyph glyph-name="Udieresisgrave" unicode="&#x1db;" horiz-adv-x="769" 
d="M191 1194h174c6 0 10 -2 12 -6l73 -135c3 -5 2 -11 -3 -14l-55 -31c-6 -3 -9 -4 -14 0l-192 157c-2 2 -5 7 -5 12v7c0 7 4 10 10 10zM266 994c55 0 84 -30 84 -79c0 -51 -29 -81 -84 -81c-57 0 -86 30 -86 81c0 49 29 79 86 79zM504 994c55 0 85 -30 85 -79
c0 -51 -30 -81 -85 -81c-56 0 -86 30 -86 81c0 49 30 79 86 79zM540 783h155c11 0 15 -4 15 -15v-377c0 -317 -65 -396 -325 -396c-261 0 -326 79 -326 396v377c0 11 5 15 15 15h155c10 0 15 -4 15 -15v-377c0 -188 28 -235 141 -235c112 0 140 47 140 235v377
c0 11 5 15 15 15z" />
    <glyph glyph-name="Udieresismacron" unicode="&#x1d5;" horiz-adv-x="769" 
d="M232 1161h305c10 0 15 -5 15 -15v-71c0 -10 -5 -15 -15 -15h-305c-10 0 -15 5 -15 15v71c0 10 5 15 15 15zM266 994c55 0 84 -30 84 -79c0 -51 -29 -81 -84 -81c-57 0 -86 30 -86 81c0 49 29 79 86 79zM504 994c55 0 85 -30 85 -79c0 -51 -30 -81 -85 -81
c-56 0 -86 30 -86 81c0 49 30 79 86 79zM540 783h155c11 0 15 -4 15 -15v-377c0 -317 -65 -396 -325 -396c-261 0 -326 79 -326 396v377c0 11 5 15 15 15h155c10 0 15 -4 15 -15v-377c0 -188 28 -235 141 -235c112 0 140 47 140 235v377c0 11 5 15 15 15z" />
    <glyph glyph-name="Ugrave" unicode="&#xd9;" horiz-adv-x="769" 
d="M193 1009h174c6 0 10 -2 12 -6l73 -135c3 -5 2 -11 -3 -14l-55 -31c-6 -3 -9 -4 -14 0l-192 157c-2 2 -5 7 -5 12v7c0 7 4 10 10 10zM540 783h155c11 0 15 -4 15 -15v-377c0 -317 -65 -396 -325 -396c-261 0 -326 79 -326 396v377c0 11 5 15 15 15h155c10 0 15 -4 15 -15
v-377c0 -188 28 -235 141 -235c112 0 140 47 140 235v377c0 11 5 15 15 15z" />
    <glyph glyph-name="Uhungarumlaut" unicode="&#x170;" horiz-adv-x="769" 
d="M307 1009h105c6 0 10 -3 10 -10v-7c0 -5 -2 -10 -5 -12l-152 -146c-5 -4 -9 -4 -14 0l-26 20c-5 4 -6 9 -3 14l73 135c2 4 6 6 12 6zM499 1009h105c6 0 10 -3 10 -10v-7c0 -5 -3 -10 -5 -12l-152 -146c-5 -4 -9 -4 -14 0l-26 20c-5 4 -6 9 -3 14l73 135c2 4 6 6 12 6z
M540 783h155c11 0 15 -4 15 -15v-377c0 -317 -65 -396 -325 -396c-261 0 -326 79 -326 396v377c0 11 5 15 15 15h155c10 0 15 -4 15 -15v-377c0 -188 28 -235 141 -235c112 0 140 47 140 235v377c0 11 5 15 15 15z" />
    <glyph glyph-name="Umacron" unicode="&#x16a;" horiz-adv-x="769" 
d="M232 956h305c10 0 15 -5 15 -15v-71c0 -10 -5 -15 -15 -15h-305c-10 0 -15 5 -15 15v71c0 10 5 15 15 15zM540 783h155c11 0 15 -4 15 -15v-377c0 -317 -65 -396 -325 -396c-261 0 -326 79 -326 396v377c0 11 5 15 15 15h155c10 0 15 -4 15 -15v-377
c0 -188 28 -235 141 -235c112 0 140 47 140 235v377c0 11 5 15 15 15z" />
    <glyph glyph-name="Uogonek" unicode="&#x172;" horiz-adv-x="769" 
d="M540 783h155c11 0 15 -4 15 -15v-377c0 -293 -56 -383 -270 -394c-3 -18 -4 -32 -4 -42c0 -25 25 -24 59 -24h36c10 0 13 -3 13 -13v-74c0 -9 -4 -15 -12 -18c-12 -5 -68 -8 -89 -8c-77 0 -112 26 -112 78c0 30 7 67 17 100c-230 7 -289 94 -289 395v377c0 11 5 15 15 15
h155c10 0 15 -4 15 -15v-377c0 -188 28 -235 141 -235c112 0 140 47 140 235v377c0 11 5 15 15 15z" />
    <glyph glyph-name="Uring" unicode="&#x16e;" horiz-adv-x="769" 
d="M385 1051c80 0 122 -39 122 -117s-42 -118 -122 -118s-122 40 -122 118s42 117 122 117zM385 996c-41 0 -62 -21 -62 -62s21 -62 62 -62s62 21 62 62s-21 62 -62 62zM540 783h155c11 0 15 -4 15 -15v-377c0 -317 -65 -396 -325 -396c-261 0 -326 79 -326 396v377
c0 11 5 15 15 15h155c10 0 15 -4 15 -15v-377c0 -188 28 -235 141 -235c112 0 140 47 140 235v377c0 11 5 15 15 15z" />
    <glyph glyph-name="Utilde" unicode="&#x168;" horiz-adv-x="769" 
d="M304 994c55 0 115 -39 147 -39c21 0 32 8 43 33c5 10 10 12 18 9l53 -14c10 -3 13 -9 11 -20c-24 -97 -50 -125 -111 -125c-55 0 -115 39 -147 39c-21 0 -32 -8 -43 -33c-5 -10 -10 -13 -19 -10l-53 15c-8 3 -12 9 -10 20c23 97 49 125 111 125zM540 783h155
c11 0 15 -4 15 -15v-377c0 -317 -65 -396 -325 -396c-261 0 -326 79 -326 396v377c0 11 5 15 15 15h155c10 0 15 -4 15 -15v-377c0 -188 28 -235 141 -235c112 0 140 47 140 235v377c0 11 5 15 15 15z" />
    <glyph glyph-name="V" unicode="V" horiz-adv-x="713" 
d="M23 783h152c10 0 11 -4 14 -16l152 -605c3 -13 5 -18 14 -18c11 0 13 5 16 18l152 605c3 12 4 16 14 16h152c10 0 15 -4 13 -16l-165 -651c-27 -110 -51 -121 -181 -121c-127 0 -151 10 -179 121l-167 651c-2 12 3 16 13 16z" />
    <glyph glyph-name="W" unicode="W" horiz-adv-x="1105" 
d="M913 783h159c11 0 17 -4 15 -17l-119 -650c-20 -108 -42 -121 -160 -121c-134 0 -150 12 -176 121l-80 340l-80 -340c-26 -109 -41 -121 -176 -121c-118 0 -140 13 -159 121l-119 650c-2 13 4 17 14 17h159c10 0 13 -4 15 -17l98 -559c3 -14 6 -18 15 -18
c11 0 13 4 17 18l126 534c3 12 12 17 22 17h137c9 0 18 -5 21 -17l126 -534c4 -14 7 -18 17 -18s13 4 16 18l97 559c3 13 5 17 15 17z" />
    <glyph glyph-name="Wacute" unicode="&#x1e82;" horiz-adv-x="1105" 
d="M564 1009h174c6 0 10 -3 10 -10v-7c0 -5 -3 -10 -5 -12l-192 -157c-5 -4 -8 -3 -14 0l-55 31c-5 3 -6 9 -3 14l73 135c2 4 6 6 12 6zM913 783h159c11 0 17 -4 15 -17l-119 -650c-20 -108 -42 -121 -160 -121c-134 0 -150 12 -176 121l-80 340l-80 -340
c-26 -109 -41 -121 -176 -121c-118 0 -140 13 -159 121l-119 650c-2 13 4 17 14 17h159c10 0 13 -4 15 -17l98 -559c3 -14 6 -18 15 -18c11 0 13 4 17 18l126 534c3 12 12 17 22 17h137c9 0 18 -5 21 -17l126 -534c4 -14 7 -18 17 -18s13 4 16 18l97 559c3 13 5 17 15 17z
" />
    <glyph glyph-name="Wcircumflex" unicode="&#x174;" horiz-adv-x="1105" 
d="M499 1009h106c14 0 18 -4 21 -9l100 -140c6 -6 4 -13 -4 -17l-38 -19c-6 -4 -12 -5 -18 0l-114 76l-114 -76c-7 -5 -12 -4 -19 0l-38 19c-8 4 -9 11 -3 17l99 140c4 5 8 9 22 9zM913 783h159c11 0 17 -4 15 -17l-119 -650c-20 -108 -42 -121 -160 -121
c-134 0 -150 12 -176 121l-80 340l-80 -340c-26 -109 -41 -121 -176 -121c-118 0 -140 13 -159 121l-119 650c-2 13 4 17 14 17h159c10 0 13 -4 15 -17l98 -559c3 -14 6 -18 15 -18c11 0 13 4 17 18l126 534c3 12 12 17 22 17h137c9 0 18 -5 21 -17l126 -534
c4 -14 7 -18 17 -18s13 4 16 18l97 559c3 13 5 17 15 17z" />
    <glyph glyph-name="Wdieresis" unicode="&#x1e84;" horiz-adv-x="1105" 
d="M433 994c56 0 85 -30 85 -79c0 -51 -29 -81 -85 -81s-86 30 -86 81c0 49 30 79 86 79zM671 994c56 0 85 -30 85 -79c0 -51 -29 -81 -85 -81s-85 30 -85 81c0 49 29 79 85 79zM913 783h159c11 0 17 -4 15 -17l-119 -650c-20 -108 -42 -121 -160 -121
c-134 0 -150 12 -176 121l-80 340l-80 -340c-26 -109 -41 -121 -176 -121c-118 0 -140 13 -159 121l-119 650c-2 13 4 17 14 17h159c10 0 13 -4 15 -17l98 -559c3 -14 6 -18 15 -18c11 0 13 4 17 18l126 534c3 12 12 17 22 17h137c9 0 18 -5 21 -17l126 -534
c4 -14 7 -18 17 -18s13 4 16 18l97 559c3 13 5 17 15 17z" />
    <glyph glyph-name="Wgrave" unicode="&#x1e80;" horiz-adv-x="1105" 
d="M352 1009h174c6 0 10 -2 12 -6l73 -135c3 -5 2 -11 -3 -14l-55 -31c-5 -3 -9 -4 -14 0l-192 157c-2 2 -5 7 -5 12v7c0 7 4 10 10 10zM913 783h159c11 0 17 -4 15 -17l-119 -650c-20 -108 -42 -121 -160 -121c-134 0 -150 12 -176 121l-80 340l-80 -340
c-26 -109 -41 -121 -176 -121c-118 0 -140 13 -159 121l-119 650c-2 13 4 17 14 17h159c10 0 13 -4 15 -17l98 -559c3 -14 6 -18 15 -18c11 0 13 4 17 18l126 534c3 12 12 17 22 17h137c9 0 18 -5 21 -17l126 -534c4 -14 7 -18 17 -18s13 4 16 18l97 559c3 13 5 17 15 17z
" />
    <glyph glyph-name="X" unicode="X" horiz-adv-x="730" 
d="M526 783h173c15 0 20 -8 11 -22l-237 -354l259 -385c11 -16 3 -22 -11 -22h-173c-15 0 -20 5 -27 16l-156 250l-156 -250c-8 -11 -12 -16 -27 -16h-173c-14 0 -22 6 -11 22l259 385l-237 354c-9 14 -4 22 11 22h173c16 0 21 -6 27 -16l134 -219l134 219c6 10 11 16 27 16
z" />
    <glyph glyph-name="Y" unicode="Y" horiz-adv-x="741" 
d="M557 783h173c14 0 20 -6 11 -22l-278 -503v-241c0 -12 -5 -17 -15 -17h-155c-10 0 -15 5 -15 17v243l-277 501c-9 16 -3 22 11 22h174c15 0 19 -5 27 -16l158 -328l159 328c5 11 12 16 27 16z" />
    <glyph glyph-name="Yacute" unicode="&#xdd;" horiz-adv-x="741" 
d="M384 1009h174c6 0 10 -3 10 -10v-7c0 -5 -3 -10 -5 -12l-192 -157c-5 -4 -8 -3 -14 0l-55 31c-5 3 -6 9 -3 14l73 135c2 4 6 6 12 6zM557 783h173c14 0 20 -6 11 -22l-278 -503v-241c0 -12 -5 -17 -15 -17h-155c-10 0 -15 5 -15 17v243l-277 501c-9 16 -3 22 11 22h174
c15 0 19 -5 27 -16l158 -328l159 328c5 11 12 16 27 16z" />
    <glyph glyph-name="Ycircumflex" unicode="&#x176;" horiz-adv-x="741" 
d="M318 1009h106c14 0 18 -4 22 -9l100 -140c5 -6 4 -13 -4 -17l-38 -19c-7 -4 -12 -5 -19 0l-113 76l-114 -76c-7 -5 -13 -4 -19 0l-38 19c-8 4 -10 11 -4 17l100 140c4 5 7 9 21 9zM557 783h173c14 0 20 -6 11 -22l-278 -503v-241c0 -12 -5 -17 -15 -17h-155
c-10 0 -15 5 -15 17v243l-277 501c-9 16 -3 22 11 22h174c15 0 19 -5 27 -16l158 -328l159 328c5 11 12 16 27 16z" />
    <glyph glyph-name="Ydieresis" unicode="&#x178;" horiz-adv-x="741" 
d="M253 994c55 0 84 -30 84 -79c0 -51 -29 -81 -84 -81c-57 0 -86 30 -86 81c0 49 29 79 86 79zM491 994c55 0 85 -30 85 -79c0 -51 -30 -81 -85 -81c-56 0 -86 30 -86 81c0 49 30 79 86 79zM557 783h173c14 0 20 -6 11 -22l-278 -503v-241c0 -12 -5 -17 -15 -17h-155
c-10 0 -15 5 -15 17v243l-277 501c-9 16 -3 22 11 22h174c15 0 19 -5 27 -16l158 -328l159 328c5 11 12 16 27 16z" />
    <glyph glyph-name="Ygrave" unicode="&#x1ef2;" horiz-adv-x="741" 
d="M158 1009h173c6 0 10 -2 12 -6l73 -135c3 -5 2 -11 -3 -14l-54 -31c-6 -3 -9 -4 -14 0l-192 157c-2 2 -5 7 -5 12v7c0 7 4 10 10 10zM557 783h173c14 0 20 -6 11 -22l-278 -503v-241c0 -12 -5 -17 -15 -17h-155c-10 0 -15 5 -15 17v243l-277 501c-9 16 -3 22 11 22h174
c15 0 19 -5 27 -16l158 -328l159 328c5 11 12 16 27 16z" />
    <glyph glyph-name="Ytilde" unicode="&#x1ef8;" horiz-adv-x="741" 
d="M291 994c55 0 115 -39 146 -39c22 0 33 8 44 33c5 10 10 12 18 9l53 -14c10 -3 13 -9 11 -20c-24 -97 -50 -125 -111 -125c-55 0 -115 39 -147 39c-21 0 -32 -8 -44 -33c-4 -10 -9 -13 -18 -10l-53 15c-8 3 -12 9 -10 20c23 97 49 125 111 125zM557 783h173
c14 0 20 -6 11 -22l-278 -503v-241c0 -12 -5 -17 -15 -17h-155c-10 0 -15 5 -15 17v243l-277 501c-9 16 -3 22 11 22h174c15 0 19 -5 27 -16l158 -328l159 328c5 11 12 16 27 16z" />
    <glyph glyph-name="Z" unicode="Z" horiz-adv-x="703" 
d="M56 783h592c10 0 15 -5 15 -16v-120c0 -8 -1 -13 -7 -20l-381 -466h381c10 0 16 -5 16 -15v-130c0 -11 -6 -16 -16 -16h-611c-10 0 -15 5 -15 16l-1 119c0 8 1 12 7 20l380 467h-359c-11 0 -16 5 -16 15l-1 130c0 11 5 16 16 16z" />
    <glyph glyph-name="Zacute" unicode="&#x179;" horiz-adv-x="703" 
d="M336 1009h174c6 0 10 -3 10 -10v-7c0 -5 -3 -10 -5 -12l-192 -157c-5 -4 -8 -3 -14 0l-55 31c-5 3 -6 9 -3 14l73 135c2 4 6 6 12 6zM56 783h592c10 0 15 -5 15 -16v-120c0 -8 -1 -13 -7 -20l-381 -466h381c10 0 16 -5 16 -15v-130c0 -11 -6 -16 -16 -16h-611
c-10 0 -15 5 -15 16l-1 119c0 8 1 12 7 20l380 467h-359c-11 0 -16 5 -16 15l-1 130c0 11 5 16 16 16z" />
    <glyph glyph-name="Zcaron" unicode="&#x17d;" horiz-adv-x="703" 
d="M483 1006l38 -19c8 -4 10 -10 4 -17l-100 -139c-3 -6 -7 -10 -21 -10h-106c-14 0 -18 4 -22 10l-99 139c-6 7 -5 13 3 17l38 19c7 4 12 5 19 0l114 -76l114 76c6 5 12 4 18 0zM56 783h592c10 0 15 -5 15 -16v-120c0 -8 -1 -13 -7 -20l-381 -466h381c10 0 16 -5 16 -15
v-130c0 -11 -6 -16 -16 -16h-611c-10 0 -15 5 -15 16l-1 119c0 8 1 12 7 20l380 467h-359c-11 0 -16 5 -16 15l-1 130c0 11 5 16 16 16z" />
    <glyph glyph-name="Zdotaccent" unicode="&#x17b;" horiz-adv-x="703" 
d="M351 998c60 0 93 -30 93 -83c0 -55 -33 -85 -93 -85c-61 0 -93 30 -93 85c0 53 32 83 93 83zM56 783h592c10 0 15 -5 15 -16v-120c0 -8 -1 -13 -7 -20l-381 -466h381c10 0 16 -5 16 -15v-130c0 -11 -6 -16 -16 -16h-611c-10 0 -15 5 -15 16l-1 119c0 8 1 12 7 20l380 467
h-359c-11 0 -16 5 -16 15l-1 130c0 11 5 16 16 16z" />
    <glyph glyph-name="Q.alt" horiz-adv-x="751" 
d="M579 31l97 -42c9 -4 11 -12 6 -21l-66 -113c-4 -9 -12 -10 -20 -5l-245 145c-240 6 -309 100 -309 396c0 307 73 398 333 398s334 -91 334 -398c0 -202 -32 -310 -130 -360zM229 391c0 -177 26 -235 146 -235c121 0 146 58 146 235c0 179 -25 237 -146 237
c-120 0 -146 -58 -146 -237z" />
    <glyph glyph-name="a" unicode="a" horiz-adv-x="578" 
d="M277 572c219 0 251 -73 251 -180v-344c0 -20 -7 -28 -24 -32c-88 -18 -176 -21 -230 -21c-159 0 -247 11 -249 179c2 142 76 168 218 168l110 1v20c0 42 -26 59 -76 59h-196c-10 0 -13 3 -13 15v102c0 12 4 14 13 16c63 13 124 17 196 17zM353 238h-93
c-50 0 -63 -17 -63 -52c0 -40 16 -51 71 -51c14 0 60 2 85 8v95z" />
    <glyph glyph-name="aacute" unicode="&#xe1;" horiz-adv-x="578" 
d="M273 809h174c6 0 10 -3 10 -10v-7c0 -5 -3 -10 -5 -12l-192 -157c-5 -4 -8 -3 -14 0l-55 31c-5 3 -6 9 -3 14l73 135c2 4 6 6 12 6zM277 572c219 0 251 -73 251 -180v-344c0 -20 -7 -28 -24 -32c-88 -18 -176 -21 -230 -21c-159 0 -247 11 -249 179c2 142 76 168 218 168
l110 1v20c0 42 -26 59 -76 59h-196c-10 0 -13 3 -13 15v102c0 12 4 14 13 16c63 13 124 17 196 17zM353 238h-93c-50 0 -63 -17 -63 -52c0 -40 16 -51 71 -51c14 0 60 2 85 8v95z" />
    <glyph glyph-name="abreve" unicode="&#x103;" horiz-adv-x="578" 
d="M388 795h71c10 0 16 -4 14 -15c-14 -107 -62 -144 -185 -144s-171 36 -185 143c-2 11 4 16 14 16h71c9 0 14 -3 17 -12c15 -36 38 -48 83 -48s67 12 83 48c3 9 8 12 17 12zM277 572c219 0 251 -73 251 -180v-344c0 -20 -7 -28 -24 -32c-88 -18 -176 -21 -230 -21
c-159 0 -247 11 -249 179c2 142 76 168 218 168l110 1v20c0 42 -26 59 -76 59h-196c-10 0 -13 3 -13 15v102c0 12 4 14 13 16c63 13 124 17 196 17zM353 238h-93c-50 0 -63 -17 -63 -52c0 -40 16 -51 71 -51c14 0 60 2 85 8v95z" />
    <glyph glyph-name="acaron" unicode="&#x1ce;" horiz-adv-x="578" 
d="M420 806l38 -19c8 -4 9 -10 4 -17l-100 -139c-4 -6 -7 -10 -21 -10h-106c-14 0 -18 4 -22 10l-100 139c-5 7 -4 13 4 17l38 19c7 4 12 5 19 0l114 -76l113 76c7 5 13 4 19 0zM277 572c219 0 251 -73 251 -180v-344c0 -20 -7 -28 -24 -32c-88 -18 -176 -21 -230 -21
c-159 0 -247 11 -249 179c2 142 76 168 218 168l110 1v20c0 42 -26 59 -76 59h-196c-10 0 -13 3 -13 15v102c0 12 4 14 13 16c63 13 124 17 196 17zM353 238h-93c-50 0 -63 -17 -63 -52c0 -40 16 -51 71 -51c14 0 60 2 85 8v95z" />
    <glyph glyph-name="acircumflex" unicode="&#xe2;" horiz-adv-x="578" 
d="M235 809h106c14 0 17 -4 21 -9l100 -140c5 -6 4 -13 -4 -17l-38 -19c-6 -4 -12 -5 -19 0l-113 76l-114 -76c-7 -5 -12 -4 -19 0l-38 19c-8 4 -9 11 -4 17l100 140c4 5 8 9 22 9zM277 572c219 0 251 -73 251 -180v-344c0 -20 -7 -28 -24 -32c-88 -18 -176 -21 -230 -21
c-159 0 -247 11 -249 179c2 142 76 168 218 168l110 1v20c0 42 -26 59 -76 59h-196c-10 0 -13 3 -13 15v102c0 12 4 14 13 16c63 13 124 17 196 17zM353 238h-93c-50 0 -63 -17 -63 -52c0 -40 16 -51 71 -51c14 0 60 2 85 8v95z" />
    <glyph glyph-name="adieresis" unicode="&#xe4;" horiz-adv-x="578" 
d="M169 794c55 0 85 -30 85 -79c0 -51 -30 -81 -85 -81c-56 0 -86 30 -86 81c0 49 30 79 86 79zM407 794c56 0 85 -30 85 -79c0 -51 -29 -81 -85 -81s-85 30 -85 81c0 49 29 79 85 79zM277 572c219 0 251 -73 251 -180v-344c0 -20 -7 -28 -24 -32c-88 -18 -176 -21 -230 -21
c-159 0 -247 11 -249 179c2 142 76 168 218 168l110 1v20c0 42 -26 59 -76 59h-196c-10 0 -13 3 -13 15v102c0 12 4 14 13 16c63 13 124 17 196 17zM353 238h-93c-50 0 -63 -17 -63 -52c0 -40 16 -51 71 -51c14 0 60 2 85 8v95z" />
    <glyph glyph-name="agrave" unicode="&#xe0;" horiz-adv-x="578" 
d="M101 809h174c6 0 10 -2 12 -6l73 -135c3 -5 2 -11 -3 -14l-55 -31c-5 -3 -9 -4 -14 0l-192 157c-2 2 -5 7 -5 12v7c0 7 4 10 10 10zM277 572c219 0 251 -73 251 -180v-344c0 -20 -7 -28 -24 -32c-88 -18 -176 -21 -230 -21c-159 0 -247 11 -249 179c2 142 76 168 218 168
l110 1v20c0 42 -26 59 -76 59h-196c-10 0 -13 3 -13 15v102c0 12 4 14 13 16c63 13 124 17 196 17zM353 238h-93c-50 0 -63 -17 -63 -52c0 -40 16 -51 71 -51c14 0 60 2 85 8v95z" />
    <glyph glyph-name="amacron" unicode="&#x101;" horiz-adv-x="578" 
d="M135 756h306c10 0 15 -5 15 -15v-71c0 -10 -5 -15 -15 -15h-306c-10 0 -15 5 -15 15v71c0 10 5 15 15 15zM277 572c219 0 251 -73 251 -180v-344c0 -20 -7 -28 -24 -32c-88 -18 -176 -21 -230 -21c-159 0 -247 11 -249 179c2 142 76 168 218 168l110 1v20
c0 42 -26 59 -76 59h-196c-10 0 -13 3 -13 15v102c0 12 4 14 13 16c63 13 124 17 196 17zM353 238h-93c-50 0 -63 -17 -63 -52c0 -40 16 -51 71 -51c14 0 60 2 85 8v95z" />
    <glyph glyph-name="aogonek" unicode="&#x105;" horiz-adv-x="578" 
d="M504 16c-27 -5 -53 -9 -79 -13c-4 -19 -5 -37 -5 -48c0 -25 25 -24 60 -24h35c10 0 13 -3 13 -13v-74c0 -9 -4 -15 -12 -18c-12 -5 -68 -8 -89 -8c-77 0 -112 26 -112 78c0 31 8 68 17 100c-22 -1 -41 -1 -58 -1c-159 0 -247 11 -249 179c2 142 76 168 218 168l110 1v20
c0 42 -26 59 -76 59h-196c-10 0 -13 3 -13 15v102c0 12 4 14 13 16c63 13 124 17 196 17c219 0 251 -73 251 -180v-344c0 -20 -7 -28 -24 -32zM268 135c14 0 60 2 85 8v95h-93c-50 0 -63 -17 -63 -52c0 -40 16 -51 71 -51z" />
    <glyph glyph-name="aring" unicode="&#xe5;" horiz-adv-x="578" 
d="M288 851c80 0 122 -39 122 -117s-42 -118 -122 -118s-122 40 -122 118s42 117 122 117zM288 796c-41 0 -62 -21 -62 -62s21 -62 62 -62s62 21 62 62s-21 62 -62 62zM277 572c219 0 251 -73 251 -180v-344c0 -20 -7 -28 -24 -32c-88 -18 -176 -21 -230 -21
c-159 0 -247 11 -249 179c2 142 76 168 218 168l110 1v20c0 42 -26 59 -76 59h-196c-10 0 -13 3 -13 15v102c0 12 4 14 13 16c63 13 124 17 196 17zM353 238h-93c-50 0 -63 -17 -63 -52c0 -40 16 -51 71 -51c14 0 60 2 85 8v95z" />
    <glyph glyph-name="aringacute" unicode="&#x1fb;" horiz-adv-x="578" 
d="M305 959h173c6 0 10 -3 10 -10v-7c0 -5 -3 -10 -5 -12l-138 -88c43 -15 65 -52 65 -108c0 -78 -42 -118 -122 -118s-122 40 -122 118c0 57 23 94 67 109l60 110c2 4 6 6 12 6zM288 796c-41 0 -62 -21 -62 -62s21 -62 62 -62s62 21 62 62s-21 62 -62 62zM277 572
c219 0 251 -73 251 -180v-344c0 -20 -7 -28 -24 -32c-88 -18 -176 -21 -230 -21c-159 0 -247 11 -249 179c2 142 76 168 218 168l110 1v20c0 42 -26 59 -76 59h-196c-10 0 -13 3 -13 15v102c0 12 4 14 13 16c63 13 124 17 196 17zM353 238h-93c-50 0 -63 -17 -63 -52
c0 -40 16 -51 71 -51c14 0 60 2 85 8v95z" />
    <glyph glyph-name="atilde" unicode="&#xe3;" horiz-adv-x="578" 
d="M207 794c55 0 115 -39 147 -39c21 0 32 8 43 33c5 10 10 12 19 9l53 -14c9 -3 12 -9 10 -20c-23 -97 -49 -125 -111 -125c-55 0 -115 39 -147 39c-21 0 -32 -8 -43 -33c-5 -10 -10 -13 -18 -10l-53 15c-9 3 -13 9 -11 20c24 97 49 125 111 125zM277 572
c219 0 251 -73 251 -180v-344c0 -20 -7 -28 -24 -32c-88 -18 -176 -21 -230 -21c-159 0 -247 11 -249 179c2 142 76 168 218 168l110 1v20c0 42 -26 59 -76 59h-196c-10 0 -13 3 -13 15v102c0 12 4 14 13 16c63 13 124 17 196 17zM353 238h-93c-50 0 -63 -17 -63 -52
c0 -40 16 -51 71 -51c14 0 60 2 85 8v95z" />
    <glyph glyph-name="ae" unicode="&#xe6;" horiz-adv-x="903" 
d="M617 572c206 0 257 -57 257 -286v-31c0 -21 -7 -27 -30 -27h-312c1 -74 26 -83 104 -83h184c10 0 15 -5 15 -15v-102c0 -12 -5 -15 -14 -17c-56 -12 -135 -16 -204 -16c-58 0 -135 16 -171 37c-50 -26 -95 -37 -172 -37c-159 0 -247 11 -249 179c2 142 76 168 218 168
l110 1v20c0 42 -27 59 -76 59h-196c-11 0 -14 3 -14 15v102c0 12 4 14 14 16c62 13 124 17 196 17c74 0 132 -14 172 -43c41 29 98 43 168 43zM617 422c-59 0 -86 -20 -86 -88h168c-1 68 -24 88 -82 88zM360 238h-100c-50 0 -63 -17 -63 -52c0 -40 16 -54 70 -54
c40 0 82 7 107 18c-9 24 -14 57 -14 88z" />
    <glyph glyph-name="aeacute" unicode="&#x1fd;" horiz-adv-x="903" 
d="M462 809h174c6 0 10 -3 10 -10v-7c0 -5 -3 -10 -5 -12l-192 -157c-5 -4 -9 -3 -14 0l-55 31c-5 3 -6 9 -3 14l73 135c2 4 6 6 12 6zM617 572c206 0 257 -57 257 -286v-31c0 -21 -7 -27 -30 -27h-312c1 -74 26 -83 104 -83h184c10 0 15 -5 15 -15v-102
c0 -12 -5 -15 -14 -17c-56 -12 -135 -16 -204 -16c-58 0 -135 16 -171 37c-50 -26 -95 -37 -172 -37c-159 0 -247 11 -249 179c2 142 76 168 218 168l110 1v20c0 42 -27 59 -76 59h-196c-11 0 -14 3 -14 15v102c0 12 4 14 14 16c62 13 124 17 196 17c74 0 132 -14 172 -43
c41 29 98 43 168 43zM617 422c-59 0 -86 -20 -86 -88h168c-1 68 -24 88 -82 88zM360 238h-100c-50 0 -63 -17 -63 -52c0 -40 16 -54 70 -54c40 0 82 7 107 18c-9 24 -14 57 -14 88z" />
    <glyph glyph-name="b" unicode="b" horiz-adv-x="612" 
d="M68 783h144c12 0 15 -4 15 -16v-201c40 4 78 6 118 6c179 0 230 -67 230 -289c0 -227 -52 -288 -272 -288c-66 0 -148 8 -227 21c-14 2 -23 11 -23 29v722c0 12 3 16 15 16zM299 421h-72v-269c25 -5 63 -7 80 -7c89 0 94 39 94 138c0 115 -13 138 -102 138z" />
    <glyph glyph-name="c" unicode="c" horiz-adv-x="521" 
d="M303 572c35 0 113 -2 170 -16c11 -3 17 -7 17 -21v-97c0 -11 -6 -16 -18 -16h-169c-76 0 -91 -28 -91 -138c0 -111 15 -139 91 -139h169c12 0 18 -5 18 -16v-97c0 -14 -6 -18 -17 -21c-57 -14 -135 -16 -170 -16c-222 0 -265 58 -265 289s43 288 265 288z" />
    <glyph glyph-name="cacute" unicode="&#x107;" horiz-adv-x="521" 
d="M268 809h174c6 0 10 -3 10 -10v-7c0 -5 -3 -10 -5 -12l-192 -157c-5 -4 -8 -3 -14 0l-55 31c-5 3 -6 9 -3 14l73 135c2 4 6 6 12 6zM303 572c35 0 113 -2 170 -16c11 -3 17 -7 17 -21v-97c0 -11 -6 -16 -18 -16h-169c-76 0 -91 -28 -91 -138c0 -111 15 -139 91 -139h169
c12 0 18 -5 18 -16v-97c0 -14 -6 -18 -17 -21c-57 -14 -135 -16 -170 -16c-222 0 -265 58 -265 289s43 288 265 288z" />
    <glyph glyph-name="ccaron" unicode="&#x10d;" horiz-adv-x="521" 
d="M417 806l37 -19c9 -4 10 -10 4 -17l-99 -139c-4 -6 -8 -10 -22 -10h-106c-14 0 -18 4 -22 10l-99 139c-6 7 -5 13 4 17l38 19c6 4 12 5 18 0l114 -76l114 76c6 5 12 4 19 0zM303 572c35 0 113 -2 170 -16c11 -3 17 -7 17 -21v-97c0 -11 -6 -16 -18 -16h-169
c-76 0 -91 -28 -91 -138c0 -111 15 -139 91 -139h169c12 0 18 -5 18 -16v-97c0 -14 -6 -18 -17 -21c-57 -14 -135 -16 -170 -16c-222 0 -265 58 -265 289s43 288 265 288z" />
    <glyph glyph-name="ccedilla" unicode="&#xe7;" horiz-adv-x="521" 
d="M472 422h-169c-76 0 -91 -28 -91 -138c0 -111 15 -139 91 -139h169c12 0 18 -5 18 -16v-97c0 -14 -6 -18 -17 -21c-40 -10 -91 -14 -130 -15c10 -33 17 -70 17 -100c0 -52 -35 -78 -112 -78c-21 0 -77 3 -89 8c-8 3 -12 9 -12 18v74c0 10 3 13 13 13h36c34 0 59 -1 59 24
c0 10 -1 25 -4 41c-177 10 -213 76 -213 288c0 231 43 288 265 288c35 0 113 -2 170 -16c11 -3 17 -7 17 -21v-97c0 -11 -6 -16 -18 -16z" />
    <glyph glyph-name="ccircumflex" unicode="&#x109;" horiz-adv-x="521" 
d="M230 809h106c14 0 18 -4 22 -9l100 -140c5 -6 4 -13 -4 -17l-38 -19c-7 -4 -12 -5 -19 0l-113 76l-114 -76c-7 -5 -13 -4 -19 0l-38 19c-8 4 -10 11 -4 17l100 140c4 5 7 9 21 9zM303 572c35 0 113 -2 170 -16c11 -3 17 -7 17 -21v-97c0 -11 -6 -16 -18 -16h-169
c-76 0 -91 -28 -91 -138c0 -111 15 -139 91 -139h169c12 0 18 -5 18 -16v-97c0 -14 -6 -18 -17 -21c-57 -14 -135 -16 -170 -16c-222 0 -265 58 -265 289s43 288 265 288z" />
    <glyph glyph-name="cdotaccent" unicode="&#x10b;" horiz-adv-x="521" 
d="M281 798c60 0 92 -30 92 -83c0 -55 -32 -85 -92 -85c-61 0 -94 30 -94 85c0 53 33 83 94 83zM303 572c35 0 113 -2 170 -16c11 -3 17 -7 17 -21v-97c0 -11 -6 -16 -18 -16h-169c-76 0 -91 -28 -91 -138c0 -111 15 -139 91 -139h169c12 0 18 -5 18 -16v-97
c0 -14 -6 -18 -17 -21c-57 -14 -135 -16 -170 -16c-222 0 -265 58 -265 289s43 288 265 288z" />
    <glyph glyph-name="d" unicode="d" horiz-adv-x="612" 
d="M400 783h144c12 0 15 -4 15 -16v-722c0 -18 -9 -27 -23 -29c-79 -13 -161 -21 -227 -21c-220 0 -272 61 -272 288c0 222 51 289 230 289c40 0 78 -2 118 -6v201c0 12 3 16 15 16zM385 421h-72c-89 0 -102 -23 -102 -138c0 -99 5 -138 94 -138c17 0 55 2 80 7v269z" />
    <glyph glyph-name="eth" unicode="&#xf0;" horiz-adv-x="601" 
d="M160 782l154 1c8 0 14 -3 18 -10l22 -37l74 27c10 4 16 1 19 -9l10 -26c3 -9 0 -16 -9 -19l-64 -23l154 -261c24 -38 27 -92 27 -169c0 -208 -52 -261 -266 -261s-266 53 -267 261c1 198 47 248 232 248c14 0 31 -1 45 -3l-78 129l-84 -29c-10 -4 -16 -1 -19 9l-10 26
c-3 9 0 16 9 19l73 26l-50 83c-6 10 -2 18 10 18zM299 367c-76 0 -91 -25 -91 -111c0 -85 15 -111 91 -111c75 0 91 26 91 111c0 86 -16 111 -91 111z" />
    <glyph glyph-name="dcaron" unicode="&#x10f;" horiz-adv-x="644" 
d="M652 788h157c6 0 10 -3 10 -10v-7c0 -5 -3 -10 -5 -12l-144 -157c-4 -5 -9 -4 -14 0l-40 29c-5 3 -7 8 -5 16l26 131c1 7 6 10 15 10zM400 783h144c12 0 15 -4 15 -16v-722c0 -18 -9 -27 -23 -29c-79 -13 -161 -21 -227 -21c-220 0 -272 61 -272 288
c0 222 51 289 230 289c40 0 78 -2 118 -6v201c0 12 3 16 15 16zM385 421h-72c-89 0 -102 -23 -102 -138c0 -99 5 -138 94 -138c17 0 55 2 80 7v269z" />
    <glyph glyph-name="dcroat" unicode="&#x111;" horiz-adv-x="612" 
d="M559 718h59c10 0 15 -5 15 -15v-38c0 -10 -5 -15 -15 -15h-59v-605c0 -18 -9 -27 -23 -29c-79 -13 -161 -21 -227 -21c-220 0 -272 61 -272 288c0 222 51 289 230 289c40 0 78 -2 118 -6v84h-107c-10 0 -15 5 -15 15v38c0 10 5 15 15 15h107v49c0 12 3 16 15 16h144
c12 0 15 -4 15 -16v-49zM385 152v269h-72c-89 0 -102 -23 -102 -138c0 -99 5 -138 94 -138c17 0 55 2 80 7z" />
    <glyph glyph-name="e" unicode="e" horiz-adv-x="586" 
d="M300 572c206 0 257 -57 257 -286v-31c0 -21 -7 -27 -30 -27h-312c1 -74 26 -83 104 -83h184c10 0 15 -5 15 -15v-102c0 -12 -5 -15 -14 -17c-56 -12 -135 -16 -204 -16c-209 0 -263 57 -263 288c0 232 54 289 263 289zM300 422c-59 0 -86 -20 -86 -88h168
c0 68 -24 88 -82 88z" />
    <glyph glyph-name="eacute" unicode="&#xe9;" horiz-adv-x="586" 
d="M296 809h173c6 0 10 -3 10 -10v-7c0 -5 -3 -10 -5 -12l-192 -157c-5 -4 -8 -3 -14 0l-54 31c-5 3 -6 9 -3 14l73 135c2 4 6 6 12 6zM300 572c206 0 257 -57 257 -286v-31c0 -21 -7 -27 -30 -27h-312c1 -74 26 -83 104 -83h184c10 0 15 -5 15 -15v-102
c0 -12 -5 -15 -14 -17c-56 -12 -135 -16 -204 -16c-209 0 -263 57 -263 288c0 232 54 289 263 289zM300 422c-59 0 -86 -20 -86 -88h168c0 68 -24 88 -82 88z" />
    <glyph glyph-name="ebreve" unicode="&#x115;" horiz-adv-x="586" 
d="M399 795h72c10 0 16 -4 14 -15c-14 -107 -62 -144 -185 -144s-171 36 -185 143c-2 11 4 16 14 16h71c9 0 14 -3 17 -12c15 -36 38 -48 83 -48s67 12 82 48c4 9 9 12 17 12zM300 572c206 0 257 -57 257 -286v-31c0 -21 -7 -27 -30 -27h-312c1 -74 26 -83 104 -83h184
c10 0 15 -5 15 -15v-102c0 -12 -5 -15 -14 -17c-56 -12 -135 -16 -204 -16c-209 0 -263 57 -263 288c0 232 54 289 263 289zM300 422c-59 0 -86 -20 -86 -88h168c0 68 -24 88 -82 88z" />
    <glyph glyph-name="ecaron" unicode="&#x11b;" horiz-adv-x="586" 
d="M432 806l38 -19c8 -4 9 -10 4 -17l-100 -139c-4 -6 -7 -10 -21 -10h-106c-14 0 -18 4 -22 10l-100 139c-5 7 -4 13 4 17l38 19c7 4 12 5 19 0l114 -76l113 76c7 5 13 4 19 0zM300 572c206 0 257 -57 257 -286v-31c0 -21 -7 -27 -30 -27h-312c1 -74 26 -83 104 -83h184
c10 0 15 -5 15 -15v-102c0 -12 -5 -15 -14 -17c-56 -12 -135 -16 -204 -16c-209 0 -263 57 -263 288c0 232 54 289 263 289zM300 422c-59 0 -86 -20 -86 -88h168c0 68 -24 88 -82 88z" />
    <glyph glyph-name="ecircumflex" unicode="&#xea;" horiz-adv-x="586" 
d="M247 809h106c14 0 17 -4 21 -9l100 -140c5 -6 4 -13 -4 -17l-38 -19c-6 -4 -12 -5 -19 0l-113 76l-114 -76c-7 -5 -12 -4 -19 0l-38 19c-8 4 -9 11 -4 17l100 140c4 5 8 9 22 9zM300 572c206 0 257 -57 257 -286v-31c0 -21 -7 -27 -30 -27h-312c1 -74 26 -83 104 -83h184
c10 0 15 -5 15 -15v-102c0 -12 -5 -15 -14 -17c-56 -12 -135 -16 -204 -16c-209 0 -263 57 -263 288c0 232 54 289 263 289zM300 422c-59 0 -86 -20 -86 -88h168c0 68 -24 88 -82 88z" />
    <glyph glyph-name="edieresis" unicode="&#xeb;" horiz-adv-x="586" 
d="M181 794c55 0 85 -30 85 -79c0 -51 -30 -81 -85 -81c-56 0 -86 30 -86 81c0 49 30 79 86 79zM419 794c56 0 85 -30 85 -79c0 -51 -29 -81 -85 -81s-85 30 -85 81c0 49 29 79 85 79zM300 572c206 0 257 -57 257 -286v-31c0 -21 -7 -27 -30 -27h-312c1 -74 26 -83 104 -83
h184c10 0 15 -5 15 -15v-102c0 -12 -5 -15 -14 -17c-56 -12 -135 -16 -204 -16c-209 0 -263 57 -263 288c0 232 54 289 263 289zM300 422c-59 0 -86 -20 -86 -88h168c0 68 -24 88 -82 88z" />
    <glyph glyph-name="edotaccent" unicode="&#x117;" horiz-adv-x="586" 
d="M300 798c60 0 93 -30 93 -83c0 -55 -33 -85 -93 -85c-61 0 -94 30 -94 85c0 53 33 83 94 83zM300 572c206 0 257 -57 257 -286v-31c0 -21 -7 -27 -30 -27h-312c1 -74 26 -83 104 -83h184c10 0 15 -5 15 -15v-102c0 -12 -5 -15 -14 -17c-56 -12 -135 -16 -204 -16
c-209 0 -263 57 -263 288c0 232 54 289 263 289zM300 422c-59 0 -86 -20 -86 -88h168c0 68 -24 88 -82 88z" />
    <glyph glyph-name="egrave" unicode="&#xe8;" horiz-adv-x="586" 
d="M105 809h173c6 0 10 -2 12 -6l73 -135c3 -5 2 -11 -3 -14l-54 -31c-6 -3 -9 -4 -14 0l-192 157c-2 2 -5 7 -5 12v7c0 7 4 10 10 10zM300 572c206 0 257 -57 257 -286v-31c0 -21 -7 -27 -30 -27h-312c1 -74 26 -83 104 -83h184c10 0 15 -5 15 -15v-102
c0 -12 -5 -15 -14 -17c-56 -12 -135 -16 -204 -16c-209 0 -263 57 -263 288c0 232 54 289 263 289zM300 422c-59 0 -86 -20 -86 -88h168c0 68 -24 88 -82 88z" />
    <glyph glyph-name="emacron" unicode="&#x113;" horiz-adv-x="586" 
d="M147 756h306c10 0 15 -5 15 -15v-71c0 -10 -5 -15 -15 -15h-306c-10 0 -15 5 -15 15v71c0 10 5 15 15 15zM300 572c206 0 257 -57 257 -286v-31c0 -21 -7 -27 -30 -27h-312c1 -74 26 -83 104 -83h184c10 0 15 -5 15 -15v-102c0 -12 -5 -15 -14 -17
c-56 -12 -135 -16 -204 -16c-209 0 -263 57 -263 288c0 232 54 289 263 289zM300 422c-59 0 -86 -20 -86 -88h168c0 68 -24 88 -82 88z" />
    <glyph glyph-name="eogonek" unicode="&#x119;" horiz-adv-x="586" 
d="M300 572c206 0 257 -57 257 -286v-31c0 -21 -7 -27 -30 -27h-312c1 -74 26 -83 104 -83h184c10 0 15 -5 15 -15v-102c0 -12 -5 -15 -14 -17c-24 -5 -53 -10 -82 -11c-3 -18 -5 -34 -5 -45c0 -25 25 -24 60 -24h35c10 0 13 -3 13 -13v-74c0 -9 -4 -15 -12 -18
c-12 -5 -68 -8 -89 -8c-77 0 -112 26 -112 78c0 30 7 66 18 99h-30c-209 0 -263 57 -263 288c0 232 54 289 263 289zM300 422c-59 0 -86 -20 -86 -88h168c0 68 -24 88 -82 88z" />
    <glyph glyph-name="f" unicode="f" horiz-adv-x="408" 
d="M286 788c32 0 75 -3 118 -11c11 -2 17 -7 17 -21v-102c0 -11 -6 -16 -17 -16h-91c-30 0 -42 -6 -42 -32v-41h118c11 0 14 -4 12 -17l-19 -101c-2 -11 -8 -16 -17 -16h-94v-415c0 -11 -5 -16 -15 -16h-145c-10 0 -15 5 -15 16v415h-62c-11 0 -17 5 -17 16v103
c0 10 6 15 17 15h62v70c0 133 83 153 190 153z" />
    <glyph glyph-name="g" unicode="g" horiz-adv-x="614" 
d="M311 572c71 0 158 -9 227 -21c14 -2 23 -13 23 -29v-529c0 -127 -25 -202 -252 -202c-71 0 -144 4 -205 16c-9 2 -13 5 -13 16v93c0 11 3 15 13 15h187c76 0 96 16 96 70v7c-43 -10 -80 -13 -118 -13c-179 0 -232 67 -232 300c0 216 54 277 274 277zM387 422h-85
c-85 0 -91 -38 -91 -138c0 -115 15 -138 104 -138c19 0 49 1 72 6v270z" />
    <glyph glyph-name="gbreve" unicode="&#x11f;" horiz-adv-x="614" 
d="M406 795h71c11 0 16 -4 14 -15c-13 -107 -61 -144 -185 -144c-123 0 -171 36 -185 143c-2 11 4 16 14 16h71c9 0 14 -3 17 -12c16 -36 38 -48 83 -48c46 0 67 12 83 48c4 9 8 12 17 12zM311 572c71 0 158 -9 227 -21c14 -2 23 -13 23 -29v-529c0 -127 -25 -202 -252 -202
c-71 0 -144 4 -205 16c-9 2 -13 5 -13 16v93c0 11 3 15 13 15h187c76 0 96 16 96 70v7c-43 -10 -80 -13 -118 -13c-179 0 -232 67 -232 300c0 216 54 277 274 277zM387 422h-85c-85 0 -91 -38 -91 -138c0 -115 15 -138 104 -138c19 0 49 1 72 6v270z" />
    <glyph glyph-name="gcircumflex" unicode="&#x11d;" horiz-adv-x="614" 
d="M253 809h106c14 0 18 -4 21 -9l100 -140c6 -6 4 -13 -4 -17l-38 -19c-6 -4 -12 -5 -18 0l-114 76l-114 -76c-6 -5 -12 -4 -19 0l-38 19c-8 4 -9 11 -3 17l99 140c4 5 8 9 22 9zM311 572c71 0 158 -9 227 -21c14 -2 23 -13 23 -29v-529c0 -127 -25 -202 -252 -202
c-71 0 -144 4 -205 16c-9 2 -13 5 -13 16v93c0 11 3 15 13 15h187c76 0 96 16 96 70v7c-43 -10 -80 -13 -118 -13c-179 0 -232 67 -232 300c0 216 54 277 274 277zM387 422h-85c-85 0 -91 -38 -91 -138c0 -115 15 -138 104 -138c19 0 49 1 72 6v270z" />
    <glyph glyph-name="gcommaaccent" unicode="&#x123;" horiz-adv-x="614" 
d="M413 791l44 -25c5 -4 6 -9 3 -14l-63 -117c-2 -4 -6 -6 -12 -6h-149c-6 0 -10 3 -10 10v7c0 5 1 9 5 12l168 133c5 4 8 3 14 0zM311 572c71 0 158 -9 227 -21c14 -2 23 -13 23 -29v-529c0 -127 -25 -202 -252 -202c-71 0 -144 4 -205 16c-9 2 -13 5 -13 16v93
c0 11 3 15 13 15h187c76 0 96 16 96 70v7c-43 -10 -80 -13 -118 -13c-179 0 -232 67 -232 300c0 216 54 277 274 277zM387 422h-85c-85 0 -91 -38 -91 -138c0 -115 15 -138 104 -138c19 0 49 1 72 6v270z" />
    <glyph glyph-name="gdotaccent" unicode="&#x121;" horiz-adv-x="614" 
d="M306 798c60 0 93 -30 93 -83c0 -55 -33 -85 -93 -85c-61 0 -93 30 -93 85c0 53 32 83 93 83zM311 572c71 0 158 -9 227 -21c14 -2 23 -13 23 -29v-529c0 -127 -25 -202 -252 -202c-71 0 -144 4 -205 16c-9 2 -13 5 -13 16v93c0 11 3 15 13 15h187c76 0 96 16 96 70v7
c-43 -10 -80 -13 -118 -13c-179 0 -232 67 -232 300c0 216 54 277 274 277zM387 422h-85c-85 0 -91 -38 -91 -138c0 -115 15 -138 104 -138c19 0 49 1 72 6v270z" />
    <glyph glyph-name="h" unicode="h" horiz-adv-x="619" 
d="M69 783h145c10 0 15 -6 15 -16v-200c30 3 68 5 95 5c198 0 245 -43 245 -243v-313c0 -11 -5 -16 -15 -16h-145c-10 0 -14 5 -14 16v259c0 139 -8 147 -98 147h-67v-406c0 -11 -5 -16 -15 -16h-146c-10 0 -15 5 -15 16v751c0 10 5 16 15 16z" />
    <glyph glyph-name="hbar" unicode="&#x127;" horiz-adv-x="619" 
d="M324 572c198 0 245 -43 245 -243v-313c0 -11 -5 -16 -15 -16h-145c-10 0 -14 5 -14 16v259c0 139 -8 147 -98 147h-67v-406c0 -11 -5 -16 -15 -16h-146c-10 0 -15 5 -15 16v634h-55c-10 0 -15 5 -15 15v38c0 10 5 15 15 15h55v49c0 10 5 16 15 16h145c10 0 15 -6 15 -16
v-49h111c10 0 15 -5 15 -15v-38c0 -10 -5 -15 -15 -15h-111v-83c30 3 68 5 95 5z" />
    <glyph glyph-name="hcircumflex" unicode="&#x125;" horiz-adv-x="619" 
d="M86 1005h106c14 0 18 -4 22 -9l100 -140c5 -6 4 -13 -4 -17l-38 -19c-7 -4 -12 -5 -19 0l-113 76l-114 -76c-7 -5 -13 -4 -19 0l-38 19c-8 4 -10 11 -4 17l100 140c3 5 7 9 21 9zM68 783h145c10 0 15 -6 15 -16v-200c30 3 68 5 95 5c198 0 245 -43 245 -243v-313
c0 -11 -5 -16 -15 -16h-145c-10 0 -14 5 -14 16v259c0 139 -8 147 -98 147h-67v-406c0 -11 -5 -16 -15 -16h-146c-10 0 -15 5 -15 16v751c0 10 5 16 15 16z" />
    <glyph glyph-name="i" unicode="i" horiz-adv-x="282" 
d="M142 812c63 0 100 -34 100 -91c0 -58 -37 -92 -100 -92c-65 0 -102 34 -102 92c0 57 37 91 102 91zM69 567h144c10 0 15 -6 15 -16v-535c0 -11 -5 -16 -15 -16h-144c-10 0 -15 5 -15 16v535c0 10 5 16 15 16z" />
    <glyph glyph-name="dotlessi" unicode="&#x131;" horiz-adv-x="283" 
d="M69 567h145c10 0 15 -6 15 -16v-535c0 -11 -5 -16 -15 -16h-145c-10 0 -15 5 -15 16v535c0 10 5 16 15 16z" />
    <glyph glyph-name="iacute" unicode="&#xed;" horiz-adv-x="282" 
d="M150 809h174c6 0 10 -3 10 -10v-7c0 -5 -3 -10 -5 -12l-192 -157c-5 -4 -9 -3 -14 0l-55 31c-5 3 -6 9 -3 14l73 135c2 4 6 6 12 6zM69 567h144c10 0 15 -6 15 -16v-535c0 -11 -5 -16 -15 -16h-144c-10 0 -15 5 -15 16v535c0 10 5 16 15 16z" />
    <glyph glyph-name="icaron" unicode="&#x1d0;" horiz-adv-x="283" 
d="M274 806l38 -19c8 -4 10 -10 4 -17l-100 -139c-4 -6 -7 -10 -21 -10h-106c-14 0 -18 4 -22 10l-100 139c-5 7 -4 13 4 17l38 19c7 4 12 5 19 0l114 -76l113 76c7 5 13 4 19 0zM69 567h145c10 0 15 -6 15 -16v-535c0 -11 -5 -16 -15 -16h-145c-10 0 -15 5 -15 16v535
c0 10 5 16 15 16z" />
    <glyph glyph-name="icircumflex" unicode="&#xee;" horiz-adv-x="282" 
d="M88 809h106c14 0 18 -4 22 -9l100 -140c5 -6 4 -13 -4 -17l-38 -19c-7 -4 -12 -5 -19 0l-113 76l-114 -76c-7 -5 -12 -4 -19 0l-38 19c-8 4 -9 11 -4 17l100 140c4 5 7 9 21 9zM213 0h-144c-10 0 -15 5 -15 16v535c0 10 5 16 15 16h144c10 0 15 -6 15 -16v-535
c0 -11 -5 -16 -15 -16z" />
    <glyph glyph-name="idieresis" unicode="&#xef;" horiz-adv-x="282" 
d="M22 794c55 0 85 -30 85 -79c0 -51 -30 -81 -85 -81c-56 0 -86 30 -86 81c0 49 30 79 86 79zM260 794c56 0 85 -30 85 -79c0 -51 -29 -81 -85 -81s-85 30 -85 81c0 49 29 79 85 79zM69 567h144c10 0 15 -6 15 -16v-535c0 -11 -5 -16 -15 -16h-144c-10 0 -15 5 -15 16v535
c0 10 5 16 15 16z" />
    <glyph glyph-name="i.loclTRK" horiz-adv-x="283" 
d="M142 798c60 0 92 -30 92 -83c0 -55 -32 -85 -92 -85c-61 0 -94 30 -94 85c0 53 33 83 94 83zM69 567h145c10 0 15 -6 15 -16v-535c0 -11 -5 -16 -15 -16h-145c-10 0 -15 5 -15 16v535c0 10 5 16 15 16z" />
    <glyph glyph-name="igrave" unicode="&#xec;" horiz-adv-x="283" 
d="M-34 809h174c6 0 10 -2 12 -6l73 -135c3 -5 2 -11 -3 -14l-55 -31c-6 -3 -9 -4 -14 0l-192 157c-2 2 -5 7 -5 12v7c0 7 4 10 10 10zM69 567h145c10 0 15 -6 15 -16v-535c0 -11 -5 -16 -15 -16h-145c-10 0 -15 5 -15 16v535c0 10 5 16 15 16z" />
    <glyph glyph-name="ij" unicode="&#x133;" horiz-adv-x="572" 
d="M142 812c63 0 100 -34 100 -91c0 -58 -37 -92 -100 -92c-65 0 -102 34 -102 92c0 57 37 91 102 91zM69 567h144c10 0 15 -6 15 -16v-535c0 -11 -5 -16 -15 -16h-144c-10 0 -15 5 -15 16v535c0 10 5 16 15 16zM431 812c64 0 101 -34 101 -91c0 -58 -37 -92 -101 -92
s-101 34 -101 92c0 57 37 91 101 91zM358 567h145c10 0 15 -6 15 -16v-614c0 -126 -57 -146 -157 -146c-27 0 -81 6 -96 10c-11 4 -17 7 -17 21v104c0 11 6 15 18 15h26c43 0 51 6 51 47v563c0 10 5 16 15 16z" />
    <glyph glyph-name="imacron" unicode="&#x12b;" horiz-adv-x="283" 
d="M-11 756h305c10 0 15 -5 15 -15v-71c0 -10 -5 -15 -15 -15h-305c-10 0 -15 5 -15 15v71c0 10 5 15 15 15zM69 567h145c10 0 15 -6 15 -16v-535c0 -11 -5 -16 -15 -16h-145c-10 0 -15 5 -15 16v535c0 10 5 16 15 16z" />
    <glyph glyph-name="iogonek" unicode="&#x12f;" horiz-adv-x="283" 
d="M142 798c60 0 93 -30 93 -83c0 -55 -33 -85 -93 -85c-61 0 -94 30 -94 85c0 53 33 83 94 83zM69 567h145c10 0 15 -6 15 -16v-535c0 -11 -5 -16 -15 -16h-73c-3 -18 -5 -34 -5 -45c0 -25 25 -24 59 -24h36c10 0 13 -3 13 -13v-74c0 -9 -4 -15 -12 -18
c-12 -5 -68 -8 -89 -8c-77 0 -112 26 -112 78c0 36 11 81 23 117v538c0 10 5 16 15 16z" />
    <glyph glyph-name="itilde" unicode="&#x129;" horiz-adv-x="283" 
d="M61 794c55 0 115 -39 147 -39c21 0 32 8 44 33c4 10 9 12 18 9l53 -14c9 -3 12 -9 10 -20c-23 -97 -49 -125 -111 -125c-55 0 -115 39 -146 39c-22 0 -33 -8 -44 -33c-5 -10 -10 -13 -18 -10l-53 15c-9 3 -13 9 -11 20c24 97 50 125 111 125zM69 567h145
c10 0 15 -6 15 -16v-535c0 -11 -5 -16 -15 -16h-145c-10 0 -15 5 -15 16v535c0 10 5 16 15 16z" />
    <glyph glyph-name="j" unicode="j" horiz-adv-x="290" 
d="M149 812c64 0 101 -34 101 -91c0 -58 -37 -92 -101 -92s-101 34 -101 92c0 57 37 91 101 91zM76 567h145c10 0 15 -6 15 -16v-614c0 -126 -57 -146 -157 -146c-27 0 -81 6 -96 10c-11 4 -17 7 -17 21v104c0 11 6 15 18 15h26c43 0 51 6 51 47v563c0 10 5 16 15 16z" />
    <glyph glyph-name="jcircumflex" unicode="&#x135;" horiz-adv-x="290" 
d="M92 809h106c14 0 18 -4 22 -9l100 -140c5 -6 4 -13 -4 -17l-38 -19c-7 -4 -12 -5 -19 0l-113 76l-114 -76c-7 -5 -12 -4 -19 0l-38 19c-8 4 -9 11 -4 17l100 140c4 5 7 9 21 9zM76 567h145c10 0 15 -6 15 -16v-614c0 -126 -57 -146 -157 -146c-27 0 -81 6 -96 10
c-11 4 -17 7 -17 21v104c0 11 6 15 18 15h26c43 0 51 6 51 47v563c0 10 5 16 15 16z" />
    <glyph glyph-name="k" unicode="k" horiz-adv-x="584" 
d="M69 783h144c10 0 15 -6 15 -16v-392l133 182c5 6 12 10 21 10h160c18 0 18 -8 9 -19l-152 -205l189 -316c7 -13 10 -27 -17 -27h-153c-10 0 -18 4 -22 11l-168 293v-288c0 -11 -5 -16 -15 -16h-144c-10 0 -15 5 -15 16v751c0 10 5 16 15 16z" />
    <glyph glyph-name="kcommaaccent" unicode="&#x137;" horiz-adv-x="585" 
d="M69 783h145c10 0 15 -6 15 -16v-392l133 182c5 6 12 10 21 10h160c18 0 18 -8 9 -19l-152 -205l189 -316c7 -13 10 -27 -17 -27h-154c-10 0 -17 4 -22 11l-167 293v-288c0 -11 -5 -16 -15 -16h-145c-10 0 -15 5 -15 16v751c0 10 5 16 15 16zM240 -40h149
c6 0 10 -3 10 -10v-7c0 -5 -3 -10 -5 -12l-168 -133c-5 -4 -8 -3 -14 0l-44 26c-5 3 -6 9 -3 14l63 116c2 4 6 6 12 6z" />
    <glyph glyph-name="kgreenlandic" unicode="&#x138;" horiz-adv-x="623" 
d="M430 567h170c17 0 17 -8 9 -19l-181 -259l186 -264c8 -13 10 -26 -15 -26h-175c-10 0 -18 4 -22 11l-163 236v-230c0 -11 -5 -16 -15 -16h-155c-10 0 -15 5 -15 16v535c0 10 5 16 15 16h155c10 0 15 -6 15 -16v-239l170 245c4 6 12 10 21 10z" />
    <glyph glyph-name="l" unicode="l" horiz-adv-x="282" 
d="M69 783h144c10 0 15 -6 15 -16v-751c0 -11 -5 -16 -15 -16h-144c-10 0 -15 5 -15 16v751c0 10 5 16 15 16z" />
    <glyph glyph-name="lacute" unicode="&#x13a;" horiz-adv-x="282" 
d="M149 1006h173c6 0 10 -3 10 -10v-7c0 -5 -3 -10 -5 -12l-192 -157c-5 -4 -8 -3 -14 0l-54 31c-5 3 -6 9 -3 14l73 135c2 4 6 6 12 6zM69 783h144c10 0 15 -6 15 -16v-751c0 -11 -5 -16 -15 -16h-144c-10 0 -15 5 -15 16v751c0 10 5 16 15 16z" />
    <glyph glyph-name="lcaron" unicode="&#x13e;" horiz-adv-x="314" 
d="M321 788h157c6 0 10 -3 10 -10v-7c0 -5 -3 -10 -5 -12l-144 -157c-4 -5 -9 -4 -14 0l-40 29c-5 3 -6 8 -5 16l26 131c1 7 6 10 15 10zM69 783h145c10 0 15 -6 15 -16v-751c0 -11 -5 -16 -15 -16h-145c-10 0 -15 5 -15 16v751c0 10 5 16 15 16z" />
    <glyph glyph-name="lcommaaccent" unicode="&#x13c;" horiz-adv-x="283" 
d="M69 783h145c10 0 15 -6 15 -16v-751c0 -11 -5 -16 -15 -16h-145c-10 0 -15 5 -15 16v751c0 10 5 16 15 16zM64 -40h149c6 0 10 -3 10 -10v-7c0 -5 -3 -10 -5 -12l-168 -133c-5 -4 -8 -3 -14 0l-44 26c-5 3 -6 9 -3 14l63 116c2 4 6 6 12 6z" />
    <glyph glyph-name="ldot" unicode="&#x140;" horiz-adv-x="488" 
d="M69 783h145c10 0 15 -6 15 -16v-751c0 -11 -5 -16 -15 -16h-145c-10 0 -15 5 -15 16v751c0 10 5 16 15 16zM386 474c60 0 93 -29 93 -83s-33 -84 -93 -84c-61 0 -94 30 -94 84s33 83 94 83z" />
    <glyph glyph-name="lslash" unicode="&#x142;" horiz-adv-x="343" 
d="M85 783h145c10 0 15 -6 15 -16v-290l54 31c10 5 17 4 21 -5l20 -34c5 -8 5 -14 -6 -20l-89 -51v-382c0 -11 -5 -16 -15 -16h-145c-10 0 -15 5 -15 16v281l-34 -20c-9 -6 -16 -3 -19 6l-20 35c-5 8 -3 15 5 20l68 39v390c0 10 5 16 15 16z" />
    <glyph glyph-name="m" unicode="m" horiz-adv-x="893" 
d="M636 572c149 0 208 -53 207 -204v-352c0 -11 -4 -16 -14 -16h-146c-10 0 -14 5 -14 16v259c0 139 -9 147 -81 147c-21 0 -43 -2 -63 -5c8 -24 11 -53 11 -88l-1 -313c0 -11 -3 -16 -14 -16h-146c-10 0 -14 5 -14 16v308c-1 92 -13 98 -81 98h-52v-406
c0 -11 -5 -16 -15 -16h-145c-10 0 -14 5 -15 16v523c0 11 5 13 14 15c56 14 149 18 203 18c84 0 150 -15 186 -33c58 23 127 33 180 33z" />
    <glyph glyph-name="n" unicode="n" horiz-adv-x="618" 
d="M323 572c198 0 245 -43 245 -243v-313c0 -11 -5 -16 -15 -16h-145c-10 0 -14 5 -14 16v259c0 139 -9 147 -98 147h-67v-406c0 -11 -5 -16 -15 -16h-147c-10 0 -14 5 -14 16v523c0 12 5 13 14 15c62 15 167 18 256 18z" />
    <glyph glyph-name="nacute" unicode="&#x144;" horiz-adv-x="618" 
d="M293 809h174c6 0 10 -3 10 -10v-7c0 -5 -3 -10 -5 -12l-192 -157c-5 -4 -8 -3 -14 0l-55 31c-5 3 -6 9 -3 14l73 135c2 4 6 6 12 6zM323 572c198 0 245 -43 245 -243v-313c0 -11 -5 -16 -15 -16h-145c-10 0 -14 5 -14 16v259c0 139 -9 147 -98 147h-67v-406
c0 -11 -5 -16 -15 -16h-147c-10 0 -14 5 -14 16v523c0 12 5 13 14 15c62 15 167 18 256 18z" />
    <glyph glyph-name="napostrophe" unicode="&#x149;" horiz-adv-x="618" 
d="M-11 788h157c6 0 10 -3 10 -10v-7c0 -5 -3 -10 -5 -12l-144 -157c-4 -5 -9 -4 -14 0l-40 29c-5 3 -6 8 -5 16l26 131c1 7 6 10 15 10zM323 572c198 0 245 -43 245 -243v-313c0 -11 -5 -16 -15 -16h-145c-10 0 -14 5 -14 16v259c0 139 -9 147 -98 147h-67v-406
c0 -11 -5 -16 -15 -16h-147c-10 0 -14 5 -14 16v523c0 12 5 13 14 15c62 15 167 18 256 18z" />
    <glyph glyph-name="ncaron" unicode="&#x148;" horiz-adv-x="618" 
d="M440 806l38 -19c8 -4 10 -10 4 -17l-100 -139c-3 -6 -7 -10 -21 -10h-106c-14 0 -18 4 -22 10l-99 139c-6 7 -5 13 3 17l38 19c7 4 12 5 19 0l114 -76l114 76c6 5 12 4 18 0zM323 572c198 0 245 -43 245 -243v-313c0 -11 -5 -16 -15 -16h-145c-10 0 -14 5 -14 16v259
c0 139 -9 147 -98 147h-67v-406c0 -11 -5 -16 -15 -16h-147c-10 0 -14 5 -14 16v523c0 12 5 13 14 15c62 15 167 18 256 18z" />
    <glyph glyph-name="ncommaaccent" unicode="&#x146;" horiz-adv-x="618" 
d="M323 572c198 0 245 -43 245 -243v-313c0 -11 -5 -16 -15 -16h-145c-10 0 -14 5 -14 16v259c0 139 -9 147 -98 147h-67v-406c0 -11 -5 -16 -15 -16h-147c-10 0 -14 5 -14 16v523c0 12 5 13 14 15c62 15 167 18 256 18zM233 -40h149c6 0 10 -3 10 -10v-7
c0 -5 -3 -10 -5 -12l-168 -133c-5 -4 -8 -3 -14 0l-44 26c-5 3 -6 9 -3 14l63 116c2 4 6 6 12 6z" />
    <glyph glyph-name="eng" unicode="&#x14b;" horiz-adv-x="618" 
d="M323 572c198 0 245 -43 245 -243v-392c0 -126 -56 -146 -156 -146c-28 0 -82 6 -96 10c-12 4 -17 7 -17 21v104c0 11 6 15 17 15h26c44 0 52 6 52 47v287c0 139 -9 147 -98 147h-67v-406c0 -11 -5 -16 -15 -16h-147c-10 0 -14 5 -14 16v523c0 12 5 13 14 15
c62 15 167 18 256 18z" />
    <glyph glyph-name="ntilde" unicode="&#xf1;" horiz-adv-x="618" 
d="M227 794c55 0 115 -39 147 -39c21 0 32 8 44 33c4 10 9 12 18 9l53 -14c9 -3 12 -9 10 -20c-23 -97 -49 -125 -111 -125c-55 0 -115 39 -146 39c-21 0 -33 -8 -44 -33c-4 -10 -10 -13 -18 -10l-53 15c-9 3 -13 9 -11 20c24 97 50 125 111 125zM323 572
c198 0 245 -43 245 -243v-313c0 -11 -5 -16 -15 -16h-145c-10 0 -14 5 -14 16v259c0 139 -9 147 -98 147h-67v-406c0 -11 -5 -16 -15 -16h-147c-10 0 -14 5 -14 16v523c0 12 5 13 14 15c62 15 167 18 256 18z" />
    <glyph glyph-name="o" unicode="o" horiz-adv-x="606" 
d="M303 572c215 0 266 -57 266 -289c0 -231 -51 -288 -266 -288s-266 57 -266 288c0 232 51 289 266 289zM303 422c-76 0 -91 -28 -91 -139c0 -110 15 -138 91 -138s91 28 91 138c0 111 -15 139 -91 139z" />
    <glyph glyph-name="oacute" unicode="&#xf3;" horiz-adv-x="606" 
d="M313 809h173c6 0 10 -3 10 -10v-7c0 -5 -2 -10 -5 -12l-192 -157c-5 -4 -8 -3 -14 0l-54 31c-5 3 -6 9 -3 14l73 135c2 4 6 6 12 6zM303 572c215 0 266 -57 266 -289c0 -231 -51 -288 -266 -288s-266 57 -266 288c0 232 51 289 266 289zM303 422c-76 0 -91 -28 -91 -139
c0 -110 15 -138 91 -138s91 28 91 138c0 111 -15 139 -91 139z" />
    <glyph glyph-name="obreve" unicode="&#x14f;" horiz-adv-x="606" 
d="M403 795h71c11 0 16 -4 14 -15c-13 -107 -61 -144 -185 -144c-123 0 -171 36 -184 143c-2 11 3 16 14 16h70c9 0 14 -3 17 -12c16 -36 38 -48 83 -48c46 0 67 12 83 48c4 9 9 12 17 12zM303 572c215 0 266 -57 266 -289c0 -231 -51 -288 -266 -288s-266 57 -266 288
c0 232 51 289 266 289zM303 422c-76 0 -91 -28 -91 -139c0 -110 15 -138 91 -138s91 28 91 138c0 111 -15 139 -91 139z" />
    <glyph glyph-name="ocaron" unicode="&#x1d2;" horiz-adv-x="606" 
d="M436 806l38 -19c8 -4 9 -10 3 -17l-99 -139c-4 -6 -8 -10 -22 -10h-106c-14 0 -18 4 -22 10l-99 139c-6 7 -5 13 4 17l38 19c6 4 12 5 18 0l114 -76l114 76c6 5 12 4 19 0zM303 572c215 0 266 -57 266 -289c0 -231 -51 -288 -266 -288s-266 57 -266 288
c0 232 51 289 266 289zM303 422c-76 0 -91 -28 -91 -139c0 -110 15 -138 91 -138s91 28 91 138c0 111 -15 139 -91 139z" />
    <glyph glyph-name="ocircumflex" unicode="&#xf4;" horiz-adv-x="606" 
d="M250 809h106c14 0 18 -4 22 -9l99 -140c6 -6 5 -13 -3 -17l-38 -19c-7 -4 -13 -5 -19 0l-114 76l-114 -76c-6 -5 -12 -4 -18 0l-38 19c-9 4 -10 11 -4 17l99 140c4 5 8 9 22 9zM303 572c215 0 266 -57 266 -289c0 -231 -51 -288 -266 -288s-266 57 -266 288
c0 232 51 289 266 289zM303 422c-76 0 -91 -28 -91 -139c0 -110 15 -138 91 -138s91 28 91 138c0 111 -15 139 -91 139z" />
    <glyph glyph-name="odieresis" unicode="&#xf6;" horiz-adv-x="606" 
d="M184 794c56 0 85 -30 85 -79c0 -51 -29 -81 -85 -81s-86 30 -86 81c0 49 30 79 86 79zM423 794c55 0 85 -30 85 -79c0 -51 -30 -81 -85 -81c-56 0 -86 30 -86 81c0 49 30 79 86 79zM303 572c215 0 266 -57 266 -289c0 -231 -51 -288 -266 -288s-266 57 -266 288
c0 232 51 289 266 289zM303 422c-76 0 -91 -28 -91 -139c0 -110 15 -138 91 -138s91 28 91 138c0 111 -15 139 -91 139z" />
    <glyph glyph-name="ograve" unicode="&#xf2;" horiz-adv-x="606" 
d="M102 809h174c6 0 10 -2 12 -6l73 -135c3 -5 2 -11 -3 -14l-55 -31c-6 -3 -9 -4 -14 0l-192 157c-2 2 -5 7 -5 12v7c0 7 4 10 10 10zM303 572c215 0 266 -57 266 -289c0 -231 -51 -288 -266 -288s-266 57 -266 288c0 232 51 289 266 289zM303 422c-76 0 -91 -28 -91 -139
c0 -110 15 -138 91 -138s91 28 91 138c0 111 -15 139 -91 139z" />
    <glyph glyph-name="ohungarumlaut" unicode="&#x151;" horiz-adv-x="606" 
d="M249 809h105c7 0 10 -3 10 -10v-7c0 -5 -2 -10 -5 -12l-152 -146c-5 -4 -9 -4 -14 0l-26 20c-5 4 -6 9 -3 14l73 135c2 4 6 6 12 6zM441 809h105c6 0 10 -3 10 -10v-7c0 -5 -3 -10 -5 -12l-152 -146c-5 -4 -9 -4 -14 0l-26 20c-5 4 -6 9 -3 14l73 135c2 4 6 6 12 6z
M303 572c215 0 266 -57 266 -289c0 -231 -51 -288 -266 -288s-266 57 -266 288c0 232 51 289 266 289zM303 422c-76 0 -91 -28 -91 -139c0 -110 15 -138 91 -138s91 28 91 138c0 111 -15 139 -91 139z" />
    <glyph glyph-name="omacron" unicode="&#x14d;" horiz-adv-x="606" 
d="M151 756h305c10 0 15 -5 15 -15v-71c0 -10 -5 -15 -15 -15h-305c-10 0 -15 5 -15 15v71c0 10 5 15 15 15zM303 572c215 0 266 -57 266 -289c0 -231 -51 -288 -266 -288s-266 57 -266 288c0 232 51 289 266 289zM303 422c-76 0 -91 -28 -91 -139c0 -110 15 -138 91 -138
s91 28 91 138c0 111 -15 139 -91 139z" />
    <glyph glyph-name="oslash" unicode="&#xf8;" horiz-adv-x="606" 
d="M303 572c61 0 109 -5 147 -17l24 35c6 8 13 11 21 4l34 -23c8 -5 9 -12 3 -21l-21 -30c44 -43 58 -116 58 -237c0 -231 -51 -288 -266 -288c-63 0 -111 5 -148 18l-26 -37c-6 -9 -13 -10 -20 -3l-34 24c-8 5 -9 12 -4 20l23 32c-43 43 -57 115 -57 234
c0 232 51 289 266 289zM303 422c-76 0 -91 -28 -91 -139c0 -25 1 -45 3 -61l136 193c-12 5 -28 7 -48 7zM390 348l-137 -195c12 -6 29 -8 50 -8c76 0 91 28 91 138c0 27 -1 48 -4 65z" />
    <glyph glyph-name="oslashacute" unicode="&#x1ff;" horiz-adv-x="606" 
d="M323 809h173c6 0 10 -3 10 -10v-7c0 -5 -3 -10 -5 -12l-192 -157c-5 -4 -8 -3 -14 0l-54 31c-5 3 -6 9 -3 14l73 135c2 4 6 6 12 6zM569 283c0 -231 -51 -288 -266 -288c-63 0 -111 5 -148 18l-26 -37c-6 -9 -13 -10 -20 -3l-34 24c-8 5 -9 12 -4 20l23 32
c-43 43 -57 115 -57 234c0 232 51 289 266 289c61 0 109 -5 147 -17l24 35c6 8 13 11 21 4l34 -23c8 -5 9 -12 3 -21l-21 -30c44 -43 58 -116 58 -237zM303 422c-76 0 -91 -28 -91 -139c0 -25 1 -45 3 -61l136 193c-12 5 -28 7 -48 7zM390 348l-137 -195c12 -6 29 -8 50 -8
c76 0 91 28 91 138c0 27 -1 48 -4 65z" />
    <glyph glyph-name="otilde" unicode="&#xf5;" horiz-adv-x="606" 
d="M223 794c55 0 114 -39 146 -39c21 0 33 8 44 33c4 10 10 12 18 9l53 -14c10 -3 13 -9 10 -20c-23 -97 -49 -125 -110 -125c-56 0 -115 39 -147 39c-21 0 -33 -8 -44 -33c-4 -10 -10 -13 -18 -10l-53 15c-9 3 -12 9 -10 20c23 97 49 125 111 125zM303 572
c215 0 266 -57 266 -289c0 -231 -51 -288 -266 -288s-266 57 -266 288c0 232 51 289 266 289zM303 422c-76 0 -91 -28 -91 -139c0 -110 15 -138 91 -138s91 28 91 138c0 111 -15 139 -91 139z" />
    <glyph glyph-name="oe" unicode="&#x153;" horiz-adv-x="947" 
d="M660 572c207 0 257 -57 258 -286v-31c0 -21 -8 -27 -30 -27h-312c1 -74 25 -83 103 -83h184c10 0 15 -5 15 -15v-102c0 -12 -5 -15 -14 -17c-56 -12 -135 -16 -204 -16c-75 0 -139 16 -176 46c-38 -30 -103 -46 -181 -46c-214 0 -266 57 -266 288c0 232 52 289 266 289
c81 0 141 -15 181 -46c39 31 98 46 176 46zM303 422c-75 0 -90 -28 -90 -139c0 -110 15 -138 90 -138c77 0 92 28 92 138c0 111 -15 139 -92 139zM660 422c-59 0 -85 -20 -86 -88h168c0 68 -24 88 -82 88z" />
    <glyph glyph-name="p" unicode="p" horiz-adv-x="615" 
d="M303 572c220 0 275 -62 275 -277c0 -233 -54 -300 -232 -300c-39 0 -75 1 -118 6v-189c0 -10 -5 -15 -15 -15h-145c-10 0 -15 5 -15 15v710c0 16 9 26 24 29c79 13 160 21 226 21zM313 422h-85v-271c23 -4 52 -5 71 -5c89 0 104 23 104 138c0 99 -4 138 -90 138z" />
    <glyph glyph-name="thorn" unicode="&#xfe;" horiz-adv-x="614" 
d="M69 783h145c11 0 15 -4 15 -16v-201c40 4 78 6 118 6c178 0 230 -67 230 -289c0 -227 -52 -288 -272 -288c-26 0 -49 1 -76 3v-186c0 -10 -5 -15 -15 -15h-145c-10 0 -15 5 -15 15v955c0 12 4 16 15 16zM301 421h-72v-269c25 -5 63 -7 79 -7c90 0 94 39 94 138
c0 115 -12 138 -101 138z" />
    <glyph glyph-name="q" unicode="q" horiz-adv-x="615" 
d="M312 572c66 0 147 -8 226 -21c15 -3 24 -13 24 -29v-710c0 -10 -5 -15 -15 -15h-145c-10 0 -15 5 -15 15v189c-43 -5 -79 -6 -118 -6c-178 0 -232 67 -232 300c0 216 55 277 275 277zM387 422h-85c-86 0 -90 -38 -90 -138c0 -115 15 -138 104 -138c19 0 48 1 71 5v271z
" />
    <glyph glyph-name="r" unicode="r" horiz-adv-x="415" 
d="M244 572c31 0 101 -3 143 -12c12 -2 17 -7 17 -21v-102c0 -10 -6 -15 -17 -15h-99c-43 0 -61 -7 -61 -50v-356c0 -11 -5 -16 -15 -16h-145c-10 0 -15 5 -15 16v403c0 133 85 153 192 153z" />
    <glyph glyph-name="racute" unicode="&#x155;" horiz-adv-x="415" 
d="M228 809h173c6 0 10 -3 10 -10v-7c0 -5 -3 -10 -5 -12l-192 -157c-5 -4 -8 -3 -14 0l-54 31c-5 3 -6 9 -3 14l73 135c2 4 6 6 12 6zM244 572c31 0 101 -3 143 -12c12 -2 17 -7 17 -21v-102c0 -10 -6 -15 -17 -15h-99c-43 0 -61 -7 -61 -50v-356c0 -11 -5 -16 -15 -16
h-145c-10 0 -15 5 -15 16v403c0 133 85 153 192 153z" />
    <glyph glyph-name="rcaron" unicode="&#x159;" horiz-adv-x="415" 
d="M344 806l38 -19c8 -4 10 -10 4 -17l-100 -139c-3 -6 -7 -10 -21 -10h-106c-14 0 -18 4 -22 10l-100 139c-5 7 -4 13 4 17l38 19c7 4 12 5 19 0l114 -76l113 76c7 5 13 4 19 0zM244 572c31 0 101 -3 143 -12c12 -2 17 -7 17 -21v-102c0 -10 -6 -15 -17 -15h-99
c-43 0 -61 -7 -61 -50v-356c0 -11 -5 -16 -15 -16h-145c-10 0 -15 5 -15 16v403c0 133 85 153 192 153z" />
    <glyph glyph-name="rcommaaccent" unicode="&#x157;" horiz-adv-x="415" 
d="M244 572c31 0 101 -3 143 -12c12 -2 17 -7 17 -21v-102c0 -10 -6 -15 -17 -15h-99c-43 0 -61 -7 -61 -50v-356c0 -11 -5 -16 -15 -16h-145c-10 0 -15 5 -15 16v403c0 133 85 153 192 153zM63 -40h149c6 0 10 -3 10 -10v-7c0 -5 -3 -10 -5 -12l-168 -133
c-5 -4 -8 -3 -14 0l-44 26c-5 3 -6 9 -3 14l63 116c2 4 6 6 12 6z" />
    <glyph glyph-name="s" unicode="s" horiz-adv-x="514" 
d="M283 572c41 0 102 -4 161 -16c12 -3 16 -7 16 -16v-92c0 -12 -4 -16 -17 -16h-179c-34 0 -51 -8 -51 -28v-9c0 -14 11 -24 41 -34l125 -41c81 -27 107 -80 107 -155v-18c0 -118 -95 -152 -217 -152c-88 0 -156 3 -220 10c-13 0 -17 4 -17 15v100c0 12 4 16 17 16h216
c39 0 51 5 51 24v7c0 15 -12 24 -54 38l-114 38c-79 26 -105 89 -105 157v18c0 106 77 154 240 154z" />
    <glyph glyph-name="sacute" unicode="&#x15b;" horiz-adv-x="514" 
d="M278 809h174c6 0 10 -3 10 -10v-7c0 -5 -3 -10 -5 -12l-192 -157c-5 -4 -8 -3 -14 0l-55 31c-5 3 -6 9 -3 14l73 135c2 4 6 6 12 6zM283 572c41 0 102 -4 161 -16c12 -3 16 -7 16 -16v-92c0 -12 -4 -16 -17 -16h-179c-34 0 -51 -8 -51 -28v-9c0 -14 11 -24 41 -34
l125 -41c81 -27 107 -80 107 -155v-18c0 -118 -95 -152 -217 -152c-88 0 -156 3 -220 10c-13 0 -17 4 -17 15v100c0 12 4 16 17 16h216c39 0 51 5 51 24v7c0 15 -12 24 -54 38l-114 38c-79 26 -105 89 -105 157v18c0 106 77 154 240 154z" />
    <glyph glyph-name="scaron" unicode="&#x161;" horiz-adv-x="514" 
d="M399 806l38 -19c8 -4 10 -10 4 -17l-100 -139c-4 -6 -7 -10 -21 -10h-106c-14 0 -18 4 -22 10l-100 139c-5 7 -4 13 4 17l38 19c7 4 12 5 19 0l114 -76l113 76c7 5 13 4 19 0zM283 572c41 0 102 -4 161 -16c12 -3 16 -7 16 -16v-92c0 -12 -4 -16 -17 -16h-179
c-34 0 -51 -8 -51 -28v-9c0 -14 11 -24 41 -34l125 -41c81 -27 107 -80 107 -155v-18c0 -118 -95 -152 -217 -152c-88 0 -156 3 -220 10c-13 0 -17 4 -17 15v100c0 12 4 16 17 16h216c39 0 51 5 51 24v7c0 15 -12 24 -54 38l-114 38c-79 26 -105 89 -105 157v18
c0 106 77 154 240 154z" />
    <glyph glyph-name="scedilla" unicode="&#x15f;" horiz-adv-x="514" 
d="M254 361l125 -41c81 -27 107 -80 107 -155v-18c0 -88 -53 -129 -130 -145c11 -34 20 -73 20 -106c0 -52 -36 -78 -112 -78c-21 0 -77 3 -89 8c-8 3 -12 9 -12 18v74c0 10 3 13 13 13h35c35 0 60 -1 60 24c0 10 -2 25 -4 40c-87 0 -154 3 -218 10c-13 0 -17 4 -17 15v100
c0 12 4 16 17 16h216c39 0 51 5 51 24v7c0 15 -12 24 -54 38l-114 38c-79 26 -105 89 -105 157v18c0 106 77 154 240 154c41 0 102 -4 161 -16c12 -3 16 -7 16 -16v-92c0 -12 -4 -16 -17 -16h-179c-34 0 -51 -8 -51 -28v-9c0 -14 11 -24 41 -34z" />
    <glyph glyph-name="scircumflex" unicode="&#x15d;" horiz-adv-x="514" 
d="M214 809h106c14 0 17 -4 21 -9l100 -140c6 -6 4 -13 -4 -17l-38 -19c-6 -4 -12 -5 -19 0l-113 76l-114 -76c-7 -5 -12 -4 -19 0l-38 19c-8 4 -9 11 -4 17l100 140c4 5 8 9 22 9zM283 572c41 0 102 -4 161 -16c12 -3 16 -7 16 -16v-92c0 -12 -4 -16 -17 -16h-179
c-34 0 -51 -8 -51 -28v-9c0 -14 11 -24 41 -34l125 -41c81 -27 107 -80 107 -155v-18c0 -118 -95 -152 -217 -152c-88 0 -156 3 -220 10c-13 0 -17 4 -17 15v100c0 12 4 16 17 16h216c39 0 51 5 51 24v7c0 15 -12 24 -54 38l-114 38c-79 26 -105 89 -105 157v18
c0 106 77 154 240 154z" />
    <glyph glyph-name="scommaaccent" unicode="&#x219;" horiz-adv-x="514" 
d="M283 572c41 0 102 -4 161 -16c12 -3 16 -7 16 -16v-92c0 -12 -4 -16 -17 -16h-179c-34 0 -51 -8 -51 -28v-9c0 -14 11 -24 41 -34l125 -41c81 -27 107 -80 107 -155v-18c0 -118 -95 -152 -217 -152c-88 0 -156 3 -220 10c-13 0 -17 4 -17 15v100c0 12 4 16 17 16h216
c39 0 51 5 51 24v7c0 15 -12 24 -54 38l-114 38c-79 26 -105 89 -105 157v18c0 106 77 154 240 154zM181 -40h149c6 0 10 -3 10 -10v-7c0 -5 -3 -10 -5 -12l-168 -133c-5 -4 -8 -3 -14 0l-44 26c-5 3 -6 9 -3 14l63 116c2 4 6 6 12 6z" />
    <glyph glyph-name="germandbls" unicode="&#xdf;" horiz-adv-x="649" 
d="M323 789c191 0 275 -58 275 -217c0 -115 -32 -164 -123 -179v-3c106 -10 140 -63 140 -179c0 -161 -78 -216 -281 -216c-18 0 -35 1 -53 3c-10 1 -15 7 -13 17l25 128c1 9 5 13 10 13h22c74 2 104 21 104 83c0 67 -34 89 -112 89h-23c-10 0 -15 5 -15 15v99
c0 10 3 15 17 15h21c62 1 95 20 95 84c0 66 -30 87 -90 87c-58 0 -84 -25 -84 -88v-525c0 -10 -5 -15 -15 -15h-154c-10 0 -15 5 -15 15v546c0 144 57 228 269 228z" />
    <glyph glyph-name="t" unicode="t" horiz-adv-x="397" 
d="M107 685l145 38c10 3 15 -5 15 -16v-144h86c12 0 17 -5 17 -15v-97c0 -11 -5 -16 -17 -16h-86v-240c0 -43 17 -50 57 -50h38c11 0 17 -5 17 -15v-104c0 -13 -6 -18 -17 -20c-42 -8 -72 -11 -99 -11c-94 0 -170 4 -170 137v303h-60c-11 0 -17 5 -17 16v97c0 10 6 15 17 15
h60v106c0 11 4 13 14 16z" />
    <glyph glyph-name="tbar" unicode="&#x167;" horiz-adv-x="397" 
d="M324 145h38c11 0 17 -5 17 -15v-104c0 -13 -6 -18 -17 -20c-42 -8 -72 -11 -99 -11c-94 0 -170 4 -170 137v128h-35c-10 0 -15 5 -15 15v56c0 10 5 15 15 15h35v89h-60c-11 0 -17 5 -17 16v97c0 10 6 15 17 15h60v106c0 11 4 13 14 16l145 38c10 3 15 -5 15 -16v-144h86
c12 0 17 -5 17 -15v-97c0 -11 -5 -16 -17 -16h-86v-89h62c10 0 15 -5 15 -15v-56c0 -10 -5 -15 -15 -15h-62v-65c0 -43 17 -50 57 -50z" />
    <glyph glyph-name="tcaron" unicode="&#x165;" horiz-adv-x="420" 
d="M381 788h157c6 0 10 -3 10 -10v-7c0 -5 -3 -10 -5 -12l-143 -144c-4 -5 -9 -5 -15 -2l-40 18c-5 3 -6 8 -5 16l25 130c2 8 6 11 16 11zM107 685l145 38c10 3 15 -5 15 -16v-144h86c12 0 17 -5 17 -15v-97c0 -11 -5 -16 -17 -16h-86v-240c0 -43 17 -50 57 -50h38
c11 0 17 -5 17 -15v-104c0 -13 -6 -18 -17 -20c-42 -8 -72 -11 -99 -11c-94 0 -170 4 -170 137v303h-60c-11 0 -17 5 -17 16v97c0 10 6 15 17 15h60v106c0 11 4 13 14 16z" />
    <glyph glyph-name="tcedilla" unicode="&#x163;" horiz-adv-x="397" 
d="M324 145h38c11 0 17 -5 17 -15v-104c0 -13 -6 -18 -17 -20c-28 -5 -50 -8 -70 -10c10 -32 18 -69 18 -100c0 -52 -36 -78 -112 -78c-21 0 -78 3 -90 8c-8 3 -12 9 -12 18v74c0 10 4 13 14 13h35c35 0 59 -1 59 24c0 10 -1 26 -4 42c-63 7 -107 33 -107 135v303h-60
c-11 0 -17 5 -17 16v97c0 10 6 15 17 15h60v106c0 11 4 13 14 16l145 38c10 3 15 -5 15 -16v-144h86c12 0 17 -5 17 -15v-97c0 -11 -5 -16 -17 -16h-86v-240c0 -43 17 -50 57 -50z" />
    <glyph glyph-name="uni021B" unicode="&#x21b;" horiz-adv-x="397" 
d="M107 685l145 38c10 3 15 -5 15 -16v-144h86c12 0 17 -5 17 -15v-97c0 -11 -5 -16 -17 -16h-86v-240c0 -43 17 -50 57 -50h38c11 0 17 -5 17 -15v-104c0 -13 -6 -18 -17 -20c-42 -8 -72 -11 -99 -11c-94 0 -170 4 -170 137v303h-60c-11 0 -17 5 -17 16v97c0 10 6 15 17 15
h60v106c0 11 4 13 14 16zM152 -40h149c6 0 10 -3 10 -10v-7c0 -5 -3 -10 -5 -12l-168 -133c-5 -4 -8 -3 -14 0l-44 26c-5 3 -6 9 -3 14l63 116c2 4 6 6 12 6z" />
    <glyph glyph-name="u" unicode="u" horiz-adv-x="618" 
d="M405 567h146c10 0 14 -5 14 -16v-521c0 -13 -3 -15 -14 -17c-63 -12 -166 -18 -255 -18c-198 0 -246 43 -246 244v312c0 11 6 16 16 16h144c10 0 15 -5 15 -16v-259c0 -139 8 -147 98 -147h67v406c0 11 5 16 15 16z" />
    <glyph glyph-name="uacute" unicode="&#xfa;" horiz-adv-x="618" 
d="M294 809h174c6 0 10 -3 10 -10v-7c0 -5 -3 -10 -5 -12l-192 -157c-5 -4 -8 -3 -14 0l-55 31c-5 3 -6 9 -3 14l73 135c2 4 6 6 12 6zM405 567h146c10 0 14 -5 14 -16v-521c0 -13 -3 -15 -14 -17c-63 -12 -166 -18 -255 -18c-198 0 -246 43 -246 244v312c0 11 6 16 16 16
h144c10 0 15 -5 15 -16v-259c0 -139 8 -147 98 -147h67v406c0 11 5 16 15 16z" />
    <glyph glyph-name="ubreve" unicode="&#x16d;" horiz-adv-x="618" 
d="M396 795h71c11 0 16 -4 14 -15c-13 -107 -61 -144 -185 -144c-123 0 -171 36 -185 143c-2 11 4 16 14 16h71c9 0 14 -3 17 -12c16 -36 38 -48 83 -48s67 12 83 48c3 9 8 12 17 12zM405 567h146c10 0 14 -5 14 -16v-521c0 -13 -3 -15 -14 -17c-63 -12 -166 -18 -255 -18
c-198 0 -246 43 -246 244v312c0 11 6 16 16 16h144c10 0 15 -5 15 -16v-259c0 -139 8 -147 98 -147h67v406c0 11 5 16 15 16z" />
    <glyph glyph-name="ucaron" unicode="&#x1d4;" horiz-adv-x="618" 
d="M428 806l38 -19c8 -4 10 -10 4 -17l-100 -139c-3 -6 -7 -10 -21 -10h-106c-14 0 -18 4 -22 10l-99 139c-6 7 -5 13 3 17l38 19c7 4 13 5 19 0l114 -76l114 76c6 5 12 4 18 0zM405 567h146c10 0 14 -5 14 -16v-521c0 -13 -3 -15 -14 -17c-63 -12 -166 -18 -255 -18
c-198 0 -246 43 -246 244v312c0 11 6 16 16 16h144c10 0 15 -5 15 -16v-259c0 -139 8 -147 98 -147h67v406c0 11 5 16 15 16z" />
    <glyph glyph-name="ucircumflex" unicode="&#xfb;" horiz-adv-x="618" 
d="M255 809h106c14 0 18 -4 21 -9l100 -140c6 -6 4 -13 -4 -17l-38 -19c-6 -4 -12 -5 -19 0l-113 76l-114 -76c-7 -5 -12 -4 -19 0l-38 19c-8 4 -9 11 -4 17l100 140c4 5 8 9 22 9zM405 567h146c10 0 14 -5 14 -16v-521c0 -13 -3 -15 -14 -17c-63 -12 -166 -18 -255 -18
c-198 0 -246 43 -246 244v312c0 11 6 16 16 16h144c10 0 15 -5 15 -16v-259c0 -139 8 -147 98 -147h67v406c0 11 5 16 15 16z" />
    <glyph glyph-name="udieresis" unicode="&#xfc;" horiz-adv-x="618" 
d="M177 794c56 0 85 -30 85 -79c0 -51 -29 -81 -85 -81s-86 30 -86 81c0 49 30 79 86 79zM416 794c55 0 84 -30 84 -79c0 -51 -29 -81 -84 -81c-57 0 -86 30 -86 81c0 49 29 79 86 79zM405 567h146c10 0 14 -5 14 -16v-521c0 -13 -3 -15 -14 -17c-63 -12 -166 -18 -255 -18
c-198 0 -246 43 -246 244v312c0 11 6 16 16 16h144c10 0 15 -5 15 -16v-259c0 -139 8 -147 98 -147h67v406c0 11 5 16 15 16z" />
    <glyph glyph-name="udieresisacute" unicode="&#x1d8;" horiz-adv-x="618" 
d="M328 1000h173c6 0 10 -3 10 -10v-7c0 -5 -2 -9 -5 -12l-192 -156c-5 -4 -8 -3 -14 0l-54 31c-5 3 -6 9 -3 14l73 134c2 4 6 6 12 6zM177 794c56 0 85 -30 85 -79c0 -51 -29 -81 -85 -81s-86 30 -86 81c0 49 30 79 86 79zM416 794c55 0 84 -30 84 -79
c0 -51 -29 -81 -84 -81c-57 0 -86 30 -86 81c0 49 29 79 86 79zM405 567h146c10 0 14 -5 14 -16v-521c0 -13 -3 -15 -14 -17c-63 -12 -166 -18 -255 -18c-198 0 -246 43 -246 244v312c0 11 6 16 16 16h144c10 0 15 -5 15 -16v-259c0 -139 8 -147 98 -147h67v406
c0 11 5 16 15 16z" />
    <glyph glyph-name="udieresiscaron" unicode="&#x1da;" horiz-adv-x="618" 
d="M428 1002l38 -19c8 -4 10 -10 4 -17l-100 -139c-3 -6 -7 -9 -21 -9h-106c-14 0 -18 3 -22 9l-99 139c-6 7 -5 13 3 17l38 19c7 4 13 5 19 0l114 -76l114 76c6 5 12 4 18 0zM177 794c56 0 85 -30 85 -79c0 -51 -29 -81 -85 -81s-86 30 -86 81c0 49 30 79 86 79zM416 794
c55 0 84 -30 84 -79c0 -51 -29 -81 -84 -81c-57 0 -86 30 -86 81c0 49 29 79 86 79zM405 567h146c10 0 14 -5 14 -16v-521c0 -13 -3 -15 -14 -17c-63 -12 -166 -18 -255 -18c-198 0 -246 43 -246 244v312c0 11 6 16 16 16h144c10 0 15 -5 15 -16v-259c0 -139 8 -147 98 -147
h67v406c0 11 5 16 15 16z" />
    <glyph glyph-name="udieresisgrave" unicode="&#x1dc;" horiz-adv-x="618" 
d="M87 1000h173c6 0 10 -2 12 -6l73 -134c3 -5 2 -11 -3 -14l-54 -31c-6 -3 -9 -4 -14 0l-192 156c-3 3 -5 7 -5 12v7c0 7 4 10 10 10zM177 794c56 0 85 -30 85 -79c0 -51 -29 -81 -85 -81s-86 30 -86 81c0 49 30 79 86 79zM416 794c55 0 84 -30 84 -79
c0 -51 -29 -81 -84 -81c-57 0 -86 30 -86 81c0 49 29 79 86 79zM405 567h146c10 0 14 -5 14 -16v-521c0 -13 -3 -15 -14 -17c-63 -12 -166 -18 -255 -18c-198 0 -246 43 -246 244v312c0 11 6 16 16 16h144c10 0 15 -5 15 -16v-259c0 -139 8 -147 98 -147h67v406
c0 11 5 16 15 16z" />
    <glyph glyph-name="udieresismacron" unicode="&#x1d6;" horiz-adv-x="618" 
d="M143 945h306c10 0 15 -5 15 -15v-71c0 -10 -5 -15 -15 -15h-306c-10 0 -15 5 -15 15v71c0 10 5 15 15 15zM177 794c56 0 85 -30 85 -79c0 -51 -29 -81 -85 -81s-86 30 -86 81c0 49 30 79 86 79zM416 794c55 0 84 -30 84 -79c0 -51 -29 -81 -84 -81c-57 0 -86 30 -86 81
c0 49 29 79 86 79zM405 567h146c10 0 14 -5 14 -16v-521c0 -13 -3 -15 -14 -17c-63 -12 -166 -18 -255 -18c-198 0 -246 43 -246 244v312c0 11 6 16 16 16h144c10 0 15 -5 15 -16v-259c0 -139 8 -147 98 -147h67v406c0 11 5 16 15 16z" />
    <glyph glyph-name="ugrave" unicode="&#xf9;" horiz-adv-x="618" 
d="M121 809h174c6 0 10 -2 12 -6l73 -135c3 -5 2 -11 -3 -14l-55 -31c-5 -3 -9 -4 -14 0l-192 157c-2 2 -5 7 -5 12v7c0 7 4 10 10 10zM405 567h146c10 0 14 -5 14 -16v-521c0 -13 -3 -15 -14 -17c-63 -12 -166 -18 -255 -18c-198 0 -246 43 -246 244v312c0 11 6 16 16 16
h144c10 0 15 -5 15 -16v-259c0 -139 8 -147 98 -147h67v406c0 11 5 16 15 16z" />
    <glyph glyph-name="uhungarumlaut" unicode="&#x171;" horiz-adv-x="618" 
d="M235 809h105c7 0 10 -3 10 -10v-7c0 -5 -2 -10 -5 -12l-152 -146c-5 -4 -9 -4 -14 0l-26 20c-5 4 -6 9 -3 14l73 135c2 4 6 6 12 6zM427 809h105c6 0 10 -3 10 -10v-7c0 -5 -2 -10 -5 -12l-152 -146c-5 -4 -9 -4 -14 0l-26 20c-5 4 -6 9 -3 14l73 135c2 4 6 6 12 6z
M405 567h146c10 0 14 -5 14 -16v-521c0 -13 -3 -15 -14 -17c-63 -12 -166 -18 -255 -18c-198 0 -246 43 -246 244v312c0 11 6 16 16 16h144c10 0 15 -5 15 -16v-259c0 -139 8 -147 98 -147h67v406c0 11 5 16 15 16z" />
    <glyph glyph-name="umacron" unicode="&#x16b;" horiz-adv-x="618" 
d="M143 756h306c10 0 15 -5 15 -15v-71c0 -10 -5 -15 -15 -15h-306c-10 0 -15 5 -15 15v71c0 10 5 15 15 15zM405 567h146c10 0 14 -5 14 -16v-521c0 -13 -3 -15 -14 -17c-63 -12 -166 -18 -255 -18c-198 0 -246 43 -246 244v312c0 11 6 16 16 16h144c10 0 15 -5 15 -16
v-259c0 -139 8 -147 98 -147h67v406c0 11 5 16 15 16z" />
    <glyph glyph-name="uogonek" unicode="&#x173;" horiz-adv-x="618" 
d="M405 567h146c10 0 14 -5 14 -16v-521c0 -13 -3 -15 -14 -17c-23 -4 -51 -8 -82 -11c-3 -17 -5 -36 -5 -47c0 -25 24 -24 59 -24h35c10 0 14 -3 14 -13v-74c0 -9 -4 -15 -12 -18c-12 -5 -68 -8 -89 -8c-77 0 -112 26 -112 78c0 31 7 67 17 100c-27 -1 -55 -1 -80 -1
c-198 0 -246 43 -246 244v312c0 11 6 16 16 16h144c10 0 15 -5 15 -16v-259c0 -139 8 -147 98 -147h67v406c0 11 5 16 15 16z" />
    <glyph glyph-name="uring" unicode="&#x16f;" horiz-adv-x="618" 
d="M296 851c80 0 122 -39 122 -117s-42 -118 -122 -118s-122 40 -122 118s42 117 122 117zM296 796c-41 0 -62 -21 -62 -62s21 -62 62 -62s62 21 62 62s-21 62 -62 62zM405 567h146c10 0 14 -5 14 -16v-521c0 -13 -3 -15 -14 -17c-63 -12 -166 -18 -255 -18
c-198 0 -246 43 -246 244v312c0 11 6 16 16 16h144c10 0 15 -5 15 -16v-259c0 -139 8 -147 98 -147h67v406c0 11 5 16 15 16z" />
    <glyph glyph-name="utilde" unicode="&#x169;" horiz-adv-x="618" 
d="M215 794c55 0 115 -39 147 -39c21 0 32 8 44 33c4 10 9 12 18 9l53 -14c9 -3 12 -9 10 -20c-23 -97 -49 -125 -111 -125c-55 0 -115 39 -146 39c-21 0 -33 -8 -44 -33c-4 -10 -10 -13 -18 -10l-53 15c-9 3 -13 9 -10 20c23 97 49 125 110 125zM405 567h146
c10 0 14 -5 14 -16v-521c0 -13 -3 -15 -14 -17c-63 -12 -166 -18 -255 -18c-198 0 -246 43 -246 244v312c0 11 6 16 16 16h144c10 0 15 -5 15 -16v-259c0 -139 8 -147 98 -147h67v406c0 11 5 16 15 16z" />
    <glyph glyph-name="v" unicode="v" horiz-adv-x="605" 
d="M426 567h154c9 0 15 -5 13 -16l-114 -435c-29 -110 -47 -121 -177 -121c-128 0 -145 10 -175 121l-116 435c-2 11 3 16 13 16h154c9 0 10 -5 14 -16l95 -401c3 -13 5 -15 14 -15c11 0 13 2 16 15l95 401c3 11 4 16 14 16z" />
    <glyph glyph-name="w" unicode="w" horiz-adv-x="906" 
d="M722 567h154c9 0 13 -4 12 -14l-85 -464c-15 -84 -49 -94 -148 -94c-127 0 -143 9 -161 94l-41 192l-41 -192c-18 -85 -34 -94 -162 -94c-98 0 -132 10 -148 94l-84 464c-2 10 3 14 12 14h154c7 0 9 -4 11 -14l62 -405c2 -10 4 -11 11 -11s9 1 11 11l91 389
c2 9 8 12 16 12h134c7 0 14 -3 16 -12l91 -389c2 -10 4 -11 10 -11c7 0 10 1 12 11l62 405c1 10 4 14 11 14z" />
    <glyph glyph-name="wacute" unicode="&#x1e83;" horiz-adv-x="906" 
d="M463 809h174c6 0 10 -3 10 -10v-7c0 -5 -3 -10 -5 -12l-192 -157c-5 -4 -8 -3 -14 0l-55 31c-5 3 -6 9 -3 14l73 135c2 4 6 6 12 6zM722 567h154c9 0 13 -4 12 -14l-85 -464c-15 -84 -49 -94 -148 -94c-127 0 -143 9 -161 94l-41 192l-41 -192c-18 -85 -34 -94 -162 -94
c-98 0 -132 10 -148 94l-84 464c-2 10 3 14 12 14h154c7 0 9 -4 11 -14l62 -405c2 -10 4 -11 11 -11s9 1 11 11l91 389c2 9 8 12 16 12h134c7 0 14 -3 16 -12l91 -389c2 -10 4 -11 10 -11c7 0 10 1 12 11l62 405c1 10 4 14 11 14z" />
    <glyph glyph-name="wcircumflex" unicode="&#x175;" horiz-adv-x="906" 
d="M399 809h107c13 0 17 -4 21 -9l100 -140c5 -6 4 -13 -4 -17l-38 -19c-7 -4 -12 -5 -19 0l-113 76l-114 -76c-7 -5 -12 -4 -19 0l-38 19c-8 4 -9 11 -4 17l100 140c4 5 8 9 21 9zM722 567h154c9 0 13 -4 12 -14l-85 -464c-15 -84 -49 -94 -148 -94c-127 0 -143 9 -161 94
l-41 192l-41 -192c-18 -85 -34 -94 -162 -94c-98 0 -132 10 -148 94l-84 464c-2 10 3 14 12 14h154c7 0 9 -4 11 -14l62 -405c2 -10 4 -11 11 -11s9 1 11 11l91 389c2 9 8 12 16 12h134c7 0 14 -3 16 -12l91 -389c2 -10 4 -11 10 -11c7 0 10 1 12 11l62 405c1 10 4 14 11 14
z" />
    <glyph glyph-name="wdieresis" unicode="&#x1e85;" horiz-adv-x="906" 
d="M334 794c55 0 85 -30 85 -79c0 -51 -30 -81 -85 -81c-56 0 -86 30 -86 81c0 49 30 79 86 79zM572 794c56 0 85 -30 85 -79c0 -51 -29 -81 -85 -81s-86 30 -86 81c0 49 30 79 86 79zM722 567h154c9 0 13 -4 12 -14l-85 -464c-15 -84 -49 -94 -148 -94
c-127 0 -143 9 -161 94l-41 192l-41 -192c-18 -85 -34 -94 -162 -94c-98 0 -132 10 -148 94l-84 464c-2 10 3 14 12 14h154c7 0 9 -4 11 -14l62 -405c2 -10 4 -11 11 -11s9 1 11 11l91 389c2 9 8 12 16 12h134c7 0 14 -3 16 -12l91 -389c2 -10 4 -11 10 -11c7 0 10 1 12 11
l62 405c1 10 4 14 11 14z" />
    <glyph glyph-name="wgrave" unicode="&#x1e81;" horiz-adv-x="906" 
d="M249 809h174c6 0 10 -2 12 -6l73 -135c3 -5 2 -11 -3 -14l-55 -31c-6 -3 -9 -4 -14 0l-192 157c-2 2 -5 7 -5 12v7c0 7 4 10 10 10zM722 567h154c9 0 13 -4 12 -14l-85 -464c-15 -84 -49 -94 -148 -94c-127 0 -143 9 -161 94l-41 192l-41 -192c-18 -85 -34 -94 -162 -94
c-98 0 -132 10 -148 94l-84 464c-2 10 3 14 12 14h154c7 0 9 -4 11 -14l62 -405c2 -10 4 -11 11 -11s9 1 11 11l91 389c2 9 8 12 16 12h134c7 0 14 -3 16 -12l91 -389c2 -10 4 -11 10 -11c7 0 10 1 12 11l62 405c1 10 4 14 11 14z" />
    <glyph glyph-name="x" unicode="x" horiz-adv-x="600" 
d="M399 567h175c13 0 16 -9 7 -19l-172 -253l188 -276c7 -10 4 -19 -9 -19h-174c-7 0 -13 4 -17 10l-97 150l-98 -150c-4 -6 -9 -10 -16 -10h-174c-13 0 -16 9 -9 19l188 276l-173 253c-9 10 -5 19 8 19h175c8 0 13 -4 18 -10l82 -126l80 126c5 6 11 10 18 10z" />
    <glyph glyph-name="y" unicode="y" horiz-adv-x="634" 
d="M421 567h144c10 0 15 -5 15 -15v-559c0 -127 -25 -202 -252 -202c-76 0 -146 4 -207 16c-9 2 -13 5 -13 16v93c0 11 4 15 14 15h188c76 0 96 16 96 70v7c-43 -10 -80 -13 -118 -13c-179 0 -239 76 -239 250v307c0 10 5 15 15 15h145c10 0 15 -5 15 -15v-268
c0 -115 21 -138 110 -138c19 0 49 1 72 6v400c0 10 5 15 15 15z" />
    <glyph glyph-name="yacute" unicode="&#xfd;" horiz-adv-x="634" 
d="M319 809h174c6 0 10 -3 10 -10v-7c0 -5 -3 -10 -5 -12l-192 -157c-5 -4 -8 -3 -14 0l-55 31c-5 3 -6 9 -3 14l73 135c2 4 6 6 12 6zM421 567h144c10 0 15 -5 15 -15v-559c0 -127 -25 -202 -252 -202c-76 0 -146 4 -207 16c-9 2 -13 5 -13 16v93c0 11 4 15 14 15h188
c76 0 96 16 96 70v7c-43 -10 -80 -13 -118 -13c-179 0 -239 76 -239 250v307c0 10 5 15 15 15h145c10 0 15 -5 15 -15v-268c0 -115 21 -138 110 -138c19 0 49 1 72 6v400c0 10 5 15 15 15z" />
    <glyph glyph-name="ycircumflex" unicode="&#x177;" horiz-adv-x="634" 
d="M258 809h106c14 0 18 -4 22 -9l100 -140c5 -6 4 -13 -4 -17l-38 -19c-7 -4 -12 -5 -19 0l-113 76l-114 -76c-7 -5 -13 -4 -19 0l-38 19c-8 4 -9 11 -4 17l100 140c4 5 7 9 21 9zM421 567h144c10 0 15 -5 15 -15v-559c0 -127 -25 -202 -252 -202c-76 0 -146 4 -207 16
c-9 2 -13 5 -13 16v93c0 11 4 15 14 15h188c76 0 96 16 96 70v7c-43 -10 -80 -13 -118 -13c-179 0 -239 76 -239 250v307c0 10 5 15 15 15h145c10 0 15 -5 15 -15v-268c0 -115 21 -138 110 -138c19 0 49 1 72 6v400c0 10 5 15 15 15z" />
    <glyph glyph-name="ydieresis" unicode="&#xff;" horiz-adv-x="634" 
d="M193 794c55 0 84 -30 84 -79c0 -51 -29 -81 -84 -81c-57 0 -86 30 -86 81c0 49 29 79 86 79zM431 794c56 0 85 -30 85 -79c0 -51 -29 -81 -85 -81s-86 30 -86 81c0 49 30 79 86 79zM421 567h144c10 0 15 -5 15 -15v-559c0 -127 -25 -202 -252 -202c-76 0 -146 4 -207 16
c-9 2 -13 5 -13 16v93c0 11 4 15 14 15h188c76 0 96 16 96 70v7c-43 -10 -80 -13 -118 -13c-179 0 -239 76 -239 250v307c0 10 5 15 15 15h145c10 0 15 -5 15 -15v-268c0 -115 21 -138 110 -138c19 0 49 1 72 6v400c0 10 5 15 15 15z" />
    <glyph glyph-name="ygrave" unicode="&#x1ef3;" horiz-adv-x="634" 
d="M125 809h174c6 0 10 -2 12 -6l73 -135c3 -5 2 -11 -3 -14l-55 -31c-6 -3 -9 -4 -14 0l-192 157c-2 2 -5 7 -5 12v7c0 7 4 10 10 10zM421 567h144c10 0 15 -5 15 -15v-559c0 -127 -25 -202 -252 -202c-76 0 -146 4 -207 16c-9 2 -13 5 -13 16v93c0 11 4 15 14 15h188
c76 0 96 16 96 70v7c-43 -10 -80 -13 -118 -13c-179 0 -239 76 -239 250v307c0 10 5 15 15 15h145c10 0 15 -5 15 -15v-268c0 -115 21 -138 110 -138c19 0 49 1 72 6v400c0 10 5 15 15 15z" />
    <glyph glyph-name="ytilde" unicode="&#x1ef9;" horiz-adv-x="634" 
d="M231 794c55 0 115 -39 147 -39c21 0 32 8 43 33c5 10 10 12 18 9l53 -14c10 -3 13 -9 11 -20c-24 -97 -49 -125 -111 -125c-55 0 -115 39 -147 39c-21 0 -32 -8 -43 -33c-5 -10 -10 -13 -19 -10l-53 15c-8 3 -12 9 -10 20c23 97 49 125 111 125zM421 567h144
c10 0 15 -5 15 -15v-559c0 -127 -25 -202 -252 -202c-76 0 -146 4 -207 16c-9 2 -13 5 -13 16v93c0 11 4 15 14 15h188c76 0 96 16 96 70v7c-43 -10 -80 -13 -118 -13c-179 0 -239 76 -239 250v307c0 10 5 15 15 15h145c10 0 15 -5 15 -15v-268c0 -115 21 -138 110 -138
c19 0 49 1 72 6v400c0 10 5 15 15 15z" />
    <glyph glyph-name="z" unicode="z" horiz-adv-x="552" 
d="M57 567h435c12 0 18 -5 18 -16v-90c0 -8 -3 -13 -8 -19l-221 -292h226c11 0 17 -6 17 -16v-118c0 -11 -6 -16 -17 -16h-461c-11 0 -17 5 -17 16v85c0 7 1 12 7 19l235 301h-214c-12 0 -18 5 -18 15v115c0 11 6 16 18 16z" />
    <glyph glyph-name="zacute" unicode="&#x17a;" horiz-adv-x="552" 
d="M263 809h174c6 0 10 -3 10 -10v-7c0 -5 -3 -10 -5 -12l-192 -157c-5 -4 -8 -3 -14 0l-55 31c-5 3 -6 9 -3 14l73 135c2 4 6 6 12 6zM57 567h435c12 0 18 -5 18 -16v-90c0 -8 -3 -13 -8 -19l-221 -292h226c11 0 17 -6 17 -16v-118c0 -11 -6 -16 -17 -16h-461
c-11 0 -17 5 -17 16v85c0 7 1 12 7 19l235 301h-214c-12 0 -18 5 -18 15v115c0 11 6 16 18 16z" />
    <glyph glyph-name="zcaron" unicode="&#x17e;" horiz-adv-x="552" 
d="M410 806l38 -19c8 -4 10 -10 4 -17l-100 -139c-3 -6 -7 -10 -21 -10h-106c-14 0 -18 4 -22 10l-99 139c-6 7 -5 13 3 17l38 19c7 4 12 5 19 0l114 -76l114 76c6 5 12 4 18 0zM57 567h435c12 0 18 -5 18 -16v-90c0 -8 -3 -13 -8 -19l-221 -292h226c11 0 17 -6 17 -16v-118
c0 -11 -6 -16 -17 -16h-461c-11 0 -17 5 -17 16v85c0 7 1 12 7 19l235 301h-214c-12 0 -18 5 -18 15v115c0 11 6 16 18 16z" />
    <glyph glyph-name="zdotaccent" unicode="&#x17c;" horiz-adv-x="552" 
d="M278 798c60 0 93 -30 93 -83c0 -55 -33 -85 -93 -85c-61 0 -93 30 -93 85c0 53 32 83 93 83zM57 567h435c12 0 18 -5 18 -16v-90c0 -8 -3 -13 -8 -19l-221 -292h226c11 0 17 -6 17 -16v-118c0 -11 -6 -16 -17 -16h-461c-11 0 -17 5 -17 16v85c0 7 1 12 7 19l235 301h-214
c-12 0 -18 5 -18 15v115c0 11 6 16 18 16z" />
    <glyph glyph-name="g.alt" horiz-adv-x="610" 
d="M524 612l68 -67c7 -7 6 -15 -1 -22l-46 -47c10 -29 14 -67 14 -114c0 -155 -48 -194 -263 -194c-22 0 -43 0 -62 1l-5 -14c-6 -17 -3 -26 33 -29l191 -18c100 -10 111 -76 111 -149v-16c0 -123 -95 -147 -260 -147c-105 0 -226 9 -240 10c-12 1 -14 7 -14 14v96
c0 12 5 16 18 16h275c39 0 50 3 50 21v4c0 13 -5 18 -36 20l-199 18c-87 8 -93 68 -73 130l23 68c-58 26 -74 77 -74 169c0 169 47 210 262 210c66 0 116 -4 154 -14l53 54c6 7 14 7 21 0zM296 291c71 0 87 19 87 70c0 49 -14 67 -87 67s-87 -18 -87 -67
c0 -51 16 -70 87 -70z" />
    <glyph glyph-name="gbreve.alt" horiz-adv-x="611" 
d="M304 636c-123 0 -171 36 -185 143c-2 11 4 16 14 16h71c9 0 14 -3 17 -12c16 -36 38 -48 83 -48c46 0 67 12 83 48c4 9 8 12 17 12h71c11 0 16 -4 14 -15c-13 -107 -61 -144 -185 -144zM525 612l68 -67c7 -7 6 -15 -1 -22l-46 -47c10 -29 14 -67 14 -114
c0 -159 -48 -198 -263 -198c-33 0 -62 1 -87 3l-3 -7c-6 -17 -4 -26 32 -30l215 -18c100 -9 111 -79 111 -152v-17c0 -123 -95 -147 -260 -147c-105 0 -226 9 -240 10c-12 1 -14 7 -14 14v96c0 12 5 16 18 16h275c39 0 50 3 50 21v5c0 13 -5 22 -36 24l-206 18
c-87 8 -98 71 -73 131l25 61c-54 27 -69 79 -69 170c0 169 47 210 262 210c66 0 116 -4 154 -14l53 54c6 7 14 7 21 0zM297 289c71 0 87 18 87 72c0 52 -14 69 -87 69s-87 -17 -87 -69c0 -54 16 -72 87 -72z" />
    <glyph glyph-name="gcircumflex.alt" horiz-adv-x="611" 
d="M171 624l-38 19c-8 4 -9 11 -3 17l99 140c4 5 8 9 22 9h106c14 0 18 -4 21 -9l100 -140c6 -6 4 -13 -4 -17l-38 -19c-6 -4 -12 -5 -18 0l-114 76l-114 -76c-6 -5 -12 -4 -19 0zM525 612l68 -67c7 -7 6 -15 -1 -22l-46 -47c10 -29 14 -67 14 -114
c0 -159 -48 -198 -263 -198c-33 0 -62 1 -87 3l-3 -7c-6 -17 -4 -26 32 -30l215 -18c100 -9 111 -79 111 -152v-17c0 -123 -95 -147 -260 -147c-105 0 -226 9 -240 10c-12 1 -14 7 -14 14v96c0 12 5 16 18 16h275c39 0 50 3 50 21v5c0 13 -5 22 -36 24l-206 18
c-87 8 -98 71 -73 131l25 61c-54 27 -69 79 -69 170c0 169 47 210 262 210c66 0 116 -4 154 -14l53 54c6 7 14 7 21 0zM297 289c71 0 87 18 87 72c0 52 -14 69 -87 69s-87 -17 -87 -69c0 -54 16 -72 87 -72z" />
    <glyph glyph-name="gcommaaccent.alt" horiz-adv-x="611" 
d="M383 629h-149c-6 0 -10 3 -10 10v7c0 5 1 9 5 12l168 133c5 4 8 3 14 0l44 -25c5 -4 6 -9 3 -14l-63 -117c-2 -4 -6 -6 -12 -6zM525 612l68 -67c7 -7 6 -15 -1 -22l-46 -47c10 -29 14 -67 14 -114c0 -159 -48 -198 -263 -198c-33 0 -62 1 -87 3l-3 -7
c-6 -17 -4 -26 32 -30l215 -18c100 -9 111 -79 111 -152v-17c0 -123 -95 -147 -260 -147c-105 0 -226 9 -240 10c-12 1 -14 7 -14 14v96c0 12 5 16 18 16h275c39 0 50 3 50 21v5c0 13 -5 22 -36 24l-206 18c-87 8 -98 71 -73 131l25 61c-54 27 -69 79 -69 170
c0 169 47 210 262 210c66 0 116 -4 154 -14l53 54c6 7 14 7 21 0zM297 289c71 0 87 18 87 72c0 52 -14 69 -87 69s-87 -17 -87 -69c0 -54 16 -72 87 -72z" />
    <glyph glyph-name="gdotaccent.alt" horiz-adv-x="611" 
d="M304 630c-61 0 -93 30 -93 85c0 53 32 83 93 83c60 0 93 -30 93 -83c0 -55 -33 -85 -93 -85zM525 612l68 -67c7 -7 6 -15 -1 -22l-46 -47c10 -29 14 -67 14 -114c0 -159 -48 -198 -263 -198c-33 0 -62 1 -87 3l-3 -7c-6 -17 -4 -26 32 -30l215 -18
c100 -9 111 -79 111 -152v-17c0 -123 -95 -147 -260 -147c-105 0 -226 9 -240 10c-12 1 -14 7 -14 14v96c0 12 5 16 18 16h275c39 0 50 3 50 21v5c0 13 -5 22 -36 24l-206 18c-87 8 -98 71 -73 131l25 61c-54 27 -69 79 -69 170c0 169 47 210 262 210c66 0 116 -4 154 -14
l53 54c6 7 14 7 21 0zM297 289c71 0 87 18 87 72c0 52 -14 69 -87 69s-87 -17 -87 -69c0 -54 16 -72 87 -72z" />
    <glyph glyph-name="ordfeminine" unicode="&#xaa;" horiz-adv-x="376" 
d="M180 789c116 0 143 -38 143 -95v-208c0 -7 0 -16 -12 -21c-23 -9 -66 -16 -145 -16s-126 8 -126 93v13c0 78 48 95 118 95h81v27c0 25 -9 39 -59 39h-105c-10 0 -12 2 -12 12v37c0 11 4 13 11 15c40 8 77 9 106 9zM239 582h-63c-27 0 -52 -3 -52 -29v-4
c0 -26 25 -30 48 -30c19 0 48 2 67 6v57zM78 390h222c10 0 15 -5 15 -15v-29c0 -10 -5 -15 -15 -15h-222c-10 0 -15 5 -15 15v29c0 10 5 15 15 15z" />
    <glyph glyph-name="ordmasculine" unicode="&#xba;" horiz-adv-x="389" 
d="M195 789c126 0 150 -34 150 -171s-24 -169 -150 -169s-151 32 -151 169s25 171 151 171zM195 716c-63 0 -66 -19 -66 -98c0 -78 3 -96 66 -96c64 0 66 18 66 96c0 79 -2 98 -66 98zM84 390h222c10 0 15 -5 15 -15v-29c0 -10 -5 -15 -15 -15h-222c-10 0 -15 5 -15 15v29
c0 10 5 15 15 15z" />
    <glyph glyph-name="uni0410" unicode="&#x410;" horiz-adv-x="727" 
d="M363 789c130 0 151 -10 182 -121l178 -652c2 -11 -3 -16 -13 -16h-153c-9 0 -11 5 -14 16l-54 202h-251l-56 -202c-3 -11 -4 -16 -13 -16h-153c-10 0 -15 5 -13 16l179 652c31 112 53 121 181 121zM362 635c-11 0 -12 -3 -16 -16l-67 -250h169l-68 250
c-4 13 -5 16 -18 16z" />
    <glyph glyph-name="uni0411" unicode="&#x411;" horiz-adv-x="706" 
d="M251 489h140c203 0 282 -55 282 -216v-62c0 -161 -79 -216 -282 -216c-94 0 -212 4 -310 12c-12 1 -15 4 -15 14v747c0 10 5 15 16 15h536c10 0 15 -5 15 -15v-131c0 -10 -5 -15 -15 -15h-367v-133zM485 239v10c0 65 -33 84 -110 84h-124v-177h123c80 0 111 20 111 83z
" />
    <glyph glyph-name="uni0412" unicode="&#x412;" horiz-adv-x="709" 
d="M372 789c205 0 284 -58 284 -217c0 -115 -33 -164 -124 -179v-3c106 -10 141 -63 141 -179c0 -161 -79 -216 -282 -216c-94 0 -212 4 -310 12c-12 1 -15 4 -15 14v742c0 10 3 13 15 14c98 8 196 12 291 12zM352 628h-101v-171h92c93 0 125 17 125 84c0 66 -32 87 -116 87
zM375 328h-124v-172h123c80 0 111 20 111 83c0 67 -33 89 -110 89z" />
    <glyph glyph-name="uni0413" unicode="&#x413;" horiz-adv-x="568" 
d="M236 0h-155c-10 0 -15 6 -15 16v751c0 11 5 16 15 16h460c10 0 16 -5 16 -15v-131c0 -10 -6 -15 -16 -15h-290v-606c0 -10 -5 -16 -15 -16z" />
    <glyph glyph-name="uni0414" unicode="&#x414;" horiz-adv-x="747" 
d="M202 783h429c10 0 15 -5 15 -16v-606h56c10 0 15 -5 15 -15v-274c0 -12 -5 -17 -15 -17h-147c-10 0 -15 5 -15 17v128h-342v-128c0 -12 -5 -17 -15 -17h-147c-10 0 -15 5 -15 17v278c0 10 5 11 15 11h40c46 18 61 82 67 149l44 457c1 10 5 16 15 16zM461 622h-105
l-34 -366c-4 -33 -9 -65 -17 -95h156v461z" />
    <glyph glyph-name="uni0415" unicode="&#x415;" horiz-adv-x="657" 
d="M81 783h518c10 0 16 -5 16 -15v-131c0 -10 -6 -15 -16 -15h-348v-156h319c10 0 16 -5 16 -15v-124c0 -10 -6 -15 -16 -15h-319v-151h348c10 0 16 -5 16 -15v-131c0 -10 -6 -15 -16 -15h-518c-10 0 -15 5 -15 16v751c0 10 5 16 15 16z" />
    <glyph glyph-name="uni0401" unicode="&#x401;" horiz-adv-x="657" 
d="M208 994c56 0 85 -30 85 -79c0 -51 -29 -81 -85 -81s-86 30 -86 81c0 49 30 79 86 79zM447 994c55 0 85 -30 85 -79c0 -51 -30 -81 -85 -81c-56 0 -86 30 -86 81c0 49 30 79 86 79zM81 783h518c10 0 16 -5 16 -15v-131c0 -10 -6 -15 -16 -15h-348v-156h319
c10 0 16 -5 16 -15v-124c0 -10 -6 -15 -16 -15h-319v-151h348c10 0 16 -5 16 -15v-131c0 -10 -6 -15 -16 -15h-518c-10 0 -15 5 -15 16v751c0 10 5 16 15 16z" />
    <glyph glyph-name="uni0416" unicode="&#x416;" horiz-adv-x="1064" 
d="M800 424l267 -397c9 -13 10 -27 -17 -27h-171c-10 0 -18 4 -22 11l-232 371v-366c0 -11 -5 -16 -15 -16h-155c-10 0 -15 5 -15 16v366l-232 -371c-4 -7 -12 -11 -22 -11h-172c-27 0 -25 14 -17 27l268 397l-238 340c-8 11 -9 19 9 19h171c9 0 16 -4 21 -10l212 -325v319
c0 10 5 16 15 16h155c10 0 15 -6 15 -16v-319l212 325c5 6 12 10 21 10h171c18 0 16 -8 9 -19z" />
    <glyph glyph-name="uni0417" unicode="&#x417;" horiz-adv-x="648" 
d="M298 789c177 0 301 -32 301 -194v-57c0 -50 -10 -128 -105 -146c96 -19 105 -95 105 -145v-57c0 -162 -123 -195 -301 -195c-94 0 -187 7 -236 18c-17 5 -26 10 -26 28v101c0 10 5 14 15 14h226c114 0 137 15 137 75v10c0 58 -20 79 -119 79h-192c-10 0 -15 4 -15 15v114
c0 11 5 15 15 15h192c99 0 119 20 119 79v13c0 59 -26 72 -139 72h-224c-10 0 -15 4 -15 14v100c0 19 9 24 26 29c49 11 142 18 236 18z" />
    <glyph glyph-name="uni0418" unicode="&#x418;" horiz-adv-x="794" 
d="M81 783h155c10 0 15 -6 15 -16v-423l283 404c17 25 22 35 64 35h115c10 0 15 -6 15 -16v-750c0 -12 -5 -17 -15 -17h-155c-10 0 -15 5 -15 17v435l-296 -423c-15 -21 -28 -29 -57 -29h-109c-10 0 -15 5 -15 17v750c0 10 5 16 15 16z" />
    <glyph glyph-name="uni0419" unicode="&#x419;" horiz-adv-x="794" 
d="M492 995h71c11 0 16 -4 14 -15c-13 -107 -61 -144 -184 -144c-124 0 -172 36 -185 143c-2 11 3 16 14 16h70c10 0 14 -3 17 -12c16 -36 38 -48 84 -48c45 0 66 12 82 48c4 9 9 12 17 12zM81 783h155c10 0 15 -6 15 -16v-423l283 404c17 25 22 35 64 35h115
c10 0 15 -6 15 -16v-750c0 -12 -5 -17 -15 -17h-155c-10 0 -15 5 -15 17v435l-296 -423c-15 -21 -28 -29 -57 -29h-109c-10 0 -15 5 -15 17v750c0 10 5 16 15 16z" />
    <glyph glyph-name="uni041A" unicode="&#x41a;" horiz-adv-x="708" 
d="M502 783h171c18 0 16 -8 9 -19l-242 -340l271 -397c9 -13 10 -27 -17 -27h-171c-10 0 -18 4 -22 11l-250 371v-366c0 -11 -5 -16 -15 -16h-155c-10 0 -15 5 -15 16v751c0 10 5 16 15 16h155c10 0 15 -6 15 -16v-319l230 325c5 6 12 10 21 10z" />
    <glyph glyph-name="uni041B" unicode="&#x41b;" horiz-adv-x="722" 
d="M212 783h429c10 0 15 -5 15 -16v-751c0 -10 -5 -16 -15 -16h-155c-10 0 -15 6 -15 16v606h-105l-37 -402c-14 -142 -67 -225 -208 -225c-31 0 -59 4 -80 11c-20 7 -26 13 -26 31v104c0 10 5 15 15 15h26c70 0 87 39 94 118l47 493c1 10 5 16 15 16z" />
    <glyph glyph-name="uni041C" unicode="&#x41c;" horiz-adv-x="1002" 
d="M735 784h143c10 0 11 -7 12 -17l76 -750c1 -12 -5 -17 -15 -17h-155c-10 0 -14 5 -15 17l-43 436l-161 -413c-5 -11 -12 -16 -22 -16h-107c-10 0 -18 5 -22 16l-161 413l-44 -436c-1 -12 -5 -17 -15 -17h-155c-10 0 -16 5 -15 17l76 750c1 9 3 16 13 16h142
c36 0 52 -8 64 -40l170 -447l170 448c13 32 28 40 64 40z" />
    <glyph glyph-name="uni041D" unicode="&#x41d;" horiz-adv-x="795" 
d="M559 783h155c10 0 15 -6 15 -16v-750c0 -12 -5 -17 -15 -17h-155c-10 0 -15 5 -15 17v291h-293v-291c0 -12 -5 -17 -15 -17h-155c-10 0 -15 5 -15 17v750c0 10 5 16 15 16h155c10 0 15 -6 15 -16v-296h293v296c0 10 5 16 15 16z" />
    <glyph glyph-name="uni041E" unicode="&#x41e;" horiz-adv-x="751" 
d="M375 789c260 0 334 -91 334 -398c0 -305 -74 -396 -334 -396s-333 91 -333 396c0 307 73 398 333 398zM375 628c-120 0 -146 -58 -146 -237c0 -177 26 -235 146 -235c121 0 146 58 146 235c0 179 -25 237 -146 237z" />
    <glyph glyph-name="uni041F" unicode="&#x41f;" horiz-adv-x="716" 
d="M81 783h554c10 0 15 -5 15 -16v-751c0 -10 -5 -16 -15 -16h-155c-10 0 -15 6 -15 16v606h-214v-606c0 -10 -5 -16 -15 -16h-155c-10 0 -15 6 -15 16v751c0 11 5 16 15 16z" />
    <glyph glyph-name="uni0420" unicode="&#x420;" horiz-adv-x="689" 
d="M374 789c216 0 290 -66 290 -263c0 -199 -74 -247 -290 -247h-123v-263c0 -13 -3 -16 -15 -16h-155c-12 0 -15 3 -15 16v747c0 10 3 13 15 14c98 8 198 12 293 12zM354 628h-103v-211h103c96 0 122 20 122 103c0 82 -26 108 -122 108z" />
    <glyph glyph-name="uni0421" unicode="&#x421;" horiz-adv-x="632" 
d="M372 789c98 0 153 -7 202 -18c17 -5 26 -11 26 -31v-97c0 -10 -5 -15 -15 -15h-213c-121 0 -143 -56 -143 -235s22 -237 143 -237h213c10 0 15 -5 15 -15v-97c0 -20 -9 -27 -26 -31c-49 -12 -104 -18 -202 -18c-261 0 -330 91 -330 398s69 396 330 396z" />
    <glyph glyph-name="uni0422" unicode="&#x422;" horiz-adv-x="649" 
d="M31 783h586c10 0 16 -5 16 -15v-131c0 -10 -6 -15 -16 -15h-201v-606c0 -11 -5 -16 -15 -16h-155c-10 0 -15 5 -15 16v606h-200c-10 0 -15 5 -15 15v131c0 10 5 15 15 15z" />
    <glyph glyph-name="uni0423" unicode="&#x423;" horiz-adv-x="628" 
d="M460 783h165c11 0 16 -7 12 -17l-200 -573c-49 -141 -127 -198 -246 -198c-31 0 -68 6 -104 16c-17 5 -28 12 -28 32v98c0 10 5 15 15 15h77c56 0 77 18 98 64l-248 545c-5 11 0 18 11 18h171c8 0 14 -4 17 -11l137 -300l106 299c3 8 8 12 17 12z" />
    <glyph glyph-name="uni0424" unicode="&#x424;" horiz-adv-x="850" 
d="M351 790h147c10 0 15 -6 15 -17v-70c237 -11 310 -75 310 -308s-73 -296 -310 -307v-71c0 -12 -5 -17 -15 -17h-147c-10 0 -15 5 -15 17v71c-236 11 -309 74 -309 307s73 297 309 308v70c0 11 5 17 15 17zM336 252v286c-100 -10 -122 -46 -122 -143s22 -132 122 -143z
M513 538v-286c101 11 122 46 122 143s-21 133 -122 143z" />
    <glyph glyph-name="uni0425" unicode="&#x425;" horiz-adv-x="730" 
d="M526 783h173c15 0 20 -8 11 -22l-237 -354l259 -386c11 -16 3 -22 -11 -22h-173c-15 0 -20 5 -27 16l-156 251l-156 -250c-8 -11 -12 -16 -27 -16h-173c-14 0 -22 6 -11 22l259 385l-237 354c-9 14 -4 22 11 22h173c16 0 21 -6 27 -16l134 -219l134 219c6 10 11 16 27 16
z" />
    <glyph glyph-name="uni0427" unicode="&#x427;" horiz-adv-x="696" 
d="M460 783h155c10 0 15 -6 15 -16v-750c0 -12 -5 -17 -15 -17h-155c-10 0 -15 5 -15 17v246h-112c-217 0 -291 48 -289 247v258c0 10 5 15 15 15h156c10 0 15 -5 15 -15v-241c0 -83 27 -102 122 -102h93v342c0 10 5 16 15 16z" />
    <glyph glyph-name="uni0426" unicode="&#x426;" horiz-adv-x="755" 
d="M652 161h64c10 0 16 -5 16 -15v-274c0 -12 -5 -17 -15 -17h-147c-10 0 -15 5 -15 17v128h-474c-10 0 -15 5 -15 16v751c0 10 5 16 15 16h155c10 0 15 -6 15 -16v-606h216v606c0 10 5 16 15 16h155c10 0 15 -6 15 -16v-606z" />
    <glyph glyph-name="uni0428" unicode="&#x428;" horiz-adv-x="997" 
d="M761 783h155c10 0 15 -6 15 -16v-751c0 -11 -5 -16 -15 -16h-835c-10 0 -15 5 -15 16v751c0 10 5 16 15 16h155c10 0 15 -6 15 -16v-606h155v606c0 10 5 16 15 16h155c10 0 15 -6 15 -16v-606h155v606c0 10 5 16 15 16z" />
    <glyph glyph-name="uni0429" unicode="&#x429;" horiz-adv-x="1034" 
d="M931 161h65c10 0 15 -5 15 -15v-274c0 -12 -5 -17 -15 -17h-147c-10 0 -15 5 -15 17v128h-753c-10 0 -15 5 -15 16v751c0 10 5 16 15 16h155c10 0 15 -6 15 -16v-606h155v606c0 10 5 16 15 16h155c10 0 15 -6 15 -16v-606h155v606c0 10 5 16 15 16h155c10 0 15 -6 15 -16
v-606z" />
    <glyph glyph-name="uni042F" unicode="&#x42f;" horiz-adv-x="709" 
d="M335 789c94 0 195 -4 293 -12c12 -1 15 -4 15 -14v-747c0 -13 -3 -16 -15 -16h-155c-12 0 -15 3 -15 16v263h-64l-163 -257c-10 -15 -17 -22 -40 -22h-156c-15 0 -20 9 -12 20l170 271c-110 24 -148 88 -148 235c0 197 73 263 290 263zM458 628h-103
c-96 0 -123 -26 -123 -108c0 -83 27 -103 123 -103h103v211z" />
    <glyph glyph-name="uni042C" unicode="&#x42c;" horiz-adv-x="699" 
d="M251 489h140c203 0 282 -55 282 -216v-62c0 -161 -79 -216 -282 -216c-94 0 -212 4 -310 12c-12 1 -15 4 -15 14v747c0 10 5 15 15 15h155c10 0 15 -5 15 -15v-279zM485 239v10c0 65 -33 84 -110 84h-124v-177h123c80 0 111 20 111 83z" />
    <glyph glyph-name="uni042A" unicode="&#x42a;" horiz-adv-x="774" 
d="M326 489h141c202 0 281 -55 281 -216v-62c0 -161 -79 -216 -281 -216c-95 0 -213 4 -311 12c-12 1 -15 4 -15 14v601h-109c-10 0 -16 5 -16 15v131c0 10 6 15 16 15h279c10 0 15 -5 15 -15v-279zM561 239v10c0 65 -34 84 -111 84h-124v-177h123c81 0 112 20 112 83z" />
    <glyph glyph-name="uni042B" unicode="&#x42b;" horiz-adv-x="1003" 
d="M251 489h140c203 0 282 -55 282 -216v-62c0 -161 -79 -216 -282 -216c-94 0 -212 4 -310 12c-12 1 -15 4 -15 14v747c0 10 5 15 15 15h155c10 0 15 -5 15 -15v-279zM767 783h155c10 0 15 -6 15 -16v-750c0 -12 -5 -17 -15 -17h-155c-10 0 -15 5 -15 17v750
c0 10 5 16 15 16zM485 239v10c0 65 -33 84 -110 84h-124v-177h123c81 0 111 20 111 83z" />
    <glyph glyph-name="uni042D" unicode="&#x42d;" horiz-adv-x="658" 
d="M286 789c260 0 330 -89 330 -396s-70 -398 -330 -398c-99 0 -179 6 -228 18c-17 4 -26 11 -26 31v97c0 10 5 15 15 15h239c102 0 133 41 140 162h-267c-10 0 -16 5 -16 15v119c0 10 6 15 16 15h267c-7 121 -38 161 -140 161h-239c-10 0 -15 5 -15 15v97c0 20 9 26 26 31
c49 11 129 18 228 18z" />
    <glyph glyph-name="uni042E" unicode="&#x42e;" horiz-adv-x="1039" 
d="M664 789c260 0 333 -91 333 -398c0 -305 -73 -396 -333 -396c-235 0 -317 74 -332 313h-81v-291c0 -12 -5 -17 -15 -17h-155c-10 0 -15 5 -15 17v750c0 10 5 16 15 16h155c10 0 15 -6 15 -16v-296h82c13 243 95 318 331 318zM664 628c-121 0 -147 -58 -147 -237
c0 -177 26 -235 147 -235c120 0 146 58 146 235c0 179 -26 237 -146 237z" />
    <glyph glyph-name="uni0430" unicode="&#x430;" horiz-adv-x="579" 
d="M278 572c218 0 251 -73 251 -180v-344c0 -20 -7 -28 -25 -32c-87 -18 -175 -21 -229 -21c-159 0 -247 11 -249 159v26c2 136 75 162 218 162l110 1v20c0 42 -27 59 -76 59h-196c-11 0 -14 3 -14 15v102c0 12 4 14 14 16c62 13 124 17 196 17zM354 238h-93
c-55 0 -63 -15 -63 -46v-11c0 -37 17 -46 68 -46c15 0 63 2 88 8v95z" />
    <glyph glyph-name="uni0431" unicode="&#x431;" horiz-adv-x="616" 
d="M477 789h51c13 0 18 -14 18 -41c0 -102 -47 -130 -134 -138c-145 -15 -198 -32 -209 -116c30 27 73 38 143 38c173 0 234 -59 234 -249c0 -231 -51 -288 -266 -288s-267 57 -266 288v100c0 267 85 346 298 374c64 8 77 9 95 16c16 6 8 16 36 16zM314 392
c-76 0 -91 -28 -91 -109c0 -110 15 -138 91 -138s91 28 91 138c0 81 -15 109 -91 109z" />
    <glyph glyph-name="uni0432" unicode="&#x432;" horiz-adv-x="572" 
d="M299 572c167 0 226 -46 226 -157c0 -89 -27 -121 -104 -131v-2c87 -6 116 -36 116 -128c0 -112 -59 -159 -225 -159c-81 0 -165 2 -246 11c-9 1 -12 7 -12 13v530c0 7 3 11 12 12c82 8 152 11 233 11zM282 431h-52v-91h50c61 0 82 17 82 46c0 30 -21 45 -80 45zM295 230
h-65v-91l65 -1c59 1 80 14 80 46c0 30 -21 46 -80 46z" />
    <glyph glyph-name="uni0433" unicode="&#x433;" horiz-adv-x="473" 
d="M68 567h374c9 0 14 -5 14 -14v-133c0 -10 -5 -14 -14 -14h-203v-392c0 -9 -5 -14 -14 -14h-157c-9 0 -14 5 -14 14v539c0 9 5 14 14 14z" />
    <glyph glyph-name="uni0434" unicode="&#x434;" horiz-adv-x="608" 
d="M156 567h352c10 0 15 -5 15 -14v-407h46c9 0 14 -4 14 -14v-213c0 -10 -5 -15 -14 -15h-131c-9 0 -14 5 -14 15v81h-247v-81c0 -10 -5 -15 -14 -15h-131c-9 0 -14 5 -14 15v213c0 10 5 14 14 14h29c36 15 47 71 52 115l28 293c1 8 7 13 15 13zM354 421h-58l-20 -209
c-2 -20 -6 -43 -11 -66h89v275z" />
    <glyph glyph-name="uni0435" unicode="&#x435;" horiz-adv-x="586" 
d="M300 572c206 0 257 -57 257 -286v-31c0 -21 -7 -27 -30 -27h-312c1 -74 26 -83 104 -83h184c10 0 15 -5 15 -15v-102c0 -12 -5 -15 -14 -17c-56 -12 -135 -16 -204 -16c-209 0 -263 57 -263 288c0 232 54 289 263 289zM300 422c-59 0 -86 -20 -86 -88h168
c-1 68 -24 88 -82 88z" />
    <glyph glyph-name="uni0451" unicode="&#x451;" horiz-adv-x="586" 
d="M181 794c55 0 85 -30 85 -79c0 -51 -30 -81 -85 -81c-56 0 -86 30 -86 81c0 49 30 79 86 79zM419 794c56 0 85 -30 85 -79c0 -51 -29 -81 -85 -81s-85 30 -85 81c0 49 29 79 85 79zM300 572c206 0 257 -57 257 -286v-31c0 -21 -7 -27 -30 -27h-312c1 -74 26 -83 104 -83
h184c10 0 15 -5 15 -15v-102c0 -12 -5 -15 -14 -17c-56 -12 -135 -16 -204 -16c-209 0 -263 57 -263 288c0 232 54 289 263 289zM300 422c-59 0 -86 -20 -86 -88h168c-1 68 -24 88 -82 88z" />
    <glyph glyph-name="uni0436" unicode="&#x436;" horiz-adv-x="926" 
d="M739 309l190 -291c6 -10 1 -18 -11 -18h-183c-9 0 -14 2 -17 8l-166 260v-253c0 -10 -5 -15 -15 -15h-147c-10 0 -15 5 -15 15v253l-166 -260c-3 -6 -8 -8 -17 -8h-183c-12 0 -17 8 -11 18l189 291l-160 242c-6 9 -1 16 12 16h171c8 0 13 -1 16 -7l149 -232v224
c0 10 5 15 15 15h147c10 0 15 -5 15 -15v-224l149 232c3 6 8 7 16 7h171c12 0 18 -7 11 -16z" />
    <glyph glyph-name="uni0437" unicode="&#x437;" horiz-adv-x="534" 
d="M260 572c113 0 231 -21 231 -133v-65c0 -18 -2 -79 -90 -91c88 -12 90 -74 90 -93v-63c0 -112 -119 -132 -231 -132c-92 0 -163 8 -201 19c-16 5 -24 12 -24 32v87c0 11 5 16 14 16h194c56 0 68 11 68 32v8c0 24 -10 33 -57 33h-158c-8 0 -15 6 -15 16v90
c0 10 7 15 15 15h158c47 0 57 12 57 32v11c0 25 -14 32 -69 32h-193c-9 0 -14 5 -14 16v89c0 20 8 26 24 30c39 12 109 19 201 19z" />
    <glyph glyph-name="uni0438" unicode="&#x438;" horiz-adv-x="641" 
d="M472 567h103c8 0 12 -5 12 -13v-541c0 -9 -4 -13 -12 -13h-148c-8 0 -11 4 -11 13v263l-197 -252c-13 -17 -27 -24 -54 -24h-99c-8 0 -12 4 -12 13v541c0 8 4 13 12 13h148c8 0 12 -5 12 -13v-267l193 252c13 17 26 28 53 28z" />
    <glyph glyph-name="uni0439" unicode="&#x439;" horiz-adv-x="641" 
d="M418 795h71c11 0 16 -4 14 -15c-13 -107 -61 -144 -185 -144c-123 0 -171 36 -185 143c-2 11 4 16 14 16h71c9 0 14 -3 17 -12c16 -36 38 -48 83 -48s67 12 83 48c3 9 8 12 17 12zM472 567h103c8 0 12 -5 12 -13v-541c0 -9 -4 -13 -12 -13h-148c-8 0 -11 4 -11 13v263
l-197 -252c-13 -17 -27 -24 -54 -24h-99c-8 0 -12 4 -12 13v541c0 8 4 13 12 13h148c8 0 12 -5 12 -13v-267l193 252c13 17 26 28 53 28z" />
    <glyph glyph-name="uni043A" unicode="&#x43a;" horiz-adv-x="613" 
d="M404 567h171c13 0 18 -7 12 -16l-161 -242l190 -291c6 -10 1 -18 -11 -18h-183c-9 0 -14 2 -17 8l-166 260v-253c0 -10 -5 -15 -15 -15h-155c-10 0 -15 5 -15 15v537c0 10 5 15 15 15h155c10 0 15 -5 15 -15v-224l149 232c3 5 8 7 16 7z" />
    <glyph glyph-name="uni043B" unicode="&#x43b;" horiz-adv-x="594" 
d="M156 567h373c7 0 11 -4 11 -12v-543c0 -7 -4 -12 -11 -12h-150c-7 0 -11 5 -11 12v405h-67l-21 -242c-8 -85 -40 -180 -176 -180c-27 0 -54 4 -70 9c-20 7 -24 11 -24 29v103c0 7 4 10 12 10h24c49 0 62 29 67 78l31 330c1 8 4 13 12 13z" />
    <glyph glyph-name="uni043C" unicode="&#x43c;" horiz-adv-x="823" 
d="M588 567h128c8 0 12 -5 13 -12l63 -542c1 -9 -4 -13 -12 -13h-153c-8 0 -11 4 -12 13l-32 294l-105 -277c-4 -9 -10 -13 -18 -13h-98c-8 0 -14 4 -18 13l-104 277l-33 -294c-1 -9 -4 -13 -12 -13h-153c-8 0 -13 4 -12 12l64 542c1 8 6 13 14 13h126c32 0 50 -5 60 -30
l117 -290l117 291c10 25 28 29 60 29z" />
    <glyph glyph-name="uni043D" unicode="&#x43d;" horiz-adv-x="651" 
d="M427 567h155c10 0 15 -5 15 -15v-537c0 -10 -5 -15 -15 -15h-155c-10 0 -15 5 -15 15v179h-173v-179c0 -10 -5 -15 -15 -15h-155c-10 0 -15 5 -15 15v537c0 10 5 15 15 15h155c10 0 15 -5 15 -15v-194h173v194c0 10 5 15 15 15z" />
    <glyph glyph-name="uni043E" unicode="&#x43e;" horiz-adv-x="607" 
d="M303 572c215 0 267 -57 267 -289c0 -231 -52 -288 -267 -288s-266 57 -266 288c0 232 51 289 266 289zM303 422c-76 0 -91 -28 -91 -139c0 -110 15 -138 91 -138c77 0 92 28 92 138c0 111 -15 139 -92 139z" />
    <glyph glyph-name="uni043F" unicode="&#x43f;" horiz-adv-x="593" 
d="M69 567h455c10 0 15 -5 15 -15v-537c0 -10 -5 -15 -15 -15h-155c-10 0 -15 5 -15 15v391h-115v-391c0 -10 -5 -15 -15 -15h-155c-10 0 -15 5 -15 15v537c0 10 5 15 15 15z" />
    <glyph glyph-name="uni0440" unicode="&#x440;" horiz-adv-x="614" 
d="M303 572c220 0 275 -62 275 -277c0 -233 -54 -300 -232 -300c-39 0 -76 1 -119 6v-189c0 -10 -5 -15 -15 -15h-144c-10 0 -15 5 -15 15v710c0 16 9 26 24 29c78 13 160 21 226 21zM312 422h-85v-271c23 -4 53 -5 72 -5c89 0 104 23 104 138c0 99 -5 138 -91 138z" />
    <glyph glyph-name="uni0441" unicode="&#x441;" horiz-adv-x="524" 
d="M303 572c35 0 113 -2 170 -16c11 -3 17 -7 17 -21v-97c0 -11 -6 -16 -17 -16h-170c-76 0 -91 -28 -91 -138c0 -111 15 -139 91 -139h170c11 0 17 -5 17 -16v-97c0 -14 -6 -18 -17 -21c-57 -14 -135 -16 -170 -16c-222 0 -265 58 -265 289s43 288 265 288z" />
    <glyph glyph-name="uni0442" unicode="&#x442;" horiz-adv-x="533" 
d="M33 567h467c10 0 15 -5 15 -15v-131c0 -10 -5 -15 -15 -15h-141v-391c0 -10 -5 -15 -15 -15h-155c-10 0 -15 5 -15 15v391h-141c-10 0 -15 5 -15 15v131c0 10 5 15 15 15z" />
    <glyph glyph-name="uni0443" unicode="&#x443;" horiz-adv-x="634" 
d="M420 567h145c10 0 15 -5 15 -15v-559c0 -127 -25 -202 -252 -202c-76 0 -146 4 -207 16c-9 2 -13 5 -13 16v93c0 11 3 15 13 15h189c76 0 95 16 95 70v7c-43 -10 -79 -13 -118 -13c-178 0 -238 76 -238 250v307c0 10 5 15 15 15h144c10 0 15 -5 15 -15v-268
c0 -115 22 -138 111 -138c19 0 48 1 71 6v400c0 10 5 15 15 15z" />
    <glyph glyph-name="uni0444" unicode="&#x444;" horiz-adv-x="834" 
d="M599 572c125 0 199 -82 199 -289s-74 -288 -199 -288c-32 0 -79 6 -96 21v-204c0 -10 -5 -15 -15 -15h-144c-10 0 -15 5 -15 15v204c-17 -15 -64 -21 -96 -21c-125 0 -198 81 -198 288s73 289 198 289c32 0 66 -6 96 -22v217c0 10 5 16 15 16h144c10 0 15 -6 15 -16v-217
c30 16 64 22 96 22zM329 159v249c-14 9 -33 12 -46 12c-64 0 -73 -47 -73 -137s9 -137 73 -137c13 0 32 4 46 13zM549 146c65 0 73 47 73 137s-8 137 -73 137c-13 0 -31 -3 -45 -12v-249c14 -9 32 -13 45 -13z" />
    <glyph glyph-name="uni0445" unicode="&#x445;" horiz-adv-x="600" 
d="M399 567h174c14 0 17 -9 8 -19l-172 -253l188 -276c7 -10 4 -19 -9 -19h-175c-6 0 -12 4 -16 10l-97 150l-98 -150c-4 -6 -9 -10 -16 -10h-174c-13 0 -16 9 -9 19l188 276l-173 253c-9 10 -5 19 8 19h175c7 0 13 -4 18 -10l81 -126l81 126c5 6 11 10 18 10z" />
    <glyph glyph-name="uni0447" unicode="&#x447;" horiz-adv-x="594" 
d="M370 567h155c10 0 15 -6 15 -17v-533c0 -12 -5 -17 -15 -17h-155c-10 0 -15 5 -15 17v144h-42c-216 0 -280 48 -280 247v144c0 10 5 15 15 15h157c10 0 15 -5 15 -15v-127c0 -83 17 -102 113 -102h22v227c0 11 5 17 15 17z" />
    <glyph glyph-name="uni0446" unicode="&#x446;" horiz-adv-x="624" 
d="M537 161h47c10 0 15 -5 15 -15v-224c0 -10 -5 -15 -15 -15h-149c-10 0 -15 5 -15 15v78h-351c-10 0 -15 5 -15 15v537c0 10 5 15 15 15h155c10 0 15 -5 15 -15v-391h113v391c0 10 5 15 15 15h155c10 0 15 -5 15 -15v-391z" />
    <glyph glyph-name="uni0448" unicode="&#x448;" horiz-adv-x="824" 
d="M600 567h155c10 0 15 -5 15 -15v-537c0 -10 -5 -15 -15 -15h-686c-10 0 -15 5 -15 15v537c0 10 5 15 15 15h155c10 0 15 -5 15 -15v-398h89v398c0 10 5 15 15 15h139c10 0 15 -5 15 -15v-398h88v398c0 10 5 15 15 15z" />
    <glyph glyph-name="uni0449" unicode="&#x449;" horiz-adv-x="846" 
d="M759 161h47c9 0 15 -6 15 -15v-226c0 -9 -6 -15 -15 -15h-148c-9 0 -15 6 -15 15v80h-574c-9 0 -15 6 -15 15v537c0 9 6 15 15 15h155c9 0 15 -6 15 -15v-391h75v391c0 9 6 15 15 15h155c9 0 15 -6 15 -15v-391h75v391c0 9 6 15 15 15h155c9 0 15 -6 15 -15v-391z" />
    <glyph glyph-name="uni044F" unicode="&#x44f;" horiz-adv-x="581" 
d="M284 572c88 0 144 -2 230 -10c9 -1 12 -4 12 -9v-541c0 -10 -2 -12 -12 -12h-152c-9 0 -11 2 -11 12v182h-26l-127 -179c-7 -11 -13 -15 -31 -15h-148c-11 0 -15 6 -9 14l133 191c-81 22 -110 73 -110 168c0 135 66 199 251 199zM351 418h-75c-49 0 -63 -17 -63 -54
s14 -52 63 -52h75v106z" />
    <glyph glyph-name="uni044C" unicode="&#x44c;" horiz-adv-x="568" 
d="M230 364h88c174 0 228 -47 228 -157v-54c0 -110 -54 -158 -228 -158c-87 0 -167 2 -252 12c-9 1 -12 5 -12 12v535c0 9 4 13 14 13h147c10 0 15 -6 15 -14v-189zM373 179v15c0 26 -16 37 -55 37h-88v-87h69c59 0 74 8 74 35z" />
    <glyph glyph-name="uni044A" unicode="&#x44a;" horiz-adv-x="645" 
d="M306 364h89c174 0 228 -47 228 -157v-54c0 -110 -54 -158 -228 -158c-87 0 -167 2 -252 12c-9 1 -12 3 -12 9v394h-102c-9 0 -13 4 -13 11v135c0 7 4 11 13 11h265c8 0 12 -4 12 -11v-192zM450 179v15c0 26 -17 37 -55 37h-89v-87h69c60 0 75 8 75 35z" />
    <glyph glyph-name="uni044B" unicode="&#x44b;" horiz-adv-x="831" 
d="M230 364h88c174 0 228 -47 228 -157v-54c0 -110 -54 -158 -228 -158c-87 0 -167 2 -252 12c-9 1 -12 3 -12 9v540c0 7 4 11 12 11h152c8 0 12 -4 12 -11v-192zM617 567h145c10 0 15 -6 15 -16v-535c0 -11 -5 -16 -15 -16h-145c-10 0 -15 5 -15 16v535c0 10 5 16 15 16z
M373 179v15c0 26 -16 37 -55 37h-88v-87h69c59 0 74 8 74 35z" />
    <glyph glyph-name="uni044D" unicode="&#x44d;" horiz-adv-x="541" 
d="M240 572c208 0 265 -67 265 -287s-57 -290 -265 -290c-86 0 -143 8 -181 18c-16 4 -24 9 -24 27v90c0 7 4 12 12 12h193c64 0 85 28 93 80h-205c-8 0 -13 3 -13 10v104c0 7 5 10 13 10h205c-7 53 -29 80 -93 80h-193c-8 0 -12 3 -12 11v91c0 18 8 22 24 27
c38 11 95 17 181 17z" />
    <glyph glyph-name="uni044E" unicode="&#x44e;" horiz-adv-x="863" 
d="M559 572c215 0 267 -57 267 -289c0 -231 -52 -288 -267 -288c-183 0 -247 42 -262 199h-58v-179c0 -10 -5 -15 -15 -15h-155c-10 0 -15 5 -15 15v537c0 10 5 15 15 15h155c10 0 15 -5 15 -15v-194h57c12 169 74 214 263 214zM559 145c76 0 91 28 91 138
c0 111 -15 139 -91 139s-91 -28 -91 -139c0 -110 15 -138 91 -138z" />
    <glyph glyph-name="pi" unicode="&#x3c0;" horiz-adv-x="711" 
d="M33 568h646c10 0 15 -5 15 -15v-131c0 -10 -5 -15 -15 -15h-87v-392c0 -10 -5 -15 -15 -15h-138c-10 0 -15 5 -15 15v392h-130c0 -140 -8 -252 -30 -392c-1 -10 -5 -15 -15 -15h-137c-10 0 -17 5 -15 15c21 140 29 252 29 392h-93c-10 0 -15 5 -15 15v131
c0 10 5 15 15 15z" />
    <glyph glyph-name="zero" unicode="0" horiz-adv-x="698" 
d="M349 789c246 0 306 -92 306 -399c0 -306 -60 -395 -306 -395c-247 0 -306 89 -306 395c0 307 59 399 306 399zM349 628c-98 0 -121 -55 -121 -238c0 -181 23 -234 121 -234c97 0 121 53 121 234c0 183 -24 238 -121 238z" />
    <glyph glyph-name="one" unicode="1" horiz-adv-x="508" 
d="M357 161h123c10 0 16 -5 16 -15v-131c0 -10 -6 -15 -16 -15h-424c-10 0 -15 5 -15 15l-1 131c0 10 5 15 16 15h126v427c0 43 -18 50 -62 50h-70c-11 0 -17 5 -17 15v103c0 14 6 19 17 21c42 9 83 12 114 12c108 0 193 -20 193 -153v-475z" />
    <glyph glyph-name="two" unicode="2" horiz-adv-x="635" 
d="M291 789c153 0 290 -28 290 -187v-101c0 -70 -3 -120 -107 -192l-154 -104c-18 -10 -24 -18 -24 -33v-10h293c7 0 8 -1 8 -6v-150c0 -5 -2 -6 -7 -6h-535c-22 0 -27 11 -27 28v90c0 84 37 116 127 182l201 145c33 25 40 46 40 90v20c0 56 -28 73 -128 73h-197
c-10 0 -14 4 -14 13v100c0 18 8 24 24 29c56 12 108 19 210 19z" />
    <glyph glyph-name="three" unicode="3" horiz-adv-x="631" 
d="M282 789c177 0 301 -32 301 -194v-57c0 -50 -10 -128 -105 -146c96 -19 105 -95 105 -145v-57c0 -162 -123 -195 -301 -195c-94 0 -167 7 -216 18c-17 5 -26 10 -26 28v101c0 10 5 14 15 14h206c114 0 137 15 137 75v10c0 58 -20 79 -119 79h-172c-10 0 -15 4 -15 15v114
c0 11 5 15 15 15h172c99 0 119 20 119 79v13c0 59 -26 72 -139 72h-204c-10 0 -15 4 -15 14v100c0 19 9 24 26 29c49 11 122 18 216 18z" />
    <glyph glyph-name="four" unicode="4" horiz-adv-x="694" 
d="M170 783h154c12 0 14 -6 11 -18l-115 -416h152v158c0 10 6 16 15 19l154 50c10 3 16 0 16 -14v-213h105c11 0 16 -5 16 -15v-132c0 -10 -5 -15 -16 -15h-105v-171c0 -11 -5 -16 -15 -16h-155c-10 0 -15 5 -15 16v171h-336c-10 0 -15 5 -15 16v95c0 10 3 21 7 35l124 440
c2 7 7 10 18 10z" />
    <glyph glyph-name="five" unicode="5" horiz-adv-x="638" 
d="M90 783h476c10 0 16 -5 16 -15v-131c0 -10 -6 -15 -16 -15h-338l-12 -136c28 4 81 7 106 7c154 0 276 -35 276 -199v-101c0 -164 -124 -198 -301 -198c-94 0 -174 7 -223 17c-17 5 -26 11 -26 29v101c0 10 5 14 15 14h214c115 0 136 22 136 84v7c0 62 -20 84 -136 84
h-198c-23 0 -31 8 -31 25v111l26 301c1 10 5 15 16 15z" />
    <glyph glyph-name="six" unicode="6" horiz-adv-x="641" 
d="M264 782h162c12 0 15 -8 10 -18l-143 -286c20 3 50 5 69 5c159 0 256 -58 256 -189v-100c0 -161 -123 -199 -289 -199c-169 0 -297 38 -297 199v100c0 37 6 65 18 91l196 387c4 7 10 10 18 10zM329 331c-97 0 -112 -24 -112 -84v-6c0 -61 15 -85 112 -85
c94 0 104 24 104 85v5c0 61 -11 85 -104 85z" />
    <glyph glyph-name="seven" unicode="7" horiz-adv-x="621" 
d="M36 783h555c10 0 15 -4 15 -15v-100c0 -10 -3 -16 -7 -23l-337 -635c-4 -7 -10 -10 -18 -10h-181c-12 0 -15 8 -10 18l326 604h-343c-11 0 -16 5 -16 14v132c0 11 5 15 16 15z" />
    <glyph glyph-name="eight" unicode="8" 
d="M332 788h17c186 0 271 -68 271 -215c0 -91 -33 -146 -108 -186c88 -37 129 -87 129 -180c0 -144 -96 -212 -293 -212h-19c-198 0 -293 68 -293 214c0 92 44 149 133 192c-80 39 -109 93 -109 173c0 146 87 214 272 214zM346 627h-10c-53 0 -90 -18 -90 -69
c0 -44 27 -67 72 -82l61 -18c40 21 56 53 56 91c0 49 -27 78 -89 78zM383 304l-84 26c-61 -24 -78 -52 -78 -88c0 -56 41 -86 112 -86h11c72 0 112 20 112 69c0 45 -34 67 -73 79z" />
    <glyph glyph-name="nine" unicode="9" horiz-adv-x="641" 
d="M312 787c169 0 297 -38 297 -199v-100c0 -37 -6 -64 -18 -91l-196 -387c-4 -7 -10 -10 -18 -10h-162c-12 0 -15 8 -10 18l143 287c-20 -4 -50 -6 -69 -6c-158 0 -256 58 -256 189v101c0 160 123 198 289 198zM312 626c-94 0 -104 -24 -104 -85v-5c0 -61 11 -85 104 -85
c97 0 112 24 112 85v5c0 61 -15 85 -112 85z" />
    <glyph glyph-name="zero.osf" horiz-adv-x="662" 
d="M330 572c229 0 292 -68 292 -290c0 -221 -63 -287 -292 -287c-228 0 -291 66 -291 287c0 222 63 290 291 290zM330 413c-82 0 -107 -30 -107 -131c0 -98 25 -128 107 -128c83 0 108 30 108 128c0 101 -25 131 -108 131z" />
    <glyph glyph-name="one.osf" horiz-adv-x="521" 
d="M364 161h123c10 0 16 -5 16 -15v-131c0 -10 -6 -15 -16 -15h-423c-11 0 -16 5 -16 15l-1 131c0 10 5 15 16 15h126v210c0 43 -18 50 -62 50h-69c-12 -1 -18 4 -18 15v103c0 14 6 19 17 21c43 9 83 12 114 12c108 0 193 -20 193 -153v-258z" />
    <glyph glyph-name="two.osf" horiz-adv-x="636" 
d="M307 572c139 0 274 -18 274 -143v-48c0 -97 -12 -112 -125 -172l-77 -34c-14 -5 -19 -8 -19 -19v-3h222c9 0 15 -5 14 -13v-136c0 -3 -2 -4 -6 -4h-530c-22 0 -27 9 -27 22v94c0 32 12 52 59 73l272 143c19 10 32 21 32 35v11c0 29 -24 33 -114 33h-212
c-9 0 -13 2 -13 10v115c0 14 8 18 24 21c56 9 123 15 226 15z" />
    <glyph glyph-name="three.osf" horiz-adv-x="623" 
d="M278 572c177 0 301 -32 301 -193v-53c0 -50 -10 -127 -106 -145c96 -19 106 -95 106 -144v-53c0 -161 -123 -194 -301 -194c-94 0 -167 7 -216 18c-17 5 -26 11 -26 30v99c0 10 5 15 15 15h204c114 0 139 14 139 73v6c0 57 -20 78 -119 78h-172c-10 0 -15 4 -15 15v114
c0 10 5 15 15 15h171c100 0 120 20 120 79v6c0 59 -26 73 -139 73h-205c-10 0 -14 5 -14 15v99c0 19 9 24 26 29c49 11 122 18 216 18z" />
    <glyph glyph-name="four.osf" horiz-adv-x="706" 
d="M180 567h154c12 0 14 -6 11 -18l-115 -406h152v158c0 10 6 16 15 19l154 50c10 3 16 1 16 -14v-213h105c11 0 16 -5 16 -15v-132c0 -10 -5 -15 -16 -15h-105v-169c0 -10 -5 -15 -15 -15h-155c-10 0 -15 5 -15 15v169h-336c-10 0 -15 5 -15 16v95c0 10 3 21 7 35l124 430
c2 7 7 10 18 10z" />
    <glyph glyph-name="five.osf" horiz-adv-x="630" 
d="M86 567h473c10 0 16 -5 16 -15v-131c0 -10 -6 -15 -16 -15h-336l-11 -125c28 4 81 7 106 7c154 0 275 -34 276 -199v-100c-1 -165 -125 -199 -301 -199c-95 0 -174 7 -223 18c-17 5 -26 10 -26 29v100c0 10 5 15 15 15h214c115 0 136 21 136 83v7c-1 62 -21 85 -136 85
h-198c-24 0 -31 7 -31 24v111l26 290c1 10 5 15 16 15z" />
    <glyph glyph-name="six.osf" horiz-adv-x="641" 
d="M264 782h162c12 0 15 -8 10 -18l-143 -286c20 3 50 5 69 5c159 0 256 -58 256 -189v-100c0 -161 -123 -199 -289 -199c-169 0 -297 38 -297 199v100c0 37 6 65 18 91l196 387c4 7 10 10 18 10zM329 331c-97 0 -112 -24 -112 -84v-6c0 -61 15 -85 112 -85
c94 0 104 24 104 85v5c0 61 -10 85 -104 85z" />
    <glyph glyph-name="seven.osf" horiz-adv-x="617" 
d="M33 567h555c10 0 15 -4 15 -15v-100c0 -10 -3 -16 -7 -23l-336 -622c-4 -7 -10 -10 -18 -10h-181c-12 0 -15 8 -10 18l325 591h-343c-11 0 -16 5 -16 14v132c0 11 5 15 16 15z" />
    <glyph glyph-name="eight.osf" 
d="M332 788h17c185 0 271 -68 271 -215c0 -91 -33 -146 -108 -186c88 -37 129 -87 129 -180c0 -144 -96 -212 -293 -212h-19c-198 0 -293 68 -293 214c0 92 44 149 133 192c-80 39 -109 93 -109 173c0 146 87 214 272 214zM345 627h-9c-53 0 -90 -18 -90 -69
c0 -44 27 -67 72 -82l61 -18c40 21 56 53 56 91c0 49 -27 78 -90 78zM383 304l-84 26c-61 -24 -78 -52 -78 -88c0 -56 41 -86 112 -86h11c72 0 111 20 111 69c0 45 -33 67 -72 79z" />
    <glyph glyph-name="nine.osf" horiz-adv-x="635" 
d="M310 571c169 0 297 -38 297 -199v-100c0 -37 -6 -64 -18 -91l-189 -374c-4 -7 -10 -10 -18 -10h-162c-12 0 -15 8 -10 18l136 274c-20 -4 -50 -6 -69 -6c-158 0 -256 58 -256 189v101c0 160 123 198 289 198zM310 410c-94 0 -104 -24 -104 -85v-5c0 -61 11 -85 104 -85
c98 0 112 24 112 85v5c0 61 -14 85 -112 85z" />
    <glyph glyph-name="zero.subs" horiz-adv-x="381" 
d="M191 236c126 0 156 -48 156 -210c0 -161 -30 -209 -156 -209c-127 0 -157 48 -157 209c0 162 30 210 157 210zM191 158c-54 0 -67 -30 -67 -132c0 -101 13 -131 67 -131s67 30 67 131c0 102 -13 132 -67 132z" />
    <glyph glyph-name="one.subs" horiz-adv-x="294" 
d="M203 -102h65c8 0 12 -4 12 -12v-55c0 -7 -4 -11 -12 -11h-224c-8 0 -12 4 -12 12v54c0 8 4 12 12 12h71v229c0 23 -7 33 -45 33h-30c-9 0 -13 3 -13 11v42c0 8 5 11 12 15c13 5 43 8 55 8c46 0 109 -5 109 -78v-260z" />
    <glyph glyph-name="two.subs" horiz-adv-x="357" 
d="M177 236c77 0 144 -9 144 -92v-51c0 -37 -4 -70 -50 -94l-110 -57c-24 -12 -35 -19 -35 -37v-7h191c4 0 6 -1 6 -5v-68c0 -3 -2 -5 -5 -5h-280c-11 0 -14 6 -14 15v53c0 52 19 80 80 114l103 57c22 12 25 27 25 43v24c0 27 -16 32 -49 32h-123c-6 0 -8 3 -8 8v49
c0 6 2 9 7 10c41 8 82 11 118 11z" />
    <glyph glyph-name="three.subs" horiz-adv-x="342" 
d="M162 236c103 0 144 -22 144 -114v-8c0 -33 -10 -74 -52 -87c44 -9 52 -54 52 -85v-12c0 -91 -41 -113 -144 -113c-38 0 -79 3 -120 10c-6 1 -9 4 -9 11v48c0 7 4 9 11 9h74c84 0 98 7 98 42v11c0 20 -7 43 -63 43h-87c-8 0 -9 3 -9 9v53c0 7 1 9 9 9h86c54 0 64 12 64 45
v9c0 34 -14 42 -98 42h-74c-7 0 -11 2 -11 8v49c0 6 3 9 9 10c41 8 82 11 120 11z" />
    <glyph glyph-name="four.subs" horiz-adv-x="391" 
d="M105 233h67c8 0 10 -5 7 -14l-61 -228h92v99c0 6 2 12 9 14l66 25c9 3 15 2 15 -8v-130h61c9 0 13 -5 13 -12v-55c0 -9 -4 -11 -13 -11h-61v-81c0 -8 -3 -12 -11 -12h-67c-8 0 -12 4 -12 12v81h-179c-7 0 -11 2 -11 12v31c0 6 1 11 4 20l67 249c2 7 6 8 14 8z" />
    <glyph glyph-name="five.subs" horiz-adv-x="366" 
d="M56 233h261c7 0 11 -4 11 -12v-54c0 -9 -4 -12 -11 -12h-186l-6 -74c13 2 38 4 48 4c133 0 161 -32 161 -133v-4c0 -100 -20 -131 -178 -131c-38 0 -70 1 -111 8c-5 1 -8 4 -8 10v53c0 5 4 7 11 7h112c64 0 84 5 84 48v11c0 44 -19 53 -84 53h-108c-10 0 -15 3 -15 9v54
l11 155c0 5 3 8 8 8z" />
    <glyph glyph-name="six.subs" horiz-adv-x="351" 
d="M151 233h74c10 0 12 -7 8 -15l-69 -147c10 2 22 3 32 3c77 0 133 -35 133 -110v-38c0 -69 -38 -109 -152 -109c-107 0 -150 40 -153 121v20c1 24 4 41 13 62l100 205c4 6 8 8 14 8zM177 2c-47 0 -63 -11 -63 -48v-9c0 -38 16 -50 63 -50c46 0 62 12 62 50v9
c0 37 -16 48 -62 48z" />
    <glyph glyph-name="seven.subs" horiz-adv-x="342" 
d="M32 233h281c8 0 12 -2 12 -12v-40c0 -8 -3 -13 -6 -18l-172 -335c-3 -5 -8 -8 -14 -8h-77c-10 0 -12 7 -8 14l166 321h-182c-9 0 -13 3 -13 10v56c0 10 4 12 13 12z" />
    <glyph glyph-name="eight.subs" horiz-adv-x="369" 
d="M181 236h9c93 0 137 -36 137 -112c0 -55 -19 -77 -53 -98c41 -14 64 -39 64 -93c0 -79 -46 -116 -149 -116h-10c-100 0 -150 37 -150 113c0 37 14 75 69 99c-42 14 -54 48 -54 93c0 78 44 114 137 114zM189 158h-10c-28 0 -42 -15 -42 -44c0 -25 11 -37 36 -45l31 -7
c22 12 30 29 30 52c0 29 -13 44 -45 44zM207 -15l-40 10c-32 -12 -45 -28 -45 -54c0 -32 18 -46 58 -46h8c41 0 58 13 58 43c0 27 -12 40 -39 47z" />
    <glyph glyph-name="nine.subs" horiz-adv-x="349" 
d="M172 236c108 0 150 -40 154 -121v-20c-1 -24 -4 -41 -14 -61l-100 -206c-3 -5 -8 -8 -14 -8h-74c-10 0 -11 7 -8 15l70 148c-10 -2 -23 -3 -32 -3c-77 0 -133 34 -133 109v38c0 69 37 109 151 109zM172 158c-46 0 -62 -12 -62 -49v-10c0 -37 16 -48 62 -48
c47 0 64 11 64 48v10c0 37 -17 49 -64 49z" />
    <glyph glyph-name="zero.tf" 
d="M338 789c246 0 306 -92 306 -399c0 -306 -60 -395 -306 -395s-306 89 -306 395c0 307 60 399 306 399zM338 628c-97 0 -121 -55 -121 -238c0 -181 24 -234 121 -234s121 53 121 234c0 183 -24 238 -121 238z" />
    <glyph glyph-name="one.tf" 
d="M441 161h123c10 0 16 -5 16 -15v-131c0 -10 -6 -15 -16 -15h-423c-11 0 -16 5 -16 15l-1 131c0 10 5 15 16 15h126v427c0 43 -18 50 -62 50h-69c-12 0 -18 5 -18 15v103c0 14 6 19 17 21c43 9 83 12 114 12c108 0 193 -20 193 -153v-475z" />
    <glyph glyph-name="two.tf" 
d="M313 789c152 0 290 -28 290 -187v-101c0 -70 -4 -120 -108 -192l-154 -104c-18 -10 -24 -18 -24 -33v-10h293c7 0 8 -1 8 -6v-150c0 -5 -2 -6 -7 -6h-535c-22 0 -27 11 -27 28v90c0 84 38 116 127 182l202 145c32 25 40 46 40 90v20c0 56 -29 73 -128 73h-198
c-9 0 -13 4 -13 13v100c0 18 8 24 24 29c56 12 107 19 210 19z" />
    <glyph glyph-name="three.tf" 
d="M305 789c177 0 301 -32 301 -194v-57c0 -50 -10 -128 -106 -146c96 -19 106 -95 106 -145v-57c0 -162 -123 -195 -301 -195c-94 0 -167 7 -216 18c-17 5 -26 10 -26 28v101c0 10 5 14 15 14h206c113 0 137 15 137 75v10c0 58 -20 79 -119 79h-172c-10 0 -15 4 -15 15v114
c0 11 5 15 15 15h171c100 0 120 20 120 79v13c0 59 -26 72 -139 72h-204c-10 0 -15 4 -15 14v100c0 19 9 24 26 29c49 11 122 18 216 18z" />
    <glyph glyph-name="four.tf" 
d="M162 783h154c12 0 14 -6 11 -18l-115 -416h152v158c0 10 6 16 15 19l154 50c10 3 16 0 16 -14v-213h105c11 0 16 -5 16 -15v-132c0 -10 -5 -15 -16 -15h-105v-171c0 -11 -5 -16 -15 -16h-155c-10 0 -15 5 -15 16v171h-336c-10 0 -15 5 -15 16v95c0 10 3 21 7 35l124 440
c2 7 7 10 18 10z" />
    <glyph glyph-name="five.tf" 
d="M110 783h475c10 0 16 -5 16 -15v-131c0 -10 -6 -15 -16 -15h-338l-11 -136c28 4 81 7 106 7c154 0 275 -35 276 -199v-101c-1 -164 -125 -198 -301 -198c-95 0 -174 7 -223 17c-17 5 -26 11 -26 29v101c0 10 5 14 15 14h214c115 0 136 22 136 84v7c-1 62 -21 84 -136 84
h-198c-24 0 -31 8 -31 25v111l26 301c1 10 5 15 16 15z" />
    <glyph glyph-name="six.tf" 
d="M282 782h162c12 0 15 -8 10 -18l-143 -286c20 3 50 5 69 5c159 0 256 -58 256 -189v-100c0 -161 -123 -199 -289 -199c-169 0 -297 38 -297 199v100c0 37 6 65 18 91l196 387c4 7 10 10 18 10zM347 331c-97 0 -112 -24 -112 -84v-6c0 -61 15 -85 112 -85
c94 0 104 24 104 85v5c0 61 -10 85 -104 85z" />
    <glyph glyph-name="seven.tf" 
d="M64 783h555c10 0 15 -4 15 -15v-100c0 -10 -3 -16 -7 -23l-337 -635c-4 -7 -10 -10 -18 -10h-181c-12 0 -15 8 -10 18l326 604h-343c-11 0 -16 5 -16 14v132c0 11 5 15 16 15z" />
    <glyph glyph-name="eight.tf" 
d="M332 788h17c185 0 271 -68 271 -215c0 -91 -33 -146 -108 -186c88 -37 129 -87 129 -180c0 -144 -96 -212 -293 -212h-19c-198 0 -293 68 -293 214c0 92 44 149 133 192c-80 39 -109 93 -109 173c0 146 87 214 272 214zM345 627h-9c-53 0 -90 -18 -90 -69
c0 -44 27 -67 72 -82l61 -18c40 21 56 53 56 91c0 49 -27 78 -90 78zM383 304l-84 26c-61 -24 -78 -52 -78 -88c0 -56 41 -86 112 -86h11c72 0 111 20 111 69c0 45 -33 67 -72 79z" />
    <glyph glyph-name="nine.tf" 
d="M330 787c169 0 297 -38 297 -199v-100c0 -37 -6 -64 -18 -91l-196 -387c-4 -7 -10 -10 -18 -10h-162c-12 0 -15 8 -10 18l143 287c-20 -4 -50 -6 -69 -6c-158 0 -256 58 -256 189v101c0 160 123 198 289 198zM330 626c-94 0 -104 -24 -104 -85v-5c0 -61 11 -85 104 -85
c98 0 112 24 112 85v5c0 61 -14 85 -112 85z" />
    <glyph glyph-name="zero.tosf" 
d="M338 572c229 0 292 -68 292 -290c0 -221 -63 -287 -292 -287c-228 0 -291 66 -291 287c0 222 63 290 291 290zM338 413c-82 0 -107 -30 -107 -131c0 -98 25 -128 107 -128c83 0 108 30 108 128c0 101 -25 131 -108 131z" />
    <glyph glyph-name="one.tosf" 
d="M442 161h123c10 0 16 -5 16 -15v-131c0 -10 -6 -15 -16 -15h-423c-11 0 -16 5 -16 15l-1 131c0 10 5 15 16 15h126v210c0 43 -18 50 -62 50h-69c-12 -1 -18 4 -18 15v103c0 14 6 19 17 21c43 9 83 12 114 12c108 0 193 -20 193 -153v-258z" />
    <glyph glyph-name="two.tosf" 
d="M328 572c139 0 274 -18 274 -143v-48c0 -97 -12 -112 -125 -172l-77 -34c-14 -5 -19 -8 -19 -19v-3h222c9 0 15 -5 14 -13v-136c0 -3 -2 -4 -6 -4h-530c-22 0 -27 9 -27 22v94c0 32 12 52 59 73l272 143c19 10 32 21 32 35v11c0 29 -24 33 -114 33h-212
c-9 0 -13 2 -13 10v115c0 14 8 18 24 21c56 9 123 15 226 15z" />
    <glyph glyph-name="three.tosf" 
d="M305 572c177 0 301 -32 301 -193v-53c0 -50 -10 -127 -106 -145c96 -19 106 -95 106 -144v-53c0 -161 -123 -194 -301 -194c-94 0 -167 7 -216 18c-17 5 -26 11 -26 30v99c0 10 5 15 15 15h204c114 0 139 14 139 73v6c0 57 -20 78 -119 78h-172c-10 0 -15 4 -15 15v114
c0 10 5 15 15 15h171c100 0 120 20 120 79v6c0 59 -26 73 -139 73h-205c-10 0 -14 5 -14 15v99c0 19 9 24 26 29c49 11 122 18 216 18z" />
    <glyph glyph-name="four.tosf" 
d="M166 567h154c12 0 14 -6 11 -18l-115 -406h152v158c0 10 6 16 15 19l154 50c10 3 16 1 16 -14v-213h105c11 0 16 -5 16 -15v-132c0 -10 -5 -15 -16 -15h-105v-169c0 -10 -5 -15 -15 -15h-155c-10 0 -15 5 -15 15v169h-336c-10 0 -15 5 -15 16v95c0 10 3 21 7 35l124 430
c2 7 7 10 18 10z" />
    <glyph glyph-name="five.tosf" 
d="M110 567h473c10 0 16 -5 16 -15v-131c0 -10 -6 -15 -16 -15h-336l-11 -125c28 4 81 7 106 7c154 0 275 -34 276 -199v-100c-1 -165 -125 -199 -301 -199c-95 0 -174 7 -223 18c-17 5 -26 10 -26 29v100c0 10 5 15 15 15h214c115 0 136 21 136 83v7c-1 62 -21 85 -136 85
h-198c-24 0 -31 7 -31 24v111l26 290c1 10 5 15 16 15z" />
    <glyph glyph-name="six.tosf" 
d="M282 782h162c12 0 15 -8 10 -18l-143 -286c20 3 50 5 69 5c159 0 256 -58 256 -189v-100c0 -161 -123 -199 -289 -199c-169 0 -297 38 -297 199v100c0 37 6 65 18 91l196 387c4 7 10 10 18 10zM347 331c-97 0 -112 -24 -112 -84v-6c0 -61 15 -85 112 -85
c94 0 104 24 104 85v5c0 61 -10 85 -104 85z" />
    <glyph glyph-name="seven.tosf" 
d="M63 567h555c10 0 15 -4 15 -15v-100c0 -10 -3 -16 -7 -23l-336 -622c-4 -7 -10 -10 -18 -10h-181c-12 0 -15 8 -10 18l325 591h-343c-11 0 -16 5 -16 14v132c0 11 5 15 16 15z" />
    <glyph glyph-name="eight.tosf" 
d="M332 788h17c185 0 271 -68 271 -215c0 -91 -33 -146 -108 -186c88 -37 129 -87 129 -180c0 -144 -96 -212 -293 -212h-19c-198 0 -293 68 -293 214c0 92 44 149 133 192c-80 39 -109 93 -109 173c0 146 87 214 272 214zM345 627h-9c-53 0 -90 -18 -90 -69
c0 -44 27 -67 72 -82l61 -18c40 21 56 53 56 91c0 49 -27 78 -90 78zM383 304l-84 26c-61 -24 -78 -52 -78 -88c0 -56 41 -86 112 -86h11c72 0 111 20 111 69c0 45 -33 67 -72 79z" />
    <glyph glyph-name="nine.tosf" 
d="M331 571c169 0 297 -38 297 -199v-100c0 -37 -6 -64 -18 -91l-189 -374c-4 -7 -10 -10 -18 -10h-162c-12 0 -15 8 -10 18l136 274c-20 -4 -50 -6 -69 -6c-158 0 -256 58 -256 189v101c0 160 123 198 289 198zM331 410c-94 0 -104 -24 -104 -85v-5c0 -61 11 -85 104 -85
c98 0 112 24 112 85v5c0 61 -14 85 -112 85z" />
    <glyph glyph-name="zero.zero" horiz-adv-x="698" 
d="M349 789c246 0 306 -92 306 -399c0 -306 -60 -395 -306 -395s-306 89 -306 395c0 307 60 399 306 399zM349 628c-97 0 -121 -55 -121 -238c0 -31 1 -58 2 -82l217 268c-19 38 -49 52 -98 52zM349 156c97 0 121 53 121 234c0 31 -1 59 -2 83l-216 -268
c18 -36 48 -49 97 -49z" />
    <glyph glyph-name="zero.osf.zero" horiz-adv-x="662" 
d="M330 572c229 0 292 -68 292 -290c0 -221 -63 -287 -292 -287c-228 0 -291 66 -291 287c0 222 63 290 291 290zM330 413c-82 0 -107 -30 -107 -131c0 -25 2 -46 6 -63l152 188c-14 4 -31 6 -51 6zM330 154c83 0 108 30 108 128c0 29 -2 51 -6 69l-154 -190
c14 -5 31 -7 52 -7z" />
    <glyph glyph-name="zero.tf.zero" 
d="M338 789c246 0 306 -92 306 -399c0 -306 -60 -395 -306 -395s-306 89 -306 395c0 307 60 399 306 399zM338 628c-97 0 -121 -55 -121 -238c0 -31 1 -58 2 -82l217 268c-19 38 -49 52 -98 52zM338 156c97 0 121 53 121 234c0 31 -1 59 -2 83l-216 -268
c18 -36 48 -49 97 -49z" />
    <glyph glyph-name="zero.tosf.zero" 
d="M338 572c229 0 292 -68 292 -290c0 -221 -63 -287 -292 -287c-228 0 -291 66 -291 287c0 222 63 290 291 290zM338 413c-82 0 -107 -30 -107 -131c0 -25 2 -46 6 -63l152 188c-14 4 -31 6 -51 6zM338 154c83 0 108 30 108 128c0 29 -2 51 -6 69l-154 -190
c14 -5 31 -7 52 -7z" />
    <glyph glyph-name="fraction" unicode="&#x2044;" horiz-adv-x="140" 
d="M240 824h43c10 0 13 -6 8 -17l-370 -837c-6 -12 -12 -17 -22 -17h-44c-10 0 -14 5 -8 17l371 837c5 11 11 17 22 17z" />
    <glyph glyph-name="onehalf" unicode="&#xbd;" horiz-adv-x="873" 
d="M596 824h43c10 0 13 -6 8 -17l-369 -837c-6 -12 -13 -17 -23 -17h-44c-10 0 -14 5 -8 17l371 837c5 11 11 17 22 17zM278 436v-55c0 -8 -5 -11 -12 -11h-224c-8 0 -12 3 -12 11v55c0 8 4 12 12 12h71v229c0 23 -8 32 -45 32h-30c-9 0 -13 4 -13 12v42c0 8 5 11 11 14
c13 6 43 8 56 8c46 0 109 -5 109 -77v-260h65c7 0 12 -4 12 -12zM649 78h191c5 0 6 -1 6 -5v-68c0 -3 -2 -5 -5 -5h-280c-11 0 -14 6 -14 15v53c0 52 19 80 80 114l103 57c22 12 25 27 25 43v24c0 27 -16 32 -49 32h-123c-5 0 -7 3 -7 8v49c0 6 1 9 7 10c40 8 81 11 118 11
c76 0 143 -9 143 -92v-51c0 -37 -4 -70 -50 -94l-110 -57c-24 -12 -35 -19 -35 -37v-7z" />
    <glyph glyph-name="onequarter" unicode="&#xbc;" horiz-adv-x="905" 
d="M600 824h43c10 0 13 -6 8 -17l-369 -837c-6 -12 -13 -17 -23 -17h-44c-10 0 -14 5 -8 17l371 837c5 11 11 17 22 17zM286 436v-55c0 -8 -5 -11 -13 -11h-223c-8 0 -13 3 -13 11v55c0 8 5 12 13 12h70v229c0 23 -7 32 -45 32h-30c-8 0 -13 4 -13 12v42c0 8 5 11 12 14
c13 6 43 8 55 8c46 0 109 -5 109 -77v-260h65c8 0 13 -4 13 -12zM811 171h60c9 0 13 -5 13 -12v-55c0 -9 -4 -11 -13 -11h-60v-81c0 -8 -4 -12 -12 -12h-67c-8 0 -11 4 -11 12v81h-179c-8 0 -11 2 -11 12v31c0 6 1 11 4 20l66 249c3 7 6 8 15 8h66c9 0 11 -5 8 -14l-61 -228
h92v99c0 6 2 12 8 14l67 25c9 3 15 2 15 -8v-130z" />
    <glyph glyph-name="threequarters" unicode="&#xbe;" horiz-adv-x="932" 
d="M624 824h43c10 0 13 -6 8 -17l-370 -837c-6 -12 -12 -17 -22 -17h-44c-10 0 -14 5 -8 17l371 837c5 11 11 17 22 17zM162 785c104 0 145 -22 145 -113v-9c0 -32 -10 -73 -53 -86c44 -10 53 -54 53 -85v-12c0 -92 -41 -113 -145 -113c-37 0 -79 3 -120 10c-5 1 -8 4 -8 11
v48c0 6 3 8 11 8h73c84 0 99 8 99 42v12c0 20 -8 43 -64 43h-86c-8 0 -10 3 -10 9v53c0 6 2 8 10 8h86c54 0 64 13 64 46v9c0 34 -15 42 -99 42h-73c-8 0 -11 2 -11 8v49c0 6 3 9 8 10c41 7 83 10 120 10zM643 413h66c9 0 11 -5 8 -14l-62 -228h93v99c0 6 2 12 8 14l67 25
c9 3 15 2 15 -8v-130h60c9 0 13 -5 13 -12v-55c0 -9 -4 -11 -13 -11h-60v-81c0 -8 -4 -12 -12 -12h-67c-8 0 -11 4 -11 12v81h-179c-8 0 -12 2 -12 12v31c0 6 2 11 4 20l67 249c3 7 6 8 15 8z" />
    <glyph glyph-name="oneeighth" unicode="&#x215b;" horiz-adv-x="887" 
d="M605 824h43c10 0 13 -6 8 -17l-369 -837c-6 -12 -13 -17 -23 -17h-44c-10 0 -14 5 -8 17l371 837c5 11 11 17 22 17zM280 436v-55c0 -8 -4 -11 -12 -11h-224c-8 0 -12 3 -12 11v55c0 8 4 12 12 12h71v229c0 23 -7 32 -45 32h-30c-9 0 -13 4 -13 12v42c0 8 5 11 11 14
c14 6 44 8 56 8c46 0 109 -5 109 -77v-260h65c8 0 12 -4 12 -12zM798 206c41 -14 65 -39 65 -93c0 -79 -47 -116 -149 -116h-10c-100 0 -150 37 -150 113c0 37 13 75 69 99c-42 14 -55 48 -55 93c0 78 44 114 138 114h9c92 0 137 -36 137 -112c0 -55 -19 -77 -54 -98z
M713 338h-9c-28 0 -43 -15 -43 -44c0 -25 12 -37 36 -45l32 -7c21 12 30 29 30 52c0 29 -13 44 -46 44zM705 75h7c41 0 59 13 59 43c0 27 -12 41 -40 47l-39 10c-32 -12 -45 -28 -45 -54c0 -32 17 -46 58 -46z" />
    <glyph glyph-name="threeeighths" unicode="&#x215c;" horiz-adv-x="881" 
d="M600 824h43c10 0 13 -6 8 -17l-370 -837c-6 -12 -12 -17 -22 -17h-44c-10 0 -14 5 -8 17l371 837c5 11 11 17 22 17zM157 785c104 0 145 -22 145 -113v-9c0 -32 -10 -73 -53 -86c44 -10 53 -54 53 -85v-12c0 -92 -41 -113 -145 -113c-37 0 -79 3 -120 10c-5 1 -8 4 -8 11
v48c0 6 3 8 11 8h73c84 0 99 8 99 42v12c0 20 -8 43 -64 43h-87c-8 0 -9 3 -9 9v53c0 6 1 8 9 8h87c54 0 64 13 64 46v9c0 34 -15 42 -99 42h-73c-8 0 -11 2 -11 8v49c0 6 3 9 8 10c41 7 83 10 120 10zM700 416h9c92 0 137 -36 137 -112c0 -55 -19 -77 -54 -98
c41 -14 65 -39 65 -93c0 -79 -47 -116 -149 -116h-10c-100 0 -150 37 -150 113c0 37 13 75 69 99c-42 14 -55 48 -55 93c0 78 44 114 138 114zM707 338h-9c-28 0 -43 -15 -43 -44c0 -25 12 -37 36 -45l32 -7c21 12 30 29 30 52c0 29 -13 44 -46 44zM725 165l-39 10
c-32 -12 -45 -28 -45 -54c0 -32 17 -46 58 -46h7c41 0 59 13 59 43c0 27 -12 41 -40 47z" />
    <glyph glyph-name="fiveeighths" unicode="&#x215d;" horiz-adv-x="914" 
d="M634 824h43c10 0 13 -6 8 -17l-369 -837c-6 -12 -12 -17 -22 -17h-45c-10 0 -14 5 -8 17l371 837c5 11 11 17 22 17zM51 783h261c8 0 11 -4 11 -12v-54c0 -9 -3 -12 -11 -12h-186l-6 -74c13 2 38 4 48 4c133 0 161 -32 161 -133v-4c0 -100 -20 -131 -178 -131
c-38 0 -69 1 -110 8c-6 1 -9 4 -9 10v53c0 5 4 7 11 7h113c63 0 84 4 84 48v11c0 44 -20 52 -84 52h-109c-10 0 -15 4 -15 10v54l11 154c0 6 3 9 8 9zM732 416h9c93 0 138 -36 138 -112c0 -55 -20 -77 -54 -98c41 -14 65 -39 65 -93c0 -79 -47 -116 -150 -116h-10
c-100 0 -150 37 -150 113c0 37 14 75 69 99c-42 14 -54 48 -54 93c0 78 44 114 137 114zM740 338h-10c-28 0 -42 -15 -42 -44c0 -25 11 -37 36 -45l31 -7c22 12 31 29 31 52c0 29 -13 44 -46 44zM758 165l-40 10c-31 -12 -45 -28 -45 -54c0 -32 18 -46 59 -46h7
c41 0 59 13 59 43c0 27 -12 41 -40 47z" />
    <glyph glyph-name="seveneighths" unicode="&#x215e;" horiz-adv-x="840" 
d="M544 824h43c10 0 12 -6 8 -17l-370 -837c-6 -12 -12 -17 -22 -17h-45c-10 0 -13 5 -7 17l370 837c5 11 11 17 23 17zM36 783h281c8 0 12 -3 12 -12v-40c0 -8 -3 -13 -6 -18l-172 -335c-3 -6 -8 -8 -14 -8h-77c-10 0 -12 7 -8 14l166 321h-182c-9 0 -13 3 -13 10v56
c0 9 4 12 13 12zM657 416h9c92 0 137 -36 137 -112c0 -55 -19 -77 -54 -98c41 -14 65 -39 65 -93c0 -79 -47 -116 -149 -116h-10c-100 0 -150 37 -150 113c0 37 13 75 69 99c-42 14 -55 48 -55 93c0 78 44 114 138 114zM664 338h-9c-28 0 -43 -15 -43 -44
c0 -25 12 -37 36 -45l32 -7c21 12 30 29 30 52c0 29 -13 44 -46 44zM682 165l-39 10c-32 -12 -45 -28 -45 -54c0 -32 17 -46 58 -46h7c41 0 59 13 59 43c0 27 -12 41 -40 47z" />
    <glyph glyph-name="zero.dnom" horiz-adv-x="381" 
d="M191 416c126 0 156 -48 156 -210c0 -161 -30 -209 -156 -209c-127 0 -157 48 -157 209c0 162 30 210 157 210zM191 338c-54 0 -67 -30 -67 -132c0 -101 13 -131 67 -131s67 30 67 131c0 102 -13 132 -67 132z" />
    <glyph glyph-name="one.dnom" horiz-adv-x="294" 
d="M203 78h65c8 0 12 -4 12 -12v-55c0 -7 -4 -11 -12 -11h-224c-8 0 -12 4 -12 12v54c0 8 4 12 12 12h71v229c0 23 -7 33 -45 33h-30c-9 0 -13 3 -13 11v42c0 8 5 11 12 15c13 5 43 8 55 8c46 0 109 -5 109 -78v-260z" />
    <glyph glyph-name="two.dnom" horiz-adv-x="357" 
d="M177 416c77 0 144 -9 144 -92v-51c0 -37 -4 -70 -50 -94l-110 -57c-24 -12 -35 -19 -35 -37v-7h191c4 0 6 -1 6 -5v-68c0 -3 -2 -5 -5 -5h-280c-11 0 -14 6 -14 15v53c0 52 19 80 80 114l103 57c22 12 25 27 25 43v24c0 27 -16 32 -49 32h-123c-6 0 -8 3 -8 8v49
c0 6 2 9 7 10c41 8 82 11 118 11z" />
    <glyph glyph-name="three.dnom" horiz-adv-x="342" 
d="M162 416c103 0 144 -22 144 -114v-8c0 -33 -10 -74 -52 -87c44 -9 52 -54 52 -85v-12c0 -91 -41 -113 -144 -113c-38 0 -79 3 -120 10c-6 1 -9 4 -9 11v48c0 7 4 9 11 9h74c84 0 98 7 98 42v11c0 20 -7 43 -63 43h-87c-8 0 -9 3 -9 9v53c0 7 1 9 9 9h86c54 0 64 12 64 45
v9c0 34 -14 42 -98 42h-74c-7 0 -11 2 -11 8v49c0 6 3 9 9 10c41 8 82 11 120 11z" />
    <glyph glyph-name="four.dnom" horiz-adv-x="391" 
d="M105 413h67c8 0 10 -5 7 -14l-61 -228h92v99c0 6 2 12 9 14l66 25c9 3 15 2 15 -8v-130h61c9 0 13 -5 13 -12v-55c0 -9 -4 -11 -13 -11h-61v-81c0 -8 -3 -12 -11 -12h-67c-8 0 -12 4 -12 12v81h-179c-7 0 -11 2 -11 12v31c0 6 1 11 4 20l67 249c2 7 6 8 14 8z" />
    <glyph glyph-name="five.dnom" horiz-adv-x="366" 
d="M56 413h261c7 0 11 -4 11 -12v-54c0 -9 -4 -12 -11 -12h-186l-6 -74c13 2 38 4 48 4c133 0 161 -32 161 -133v-4c0 -100 -20 -131 -178 -131c-38 0 -70 1 -111 8c-5 1 -8 4 -8 10v53c0 5 4 7 11 7h112c64 0 84 5 84 48v11c0 44 -19 53 -84 53h-108c-10 0 -15 3 -15 9v54
l11 155c0 5 3 8 8 8z" />
    <glyph glyph-name="six.dnom" horiz-adv-x="351" 
d="M151 413h74c10 0 12 -7 8 -15l-69 -147c10 2 22 3 32 3c77 0 133 -35 133 -110v-38c0 -69 -38 -109 -152 -109c-107 0 -150 40 -153 121v20c1 24 4 41 13 62l100 205c4 6 8 8 14 8zM177 182c-47 0 -63 -11 -63 -48v-9c0 -38 16 -50 63 -50c46 0 62 12 62 50v9
c0 37 -16 48 -62 48z" />
    <glyph glyph-name="seven.dnom" horiz-adv-x="342" 
d="M32 413h281c8 0 12 -2 12 -12v-40c0 -8 -3 -13 -6 -18l-172 -335c-3 -5 -8 -8 -14 -8h-77c-10 0 -12 7 -8 14l166 321h-182c-9 0 -13 3 -13 10v56c0 10 4 12 13 12z" />
    <glyph glyph-name="eight.dnom" horiz-adv-x="369" 
d="M181 416h9c93 0 137 -36 137 -112c0 -55 -19 -77 -53 -98c41 -14 64 -39 64 -93c0 -79 -46 -116 -149 -116h-10c-100 0 -150 37 -150 113c0 37 14 75 69 99c-42 14 -54 48 -54 93c0 78 44 114 137 114zM189 338h-10c-28 0 -42 -15 -42 -44c0 -25 11 -37 36 -45l31 -7
c22 12 30 29 30 52c0 29 -13 44 -45 44zM207 165l-40 10c-32 -12 -45 -28 -45 -54c0 -32 18 -46 58 -46h8c41 0 58 13 58 43c0 27 -12 41 -39 47z" />
    <glyph glyph-name="nine.dnom" horiz-adv-x="349" 
d="M172 416c108 0 150 -40 154 -121v-20c-1 -24 -4 -41 -14 -61l-100 -206c-3 -5 -8 -8 -14 -8h-74c-10 0 -11 7 -8 15l70 148c-10 -2 -23 -3 -32 -3c-77 0 -133 34 -133 109v38c0 69 37 109 151 109zM172 338c-46 0 -62 -12 -62 -49v-10c0 -37 16 -48 62 -48
c47 0 64 11 64 48v10c0 37 -17 49 -64 49z" />
    <glyph glyph-name="zero.numr" horiz-adv-x="381" 
d="M191 785c126 0 156 -47 156 -209c0 -161 -30 -209 -156 -209c-127 0 -157 48 -157 209c0 162 30 209 157 209zM191 708c-54 0 -67 -30 -67 -132c0 -101 13 -131 67 -131s67 30 67 131c0 102 -13 132 -67 132z" />
    <glyph glyph-name="one.numr" horiz-adv-x="294" 
d="M203 448h65c8 0 12 -4 12 -12v-55c0 -8 -4 -11 -12 -11h-224c-8 0 -12 3 -12 11v55c0 8 4 12 12 12h71v229c0 23 -7 32 -45 32h-30c-9 0 -13 4 -13 12v42c0 8 5 11 12 14c13 6 43 8 55 8c46 0 109 -5 109 -77v-260z" />
    <glyph glyph-name="two.numr" horiz-adv-x="357" 
d="M177 785c77 0 144 -8 144 -91v-52c0 -36 -4 -69 -50 -93l-110 -57c-24 -12 -35 -19 -35 -37v-7h191c4 0 6 -2 6 -5v-68c0 -3 -2 -5 -5 -5h-280c-11 0 -14 6 -14 15v52c0 53 19 80 80 115l103 57c22 12 25 27 25 43v24c0 27 -16 32 -49 32h-123c-6 0 -8 2 -8 7v50
c0 6 2 9 7 10c41 7 82 10 118 10z" />
    <glyph glyph-name="three.numr" horiz-adv-x="342" 
d="M162 785c103 0 144 -22 144 -113v-9c0 -32 -10 -73 -52 -86c44 -10 52 -54 52 -85v-12c0 -92 -41 -113 -144 -113c-38 0 -79 3 -120 10c-6 1 -9 4 -9 11v48c0 6 4 8 11 8h74c84 0 98 8 98 42v12c0 20 -7 43 -63 43h-87c-8 0 -9 3 -9 9v53c0 6 1 8 9 8h86
c54 0 64 13 64 46v9c0 34 -14 42 -98 42h-74c-7 0 -11 2 -11 8v49c0 6 3 9 9 10c41 7 82 10 120 10z" />
    <glyph glyph-name="four.numr" horiz-adv-x="391" 
d="M105 783h67c8 0 10 -5 7 -14l-61 -228h92v98c0 6 2 12 9 15l66 25c9 3 15 1 15 -8v-130h61c9 0 13 -5 13 -12v-55c0 -9 -4 -12 -13 -12h-61v-80c0 -9 -3 -12 -11 -12h-67c-8 0 -12 3 -12 12v80h-179c-7 0 -11 3 -11 12v32c0 6 1 10 4 20l67 249c2 6 6 8 14 8z" />
    <glyph glyph-name="five.numr" horiz-adv-x="366" 
d="M56 783h261c7 0 11 -4 11 -12v-54c0 -9 -4 -12 -11 -12h-186l-6 -74c13 2 38 4 48 4c133 0 161 -32 161 -133v-4c0 -100 -20 -131 -178 -131c-38 0 -70 1 -111 8c-5 1 -8 4 -8 10v53c0 5 4 7 11 7h112c64 0 84 4 84 48v11c0 44 -19 52 -84 52h-108c-10 0 -15 4 -15 10v54
l11 154c0 6 3 9 8 9z" />
    <glyph glyph-name="six.numr" horiz-adv-x="351" 
d="M151 783h74c10 0 12 -7 8 -15l-69 -148c10 2 22 3 32 3c77 0 133 -35 133 -109v-38c0 -69 -38 -109 -152 -109c-107 0 -150 40 -153 121v20c1 24 4 41 13 61l100 206c4 5 8 8 14 8zM177 552c-47 0 -63 -11 -63 -48v-10c0 -37 16 -49 63 -49c46 0 62 12 62 49v10
c0 37 -16 48 -62 48z" />
    <glyph glyph-name="seven.numr" horiz-adv-x="342" 
d="M32 783h281c8 0 12 -3 12 -12v-40c0 -8 -3 -13 -6 -18l-172 -335c-3 -6 -8 -8 -14 -8h-77c-10 0 -12 7 -8 14l166 321h-182c-9 0 -13 3 -13 10v56c0 9 4 12 13 12z" />
    <glyph glyph-name="eight.numr" horiz-adv-x="369" 
d="M181 785h9c93 0 137 -35 137 -112c0 -54 -19 -76 -53 -97c41 -14 64 -39 64 -93c0 -79 -46 -116 -149 -116h-10c-100 0 -150 37 -150 113c0 37 14 75 69 98c-42 15 -54 49 -54 94c0 78 44 113 137 113zM189 708h-10c-28 0 -42 -15 -42 -44c0 -26 11 -38 36 -45l31 -7
c22 12 30 28 30 52c0 29 -13 44 -45 44zM207 535l-40 10c-32 -12 -45 -28 -45 -54c0 -32 18 -46 58 -46h8c41 0 58 12 58 43c0 27 -12 40 -39 47z" />
    <glyph glyph-name="nine.numr" horiz-adv-x="349" 
d="M172 786c108 0 150 -40 154 -121v-20c-1 -25 -4 -42 -14 -61l-100 -206c-3 -6 -8 -8 -14 -8h-74c-10 0 -11 7 -8 14l70 148c-10 -2 -23 -3 -32 -3c-77 0 -133 35 -133 110v38c0 69 37 109 151 109zM172 707c-46 0 -62 -11 -62 -49v-9c0 -37 16 -49 62 -49
c47 0 64 12 64 49v9c0 38 -17 49 -64 49z" />
    <glyph glyph-name="uni24EA" unicode="&#x24ea;" horiz-adv-x="800" 
d="M400 24c-239 0 -367 127 -367 366s128 367 367 367c244 0 367 -131 367 -367c0 -239 -128 -366 -367 -366zM400 77c209 0 314 104 314 313c0 207 -101 314 -314 314c-209 0 -314 -105 -314 -314s105 -313 314 -313zM400 595c127 0 157 -47 157 -210
c0 -161 -30 -209 -157 -209c-126 0 -157 48 -157 209c0 163 31 210 157 210zM400 517c-54 0 -67 -30 -67 -132c0 -101 13 -130 67 -130s67 29 67 130c0 102 -13 132 -67 132z" />
    <glyph glyph-name="uni2460" unicode="&#x2460;" horiz-adv-x="800" 
d="M400 24c-239 0 -367 127 -367 366s128 367 367 367c243 0 367 -130 367 -367c0 -239 -128 -366 -367 -366zM400 77c209 0 313 104 313 313c0 207 -101 314 -313 314c-209 0 -314 -105 -314 -314s105 -313 314 -313zM453 257h65c8 0 13 -4 13 -12v-55c0 -7 -5 -11 -13 -11
h-223c-8 0 -13 4 -13 12v54c0 8 5 12 13 12h70v229c0 23 -7 33 -45 33h-30c-8 0 -13 3 -13 11v42c0 8 5 11 12 15c13 5 43 8 55 8c46 0 109 -6 109 -78v-260z" />
    <glyph glyph-name="uni2461" unicode="&#x2461;" horiz-adv-x="800" 
d="M400 24c-239 0 -367 127 -367 366s128 367 367 367c244 0 367 -131 367 -367c0 -239 -128 -366 -367 -366zM400 77c209 0 313 104 313 313c0 207 -101 314 -313 314c-209 0 -314 -105 -314 -314s105 -313 314 -313zM404 595c76 0 144 -9 144 -92v-51
c0 -37 -5 -70 -51 -94l-110 -57c-24 -12 -35 -19 -35 -37v-7h191c5 0 7 -1 7 -5v-68c0 -3 -3 -5 -6 -5h-280c-11 0 -14 6 -14 15v52c0 53 19 81 81 115l102 57c23 12 25 27 25 43v24c0 27 -15 32 -48 32h-124c-5 0 -7 3 -7 8v49c0 6 1 9 7 10c40 8 81 11 118 11z" />
    <glyph glyph-name="uni2462" unicode="&#x2462;" horiz-adv-x="800" 
d="M400 24c-239 0 -367 127 -367 366s128 367 367 367c243 0 367 -131 367 -367c0 -239 -128 -366 -367 -366zM400 77c209 0 313 104 313 313c0 207 -101 314 -313 314c-209 0 -314 -105 -314 -314s105 -313 314 -313zM392 595c104 0 144 -22 144 -114v-8
c0 -33 -10 -74 -52 -87c44 -9 52 -54 52 -85v-12c0 -91 -40 -113 -144 -113c-38 0 -79 3 -120 10c-6 1 -9 4 -9 11v48c0 7 4 9 11 9h74c84 0 98 7 98 42v11c1 20 -7 43 -63 43h-87c-8 0 -9 3 -9 9v53c0 6 1 8 9 8h86c54 0 64 13 64 46v9c0 34 -14 42 -98 42h-74
c-7 0 -11 2 -11 8v49c0 6 3 9 9 10c41 8 82 11 120 11z" />
    <glyph glyph-name="uni2463" unicode="&#x2463;" horiz-adv-x="800" 
d="M400 24c-239 0 -367 127 -367 366s128 367 367 367c243 0 367 -131 367 -367c0 -239 -128 -366 -367 -366zM400 77c209 0 313 104 313 313c0 207 -101 314 -313 314c-209 0 -314 -105 -314 -314s105 -313 314 -313zM308 592h67c9 0 10 -5 8 -14l-62 -228h92v98
c0 7 2 13 9 15l67 25c8 3 14 2 14 -8v-130h61c9 0 13 -5 13 -12v-55c0 -9 -4 -12 -13 -12h-61v-80c0 -8 -3 -12 -11 -12h-67c-8 0 -12 4 -12 12v80h-179c-7 0 -11 3 -11 13v31c0 6 1 11 4 20l67 249c2 7 6 8 14 8z" />
    <glyph glyph-name="uni2464" unicode="&#x2464;" horiz-adv-x="800" 
d="M400 24c-239 0 -367 127 -367 366s128 367 367 367c243 0 367 -131 367 -367c0 -239 -128 -366 -367 -366zM400 77c209 0 313 104 313 313c0 207 -101 314 -313 314c-209 0 -314 -105 -314 -314s105 -313 314 -313zM270 592h261c7 0 11 -4 11 -12v-54
c0 -9 -4 -12 -11 -12h-186l-6 -74c13 2 38 4 48 4c133 0 161 -32 161 -133v-4c0 -100 -20 -131 -178 -131c-38 0 -70 1 -111 8c-5 1 -8 4 -8 10v53c0 5 3 7 11 7h112c64 0 84 5 84 48v11c0 44 -20 53 -84 53h-108c-11 0 -15 3 -15 9v54l11 155c0 5 3 8 8 8z" />
    <glyph glyph-name="uni2465" unicode="&#x2465;" horiz-adv-x="800" 
d="M400 24c-239 0 -367 127 -367 366s128 367 367 367c243 0 367 -131 367 -367c0 -239 -128 -366 -367 -366zM400 77c209 0 313 104 313 313c0 207 -101 314 -313 314c-209 0 -314 -105 -314 -314s105 -313 314 -313zM375 592h74c9 0 11 -7 8 -15l-70 -147c10 1 22 3 32 3
c77 0 133 -35 133 -110v-38c0 -69 -38 -109 -152 -109c-107 0 -149 40 -153 121v20c1 24 4 41 13 62l101 205c3 6 8 8 14 8zM400 361c-47 0 -63 -11 -63 -48v-9c0 -38 16 -50 63 -50s63 12 63 50v9c0 37 -16 48 -63 48z" />
    <glyph glyph-name="uni2466" unicode="&#x2466;" horiz-adv-x="800" 
d="M400 24c-239 0 -367 127 -367 366s128 367 367 367c243 0 367 -131 367 -367c0 -239 -128 -366 -367 -366zM400 77c209 0 313 104 313 313c0 207 -101 314 -313 314c-209 0 -314 -105 -314 -314s105 -313 314 -313zM260 592h281c8 0 11 -2 11 -12v-40c0 -8 -2 -13 -5 -18
l-173 -335c-2 -5 -7 -8 -14 -8h-77c-9 0 -11 7 -8 14l167 321h-182c-10 0 -13 3 -13 10v56c0 10 3 12 13 12z" />
    <glyph glyph-name="uni2467" unicode="&#x2467;" horiz-adv-x="800" 
d="M400 24c-239 0 -367 127 -367 366s128 367 367 367c243 0 367 -131 367 -367c0 -239 -128 -366 -367 -366zM400 77c209 0 313 104 313 313c0 207 -101 314 -313 314c-209 0 -314 -105 -314 -314s105 -313 314 -313zM397 595h9c93 0 137 -36 137 -112
c0 -55 -19 -77 -53 -98c41 -14 64 -39 64 -93c0 -79 -46 -116 -149 -116h-10c-100 0 -150 37 -150 113c0 37 14 75 69 99c-42 14 -54 48 -54 93c0 78 44 114 137 114zM403 517h-10c-28 0 -42 -15 -42 -44c0 -26 11 -37 36 -45l31 -7c22 12 31 29 31 52c0 29 -14 44 -46 44z
M422 344l-39 10c-32 -12 -45 -28 -45 -54c0 -32 18 -46 58 -46h8c41 0 58 13 58 43c0 27 -12 40 -40 47z" />
    <glyph glyph-name="uni2468" unicode="&#x2468;" horiz-adv-x="800" 
d="M400 24c-239 0 -367 127 -367 366s128 367 367 367c243 0 367 -131 367 -367c0 -239 -128 -366 -367 -366zM400 77c209 0 313 104 313 313c0 207 -101 314 -313 314c-209 0 -314 -105 -314 -314s105 -313 314 -313zM399 595c107 0 150 -40 153 -121v-20
c-1 -24 -4 -41 -13 -61l-101 -206c-3 -5 -7 -8 -14 -8h-73c-10 0 -12 7 -8 15l69 148c-10 -2 -22 -3 -32 -3c-77 0 -133 34 -133 109v38c0 69 38 109 152 109zM400 517c-47 0 -63 -12 -63 -49v-10c0 -37 16 -48 63 -48c46 0 63 11 63 48v10c0 37 -17 49 -63 49z" />
    <glyph glyph-name="uni24FF" unicode="&#x24ff;" horiz-adv-x="800" 
d="M400 30c-224 0 -341 116 -341 340s117 340 341 340c227 0 340 -118 340 -340c0 -224 -116 -340 -340 -340zM400 575c-126 0 -157 -47 -157 -210c0 -161 31 -209 157 -209c127 0 157 48 157 209c0 163 -30 210 -157 210zM400 497c54 0 67 -30 67 -132
c0 -101 -13 -130 -67 -130s-67 29 -67 130c0 102 13 132 67 132z" />
    <glyph glyph-name="uni2776" unicode="&#x2776;" horiz-adv-x="800" 
d="M400 30c-224 0 -341 116 -341 340s117 340 341 340c227 0 340 -118 340 -340c0 -224 -116 -340 -340 -340zM518 237h-65v260c0 72 -63 78 -109 78c-12 0 -42 -3 -55 -8c-7 -4 -12 -7 -12 -15v-42c0 -8 5 -11 13 -11h30c38 0 45 -10 45 -33v-229h-70c-8 0 -13 -4 -13 -12
v-54c0 -8 5 -12 13 -12h223c8 0 13 4 13 11v55c0 8 -5 12 -13 12z" />
    <glyph glyph-name="uni2777" unicode="&#x2777;" horiz-adv-x="800" 
d="M400 30c-224 0 -341 116 -341 340s117 340 341 340c227 0 340 -118 340 -340c0 -224 -116 -340 -340 -340zM404 575c-37 0 -78 -3 -118 -11c-6 -1 -7 -4 -7 -10v-49c0 -5 2 -8 7 -8h124c33 0 48 -5 48 -32v-24c0 -16 -2 -31 -25 -43l-102 -57c-62 -34 -81 -62 -81 -115
v-52c0 -9 3 -15 14 -15h280c3 0 6 2 6 5v68c0 4 -2 5 -7 5h-191v7c0 18 11 25 35 37l110 57c46 24 51 57 51 94v51c0 83 -68 92 -144 92z" />
    <glyph glyph-name="uni2778" unicode="&#x2778;" horiz-adv-x="800" 
d="M400 30c-224 0 -341 116 -341 340s117 340 341 340c227 0 340 -118 340 -340c0 -224 -116 -340 -340 -340zM392 575c-38 0 -79 -3 -120 -11c-6 -1 -9 -4 -9 -10v-49c0 -6 4 -8 11 -8h74c84 0 98 -8 98 -42v-9c0 -33 -10 -46 -64 -46h-86c-8 0 -9 -2 -9 -8v-53
c0 -6 1 -9 9 -9h87c56 0 64 -23 63 -43v-11c0 -35 -14 -42 -98 -42h-74c-7 0 -11 -2 -11 -9v-48c0 -7 3 -10 9 -11c41 -7 82 -10 120 -10c104 0 144 22 144 113v12c0 31 -8 76 -52 85c42 13 52 54 52 87v8c0 92 -40 114 -144 114z" />
    <glyph glyph-name="uni2779" unicode="&#x2779;" horiz-adv-x="800" 
d="M400 30c-224 0 -341 116 -341 340s117 340 341 340c227 0 340 -118 340 -340c0 -224 -116 -340 -340 -340zM375 572h-67c-8 0 -12 -1 -14 -8l-67 -249c-3 -9 -4 -14 -4 -20v-31c0 -10 4 -13 11 -13h179v-80c0 -8 4 -12 12 -12h67c8 0 11 4 11 12v80h61c9 0 13 3 13 12v55
c0 7 -4 12 -13 12h-61v130c0 10 -6 11 -14 8l-67 -25c-7 -2 -9 -8 -9 -15v-98h-92l62 228c2 9 1 14 -8 14z" />
    <glyph glyph-name="uni277A" unicode="&#x277a;" horiz-adv-x="800" 
d="M400 30c-224 0 -341 116 -341 340s117 340 341 340c227 0 340 -118 340 -340c0 -224 -116 -340 -340 -340zM531 572h-261c-5 0 -8 -3 -8 -8l-11 -155v-54c0 -6 4 -9 15 -9h108c64 0 84 -9 84 -53v-11c0 -43 -20 -48 -84 -48h-112c-8 0 -11 -2 -11 -7v-53c0 -6 3 -9 8 -10
c41 -7 73 -8 111 -8c158 0 178 31 178 131v4c0 101 -28 133 -161 133c-10 0 -35 -2 -48 -4l6 74h186c7 0 11 3 11 12v54c0 8 -4 12 -11 12z" />
    <glyph glyph-name="uni277B" unicode="&#x277b;" horiz-adv-x="800" 
d="M400 30c-224 0 -341 116 -341 340s117 340 341 340c227 0 340 -118 340 -340c0 -224 -116 -340 -340 -340zM449 572h-74c-6 0 -11 -2 -14 -8l-101 -205c-9 -21 -12 -38 -13 -62v-20c4 -81 46 -121 153 -121c114 0 152 40 152 109v38c0 75 -56 110 -133 110
c-10 0 -22 -2 -32 -3l70 147c3 8 1 15 -8 15zM400 341c47 0 63 -11 63 -48v-9c0 -38 -16 -50 -63 -50s-63 12 -63 50v9c0 37 16 48 63 48z" />
    <glyph glyph-name="uni277C" unicode="&#x277c;" horiz-adv-x="800" 
d="M400 30c-224 0 -341 116 -341 340s117 340 341 340c227 0 340 -118 340 -340c0 -224 -116 -340 -340 -340zM541 572h-281c-10 0 -13 -2 -13 -12v-56c0 -7 3 -10 13 -10h182l-167 -321c-3 -7 -1 -14 8 -14h77c7 0 12 3 14 8l173 335c3 5 5 10 5 18v40c0 10 -3 12 -11 12z
" />
    <glyph glyph-name="uni277D" unicode="&#x277d;" horiz-adv-x="800" 
d="M400 30c-224 0 -341 116 -341 340s117 340 341 340c227 0 340 -118 340 -340c0 -224 -116 -340 -340 -340zM406 575h-9c-93 0 -137 -36 -137 -114c0 -45 12 -79 54 -93c-55 -24 -69 -62 -69 -99c0 -76 50 -113 150 -113h10c103 0 149 37 149 116c0 54 -23 79 -64 93
c34 21 53 43 53 98c0 76 -44 112 -137 112zM393 497h10c32 0 46 -15 46 -44c0 -23 -9 -40 -31 -52l-31 7c-25 8 -36 19 -36 45c0 29 14 44 42 44zM383 334l39 -10c28 -7 40 -20 40 -47c0 -30 -17 -43 -58 -43h-8c-40 0 -58 14 -58 46c0 26 13 42 45 54z" />
    <glyph glyph-name="uni277E" unicode="&#x277e;" horiz-adv-x="800" 
d="M400 30c-224 0 -341 116 -341 340s117 340 341 340c227 0 340 -118 340 -340c0 -224 -116 -340 -340 -340zM399 575c-114 0 -152 -40 -152 -109v-38c0 -75 56 -109 133 -109c10 0 22 1 32 3l-69 -148c-4 -8 -2 -15 8 -15h73c7 0 11 3 14 8l101 206c9 20 12 37 13 61v20
c-3 81 -46 121 -153 121zM400 497c46 0 63 -12 63 -49v-10c0 -37 -17 -48 -63 -48c-47 0 -63 11 -63 48v10c0 37 16 49 63 49z" />
    <glyph glyph-name="zerosuperior" unicode="&#x2070;" horiz-adv-x="381" 
d="M191 939c126 0 156 -47 156 -209c0 -161 -30 -209 -156 -209c-127 0 -157 48 -157 209c0 162 30 209 157 209zM191 862c-54 0 -67 -30 -67 -132c0 -101 13 -131 67 -131s67 30 67 131c0 102 -13 132 -67 132z" />
    <glyph glyph-name="onesuperior" unicode="&#xb9;" horiz-adv-x="294" 
d="M203 602h65c8 0 12 -4 12 -12v-55c0 -8 -4 -11 -12 -11h-224c-8 0 -12 3 -12 11v55c0 8 4 12 12 12h71v229c0 23 -7 32 -45 32h-30c-9 0 -13 4 -13 12v42c0 8 5 11 12 14c13 6 43 8 55 8c46 0 109 -5 109 -77v-260z" />
    <glyph glyph-name="twosuperior" unicode="&#xb2;" horiz-adv-x="357" 
d="M177 939c77 0 144 -8 144 -91v-52c0 -36 -4 -69 -50 -93l-110 -57c-24 -12 -35 -19 -35 -37v-7h191c4 0 6 -2 6 -5v-68c0 -3 -2 -5 -5 -5h-280c-11 0 -14 6 -14 15v52c0 53 19 80 80 115l103 57c22 12 25 27 25 43v24c0 27 -16 32 -49 32h-123c-6 0 -8 2 -8 7v50
c0 6 2 9 7 10c41 7 82 10 118 10z" />
    <glyph glyph-name="threesuperior" unicode="&#xb3;" horiz-adv-x="342" 
d="M162 939c103 0 144 -22 144 -113v-9c0 -32 -10 -73 -52 -86c44 -10 52 -54 52 -85v-12c0 -92 -41 -113 -144 -113c-38 0 -79 3 -120 10c-6 1 -9 4 -9 11v48c0 6 4 8 11 8h74c84 0 98 8 98 42v12c0 20 -7 43 -63 43h-87c-8 0 -9 3 -9 9v53c0 6 1 8 9 8h86
c54 0 64 13 64 46v9c0 34 -14 42 -98 42h-74c-7 0 -11 2 -11 8v49c0 6 3 9 9 10c41 7 82 10 120 10z" />
    <glyph glyph-name="foursuperior" unicode="&#x2074;" horiz-adv-x="391" 
d="M105 937h67c8 0 10 -5 7 -14l-61 -228h92v98c0 6 2 12 9 15l66 25c9 3 15 1 15 -8v-130h61c9 0 13 -5 13 -12v-55c0 -9 -4 -12 -13 -12h-61v-80c0 -9 -3 -12 -11 -12h-67c-8 0 -12 3 -12 12v80h-179c-7 0 -11 3 -11 12v32c0 6 1 10 4 20l67 249c2 6 6 8 14 8z" />
    <glyph glyph-name="fivesuperior" unicode="&#x2075;" horiz-adv-x="366" 
d="M56 937h261c7 0 11 -4 11 -12v-54c0 -9 -4 -12 -11 -12h-186l-6 -74c13 2 38 4 48 4c133 0 161 -32 161 -133v-4c0 -100 -20 -131 -178 -131c-38 0 -70 1 -111 8c-5 1 -8 4 -8 10v53c0 5 4 7 11 7h112c64 0 84 4 84 48v11c0 44 -19 52 -84 52h-108c-10 0 -15 4 -15 10v54
l11 154c0 6 3 9 8 9z" />
    <glyph glyph-name="sixsuperior" unicode="&#x2076;" horiz-adv-x="351" 
d="M152 937h74c10 0 12 -7 8 -15l-69 -148c10 2 22 3 32 3c77 0 133 -35 133 -109v-38c0 -69 -38 -109 -152 -109c-107 0 -150 40 -153 121v20c1 24 4 41 13 61l100 206c4 5 8 8 14 8zM178 706c-47 0 -63 -11 -63 -48v-10c0 -37 16 -49 63 -49c46 0 62 12 62 49v10
c0 37 -16 48 -62 48z" />
    <glyph glyph-name="sevensuperior" unicode="&#x2077;" horiz-adv-x="342" 
d="M32 937h281c8 0 12 -3 12 -12v-40c0 -8 -3 -13 -6 -18l-172 -335c-3 -6 -8 -8 -14 -8h-77c-10 0 -12 7 -8 14l166 321h-182c-9 0 -13 3 -13 10v56c0 9 4 12 13 12z" />
    <glyph glyph-name="eightsuperior" unicode="&#x2078;" horiz-adv-x="369" 
d="M181 939h9c93 0 137 -35 137 -112c0 -54 -19 -76 -53 -97c41 -14 64 -39 64 -93c0 -79 -46 -116 -149 -116h-10c-100 0 -150 37 -150 113c0 37 14 75 69 98c-42 15 -54 49 -54 94c0 78 44 113 137 113zM189 862h-10c-28 0 -42 -15 -42 -44c0 -26 11 -38 36 -45l31 -7
c22 12 30 28 30 52c0 29 -13 44 -45 44zM207 689l-40 10c-32 -12 -45 -28 -45 -54c0 -32 18 -46 58 -46h8c41 0 58 12 58 43c0 27 -12 40 -39 47z" />
    <glyph glyph-name="ninesuperior" unicode="&#x2079;" horiz-adv-x="349" 
d="M172 940c108 0 150 -40 154 -121v-20c-1 -25 -4 -42 -14 -61l-100 -206c-3 -6 -8 -8 -14 -8h-74c-10 0 -11 7 -8 14l70 148c-10 -2 -23 -3 -32 -3c-77 0 -133 35 -133 110v38c0 69 37 109 151 109zM172 861c-46 0 -62 -11 -62 -49v-9c0 -37 16 -49 62 -49
c47 0 64 12 64 49v9c0 38 -17 49 -64 49z" />
    <glyph glyph-name="asterisk" unicode="*" horiz-adv-x="437" 
d="M179 803h78c10 0 15 -6 15 -16l-9 -108l104 40c9 3 16 0 19 -9l21 -74c3 -10 0 -16 -10 -19l-103 -28l70 -88c7 -8 5 -15 -3 -21l-60 -41c-9 -6 -16 -5 -21 3l-60 90l-66 -93c-6 -9 -13 -10 -21 -3l-58 46c-8 6 -9 13 -2 21l69 84l-106 31c-10 2 -13 9 -10 19l24 72
c3 10 10 13 20 9l101 -41l-7 110c-1 10 5 16 15 16z" />
    <glyph glyph-name="backslash" unicode="\" horiz-adv-x="512" 
d="M29 824h69c12 0 18 -6 22 -17l371 -837c5 -12 2 -17 -8 -17h-70c-10 0 -17 5 -22 17l-370 837c-4 11 -2 17 8 17z" />
    <glyph glyph-name="periodcentered" unicode="&#xb7;" horiz-adv-x="276" 
d="M138 375c64 0 101 -34 101 -91c0 -58 -37 -92 -101 -92s-101 34 -101 92c0 57 37 91 101 91z" />
    <glyph glyph-name="bullet" unicode="&#x2022;" horiz-adv-x="560" 
d="M281 459c118 0 188 -64 188 -169c0 -106 -70 -170 -188 -170c-119 0 -189 64 -189 170c0 105 70 169 189 169z" />
    <glyph glyph-name="colon" unicode=":" horiz-adv-x="298" 
d="M149 573c64 0 101 -34 101 -91c0 -58 -37 -92 -101 -92s-101 34 -101 92c0 57 37 91 101 91zM149 178c64 0 101 -34 101 -91c0 -58 -37 -92 -101 -92s-101 34 -101 92c0 57 37 91 101 91z" />
    <glyph glyph-name="comma" unicode="," horiz-adv-x="300" 
d="M73 130h181c6 0 10 -3 10 -10v-27c0 -8 -3 -12 -5 -15l-201 -264c-5 -6 -9 -7 -15 -4l-55 31c-5 3 -5 8 -3 14l77 266c2 6 4 9 11 9z" />
    <glyph glyph-name="ellipsis" unicode="&#x2026;" horiz-adv-x="825" 
d="M135 178c63 0 100 -34 100 -91c0 -58 -37 -92 -100 -92c-65 0 -102 34 -102 92c0 57 37 91 102 91zM410 178c63 0 100 -34 100 -91c0 -58 -37 -92 -100 -92c-65 0 -102 34 -102 92c0 57 37 91 102 91zM692 178c63 0 100 -34 100 -91c0 -58 -37 -92 -100 -92
c-64 0 -102 34 -102 92c0 57 38 91 102 91z" />
    <glyph glyph-name="exclam" unicode="!" horiz-adv-x="305" 
d="M71 783h162c10 0 15 -6 15 -16v-330c0 -6 -1 -10 -2 -18l-37 -164c-3 -12 -5 -17 -15 -17h-83c-10 0 -13 5 -15 17l-38 164c-1 8 -2 12 -2 18v330c0 10 5 16 15 16zM152 178c64 0 101 -34 101 -91c0 -58 -37 -92 -101 -92s-101 34 -101 92c0 57 37 91 101 91z" />
    <glyph glyph-name="exclamdown" unicode="&#xa1;" horiz-adv-x="296" 
d="M148 572c64 0 101 -34 101 -92c0 -57 -37 -91 -101 -91s-101 34 -101 91c0 58 37 92 101 92zM107 342h83c10 0 12 -5 15 -17l37 -164c2 -8 2 -12 2 -19v-329c0 -11 -5 -16 -15 -16h-162c-10 0 -15 5 -15 16v329c0 7 0 11 2 19l38 164c2 12 5 17 15 17z" />
    <glyph glyph-name="numbersign" unicode="#" horiz-adv-x="733" 
d="M676 453h-85v-126h85c11 0 16 -5 16 -15v-128c0 -10 -5 -15 -16 -15h-85v-153c0 -11 -5 -16 -15 -16h-144c-10 0 -15 5 -15 16v153h-111v-153c0 -11 -5 -16 -15 -16h-144c-10 0 -15 5 -15 16v153h-73c-10 0 -16 5 -16 15v128c0 10 6 15 16 15h73v126h-73
c-10 0 -16 5 -16 15v128c0 10 6 15 16 15h73v156c0 10 5 16 15 16h144c10 0 15 -6 15 -16v-156h111v156c0 10 5 16 15 16h144c10 0 15 -6 15 -16v-156h85c11 0 16 -5 16 -15v-128c0 -10 -5 -15 -16 -15zM417 327v126h-111v-126h111z" />
    <glyph glyph-name="period" unicode="." horiz-adv-x="267" 
d="M134 178c63 0 100 -34 100 -91c0 -58 -37 -92 -100 -92c-65 0 -102 34 -102 92c0 57 37 91 102 91z" />
    <glyph glyph-name="question" unicode="?" horiz-adv-x="558" 
d="M243 789c153 0 289 -27 289 -188v-56c0 -108 -28 -146 -110 -183l-102 -49c-28 -13 -49 -26 -54 -50l-2 -12c-1 -8 -6 -13 -14 -13h-112c-8 0 -13 5 -14 13l-7 48c-10 63 3 90 84 134l93 48c34 18 53 33 53 69v18c0 51 -29 60 -106 60h-201c-10 0 -15 5 -15 15v97
c0 20 8 26 25 31c50 11 94 18 193 18zM193 178c64 0 101 -34 101 -91c0 -58 -37 -92 -101 -92s-101 34 -101 92c0 57 37 91 101 91z" />
    <glyph glyph-name="questiondown" unicode="&#xbf;" horiz-adv-x="554" 
d="M363 572c64 0 101 -34 101 -92c0 -57 -37 -91 -101 -91s-101 34 -101 91c0 58 37 92 101 92zM306 342h112c8 0 12 -5 14 -13l7 -49c10 -62 -4 -89 -84 -134l-93 -48c-34 -17 -53 -32 -53 -68v-15c0 -50 34 -63 115 -63h192c10 0 15 -5 15 -16v-97c0 -19 -9 -25 -26 -30
c-49 -11 -84 -18 -183 -18c-157 0 -298 31 -298 192v52c0 108 28 146 110 183l102 49c28 13 49 26 54 49l2 13c0 8 6 13 14 13z" />
    <glyph glyph-name="quotedbl" unicode="&#x22;" horiz-adv-x="556" 
d="M53 783h162c10 0 15 -6 15 -16v-129c0 -7 -1 -11 -2 -19l-38 -164c-2 -11 -5 -16 -15 -16h-83c-10 0 -12 5 -15 16l-37 164c-1 8 -2 12 -2 19v129c0 10 5 16 15 16zM341 783h162c10 0 15 -6 15 -16v-129c0 -7 -1 -11 -2 -19l-37 -164c-3 -11 -5 -16 -15 -16h-83
c-10 0 -13 5 -15 16l-38 164c-1 8 -2 12 -2 19v129c0 10 5 16 15 16z" />
    <glyph glyph-name="quotesingle" unicode="'" horiz-adv-x="268" 
d="M53 783h162c10 0 15 -6 15 -16v-129c0 -7 -1 -11 -2 -19l-38 -164c-2 -11 -5 -16 -15 -16h-83c-10 0 -12 5 -15 16l-37 164c-1 8 -2 12 -2 19v129c0 10 5 16 15 16z" />
    <glyph glyph-name="semicolon" unicode=";" horiz-adv-x="323" 
d="M173 573c64 0 101 -34 101 -91c0 -58 -37 -92 -101 -92s-101 34 -101 92c0 57 37 91 101 91zM76 130h181c6 0 10 -3 10 -10v-27c0 -8 -3 -12 -5 -15l-201 -264c-5 -6 -9 -7 -15 -4l-55 31c-5 3 -5 8 -3 14l76 266c2 6 5 9 12 9z" />
    <glyph glyph-name="slash" unicode="/" horiz-adv-x="514" 
d="M414 824h69c10 0 13 -6 8 -17l-369 -837c-6 -12 -13 -17 -23 -17h-70c-10 0 -14 5 -8 17l371 837c5 11 11 17 22 17z" />
    <glyph glyph-name="underscore" unicode="_" horiz-adv-x="689" 
d="M15 -48h659c10 0 15 -5 15 -15v-63c0 -10 -5 -15 -15 -15h-659c-10 0 -15 5 -15 15v63c0 10 5 15 15 15z" />
    </font>
</defs>
</svg>
