<?xml version="1.0" standalone="no"?>
<!DOCTYPE svg PUBLIC "-//W3C//DTD SVG 1.1//EN" "http://www.w3.org/Graphics/SVG/1.1/DTD/svg11.dtd" >
<svg xmlns="http://www.w3.org/2000/svg" xmlns:xlink="http://www.w3.org/1999/xlink" version="1.1">
<metadata>
Created by FontForge 20160407 at Wed Jun 29 19:31:25 2016
 By Jimmy Wärting
Please contact us to learn more about license restrictions.
</metadata>
<defs>
<font id="UniviaProBold-BoldItalic" horiz-adv-x="661" >
  <font-face 
    font-family="Univia Pro Bold"
    font-weight="700"
    font-style="italic"
    font-stretch="normal"
    units-per-em="1000"
    panose-1="0 0 8 0 0 0 0 0 0 0"
    ascent="800"
    descent="-200"
    x-height="560"
    cap-height="774"
    bbox="-206.578 -273 1359.87 1170"
    underline-thickness="50"
    underline-position="-100"
    slope="-9"
    stemh="128"
    stemv="148"
    unicode-range="U+0020-1F603"
  />
<missing-glyph horiz-adv-x="448" 
d="M208 774h493c10 0 14 -5 13 -15l-118 -743c-1 -11 -7 -16 -17 -16h-493c-10 0 -14 5 -12 16l117 743c1 10 7 15 17 15zM421 629c-52 0 -89 -3 -122 -9c-9 -2 -14 -6 -15 -15l-7 -45c-1 -7 1 -10 8 -10h123c54 0 87 -3 79 -50l-4 -24c-5 -34 -19 -47 -45 -59l-87 -39
c-44 -23 -52 -36 -53 -68l-2 -37c0 -3 2 -6 6 -6h57c4 0 8 3 8 7l3 13c4 19 15 24 41 36l72 32c56 25 79 49 90 119l6 37c17 105 -63 118 -158 118zM323 218c-33 0 -54 -17 -59 -48c-5 -30 10 -47 43 -47c32 0 53 17 58 47c5 31 -10 48 -42 48z" />
    <glyph glyph-name="f_b" unicode="fb" horiz-adv-x="996" 
d="M401 779c43 0 166 -5 256 -13c9 -1 14 -6 12 -15l-30 -192c37 4 79 6 125 6c181 0 218 -64 183 -286c-35 -225 -93 -284 -304 -284c-69 0 -137 6 -217 19c-13 2 -20 10 -17 25l96 611l-142 1c-40 1 -65 -5 -71 -39l-8 -53h114c11 0 14 -5 10 -17l-29 -84
c-3 -10 -9 -14 -19 -14h-94l-68 -428c-2 -11 -8 -16 -18 -16h-118c-10 0 -14 5 -12 16l68 428h-65c-11 0 -16 5 -15 15l14 85c1 10 7 15 19 15h64l13 79c20 126 115 141 253 141zM710 436h-91l-48 -306c30 -5 71 -7 95 -7c100 0 115 40 133 157c21 129 11 156 -89 156z" />
    <glyph glyph-name="f_f" unicode="ff" horiz-adv-x="789" 
d="M745 779c30 0 70 -3 106 -10c10 -2 15 -7 13 -19l-13 -83c-2 -11 -8 -16 -20 -16h-78c-39 0 -57 -5 -63 -39l-8 -53h121c12 0 14 -5 10 -17l-28 -84c-4 -10 -10 -14 -19 -14h-102l-68 -428c-1 -11 -7 -16 -17 -16h-119c-10 0 -14 5 -12 16l68 428h-250l-68 -428
c-2 -11 -8 -16 -18 -16h-118c-10 0 -14 5 -13 16l68 428h-64c-12 0 -17 5 -15 15l14 85c1 10 7 15 18 15h65l13 79c20 126 108 141 198 141c31 0 71 -3 107 -10c10 -2 15 -7 13 -19l-13 -83c-2 -11 -9 -16 -20 -16h-79c-39 0 -57 -5 -62 -39l-9 -53h251l12 79
c20 126 108 141 199 141z" />
    <glyph glyph-name="f_f_b" unicode="ffb" horiz-adv-x="1397" 
d="M801 779c43 0 167 -5 256 -13c10 -1 15 -6 13 -15l-30 -192c37 4 78 6 124 6c182 0 219 -64 184 -286c-36 -225 -94 -284 -305 -284c-69 0 -137 6 -216 19c-14 2 -20 10 -18 25l97 611l-143 1c-39 1 -65 -5 -71 -39l-8 -53h114c11 0 14 -5 10 -17l-28 -84
c-4 -10 -10 -14 -20 -14h-94l-68 -428c-1 -11 -7 -16 -17 -16h-119c-10 0 -14 5 -12 16l68 428h-252l-68 -428c-2 -11 -8 -16 -18 -16h-118c-10 0 -14 5 -12 16l68 428h-65c-11 0 -16 5 -15 15l14 85c1 10 8 15 19 15h64l13 79c20 126 108 141 199 141c30 0 70 -3 106 -10
c10 -2 15 -7 13 -19l-13 -83c-2 -11 -8 -16 -20 -16h-78c-39 0 -57 -5 -63 -39l-8 -53h252l12 79c21 126 116 141 253 141zM1110 436h-90l-49 -306c30 -5 71 -7 95 -7c101 0 115 40 133 157c21 129 12 156 -89 156z" />
    <glyph glyph-name="f_f_i" unicode="ffi" horiz-adv-x="1070" 
d="M1013 796c55 0 82 -29 74 -80s-45 -81 -100 -81s-83 30 -74 81c7 51 44 80 100 80zM745 779c27 0 54 -3 92 -10c10 -2 15 -7 13 -19l-13 -83c-2 -11 -9 -16 -20 -16h-64c-39 0 -57 -5 -63 -39l-8 -53h351c10 0 14 -6 13 -16l-84 -527c-1 -11 -7 -16 -17 -16h-118
c-10 0 -14 5 -13 16l68 428h-218l-68 -428c-1 -11 -7 -16 -17 -16h-119c-10 0 -14 5 -12 16l68 428h-250l-68 -428c-2 -11 -8 -16 -18 -16h-118c-10 0 -14 5 -13 16l68 428h-64c-12 0 -17 5 -15 15l14 85c1 10 7 15 18 15h65l13 79c20 126 108 141 198 141
c31 0 61 -3 97 -10c10 -2 14 -7 12 -19l-12 -83c-2 -11 -9 -16 -20 -16h-69c-39 0 -57 -5 -62 -39l-9 -53h251l12 79c20 126 108 141 199 141z" />
    <glyph glyph-name="f_f_j" unicode="ffj" horiz-adv-x="1063" 
d="M1005 796c55 0 81 -29 74 -80c-9 -51 -45 -81 -100 -81c-56 0 -83 30 -75 81s45 80 101 80zM745 779c26 0 58 -4 89 -10c11 -2 15 -7 13 -19l-13 -83c-2 -11 -8 -16 -19 -16h-62c-39 0 -57 -5 -63 -39l-8 -53h343c10 0 14 -6 13 -16l-99 -624
c-18 -111 -77 -126 -161 -126c-21 0 -69 5 -81 8c-11 4 -15 7 -13 20l14 85c1 11 8 16 19 16h25c43 0 50 5 56 45l76 477h-210l-68 -428c-1 -11 -7 -16 -17 -16h-119c-10 0 -14 5 -12 16l68 428h-250l-68 -428c-2 -11 -8 -16 -18 -16h-118c-10 0 -14 5 -13 16l68 428h-64
c-12 0 -17 5 -15 15l14 85c1 10 7 15 18 15h65l13 79c20 126 108 141 198 141c27 0 65 -4 96 -10c11 -2 15 -7 13 -19l-13 -83c-2 -11 -8 -16 -19 -16h-69c-39 0 -57 -5 -62 -39l-9 -53h251l12 79c20 126 108 141 199 141z" />
    <glyph glyph-name="f_f_k" unicode="ffk" horiz-adv-x="1348" 
d="M798 779c43 0 167 -5 257 -13c9 -1 14 -6 12 -16l-60 -382l172 182c6 6 14 10 23 10h134c18 0 17 -8 6 -19l-193 -201l155 -313c6 -13 6 -27 -21 -27h-126c-10 0 -16 4 -20 11l-140 295l-46 -290c-2 -11 -8 -16 -18 -16h-118c-10 0 -14 5 -12 16l100 634l-143 1
c-39 1 -65 -5 -70 -39l-9 -53h115c11 0 14 -5 10 -17l-29 -84c-4 -10 -10 -14 -19 -14h-94l-68 -428c-2 -11 -8 -16 -18 -16h-118c-10 0 -14 5 -13 16l68 428h-249l-68 -428c-2 -11 -8 -16 -18 -16h-118c-10 0 -14 5 -12 16l68 428h-65c-11 0 -16 5 -15 15l14 85
c1 10 8 15 19 15h64l13 79c20 126 108 141 199 141c30 0 70 -3 106 -10c10 -2 15 -7 13 -19l-13 -83c-2 -11 -8 -16 -20 -16h-78c-39 0 -57 -5 -63 -39l-8 -53h249l13 79c20 126 115 141 252 141z" />
    <glyph glyph-name="f_f_l" unicode="ffl" horiz-adv-x="1059" 
d="M799 779c43 0 167 -5 256 -13c10 -1 15 -6 13 -16l-117 -734c-1 -11 -7 -16 -17 -16h-118c-10 0 -14 5 -13 16l101 634l-143 1c-39 1 -65 -5 -71 -39l-8 -53h107c12 0 14 -5 10 -17l-28 -84c-4 -10 -10 -14 -19 -14h-88l-68 -428c-1 -11 -7 -16 -17 -16h-119
c-10 0 -14 5 -12 16l68 428h-250l-68 -428c-2 -11 -8 -16 -18 -16h-118c-10 0 -14 5 -13 16l68 428h-64c-12 0 -17 5 -15 15l14 85c1 10 7 15 18 15h65l13 79c20 126 108 141 198 141c31 0 73 -3 109 -10c10 -2 14 -7 12 -19l-12 -83c-2 -11 -9 -16 -20 -16h-81
c-39 0 -57 -5 -62 -39l-9 -53h251l12 79c20 126 116 141 253 141z" />
    <glyph glyph-name="f_j" unicode="fj" horiz-adv-x="664" 
d="M606 796c55 0 82 -29 74 -80s-44 -81 -99 -81c-56 0 -83 30 -75 81s44 80 100 80zM346 779c27 0 60 -4 91 -10c10 -2 15 -7 13 -19l-13 -83c-2 -11 -8 -16 -20 -16h-63c-39 0 -57 -5 -62 -39l-9 -53h343c10 0 14 -6 13 -16l-98 -624c-18 -111 -78 -126 -161 -126
c-22 0 -69 5 -81 8c-11 4 -15 7 -14 20l14 85c2 11 9 16 20 16h25c42 0 49 5 56 45l75 477h-209l-68 -428c-2 -11 -8 -16 -18 -16h-118c-10 0 -14 5 -13 16l68 428h-64c-12 0 -17 5 -15 15l14 85c1 10 7 15 18 15h65l13 79c20 126 108 141 198 141z" />
    <glyph glyph-name="f_k" unicode="fk" horiz-adv-x="950" 
d="M400 779c43 0 167 -5 257 -13c9 -1 14 -6 12 -16l-60 -382l172 182c6 6 14 10 23 10h134c18 0 17 -8 6 -19l-193 -201l155 -313c6 -13 6 -27 -21 -27h-126c-10 0 -16 4 -20 11l-140 295l-46 -290c-2 -11 -8 -16 -18 -16h-118c-10 0 -14 5 -12 16l100 634l-143 1
c-39 1 -65 -5 -70 -39l-9 -53h115c11 0 14 -5 10 -17l-29 -84c-4 -10 -10 -14 -19 -14h-94l-68 -428c-2 -11 -8 -16 -18 -16h-118c-10 0 -14 5 -13 16l68 428h-64c-12 0 -17 5 -15 15l14 85c1 10 7 15 18 15h65l13 79c20 126 115 141 252 141z" />
    <glyph glyph-name="fi" unicode="fi" horiz-adv-x="672" 
d="M614 796c55 0 82 -29 74 -80s-44 -81 -99 -81c-56 0 -83 30 -75 81s45 80 100 80zM346 779c25 0 53 -4 85 -10c11 -2 15 -7 13 -19l-13 -83c-2 -11 -8 -16 -19 -16h-58c-39 0 -57 -5 -62 -39l-9 -53h352c10 0 14 -6 13 -16l-84 -527c-2 -11 -8 -16 -18 -16h-118
c-10 0 -14 5 -12 16l68 428h-218l-68 -428c-2 -11 -8 -16 -18 -16h-118c-10 0 -14 5 -13 16l68 428h-64c-12 0 -17 5 -15 15l14 85c1 10 7 15 18 15h65l13 79c20 126 108 141 198 141z" />
    <glyph glyph-name="fl" unicode="fl" 
d="M400 779c43 0 167 -5 257 -13c9 -1 14 -6 12 -16l-116 -734c-2 -11 -8 -16 -18 -16h-118c-10 0 -14 5 -12 16l100 634l-143 1c-39 1 -65 -5 -70 -39l-9 -53h115c11 0 14 -5 10 -17l-29 -84c-4 -10 -10 -14 -19 -14h-94l-68 -428c-2 -11 -8 -16 -18 -16h-118
c-10 0 -14 5 -13 16l68 428h-64c-12 0 -17 5 -15 15l14 85c1 10 7 15 18 15h65l13 79c20 126 115 141 252 141z" />
    <glyph glyph-name=".notdef" horiz-adv-x="448" 
d="M208 774h493c10 0 14 -5 13 -15l-118 -743c-1 -11 -7 -16 -17 -16h-493c-10 0 -14 5 -12 16l117 743c1 10 7 15 17 15zM421 629c-52 0 -89 -3 -122 -9c-9 -2 -14 -6 -15 -15l-7 -45c-1 -7 1 -10 8 -10h123c54 0 87 -3 79 -50l-4 -24c-5 -34 -19 -47 -45 -59l-87 -39
c-44 -23 -52 -36 -53 -68l-2 -37c0 -3 2 -6 6 -6h57c4 0 8 3 8 7l3 13c4 19 15 24 41 36l72 32c56 25 79 49 90 119l6 37c17 105 -63 118 -158 118zM323 218c-33 0 -54 -17 -59 -48c-5 -30 10 -47 43 -47c32 0 53 17 58 47c5 31 -10 48 -42 48z" />
    <glyph glyph-name="A" unicode="A" horiz-adv-x="707" 
d="M424 780c120 0 138 -11 151 -120l74 -644c0 -12 -5 -16 -16 -16h-127c-10 0 -10 4 -11 16l-25 208h-267l-91 -208c-5 -12 -7 -16 -17 -16h-127c-11 0 -14 4 -10 16l280 644c48 109 70 120 186 120zM403 648c-17 0 -20 -5 -30 -29l-114 -265h197l-30 265
c-3 24 -3 29 -23 29z" />
    <glyph glyph-name="Aacute" unicode="&#xc1;" horiz-adv-x="707" 
d="M484 992h145c6 0 8 -3 8 -10v-5c0 -5 -1 -8 -7 -14l-199 -146c-6 -4 -9 -3 -14 0l-39 25c-4 4 -4 9 -1 14l94 130c2 4 7 6 13 6zM424 780c120 0 138 -11 151 -120l74 -644c0 -12 -5 -16 -16 -16h-127c-10 0 -10 4 -11 16l-25 208h-267l-91 -208c-5 -12 -7 -16 -17 -16
h-127c-11 0 -14 4 -10 16l280 644c48 109 70 120 186 120zM403 648c-17 0 -20 -5 -30 -29l-114 -265h197l-30 265c-3 24 -3 29 -23 29z" />
    <glyph glyph-name="Abreve" unicode="&#x102;" horiz-adv-x="707" 
d="M557 980h58c12 0 15 -4 12 -15c-30 -102 -79 -137 -195 -137c-119 0 -152 35 -153 136c0 12 6 16 17 16h58c10 0 13 -3 15 -12c11 -38 30 -50 77 -50s70 12 92 50c5 9 10 12 19 12zM424 780c120 0 138 -11 151 -120l74 -644c0 -12 -5 -16 -16 -16h-127
c-10 0 -10 4 -11 16l-25 208h-267l-91 -208c-5 -12 -7 -16 -17 -16h-127c-11 0 -14 4 -10 16l280 644c48 109 70 120 186 120zM403 648c-17 0 -20 -5 -30 -29l-114 -265h197l-30 265c-3 24 -3 29 -23 29z" />
    <glyph glyph-name="Acaron" unicode="&#x1cd;" horiz-adv-x="707" 
d="M581 989l28 -16c7 -4 7 -10 1 -17l-117 -133c-4 -5 -8 -8 -21 -8h-85c-13 0 -16 3 -19 8l-74 133c-5 7 -2 13 6 17l34 16c6 4 11 5 17 0l94 -75l118 75c7 5 12 4 18 0zM424 780c120 0 138 -11 151 -120l74 -644c0 -12 -5 -16 -16 -16h-127c-10 0 -10 4 -11 16l-25 208
h-267l-91 -208c-5 -12 -7 -16 -17 -16h-127c-11 0 -14 4 -10 16l280 644c48 109 70 120 186 120zM403 648c-17 0 -20 -5 -30 -29l-114 -265h197l-30 265c-3 24 -3 29 -23 29z" />
    <glyph glyph-name="Acircumflex" unicode="&#xc2;" horiz-adv-x="707" 
d="M415 992h85c13 0 16 -3 19 -8l74 -133c5 -7 2 -13 -6 -17l-34 -16c-6 -4 -11 -5 -17 0l-94 75l-118 -75c-7 -5 -12 -4 -18 0l-28 16c-7 4 -7 10 -1 17l117 133c4 5 8 8 21 8zM424 780c120 0 138 -11 151 -120l74 -644c0 -12 -5 -16 -16 -16h-127c-10 0 -10 4 -11 16
l-25 208h-267l-91 -208c-5 -12 -7 -16 -17 -16h-127c-11 0 -14 4 -10 16l280 644c48 109 70 120 186 120zM403 648c-17 0 -20 -5 -30 -29l-114 -265h197l-30 265c-3 24 -3 29 -23 29z" />
    <glyph glyph-name="Adieresis" unicode="&#xc4;" horiz-adv-x="707" 
d="M345 976c51 0 72 -28 65 -73c-7 -46 -38 -74 -89 -74c-49 0 -73 26 -66 74c8 48 41 73 90 73zM566 976c51 0 73 -28 66 -73c-8 -46 -39 -74 -90 -74c-49 0 -73 26 -65 74s40 73 89 73zM424 780c120 0 138 -11 151 -120l74 -644c0 -12 -5 -16 -16 -16h-127
c-10 0 -10 4 -11 16l-25 208h-267l-91 -208c-5 -12 -7 -16 -17 -16h-127c-11 0 -14 4 -10 16l280 644c48 109 70 120 186 120zM403 648c-17 0 -20 -5 -30 -29l-114 -265h197l-30 265c-3 24 -3 29 -23 29z" />
    <glyph glyph-name="Agrave" unicode="&#xc0;" horiz-adv-x="707" 
d="M296 992h145c6 0 9 -1 11 -6l53 -130c2 -5 0 -10 -6 -14l-47 -25c-6 -3 -10 -4 -14 0l-149 144c-4 3 -4 7 -4 13v8c0 7 5 10 11 10zM424 780c120 0 138 -11 151 -120l74 -644c0 -12 -5 -16 -16 -16h-127c-10 0 -10 4 -11 16l-25 208h-267l-91 -208c-5 -12 -7 -16 -17 -16
h-127c-11 0 -14 4 -10 16l280 644c48 109 70 120 186 120zM403 648c-17 0 -20 -5 -30 -29l-114 -265h197l-30 265c-3 24 -3 29 -23 29z" />
    <glyph glyph-name="Amacron" unicode="&#x100;" horiz-adv-x="707" 
d="M304 939h290c10 0 14 -5 13 -15l-10 -61c-2 -10 -7 -15 -17 -15h-290c-10 0 -15 5 -13 15l10 61c1 10 7 15 17 15zM424 780c120 0 138 -11 151 -120l74 -644c0 -12 -5 -16 -16 -16h-127c-10 0 -10 4 -11 16l-25 208h-267l-91 -208c-5 -12 -7 -16 -17 -16h-127
c-11 0 -14 4 -10 16l280 644c48 109 70 120 186 120zM403 648c-17 0 -20 -5 -30 -29l-114 -265h197l-30 265c-3 24 -3 29 -23 29z" />
    <glyph glyph-name="Aogonek" unicode="&#x104;" horiz-adv-x="707" 
d="M424 780c120 0 138 -11 151 -120l74 -644c-1 -12 -6 -16 -16 -16h-66c-7 -22 -11 -37 -13 -50c-5 -26 16 -26 50 -26h36c10 0 13 -4 12 -14l-10 -61c-1 -9 -6 -15 -15 -18c-12 -5 -60 -8 -81 -8c-71 0 -102 23 -93 78c6 38 22 76 42 112l-25 211h-267l-91 -208
c-5 -12 -7 -16 -17 -16h-127c-11 0 -14 4 -10 16l280 644c48 109 70 120 186 120zM403 648c-17 0 -20 -5 -30 -29l-114 -265h197l-30 265c-3 24 -3 29 -23 29z" />
    <glyph glyph-name="Aring" unicode="&#xc5;" horiz-adv-x="707" 
d="M465 1036c76 0 111 -38 100 -113c-12 -74 -59 -112 -135 -112c-77 0 -111 38 -99 112c11 75 58 113 134 113zM458 985c-42 0 -66 -21 -72 -62c-6 -40 10 -62 52 -62c41 0 66 22 72 62c6 41 -11 62 -52 62zM424 780c120 0 138 -11 151 -120l74 -644c0 -12 -5 -16 -16 -16
h-127c-10 0 -10 4 -11 16l-25 208h-267l-91 -208c-5 -12 -7 -16 -17 -16h-127c-11 0 -14 4 -10 16l280 644c48 109 70 120 186 120zM403 648c-17 0 -20 -5 -30 -29l-114 -265h197l-30 265c-3 24 -3 29 -23 29z" />
    <glyph glyph-name="Aringacute" unicode="&#x1fa;" horiz-adv-x="707" 
d="M489 1123h146c6 0 7 -3 7 -10v-6c0 -5 0 -8 -7 -13l-102 -75c28 -17 38 -49 31 -94c-12 -75 -58 -112 -135 -112c-76 0 -110 37 -99 112c9 56 38 91 84 105l62 87c3 4 7 6 13 6zM457 987c-41 0 -66 -22 -72 -62c-6 -41 11 -62 52 -62c42 0 66 21 72 62
c6 40 -10 62 -52 62zM424 780c120 0 138 -11 151 -120l74 -644c0 -12 -5 -16 -16 -16h-127c-10 0 -10 4 -11 16l-25 208h-267l-91 -208c-5 -12 -7 -16 -17 -16h-127c-11 0 -14 4 -10 16l280 644c48 109 70 120 186 120zM403 648c-17 0 -20 -5 -30 -29l-114 -265h197l-30 265
c-3 24 -3 29 -23 29z" />
    <glyph glyph-name="Atilde" unicode="&#xc3;" horiz-adv-x="707" 
d="M509 832c-51 0 -104 39 -137 39c-22 0 -33 -7 -49 -33c-7 -11 -11 -13 -20 -10l-41 12c-9 3 -12 9 -7 21c37 90 65 115 123 115c51 0 104 -39 137 -39c22 0 33 7 49 33c7 11 11 13 20 10l41 -12c10 -3 12 -9 7 -20c-37 -91 -65 -116 -123 -116zM424 780
c120 0 138 -11 151 -120l74 -644c0 -12 -5 -16 -16 -16h-127c-10 0 -10 4 -11 16l-25 208h-267l-91 -208c-5 -12 -7 -16 -17 -16h-127c-11 0 -14 4 -10 16l280 644c48 109 70 120 186 120zM403 648c-17 0 -20 -5 -30 -29l-114 -265h197l-30 265c-3 24 -3 29 -23 29z" />
    <glyph glyph-name="AE" unicode="&#xc6;" horiz-adv-x="1020" 
d="M423 780l272 -6h335c10 0 15 -5 14 -15l-17 -107c-2 -10 -8 -15 -18 -15h-334l-30 -189h303c10 0 15 -5 14 -15l-17 -102c-1 -10 -8 -15 -18 -15h-303l-27 -179h333c10 0 14 -5 13 -15l-18 -107c-1 -10 -7 -15 -17 -15h-476c-10 0 -14 5 -12 16l33 208h-251l-90 -208
c-6 -12 -8 -16 -17 -16h-128c-10 0 -14 4 -9 16l280 644c47 109 69 120 185 120zM520 648h-101c-30 0 -39 -8 -54 -43l-107 -251h216z" />
    <glyph glyph-name="AEacute" unicode="&#x1fc;" horiz-adv-x="1020" 
d="M693 991h146c6 0 7 -3 7 -10v-6c0 -5 0 -8 -7 -13l-198 -146c-6 -4 -9 -4 -14 0l-40 25c-4 3 -4 9 0 14l93 130c3 4 7 6 13 6zM423 780l272 -6h335c10 0 15 -5 14 -15l-17 -107c-2 -10 -8 -15 -18 -15h-334l-30 -189h303c10 0 15 -5 14 -15l-17 -102
c-1 -10 -8 -15 -18 -15h-303l-27 -179h333c10 0 14 -5 13 -15l-18 -107c-1 -10 -7 -15 -17 -15h-476c-10 0 -14 5 -12 16l33 208h-251l-90 -208c-6 -12 -8 -16 -17 -16h-128c-10 0 -14 4 -9 16l280 644c47 109 69 120 185 120zM520 648h-101c-30 0 -39 -8 -54 -43l-107 -251
h216z" />
    <glyph glyph-name="B" unicode="B" horiz-adv-x="699" 
d="M436 780c194 0 269 -54 243 -215c-17 -108 -56 -160 -139 -175l-1 -3c97 -12 118 -73 101 -180c-25 -163 -117 -212 -304 -212c-82 0 -214 3 -302 10c-11 1 -14 4 -12 14l116 736c2 11 5 13 17 14c91 8 200 11 281 11zM399 643h-121l-32 -199h102c112 0 155 13 169 97
c12 81 -24 102 -118 102zM379 331h-151l-31 -199h150c86 0 125 20 138 96c12 82 -25 103 -106 103z" />
    <glyph glyph-name="C" unicode="C" horiz-adv-x="619" 
d="M439 780c87 0 147 -6 194 -15c15 -4 21 -10 19 -27l-13 -80c-2 -10 -8 -15 -18 -15h-204c-138 0 -171 -60 -202 -255c-32 -195 -17 -256 121 -256h205c10 0 14 -5 12 -15l-13 -81c-2 -16 -11 -22 -26 -26c-51 -10 -112 -15 -200 -15c-255 0 -306 90 -258 393
s128 392 383 392z" />
    <glyph glyph-name="Cacute" unicode="&#x106;" horiz-adv-x="619" 
d="M472 992h146c6 0 7 -3 7 -10v-5c0 -5 -1 -8 -7 -14l-199 -146c-5 -4 -9 -3 -14 0l-39 25c-4 4 -4 9 0 14l93 130c3 4 7 6 13 6zM439 780c87 0 147 -6 194 -15c15 -4 21 -10 19 -27l-13 -80c-2 -10 -8 -15 -18 -15h-204c-138 0 -171 -60 -202 -255
c-32 -195 -17 -256 121 -256h205c10 0 14 -5 12 -15l-13 -81c-2 -16 -11 -22 -26 -26c-51 -10 -112 -15 -200 -15c-255 0 -306 90 -258 393s128 392 383 392z" />
    <glyph glyph-name="Ccaron" unicode="&#x10c;" horiz-adv-x="619" 
d="M587 989l28 -16c7 -4 7 -10 1 -17l-117 -133c-4 -5 -8 -8 -21 -8h-85c-13 0 -16 3 -19 8l-74 133c-5 7 -2 13 6 17l34 16c6 4 11 5 17 0l95 -75l117 75c7 5 12 4 18 0zM439 780c87 0 147 -6 194 -15c15 -4 21 -10 19 -27l-13 -80c-2 -10 -8 -15 -18 -15h-204
c-138 0 -171 -60 -202 -255c-32 -195 -17 -256 121 -256h205c10 0 14 -5 12 -15l-13 -81c-2 -16 -11 -22 -26 -26c-51 -10 -112 -15 -200 -15c-255 0 -306 90 -258 393s128 392 383 392z" />
    <glyph glyph-name="Ccedilla" unicode="&#xc7;" horiz-adv-x="619" 
d="M633 765c15 -4 21 -10 19 -27l-13 -80c-2 -10 -8 -15 -18 -15h-204c-138 0 -171 -60 -202 -255c-32 -195 -17 -256 121 -256h205c10 0 14 -5 12 -15l-13 -81c-2 -16 -11 -22 -26 -26c-46 -9 -100 -14 -175 -15c4 -31 6 -65 1 -94c-9 -55 -47 -78 -118 -78
c-21 0 -66 3 -78 8c-7 3 -10 9 -9 18l10 61c1 10 6 14 16 14h35c35 0 55 0 59 26c2 12 3 28 3 47c-206 13 -246 112 -202 391c48 303 128 392 383 392c87 0 147 -6 194 -15z" />
    <glyph glyph-name="Ccircumflex" unicode="&#x108;" horiz-adv-x="619" 
d="M414 992h85c12 0 15 -3 18 -8l75 -133c4 -7 2 -13 -7 -17l-33 -16c-7 -4 -12 -5 -18 0l-94 75l-118 -75c-7 -5 -12 -4 -17 0l-29 16c-6 4 -7 10 -1 17l117 133c5 5 9 8 22 8zM439 780c87 0 147 -6 194 -15c15 -4 21 -10 19 -27l-13 -80c-2 -10 -8 -15 -18 -15h-204
c-138 0 -171 -60 -202 -255c-32 -195 -17 -256 121 -256h205c10 0 14 -5 12 -15l-13 -81c-2 -16 -11 -22 -26 -26c-51 -10 -112 -15 -200 -15c-255 0 -306 90 -258 393s128 392 383 392z" />
    <glyph glyph-name="Cdotaccent" unicode="&#x10a;" horiz-adv-x="619" 
d="M465 978c54 0 79 -26 71 -75c-8 -51 -43 -76 -95 -76s-79 25 -70 76c8 51 42 75 94 75zM439 780c87 0 147 -6 194 -15c15 -4 21 -10 19 -27l-13 -80c-2 -10 -8 -15 -18 -15h-204c-138 0 -171 -60 -202 -255c-32 -195 -17 -256 121 -256h205c10 0 14 -5 12 -15l-13 -81
c-2 -16 -11 -22 -26 -26c-51 -10 -112 -15 -200 -15c-255 0 -306 90 -258 393s128 392 383 392z" />
    <glyph glyph-name="D" unicode="D" horiz-adv-x="743" 
d="M447 780c235 0 306 -117 262 -393c-44 -277 -151 -392 -386 -392c-98 0 -201 3 -289 10c-11 1 -14 3 -12 13l116 737c2 11 5 13 17 14c91 8 195 11 292 11zM418 643h-140l-81 -511h147c122 0 178 76 206 255c31 191 -5 256 -132 256z" />
    <glyph glyph-name="Eth" unicode="&#xd0;" horiz-adv-x="753" 
d="M457 780c235 0 306 -117 262 -393c-43 -277 -151 -392 -386 -392c-97 0 -200 3 -288 10c-12 1 -14 3 -13 13l50 317h-67c-10 0 -14 5 -13 15l10 61c1 10 7 15 17 15h68l52 329c1 11 5 13 17 14c90 8 194 11 291 11zM560 387c31 191 -5 256 -131 256h-141l-34 -217h129
c10 0 14 -5 13 -15l-10 -61c-2 -10 -8 -15 -18 -15h-129l-32 -203h148c121 0 177 76 205 255z" />
    <glyph glyph-name="Dcaron" unicode="&#x10e;" horiz-adv-x="743" 
d="M564 988l29 -16c6 -4 6 -11 1 -17l-117 -133c-5 -5 -9 -8 -22 -8h-85c-13 0 -16 3 -18 8l-75 133c-4 6 -2 13 6 17l34 16c7 4 12 5 17 0l95 -75l118 75c6 5 12 4 17 0zM447 780c235 0 306 -117 262 -393c-44 -277 -151 -392 -386 -392c-98 0 -201 3 -289 10
c-11 1 -14 3 -12 13l116 737c2 11 5 13 17 14c91 8 195 11 292 11zM418 643h-140l-81 -511h147c122 0 178 76 206 255c31 191 -5 256 -132 256z" />
    <glyph glyph-name="Dcroat" unicode="&#x110;" horiz-adv-x="753" 
d="M457 780c235 0 306 -117 262 -393c-43 -277 -151 -392 -386 -392c-97 0 -200 3 -288 10c-12 1 -14 3 -13 13l50 317h-67c-10 0 -14 5 -13 15l10 61c1 10 7 15 17 15h68l52 329c1 11 5 13 17 14c90 8 194 11 291 11zM560 387c31 191 -5 256 -131 256h-141l-34 -217h129
c10 0 14 -5 13 -15l-10 -61c-2 -10 -8 -15 -18 -15h-129l-32 -203h148c121 0 177 76 205 255z" />
    <glyph glyph-name="E" unicode="E" horiz-adv-x="647" 
d="M156 774h501c10 0 15 -5 14 -15l-17 -107c-2 -10 -8 -15 -18 -15h-359l-30 -189h328c10 0 15 -5 14 -15l-17 -102c-1 -10 -8 -15 -18 -15h-328l-28 -179h359c10 0 14 -5 13 -15l-18 -107c-1 -10 -7 -15 -17 -15h-501c-10 0 -14 5 -13 16l118 743c1 10 7 15 17 15z" />
    <glyph glyph-name="Eacute" unicode="&#xc9;" horiz-adv-x="647" 
d="M426 992h145c6 0 8 -3 8 -10v-5c0 -5 -1 -8 -7 -14l-199 -146c-5 -4 -9 -3 -14 0l-39 25c-4 4 -4 9 -1 14l94 130c2 4 7 6 13 6zM156 774h501c10 0 15 -5 14 -15l-17 -107c-2 -10 -8 -15 -18 -15h-359l-30 -189h328c10 0 15 -5 14 -15l-17 -102c-1 -10 -8 -15 -18 -15
h-328l-28 -179h359c10 0 14 -5 13 -15l-18 -107c-1 -10 -7 -15 -17 -15h-501c-10 0 -14 5 -13 16l118 743c1 10 7 15 17 15z" />
    <glyph glyph-name="Ebreve" unicode="&#x114;" horiz-adv-x="647" 
d="M531 980h58c12 0 15 -4 12 -15c-30 -102 -79 -137 -195 -137c-119 0 -152 35 -153 136c0 12 6 16 17 16h58c10 0 13 -3 15 -12c11 -38 30 -50 77 -50s70 12 92 50c4 9 10 12 19 12zM156 774h501c10 0 15 -5 14 -15l-17 -107c-2 -10 -8 -15 -18 -15h-359l-30 -189h328
c10 0 15 -5 14 -15l-17 -102c-1 -10 -8 -15 -18 -15h-328l-28 -179h359c10 0 14 -5 13 -15l-18 -107c-1 -10 -7 -15 -17 -15h-501c-10 0 -14 5 -13 16l118 743c1 10 7 15 17 15z" />
    <glyph glyph-name="Ecaron" unicode="&#x11a;" horiz-adv-x="647" 
d="M555 989l28 -16c7 -4 7 -10 1 -17l-117 -133c-4 -5 -9 -8 -21 -8h-85c-13 0 -16 3 -19 8l-74 133c-5 7 -3 13 6 17l33 16c7 4 12 5 18 0l94 -75l118 75c7 5 12 4 18 0zM156 774h501c10 0 15 -5 14 -15l-17 -107c-2 -10 -8 -15 -18 -15h-359l-30 -189h328
c10 0 15 -5 14 -15l-17 -102c-1 -10 -8 -15 -18 -15h-328l-28 -179h359c10 0 14 -5 13 -15l-18 -107c-1 -10 -7 -15 -17 -15h-501c-10 0 -14 5 -13 16l118 743c1 10 7 15 17 15z" />
    <glyph glyph-name="Ecircumflex" unicode="&#xca;" horiz-adv-x="647" 
d="M389 992h85c13 0 16 -3 18 -8l75 -133c5 -7 2 -13 -6 -17l-34 -16c-6 -4 -12 -5 -17 0l-94 75l-119 -75c-6 -5 -11 -4 -17 0l-29 16c-6 4 -6 10 -1 17l118 133c4 5 8 8 21 8zM156 774h501c10 0 15 -5 14 -15l-17 -107c-2 -10 -8 -15 -18 -15h-359l-30 -189h328
c10 0 15 -5 14 -15l-17 -102c-1 -10 -8 -15 -18 -15h-328l-28 -179h359c10 0 14 -5 13 -15l-18 -107c-1 -10 -7 -15 -17 -15h-501c-10 0 -14 5 -13 16l118 743c1 10 7 15 17 15z" />
    <glyph glyph-name="Edieresis" unicode="&#xcb;" horiz-adv-x="647" 
d="M319 976c51 0 72 -28 65 -73c-7 -46 -38 -74 -89 -74c-49 0 -73 26 -66 74c8 48 40 73 90 73zM540 976c51 0 73 -28 65 -73c-7 -46 -38 -74 -89 -74c-49 0 -73 26 -65 74c7 48 39 73 89 73zM156 774h501c10 0 15 -5 14 -15l-17 -107c-2 -10 -8 -15 -18 -15h-359l-30 -189
h328c10 0 15 -5 14 -15l-17 -102c-1 -10 -8 -15 -18 -15h-328l-28 -179h359c10 0 14 -5 13 -15l-18 -107c-1 -10 -7 -15 -17 -15h-501c-10 0 -14 5 -13 16l118 743c1 10 7 15 17 15z" />
    <glyph glyph-name="Edotaccent" unicode="&#x116;" horiz-adv-x="647" 
d="M429 978c54 0 79 -26 71 -75c-8 -51 -43 -76 -95 -76s-79 25 -71 76c9 51 43 75 95 75zM156 774h501c10 0 15 -5 14 -15l-17 -107c-2 -10 -8 -15 -18 -15h-359l-30 -189h328c10 0 15 -5 14 -15l-17 -102c-1 -10 -8 -15 -18 -15h-328l-28 -179h359c10 0 14 -5 13 -15
l-18 -107c-1 -10 -7 -15 -17 -15h-501c-10 0 -14 5 -13 16l118 743c1 10 7 15 17 15z" />
    <glyph glyph-name="Egrave" unicode="&#xc8;" horiz-adv-x="647" 
d="M270 992h145c6 0 9 -1 11 -6l53 -130c2 -5 0 -10 -6 -14l-47 -25c-6 -3 -10 -4 -14 0l-150 144c-3 3 -4 7 -4 13v8c0 7 6 10 12 10zM156 774h501c10 0 15 -5 14 -15l-17 -107c-2 -10 -8 -15 -18 -15h-359l-30 -189h328c10 0 15 -5 14 -15l-17 -102c-1 -10 -8 -15 -18 -15
h-328l-28 -179h359c10 0 14 -5 13 -15l-18 -107c-1 -10 -7 -15 -17 -15h-501c-10 0 -14 5 -13 16l118 743c1 10 7 15 17 15z" />
    <glyph glyph-name="Emacron" unicode="&#x112;" horiz-adv-x="647" 
d="M278 939h290c10 0 14 -5 12 -15l-9 -61c-2 -10 -7 -15 -17 -15h-290c-10 0 -15 5 -13 15l10 61c1 10 7 15 17 15zM156 774h501c10 0 15 -5 14 -15l-17 -107c-2 -10 -8 -15 -18 -15h-359l-30 -189h328c10 0 15 -5 14 -15l-17 -102c-1 -10 -8 -15 -18 -15h-328l-28 -179
h359c10 0 14 -5 13 -15l-18 -107c-1 -10 -7 -15 -17 -15h-501c-10 0 -14 5 -13 16l118 743c1 10 7 15 17 15z" />
    <glyph glyph-name="Eogonek" unicode="&#x118;" horiz-adv-x="647" 
d="M156 774h501c10 0 15 -5 14 -15l-17 -107c-2 -10 -8 -15 -18 -15h-359l-30 -189h328c10 0 15 -5 14 -15l-17 -102c-1 -10 -8 -15 -18 -15h-328l-28 -179h359c10 0 14 -5 13 -15l-18 -107c-1 -10 -7 -15 -17 -15h-163c-8 -20 -12 -37 -14 -50c-5 -26 16 -26 51 -26h35
c10 0 13 -4 12 -14l-10 -61c-1 -9 -6 -15 -15 -18c-12 -5 -60 -8 -81 -8c-71 0 -101 23 -92 78c5 31 18 67 34 99h-258c-10 0 -14 5 -13 16l118 743c1 10 7 15 17 15z" />
    <glyph glyph-name="F" unicode="F" horiz-adv-x="607" 
d="M156 774h482c10 0 15 -5 14 -15l-17 -107c-2 -10 -8 -15 -18 -15h-340l-30 -190h309c10 0 15 -5 14 -15l-17 -102c-1 -10 -8 -15 -18 -15h-309l-48 -299c-1 -11 -7 -16 -17 -16h-127c-10 0 -14 5 -13 16l118 743c1 10 7 15 17 15z" />
    <glyph glyph-name="G" unicode="G" horiz-adv-x="683" 
d="M438 780c66 0 163 -5 211 -15c14 -4 21 -10 19 -27l-13 -80c-2 -10 -8 -15 -18 -15h-221c-138 0 -171 -59 -203 -256c-31 -195 -16 -255 122 -255h125l37 233c1 10 7 16 17 16h118c10 0 14 -6 13 -16l-46 -284c-2 -15 -4 -19 -8 -25c-30 -41 -156 -61 -278 -61
c-255 0 -306 89 -259 392c49 304 129 393 384 393z" />
    <glyph glyph-name="Gbreve" unicode="&#x11e;" horiz-adv-x="683" 
d="M548 980h58c12 0 15 -4 12 -15c-30 -102 -79 -137 -195 -137c-119 0 -152 35 -152 136c0 12 5 16 17 16h57c10 0 13 -3 15 -12c11 -38 30 -50 77 -50s70 12 92 50c5 9 10 12 19 12zM438 780c66 0 163 -5 211 -15c14 -4 21 -10 19 -27l-13 -80c-2 -10 -8 -15 -18 -15h-221
c-138 0 -171 -59 -203 -256c-31 -195 -16 -255 122 -255h125l37 233c1 10 7 16 17 16h118c10 0 14 -6 13 -16l-46 -284c-2 -15 -4 -19 -8 -25c-30 -41 -156 -61 -278 -61c-255 0 -306 89 -259 392c49 304 129 393 384 393z" />
    <glyph glyph-name="Gcircumflex" unicode="&#x11c;" horiz-adv-x="683" 
d="M406 992h85c13 0 16 -3 18 -8l75 -133c4 -7 2 -13 -6 -17l-34 -16c-7 -4 -12 -5 -17 0l-94 75l-119 -75c-6 -5 -12 -4 -17 0l-29 16c-6 4 -6 10 -1 17l117 133c5 5 9 8 22 8zM438 780c66 0 163 -5 211 -15c14 -4 21 -10 19 -27l-13 -80c-2 -10 -8 -15 -18 -15h-221
c-138 0 -171 -59 -203 -256c-31 -195 -16 -255 122 -255h125l37 233c1 10 7 16 17 16h118c10 0 14 -6 13 -16l-46 -284c-2 -15 -4 -19 -8 -25c-30 -41 -156 -61 -278 -61c-255 0 -306 89 -259 392c49 304 129 393 384 393z" />
    <glyph glyph-name="Gcommaaccent" unicode="&#x122;" horiz-adv-x="683" 
d="M438 780c66 0 163 -5 211 -15c14 -4 21 -10 19 -27l-13 -80c-2 -10 -8 -15 -18 -15h-221c-138 0 -171 -59 -203 -256c-31 -195 -16 -255 122 -255h125l37 233c1 10 7 16 17 16h118c10 0 14 -6 13 -16l-46 -284c-2 -15 -4 -19 -8 -25c-30 -41 -156 -61 -278 -61
c-255 0 -306 89 -259 392c49 304 129 393 384 393zM229 -40h124c6 0 8 -3 8 -10v-6c0 -5 -1 -8 -8 -13l-175 -129c-6 -4 -9 -3 -14 0l-33 21c-4 4 -4 9 -1 14l86 117c2 4 7 6 13 6z" />
    <glyph glyph-name="Gdotaccent" unicode="&#x120;" horiz-adv-x="683" 
d="M451 978c55 0 79 -26 71 -75c-8 -51 -43 -76 -95 -76s-78 25 -70 76s42 75 94 75zM438 780c66 0 163 -5 211 -15c14 -4 21 -10 19 -27l-13 -80c-2 -10 -8 -15 -18 -15h-221c-138 0 -171 -59 -203 -256c-31 -195 -16 -255 122 -255h125l37 233c1 10 7 16 17 16h118
c10 0 14 -6 13 -16l-46 -284c-2 -15 -4 -19 -8 -25c-30 -41 -156 -61 -278 -61c-255 0 -306 89 -259 392c49 304 129 393 384 393z" />
    <glyph glyph-name="H" unicode="H" horiz-adv-x="786" 
d="M644 774h127c10 0 14 -5 13 -16l-118 -742c-1 -11 -7 -16 -17 -16h-127c-10 0 -14 5 -13 16l48 302h-331l-48 -302c-1 -11 -7 -16 -17 -16h-127c-10 0 -14 5 -13 16l118 742c1 11 7 16 17 16h127c10 0 14 -5 13 -16l-48 -301h331l48 301c1 11 7 16 17 16z" />
    <glyph glyph-name="Hbar" unicode="&#x126;" horiz-adv-x="803" 
d="M780 674h49c10 0 14 -5 13 -15l-7 -39c-1 -10 -7 -15 -17 -15h-49l-94 -589c-1 -11 -7 -16 -17 -16h-128c-10 0 -14 5 -12 16l47 302h-330l-48 -302c-1 -11 -7 -16 -17 -16h-128c-10 0 -14 5 -12 16l94 589h-51c-10 0 -14 5 -13 15l7 39c1 10 7 15 17 15h51l13 84
c1 11 7 16 17 16h127c10 0 14 -5 13 -16l-13 -84h330l14 84c1 11 7 16 17 16h127c10 0 14 -5 13 -16zM587 457l24 148h-330l-24 -148h330z" />
    <glyph glyph-name="Hcircumflex" unicode="&#x124;" horiz-adv-x="786" 
d="M461 992h85c13 0 16 -3 19 -8l74 -133c5 -7 2 -13 -6 -17l-34 -16c-6 -4 -11 -5 -17 0l-94 75l-118 -75c-7 -5 -12 -4 -18 0l-28 16c-7 4 -7 10 -1 17l117 133c4 5 8 8 21 8zM644 774h127c10 0 14 -5 13 -16l-118 -742c-1 -11 -7 -16 -17 -16h-127c-10 0 -14 5 -13 16
l48 302h-331l-48 -302c-1 -11 -7 -16 -17 -16h-127c-10 0 -14 5 -13 16l118 742c1 11 7 16 17 16h127c10 0 14 -5 13 -16l-48 -301h331l48 301c1 11 7 16 17 16z" />
    <glyph glyph-name="I" unicode="I" horiz-adv-x="299" 
d="M156 774h128c10 0 14 -5 13 -16l-118 -742c-2 -11 -8 -16 -18 -16h-127c-10 0 -14 5 -12 16l117 742c1 11 7 16 17 16z" />
    <glyph glyph-name="IJ" unicode="&#x132;" horiz-adv-x="887" 
d="M156 774h128c10 0 14 -5 13 -16l-118 -742c-2 -11 -8 -16 -18 -16h-127c-10 0 -14 5 -12 16l117 742c1 11 7 16 17 16zM531 774h348c10 0 14 -5 13 -15l-61 -382c-46 -295 -130 -382 -388 -382c-66 0 -109 5 -157 15c-14 3 -21 9 -19 25l14 82c1 10 7 15 17 15h167
c141 0 179 54 209 245l41 260h-205c-11 0 -15 5 -14 15l17 107c1 10 7 15 18 15z" />
    <glyph glyph-name="Iacute" unicode="&#xcd;" horiz-adv-x="299" 
d="M264 992h145c6 0 8 -3 8 -10v-5c0 -5 -1 -8 -7 -14l-199 -146c-6 -4 -9 -3 -14 0l-39 25c-4 4 -4 9 -1 14l94 130c2 4 7 6 13 6zM156 774h128c10 0 14 -5 13 -16l-118 -742c-2 -11 -8 -16 -18 -16h-127c-10 0 -14 5 -12 16l117 742c1 11 7 16 17 16z" />
    <glyph glyph-name="Icaron" unicode="&#x1cf;" horiz-adv-x="299" 
d="M377 989l29 -16c6 -4 7 -10 1 -17l-117 -133c-5 -5 -9 -8 -22 -8h-85c-13 0 -16 3 -18 8l-75 133c-4 7 -2 13 6 17l34 16c7 4 12 5 17 0l95 -75l118 75c6 5 12 4 17 0zM156 774h128c10 0 14 -5 13 -16l-118 -742c-2 -11 -8 -16 -18 -16h-127c-10 0 -14 5 -12 16l117 742
c1 11 7 16 17 16z" />
    <glyph glyph-name="Icircumflex" unicode="&#xce;" horiz-adv-x="299" 
d="M212 992h85c12 0 15 -3 18 -8l75 -133c4 -7 2 -13 -6 -17l-34 -16c-7 -4 -12 -5 -18 0l-93 75l-119 -75c-7 -5 -12 -4 -17 0l-29 16c-6 4 -7 10 -1 17l117 133c5 5 9 8 22 8zM156 774h128c10 0 14 -5 13 -16l-118 -742c-2 -11 -8 -16 -18 -16h-127c-10 0 -14 5 -12 16
l117 742c1 11 7 16 17 16z" />
    <glyph glyph-name="Idieresis" unicode="&#xcf;" horiz-adv-x="299" 
d="M141 976c52 0 73 -28 66 -73c-8 -46 -39 -74 -89 -74s-74 26 -66 74s40 73 89 73zM362 976c52 0 73 -28 66 -73c-7 -46 -39 -74 -89 -74s-73 26 -66 74c8 48 40 73 89 73zM156 774h128c10 0 14 -5 13 -16l-118 -742c-2 -11 -8 -16 -18 -16h-127c-10 0 -14 5 -12 16
l117 742c1 11 7 16 17 16z" />
    <glyph glyph-name="Idotaccent" unicode="&#x130;" horiz-adv-x="299" 
d="M251 978c55 0 79 -26 71 -75c-8 -51 -43 -76 -95 -76s-78 25 -70 76s42 75 94 75zM156 774h128c10 0 14 -5 13 -16l-118 -742c-2 -11 -8 -16 -18 -16h-127c-10 0 -14 5 -12 16l117 742c1 11 7 16 17 16z" />
    <glyph glyph-name="Igrave" unicode="&#xcc;" horiz-adv-x="299" 
d="M77 992h145c6 0 9 -1 11 -6l53 -130c2 -5 0 -10 -6 -14l-47 -25c-6 -3 -10 -4 -14 0l-149 144c-4 3 -4 7 -4 13v8c0 7 5 10 11 10zM156 774h128c10 0 14 -5 13 -16l-118 -742c-2 -11 -8 -16 -18 -16h-127c-10 0 -14 5 -12 16l117 742c1 11 7 16 17 16z" />
    <glyph glyph-name="Imacron" unicode="&#x12a;" horiz-adv-x="299" 
d="M101 939h289c10 0 14 -5 13 -15l-10 -61c-1 -10 -7 -15 -17 -15h-290c-10 0 -14 5 -13 15l10 61c2 10 8 15 18 15zM156 774h128c10 0 14 -5 13 -16l-118 -742c-2 -11 -8 -16 -18 -16h-127c-10 0 -14 5 -12 16l117 742c1 11 7 16 17 16z" />
    <glyph glyph-name="Iogonek" unicode="&#x12e;" horiz-adv-x="299" 
d="M156 774h128c10 0 14 -5 13 -16l-118 -742c-2 -11 -8 -16 -18 -16h-64c-7 -22 -12 -37 -13 -50c-5 -26 16 -26 50 -26h36c10 0 14 -3 12 -14l-10 -61c-2 -10 -7 -15 -15 -18c-13 -5 -60 -8 -81 -8c-71 0 -102 23 -93 78c6 35 20 70 38 109l118 748c2 10 7 16 17 16z" />
    <glyph glyph-name="Itilde" unicode="&#x128;" horiz-adv-x="299" 
d="M306 832c-52 0 -104 39 -137 39c-22 0 -34 -7 -49 -33c-7 -11 -12 -13 -21 -10l-41 12c-8 3 -12 9 -7 21c37 90 65 115 123 115c52 0 104 -39 137 -39c22 0 34 7 49 33c7 11 12 13 21 10l41 -12c9 -3 12 -9 7 -20c-38 -91 -65 -116 -123 -116zM156 774h128
c10 0 14 -5 13 -16l-118 -742c-2 -11 -8 -16 -18 -16h-127c-10 0 -14 5 -12 16l117 742c1 11 7 16 17 16z" />
    <glyph glyph-name="J" unicode="J" horiz-adv-x="588" 
d="M232 774h348c10 0 14 -5 13 -15l-61 -382c-46 -295 -130 -382 -388 -382c-66 0 -109 5 -157 15c-14 3 -21 9 -19 25l14 82c1 10 7 15 17 15h167c141 0 179 54 209 245l41 260h-205c-11 0 -15 5 -14 15l17 107c1 10 7 15 18 15z" />
    <glyph glyph-name="Jcircumflex" unicode="&#x134;" horiz-adv-x="580" 
d="M393 992h85c12 0 15 -3 18 -8l75 -133c4 -7 2 -13 -6 -17l-34 -16c-7 -4 -12 -5 -18 0l-93 75l-119 -75c-7 -5 -12 -4 -17 0l-29 16c-6 4 -7 10 -1 17l117 133c5 5 9 8 22 8zM224 774h348c10 0 14 -5 13 -15l-61 -382c-46 -295 -130 -382 -388 -382c-66 0 -109 5 -157 15
c-14 3 -21 9 -19 25l14 82c1 10 7 15 17 15h167c141 0 179 54 209 245l41 260h-205c-11 0 -15 5 -14 15l17 107c1 10 7 15 18 15z" />
    <glyph glyph-name="K" unicode="K" horiz-adv-x="675" 
d="M570 774h141c18 0 16 -8 6 -19l-313 -337l225 -391c7 -13 6 -27 -21 -27h-140c-10 0 -17 4 -20 11l-211 371l-59 -366c-1 -11 -7 -16 -17 -16h-127c-10 0 -14 5 -13 16l118 743c1 10 7 15 17 15h127c10 0 14 -5 13 -15l-50 -318l302 323c6 6 13 10 22 10z" />
    <glyph glyph-name="Kcommaaccent" unicode="&#x136;" horiz-adv-x="675" 
d="M570 774h141c18 0 16 -8 6 -19l-313 -337l225 -391c7 -13 6 -27 -21 -27h-140c-10 0 -17 4 -20 11l-211 371l-59 -366c-1 -11 -7 -16 -17 -16h-127c-10 0 -14 5 -13 16l118 743c1 10 7 15 17 15h127c10 0 14 -5 13 -15l-50 -318l302 323c6 6 13 10 22 10zM233 -40h125
c6 0 7 -3 7 -10v-6c0 -5 0 -8 -7 -13l-176 -129c-6 -4 -9 -3 -14 0l-32 21c-5 4 -5 9 -1 14l85 117c2 4 7 6 13 6z" />
    <glyph glyph-name="L" unicode="L" horiz-adv-x="584" 
d="M156 774h127c10 0 14 -5 13 -15l-98 -622h328c10 0 14 -5 13 -15l-18 -107c-1 -10 -7 -15 -17 -15h-470c-10 0 -14 5 -13 16l118 743c1 10 7 15 17 15z" />
    <glyph glyph-name="Lacute" unicode="&#x139;" horiz-adv-x="584" 
d="M301 992h145c6 0 8 -3 8 -10v-5c0 -5 -1 -8 -7 -14l-199 -146c-6 -4 -9 -3 -14 0l-39 25c-4 4 -4 9 -1 14l94 130c2 4 7 6 13 6zM156 774h127c10 0 14 -5 13 -15l-98 -622h328c10 0 14 -5 13 -15l-18 -107c-1 -10 -7 -15 -17 -15h-470c-10 0 -14 5 -13 16l118 743
c1 10 7 15 17 15z" />
    <glyph glyph-name="Lcaron" unicode="&#x13d;" horiz-adv-x="578" 
d="M156 774h127c10 0 14 -5 13 -15l-98 -622h328c10 0 14 -5 13 -15l-18 -107c-1 -10 -7 -15 -17 -15h-470c-10 0 -14 5 -13 16l118 743c1 10 7 15 17 15zM453 774h145c6 0 7 -3 7 -10v-5c0 -5 0 -8 -6 -14l-199 -146c-6 -4 -9 -3 -14 0l-39 25c-4 4 -4 9 -1 14l94 130
c2 4 7 6 13 6z" />
    <glyph glyph-name="Lcommaaccent" unicode="&#x13b;" horiz-adv-x="584" 
d="M156 774h127c10 0 14 -5 13 -15l-98 -622h328c10 0 14 -5 13 -15l-18 -107c-1 -10 -7 -15 -17 -15h-470c-10 0 -14 5 -13 16l118 743c1 10 7 15 17 15zM196 -40h124c6 0 8 -3 8 -10v-6c0 -5 -1 -8 -8 -13l-175 -129c-6 -4 -9 -3 -14 0l-33 21c-4 4 -4 9 -1 14l86 117
c2 4 7 6 13 6z" />
    <glyph glyph-name="Ldot" unicode="&#x13f;" horiz-adv-x="584" 
d="M156 774h127c10 0 14 -5 13 -15l-98 -622h328c10 0 14 -5 13 -15l-18 -107c-1 -10 -7 -15 -17 -15h-470c-10 0 -14 5 -13 16l118 743c1 10 7 15 17 15zM406 424c55 0 86 -29 86 -80s-31 -81 -86 -81c-56 0 -88 30 -88 81s32 80 88 80z" />
    <glyph glyph-name="Lslash" unicode="&#x141;" horiz-adv-x="604" 
d="M218 137h328c10 0 14 -5 13 -15l-18 -107c-1 -10 -7 -15 -17 -15h-470c-10 0 -14 5 -13 16l45 281l-69 -36c-9 -6 -13 -4 -18 6l-14 33c-4 10 -3 13 6 18l107 56l61 385c1 10 7 15 17 15h127c10 0 14 -5 13 -15l-46 -294l119 63c11 5 17 5 21 -5l13 -32
c4 -9 3 -14 -9 -20l-156 -83z" />
    <glyph glyph-name="M" unicode="M" horiz-adv-x="981" 
d="M804 775h121c10 0 11 -7 11 -16l-46 -743c0 -11 -7 -16 -17 -16h-127c-10 0 -13 5 -13 16l33 480l-253 -457c-5 -10 -13 -15 -23 -15h-95c-9 0 -15 5 -19 15l-106 457l-121 -480c-2 -11 -7 -16 -17 -16h-127c-10 0 -15 5 -13 16l190 742c2 10 5 16 15 16h121
c32 0 44 -8 51 -39l109 -487l263 487c18 32 31 40 63 40z" />
    <glyph glyph-name="N" unicode="N" horiz-adv-x="785" 
d="M642 774h128c10 0 14 -5 13 -16l-118 -742c-2 -11 -8 -16 -18 -16h-93c-24 0 -36 6 -46 25l-252 481l-78 -490c-1 -11 -7 -16 -17 -16h-127c-10 0 -14 5 -13 16l118 742c1 11 7 16 17 16h99c40 0 44 -9 57 -33l238 -453l75 470c1 11 7 16 17 16z" />
    <glyph glyph-name="Nacute" unicode="&#x143;" horiz-adv-x="785" 
d="M492 992h146c6 0 7 -3 7 -10v-5c0 -5 0 -8 -7 -14l-199 -146c-5 -4 -9 -3 -14 0l-39 25c-4 4 -4 9 0 14l93 130c3 4 7 6 13 6zM642 774h128c10 0 14 -5 13 -16l-118 -742c-2 -11 -8 -16 -18 -16h-93c-24 0 -36 6 -46 25l-252 481l-78 -490c-1 -11 -7 -16 -17 -16h-127
c-10 0 -14 5 -13 16l118 742c1 11 7 16 17 16h99c40 0 44 -9 57 -33l238 -453l75 470c1 11 7 16 17 16z" />
    <glyph glyph-name="Ncaron" unicode="&#x147;" horiz-adv-x="785" 
d="M621 989l29 -16c6 -4 6 -10 1 -17l-118 -133c-4 -5 -8 -8 -21 -8h-85c-13 0 -16 3 -18 8l-75 133c-5 7 -2 13 6 17l34 16c6 4 12 5 17 0l95 -75l118 75c6 5 11 4 17 0zM642 774h128c10 0 14 -5 13 -16l-118 -742c-2 -11 -8 -16 -18 -16h-93c-24 0 -36 6 -46 25l-252 481
l-78 -490c-1 -11 -7 -16 -17 -16h-127c-10 0 -14 5 -13 16l118 742c1 11 7 16 17 16h99c40 0 44 -9 57 -33l238 -453l75 470c1 11 7 16 17 16z" />
    <glyph glyph-name="Ncommaaccent" unicode="&#x145;" horiz-adv-x="785" 
d="M642 774h128c10 0 14 -5 13 -16l-118 -742c-2 -11 -8 -16 -18 -16h-93c-24 0 -36 6 -46 25l-252 481l-78 -490c-1 -11 -7 -16 -17 -16h-127c-10 0 -14 5 -13 16l118 742c1 11 7 16 17 16h99c40 0 44 -9 57 -33l238 -453l75 470c1 11 7 16 17 16zM293 -40h125
c6 0 7 -3 7 -10v-6c0 -5 0 -8 -7 -13l-176 -129c-6 -4 -9 -3 -14 0l-32 21c-5 4 -5 9 -1 14l85 117c3 4 7 6 13 6z" />
    <glyph glyph-name="Eng" unicode="&#x14a;" horiz-adv-x="785" 
d="M642 774h128c10 0 14 -5 13 -16l-92 -580c-47 -295 -123 -382 -340 -382c-44 0 -67 4 -102 11c-14 3 -22 9 -18 25l13 87c2 10 8 15 18 15h83c98 0 150 30 163 120l-252 452l-78 -490c-1 -11 -7 -16 -17 -16h-127c-10 0 -14 5 -13 16l118 742c1 11 7 16 17 16h99
c40 0 44 -9 57 -33l238 -453l75 470c1 11 7 16 17 16z" />
    <glyph glyph-name="Ntilde" unicode="&#xd1;" horiz-adv-x="785" 
d="M550 832c-52 0 -105 39 -137 39c-23 0 -34 -7 -50 -33c-7 -11 -11 -13 -20 -10l-41 12c-8 3 -12 9 -7 21c37 90 65 115 123 115c52 0 104 -39 137 -39c22 0 34 7 49 33c7 11 12 13 20 10l41 -12c10 -3 12 -9 7 -20c-37 -91 -65 -116 -122 -116zM642 774h128
c10 0 14 -5 13 -16l-118 -742c-2 -11 -8 -16 -18 -16h-93c-24 0 -36 6 -46 25l-252 481l-78 -490c-1 -11 -7 -16 -17 -16h-127c-10 0 -14 5 -13 16l118 742c1 11 7 16 17 16h99c40 0 44 -9 57 -33l238 -453l75 470c1 11 7 16 17 16z" />
    <glyph glyph-name="O" unicode="O" horiz-adv-x="740" 
d="M441 780c255 0 310 -90 262 -394c-48 -302 -131 -391 -386 -391s-310 89 -262 391c48 304 131 394 386 394zM420 643c-138 0 -175 -61 -206 -257c-31 -194 -13 -254 125 -254s174 60 205 254c31 196 14 257 -124 257z" />
    <glyph glyph-name="Oacute" unicode="&#xd3;" horiz-adv-x="740" 
d="M526 992h145c6 0 7 -3 7 -10v-5c0 -5 0 -8 -7 -14l-198 -146c-6 -4 -9 -3 -14 0l-40 25c-4 4 -4 9 0 14l94 130c2 4 7 6 13 6zM441 780c255 0 310 -90 262 -394c-48 -302 -131 -391 -386 -391s-310 89 -262 391c48 304 131 394 386 394zM420 643
c-138 0 -175 -61 -206 -257c-31 -194 -13 -254 125 -254s174 60 205 254c31 196 14 257 -124 257z" />
    <glyph glyph-name="Obreve" unicode="&#x14e;" horiz-adv-x="740" 
d="M575 980h58c11 0 15 -4 11 -15c-30 -102 -78 -137 -194 -137c-119 0 -153 35 -153 136c0 12 6 16 17 16h58c9 0 13 -3 15 -12c10 -38 30 -50 77 -50c46 0 69 12 92 50c4 9 10 12 19 12zM441 780c255 0 310 -90 262 -394c-48 -302 -131 -391 -386 -391s-310 89 -262 391
c48 304 131 394 386 394zM420 643c-138 0 -175 -61 -206 -257c-31 -194 -13 -254 125 -254s174 60 205 254c31 196 14 257 -124 257z" />
    <glyph glyph-name="Ocaron" unicode="&#x1d1;" horiz-adv-x="740" 
d="M598 989l29 -16c6 -4 7 -10 1 -17l-117 -133c-5 -5 -9 -8 -22 -8h-85c-12 0 -15 3 -18 8l-75 133c-4 7 -2 13 6 17l34 16c7 4 12 5 18 0l94 -75l118 75c7 5 12 4 17 0zM441 780c255 0 310 -90 262 -394c-48 -302 -131 -391 -386 -391s-310 89 -262 391
c48 304 131 394 386 394zM420 643c-138 0 -175 -61 -206 -257c-31 -194 -13 -254 125 -254s174 60 205 254c31 196 14 257 -124 257z" />
    <glyph glyph-name="Ocircumflex" unicode="&#xd4;" horiz-adv-x="740" 
d="M433 992h85c13 0 16 -3 18 -8l75 -133c4 -7 2 -13 -6 -17l-34 -16c-7 -4 -12 -5 -17 0l-94 75l-119 -75c-6 -5 -12 -4 -17 0l-29 16c-6 4 -7 10 -1 17l117 133c5 5 9 8 22 8zM441 780c255 0 310 -90 262 -394c-48 -302 -131 -391 -386 -391s-310 89 -262 391
c48 304 131 394 386 394zM420 643c-138 0 -175 -61 -206 -257c-31 -194 -13 -254 125 -254s174 60 205 254c31 196 14 257 -124 257z" />
    <glyph glyph-name="Odieresis" unicode="&#xd6;" horiz-adv-x="740" 
d="M362 976c52 0 73 -28 66 -73c-7 -46 -38 -74 -89 -74c-49 0 -74 26 -66 74s40 73 89 73zM583 976c52 0 73 -28 66 -73c-7 -46 -38 -74 -89 -74c-49 0 -73 26 -66 74c8 48 40 73 89 73zM441 780c255 0 310 -90 262 -394c-48 -302 -131 -391 -386 -391s-310 89 -262 391
c48 304 131 394 386 394zM420 643c-138 0 -175 -61 -206 -257c-31 -194 -13 -254 125 -254s174 60 205 254c31 196 14 257 -124 257z" />
    <glyph glyph-name="Ograve" unicode="&#xd2;" horiz-adv-x="740" 
d="M314 992h145c6 0 9 -1 11 -6l52 -130c3 -5 1 -10 -5 -14l-47 -25c-6 -3 -10 -4 -14 0l-150 144c-3 3 -4 7 -4 13v8c0 7 6 10 12 10zM441 780c255 0 310 -90 262 -394c-48 -302 -131 -391 -386 -391s-310 89 -262 391c48 304 131 394 386 394zM420 643
c-138 0 -175 -61 -206 -257c-31 -194 -13 -254 125 -254s174 60 205 254c31 196 14 257 -124 257z" />
    <glyph glyph-name="Ohungarumlaut" unicode="&#x150;" horiz-adv-x="740" 
d="M416 992h97c6 0 8 -3 8 -10v-6c0 -5 -2 -8 -8 -13l-169 -138c-5 -5 -9 -4 -14 0l-20 17c-4 4 -4 9 -1 14l94 130c3 4 7 6 13 6zM603 992h97c6 0 9 -3 9 -10v-6c0 -5 -3 -8 -8 -13l-170 -138c-6 -5 -10 -4 -14 0l-20 17c-4 4 -4 9 -1 14l94 130c2 4 7 6 13 6zM441 780
c255 0 310 -90 262 -394c-48 -302 -131 -391 -386 -391s-310 89 -262 391c48 304 131 394 386 394zM420 643c-138 0 -175 -61 -206 -257c-31 -194 -13 -254 125 -254s174 60 205 254c31 196 14 257 -124 257z" />
    <glyph glyph-name="Omacron" unicode="&#x14c;" horiz-adv-x="740" 
d="M322 939h290c10 0 14 -5 12 -15l-10 -61c-1 -10 -7 -15 -17 -15h-289c-10 0 -15 5 -13 15l10 61c1 10 7 15 17 15zM441 780c255 0 310 -90 262 -394c-48 -302 -131 -391 -386 -391s-310 89 -262 391c48 304 131 394 386 394zM420 643c-138 0 -175 -61 -206 -257
c-31 -194 -13 -254 125 -254s174 60 205 254c31 196 14 257 -124 257z" />
    <glyph glyph-name="Oslash" unicode="&#xd8;" horiz-adv-x="740" 
d="M317 -5c-89 0 -154 11 -199 38l-36 -43c-8 -9 -12 -10 -21 -3l-30 23c-7 5 -7 12 -1 20l42 49c-39 60 -41 157 -17 307c48 304 131 394 386 394c90 0 155 -12 200 -39l34 40c7 8 13 11 22 4l30 -23c7 -5 7 -12 0 -21l-41 -47c39 -60 41 -158 17 -308
c-48 -302 -131 -391 -386 -391zM420 643c-138 0 -175 -61 -206 -257c-11 -67 -15 -117 -11 -154l326 380c-21 22 -56 31 -109 31zM555 541l-325 -378c22 -22 57 -31 109 -31c137 0 174 60 205 254c11 67 16 118 11 155z" />
    <glyph glyph-name="Oslashacute" unicode="&#x1fe;" horiz-adv-x="740" 
d="M506 992h145c6 0 7 -3 7 -10v-5c0 -5 0 -8 -6 -14l-199 -146c-6 -4 -9 -3 -14 0l-39 25c-4 4 -4 9 -1 14l94 130c2 4 7 6 13 6zM703 386c-48 -302 -131 -391 -386 -391c-89 0 -154 11 -199 38l-36 -43c-8 -9 -12 -10 -21 -3l-30 23c-7 5 -7 12 -1 20l42 49
c-39 60 -41 157 -17 307c48 304 131 394 386 394c90 0 155 -12 200 -39l34 40c7 8 13 11 22 4l30 -23c7 -5 7 -12 0 -21l-41 -47c39 -60 41 -158 17 -308zM420 643c-138 0 -175 -61 -206 -257c-11 -67 -15 -117 -11 -154l326 380c-21 22 -56 31 -109 31zM555 541l-325 -378
c22 -22 57 -31 109 -31c138 0 174 60 205 254c11 67 16 118 11 155z" />
    <glyph glyph-name="Otilde" unicode="&#xd5;" horiz-adv-x="740" 
d="M527 832c-52 0 -104 39 -137 39c-22 0 -34 -7 -49 -33c-7 -11 -12 -13 -21 -10l-41 12c-8 3 -12 9 -7 21c38 90 65 115 123 115c52 0 104 -39 137 -39c22 0 34 7 49 33c7 11 12 13 21 10l41 -12c9 -3 12 -9 7 -20c-37 -91 -65 -116 -123 -116zM441 780
c255 0 310 -90 262 -394c-48 -302 -131 -391 -386 -391s-310 89 -262 391c48 304 131 394 386 394zM420 643c-138 0 -175 -61 -206 -257c-31 -194 -13 -254 125 -254s174 60 205 254c31 196 14 257 -124 257z" />
    <glyph glyph-name="OE" unicode="&#x152;" horiz-adv-x="1065" 
d="M441 780l348 -6h286c10 0 15 -5 14 -15l-17 -107c-2 -10 -8 -15 -18 -15h-352l-30 -189h321c10 0 15 -5 14 -15l-17 -102c-1 -10 -8 -15 -18 -15h-321l-27 -179h351c10 0 14 -5 13 -15l-18 -107c-1 -10 -7 -15 -17 -15l-637 -5c-254 -3 -309 89 -261 391
c48 304 132 397 386 394zM546 643h-127c-138 0 -174 -61 -205 -257c-31 -194 -14 -254 124 -254h127z" />
    <glyph glyph-name="P" unicode="P" horiz-adv-x="673" 
d="M423 780c220 0 285 -57 253 -257c-32 -202 -112 -243 -332 -243h-124l-42 -264c-2 -13 -5 -16 -17 -16h-127c-12 0 -15 3 -13 16l117 739c2 11 5 13 17 14c91 8 187 11 268 11zM386 643h-108l-39 -242h108c119 0 153 16 170 118c16 100 -13 124 -131 124z" />
    <glyph glyph-name="Thorn" unicode="&#xde;" horiz-adv-x="669" 
d="M156 776h128c10 0 14 -6 12 -16l-18 -117c42 2 84 3 120 3c220 0 284 -57 253 -257c-32 -200 -115 -257 -334 -257c-37 0 -78 1 -120 2l-19 -116c-1 -11 -7 -16 -17 -16h-127c-10 0 -14 5 -13 16l118 742c1 10 7 16 17 16zM361 512h-104l-39 -246h104
c119 0 154 21 170 122c16 100 -12 124 -131 124z" />
    <glyph glyph-name="Q" unicode="Q" horiz-adv-x="740" 
d="M440 780c255 0 310 -90 262 -394c-43 -266 -112 -367 -303 -387l16 -123c2 -11 -7 -16 -17 -16h-113c-10 0 -14 4 -16 16l-17 121c-200 16 -242 114 -198 389c48 304 131 394 386 394zM543 386c31 196 14 257 -124 257s-175 -61 -206 -257c-31 -194 -13 -254 125 -254
s174 60 205 254z" />
    <glyph glyph-name="R" unicode="R" horiz-adv-x="691" 
d="M423 780c220 0 285 -57 253 -257c-24 -151 -74 -211 -190 -233l127 -270c6 -11 0 -20 -15 -20h-126c-23 0 -29 7 -37 22l-122 258h-93l-42 -264c-2 -13 -5 -16 -17 -16h-127c-12 0 -15 3 -13 16l117 739c2 11 5 13 17 14c91 8 187 11 268 11zM386 643h-108l-39 -242h108
c119 0 153 16 170 118c16 100 -13 124 -131 124z" />
    <glyph glyph-name="Racute" unicode="&#x154;" horiz-adv-x="691" 
d="M452 992h145c6 0 7 -3 7 -10v-5c0 -5 0 -8 -7 -14l-198 -146c-6 -4 -9 -3 -14 0l-40 25c-4 4 -4 9 0 14l94 130c2 4 7 6 13 6zM423 780c220 0 285 -57 253 -257c-24 -151 -74 -211 -190 -233l127 -270c6 -11 0 -20 -15 -20h-126c-23 0 -29 7 -37 22l-122 258h-93
l-42 -264c-2 -13 -5 -16 -17 -16h-127c-12 0 -15 3 -13 16l117 739c2 11 5 13 17 14c91 8 187 11 268 11zM386 643h-108l-39 -242h108c119 0 153 16 170 118c16 100 -13 124 -131 124z" />
    <glyph glyph-name="Rcaron" unicode="&#x158;" horiz-adv-x="691" 
d="M580 989l29 -16c6 -4 7 -10 1 -17l-117 -133c-5 -5 -9 -8 -22 -8h-85c-13 0 -16 3 -18 8l-75 133c-4 7 -2 13 6 17l34 16c7 4 12 5 17 0l95 -75l118 75c7 5 12 4 17 0zM423 780c220 0 285 -57 253 -257c-24 -151 -74 -211 -190 -233l127 -270c6 -11 0 -20 -15 -20h-126
c-23 0 -29 7 -37 22l-122 258h-93l-42 -264c-2 -13 -5 -16 -17 -16h-127c-12 0 -15 3 -13 16l117 739c2 11 5 13 17 14c91 8 187 11 268 11zM386 643h-108l-39 -242h108c119 0 153 16 170 118c16 100 -13 124 -131 124z" />
    <glyph glyph-name="Rcommaaccent" unicode="&#x156;" horiz-adv-x="691" 
d="M423 780c220 0 285 -57 253 -257c-24 -151 -74 -211 -190 -233l127 -270c6 -11 0 -20 -15 -20h-126c-23 0 -29 7 -37 22l-122 258h-93l-42 -264c-2 -13 -5 -16 -17 -16h-127c-12 0 -15 3 -13 16l117 739c2 11 5 13 17 14c91 8 187 11 268 11zM386 643h-108l-39 -242h108
c119 0 153 16 170 118c16 100 -13 124 -131 124zM252 -40h125c6 0 7 -3 7 -10v-6c0 -5 0 -8 -7 -13l-175 -129c-6 -4 -10 -3 -14 0l-33 21c-5 4 -5 9 -1 14l85 117c3 4 7 6 13 6z" />
    <glyph glyph-name="S" unicode="S" horiz-adv-x="623" 
d="M400 780c83 0 130 -6 206 -20c12 -4 15 -10 14 -18l-13 -82c-2 -12 -9 -17 -22 -17h-236c-61 0 -96 -21 -102 -65l-3 -14c-5 -35 6 -58 47 -75l176 -73c90 -38 125 -85 107 -201l-5 -28c-23 -148 -145 -192 -318 -192c-74 0 -152 6 -243 21c-12 3 -17 9 -15 22l13 75
c2 13 9 19 23 19h283c60 0 93 18 100 62l2 13c7 43 -9 63 -58 83l-183 73c-79 31 -105 88 -87 204l3 22c24 148 133 191 311 191z" />
    <glyph glyph-name="Sacute" unicode="&#x15a;" horiz-adv-x="623" 
d="M441 992h145c6 0 8 -3 8 -10v-5c0 -5 -1 -8 -7 -14l-199 -146c-6 -4 -9 -3 -14 0l-39 25c-4 4 -4 9 -1 14l94 130c2 4 7 6 13 6zM400 780c83 0 130 -6 206 -20c12 -4 15 -10 14 -18l-13 -82c-2 -12 -9 -17 -22 -17h-236c-61 0 -96 -21 -102 -65l-3 -14
c-5 -35 6 -58 47 -75l176 -73c90 -38 125 -85 107 -201l-5 -28c-23 -148 -145 -192 -318 -192c-74 0 -152 6 -243 21c-12 3 -17 9 -15 22l13 75c2 13 9 19 23 19h283c60 0 93 18 100 62l2 13c7 43 -9 63 -58 83l-183 73c-79 31 -105 88 -87 204l3 22c24 148 133 191 311 191
z" />
    <glyph glyph-name="Scaron" unicode="&#x160;" horiz-adv-x="623" 
d="M548 989l28 -16c7 -4 7 -10 1 -17l-117 -133c-4 -5 -9 -8 -21 -8h-85c-13 0 -16 3 -19 8l-74 133c-5 7 -3 13 6 17l33 16c7 4 12 5 18 0l94 -75l118 75c7 5 12 4 18 0zM400 780c83 0 130 -6 206 -20c12 -4 15 -10 14 -18l-13 -82c-2 -12 -9 -17 -22 -17h-236
c-61 0 -96 -21 -102 -65l-3 -14c-5 -35 6 -58 47 -75l176 -73c90 -38 125 -85 107 -201l-5 -28c-23 -148 -145 -192 -318 -192c-74 0 -152 6 -243 21c-12 3 -17 9 -15 22l13 75c2 13 9 19 23 19h283c60 0 93 18 100 62l2 13c7 43 -9 63 -58 83l-183 73
c-79 31 -105 88 -87 204l3 22c24 148 133 191 311 191z" />
    <glyph glyph-name="Scedilla" unicode="&#x15e;" horiz-adv-x="623" 
d="M606 760c12 -4 15 -10 14 -18l-13 -82c-2 -12 -9 -17 -22 -17h-236c-61 0 -96 -21 -102 -65l-3 -14c-5 -35 6 -58 47 -75l176 -73c90 -38 125 -85 107 -201l-5 -28c-20 -133 -120 -181 -264 -190c4 -32 6 -66 1 -96c-9 -55 -46 -78 -118 -78c-21 0 -66 3 -78 8
c-7 3 -10 9 -9 18l10 61c1 10 6 14 16 14h35c35 0 55 0 60 26c1 12 2 26 2 45c-67 2 -137 8 -216 21c-12 3 -17 9 -15 22l13 75c2 13 9 19 23 19h283c60 0 93 18 100 62l2 13c7 43 -9 63 -58 83l-183 73c-79 31 -105 88 -87 204l3 22c24 148 133 191 311 191
c83 0 130 -6 206 -20z" />
    <glyph glyph-name="Scircumflex" unicode="&#x15c;" horiz-adv-x="623" 
d="M376 992h85c13 0 16 -3 19 -8l74 -133c5 -7 3 -13 -6 -17l-33 -16c-7 -4 -12 -5 -18 0l-94 75l-118 -75c-7 -5 -12 -4 -18 0l-28 16c-7 4 -7 10 -1 17l117 133c4 5 9 8 21 8zM400 780c83 0 130 -6 206 -20c12 -4 15 -10 14 -18l-13 -82c-2 -12 -9 -17 -22 -17h-236
c-61 0 -96 -21 -102 -65l-3 -14c-5 -35 6 -58 47 -75l176 -73c90 -38 125 -85 107 -201l-5 -28c-23 -148 -145 -192 -318 -192c-74 0 -152 6 -243 21c-12 3 -17 9 -15 22l13 75c2 13 9 19 23 19h283c60 0 93 18 100 62l2 13c7 43 -9 63 -58 83l-183 73
c-79 31 -105 88 -87 204l3 22c24 148 133 191 311 191z" />
    <glyph glyph-name="Scommaaccent" unicode="&#x218;" horiz-adv-x="623" 
d="M400 780c83 0 130 -6 206 -20c12 -4 15 -10 14 -18l-13 -82c-2 -12 -9 -17 -22 -17h-236c-61 0 -96 -21 -102 -65l-3 -14c-5 -35 6 -58 47 -75l176 -73c90 -38 125 -85 107 -201l-5 -28c-23 -148 -145 -192 -318 -192c-74 0 -152 6 -243 21c-12 3 -17 9 -15 22l13 75
c2 13 9 19 23 19h283c60 0 93 18 100 62l2 13c7 43 -9 63 -58 83l-183 73c-79 31 -105 88 -87 204l3 22c24 148 133 191 311 191zM193 -40h125c6 0 8 -3 8 -10v-6c0 -5 -1 -8 -8 -13l-175 -129c-6 -4 -10 -3 -14 0l-33 21c-4 4 -4 9 -1 14l85 117c3 4 7 6 13 6z" />
    <glyph glyph-name="T" unicode="T" horiz-adv-x="634" 
d="M100 774h575c10 0 14 -5 13 -15l-17 -107c-1 -10 -8 -15 -18 -15h-209l-98 -621c-2 -11 -8 -16 -18 -16h-127c-10 0 -14 5 -12 16l98 621h-209c-10 0 -14 5 -13 15l17 107c1 10 7 15 18 15z" />
    <glyph glyph-name="Tbar" unicode="&#x166;" horiz-adv-x="653" 
d="M109 774h575c10 0 14 -5 13 -15l-17 -107c-1 -10 -8 -15 -18 -15h-209l-33 -210h146c10 0 14 -5 13 -15l-10 -58c-2 -10 -7 -15 -17 -15h-146l-51 -323c-2 -11 -8 -16 -18 -16h-127c-10 0 -14 5 -12 16l51 323h-145c-10 0 -15 5 -13 15l9 58c1 10 7 15 17 15h146l33 210
h-209c-10 0 -14 5 -13 15l17 107c1 10 7 15 18 15z" />
    <glyph glyph-name="Tcaron" unicode="&#x164;" horiz-adv-x="634" 
d="M545 989l29 -16c6 -4 6 -10 1 -17l-117 -133c-5 -5 -9 -8 -22 -8h-85c-13 0 -16 3 -18 8l-75 133c-5 7 -2 13 6 17l34 16c7 4 12 5 17 0l95 -75l118 75c6 5 11 4 17 0zM100 774h575c10 0 14 -5 13 -15l-17 -107c-1 -10 -8 -15 -18 -15h-209l-98 -621
c-2 -11 -8 -16 -18 -16h-127c-10 0 -14 5 -12 16l98 621h-209c-10 0 -14 5 -13 15l17 107c1 10 7 15 18 15z" />
    <glyph glyph-name="Tcedilla" unicode="&#x162;" horiz-adv-x="634" 
d="M100 774h575c10 0 14 -5 13 -15l-17 -107c-1 -10 -8 -15 -18 -15h-209l-99 -628c6 -34 8 -74 3 -108c-9 -55 -47 -78 -118 -78c-21 0 -67 3 -78 8c-8 3 -11 9 -9 18l10 61c1 10 5 14 15 14h36c34 0 55 0 59 26c2 13 2 28 2 50h-64c-10 0 -14 5 -12 16l98 621h-209
c-10 0 -14 5 -13 15l17 107c1 10 7 15 18 15z" />
    <glyph glyph-name="uni021A" unicode="&#x21a;" horiz-adv-x="634" 
d="M100 774h575c10 0 14 -5 13 -15l-17 -107c-1 -10 -8 -15 -18 -15h-209l-98 -621c-2 -11 -8 -16 -18 -16h-127c-10 0 -14 5 -12 16l98 621h-209c-10 0 -14 5 -13 15l17 107c1 10 7 15 18 15zM199 -40h125c6 0 7 -3 7 -10v-6c0 -5 0 -8 -7 -13l-176 -129c-6 -4 -9 -3 -14 0
l-32 21c-5 4 -5 9 -1 14l85 117c2 4 7 6 13 6z" />
    <glyph glyph-name="U" unicode="U" horiz-adv-x="761" 
d="M625 774h127c11 0 15 -4 13 -15l-59 -373c-49 -313 -125 -391 -378 -391s-304 78 -255 391l60 373c1 11 6 15 17 15h127c11 0 14 -4 13 -15l-59 -373c-33 -203 -9 -254 119 -254c127 0 167 51 199 254l59 373c2 11 6 15 17 15z" />
    <glyph glyph-name="Uacute" unicode="&#xda;" horiz-adv-x="761" 
d="M480 992h146c6 0 7 -3 7 -10v-5c0 -5 0 -8 -7 -14l-198 -146c-6 -4 -9 -3 -14 0l-40 25c-4 4 -4 9 0 14l93 130c3 4 7 6 13 6zM625 774h127c11 0 15 -4 13 -15l-59 -373c-49 -313 -125 -391 -378 -391s-304 78 -255 391l60 373c1 11 6 15 17 15h127c11 0 14 -4 13 -15
l-59 -373c-33 -203 -9 -254 119 -254c127 0 167 51 199 254l59 373c2 11 6 15 17 15z" />
    <glyph glyph-name="Ubreve" unicode="&#x16c;" horiz-adv-x="761" 
d="M585 980h59c11 0 15 -4 11 -15c-30 -102 -79 -137 -195 -137c-118 0 -152 35 -152 136c0 12 5 16 17 16h58c9 0 13 -3 15 -12c10 -38 30 -50 76 -50c47 0 70 12 92 50c5 9 10 12 19 12zM625 774h127c11 0 15 -4 13 -15l-59 -373c-49 -313 -125 -391 -378 -391
s-304 78 -255 391l60 373c1 11 6 15 17 15h127c11 0 14 -4 13 -15l-59 -373c-33 -203 -9 -254 119 -254c127 0 167 51 199 254l59 373c2 11 6 15 17 15z" />
    <glyph glyph-name="Ucaron" unicode="&#x1d3;" horiz-adv-x="761" 
d="M609 989l29 -16c6 -4 6 -10 1 -17l-117 -133c-5 -5 -9 -8 -22 -8h-85c-13 0 -16 3 -18 8l-75 133c-5 7 -2 13 6 17l34 16c7 4 12 5 17 0l95 -75l118 75c6 5 11 4 17 0zM625 774h127c11 0 15 -4 13 -15l-59 -373c-49 -313 -125 -391 -378 -391s-304 78 -255 391l60 373
c1 11 6 15 17 15h127c11 0 14 -4 13 -15l-59 -373c-33 -203 -9 -254 119 -254c127 0 167 51 199 254l59 373c2 11 6 15 17 15z" />
    <glyph glyph-name="Ucircumflex" unicode="&#xdb;" horiz-adv-x="761" 
d="M444 992h85c12 0 15 -3 18 -8l75 -133c4 -7 2 -13 -7 -17l-33 -16c-7 -4 -12 -5 -18 0l-94 75l-118 -75c-7 -5 -12 -4 -17 0l-29 16c-6 4 -7 10 -1 17l117 133c5 5 9 8 22 8zM625 774h127c11 0 15 -4 13 -15l-59 -373c-49 -313 -125 -391 -378 -391s-304 78 -255 391
l60 373c1 11 6 15 17 15h127c11 0 14 -4 13 -15l-59 -373c-33 -203 -9 -254 119 -254c127 0 167 51 199 254l59 373c2 11 6 15 17 15z" />
    <glyph glyph-name="Udieresis" unicode="&#xdc;" horiz-adv-x="761" 
d="M373 976c51 0 73 -28 65 -73c-7 -46 -38 -74 -89 -74c-49 0 -73 26 -65 74c7 48 40 73 89 73zM594 976c51 0 73 -28 66 -73c-7 -46 -39 -74 -90 -74c-49 0 -72 26 -65 74c8 48 40 73 89 73zM625 774h127c11 0 15 -4 13 -15l-59 -373c-49 -313 -125 -391 -378 -391
s-304 78 -255 391l60 373c1 11 6 15 17 15h127c11 0 14 -4 13 -15l-59 -373c-33 -203 -9 -254 119 -254c127 0 167 51 199 254l59 373c2 11 6 15 17 15z" />
    <glyph glyph-name="Udieresisacute" unicode="&#x1d7;" horiz-adv-x="761" 
d="M535 1167h145c6 0 7 -3 7 -10v-6c0 -5 0 -8 -7 -13l-198 -147c-6 -4 -9 -3 -14 0l-40 25c-4 4 -4 9 0 14l94 131c2 4 7 6 13 6zM373 976c51 0 73 -28 65 -73c-7 -46 -38 -74 -89 -74c-49 0 -73 26 -65 74c7 48 40 73 89 73zM594 976c51 0 73 -28 66 -73
c-7 -46 -39 -74 -90 -74c-49 0 -72 26 -65 74c8 48 40 73 89 73zM625 774h127c11 0 15 -4 13 -15l-59 -373c-49 -313 -125 -391 -378 -391s-304 78 -255 391l60 373c1 11 6 15 17 15h127c11 0 14 -4 13 -15l-59 -373c-33 -203 -9 -254 119 -254c127 0 167 51 199 254l59 373
c2 11 6 15 17 15z" />
    <glyph glyph-name="Udieresiscaron" unicode="&#x1d9;" horiz-adv-x="761" 
d="M635 1167l29 -17c6 -4 7 -10 1 -16l-117 -133c-5 -6 -9 -9 -22 -9h-85c-12 0 -15 3 -18 9l-75 133c-4 6 -2 12 6 16l34 17c7 4 12 4 18 0l94 -76l118 76c7 4 12 4 17 0zM373 976c51 0 73 -28 65 -73c-7 -46 -38 -74 -89 -74c-49 0 -73 26 -65 74c7 48 40 73 89 73z
M594 976c51 0 73 -28 66 -73c-7 -46 -39 -74 -90 -74c-49 0 -72 26 -65 74c8 48 40 73 89 73zM625 774h127c11 0 15 -4 13 -15l-59 -373c-49 -313 -125 -391 -378 -391s-304 78 -255 391l60 373c1 11 6 15 17 15h127c11 0 14 -4 13 -15l-59 -373c-33 -203 -9 -254 119 -254
c127 0 167 51 199 254l59 373c2 11 6 15 17 15z" />
    <glyph glyph-name="Udieresisgrave" unicode="&#x1db;" horiz-adv-x="761" 
d="M331 1167h145c6 0 9 -2 11 -6l53 -131c2 -5 0 -10 -6 -14l-47 -25c-6 -3 -10 -4 -14 0l-150 145c-3 3 -4 7 -4 12v9c0 7 6 10 12 10zM373 976c51 0 73 -28 65 -73c-7 -46 -38 -74 -89 -74c-49 0 -73 26 -65 74c7 48 40 73 89 73zM594 976c51 0 73 -28 66 -73
c-7 -46 -39 -74 -90 -74c-49 0 -72 26 -65 74c8 48 40 73 89 73zM625 774h127c11 0 15 -4 13 -15l-59 -373c-49 -313 -125 -391 -378 -391s-304 78 -255 391l60 373c1 11 6 15 17 15h127c11 0 14 -4 13 -15l-59 -373c-33 -203 -9 -254 119 -254c127 0 167 51 199 254l59 373
c2 11 6 15 17 15z" />
    <glyph glyph-name="Udieresismacron" unicode="&#x1d5;" horiz-adv-x="761" 
d="M356 1131h290c10 0 14 -5 12 -15l-10 -61c-1 -10 -7 -15 -17 -15h-289c-10 0 -15 5 -13 15l10 61c1 10 7 15 17 15zM373 976c51 0 73 -28 65 -73c-7 -46 -38 -74 -89 -74c-49 0 -73 26 -65 74c7 48 40 73 89 73zM594 976c51 0 73 -28 66 -73c-7 -46 -39 -74 -90 -74
c-49 0 -72 26 -65 74c8 48 40 73 89 73zM625 774h127c11 0 15 -4 13 -15l-59 -373c-49 -313 -125 -391 -378 -391s-304 78 -255 391l60 373c1 11 6 15 17 15h127c11 0 14 -4 13 -15l-59 -373c-33 -203 -9 -254 119 -254c127 0 167 51 199 254l59 373c2 11 6 15 17 15z" />
    <glyph glyph-name="Ugrave" unicode="&#xd9;" horiz-adv-x="761" 
d="M324 992h146c6 0 9 -1 11 -6l52 -130c2 -5 0 -10 -6 -14l-46 -25c-6 -3 -10 -4 -14 0l-150 144c-4 3 -4 7 -4 13v8c0 7 5 10 11 10zM625 774h127c11 0 15 -4 13 -15l-59 -373c-49 -313 -125 -391 -378 -391s-304 78 -255 391l60 373c1 11 6 15 17 15h127
c11 0 14 -4 13 -15l-59 -373c-33 -203 -9 -254 119 -254c127 0 167 51 199 254l59 373c2 11 6 15 17 15z" />
    <glyph glyph-name="Uhungarumlaut" unicode="&#x170;" horiz-adv-x="761" 
d="M351 992h97c7 0 8 -3 8 -10v-6c0 -5 -2 -8 -8 -13l-169 -138c-5 -5 -9 -4 -14 0l-20 17c-4 4 -4 9 0 14l93 130c3 4 7 6 13 6zM538 992h97c6 0 9 -3 9 -10v-6c0 -5 -3 -8 -8 -13l-170 -138c-5 -5 -9 -4 -14 0l-20 17c-4 4 -4 9 -1 14l94 130c3 4 7 6 13 6zM625 774h127
c11 0 15 -4 13 -15l-59 -373c-49 -313 -125 -391 -378 -391s-304 78 -255 391l60 373c1 11 6 15 17 15h127c11 0 14 -4 13 -15l-59 -373c-33 -203 -9 -254 119 -254c127 0 167 51 199 254l59 373c2 11 6 15 17 15z" />
    <glyph glyph-name="Umacron" unicode="&#x16a;" horiz-adv-x="761" 
d="M333 939h289c10 0 14 -5 13 -15l-10 -61c-2 -10 -7 -15 -17 -15h-290c-10 0 -14 5 -13 15l10 61c2 10 8 15 18 15zM625 774h127c11 0 15 -4 13 -15l-59 -373c-49 -313 -125 -391 -378 -391s-304 78 -255 391l60 373c1 11 6 15 17 15h127c11 0 14 -4 13 -15l-59 -373
c-33 -203 -9 -254 119 -254c127 0 167 51 199 254l59 373c2 11 6 15 17 15z" />
    <glyph glyph-name="Uogonek" unicode="&#x172;" horiz-adv-x="761" 
d="M625 774h127c11 0 15 -4 13 -15l-59 -373c-47 -299 -119 -384 -346 -391c-7 -17 -11 -33 -12 -45c-4 -26 16 -26 51 -26h35c10 0 13 -4 12 -14l-10 -61c-1 -9 -6 -15 -15 -18c-12 -5 -60 -8 -81 -8c-71 0 -101 23 -92 78c4 30 17 64 31 95c-211 11 -252 98 -206 390
l60 373c1 11 6 15 17 15h127c11 0 14 -4 13 -15l-59 -373c-33 -203 -9 -254 119 -254c127 0 167 51 199 254l59 373c2 11 6 15 17 15z" />
    <glyph glyph-name="Uring" unicode="&#x16e;" horiz-adv-x="761" 
d="M494 1036c76 0 111 -38 99 -112c-12 -75 -58 -112 -135 -112c-76 0 -110 37 -99 112c12 74 58 112 135 112zM486 986c-41 0 -66 -22 -72 -62c-6 -41 10 -62 52 -62s66 21 72 62c6 40 -11 62 -52 62zM625 774h127c11 0 15 -4 13 -15l-59 -373
c-49 -313 -125 -391 -378 -391s-304 78 -255 391l60 373c1 11 6 15 17 15h127c11 0 14 -4 13 -15l-59 -373c-33 -203 -9 -254 119 -254c127 0 167 51 199 254l59 373c2 11 6 15 17 15z" />
    <glyph glyph-name="Utilde" unicode="&#x168;" horiz-adv-x="761" 
d="M538 832c-52 0 -105 39 -137 39c-22 0 -34 -7 -50 -33c-6 -11 -11 -13 -20 -10l-41 12c-8 3 -12 9 -7 21c37 90 65 115 123 115c52 0 104 -39 137 -39c22 0 34 7 49 33c7 11 12 13 21 10l41 -12c9 -3 11 -9 7 -20c-38 -91 -65 -116 -123 -116zM625 774h127
c11 0 15 -4 13 -15l-59 -373c-49 -313 -125 -391 -378 -391s-304 78 -255 391l60 373c1 11 6 15 17 15h127c11 0 14 -4 13 -15l-59 -373c-33 -203 -9 -254 119 -254c127 0 167 51 199 254l59 373c2 11 6 15 17 15z" />
    <glyph glyph-name="V" unicode="V" horiz-adv-x="695" 
d="M608 774h128c10 0 14 -4 11 -16l-268 -644c-45 -107 -65 -119 -186 -119c-116 0 -133 11 -144 119l-68 644c-1 12 4 16 15 16h128c9 0 9 -4 11 -16l60 -605c3 -23 5 -30 18 -30c16 0 19 7 30 30l250 605c4 12 6 16 15 16z" />
    <glyph glyph-name="W" unicode="W" horiz-adv-x="1097" 
d="M999 774h132c11 0 15 -4 12 -16l-226 -644c-38 -106 -60 -119 -169 -119c-125 0 -136 13 -144 119l-30 378l-149 -378c-43 -106 -59 -119 -183 -119c-109 0 -127 13 -130 119l-23 644c0 12 5 16 16 16h132c9 0 11 -4 12 -16l17 -573c1 -25 5 -30 18 -30c16 0 20 5 30 30
l218 546c5 12 14 16 23 16h118c9 0 17 -4 18 -16l45 -546c2 -25 5 -30 21 -30c13 0 18 5 27 30l199 573c4 12 7 16 16 16z" />
    <glyph glyph-name="Wacute" unicode="&#x1e82;" horiz-adv-x="1097" 
d="M677 992h145c6 0 8 -3 8 -10v-5c0 -5 -1 -8 -7 -14l-199 -146c-5 -4 -9 -3 -14 0l-39 25c-4 4 -4 9 -1 14l94 130c3 4 7 6 13 6zM999 774h132c11 0 15 -4 12 -16l-226 -644c-38 -106 -60 -119 -169 -119c-125 0 -136 13 -144 119l-30 378l-149 -378
c-43 -106 -59 -119 -183 -119c-109 0 -127 13 -130 119l-23 644c0 12 5 16 16 16h132c9 0 11 -4 12 -16l17 -573c1 -25 5 -30 18 -30c16 0 20 5 30 30l218 546c5 12 14 16 23 16h118c9 0 17 -4 18 -16l45 -546c2 -25 5 -30 21 -30c13 0 18 5 27 30l199 573c4 12 7 16 16 16z
" />
    <glyph glyph-name="Wcircumflex" unicode="&#x174;" horiz-adv-x="1097" 
d="M611 992h85c12 0 15 -3 18 -8l75 -133c4 -7 2 -13 -6 -17l-34 -16c-7 -4 -12 -5 -18 0l-94 75l-118 -75c-7 -5 -12 -4 -17 0l-29 16c-6 4 -7 10 -1 17l117 133c5 5 9 8 22 8zM999 774h132c11 0 15 -4 12 -16l-226 -644c-38 -106 -60 -119 -169 -119
c-125 0 -136 13 -144 119l-30 378l-149 -378c-43 -106 -59 -119 -183 -119c-109 0 -127 13 -130 119l-23 644c0 12 5 16 16 16h132c9 0 11 -4 12 -16l17 -573c1 -25 5 -30 18 -30c16 0 20 5 30 30l218 546c5 12 14 16 23 16h118c9 0 17 -4 18 -16l45 -546
c2 -25 5 -30 21 -30c13 0 18 5 27 30l199 573c4 12 7 16 16 16z" />
    <glyph glyph-name="Wdieresis" unicode="&#x1e84;" horiz-adv-x="1097" 
d="M540 976c52 0 73 -28 65 -73c-7 -46 -38 -74 -88 -74s-74 26 -66 74s40 73 89 73zM761 976c52 0 73 -28 66 -73c-7 -46 -39 -74 -89 -74s-73 26 -66 74c8 48 40 73 89 73zM999 774h132c11 0 15 -4 12 -16l-226 -644c-38 -106 -60 -119 -169 -119c-125 0 -136 13 -144 119
l-30 378l-149 -378c-43 -106 -59 -119 -183 -119c-109 0 -127 13 -130 119l-23 644c0 12 5 16 16 16h132c9 0 11 -4 12 -16l17 -573c1 -25 5 -30 18 -30c16 0 20 5 30 30l218 546c5 12 14 16 23 16h118c9 0 17 -4 18 -16l45 -546c2 -25 5 -30 21 -30c13 0 18 5 27 30
l199 573c4 12 7 16 16 16z" />
    <glyph glyph-name="Wgrave" unicode="&#x1e80;" horiz-adv-x="1097" 
d="M491 992h146c6 0 9 -1 11 -6l52 -130c3 -5 1 -10 -5 -14l-47 -25c-6 -3 -10 -4 -14 0l-150 144c-4 3 -4 7 -4 13v8c0 7 5 10 11 10zM999 774h132c11 0 15 -4 12 -16l-226 -644c-38 -106 -60 -119 -169 -119c-125 0 -136 13 -144 119l-30 378l-149 -378
c-43 -106 -59 -119 -183 -119c-109 0 -127 13 -130 119l-23 644c0 12 5 16 16 16h132c9 0 11 -4 12 -16l17 -573c1 -25 5 -30 18 -30c16 0 20 5 30 30l218 546c5 12 14 16 23 16h118c9 0 17 -4 18 -16l45 -546c2 -25 5 -30 21 -30c13 0 18 5 27 30l199 573c4 12 7 16 16 16z
" />
    <glyph glyph-name="X" unicode="X" horiz-adv-x="698" 
d="M593 774h141c15 0 19 -8 8 -22l-290 -349l195 -381c9 -16 0 -22 -14 -22h-142c-15 0 -19 5 -24 16l-126 264l-210 -264c-9 -11 -15 -16 -30 -16h-141c-14 0 -21 6 -8 22l317 381l-179 349c-7 14 -1 22 14 22h141c16 0 20 -6 25 -16l110 -233l184 233c7 10 13 16 29 16z
" />
    <glyph glyph-name="Y" unicode="Y" horiz-adv-x="711" 
d="M628 774h141c14 0 19 -6 8 -22l-356 -504l-37 -232c-1 -11 -7 -16 -17 -16h-127c-10 0 -14 5 -13 16l38 234l-196 502c-7 16 0 22 14 22h141c15 0 19 -5 25 -16l119 -351l231 351c6 11 14 16 29 16z" />
    <glyph glyph-name="Yacute" unicode="&#xdd;" horiz-adv-x="711" 
d="M492 992h146c6 0 7 -3 7 -10v-5c0 -5 0 -8 -7 -14l-199 -146c-5 -4 -9 -3 -14 0l-39 25c-4 4 -4 9 0 14l93 130c3 4 7 6 13 6zM628 774h141c14 0 19 -6 8 -22l-356 -504l-37 -232c-1 -11 -7 -16 -17 -16h-127c-10 0 -14 5 -13 16l38 234l-196 502c-7 16 0 22 14 22h141
c15 0 19 -5 25 -16l119 -351l231 351c6 11 14 16 29 16z" />
    <glyph glyph-name="Ycircumflex" unicode="&#x176;" horiz-adv-x="711" 
d="M419 992h85c13 0 16 -3 18 -8l75 -133c4 -7 2 -13 -6 -17l-34 -16c-7 -4 -12 -5 -17 0l-94 75l-119 -75c-7 -5 -12 -4 -17 0l-29 16c-6 4 -7 10 -1 17l117 133c5 5 9 8 22 8zM628 774h141c14 0 19 -6 8 -22l-356 -504l-37 -232c-1 -11 -7 -16 -17 -16h-127
c-10 0 -14 5 -13 16l38 234l-196 502c-7 16 0 22 14 22h141c15 0 19 -5 25 -16l119 -351l231 351c6 11 14 16 29 16z" />
    <glyph glyph-name="Ydieresis" unicode="&#x178;" horiz-adv-x="711" 
d="M348 976c52 0 73 -28 66 -73c-7 -46 -38 -74 -89 -74c-50 0 -74 26 -66 74s40 73 89 73zM569 976c52 0 73 -28 66 -73c-7 -46 -38 -74 -89 -74c-50 0 -73 26 -66 74c8 48 40 73 89 73zM628 774h141c14 0 19 -6 8 -22l-356 -504l-37 -232c-1 -11 -7 -16 -17 -16h-127
c-10 0 -14 5 -13 16l38 234l-196 502c-7 16 0 22 14 22h141c15 0 19 -5 25 -16l119 -351l231 351c6 11 14 16 29 16z" />
    <glyph glyph-name="Ygrave" unicode="&#x1ef2;" horiz-adv-x="711" 
d="M300 992h145c6 0 9 -1 11 -6l52 -130c3 -5 1 -10 -5 -14l-47 -25c-6 -3 -10 -4 -14 0l-150 144c-3 3 -4 7 -4 13v8c0 7 6 10 12 10zM628 774h141c14 0 19 -6 8 -22l-356 -504l-37 -232c-1 -11 -7 -16 -17 -16h-127c-10 0 -14 5 -13 16l38 234l-196 502c-7 16 0 22 14 22
h141c15 0 19 -5 25 -16l119 -351l231 351c6 11 14 16 29 16z" />
    <glyph glyph-name="Ytilde" unicode="&#x1ef8;" horiz-adv-x="711" 
d="M513 832c-52 0 -104 39 -137 39c-22 0 -34 -7 -49 -33c-7 -11 -12 -13 -21 -10l-41 12c-8 3 -12 9 -7 21c37 90 65 115 123 115c52 0 104 -39 137 -39c22 0 34 7 49 33c7 11 12 13 21 10l41 -12c9 -3 12 -9 7 -20c-37 -91 -65 -116 -123 -116zM628 774h141
c14 0 19 -6 8 -22l-356 -504l-37 -232c-1 -11 -7 -16 -17 -16h-127c-10 0 -14 5 -13 16l38 234l-196 502c-7 16 0 22 14 22h141c15 0 19 -5 25 -16l119 -351l231 351c6 11 14 16 29 16z" />
    <glyph glyph-name="Z" unicode="Z" horiz-adv-x="684" 
d="M126 774h575c10 0 14 -4 13 -15l-16 -97c-1 -8 -3 -13 -10 -20l-481 -505h401c10 0 15 -5 13 -15l-16 -106c-2 -11 -9 -16 -19 -16h-594c-10 0 -14 5 -12 16l14 95c1 8 3 12 10 20l481 506h-380c-11 0 -15 5 -13 15l16 107c1 11 7 15 18 15z" />
    <glyph glyph-name="Zacute" unicode="&#x179;" horiz-adv-x="684" 
d="M455 992h145c6 0 7 -3 7 -10v-5c0 -5 0 -8 -6 -14l-199 -146c-6 -4 -9 -3 -14 0l-39 25c-4 4 -4 9 -1 14l94 130c2 4 7 6 13 6zM126 774h575c10 0 14 -4 13 -15l-16 -97c-1 -8 -3 -13 -10 -20l-481 -505h401c10 0 15 -5 13 -15l-16 -106c-2 -11 -9 -16 -19 -16h-594
c-10 0 -14 5 -12 16l14 95c1 8 3 12 10 20l481 506h-380c-11 0 -15 5 -13 15l16 107c1 11 7 15 18 15z" />
    <glyph glyph-name="Zcaron" unicode="&#x17d;" horiz-adv-x="684" 
d="M570 989l29 -16c6 -4 6 -10 1 -17l-117 -133c-5 -5 -9 -8 -22 -8h-85c-13 0 -16 3 -18 8l-75 133c-4 7 -2 13 6 17l34 16c7 4 12 5 17 0l95 -75l118 75c6 5 12 4 17 0zM126 774h575c10 0 14 -4 13 -15l-16 -97c-1 -8 -3 -13 -10 -20l-481 -505h401c10 0 15 -5 13 -15
l-16 -106c-2 -11 -9 -16 -19 -16h-594c-10 0 -14 5 -12 16l14 95c1 8 3 12 10 20l481 506h-380c-11 0 -15 5 -13 15l16 107c1 11 7 15 18 15z" />
    <glyph glyph-name="Zdotaccent" unicode="&#x17b;" horiz-adv-x="684" 
d="M444 978c55 0 79 -26 71 -75c-8 -51 -43 -76 -95 -76s-78 25 -70 76s42 75 94 75zM126 774h575c10 0 14 -4 13 -15l-16 -97c-1 -8 -3 -13 -10 -20l-481 -505h401c10 0 15 -5 13 -15l-16 -106c-2 -11 -9 -16 -19 -16h-594c-10 0 -14 5 -12 16l14 95c1 8 3 12 10 20
l481 506h-380c-11 0 -15 5 -13 15l16 107c1 11 7 15 18 15z" />
    <glyph glyph-name="Q.alt" horiz-adv-x="740" 
d="M702 386c-34 -214 -86 -321 -203 -365l98 -49c8 -4 9 -12 3 -21l-69 -92c-6 -10 -13 -11 -21 -6l-215 142c-237 5 -288 98 -241 391c48 304 131 394 386 394s310 -90 262 -394zM543 386c31 196 14 257 -124 257s-175 -61 -206 -257c-31 -194 -13 -254 125 -254
s174 60 205 254z" />
    <glyph glyph-name="a" unicode="a" horiz-adv-x="564" 
d="M303 565c198 0 233 -64 216 -172l-55 -346c-3 -16 -9 -25 -27 -31c-73 -16 -162 -21 -231 -21c-150 0 -227 16 -203 173c23 135 97 164 230 164h127l6 36c8 48 -18 69 -83 69h-180c-11 0 -14 5 -12 17l13 80c2 12 6 14 16 16c63 12 122 15 183 15zM346 236h-116
c-51 0 -72 -17 -79 -60c-8 -48 12 -61 75 -61c21 0 71 2 102 10z" />
    <glyph glyph-name="aacute" unicode="&#xe1;" horiz-adv-x="564" 
d="M356 792h145c6 0 7 -3 7 -10v-5c0 -5 0 -8 -6 -14l-199 -146c-6 -4 -9 -3 -14 0l-39 25c-4 4 -4 9 -1 14l94 130c2 4 7 6 13 6zM303 565c198 0 233 -64 216 -172l-55 -346c-3 -16 -9 -25 -27 -31c-73 -16 -162 -21 -231 -21c-150 0 -227 16 -203 173
c23 135 97 164 230 164h127l6 36c8 48 -18 69 -83 69h-180c-11 0 -14 5 -12 17l13 80c2 12 6 14 16 16c63 12 122 15 183 15zM346 236h-116c-51 0 -72 -17 -79 -60c-8 -48 12 -61 75 -61c21 0 71 2 102 10z" />
    <glyph glyph-name="abreve" unicode="&#x103;" horiz-adv-x="564" 
d="M454 780h58c11 0 15 -4 11 -15c-30 -102 -78 -137 -194 -137c-119 0 -153 35 -153 136c0 12 6 16 17 16h58c9 0 13 -3 15 -12c10 -38 30 -50 77 -50c46 0 69 12 92 50c4 9 10 12 19 12zM303 565c198 0 233 -64 216 -172l-55 -346c-3 -16 -9 -25 -27 -31
c-73 -16 -162 -21 -231 -21c-150 0 -227 16 -203 173c23 135 97 164 230 164h127l6 36c8 48 -18 69 -83 69h-180c-11 0 -14 5 -12 17l13 80c2 12 6 14 16 16c63 12 122 15 183 15zM346 236h-116c-51 0 -72 -17 -79 -60c-8 -48 12 -61 75 -61c21 0 71 2 102 10z" />
    <glyph glyph-name="acaron" unicode="&#x1ce;" horiz-adv-x="564" 
d="M471 789l29 -16c6 -4 6 -10 1 -17l-117 -133c-5 -5 -9 -8 -22 -8h-85c-13 0 -16 3 -18 8l-75 133c-4 7 -2 13 6 17l34 16c7 4 12 5 17 0l95 -75l118 75c6 5 12 4 17 0zM303 565c198 0 233 -64 216 -172l-55 -346c-3 -16 -9 -25 -27 -31c-73 -16 -162 -21 -231 -21
c-150 0 -227 16 -203 173c23 135 97 164 230 164h127l6 36c8 48 -18 69 -83 69h-180c-11 0 -14 5 -12 17l13 80c2 12 6 14 16 16c63 12 122 15 183 15zM346 236h-116c-51 0 -72 -17 -79 -60c-8 -48 12 -61 75 -61c21 0 71 2 102 10z" />
    <glyph glyph-name="acircumflex" unicode="&#xe2;" horiz-adv-x="564" 
d="M307 792h84c13 0 16 -3 19 -8l75 -133c4 -7 2 -13 -7 -17l-33 -16c-7 -4 -12 -5 -18 0l-94 75l-118 -75c-7 -5 -12 -4 -17 0l-29 16c-6 4 -7 10 -1 17l117 133c5 5 9 8 22 8zM303 565c198 0 233 -64 216 -172l-55 -346c-3 -16 -9 -25 -27 -31c-73 -16 -162 -21 -231 -21
c-150 0 -227 16 -203 173c23 135 97 164 230 164h127l6 36c8 48 -18 69 -83 69h-180c-11 0 -14 5 -12 17l13 80c2 12 6 14 16 16c63 12 122 15 183 15zM346 236h-116c-51 0 -72 -17 -79 -60c-8 -48 12 -61 75 -61c21 0 71 2 102 10z" />
    <glyph glyph-name="adieresis" unicode="&#xe4;" horiz-adv-x="564" 
d="M242 776c52 0 73 -28 66 -73c-8 -46 -39 -74 -89 -74s-74 26 -66 74s40 73 89 73zM463 776c52 0 73 -28 66 -73c-7 -46 -39 -74 -89 -74s-73 26 -66 74c8 48 40 73 89 73zM303 565c198 0 233 -64 216 -172l-55 -346c-3 -16 -9 -25 -27 -31c-73 -16 -162 -21 -231 -21
c-150 0 -227 16 -203 173c23 135 97 164 230 164h127l6 36c8 48 -18 69 -83 69h-180c-11 0 -14 5 -12 17l13 80c2 12 6 14 16 16c63 12 122 15 183 15zM346 236h-116c-51 0 -72 -17 -79 -60c-8 -48 12 -61 75 -61c21 0 71 2 102 10z" />
    <glyph glyph-name="agrave" unicode="&#xe0;" horiz-adv-x="564" 
d="M181 792h146c6 0 9 -1 11 -6l52 -130c2 -5 0 -10 -6 -14l-46 -25c-7 -3 -10 -4 -14 0l-150 144c-4 3 -4 7 -4 13v8c0 7 5 10 11 10zM303 565c198 0 233 -64 216 -172l-55 -346c-3 -16 -9 -25 -27 -31c-73 -16 -162 -21 -231 -21c-150 0 -227 16 -203 173
c23 135 97 164 230 164h127l6 36c8 48 -18 69 -83 69h-180c-11 0 -14 5 -12 17l13 80c2 12 6 14 16 16c63 12 122 15 183 15zM346 236h-116c-51 0 -72 -17 -79 -60c-8 -48 12 -61 75 -61c21 0 71 2 102 10z" />
    <glyph glyph-name="amacron" unicode="&#x101;" horiz-adv-x="564" 
d="M203 739h289c10 0 14 -5 13 -15l-10 -61c-2 -10 -7 -15 -17 -15h-290c-10 0 -14 5 -13 15l10 61c2 10 8 15 18 15zM303 565c198 0 233 -64 216 -172l-55 -346c-3 -16 -9 -25 -27 -31c-73 -16 -162 -21 -231 -21c-150 0 -227 16 -203 173c23 135 97 164 230 164h127l6 36
c8 48 -18 69 -83 69h-180c-11 0 -14 5 -12 17l13 80c2 12 6 14 16 16c63 12 122 15 183 15zM346 236h-116c-51 0 -72 -17 -79 -60c-8 -48 12 -61 75 -61c21 0 71 2 102 10z" />
    <glyph glyph-name="aogonek" unicode="&#x105;" horiz-adv-x="564" 
d="M303 565c198 0 233 -64 216 -172l-55 -346c-3 -16 -9 -25 -27 -31c-24 -5 -52 -10 -82 -13c-9 -27 -12 -40 -14 -53c-5 -26 16 -26 50 -26h36c10 0 14 -4 12 -14l-10 -61c-2 -10 -6 -15 -15 -18c-12 -5 -60 -8 -81 -8c-71 0 -102 23 -93 78c5 29 18 64 32 96
c-21 -1 -43 -2 -66 -2c-150 0 -227 16 -203 173c23 135 97 164 230 164h127l6 36c8 48 -18 69 -83 69h-180c-11 0 -14 5 -12 17l13 80c2 12 6 14 16 16c63 12 122 15 183 15zM346 236h-116c-51 0 -72 -17 -79 -60c-8 -48 12 -61 75 -61c21 0 71 2 102 10z" />
    <glyph glyph-name="aring" unicode="&#xe5;" horiz-adv-x="564" 
d="M348 837c77 0 111 -38 100 -112c-12 -75 -59 -112 -135 -112c-77 0 -111 37 -99 112c11 74 58 112 134 112zM341 787c-42 0 -66 -22 -72 -62c-6 -41 10 -62 52 -62c41 0 66 21 72 62c6 40 -11 62 -52 62zM303 565c198 0 233 -64 216 -172l-55 -346c-3 -16 -9 -25 -27 -31
c-73 -16 -162 -21 -231 -21c-150 0 -227 16 -203 173c23 135 97 164 230 164h127l6 36c8 48 -18 69 -83 69h-180c-11 0 -14 5 -12 17l13 80c2 12 6 14 16 16c63 12 122 15 183 15zM346 236h-116c-51 0 -72 -17 -79 -60c-8 -48 12 -61 75 -61c21 0 71 2 102 10z" />
    <glyph glyph-name="aringacute" unicode="&#x1fb;" horiz-adv-x="564" 
d="M390 933h145c6 0 7 -3 7 -10v-5c0 -5 0 -8 -7 -14l-115 -84c28 -17 39 -49 32 -95c-12 -75 -58 -112 -135 -112c-76 0 -111 37 -99 112c9 58 40 94 89 106l70 96c2 4 7 6 13 6zM345 787c-42 0 -66 -22 -72 -62c-6 -41 10 -62 52 -62c41 0 66 21 72 62c6 40 -11 62 -52 62
zM303 565c198 0 233 -64 216 -172l-55 -346c-3 -16 -9 -25 -27 -31c-73 -16 -162 -21 -231 -21c-150 0 -227 16 -203 173c23 135 97 164 230 164h127l6 36c8 48 -18 69 -83 69h-180c-11 0 -14 5 -12 17l13 80c2 12 6 14 16 16c63 12 122 15 183 15zM346 236h-116
c-51 0 -72 -17 -79 -60c-8 -48 12 -61 75 -61c21 0 71 2 102 10z" />
    <glyph glyph-name="atilde" unicode="&#xe3;" horiz-adv-x="564" 
d="M408 632c-52 0 -105 39 -137 39c-22 0 -34 -7 -50 -33c-6 -11 -11 -13 -20 -10l-41 12c-8 3 -12 9 -7 21c37 90 65 115 123 115c52 0 104 -39 137 -39c22 0 34 7 49 33c7 11 12 13 21 10l41 -12c9 -3 11 -9 7 -20c-38 -91 -65 -116 -123 -116zM303 565
c198 0 233 -64 216 -172l-55 -346c-3 -16 -9 -25 -27 -31c-73 -16 -162 -21 -231 -21c-150 0 -227 16 -203 173c23 135 97 164 230 164h127l6 36c8 48 -18 69 -83 69h-180c-11 0 -14 5 -12 17l13 80c2 12 6 14 16 16c63 12 122 15 183 15zM346 236h-116
c-51 0 -72 -17 -79 -60c-8 -48 12 -61 75 -61c21 0 71 2 102 10z" />
    <glyph glyph-name="ae" unicode="&#xe6;" horiz-adv-x="890" 
d="M649 565c198 0 236 -55 202 -278l-5 -31c-3 -20 -10 -27 -36 -27h-314c-12 -90 9 -106 96 -106h178c10 0 14 -5 13 -15l-14 -83c-1 -11 -7 -15 -17 -16c-55 -11 -127 -14 -193 -14c-59 0 -133 16 -164 38c-55 -27 -104 -38 -189 -38c-150 0 -227 16 -205 157l3 22
c22 129 96 158 229 158h127l6 36c8 48 -18 69 -83 69h-180c-11 0 -14 3 -12 15l13 82c2 12 6 14 16 16c63 12 122 15 183 15c79 0 135 -14 169 -45c44 32 102 45 177 45zM629 437c-75 0 -104 -23 -119 -111h198c13 88 -5 111 -79 111zM350 236h-118c-64 0 -74 -15 -81 -55
l-1 -10c-7 -48 15 -57 72 -57c38 0 97 6 128 20c-7 26 -6 67 0 102z" />
    <glyph glyph-name="aeacute" unicode="&#x1fd;" horiz-adv-x="890" 
d="M542 792h146c6 0 9 -3 8 -10l-1 -7c-1 -5 -5 -9 -7 -12l-199 -146c-5 -4 -9 -3 -14 0l-39 25c-4 4 -4 9 0 14l93 130c3 4 7 6 13 6zM649 565c198 0 236 -55 202 -278l-5 -31c-3 -20 -10 -27 -36 -27h-314c-12 -90 9 -106 96 -106h178c10 0 14 -5 13 -15l-14 -83
c-1 -11 -7 -15 -17 -16c-55 -11 -127 -14 -193 -14c-59 0 -133 16 -164 38c-55 -27 -104 -38 -189 -38c-150 0 -227 16 -205 157l3 22c22 129 96 158 229 158h127l6 36c8 48 -18 69 -83 69h-180c-11 0 -14 3 -12 15l13 82c2 12 6 14 16 16c63 12 122 15 183 15
c79 0 135 -14 169 -45c44 32 102 45 177 45zM629 437c-75 0 -104 -23 -119 -111h198c13 88 -5 111 -79 111zM350 236h-118c-64 0 -74 -15 -81 -55l-1 -10c-7 -48 15 -57 72 -57c38 0 97 6 128 20c-7 26 -6 67 0 102z" />
    <glyph glyph-name="b" unicode="b" horiz-adv-x="600" 
d="M143 774h119c11 0 14 -5 13 -16l-32 -199c37 4 78 6 124 6c182 0 219 -64 184 -286c-36 -225 -94 -284 -305 -284c-69 0 -137 6 -216 19c-14 2 -20 10 -18 25l114 719c2 11 6 16 17 16zM313 436h-90l-48 -306c29 -5 70 -7 94 -7c101 0 115 40 133 157
c21 129 12 156 -89 156z" />
    <glyph glyph-name="c" unicode="c" horiz-adv-x="510" 
d="M336 565c37 0 108 -2 161 -13c10 -2 15 -7 13 -20l-13 -79c-2 -11 -8 -16 -19 -16h-163c-91 0 -111 -31 -131 -157c-20 -125 -10 -157 81 -157h163c11 0 16 -5 15 -15l-13 -80c-2 -12 -8 -17 -19 -19c-56 -12 -129 -14 -166 -14c-213 0 -245 57 -209 285
c36 229 87 285 300 285z" />
    <glyph glyph-name="cacute" unicode="&#x107;" horiz-adv-x="510" 
d="M372 792h145c6 0 7 -3 7 -10v-5c0 -5 0 -8 -7 -14l-198 -146c-6 -4 -9 -3 -14 0l-40 25c-4 4 -4 9 0 14l94 130c2 4 7 6 13 6zM336 565c37 0 108 -2 161 -13c10 -2 15 -7 13 -20l-13 -79c-2 -11 -8 -16 -19 -16h-163c-91 0 -111 -31 -131 -157c-20 -125 -10 -157 81 -157
h163c11 0 16 -5 15 -15l-13 -80c-2 -12 -8 -17 -19 -19c-56 -12 -129 -14 -166 -14c-213 0 -245 57 -209 285c36 229 87 285 300 285z" />
    <glyph glyph-name="ccaron" unicode="&#x10d;" horiz-adv-x="510" 
d="M476 789l29 -16c6 -4 7 -10 1 -17l-117 -133c-5 -5 -9 -8 -22 -8h-85c-12 0 -15 3 -18 8l-75 133c-4 7 -2 13 6 17l34 16c7 4 12 5 18 0l94 -75l118 75c7 5 12 4 17 0zM336 565c37 0 108 -2 161 -13c10 -2 15 -7 13 -20l-13 -79c-2 -11 -8 -16 -19 -16h-163
c-91 0 -111 -31 -131 -157c-20 -125 -10 -157 81 -157h163c11 0 16 -5 15 -15l-13 -80c-2 -12 -8 -17 -19 -19c-56 -12 -129 -14 -166 -14c-213 0 -245 57 -209 285c36 229 87 285 300 285z" />
    <glyph glyph-name="ccedilla" unicode="&#xe7;" horiz-adv-x="510" 
d="M336 565c37 0 108 -2 161 -13c10 -2 15 -7 13 -20l-13 -79c-2 -11 -8 -16 -19 -16h-163c-91 0 -111 -31 -131 -157c-20 -125 -10 -157 81 -157h163c11 0 16 -5 15 -15l-13 -80c-2 -12 -8 -17 -19 -19c-41 -9 -91 -12 -130 -13c4 -32 6 -66 1 -95c-9 -55 -46 -78 -118 -78
c-21 0 -66 3 -78 8c-7 3 -10 9 -9 18l10 61c1 10 6 14 16 14h35c35 0 55 0 60 26c1 12 2 26 2 46c-173 9 -197 73 -164 284c36 229 87 285 300 285z" />
    <glyph glyph-name="ccircumflex" unicode="&#x109;" horiz-adv-x="510" 
d="M310 792h85c13 0 16 -3 19 -8l74 -133c5 -7 2 -13 -6 -17l-34 -16c-6 -4 -11 -5 -17 0l-94 75l-118 -75c-7 -5 -12 -4 -18 0l-28 16c-7 4 -7 10 -1 17l117 133c4 5 9 8 21 8zM336 565c37 0 108 -2 161 -13c10 -2 15 -7 13 -20l-13 -79c-2 -11 -8 -16 -19 -16h-163
c-91 0 -111 -31 -131 -157c-20 -125 -10 -157 81 -157h163c11 0 16 -5 15 -15l-13 -80c-2 -12 -8 -17 -19 -19c-56 -12 -129 -14 -166 -14c-213 0 -245 57 -209 285c36 229 87 285 300 285z" />
    <glyph glyph-name="cdotaccent" unicode="&#x10b;" horiz-adv-x="510" 
d="M339 778c54 0 78 -26 70 -75c-8 -51 -43 -76 -95 -76s-78 25 -70 76s43 75 95 75zM336 565c37 0 108 -2 161 -13c10 -2 15 -7 13 -20l-13 -79c-2 -11 -8 -16 -19 -16h-163c-91 0 -111 -31 -131 -157c-20 -125 -10 -157 81 -157h163c11 0 16 -5 15 -15l-13 -80
c-2 -12 -8 -17 -19 -19c-56 -12 -129 -14 -166 -14c-213 0 -245 57 -209 285c36 229 87 285 300 285z" />
    <glyph glyph-name="d" unicode="d" horiz-adv-x="602" 
d="M479 774h119c11 0 14 -5 13 -16l-115 -719c-2 -15 -11 -23 -24 -25c-84 -13 -155 -19 -224 -19c-211 0 -250 59 -214 284c35 222 93 286 274 286c46 0 86 -2 123 -6l31 199c2 11 6 16 17 16zM411 436h-90c-101 0 -118 -27 -139 -156c-19 -118 -17 -157 84 -157
c24 0 66 2 96 7z" />
    <glyph glyph-name="eth" unicode="&#xf0;" horiz-adv-x="587" 
d="M244 773l126 1c8 0 14 -3 17 -10l17 -41l83 28c11 4 17 1 18 -9l6 -26c1 -9 -3 -16 -12 -19l-72 -24l107 -250c19 -38 13 -92 1 -170c-33 -205 -90 -258 -297 -258c-206 0 -245 53 -214 258c32 198 85 249 270 249c17 0 35 -1 51 -3l-56 126l-90 -30c-10 -4 -16 -1 -17 9
l-6 26c-2 9 2 16 12 19l78 27l-35 79c-4 10 1 18 13 18zM300 383c-90 0 -110 -29 -127 -130c-15 -101 -4 -130 86 -130s111 29 127 130c15 101 4 130 -86 130z" />
    <glyph glyph-name="dcaron" unicode="&#x10f;" horiz-adv-x="632" 
d="M709 777h132c6 0 10 -3 9 -10l-2 -7c0 -5 -4 -9 -6 -12l-153 -146c-4 -5 -9 -4 -14 0l-28 24c-5 3 -5 8 -3 15l49 127c3 7 8 9 16 9zM479 774h119c11 0 14 -5 13 -16l-115 -719c-2 -15 -11 -23 -24 -25c-84 -13 -155 -19 -224 -19c-211 0 -250 59 -214 284
c35 222 93 286 274 286c46 0 86 -2 123 -6l31 199c2 11 6 16 17 16zM411 436h-90c-101 0 -118 -27 -139 -156c-19 -118 -17 -157 84 -157c24 0 66 2 96 7z" />
    <glyph glyph-name="dcroat" unicode="&#x111;" horiz-adv-x="601" 
d="M603 706h59c10 0 14 -5 13 -15l-6 -35c-1 -10 -7 -15 -17 -15h-60l-96 -602c-2 -15 -11 -23 -24 -25c-84 -13 -155 -19 -224 -19c-211 0 -250 59 -214 284c35 222 93 286 274 286c46 0 86 -2 123 -6l13 82h-120c-10 0 -14 5 -12 15l5 35c2 10 7 15 17 15h120l8 52
c2 11 6 16 17 16h119c11 0 14 -5 13 -16zM362 130l49 306h-90c-101 0 -118 -27 -139 -156c-19 -118 -17 -157 84 -157c24 0 66 2 96 7z" />
    <glyph glyph-name="e" unicode="e" horiz-adv-x="572" 
d="M331 565c197 0 236 -55 201 -278l-5 -31c-3 -20 -10 -27 -36 -27h-314c-12 -90 9 -106 97 -106h177c10 0 14 -5 13 -15l-13 -83c-2 -11 -8 -15 -17 -16c-55 -11 -128 -14 -194 -14c-202 0 -242 57 -206 285c36 229 95 285 297 285zM310 437c-75 0 -104 -23 -119 -111h198
c14 88 -5 111 -79 111z" />
    <glyph glyph-name="eacute" unicode="&#xe9;" horiz-adv-x="572" 
d="M395 792h146c6 0 7 -3 7 -10v-5c0 -5 0 -8 -7 -14l-199 -146c-5 -4 -9 -3 -14 0l-39 25c-4 4 -4 9 0 14l93 130c3 4 7 6 13 6zM331 565c197 0 236 -55 201 -278l-5 -31c-3 -20 -10 -27 -36 -27h-314c-12 -90 9 -106 97 -106h177c10 0 14 -5 13 -15l-13 -83
c-2 -11 -8 -15 -17 -16c-55 -11 -128 -14 -194 -14c-202 0 -242 57 -206 285c36 229 95 285 297 285zM310 437c-75 0 -104 -23 -119 -111h198c14 88 -5 111 -79 111z" />
    <glyph glyph-name="ebreve" unicode="&#x115;" horiz-adv-x="572" 
d="M467 780h59c11 0 15 -4 11 -15c-30 -102 -79 -137 -195 -137c-118 0 -152 35 -152 136c0 12 5 16 17 16h58c9 0 13 -3 15 -12c10 -38 30 -50 76 -50c47 0 70 12 92 50c5 9 10 12 19 12zM331 565c197 0 236 -55 201 -278l-5 -31c-3 -20 -10 -27 -36 -27h-314
c-12 -90 9 -106 97 -106h177c10 0 14 -5 13 -15l-13 -83c-2 -11 -8 -15 -17 -16c-55 -11 -128 -14 -194 -14c-202 0 -242 57 -206 285c36 229 95 285 297 285zM310 437c-75 0 -104 -23 -119 -111h198c14 88 -5 111 -79 111z" />
    <glyph glyph-name="ecaron" unicode="&#x11b;" horiz-adv-x="572" 
d="M489 789l29 -16c6 -4 6 -10 1 -17l-118 -133c-4 -5 -8 -8 -21 -8h-85c-13 0 -16 3 -18 8l-75 133c-5 7 -2 13 6 17l34 16c6 4 12 5 17 0l95 -75l118 75c6 5 11 4 17 0zM331 565c197 0 236 -55 201 -278l-5 -31c-3 -20 -10 -27 -36 -27h-314c-12 -90 9 -106 97 -106h177
c10 0 14 -5 13 -15l-13 -83c-2 -11 -8 -15 -17 -16c-55 -11 -128 -14 -194 -14c-202 0 -242 57 -206 285c36 229 95 285 297 285zM310 437c-75 0 -104 -23 -119 -111h198c14 88 -5 111 -79 111z" />
    <glyph glyph-name="ecircumflex" unicode="&#xea;" horiz-adv-x="572" 
d="M323 792h85c13 0 16 -3 19 -8l74 -133c5 -7 3 -13 -6 -17l-33 -16c-7 -4 -12 -5 -18 0l-94 75l-118 -75c-7 -5 -12 -4 -18 0l-28 16c-7 4 -7 10 -1 17l117 133c4 5 9 8 21 8zM331 565c197 0 236 -55 201 -278l-5 -31c-3 -20 -10 -27 -36 -27h-314c-12 -90 9 -106 97 -106
h177c10 0 14 -5 13 -15l-13 -83c-2 -11 -8 -15 -17 -16c-55 -11 -128 -14 -194 -14c-202 0 -242 57 -206 285c36 229 95 285 297 285zM310 437c-75 0 -104 -23 -119 -111h198c14 88 -5 111 -79 111z" />
    <glyph glyph-name="edieresis" unicode="&#xeb;" horiz-adv-x="572" 
d="M253 776c51 0 72 -28 65 -73c-7 -46 -38 -74 -89 -74c-49 0 -73 26 -65 74c7 48 40 73 89 73zM474 776c51 0 73 -28 66 -73c-7 -46 -39 -74 -90 -74c-49 0 -73 26 -65 74s40 73 89 73zM331 565c197 0 236 -55 201 -278l-5 -31c-3 -20 -10 -27 -36 -27h-314
c-12 -90 9 -106 97 -106h177c10 0 14 -5 13 -15l-13 -83c-2 -11 -8 -15 -17 -16c-55 -11 -128 -14 -194 -14c-202 0 -242 57 -206 285c36 229 95 285 297 285zM310 437c-75 0 -104 -23 -119 -111h198c14 88 -5 111 -79 111z" />
    <glyph glyph-name="edotaccent" unicode="&#x117;" horiz-adv-x="572" 
d="M363 778c54 0 79 -26 71 -75c-8 -51 -43 -76 -95 -76s-79 25 -70 76c8 51 42 75 94 75zM331 565c197 0 236 -55 201 -278l-5 -31c-3 -20 -10 -27 -36 -27h-314c-12 -90 9 -106 97 -106h177c10 0 14 -5 13 -15l-13 -83c-2 -11 -8 -15 -17 -16c-55 -11 -128 -14 -194 -14
c-202 0 -242 57 -206 285c36 229 95 285 297 285zM310 437c-75 0 -104 -23 -119 -111h198c14 88 -5 111 -79 111z" />
    <glyph glyph-name="egrave" unicode="&#xe8;" horiz-adv-x="572" 
d="M190 792h145c6 0 9 -1 11 -6l52 -130c3 -5 1 -10 -5 -14l-47 -25c-6 -3 -10 -4 -14 0l-150 144c-3 3 -4 7 -4 13v8c0 7 6 10 12 10zM331 565c197 0 236 -55 201 -278l-5 -31c-3 -20 -10 -27 -36 -27h-314c-12 -90 9 -106 97 -106h177c10 0 14 -5 13 -15l-13 -83
c-2 -11 -8 -15 -17 -16c-55 -11 -128 -14 -194 -14c-202 0 -242 57 -206 285c36 229 95 285 297 285zM310 437c-75 0 -104 -23 -119 -111h198c14 88 -5 111 -79 111z" />
    <glyph glyph-name="emacron" unicode="&#x113;" horiz-adv-x="572" 
d="M213 739h289c10 0 14 -5 13 -15l-10 -61c-2 -10 -7 -15 -17 -15h-290c-10 0 -14 5 -13 15l10 61c2 10 8 15 18 15zM331 565c197 0 236 -55 201 -278l-5 -31c-3 -20 -10 -27 -36 -27h-314c-12 -90 9 -106 97 -106h177c10 0 14 -5 13 -15l-13 -83c-2 -11 -8 -15 -17 -16
c-55 -11 -128 -14 -194 -14c-202 0 -242 57 -206 285c36 229 95 285 297 285zM310 437c-75 0 -104 -23 -119 -111h198c14 88 -5 111 -79 111z" />
    <glyph glyph-name="eogonek" unicode="&#x119;" horiz-adv-x="572" 
d="M331 565c197 0 236 -55 201 -278l-5 -31c-3 -20 -10 -27 -36 -27h-314c-12 -90 9 -106 97 -106h177c10 0 14 -5 13 -15l-13 -83c-2 -11 -8 -15 -17 -16c-24 -5 -50 -8 -78 -10c-7 -21 -11 -36 -13 -49c-5 -26 16 -26 50 -26h36c10 0 13 -4 12 -14l-10 -61
c-1 -9 -6 -15 -15 -18c-12 -5 -60 -8 -81 -8c-71 0 -101 23 -92 78c4 29 16 63 31 94h-34c-202 0 -242 57 -206 285c36 229 95 285 297 285zM310 437c-75 0 -104 -23 -119 -111h198c14 88 -5 111 -79 111z" />
    <glyph glyph-name="f" unicode="f" horiz-adv-x="391" 
d="M346 779c31 0 71 -3 107 -10c10 -2 15 -7 13 -19l-13 -83c-2 -11 -9 -16 -20 -16h-79c-39 0 -57 -5 -62 -39l-9 -53h122c11 0 14 -5 10 -17l-29 -84c-3 -10 -9 -14 -19 -14h-101l-68 -428c-2 -11 -8 -16 -18 -16h-118c-10 0 -14 5 -13 16l68 428h-64c-12 0 -17 5 -15 15
l14 85c1 10 7 15 18 15h65l13 79c20 126 108 141 198 141z" />
    <glyph glyph-name="g" unicode="g" horiz-adv-x="602" 
d="M341 565c78 0 158 -8 216 -19c13 -2 20 -11 17 -25l-81 -509c-24 -150 -64 -219 -279 -219c-60 0 -127 4 -183 14c-9 1 -13 5 -11 16l12 76c2 11 6 15 16 15h172c88 0 113 20 123 86l1 6c-44 -8 -82 -11 -124 -11c-182 0 -221 63 -184 293c34 218 94 277 305 277z
M413 437h-99c-98 0 -112 -38 -132 -156c-20 -129 -9 -157 91 -157c26 0 61 1 91 6z" />
    <glyph glyph-name="gbreve" unicode="&#x11f;" horiz-adv-x="602" 
d="M474 780h58c11 0 15 -4 12 -15c-30 -102 -79 -137 -195 -137c-119 0 -152 35 -153 136c0 12 6 16 17 16h58c9 0 13 -3 15 -12c10 -38 30 -50 77 -50c46 0 70 12 92 50c4 9 10 12 19 12zM341 565c78 0 158 -8 216 -19c13 -2 20 -11 17 -25l-81 -509
c-24 -150 -64 -219 -279 -219c-60 0 -127 4 -183 14c-9 1 -13 5 -11 16l12 76c2 11 6 15 16 15h172c88 0 113 20 123 86l1 6c-44 -8 -82 -11 -124 -11c-182 0 -221 63 -184 293c34 218 94 277 305 277zM413 437h-99c-98 0 -112 -38 -132 -156c-20 -129 -9 -157 91 -157
c26 0 61 1 91 6z" />
    <glyph glyph-name="gcircumflex" unicode="&#x11d;" horiz-adv-x="602" 
d="M332 792h85c13 0 16 -3 18 -8l75 -133c5 -7 2 -13 -6 -17l-34 -16c-7 -4 -12 -5 -17 0l-94 75l-119 -75c-6 -5 -11 -4 -17 0l-29 16c-6 4 -6 10 -1 17l118 133c4 5 8 8 21 8zM341 565c78 0 158 -8 216 -19c13 -2 20 -11 17 -25l-81 -509c-24 -150 -64 -219 -279 -219
c-60 0 -127 4 -183 14c-9 1 -13 5 -11 16l12 76c2 11 6 15 16 15h172c88 0 113 20 123 86l1 6c-44 -8 -82 -11 -124 -11c-182 0 -221 63 -184 293c34 218 94 277 305 277zM413 437h-99c-98 0 -112 -38 -132 -156c-20 -129 -9 -157 91 -157c26 0 61 1 91 6z" />
    <glyph glyph-name="gcommaaccent" unicode="&#x123;" horiz-adv-x="602" 
d="M466 779l34 -21c5 -3 6 -9 3 -14l-75 -117c-3 -4 -7 -6 -13 -6h-129c-6 0 -9 3 -9 10v6c0 5 1 9 6 13l169 129c5 4 8 4 14 0zM341 565c78 0 158 -8 216 -19c13 -2 20 -11 17 -25l-81 -509c-24 -150 -64 -219 -279 -219c-60 0 -127 4 -183 14c-9 1 -13 5 -11 16l12 76
c2 11 6 15 16 15h172c88 0 113 20 123 86l1 6c-44 -8 -82 -11 -124 -11c-182 0 -221 63 -184 293c34 218 94 277 305 277zM413 437h-99c-98 0 -112 -38 -132 -156c-20 -129 -9 -157 91 -157c26 0 61 1 91 6z" />
    <glyph glyph-name="gdotaccent" unicode="&#x121;" horiz-adv-x="602" 
d="M372 778c54 0 78 -26 71 -75c-8 -51 -43 -76 -95 -76s-79 25 -71 76c9 51 43 75 95 75zM341 565c78 0 158 -8 216 -19c13 -2 20 -11 17 -25l-81 -509c-24 -150 -64 -219 -279 -219c-60 0 -127 4 -183 14c-9 1 -13 5 -11 16l12 76c2 11 6 15 16 15h172c88 0 113 20 123 86
l1 6c-44 -8 -82 -11 -124 -11c-182 0 -221 63 -184 293c34 218 94 277 305 277zM413 437h-99c-98 0 -112 -38 -132 -156c-20 -129 -9 -157 91 -157c26 0 61 1 91 6z" />
    <glyph glyph-name="h" unicode="h" horiz-adv-x="611" 
d="M145 774h118c10 0 14 -6 13 -16l-31 -198c37 4 79 5 107 5c191 0 235 -36 203 -240l-49 -309c-2 -11 -8 -16 -18 -16h-119c-10 0 -13 5 -12 16l43 271c23 143 8 150 -84 150h-90l-67 -421c-1 -11 -7 -16 -17 -16h-120c-10 0 -13 5 -12 16l118 742c1 10 7 16 17 16z" />
    <glyph glyph-name="hbar" unicode="&#x127;" horiz-adv-x="611" 
d="M352 565c191 0 235 -36 203 -240l-49 -309c-2 -11 -8 -16 -18 -16h-119c-10 0 -13 5 -12 16l43 271c23 143 8 150 -84 150h-90l-67 -421c-1 -11 -7 -16 -17 -16h-120c-10 0 -13 5 -12 16l99 625h-57c-10 0 -14 5 -13 15l6 35c1 10 7 15 17 15h58l8 52c1 10 7 16 17 16
h118c10 0 14 -6 13 -16l-8 -52h122c10 0 14 -5 13 -15l-6 -35c-1 -10 -7 -15 -17 -15h-122l-13 -81c37 4 79 5 107 5z" />
    <glyph glyph-name="hcircumflex" unicode="&#x125;" horiz-adv-x="611" 
d="M193 984h85c13 0 16 -4 19 -9l75 -133c4 -6 1 -12 -6 -16l-35 -17c-6 -4 -12 -4 -17 0l-94 76l-119 -76c-6 -4 -11 -4 -17 0l-28 17c-7 4 -7 10 -1 16l117 133c4 5 8 9 21 9zM145 774h118c10 0 14 -6 13 -16l-31 -198c37 4 79 5 107 5c191 0 235 -36 203 -240l-49 -309
c-2 -11 -8 -16 -18 -16h-119c-10 0 -13 5 -12 16l43 271c23 143 8 150 -84 150h-90l-67 -421c-1 -11 -7 -16 -17 -16h-120c-10 0 -13 5 -12 16l118 742c1 10 7 16 17 16z" />
    <glyph glyph-name="i" unicode="i" horiz-adv-x="266" 
d="M208 796c55 0 82 -29 74 -80s-44 -81 -100 -81c-55 0 -83 30 -74 81c7 51 44 80 100 80zM110 560h119c10 0 14 -5 12 -15l-83 -529c-2 -11 -8 -16 -18 -16h-118c-10 0 -14 5 -13 16l84 529c1 10 7 15 17 15z" />
    <glyph glyph-name="dotlessi" unicode="&#x131;" horiz-adv-x="266" 
d="M110 560h119c10 0 14 -5 12 -15l-83 -529c-2 -11 -8 -16 -18 -16h-118c-10 0 -14 5 -13 16l84 529c1 10 7 15 17 15z" />
    <glyph glyph-name="iacute" unicode="&#xed;" horiz-adv-x="266" 
d="M213 792h145c6 0 8 -3 8 -10v-5c0 -5 -1 -8 -7 -14l-199 -146c-5 -4 -9 -3 -14 0l-39 25c-4 4 -4 9 -1 14l94 130c3 4 7 6 13 6zM110 560h119c10 0 14 -5 12 -15l-83 -529c-2 -11 -8 -16 -18 -16h-118c-10 0 -14 5 -13 16l84 529c1 10 7 15 17 15z" />
    <glyph glyph-name="icaron" unicode="&#x1d0;" horiz-adv-x="266" 
d="M328 789l29 -16c6 -4 6 -10 1 -17l-117 -133c-5 -5 -9 -8 -22 -8h-85c-13 0 -16 3 -18 8l-75 133c-5 7 -2 13 6 17l34 16c7 4 12 5 17 0l95 -75l118 75c6 5 11 4 17 0zM110 560h119c10 0 14 -5 12 -15l-83 -529c-2 -11 -8 -16 -18 -16h-118c-10 0 -14 5 -13 16l84 529
c1 10 7 15 17 15z" />
    <glyph glyph-name="icircumflex" unicode="&#xee;" horiz-adv-x="266" 
d="M163 792h85c12 0 15 -3 18 -8l75 -133c4 -7 2 -13 -7 -17l-33 -16c-7 -4 -12 -5 -18 0l-94 75l-118 -75c-7 -5 -12 -4 -17 0l-29 16c-6 4 -7 10 -1 17l117 133c5 5 9 8 22 8zM110 560h119c10 0 14 -5 12 -15l-83 -529c-2 -11 -8 -16 -18 -16h-118c-10 0 -14 5 -13 16
l84 529c1 10 7 15 17 15z" />
    <glyph glyph-name="idieresis" unicode="&#xef;" horiz-adv-x="266" 
d="M92 776c51 0 73 -28 65 -73c-7 -46 -38 -74 -89 -74c-49 0 -73 26 -65 74c7 48 40 73 89 73zM313 776c51 0 73 -28 66 -73c-7 -46 -39 -74 -90 -74c-49 0 -72 26 -65 74c8 48 40 73 89 73zM110 560h119c10 0 14 -5 12 -15l-83 -529c-2 -11 -8 -16 -18 -16h-118
c-10 0 -14 5 -13 16l84 529c1 10 7 15 17 15z" />
    <glyph glyph-name="i.loclTRK" horiz-adv-x="266" 
d="M202 778c55 0 79 -26 71 -75c-8 -51 -43 -76 -95 -76s-78 25 -70 76s42 75 94 75zM110 560h119c10 0 14 -5 12 -15l-83 -529c-2 -11 -8 -16 -18 -16h-118c-10 0 -14 5 -13 16l84 529c1 10 7 15 17 15z" />
    <glyph glyph-name="igrave" unicode="&#xec;" horiz-adv-x="266" 
d="M35 792h146c6 0 9 -1 11 -6l52 -130c3 -5 1 -10 -5 -14l-47 -25c-6 -3 -10 -4 -14 0l-150 144c-4 3 -4 7 -4 13v8c0 7 5 10 11 10zM110 560h119c10 0 14 -5 12 -15l-83 -529c-2 -11 -8 -16 -18 -16h-118c-10 0 -14 5 -13 16l84 529c1 10 7 15 17 15z" />
    <glyph glyph-name="ij" unicode="&#x133;" horiz-adv-x="539" 
d="M208 796c55 0 82 -29 74 -80s-44 -81 -100 -81c-55 0 -83 30 -74 81c7 51 44 80 100 80zM110 560h119c10 0 14 -5 12 -15l-83 -529c-2 -11 -8 -16 -18 -16h-118c-10 0 -14 5 -13 16l84 529c1 10 7 15 17 15zM481 796c55 0 81 -29 74 -80c-9 -51 -45 -81 -100 -81
c-56 0 -83 30 -75 81s45 80 101 80zM383 560h119c10 0 14 -5 12 -15l-99 -626c-18 -111 -77 -126 -161 -126c-21 0 -69 5 -81 8c-10 4 -15 7 -13 20l14 85c1 11 8 16 19 16h25c43 0 50 5 56 45l92 578c1 10 7 15 17 15z" />
    <glyph glyph-name="imacron" unicode="&#x12b;" horiz-adv-x="266" 
d="M52 739h289c10 0 14 -5 13 -15l-10 -61c-2 -10 -7 -15 -17 -15h-290c-10 0 -14 5 -13 15l10 61c2 10 8 15 18 15zM110 560h119c10 0 14 -5 12 -15l-83 -529c-2 -11 -8 -16 -18 -16h-118c-10 0 -14 5 -13 16l84 529c1 10 7 15 17 15z" />
    <glyph glyph-name="iogonek" unicode="&#x12f;" horiz-adv-x="266" 
d="M202 778c55 0 79 -26 71 -75c-8 -51 -43 -76 -95 -76s-78 25 -70 76s42 75 94 75zM110 560h119c10 0 14 -5 12 -15l-83 -529c-2 -11 -8 -16 -18 -16h-56c-8 -22 -12 -37 -14 -50c-4 -26 16 -26 51 -26h35c10 0 14 -4 12 -14l-9 -61c-2 -9 -7 -15 -15 -18
c-13 -5 -60 -8 -81 -8c-72 0 -102 23 -93 78c5 34 21 74 38 108l85 536c1 10 7 15 17 15z" />
    <glyph glyph-name="itilde" unicode="&#x129;" horiz-adv-x="266" 
d="M257 632c-52 0 -105 39 -137 39c-22 0 -34 -7 -50 -33c-6 -11 -11 -13 -20 -10l-41 12c-8 3 -12 9 -7 21c37 90 65 115 123 115c52 0 104 -39 137 -39c22 0 34 7 49 33c7 11 12 13 21 10l41 -12c9 -3 11 -9 7 -20c-38 -91 -65 -116 -123 -116zM110 560h119
c10 0 14 -5 12 -15l-83 -529c-2 -11 -8 -16 -18 -16h-118c-10 0 -14 5 -13 16l84 529c1 10 7 15 17 15z" />
    <glyph glyph-name="j" unicode="j" horiz-adv-x="273" 
d="M215 796c55 0 81 -29 74 -80c-9 -51 -45 -81 -100 -81c-56 0 -83 30 -75 81s45 80 101 80zM117 560h119c10 0 14 -5 12 -15l-99 -626c-18 -111 -77 -126 -161 -126c-21 0 -69 5 -81 8c-10 4 -15 7 -13 20l14 85c1 11 8 16 19 16h25c43 0 50 5 56 45l92 578
c1 10 7 15 17 15z" />
    <glyph glyph-name="jcircumflex" unicode="&#x135;" horiz-adv-x="273" 
d="M169 792h85c13 0 16 -3 18 -8l75 -133c4 -7 2 -13 -6 -17l-34 -16c-7 -4 -12 -5 -17 0l-94 75l-119 -75c-7 -5 -12 -4 -17 0l-29 16c-6 4 -7 10 -1 17l117 133c5 5 9 8 22 8zM117 560h119c10 0 14 -5 12 -15l-99 -626c-18 -111 -77 -126 -161 -126c-21 0 -69 5 -81 8
c-10 4 -15 7 -13 20l14 85c1 11 8 16 19 16h25c43 0 50 5 56 45l92 578c1 10 7 15 17 15z" />
    <glyph glyph-name="k" unicode="k" horiz-adv-x="555" 
d="M144 774h118c10 0 14 -6 13 -16l-62 -390l173 182c6 6 13 10 22 10h135c18 0 16 -8 6 -19l-193 -201l155 -313c5 -13 6 -27 -21 -27h-126c-10 0 -17 4 -20 11l-141 295l-45 -290c-2 -11 -8 -16 -18 -16h-118c-10 0 -14 5 -12 16l117 742c1 10 7 16 17 16z" />
    <glyph glyph-name="kcommaaccent" unicode="&#x137;" horiz-adv-x="555" 
d="M144 774h118c10 0 14 -6 13 -16l-62 -390l173 182c6 6 13 10 22 10h135c18 0 16 -8 6 -19l-193 -201l155 -313c5 -13 6 -27 -21 -27h-126c-10 0 -17 4 -20 11l-141 295l-45 -290c-2 -11 -8 -16 -18 -16h-118c-10 0 -14 5 -12 16l117 742c1 10 7 16 17 16zM186 -40h124
c6 0 8 -3 8 -10v-6c0 -5 -1 -8 -8 -13l-175 -129c-6 -4 -9 -3 -14 0l-33 21c-4 4 -4 9 -1 14l86 117c2 4 7 6 13 6z" />
    <glyph glyph-name="kgreenlandic" unicode="&#x138;" horiz-adv-x="590" 
d="M457 560h141c16 0 15 -8 5 -19l-232 -254l161 -265c6 -12 6 -23 -17 -23h-147c-9 0 -16 4 -20 10l-145 239l-37 -232c-1 -11 -7 -16 -17 -16h-127c-10 0 -14 5 -13 16l84 529c1 10 7 15 17 15h128c10 0 14 -5 12 -15l-38 -238l222 243c6 6 14 10 23 10z" />
    <glyph glyph-name="l" unicode="l" horiz-adv-x="267" 
d="M145 774h118c10 0 14 -5 13 -15l-117 -743c-2 -11 -8 -16 -18 -16h-118c-10 0 -14 5 -13 16l118 743c1 10 7 15 17 15z" />
    <glyph glyph-name="lacute" unicode="&#x13a;" horiz-adv-x="267" 
d="M260 992h145c6 0 8 -3 8 -10v-5c0 -5 -1 -8 -7 -14l-199 -146c-5 -4 -9 -3 -14 0l-39 25c-4 4 -4 9 -1 14l94 130c3 4 7 6 13 6zM145 774h118c10 0 14 -5 13 -15l-117 -743c-2 -11 -8 -16 -18 -16h-118c-10 0 -14 5 -13 16l118 743c1 10 7 15 17 15z" />
    <glyph glyph-name="lcaron" unicode="&#x13e;" horiz-adv-x="297" 
d="M370 777h131c6 0 10 -3 9 -10l-1 -7c-1 -5 -4 -9 -7 -12l-152 -146c-4 -5 -9 -4 -14 0l-29 24c-4 3 -5 8 -2 15l49 127c3 7 8 9 16 9zM144 774h119c10 0 14 -5 13 -15l-118 -743c-2 -11 -8 -16 -18 -16h-118c-10 0 -14 5 -12 16l117 743c1 10 7 15 17 15z" />
    <glyph glyph-name="lcommaaccent" unicode="&#x13c;" horiz-adv-x="267" 
d="M145 774h118c10 0 14 -5 13 -15l-117 -743c-2 -11 -8 -16 -18 -16h-118c-10 0 -14 5 -13 16l118 743c1 10 7 15 17 15zM14 -40h125c6 0 8 -3 8 -10v-6c0 -5 -1 -8 -8 -13l-175 -129c-6 -4 -10 -3 -14 0l-33 21c-4 4 -4 9 -1 14l85 117c3 4 7 6 13 6z" />
    <glyph glyph-name="ldot" unicode="&#x140;" horiz-adv-x="431" 
d="M144 774h119c10 0 14 -5 13 -15l-118 -743c-2 -11 -8 -16 -18 -16h-118c-10 0 -14 5 -12 16l117 743c1 10 7 15 17 15zM368 448c54 0 78 -26 71 -75c-9 -50 -41 -77 -95 -77s-79 27 -71 77c8 49 41 75 95 75z" />
    <glyph glyph-name="lslash" unicode="&#x142;" horiz-adv-x="321" 
d="M160 774h119c10 0 14 -5 13 -15l-48 -299l57 30c11 5 18 4 20 -5l14 -33c4 -8 3 -14 -9 -20l-94 -50l-58 -366c-2 -11 -8 -16 -18 -16h-118c-10 0 -14 5 -12 16l44 281l-41 -22c-10 -6 -16 -3 -18 6l-14 33c-3 8 0 15 8 20l77 41l61 384c1 10 7 15 17 15z" />
    <glyph glyph-name="m" unicode="m" horiz-adv-x="886" 
d="M655 566c156 0 207 -44 180 -213l-55 -337c-1 -11 -7 -16 -17 -16h-118c-10 0 -14 5 -12 16l43 271c22 143 8 150 -71 150c-28 0 -58 -1 -82 -6c4 -27 3 -61 -5 -106l-50 -309c-2 -11 -6 -16 -16 -16h-119c-10 0 -13 5 -12 16l49 305c16 111 -1 116 -77 116h-69l-67 -421
c-1 -11 -7 -16 -17 -16h-118c-10 0 -14 5 -13 16l82 517c2 11 6 13 16 15c57 12 143 17 194 17c78 0 141 -14 174 -32c59 21 129 33 180 33z" />
    <glyph glyph-name="n" unicode="n" horiz-adv-x="609" 
d="M350 565c192 0 236 -36 203 -240l-49 -309c-1 -11 -8 -16 -18 -16h-118c-10 0 -14 5 -12 16l43 271c22 143 8 150 -84 150h-90l-67 -421c-2 -11 -8 -16 -18 -16h-119c-10 0 -14 5 -12 16l82 517c2 12 7 13 17 15c70 15 167 17 242 17z" />
    <glyph glyph-name="nacute" unicode="&#x144;" horiz-adv-x="609" 
d="M372 792h145c6 0 8 -3 8 -10v-5c0 -5 -1 -8 -7 -14l-199 -146c-5 -4 -9 -3 -14 0l-39 25c-4 4 -4 9 -1 14l94 130c3 4 7 6 13 6zM350 565c192 0 236 -36 203 -240l-49 -309c-1 -11 -8 -16 -18 -16h-118c-10 0 -14 5 -12 16l43 271c22 143 8 150 -84 150h-90l-67 -421
c-2 -11 -8 -16 -18 -16h-119c-10 0 -14 5 -12 16l82 517c2 12 7 13 17 15c70 15 167 17 242 17z" />
    <glyph glyph-name="napostrophe" unicode="&#x149;" horiz-adv-x="609" 
d="M114 792h145c6 0 8 -3 8 -10v-5c0 -5 -1 -8 -7 -14l-199 -146c-6 -4 -9 -3 -14 0l-39 25c-4 4 -4 9 -1 14l94 130c2 4 7 6 13 6zM350 565c192 0 236 -36 203 -240l-49 -309c-1 -11 -8 -16 -18 -16h-118c-10 0 -14 5 -12 16l43 271c22 143 8 150 -84 150h-90l-67 -421
c-2 -11 -8 -16 -18 -16h-119c-10 0 -14 5 -12 16l82 517c2 12 7 13 17 15c70 15 167 17 242 17z" />
    <glyph glyph-name="ncaron" unicode="&#x148;" horiz-adv-x="609" 
d="M501 789l28 -16c7 -4 7 -10 1 -17l-117 -133c-4 -5 -9 -8 -21 -8h-85c-13 0 -16 3 -19 8l-74 133c-5 7 -2 13 6 17l34 16c6 4 11 5 17 0l94 -75l118 75c7 5 12 4 18 0zM350 565c192 0 236 -36 203 -240l-49 -309c-1 -11 -8 -16 -18 -16h-118c-10 0 -14 5 -12 16l43 271
c22 143 8 150 -84 150h-90l-67 -421c-2 -11 -8 -16 -18 -16h-119c-10 0 -14 5 -12 16l82 517c2 12 7 13 17 15c70 15 167 17 242 17z" />
    <glyph glyph-name="ncommaaccent" unicode="&#x146;" horiz-adv-x="609" 
d="M350 565c192 0 236 -36 203 -240l-49 -309c-1 -11 -8 -16 -18 -16h-118c-10 0 -14 5 -12 16l43 271c22 143 8 150 -84 150h-90l-67 -421c-2 -11 -8 -16 -18 -16h-119c-10 0 -14 5 -12 16l82 517c2 12 7 13 17 15c70 15 167 17 242 17zM196 -40h124c6 0 8 -3 8 -10v-6
c0 -5 -1 -8 -8 -13l-175 -129c-6 -4 -9 -3 -14 0l-33 21c-4 4 -4 9 -1 14l86 117c2 4 7 6 13 6z" />
    <glyph glyph-name="eng" unicode="&#x14b;" horiz-adv-x="609" 
d="M350 565c192 0 236 -36 203 -240l-64 -406c-18 -111 -77 -126 -161 -126c-21 0 -69 5 -81 8c-11 4 -15 7 -13 20l13 85c2 11 9 16 20 16h25c43 0 50 5 56 45l51 320c22 143 8 150 -84 150h-90l-67 -421c-2 -11 -8 -16 -18 -16h-119c-10 0 -14 5 -12 16l82 517
c2 12 7 13 17 15c70 15 167 17 242 17z" />
    <glyph glyph-name="ntilde" unicode="&#xf1;" horiz-adv-x="609" 
d="M429 632c-52 0 -104 39 -137 39c-22 0 -34 -7 -49 -33c-7 -11 -12 -13 -20 -10l-41 12c-9 3 -12 9 -7 21c37 90 65 115 123 115c51 0 104 -39 137 -39c22 0 33 7 49 33c7 11 11 13 20 10l41 -12c10 -3 12 -9 7 -20c-37 -91 -65 -116 -123 -116zM350 565
c192 0 236 -36 203 -240l-49 -309c-1 -11 -8 -16 -18 -16h-118c-10 0 -14 5 -12 16l43 271c22 143 8 150 -84 150h-90l-67 -421c-2 -11 -8 -16 -18 -16h-119c-10 0 -14 5 -12 16l82 517c2 12 7 13 17 15c70 15 167 17 242 17z" />
    <glyph glyph-name="o" unicode="o" horiz-adv-x="595" 
d="M335 565c208 0 246 -56 210 -285c-37 -228 -93 -285 -301 -285c-207 0 -246 57 -210 285c36 229 93 285 301 285zM314 437c-91 0 -111 -31 -131 -157s-10 -157 81 -157c92 0 112 31 132 157s10 157 -82 157z" />
    <glyph glyph-name="oacute" unicode="&#xf3;" horiz-adv-x="595" 
d="M409 792h145c6 0 8 -3 8 -10v-5c0 -5 -1 -8 -7 -14l-199 -146c-6 -4 -9 -3 -14 0l-39 25c-4 4 -4 9 -1 14l94 130c2 4 7 6 13 6zM335 565c208 0 246 -56 210 -285c-37 -228 -93 -285 -301 -285c-207 0 -246 57 -210 285c36 229 93 285 301 285zM314 437
c-91 0 -111 -31 -131 -157s-10 -157 81 -157c92 0 112 31 132 157s10 157 -82 157z" />
    <glyph glyph-name="obreve" unicode="&#x14f;" horiz-adv-x="595" 
d="M470 780h59c11 0 15 -4 11 -15c-30 -102 -79 -137 -195 -137c-118 0 -152 35 -152 136c0 12 5 16 17 16h57c10 0 13 -3 15 -12c11 -38 31 -50 77 -50c47 0 70 12 92 50c5 9 10 12 19 12zM335 565c208 0 246 -56 210 -285c-37 -228 -93 -285 -301 -285
c-207 0 -246 57 -210 285c36 229 93 285 301 285zM314 437c-91 0 -111 -31 -131 -157s-10 -157 81 -157c92 0 112 31 132 157s10 157 -82 157z" />
    <glyph glyph-name="ocaron" unicode="&#x1d2;" horiz-adv-x="595" 
d="M494 789l29 -16c6 -4 6 -10 1 -17l-118 -133c-4 -5 -8 -8 -21 -8h-85c-13 0 -16 3 -18 8l-75 133c-5 7 -2 13 6 17l34 16c7 4 12 5 17 0l95 -75l118 75c6 5 11 4 17 0zM335 565c208 0 246 -56 210 -285c-37 -228 -93 -285 -301 -285c-207 0 -246 57 -210 285
c36 229 93 285 301 285zM314 437c-91 0 -111 -31 -131 -157s-10 -157 81 -157c92 0 112 31 132 157s10 157 -82 157z" />
    <glyph glyph-name="ocircumflex" unicode="&#xf4;" horiz-adv-x="595" 
d="M328 792h85c13 0 16 -3 19 -8l75 -133c4 -7 2 -13 -7 -17l-33 -16c-7 -4 -12 -5 -18 0l-94 75l-118 -75c-7 -5 -12 -4 -18 0l-28 16c-6 4 -7 10 -1 17l117 133c5 5 9 8 21 8zM335 565c208 0 246 -56 210 -285c-37 -228 -93 -285 -301 -285c-207 0 -246 57 -210 285
c36 229 93 285 301 285zM314 437c-91 0 -111 -31 -131 -157s-10 -157 81 -157c92 0 112 31 132 157s10 157 -82 157z" />
    <glyph glyph-name="odieresis" unicode="&#xf6;" horiz-adv-x="595" 
d="M258 776c51 0 72 -28 65 -73c-7 -46 -38 -74 -89 -74c-49 0 -73 26 -65 74c7 48 40 73 89 73zM479 776c51 0 73 -28 66 -73c-7 -46 -39 -74 -90 -74c-49 0 -73 26 -65 74s40 73 89 73zM335 565c208 0 246 -56 210 -285c-37 -228 -93 -285 -301 -285
c-207 0 -246 57 -210 285c36 229 93 285 301 285zM314 437c-91 0 -111 -31 -131 -157s-10 -157 81 -157c92 0 112 31 132 157s10 157 -82 157z" />
    <glyph glyph-name="ograve" unicode="&#xf2;" horiz-adv-x="595" 
d="M193 792h145c6 0 9 -1 11 -6l52 -130c3 -5 1 -10 -5 -14l-47 -25c-6 -3 -10 -4 -14 0l-150 144c-4 3 -4 7 -4 13v8c0 7 6 10 12 10zM335 565c208 0 246 -56 210 -285c-37 -228 -93 -285 -301 -285c-207 0 -246 57 -210 285c36 229 93 285 301 285zM314 437
c-91 0 -111 -31 -131 -157s-10 -157 81 -157c92 0 112 31 132 157s10 157 -82 157z" />
    <glyph glyph-name="ohungarumlaut" unicode="&#x151;" horiz-adv-x="595" 
d="M305 792h97c6 0 8 -3 8 -10v-6c0 -5 -2 -8 -8 -13l-169 -138c-5 -5 -9 -4 -14 0l-20 17c-4 4 -4 9 0 14l93 130c3 4 7 6 13 6zM492 792h97c6 0 9 -3 9 -10v-6c0 -5 -3 -8 -8 -13l-170 -138c-6 -5 -10 -4 -14 0l-20 17c-4 4 -4 9 -1 14l94 130c2 4 7 6 13 6zM335 565
c208 0 246 -56 210 -285c-37 -228 -93 -285 -301 -285c-207 0 -246 57 -210 285c36 229 93 285 301 285zM314 437c-91 0 -111 -31 -131 -157s-10 -157 81 -157c92 0 112 31 132 157s10 157 -82 157z" />
    <glyph glyph-name="omacron" unicode="&#x14d;" horiz-adv-x="595" 
d="M218 739h289c10 0 14 -5 13 -15l-10 -61c-2 -10 -7 -15 -17 -15h-290c-10 0 -14 5 -13 15l10 61c2 10 8 15 18 15zM335 565c208 0 246 -56 210 -285c-37 -228 -93 -285 -301 -285c-207 0 -246 57 -210 285c36 229 93 285 301 285zM314 437c-91 0 -111 -31 -131 -157
s-10 -157 81 -157c92 0 112 31 132 157s10 157 -82 157z" />
    <glyph glyph-name="oslash" unicode="&#xf8;" horiz-adv-x="595" 
d="M546 280c-37 -228 -93 -285 -301 -285c-62 0 -109 5 -144 19l-28 -33c-8 -9 -15 -10 -21 -3l-30 23c-7 5 -7 12 -1 20l29 33c-32 43 -32 113 -15 226c36 229 93 285 301 285c59 0 105 -5 139 -17l26 31c8 8 15 11 22 4l30 -23c8 -5 8 -12 0 -21l-24 -28
c34 -42 35 -114 17 -231zM315 437c-91 0 -111 -31 -131 -157c-5 -33 -8 -59 -8 -79l197 228c-14 6 -33 8 -58 8zM404 366l-200 -233c14 -7 34 -10 61 -10c92 0 112 31 132 157c6 37 9 65 7 86z" />
    <glyph glyph-name="oslashacute" unicode="&#x1ff;" horiz-adv-x="595" 
d="M400 792h146c6 0 9 -3 8 -10l-1 -7c-1 -5 -4 -9 -7 -12l-199 -146c-5 -4 -9 -3 -14 0l-39 25c-4 4 -4 9 0 14l93 130c3 4 7 6 13 6zM546 280c-37 -228 -93 -285 -301 -285c-62 0 -109 5 -144 19l-28 -33c-8 -9 -15 -10 -21 -3l-30 23c-7 5 -7 12 -1 20l29 33
c-32 43 -32 113 -15 226c36 229 93 285 301 285c59 0 105 -5 139 -17l26 31c8 8 15 11 22 4l30 -23c8 -5 8 -12 0 -21l-24 -28c34 -42 35 -114 17 -231zM315 437c-91 0 -111 -31 -131 -157c-5 -33 -8 -59 -8 -79l197 228c-14 6 -33 8 -58 8zM404 366l-200 -233
c14 -7 34 -10 61 -10c92 0 112 31 132 157c6 37 9 65 7 86z" />
    <glyph glyph-name="otilde" unicode="&#xf5;" horiz-adv-x="595" 
d="M423 632c-52 0 -105 39 -137 39c-23 0 -34 -7 -50 -33c-7 -11 -11 -13 -20 -10l-41 12c-8 3 -12 9 -7 21c37 90 65 115 123 115c52 0 104 -39 137 -39c22 0 34 7 49 33c7 11 12 13 21 10l41 -12c9 -3 11 -9 7 -20c-38 -91 -65 -116 -123 -116zM335 565
c208 0 246 -56 210 -285c-37 -228 -93 -285 -301 -285c-207 0 -246 57 -210 285c36 229 93 285 301 285zM314 437c-91 0 -111 -31 -131 -157s-10 -157 81 -157c92 0 112 31 132 157s10 157 -82 157z" />
    <glyph glyph-name="oe" unicode="&#x153;" horiz-adv-x="935" 
d="M694 565c197 0 236 -55 202 -278l-5 -31c-3 -20 -11 -27 -36 -27h-314c-13 -90 9 -106 96 -106h177c10 0 14 -5 13 -15l-13 -83c-2 -11 -8 -15 -17 -16c-55 -11 -127 -14 -194 -14c-80 0 -138 15 -170 49c-41 -34 -106 -49 -189 -49c-207 0 -246 57 -210 285
c36 229 93 285 301 285c85 0 141 -14 174 -49c42 35 103 49 185 49zM314 437c-91 0 -111 -31 -131 -157s-10 -157 81 -157c92 0 112 31 132 157s10 157 -82 157zM674 437c-76 0 -104 -23 -119 -111h198c13 88 -6 111 -79 111z" />
    <glyph glyph-name="p" unicode="p" horiz-adv-x="602" 
d="M337 565c211 0 251 -60 217 -277c-37 -230 -96 -293 -278 -293c-42 0 -80 1 -122 6l-29 -187c-2 -10 -7 -15 -17 -15h-118c-10 0 -15 5 -13 15l112 707c2 14 11 22 25 25c84 13 154 19 223 19zM323 437h-99l-49 -307c28 -4 63 -6 89 -6c100 0 120 27 140 156
c19 118 17 157 -81 157z" />
    <glyph glyph-name="thorn" unicode="&#xfe;" horiz-adv-x="601" 
d="M145 774h118c11 0 15 -5 13 -16l-31 -199c36 4 78 6 124 6c181 0 218 -64 183 -286c-35 -225 -93 -284 -304 -284c-34 0 -60 1 -92 4l-30 -185c-1 -10 -7 -15 -17 -15h-118c-10 0 -15 5 -13 15l150 944c1 11 6 16 17 16zM315 436h-90l-49 -306c30 -5 71 -7 95 -7
c100 0 115 40 133 157c21 129 11 156 -89 156z" />
    <glyph glyph-name="q" unicode="q" horiz-adv-x="602" 
d="M341 565c69 0 137 -6 216 -19c13 -3 20 -11 17 -25l-112 -707c-1 -10 -7 -15 -17 -15h-118c-10 0 -15 5 -13 15l30 187c-44 -5 -82 -6 -124 -6c-182 0 -221 63 -184 293c34 218 94 277 305 277zM413 437h-99c-99 0 -112 -38 -132 -156c-20 -129 -9 -157 91 -157
c26 0 61 1 91 5z" />
    <glyph glyph-name="r" unicode="r" horiz-adv-x="398" 
d="M275 565c29 0 97 -3 131 -11c10 -3 15 -7 13 -20l-13 -82c-2 -10 -8 -15 -20 -15h-94c-52 0 -71 -8 -78 -51l-59 -370c-1 -11 -7 -16 -17 -16h-119c-10 0 -14 5 -12 16l65 408c20 126 112 141 203 141z" />
    <glyph glyph-name="racute" unicode="&#x155;" horiz-adv-x="398" 
d="M291 792h145c6 0 7 -3 7 -10v-5c0 -5 0 -8 -7 -14l-198 -146c-6 -4 -9 -3 -14 0l-40 25c-4 4 -4 9 0 14l94 130c2 4 7 6 13 6zM275 565c29 0 97 -3 131 -11c10 -3 15 -7 13 -20l-13 -82c-2 -10 -8 -15 -20 -15h-94c-52 0 -71 -8 -78 -51l-59 -370c-1 -11 -7 -16 -17 -16
h-119c-10 0 -14 5 -12 16l65 408c20 126 112 141 203 141z" />
    <glyph glyph-name="rcaron" unicode="&#x159;" horiz-adv-x="398" 
d="M407 789l29 -16c6 -4 6 -10 1 -17l-117 -133c-5 -5 -9 -8 -22 -8h-85c-13 0 -16 3 -18 8l-75 133c-5 7 -2 13 6 17l34 16c7 4 12 5 17 0l95 -75l118 75c6 5 11 4 17 0zM275 565c29 0 97 -3 131 -11c10 -3 15 -7 13 -20l-13 -82c-2 -10 -8 -15 -20 -15h-94
c-52 0 -71 -8 -78 -51l-59 -370c-1 -11 -7 -16 -17 -16h-119c-10 0 -14 5 -12 16l65 408c20 126 112 141 203 141z" />
    <glyph glyph-name="rcommaaccent" unicode="&#x157;" horiz-adv-x="398" 
d="M275 565c29 0 97 -3 131 -11c10 -3 15 -7 13 -20l-13 -82c-2 -10 -8 -15 -20 -15h-94c-52 0 -71 -8 -78 -51l-59 -370c-1 -11 -7 -16 -17 -16h-119c-10 0 -14 5 -12 16l65 408c20 126 112 141 203 141zM12 -40h124c6 0 8 -3 8 -10v-6c0 -5 -1 -8 -8 -13l-175 -129
c-6 -4 -9 -3 -14 0l-33 21c-4 4 -4 9 -1 14l86 117c2 4 7 6 13 6z" />
    <glyph glyph-name="s" unicode="s" horiz-adv-x="505" 
d="M312 565c42 0 99 -3 156 -13c11 -3 15 -7 13 -16l-12 -76c-2 -11 -7 -16 -19 -16h-181c-38 0 -60 -11 -65 -36l-1 -10c-3 -19 7 -33 40 -46l121 -45c81 -30 92 -82 81 -150l-2 -16c-19 -116 -109 -146 -236 -146c-87 0 -158 5 -205 10c-13 0 -16 4 -15 15l14 81
c1 11 6 15 18 15h206c53 0 70 7 74 34l1 9c3 19 -6 32 -48 47l-115 44c-75 27 -89 88 -79 152l3 19c17 107 107 144 251 144z" />
    <glyph glyph-name="sacute" unicode="&#x15b;" horiz-adv-x="505" 
d="M328 792h145c6 0 8 -3 8 -10v-5c0 -5 -1 -8 -7 -14l-199 -146c-5 -4 -9 -3 -14 0l-39 25c-4 4 -4 9 -1 14l94 130c3 4 7 6 13 6zM312 565c42 0 99 -3 156 -13c11 -3 15 -7 13 -16l-12 -76c-2 -11 -7 -16 -19 -16h-181c-38 0 -60 -11 -65 -36l-1 -10c-3 -19 7 -33 40 -46
l121 -45c81 -30 92 -82 81 -150l-2 -16c-19 -116 -109 -146 -236 -146c-87 0 -158 5 -205 10c-13 0 -16 4 -15 15l14 81c1 11 6 15 18 15h206c53 0 70 7 74 34l1 9c3 19 -6 32 -48 47l-115 44c-75 27 -89 88 -79 152l3 19c17 107 107 144 251 144z" />
    <glyph glyph-name="scaron" unicode="&#x161;" horiz-adv-x="505" 
d="M457 789l28 -16c7 -4 7 -10 1 -17l-117 -133c-4 -5 -8 -8 -21 -8h-85c-13 0 -16 3 -19 8l-74 133c-5 7 -2 13 6 17l34 16c6 4 11 5 17 0l94 -75l118 75c7 5 12 4 18 0zM312 565c42 0 99 -3 156 -13c11 -3 15 -7 13 -16l-12 -76c-2 -11 -7 -16 -19 -16h-181
c-38 0 -60 -11 -65 -36l-1 -10c-3 -19 7 -33 40 -46l121 -45c81 -30 92 -82 81 -150l-2 -16c-19 -116 -109 -146 -236 -146c-87 0 -158 5 -205 10c-13 0 -16 4 -15 15l14 81c1 11 6 15 18 15h206c53 0 70 7 74 34l1 9c3 19 -6 32 -48 47l-115 44c-75 27 -89 88 -79 152l3 19
c17 107 107 144 251 144z" />
    <glyph glyph-name="scedilla" unicode="&#x15f;" horiz-adv-x="505" 
d="M312 565c42 0 99 -3 156 -13c11 -3 15 -7 13 -16l-12 -76c-2 -11 -7 -16 -19 -16h-181c-38 0 -60 -11 -65 -36l-1 -10c-3 -19 7 -33 40 -46l121 -45c81 -30 92 -82 81 -150l-2 -16c-17 -103 -90 -138 -197 -145c5 -31 6 -65 2 -95c-9 -55 -47 -78 -118 -78
c-21 0 -67 3 -78 8c-8 3 -11 9 -9 18l9 61c2 10 6 14 16 14h36c34 0 55 0 59 26c2 12 2 26 2 45c-68 1 -126 6 -163 10c-13 0 -16 4 -15 15l14 81c1 11 6 15 18 15h206c53 0 70 7 74 34l1 9c3 19 -6 32 -48 47l-115 44c-75 27 -89 88 -79 152l3 19c17 107 107 144 251 144z
" />
    <glyph glyph-name="scircumflex" unicode="&#x15d;" horiz-adv-x="505" 
d="M291 792h85c13 0 16 -3 19 -8l74 -133c5 -7 2 -13 -6 -17l-34 -16c-6 -4 -11 -5 -17 0l-94 75l-118 -75c-7 -5 -12 -4 -18 0l-28 16c-7 4 -7 10 -1 17l117 133c4 5 8 8 21 8zM312 565c42 0 99 -3 156 -13c11 -3 15 -7 13 -16l-12 -76c-2 -11 -7 -16 -19 -16h-181
c-38 0 -60 -11 -65 -36l-1 -10c-3 -19 7 -33 40 -46l121 -45c81 -30 92 -82 81 -150l-2 -16c-19 -116 -109 -146 -236 -146c-87 0 -158 5 -205 10c-13 0 -16 4 -15 15l14 81c1 11 6 15 18 15h206c53 0 70 7 74 34l1 9c3 19 -6 32 -48 47l-115 44c-75 27 -89 88 -79 152l3 19
c17 107 107 144 251 144z" />
    <glyph glyph-name="scommaaccent" unicode="&#x219;" horiz-adv-x="505" 
d="M312 565c42 0 99 -3 156 -13c11 -3 15 -7 13 -16l-12 -76c-2 -11 -7 -16 -19 -16h-181c-38 0 -60 -11 -65 -36l-1 -10c-3 -19 7 -33 40 -46l121 -45c81 -30 92 -82 81 -150l-2 -16c-19 -116 -109 -146 -236 -146c-87 0 -158 5 -205 10c-13 0 -16 4 -15 15l14 81
c1 11 6 15 18 15h206c53 0 70 7 74 34l1 9c3 19 -6 32 -48 47l-115 44c-75 27 -89 88 -79 152l3 19c17 107 107 144 251 144zM135 -40h125c6 0 8 -3 8 -10v-6c0 -5 -1 -8 -8 -13l-175 -129c-6 -4 -10 -3 -14 0l-33 21c-4 4 -4 9 -1 14l85 117c3 4 7 6 13 6z" />
    <glyph glyph-name="germandbls" unicode="&#xdf;" horiz-adv-x="632" 
d="M383 780c182 0 255 -54 230 -215c-18 -108 -54 -160 -138 -175l-1 -3c97 -12 117 -73 100 -180c-26 -163 -116 -212 -303 -212c-21 0 -41 1 -60 3c-11 1 -15 7 -11 17l39 104c3 9 7 13 14 13h34c83 1 122 21 134 96c12 82 -26 103 -107 103h-39c-10 0 -14 5 -12 15l13 83
c2 10 6 15 19 15h36c65 1 109 18 122 97c12 81 -19 102 -92 102c-68 0 -100 -24 -114 -106l-82 -522c-1 -10 -7 -15 -17 -15h-125c-10 0 -14 5 -13 15l85 533c25 159 92 232 288 232z" />
    <glyph glyph-name="t" unicode="t" horiz-adv-x="377" 
d="M163 684l123 31c11 3 16 -4 14 -15l-23 -143h92c11 0 16 -5 15 -15l-13 -80c-2 -10 -8 -15 -19 -15h-93l-42 -273c-7 -43 6 -51 50 -51h42c11 0 16 -4 15 -15l-14 -85c-2 -12 -9 -17 -19 -19c-36 -7 -65 -9 -87 -9c-86 0 -164 3 -144 129l51 323h-58c-11 0 -16 5 -14 15
l13 80c1 10 7 15 19 15h58l17 111c2 10 7 14 17 16z" />
    <glyph glyph-name="tbar" unicode="&#x167;" horiz-adv-x="377" 
d="M277 557h92c11 0 16 -5 15 -15l-13 -80c-2 -10 -8 -15 -19 -15h-93l-16 -104h68c10 0 15 -5 13 -15l-8 -51c-1 -10 -7 -15 -17 -15h-68l-14 -88c-7 -43 6 -51 50 -51h42c11 0 16 -4 15 -15l-14 -85c-2 -12 -9 -17 -19 -19c-36 -7 -65 -9 -87 -9c-86 0 -164 3 -144 129
l22 138h-35c-10 0 -14 5 -12 15l8 51c2 10 7 15 17 15h35l16 104h-58c-11 0 -16 5 -14 15l13 80c1 10 7 15 19 15h58l17 111c2 10 7 14 17 16l123 31c11 3 16 -4 14 -15z" />
    <glyph glyph-name="tcaron" unicode="&#x165;" horiz-adv-x="399" 
d="M428 777h132c6 0 10 -3 9 -10l-1 -7c-1 -5 -5 -9 -7 -12l-150 -137c-5 -4 -10 -5 -15 -1l-30 16c-5 3 -5 8 -3 15l49 127c3 7 7 9 16 9zM163 684l123 31c11 3 16 -4 14 -15l-23 -143h92c11 0 16 -5 15 -15l-13 -80c-2 -10 -8 -15 -19 -15h-93l-42 -273
c-7 -43 6 -51 50 -51h42c11 0 16 -4 15 -15l-14 -85c-2 -12 -9 -17 -19 -19c-36 -7 -65 -9 -87 -9c-86 0 -164 3 -144 129l51 323h-58c-11 0 -16 5 -14 15l13 80c1 10 7 15 19 15h58l17 111c2 10 7 14 17 16z" />
    <glyph glyph-name="tcedilla" unicode="&#x163;" horiz-adv-x="377" 
d="M277 557h92c11 0 16 -5 15 -15l-13 -80c-2 -10 -8 -15 -19 -15h-93l-42 -273c-7 -43 6 -51 50 -51h42c11 0 16 -4 15 -15l-14 -85c-2 -12 -9 -17 -19 -19c-27 -5 -49 -8 -68 -9c4 -30 6 -64 1 -94c-9 -55 -47 -78 -118 -78c-21 0 -66 3 -78 8c-7 3 -10 9 -9 18l10 61
c1 10 6 14 16 14h35c35 0 55 0 60 26c1 12 2 29 2 47c-57 7 -97 33 -82 127l51 323h-58c-11 0 -16 5 -14 15l13 80c1 10 7 15 19 15h58l17 111c2 10 7 14 17 16l123 31c11 3 16 -4 14 -15z" />
    <glyph glyph-name="uni021B" unicode="&#x21b;" horiz-adv-x="377" 
d="M163 684l123 31c11 3 16 -4 14 -15l-23 -143h92c11 0 16 -5 15 -15l-13 -80c-2 -10 -8 -15 -19 -15h-93l-42 -273c-7 -43 6 -51 50 -51h42c11 0 16 -4 15 -15l-14 -85c-2 -12 -9 -17 -19 -19c-36 -7 -65 -9 -87 -9c-86 0 -164 3 -144 129l51 323h-58c-11 0 -16 5 -14 15
l13 80c1 10 7 15 19 15h58l17 111c2 10 7 14 17 16zM100 -40h125c6 0 9 -3 8 -10l-1 -7c-1 -5 -4 -9 -7 -12l-176 -129c-6 -4 -9 -3 -14 0l-32 21c-5 4 -5 9 -1 14l85 117c2 4 7 6 13 6z" />
    <glyph glyph-name="u" unicode="u" horiz-adv-x="608" 
d="M453 560h119c10 0 14 -4 12 -15l-81 -516c-2 -13 -7 -15 -17 -17c-71 -13 -168 -17 -243 -17c-192 0 -235 36 -203 241l49 309c2 11 9 15 19 15h118c10 0 13 -5 11 -15l-42 -271c-23 -144 -9 -151 83 -151h91l67 422c2 11 7 15 17 15z" />
    <glyph glyph-name="uacute" unicode="&#xfa;" horiz-adv-x="608" 
d="M372 792h146c6 0 7 -3 7 -10v-5c0 -5 -1 -8 -7 -14l-199 -146c-5 -4 -9 -3 -14 0l-39 25c-4 4 -4 9 0 14l93 130c3 4 7 6 13 6zM453 560h119c10 0 14 -4 12 -15l-81 -516c-2 -13 -7 -15 -17 -17c-71 -13 -168 -17 -243 -17c-192 0 -235 36 -203 241l49 309
c2 11 9 15 19 15h118c10 0 13 -5 11 -15l-42 -271c-23 -144 -9 -151 83 -151h91l67 422c2 11 7 15 17 15z" />
    <glyph glyph-name="ubreve" unicode="&#x16d;" horiz-adv-x="608" 
d="M467 780h59c11 0 15 -4 11 -15c-30 -102 -79 -137 -195 -137c-118 0 -152 35 -152 136c0 12 5 16 17 16h58c9 0 13 -3 15 -12c10 -38 30 -50 76 -50c47 0 70 12 92 50c5 9 10 12 19 12zM453 560h119c10 0 14 -4 12 -15l-81 -516c-2 -13 -7 -15 -17 -17
c-71 -13 -168 -17 -243 -17c-192 0 -235 36 -203 241l49 309c2 11 9 15 19 15h118c10 0 13 -5 11 -15l-42 -271c-23 -144 -9 -151 83 -151h91l67 422c2 11 7 15 17 15z" />
    <glyph glyph-name="ucaron" unicode="&#x1d4;" horiz-adv-x="608" 
d="M491 789l29 -16c6 -4 6 -10 1 -17l-117 -133c-5 -5 -9 -8 -22 -8h-85c-13 0 -16 3 -18 8l-75 133c-5 7 -2 13 6 17l34 16c7 4 12 5 17 0l95 -75l118 75c6 5 12 4 17 0zM453 560h119c10 0 14 -4 12 -15l-81 -516c-2 -13 -7 -15 -17 -17c-71 -13 -168 -17 -243 -17
c-192 0 -235 36 -203 241l49 309c2 11 9 15 19 15h118c10 0 13 -5 11 -15l-42 -271c-23 -144 -9 -151 83 -151h91l67 422c2 11 7 15 17 15z" />
    <glyph glyph-name="ucircumflex" unicode="&#xfb;" horiz-adv-x="608" 
d="M326 792h85c12 0 15 -3 18 -8l75 -133c4 -7 2 -13 -6 -17l-34 -16c-7 -4 -12 -5 -18 0l-94 75l-118 -75c-7 -5 -12 -4 -17 0l-29 16c-6 4 -7 10 -1 17l117 133c5 5 9 8 22 8zM453 560h119c10 0 14 -4 12 -15l-81 -516c-2 -13 -7 -15 -17 -17c-71 -13 -168 -17 -243 -17
c-192 0 -235 36 -203 241l49 309c2 11 9 15 19 15h118c10 0 13 -5 11 -15l-42 -271c-23 -144 -9 -151 83 -151h91l67 422c2 11 7 15 17 15z" />
    <glyph glyph-name="udieresis" unicode="&#xfc;" horiz-adv-x="608" 
d="M255 776c52 0 73 -28 65 -73c-7 -46 -38 -74 -89 -74c-49 0 -73 26 -65 74c7 48 40 73 89 73zM476 776c52 0 73 -28 66 -73c-7 -46 -39 -74 -90 -74c-49 0 -72 26 -65 74c8 48 40 73 89 73zM453 560h119c10 0 14 -4 12 -15l-81 -516c-2 -13 -7 -15 -17 -17
c-71 -13 -168 -17 -243 -17c-192 0 -235 36 -203 241l49 309c2 11 9 15 19 15h118c10 0 13 -5 11 -15l-42 -271c-23 -144 -9 -151 83 -151h91l67 422c2 11 7 15 17 15z" />
    <glyph glyph-name="udieresisacute" unicode="&#x1d8;" horiz-adv-x="608" 
d="M422 976h145c6 0 8 -3 8 -10v-6c0 -5 -1 -8 -7 -13l-199 -146c-5 -4 -9 -4 -14 0l-39 25c-4 3 -4 9 -1 14l94 130c3 4 7 6 13 6zM255 776c52 0 73 -28 65 -73c-7 -46 -38 -74 -89 -74c-49 0 -73 26 -65 74c7 48 40 73 89 73zM476 776c52 0 73 -28 66 -73
c-7 -46 -39 -74 -90 -74c-49 0 -72 26 -65 74c8 48 40 73 89 73zM453 560h119c10 0 14 -4 12 -15l-81 -516c-2 -13 -7 -15 -17 -17c-71 -13 -168 -17 -243 -17c-192 0 -235 36 -203 241l49 309c2 11 9 15 19 15h118c10 0 13 -5 11 -15l-42 -271c-23 -144 -9 -151 83 -151h91
l67 422c2 11 7 15 17 15z" />
    <glyph glyph-name="udieresiscaron" unicode="&#x1da;" horiz-adv-x="608" 
d="M514 972l28 -17c6 -4 7 -10 1 -16l-117 -133c-5 -5 -9 -9 -21 -9h-85c-13 0 -16 4 -19 9l-75 133c-4 6 -2 12 7 16l33 17c7 4 12 4 18 0l94 -75l118 75c7 4 12 4 18 0zM255 776c52 0 73 -28 65 -73c-7 -46 -38 -74 -89 -74c-49 0 -73 26 -65 74c7 48 40 73 89 73z
M476 776c52 0 73 -28 66 -73c-7 -46 -39 -74 -90 -74c-49 0 -72 26 -65 74c8 48 40 73 89 73zM453 560h119c10 0 14 -4 12 -15l-81 -516c-2 -13 -7 -15 -17 -17c-71 -13 -168 -17 -243 -17c-192 0 -235 36 -203 241l49 309c2 11 9 15 19 15h118c10 0 13 -5 11 -15l-42 -271
c-23 -144 -9 -151 83 -151h91l67 422c2 11 7 15 17 15z" />
    <glyph glyph-name="udieresisgrave" unicode="&#x1dc;" horiz-adv-x="608" 
d="M207 976h146c6 0 9 -2 11 -6l52 -130c3 -5 1 -11 -5 -14l-47 -25c-6 -4 -10 -5 -14 0l-150 144c-4 3 -4 7 -4 13v8c0 7 5 10 11 10zM255 776c52 0 73 -28 65 -73c-7 -46 -38 -74 -89 -74c-49 0 -73 26 -65 74c7 48 40 73 89 73zM476 776c52 0 73 -28 66 -73
c-7 -46 -39 -74 -90 -74c-49 0 -72 26 -65 74c8 48 40 73 89 73zM453 560h119c10 0 14 -4 12 -15l-81 -516c-2 -13 -7 -15 -17 -17c-71 -13 -168 -17 -243 -17c-192 0 -235 36 -203 241l49 309c2 11 9 15 19 15h118c10 0 13 -5 11 -15l-42 -271c-23 -144 -9 -151 83 -151h91
l67 422c2 11 7 15 17 15z" />
    <glyph glyph-name="udieresismacron" unicode="&#x1d6;" horiz-adv-x="608" 
d="M249 935h290c10 0 14 -5 13 -15l-10 -61c-2 -10 -7 -15 -17 -15h-290c-10 0 -15 5 -13 15l10 61c1 10 7 15 17 15zM255 776c52 0 73 -28 65 -73c-7 -46 -38 -74 -89 -74c-49 0 -73 26 -65 74c7 48 40 73 89 73zM476 776c52 0 73 -28 66 -73c-7 -46 -39 -74 -90 -74
c-49 0 -72 26 -65 74c8 48 40 73 89 73zM453 560h119c10 0 14 -4 12 -15l-81 -516c-2 -13 -7 -15 -17 -17c-71 -13 -168 -17 -243 -17c-192 0 -235 36 -203 241l49 309c2 11 9 15 19 15h118c10 0 13 -5 11 -15l-42 -271c-23 -144 -9 -151 83 -151h91l67 422c2 11 7 15 17 15
z" />
    <glyph glyph-name="ugrave" unicode="&#xf9;" horiz-adv-x="608" 
d="M206 792h146c6 0 9 -1 11 -6l52 -130c3 -5 1 -10 -5 -14l-47 -25c-6 -3 -10 -4 -14 0l-150 144c-4 3 -4 7 -4 13v8c0 7 5 10 11 10zM453 560h119c10 0 14 -4 12 -15l-81 -516c-2 -13 -7 -15 -17 -17c-71 -13 -168 -17 -243 -17c-192 0 -235 36 -203 241l49 309
c2 11 9 15 19 15h118c10 0 13 -5 11 -15l-42 -271c-23 -144 -9 -151 83 -151h91l67 422c2 11 7 15 17 15z" />
    <glyph glyph-name="uhungarumlaut" unicode="&#x171;" horiz-adv-x="608" 
d="M293 792h97c6 0 8 -3 8 -10v-6c0 -5 -3 -8 -8 -13l-169 -138c-5 -5 -9 -4 -14 0l-20 17c-4 4 -4 9 -1 14l94 130c3 4 7 6 13 6zM480 792h97c6 0 8 -3 8 -10v-6c0 -5 -2 -8 -8 -13l-169 -138c-6 -5 -10 -4 -14 0l-20 17c-4 4 -4 9 -1 14l94 130c2 4 7 6 13 6zM453 560h119
c10 0 14 -4 12 -15l-81 -516c-2 -13 -7 -15 -17 -17c-71 -13 -168 -17 -243 -17c-192 0 -235 36 -203 241l49 309c2 11 9 15 19 15h118c10 0 13 -5 11 -15l-42 -271c-23 -144 -9 -151 83 -151h91l67 422c2 11 7 15 17 15z" />
    <glyph glyph-name="umacron" unicode="&#x16b;" horiz-adv-x="608" 
d="M215 739h289c10 0 14 -5 13 -15l-10 -61c-2 -10 -7 -15 -17 -15h-290c-10 0 -14 5 -13 15l10 61c2 10 8 15 18 15zM453 560h119c10 0 14 -4 12 -15l-81 -516c-2 -13 -7 -15 -17 -17c-71 -13 -168 -17 -243 -17c-192 0 -235 36 -203 241l49 309c2 11 9 15 19 15h118
c10 0 13 -5 11 -15l-42 -271c-23 -144 -9 -151 83 -151h91l67 422c2 11 7 15 17 15z" />
    <glyph glyph-name="uogonek" unicode="&#x173;" horiz-adv-x="608" 
d="M453 560h119c10 0 14 -4 12 -15l-81 -516c-2 -13 -7 -15 -17 -17c-27 -5 -60 -9 -94 -12c-8 -22 -13 -37 -14 -50c-5 -26 16 -26 50 -26h36c10 0 13 -4 12 -14l-10 -61c-1 -9 -6 -15 -15 -18c-12 -5 -60 -8 -81 -8c-71 0 -102 23 -93 78c5 30 17 64 32 95
c-24 0 -47 -1 -66 -1c-192 0 -235 36 -203 241l49 309c2 11 9 15 19 15h118c10 0 13 -5 11 -15l-42 -271c-23 -144 -9 -151 83 -151h91l67 422c2 11 7 15 17 15z" />
    <glyph glyph-name="uring" unicode="&#x16f;" horiz-adv-x="608" 
d="M383 837c77 0 111 -38 100 -112c-12 -75 -59 -112 -135 -112s-111 37 -99 112c12 74 58 112 134 112zM376 787c-42 0 -66 -22 -72 -62c-6 -41 10 -62 52 -62c41 0 66 21 72 62c6 40 -11 62 -52 62zM453 560h119c10 0 14 -4 12 -15l-81 -516c-2 -13 -7 -15 -17 -17
c-71 -13 -168 -17 -243 -17c-192 0 -235 36 -203 241l49 309c2 11 9 15 19 15h118c10 0 13 -5 11 -15l-42 -271c-23 -144 -9 -151 83 -151h91l67 422c2 11 7 15 17 15z" />
    <glyph glyph-name="utilde" unicode="&#x169;" horiz-adv-x="608" 
d="M420 632c-52 0 -104 39 -137 39c-22 0 -34 -7 -50 -33c-6 -11 -11 -13 -20 -10l-41 12c-8 3 -12 9 -7 21c37 90 65 115 123 115c52 0 104 -39 137 -39c22 0 34 7 49 33c7 11 12 13 21 10l41 -12c9 -3 12 -9 7 -20c-38 -91 -65 -116 -123 -116zM453 560h119
c10 0 14 -4 12 -15l-81 -516c-2 -13 -7 -15 -17 -17c-71 -13 -168 -17 -243 -17c-192 0 -235 36 -203 241l49 309c2 11 9 15 19 15h118c10 0 13 -5 11 -15l-42 -271c-23 -144 -9 -151 83 -151h91l67 422c2 11 7 15 17 15z" />
    <glyph glyph-name="v" unicode="v" horiz-adv-x="584" 
d="M463 560h127c10 0 14 -4 10 -16l-181 -430c-46 -107 -61 -119 -182 -119c-116 0 -127 11 -139 119l-49 430c0 12 5 16 16 16h127c9 0 9 -4 11 -16l36 -399c3 -24 4 -28 17 -28c17 0 20 4 30 28l161 399c5 12 7 16 16 16z" />
    <glyph glyph-name="w" unicode="w" horiz-adv-x="883" 
d="M758 560h127c10 0 13 -3 10 -14l-158 -451c-31 -89 -61 -100 -153 -100c-115 0 -126 11 -131 100l-14 222l-83 -222c-35 -89 -49 -100 -163 -100c-93 0 -118 11 -122 100l-14 451c0 11 5 14 14 14h127c7 0 9 -3 10 -14l4 -408c0 -17 4 -19 13 -19c10 0 12 2 19 19
l155 391c4 11 10 14 18 14h117c8 0 12 -3 13 -14l31 -391c1 -17 3 -19 13 -19c9 0 13 2 20 19l133 408c4 11 7 14 14 14z" />
    <glyph glyph-name="wacute" unicode="&#x1e83;" horiz-adv-x="883" 
d="M547 792h145c6 0 7 -3 7 -10v-5c0 -5 0 -8 -7 -14l-198 -146c-6 -4 -9 -3 -14 0l-40 25c-4 4 -4 9 0 14l94 130c2 4 7 6 13 6zM758 560h127c10 0 13 -3 10 -14l-158 -451c-31 -89 -61 -100 -153 -100c-115 0 -126 11 -131 100l-14 222l-83 -222
c-35 -89 -49 -100 -163 -100c-93 0 -118 11 -122 100l-14 451c0 11 5 14 14 14h127c7 0 9 -3 10 -14l4 -408c0 -17 4 -19 13 -19c10 0 12 2 19 19l155 391c4 11 10 14 18 14h117c8 0 12 -3 13 -14l31 -391c1 -17 3 -19 13 -19c9 0 13 2 20 19l133 408c4 11 7 14 14 14z" />
    <glyph glyph-name="wcircumflex" unicode="&#x175;" horiz-adv-x="883" 
d="M472 792h85c13 0 16 -3 19 -8l74 -133c5 -7 2 -13 -6 -17l-34 -16c-6 -4 -11 -5 -17 0l-94 75l-118 -75c-7 -5 -12 -4 -18 0l-28 16c-7 4 -7 10 -1 17l117 133c4 5 8 8 21 8zM758 560h127c10 0 13 -3 10 -14l-158 -451c-31 -89 -61 -100 -153 -100
c-115 0 -126 11 -131 100l-14 222l-83 -222c-35 -89 -49 -100 -163 -100c-93 0 -118 11 -122 100l-14 451c0 11 5 14 14 14h127c7 0 9 -3 10 -14l4 -408c0 -17 4 -19 13 -19c10 0 12 2 19 19l155 391c4 11 10 14 18 14h117c8 0 12 -3 13 -14l31 -391c1 -17 3 -19 13 -19
c9 0 13 2 20 19l133 408c4 11 7 14 14 14z" />
    <glyph glyph-name="wdieresis" unicode="&#x1e85;" horiz-adv-x="883" 
d="M402 776c51 0 72 -28 65 -73c-7 -46 -38 -74 -89 -74c-49 0 -73 26 -66 74c8 48 41 73 90 73zM623 776c51 0 73 -28 66 -73c-8 -46 -39 -74 -90 -74c-49 0 -73 26 -65 74s40 73 89 73zM758 560h127c10 0 13 -3 10 -14l-158 -451c-31 -89 -61 -100 -153 -100
c-115 0 -126 11 -131 100l-14 222l-83 -222c-35 -89 -49 -100 -163 -100c-93 0 -118 11 -122 100l-14 451c0 11 5 14 14 14h127c7 0 9 -3 10 -14l4 -408c0 -17 4 -19 13 -19c10 0 12 2 19 19l155 391c4 11 10 14 18 14h117c8 0 12 -3 13 -14l31 -391c1 -17 3 -19 13 -19
c9 0 13 2 20 19l133 408c4 11 7 14 14 14z" />
    <glyph glyph-name="wgrave" unicode="&#x1e81;" horiz-adv-x="883" 
d="M312 792h145c6 0 9 -1 11 -6l53 -130c2 -5 0 -10 -6 -14l-47 -25c-6 -3 -10 -4 -14 0l-150 144c-3 3 -4 7 -4 13v8c0 7 6 10 12 10zM758 560h127c10 0 13 -3 10 -14l-158 -451c-31 -89 -61 -100 -153 -100c-115 0 -126 11 -131 100l-14 222l-83 -222
c-35 -89 -49 -100 -163 -100c-93 0 -118 11 -122 100l-14 451c0 11 5 14 14 14h127c7 0 9 -3 10 -14l4 -408c0 -17 4 -19 13 -19c10 0 12 2 19 19l155 391c4 11 10 14 18 14h117c8 0 12 -3 13 -14l31 -391c1 -17 3 -19 13 -19c9 0 13 2 20 19l133 408c4 11 7 14 14 14z" />
    <glyph glyph-name="x" unicode="x" horiz-adv-x="575" 
d="M437 560h143c13 0 14 -8 5 -18l-211 -249l146 -274c5 -10 1 -19 -11 -19h-144c-7 0 -12 4 -14 10l-87 168l-140 -168c-5 -6 -10 -10 -18 -10h-143c-12 0 -14 9 -5 19l233 274l-133 249c-7 10 -2 18 11 18h143c8 0 13 -3 16 -9l73 -142l117 142c6 6 12 9 19 9z" />
    <glyph glyph-name="y" unicode="y" horiz-adv-x="619" 
d="M463 560h119c10 0 14 -5 12 -15l-85 -533c-24 -150 -64 -219 -279 -219c-71 0 -130 4 -186 14c-9 1 -13 5 -11 16l12 76c2 11 6 15 16 15h175c88 0 113 20 123 86l1 6c-44 -8 -82 -11 -124 -11c-182 0 -224 70 -194 258l46 292c1 10 7 15 17 15h118c10 0 14 -5 13 -15
l-42 -264c-20 -129 -5 -157 95 -157c26 0 61 1 91 6l66 415c1 10 7 15 17 15z" />
    <glyph glyph-name="yacute" unicode="&#xfd;" horiz-adv-x="619" 
d="M389 792h145c6 0 8 -3 8 -10v-5c0 -5 -1 -8 -7 -14l-199 -146c-6 -4 -9 -3 -14 0l-39 25c-4 4 -4 9 -1 14l94 130c2 4 7 6 13 6zM463 560h119c10 0 14 -5 12 -15l-85 -533c-24 -150 -64 -219 -279 -219c-71 0 -130 4 -186 14c-9 1 -13 5 -11 16l12 76c2 11 6 15 16 15
h175c88 0 113 20 123 86l1 6c-44 -8 -82 -11 -124 -11c-182 0 -224 70 -194 258l46 292c1 10 7 15 17 15h118c10 0 14 -5 13 -15l-42 -264c-20 -129 -5 -157 95 -157c26 0 61 1 91 6l66 415c1 10 7 15 17 15z" />
    <glyph glyph-name="ycircumflex" unicode="&#x177;" horiz-adv-x="619" 
d="M339 792h84c13 0 16 -3 19 -8l75 -133c4 -7 2 -13 -7 -17l-33 -16c-7 -4 -12 -5 -18 0l-94 75l-118 -75c-7 -5 -12 -4 -17 0l-29 16c-6 4 -7 10 -1 17l117 133c5 5 9 8 22 8zM463 560h119c10 0 14 -5 12 -15l-85 -533c-24 -150 -64 -219 -279 -219c-71 0 -130 4 -186 14
c-9 1 -13 5 -11 16l12 76c2 11 6 15 16 15h175c88 0 113 20 123 86l1 6c-44 -8 -82 -11 -124 -11c-182 0 -224 70 -194 258l46 292c1 10 7 15 17 15h118c10 0 14 -5 13 -15l-42 -264c-20 -129 -5 -157 95 -157c26 0 61 1 91 6l66 415c1 10 7 15 17 15z" />
    <glyph glyph-name="ydieresis" unicode="&#xff;" horiz-adv-x="619" 
d="M268 776c51 0 72 -28 65 -73c-7 -46 -38 -74 -89 -74c-49 0 -73 26 -65 74c7 48 40 73 89 73zM489 776c51 0 73 -28 66 -73c-7 -46 -39 -74 -90 -74c-49 0 -73 26 -65 74s40 73 89 73zM463 560h119c10 0 14 -5 12 -15l-85 -533c-24 -150 -64 -219 -279 -219
c-71 0 -130 4 -186 14c-9 1 -13 5 -11 16l12 76c2 11 6 15 16 15h175c88 0 113 20 123 86l1 6c-44 -8 -82 -11 -124 -11c-182 0 -224 70 -194 258l46 292c1 10 7 15 17 15h118c10 0 14 -5 13 -15l-42 -264c-20 -129 -5 -157 95 -157c26 0 61 1 91 6l66 415c1 10 7 15 17 15z
" />
    <glyph glyph-name="ygrave" unicode="&#x1ef3;" horiz-adv-x="619" 
d="M219 792h146c6 0 9 -1 11 -6l52 -130c2 -5 0 -10 -6 -14l-46 -25c-6 -3 -10 -4 -14 0l-150 144c-4 3 -4 7 -4 13v8c0 7 5 10 11 10zM463 560h119c10 0 14 -5 12 -15l-85 -533c-24 -150 -64 -219 -279 -219c-71 0 -130 4 -186 14c-9 1 -13 5 -11 16l12 76c2 11 6 15 16 15
h175c88 0 113 20 123 86l1 6c-44 -8 -82 -11 -124 -11c-182 0 -224 70 -194 258l46 292c1 10 7 15 17 15h118c10 0 14 -5 13 -15l-42 -264c-20 -129 -5 -157 95 -157c26 0 61 1 91 6l66 415c1 10 7 15 17 15z" />
    <glyph glyph-name="ytilde" unicode="&#x1ef9;" horiz-adv-x="619" 
d="M433 632c-52 0 -105 39 -137 39c-23 0 -34 -7 -50 -33c-7 -11 -11 -13 -20 -10l-41 12c-8 3 -12 9 -7 21c37 90 65 115 123 115c52 0 104 -39 137 -39c22 0 34 7 49 33c7 11 12 13 21 10l41 -12c9 -3 11 -9 7 -20c-38 -91 -65 -116 -123 -116zM463 560h119
c10 0 14 -5 12 -15l-85 -533c-24 -150 -64 -219 -279 -219c-71 0 -130 4 -186 14c-9 1 -13 5 -11 16l12 76c2 11 6 15 16 15h175c88 0 113 20 123 86l1 6c-44 -8 -82 -11 -124 -11c-182 0 -224 70 -194 258l46 292c1 10 7 15 17 15h118c10 0 14 -5 13 -15l-42 -264
c-20 -129 -5 -157 95 -157c26 0 61 1 91 6l66 415c1 10 7 15 17 15z" />
    <glyph glyph-name="z" unicode="z" horiz-adv-x="539" 
d="M95 560h422c11 0 16 -5 14 -15l-10 -68c-2 -8 -5 -13 -10 -19l-299 -330h249c11 0 16 -5 15 -15l-16 -97c-1 -11 -8 -16 -19 -16h-446c-12 0 -17 5 -15 16l11 65c1 7 3 12 9 19l307 335h-232c-12 0 -16 5 -15 15l15 95c2 10 8 15 20 15z" />
    <glyph glyph-name="zacute" unicode="&#x17a;" horiz-adv-x="539" 
d="M338 792h146c6 0 7 -3 7 -10v-5c0 -5 0 -8 -7 -14l-198 -146c-6 -4 -9 -3 -14 0l-40 25c-4 4 -4 9 0 14l93 130c3 4 7 6 13 6zM95 560h422c11 0 16 -5 14 -15l-10 -68c-2 -8 -5 -13 -10 -19l-299 -330h249c11 0 16 -5 15 -15l-16 -97c-1 -11 -8 -16 -19 -16h-446
c-12 0 -17 5 -15 16l11 65c1 7 3 12 9 19l307 335h-232c-12 0 -16 5 -15 15l15 95c2 10 8 15 20 15z" />
    <glyph glyph-name="zcaron" unicode="&#x17e;" horiz-adv-x="539" 
d="M467 789l29 -16c6 -4 6 -10 1 -17l-118 -133c-4 -5 -8 -8 -21 -8h-85c-13 0 -16 3 -18 8l-75 133c-5 7 -2 13 6 17l34 16c7 4 12 5 17 0l95 -75l118 75c6 5 11 4 17 0zM95 560h422c11 0 16 -5 14 -15l-10 -68c-2 -8 -5 -13 -10 -19l-299 -330h249c11 0 16 -5 15 -15
l-16 -97c-1 -11 -8 -16 -19 -16h-446c-12 0 -17 5 -15 16l11 65c1 7 3 12 9 19l307 335h-232c-12 0 -16 5 -15 15l15 95c2 10 8 15 20 15z" />
    <glyph glyph-name="zdotaccent" unicode="&#x17c;" horiz-adv-x="539" 
d="M341 778c55 0 79 -26 71 -75c-8 -51 -43 -76 -95 -76s-78 25 -70 76s42 75 94 75zM95 560h422c11 0 16 -5 14 -15l-10 -68c-2 -8 -5 -13 -10 -19l-299 -330h249c11 0 16 -5 15 -15l-16 -97c-1 -11 -8 -16 -19 -16h-446c-12 0 -17 5 -15 16l11 65c1 7 3 12 9 19l307 335
h-232c-12 0 -16 5 -15 15l15 95c2 10 8 15 20 15z" />
    <glyph glyph-name="g.alt" horiz-adv-x="596" 
d="M558 598l48 -57c7 -7 5 -14 -4 -22l-50 -44c6 -29 4 -67 -4 -117c-25 -157 -75 -196 -283 -196c-29 0 -54 1 -76 4l-9 -17c-14 -26 -11 -34 36 -38l188 -17c96 -10 95 -76 85 -143l-2 -11c-20 -120 -108 -143 -265 -143c-100 0 -222 8 -234 9s-13 7 -12 15l13 78
c1 11 7 16 19 16h261c53 0 69 5 74 31v5c3 18 -1 26 -36 29l-199 18c-89 8 -86 69 -57 127l34 64c-49 28 -56 79 -41 169c26 167 77 207 285 207c67 0 116 -4 151 -16l57 49c8 8 15 8 21 0zM309 442c-89 0 -107 -22 -117 -85c-10 -65 2 -86 90 -86s107 21 117 86
c10 63 -1 85 -90 85z" />
    <glyph glyph-name="gbreve.alt" horiz-adv-x="596" 
d="M470 780h58c11 0 15 -4 12 -15c-30 -102 -79 -137 -195 -137c-119 0 -152 35 -153 136c0 12 6 16 17 16h58c9 0 13 -3 15 -12c10 -38 30 -50 77 -50c46 0 70 12 92 50c4 9 10 12 19 12zM558 598l48 -57c7 -7 5 -14 -4 -22l-50 -44c6 -29 4 -67 -4 -117
c-25 -157 -75 -196 -283 -196c-29 0 -54 1 -76 4l-9 -17c-14 -26 -11 -34 36 -38l188 -17c96 -10 95 -76 85 -143l-2 -11c-20 -120 -108 -143 -265 -143c-100 0 -222 8 -234 9s-13 7 -12 15l13 78c1 11 7 16 19 16h261c53 0 69 5 74 31v5c3 18 -1 26 -36 29l-199 18
c-89 8 -86 69 -57 127l34 64c-49 28 -56 79 -41 169c26 167 77 207 285 207c67 0 116 -4 151 -16l57 49c8 8 15 8 21 0zM309 442c-89 0 -107 -22 -117 -85c-10 -65 2 -86 90 -86s107 21 117 86c10 63 -1 85 -90 85z" />
    <glyph glyph-name="gcircumflex.alt" horiz-adv-x="596" 
d="M326 792h85c13 0 16 -3 18 -8l75 -133c5 -7 2 -13 -6 -17l-34 -16c-7 -4 -12 -5 -17 0l-94 75l-119 -75c-6 -5 -12 -4 -17 0l-29 16c-6 4 -6 10 -1 17l117 133c5 5 9 8 22 8zM558 598l48 -57c7 -7 5 -14 -4 -22l-50 -44c6 -29 4 -67 -4 -117c-25 -157 -75 -196 -283 -196
c-29 0 -54 1 -76 4l-9 -17c-14 -26 -11 -34 36 -38l188 -17c96 -10 95 -76 85 -143l-2 -11c-20 -120 -108 -143 -265 -143c-100 0 -222 8 -234 9s-13 7 -12 15l13 78c1 11 7 16 19 16h261c53 0 69 5 74 31v5c3 18 -1 26 -36 29l-199 18c-89 8 -86 69 -57 127l34 64
c-49 28 -56 79 -41 169c26 167 77 207 285 207c67 0 116 -4 151 -16l57 49c8 8 15 8 21 0zM309 442c-89 0 -107 -22 -117 -85c-10 -65 2 -86 90 -86s107 21 117 86c10 63 -1 85 -90 85z" />
    <glyph glyph-name="gcommaaccent.alt" horiz-adv-x="596" 
d="M443 779l35 -21c5 -3 5 -9 2 -14l-74 -117c-3 -4 -7 -6 -13 -6h-129c-6 0 -9 3 -9 10v6c0 5 1 9 6 13l168 129c5 4 9 4 14 0zM558 598l49 -57c6 -7 4 -14 -4 -22l-51 -44c7 -29 5 -67 -3 -117c-25 -157 -76 -196 -284 -196c-29 0 -54 1 -76 4l-9 -17
c-13 -26 -11 -34 37 -38l187 -17c96 -10 96 -76 85 -143l-2 -11c-19 -120 -108 -143 -265 -143c-99 0 -221 8 -234 9c-12 1 -12 7 -11 15l12 78c2 11 7 16 19 16h261c53 0 70 5 74 31v5c3 18 -1 26 -36 29l-198 18c-90 8 -87 69 -57 127l33 64c-48 28 -55 79 -41 169
c27 167 78 207 285 207c67 0 116 -4 151 -16l57 49c8 8 15 8 21 0zM309 442c-88 0 -106 -22 -116 -85c-11 -65 2 -86 89 -86c88 0 107 21 118 86c10 63 -1 85 -91 85z" />
    <glyph glyph-name="gdotaccent.alt" horiz-adv-x="596" 
d="M360 778c54 0 78 -26 71 -75c-8 -51 -43 -76 -95 -76s-79 25 -71 76c9 51 43 75 95 75zM558 598l48 -57c7 -7 5 -14 -4 -22l-50 -44c6 -29 4 -67 -4 -117c-25 -157 -75 -196 -283 -196c-29 0 -54 1 -76 4l-9 -17c-14 -26 -11 -34 36 -38l188 -17c96 -10 95 -76 85 -143
l-2 -11c-20 -120 -108 -143 -265 -143c-100 0 -222 8 -234 9s-13 7 -12 15l13 78c1 11 7 16 19 16h261c53 0 69 5 74 31v5c3 18 -1 26 -36 29l-199 18c-89 8 -86 69 -57 127l34 64c-49 28 -56 79 -41 169c26 167 77 207 285 207c67 0 116 -4 151 -16l57 49c8 8 15 8 21 0z
M309 442c-89 0 -107 -22 -117 -85c-10 -65 2 -86 90 -86s107 21 117 86c10 63 -1 85 -90 85z" />
    <glyph glyph-name="ordfeminine" unicode="&#xaa;" horiz-adv-x="382" 
d="M254 780c112 0 136 -37 127 -98l-33 -208c-1 -7 -4 -15 -16 -19c-30 -9 -79 -15 -142 -15c-87 0 -126 11 -112 101c14 82 61 100 133 100h83l5 27c5 29 -10 42 -57 42h-103c-8 0 -9 2 -8 10l6 39c2 9 5 11 12 12c39 7 74 9 105 9zM284 577h-68c-35 0 -53 -6 -57 -36
c-5 -28 15 -34 45 -34c17 0 50 1 70 5zM87 382h222c10 0 14 -5 13 -15l-5 -29c-2 -10 -7 -15 -17 -15h-222c-10 0 -15 5 -13 15l5 29c1 10 7 15 17 15z" />
    <glyph glyph-name="ordmasculine" unicode="&#xba;" horiz-adv-x="396" 
d="M269 780c124 0 144 -34 122 -170c-21 -137 -51 -170 -175 -170c-123 0 -144 33 -123 170c22 136 53 170 176 170zM258 710c-62 0 -72 -19 -84 -100c-13 -81 -10 -100 52 -100c64 0 73 19 85 100c13 81 10 100 -53 100zM95 382h222c10 0 15 -5 13 -15l-5 -29
c-1 -10 -7 -15 -17 -15h-222c-10 0 -14 5 -13 15l5 29c2 10 7 15 17 15z" />
    <glyph glyph-name="uni0410" unicode="&#x410;" horiz-adv-x="705" 
d="M423 780c120 0 138 -11 151 -120l74 -644c-1 -12 -6 -16 -16 -16h-128c-9 0 -10 4 -10 16l-25 208h-267l-91 -208c-5 -12 -7 -16 -17 -16h-127c-11 0 -14 4 -10 16l280 644c48 109 70 120 186 120zM402 648c-17 0 -20 -5 -30 -29l-114 -265h197l-30 265
c-3 24 -3 29 -23 29z" />
    <glyph glyph-name="uni0411" unicode="&#x411;" horiz-adv-x="696" 
d="M157 774h518c10 0 15 -5 14 -15l-17 -107c-2 -10 -8 -15 -18 -15h-377l-26 -161h161c187 0 263 -50 237 -214l-9 -55c-25 -163 -117 -212 -304 -212c-82 0 -214 3 -302 10c-11 1 -14 4 -12 14l117 740c1 10 7 15 18 15zM381 343h-151l-33 -211h150c86 0 125 20 138 96
l2 16c12 80 -26 99 -106 99z" />
    <glyph glyph-name="uni0412" unicode="&#x412;" horiz-adv-x="699" 
d="M436 780c194 0 269 -54 243 -215c-17 -108 -56 -160 -139 -175l-1 -3c97 -12 118 -73 101 -180c-25 -163 -117 -212 -304 -212c-82 0 -214 3 -302 10c-11 1 -14 4 -12 14l116 736c2 11 5 13 17 14c91 8 200 11 281 11zM399 643h-121l-32 -199h102c112 0 155 13 169 97
c12 81 -24 102 -118 102zM379 331h-151l-31 -199h150c86 0 125 20 138 96c12 82 -25 103 -106 103z" />
    <glyph glyph-name="uni0413" unicode="&#x413;" horiz-adv-x="560" 
d="M156 774h447c10 0 15 -5 14 -15l-17 -107c-2 -10 -8 -15 -18 -15h-305l-99 -621c-1 -10 -7 -16 -17 -16h-127c-10 0 -14 6 -13 16l118 743c1 10 7 15 17 15z" />
    <glyph glyph-name="uni0414" unicode="&#x414;" horiz-adv-x="733" 
d="M284 774h404c10 0 14 -5 13 -15l-99 -622h50c10 0 15 -5 13 -15l-40 -255c-2 -11 -7 -16 -17 -16h-121c-10 0 -14 5 -13 16l21 133h-371l-21 -133c-2 -11 -7 -16 -17 -16h-121c-10 0 -14 5 -13 16l41 258c2 10 8 12 18 12h41c49 17 71 73 89 142l126 479c2 11 7 16 17 16
zM524 637h-132l-107 -405c-9 -35 -20 -67 -34 -95h194z" />
    <glyph glyph-name="uni0415" unicode="&#x415;" horiz-adv-x="645" 
d="M156 774h501c10 0 15 -5 14 -15l-17 -107c-2 -10 -8 -15 -18 -15h-359l-30 -189h328c10 0 15 -5 14 -15l-17 -102c-1 -10 -8 -15 -18 -15h-328l-28 -179h359c10 0 14 -5 13 -15l-18 -107c-1 -10 -7 -15 -17 -15h-501c-10 0 -14 5 -13 16l118 743c1 10 7 15 17 15z" />
    <glyph glyph-name="uni0401" unicode="&#x401;" horiz-adv-x="645" 
d="M319 976c50 0 72 -27 65 -73c-8 -47 -39 -74 -89 -74c-51 0 -73 27 -66 74c7 46 39 73 90 73zM540 976c50 0 73 -27 65 -73c-7 -47 -39 -74 -89 -74c-51 0 -73 27 -65 74c7 46 38 73 89 73zM156 774h501c10 0 15 -5 14 -15l-17 -107c-2 -10 -8 -15 -18 -15h-359l-30 -189
h328c10 0 15 -5 14 -15l-17 -102c-1 -10 -8 -15 -18 -15h-328l-28 -179h359c10 0 14 -5 13 -15l-18 -107c-1 -10 -7 -15 -17 -15h-501c-10 0 -14 5 -13 16l118 743c1 10 7 15 17 15z" />
    <glyph glyph-name="uni0416" unicode="&#x416;" horiz-adv-x="1018" 
d="M913 774h141c18 0 16 -8 6 -19l-305 -337l217 -391c7 -13 6 -27 -21 -27h-141c-10 0 -17 4 -20 11l-192 371l-59 -366c-1 -11 -7 -16 -17 -16h-128c-10 0 -14 5 -12 16l58 366l-310 -371c-5 -7 -14 -11 -24 -11h-141c-27 0 -23 14 -13 27l342 391l-199 337
c-6 11 -6 19 12 19h141c9 0 16 -4 20 -10l181 -323l51 318c1 10 7 15 17 15h127c10 0 14 -5 13 -15l-51 -318l285 323c6 6 13 10 22 10z" />
    <glyph glyph-name="uni0417" unicode="&#x417;" horiz-adv-x="630" 
d="M344 780c198 0 299 -32 274 -195l-8 -45c-9 -61 -35 -133 -122 -152c81 -20 84 -92 75 -151l-7 -44c-26 -163 -136 -198 -337 -198c-78 0 -162 5 -209 15c-15 4 -22 7 -20 21l14 89c1 9 7 12 17 12h208c133 0 162 18 174 90l1 9c10 68 -4 94 -107 94h-198
c-10 0 -13 4 -12 14l16 97c1 10 6 14 16 14h197c103 0 127 25 138 95l2 13c12 71 -19 85 -150 85h-204c-10 0 -14 3 -13 12l15 87c1 15 10 19 25 23c51 9 136 15 215 15z" />
    <glyph glyph-name="uni0418" unicode="&#x418;" horiz-adv-x="785" 
d="M671 774h99c10 0 14 -5 13 -16l-118 -742c-2 -11 -8 -16 -18 -16h-127c-10 0 -14 5 -12 16l77 490l-404 -481c-17 -19 -30 -25 -54 -25h-93c-10 0 -14 5 -13 16l118 742c1 11 7 16 17 16h127c10 0 14 -5 13 -16l-75 -470l382 453c21 24 28 33 68 33z" />
    <glyph glyph-name="uni0419" unicode="&#x419;" horiz-adv-x="785" 
d="M593 980h58c11 0 15 -4 11 -15c-30 -102 -79 -137 -195 -137s-154 34 -152 136c0 11 6 16 17 16h58c9 0 13 -3 15 -12c10 -38 30 -50 77 -50c46 0 69 12 92 50c4 9 10 12 19 12zM671 774h99c10 0 14 -5 13 -16l-118 -742c-2 -11 -8 -16 -18 -16h-127c-10 0 -14 5 -12 16
l77 490l-404 -481c-17 -19 -30 -25 -54 -25h-93c-10 0 -14 5 -13 16l118 742c1 11 7 16 17 16h127c10 0 14 -5 13 -16l-75 -470l382 453c21 24 28 33 68 33z" />
    <glyph glyph-name="uni041A" unicode="&#x41a;" horiz-adv-x="675" 
d="M570 774h141c18 0 16 -8 6 -19l-313 -337l225 -391c7 -13 6 -27 -21 -27h-140c-10 0 -17 4 -20 11l-211 371l-59 -366c-1 -11 -7 -16 -17 -16h-127c-10 0 -14 5 -13 16l118 743c1 10 7 15 17 15h127c10 0 14 -5 13 -15l-50 -318l302 323c6 6 13 10 22 10z" />
    <glyph glyph-name="uni041B" unicode="&#x41b;" horiz-adv-x="715" 
d="M296 774h404c10 0 14 -5 13 -15l-118 -743c-2 -10 -8 -16 -18 -16h-127c-10 0 -14 6 -12 16l98 621h-133l-112 -430c-40 -151 -112 -212 -228 -212c-28 0 -51 3 -71 9c-16 6 -21 11 -18 27l14 86c1 10 7 15 17 15h23c75 0 97 38 118 122l133 504c2 11 7 16 17 16z" />
    <glyph glyph-name="uni041C" unicode="&#x41c;" horiz-adv-x="981" 
d="M804 775h121c10 0 11 -7 11 -16l-46 -743c0 -11 -7 -16 -17 -16h-127c-10 0 -13 5 -13 16l33 480l-253 -457c-5 -10 -13 -15 -23 -15h-95c-9 0 -15 5 -19 15l-106 457l-121 -480c-2 -11 -7 -16 -17 -16h-127c-10 0 -15 5 -13 16l190 742c2 10 5 16 15 16h121
c32 0 44 -8 51 -39l109 -487l263 487c18 32 31 40 63 40z" />
    <glyph glyph-name="uni041D" unicode="&#x41d;" horiz-adv-x="786" 
d="M644 774h127c10 0 14 -5 13 -16l-118 -742c-1 -11 -7 -16 -17 -16h-127c-10 0 -14 5 -13 16l48 302h-331l-48 -302c-1 -11 -7 -16 -17 -16h-127c-10 0 -14 5 -13 16l118 742c1 11 7 16 17 16h127c10 0 14 -5 13 -16l-48 -301h331l48 301c1 11 7 16 17 16z" />
    <glyph glyph-name="uni041E" unicode="&#x41e;" horiz-adv-x="740" 
d="M441 780c255 0 310 -90 262 -394c-48 -302 -131 -391 -386 -391s-310 89 -262 391c48 304 131 394 386 394zM420 643c-138 0 -175 -61 -206 -257c-31 -194 -13 -254 125 -254s174 60 205 254c31 196 14 257 -124 257z" />
    <glyph glyph-name="uni041F" unicode="&#x41f;" horiz-adv-x="705" 
d="M156 774h534c10 0 14 -5 13 -15l-118 -743c-2 -10 -8 -16 -18 -16h-127c-10 0 -14 6 -12 16l98 621h-249l-99 -621c-1 -10 -7 -16 -17 -16h-127c-10 0 -14 6 -13 16l118 743c1 10 7 15 17 15z" />
    <glyph glyph-name="uni0420" unicode="&#x420;" horiz-adv-x="673" 
d="M423 780c220 0 285 -57 253 -257c-32 -202 -112 -243 -332 -243h-124l-42 -264c-2 -13 -5 -16 -17 -16h-127c-12 0 -15 3 -13 16l117 739c2 11 5 13 17 14c91 8 187 11 268 11zM386 643h-108l-39 -242h108c119 0 153 16 170 118c16 100 -13 124 -131 124z" />
    <glyph glyph-name="uni0421" unicode="&#x421;" horiz-adv-x="619" 
d="M439 780c87 0 147 -6 194 -15c15 -4 21 -10 19 -27l-13 -80c-2 -10 -8 -15 -18 -15h-204c-138 0 -171 -60 -202 -255c-32 -195 -17 -256 121 -256h205c10 0 14 -5 12 -15l-13 -81c-2 -16 -11 -22 -26 -26c-51 -10 -112 -15 -200 -15c-255 0 -306 90 -258 393
s128 392 383 392z" />
    <glyph glyph-name="uni0422" unicode="&#x422;" horiz-adv-x="636" 
d="M101 774h575c10 0 14 -5 13 -15l-17 -107c-1 -10 -8 -15 -18 -15h-209l-98 -621c-2 -11 -8 -16 -18 -16h-127c-10 0 -14 5 -12 16l98 621h-209c-10 0 -14 5 -13 15l17 107c1 10 7 15 18 15z" />
    <glyph glyph-name="uni0423" unicode="&#x423;" horiz-adv-x="612" 
d="M538 774h136c11 0 15 -7 10 -17l-292 -564c-78 -149 -153 -198 -261 -198c-33 0 -64 5 -92 13c-14 5 -22 11 -18 27l12 82c2 10 8 15 18 15h69c51 0 77 20 110 74l-167 550c-3 11 3 18 14 18h141c8 0 14 -3 16 -11l105 -347l180 346c5 8 10 12 19 12z" />
    <glyph glyph-name="uni0424" unicode="&#x424;" horiz-adv-x="845" 
d="M434 782h121c10 0 14 -6 13 -17l-12 -71c242 -10 306 -71 269 -303c-36 -232 -120 -293 -364 -303l-12 -72c-1 -11 -7 -16 -17 -16h-122c-10 0 -14 5 -13 16l12 72c-241 10 -306 71 -270 303c37 232 121 293 366 303l11 71c2 11 8 17 18 17zM331 228l52 326
c-131 -9 -166 -45 -185 -163s5 -154 133 -163zM534 554l-52 -326c131 9 167 45 185 163c19 118 -5 154 -133 163z" />
    <glyph glyph-name="uni0425" unicode="&#x425;" horiz-adv-x="698" 
d="M593 774h141c15 0 19 -8 8 -22l-290 -349l196 -383c8 -16 -1 -22 -15 -22h-141c-15 0 -19 5 -24 16l-127 266l-210 -264c-9 -11 -15 -16 -30 -16h-141c-14 0 -21 6 -8 22l317 381l-179 349c-7 14 -1 22 14 22h141c16 0 20 -6 25 -16l110 -233l184 233c7 10 13 16 29 16z
" />
    <glyph glyph-name="uni0427" unicode="&#x427;" horiz-adv-x="675" 
d="M533 774h127c10 0 14 -5 13 -16l-118 -742c-1 -11 -7 -16 -17 -16h-127c-10 0 -14 5 -13 16l40 253h-110c-220 0 -288 40 -255 243l40 247c1 10 7 15 17 15h128c10 0 14 -5 13 -15l-37 -235c-17 -102 12 -118 131 -118h95l56 352c1 11 7 16 17 16z" />
    <glyph glyph-name="uni0426" unicode="&#x426;" horiz-adv-x="744" 
d="M567 774h128c10 0 14 -5 13 -15l-99 -622h65c10 0 15 -5 13 -15l-41 -255c-1 -11 -7 -16 -17 -16h-120c-10 0 -14 5 -13 16l22 133h-484c-10 0 -14 5 -13 16l118 743c1 10 7 15 17 15h127c10 0 14 -5 13 -15l-98 -622h254l98 622c1 10 7 15 17 15z" />
    <glyph glyph-name="uni0428" unicode="&#x428;" horiz-adv-x="985" 
d="M843 774h127c10 0 14 -5 13 -15l-118 -743c-1 -11 -7 -16 -17 -16h-815c-10 0 -14 5 -12 16l118 743c1 10 7 15 17 15h127c10 0 14 -5 13 -15l-98 -622h186l98 622c1 10 7 15 17 15h128c10 0 14 -5 13 -15l-99 -622h187l98 622c1 10 7 15 17 15z" />
    <glyph glyph-name="uni0429" unicode="&#x429;" horiz-adv-x="1019" 
d="M843 774h127c10 0 14 -5 13 -15l-98 -622h65c10 0 14 -5 13 -15l-41 -255c-2 -11 -7 -16 -17 -16h-120c-10 0 -15 5 -13 16l21 133h-760c-10 0 -14 5 -12 16l118 743c1 10 7 15 17 15h127c10 0 14 -5 13 -15l-98 -622h186l98 622c1 10 7 15 17 15h128c10 0 14 -5 13 -15
l-99 -622h187l98 622c1 10 7 15 17 15z" />
    <glyph glyph-name="uni042F" unicode="&#x42f;" horiz-adv-x="691" 
d="M411 780c81 0 177 -3 264 -11c12 -1 15 -3 13 -14l-117 -739c-2 -13 -5 -16 -17 -16h-128c-12 0 -15 3 -12 16l42 264h-93l-205 -258c-12 -15 -20 -22 -43 -22h-125c-15 0 -19 9 -9 20l212 270c-110 22 -140 82 -116 233c32 200 114 257 334 257zM513 643h-108
c-119 0 -154 -24 -170 -124c-16 -102 13 -118 131 -118h109z" />
    <glyph glyph-name="uni042C" unicode="&#x42c;" horiz-adv-x="687" 
d="M156 774h127c10 0 14 -5 13 -15l-45 -283h161c187 0 263 -50 237 -214l-9 -55c-25 -163 -117 -212 -304 -212c-82 0 -214 3 -302 10c-11 1 -14 4 -12 14l117 740c1 10 7 15 17 15zM381 343h-151l-33 -211h150c86 0 125 20 138 96l2 16c12 80 -26 99 -106 99z" />
    <glyph glyph-name="uni042A" unicode="&#x42a;" horiz-adv-x="746" 
d="M99 774h243c10 0 14 -5 13 -15l-45 -283h161c187 0 263 -50 237 -214l-9 -55c-25 -163 -117 -212 -304 -212c-82 0 -213 3 -302 10c-11 1 -14 4 -12 14l98 618h-102c-10 0 -14 5 -13 15l17 107c1 10 8 15 18 15zM440 343h-151l-33 -211h150c86 0 125 20 138 96l2 16
c13 80 -26 99 -106 99z" />
    <glyph glyph-name="uni042B" unicode="&#x42b;" horiz-adv-x="971" 
d="M156 774h128c10 0 14 -5 13 -15l-46 -283h161c187 0 263 -50 238 -214l-10 -55c-25 -163 -117 -212 -304 -212c-82 0 -213 3 -301 10c-12 1 -14 4 -13 14l117 740c1 10 7 15 17 15zM829 774h127c10 0 14 -5 13 -16l-118 -742c-2 -11 -8 -16 -18 -16h-127
c-10 0 -14 5 -12 16l118 742c1 11 7 16 17 16zM381 343h-151l-33 -211h150c87 0 126 20 138 96l2 16c13 80 -26 99 -106 99z" />
    <glyph glyph-name="uni042D" unicode="&#x42d;" horiz-adv-x="644" 
d="M348 780c255 0 307 -89 259 -392s-129 -393 -384 -393c-87 0 -172 5 -219 15c-14 4 -21 10 -19 26l13 81c2 10 8 15 18 15h229c122 0 162 46 191 192h-275c-10 0 -15 5 -13 15l15 98c1 10 8 15 18 15h276c16 145 -9 191 -131 191h-230c-10 0 -14 5 -12 15l13 80
c2 17 11 23 26 27c51 9 137 15 225 15z" />
    <glyph glyph-name="uni042E" unicode="&#x42e;" horiz-adv-x="1026" 
d="M728 780c255 0 310 -90 262 -394c-48 -302 -132 -391 -386 -391c-235 0 -299 76 -271 323h-107l-48 -302c-1 -11 -7 -16 -17 -16h-127c-10 0 -14 5 -13 16l118 742c1 11 7 16 17 16h127c10 0 14 -5 13 -16l-48 -301h107c51 247 139 323 373 323zM706 643
c-138 0 -174 -61 -205 -257c-31 -194 -13 -254 125 -254s174 60 205 254c31 196 13 257 -125 257z" />
    <glyph glyph-name="uni0430" unicode="&#x430;" horiz-adv-x="565" 
d="M304 565c198 0 233 -64 216 -172l-55 -346c-3 -16 -9 -25 -27 -31c-73 -16 -162 -21 -231 -21c-150 0 -227 16 -203 173c23 135 97 164 230 164h127l6 36c8 48 -18 69 -83 69h-180c-11 0 -14 5 -12 17l13 80c2 12 6 14 16 16c63 12 122 15 183 15zM347 236h-116
c-51 0 -72 -17 -79 -60c-8 -48 12 -61 75 -61c21 0 71 2 102 10z" />
    <glyph glyph-name="uni0431" unicode="&#x431;" horiz-adv-x="604" 
d="M541 780h46c12 0 14 -13 10 -36c-14 -89 -62 -113 -146 -123c-142 -18 -208 -26 -237 -127c36 33 80 43 148 43c177 0 223 -58 192 -257c-37 -228 -93 -285 -301 -285c-207 0 -246 57 -210 285l15 93c45 279 136 341 362 374c55 7 70 10 87 17c15 7 9 16 34 16zM320 416
c-91 0 -111 -32 -128 -136c-20 -126 -10 -157 81 -157c92 0 112 31 132 157c17 104 7 136 -85 136z" />
    <glyph glyph-name="uni0432" unicode="&#x432;" horiz-adv-x="567" 
d="M333 565c159 0 213 -43 196 -156c-14 -83 -44 -118 -116 -128v-2c81 -6 101 -42 88 -128c-18 -114 -87 -156 -243 -156c-71 0 -164 1 -238 9c-9 1 -11 7 -10 14l83 525c1 8 5 12 15 13c76 7 154 9 225 9zM299 443h-71l-19 -113h63c76 0 105 13 112 56c6 41 -18 57 -85 57
zM284 232h-90l-17 -112l90 -1c63 1 90 14 96 55c7 43 -18 58 -79 58z" />
    <glyph glyph-name="uni0433" unicode="&#x433;" horiz-adv-x="467" 
d="M110 560h362c9 0 13 -4 11 -13l-17 -111c-1 -8 -6 -13 -15 -13h-219l-65 -410c-1 -8 -6 -13 -15 -13h-130c-9 0 -13 5 -12 13l84 534c2 9 7 13 16 13z" />
    <glyph glyph-name="uni0434" unicode="&#x434;" horiz-adv-x="596" 
d="M201 560h332c9 0 13 -4 11 -13l-66 -420h42c9 0 13 -5 12 -14l-32 -199c-2 -9 -7 -13 -16 -13h-110c-8 0 -12 4 -11 13l14 86h-271l-14 -86c-2 -9 -7 -13 -16 -13h-109c-9 0 -13 4 -12 13l32 200c1 8 7 13 16 13h30c38 13 56 63 69 108l83 313c2 8 7 12 16 12zM382 434
h-81l-66 -241c-5 -22 -13 -45 -23 -66h121z" />
    <glyph glyph-name="uni0435" unicode="&#x435;" horiz-adv-x="572" 
d="M331 565c197 0 236 -55 201 -278l-5 -31c-3 -20 -10 -27 -36 -27h-313c-13 -90 8 -106 96 -106h177c10 0 14 -5 13 -15l-13 -83c-2 -11 -8 -15 -17 -16c-55 -11 -127 -14 -194 -14c-202 0 -242 57 -206 285c36 229 95 285 297 285zM310 437c-75 0 -104 -23 -119 -111h199
c13 88 -6 111 -80 111z" />
    <glyph glyph-name="uni0451" unicode="&#x451;" horiz-adv-x="572" 
d="M253 776c50 0 73 -27 65 -73c-7 -47 -38 -74 -88 -74c-51 0 -74 27 -66 74c7 46 38 73 89 73zM474 776c50 0 73 -27 66 -73c-8 -47 -39 -74 -89 -74c-51 0 -73 27 -66 74c7 46 38 73 89 73zM331 565c197 0 236 -55 201 -278l-5 -31c-3 -20 -10 -27 -36 -27h-313
c-13 -90 8 -106 96 -106h177c10 0 14 -5 13 -15l-13 -83c-2 -11 -8 -15 -17 -16c-55 -11 -127 -14 -194 -14c-202 0 -242 57 -206 285c36 229 95 285 297 285zM310 437c-75 0 -104 -23 -119 -111h199c13 88 -6 111 -80 111z" />
    <glyph glyph-name="uni0436" unicode="&#x436;" horiz-adv-x="885" 
d="M742 560h142c12 0 16 -7 8 -15l-217 -241l160 -286c5 -10 -1 -18 -13 -18h-152c-8 0 -13 2 -16 8l-145 261l-40 -254c-1 -10 -7 -15 -17 -15h-122c-10 0 -14 5 -13 15l41 254l-227 -261c-5 -6 -10 -8 -19 -8h-151c-13 0 -16 8 -8 18l251 286l-141 241c-5 8 1 15 14 15
h141c8 0 13 -1 15 -7l134 -231l35 223c1 10 7 15 17 15h122c10 0 14 -5 12 -15l-35 -223l207 231c4 6 9 7 17 7z" />
    <glyph glyph-name="uni0437" unicode="&#x437;" horiz-adv-x="521" 
d="M278 565c133 0 230 -22 213 -135l-9 -53c-4 -27 -20 -85 -100 -97c77 -13 73 -71 69 -99l-8 -51c-18 -113 -122 -135 -255 -135c-78 0 -143 7 -180 16c-13 4 -20 10 -17 26l12 76c1 10 7 14 16 14h178c76 0 93 12 99 45l1 8c6 33 -4 46 -61 46h-159c-8 0 -13 5 -12 15
l12 77c2 11 9 15 17 15h158c58 0 71 14 76 46l2 11c6 35 -12 43 -87 43h-176c-9 0 -13 4 -11 15l12 76c3 17 10 22 25 26c40 9 108 15 185 15z" />
    <glyph glyph-name="uni0438" unicode="&#x438;" horiz-adv-x="636" 
d="M513 560h89c8 0 11 -4 10 -12l-85 -536c-1 -8 -6 -12 -14 -12h-124c-8 0 -11 4 -10 12l48 301l-273 -292c-15 -15 -27 -21 -50 -21h-85c-8 0 -11 4 -10 12l85 536c1 8 6 12 14 12h123c8 0 12 -4 10 -12l-47 -298l263 284c16 17 28 26 56 26z" />
    <glyph glyph-name="uni0439" unicode="&#x439;" horiz-adv-x="636" 
d="M491 780h58c11 0 15 -4 11 -15c-30 -102 -78 -137 -194 -137s-155 34 -152 136c-1 11 5 16 16 16h58c9 0 13 -3 15 -12c10 -38 30 -50 77 -50c46 0 69 12 92 50c4 9 10 12 19 12zM513 560h89c8 0 11 -4 10 -12l-85 -536c-1 -8 -6 -12 -14 -12h-124c-8 0 -11 4 -10 12
l48 301l-273 -292c-15 -15 -27 -21 -50 -21h-85c-8 0 -11 4 -10 12l85 536c1 8 6 12 14 12h123c8 0 12 -4 10 -12l-47 -298l263 284c16 17 28 26 56 26z" />
    <glyph glyph-name="uni043A" unicode="&#x43a;" horiz-adv-x="576" 
d="M439 560h142c12 0 17 -7 9 -15l-217 -241l159 -286c5 -10 0 -18 -13 -18h-152c-8 0 -13 2 -16 8l-144 261l-41 -254c-1 -10 -7 -15 -17 -15h-127c-10 0 -14 5 -13 15l84 530c2 10 8 15 18 15h127c10 0 14 -5 12 -15l-35 -223l207 231c4 5 9 7 17 7z" />
    <glyph glyph-name="uni043B" unicode="&#x43b;" horiz-adv-x="583" 
d="M202 560h347c8 0 11 -4 10 -11l-85 -537c-1 -7 -6 -12 -14 -12h-125c-7 0 -10 5 -9 12l66 419h-87l-70 -267c-25 -94 -77 -169 -191 -169c-25 0 -46 4 -62 8c-16 6 -19 10 -16 25l13 87c1 7 6 10 14 10h21c53 0 71 29 85 82l90 341c2 8 6 12 13 12z" />
    <glyph glyph-name="uni043C" unicode="&#x43c;" horiz-adv-x="805" 
d="M624 560h110c8 0 10 -4 10 -11l-25 -537c0 -8 -6 -12 -14 -12h-128c-8 0 -10 4 -10 12l18 318l-169 -301c-6 -8 -11 -12 -19 -12h-87c-8 0 -14 4 -16 12l-73 301l-83 -318c-3 -8 -6 -12 -14 -12h-128c-8 0 -12 4 -10 12l145 536c2 8 7 12 15 12h109c28 0 42 -6 48 -29
l81 -317l183 318c13 23 28 28 57 28z" />
    <glyph glyph-name="uni043D" unicode="&#x43d;" horiz-adv-x="642" 
d="M479 560h127c10 0 14 -5 12 -15l-84 -530c-1 -10 -7 -15 -17 -15h-127c-10 0 -14 5 -13 15l30 191h-210l-31 -191c-1 -10 -7 -15 -17 -15h-127c-10 0 -14 5 -13 15l84 530c2 10 8 15 18 15h127c10 0 14 -5 12 -15l-31 -200h211l31 200c2 10 8 15 18 15z" />
    <glyph glyph-name="uni043E" unicode="&#x43e;" horiz-adv-x="595" 
d="M335 565c208 0 246 -56 209 -285c-36 -228 -92 -285 -300 -285c-207 0 -246 57 -210 285c36 229 93 285 301 285zM314 437c-91 0 -111 -31 -131 -157s-10 -157 81 -157c92 0 112 31 132 157s10 157 -82 157z" />
    <glyph glyph-name="uni043F" unicode="&#x43f;" horiz-adv-x="582" 
d="M111 560h435c10 0 14 -5 12 -15l-84 -530c-1 -10 -7 -15 -17 -15h-127c-10 0 -14 5 -13 15l65 408h-151l-65 -408c-1 -10 -7 -15 -17 -15h-127c-10 0 -14 5 -13 15l84 530c2 10 8 15 18 15z" />
    <glyph glyph-name="uni0440" unicode="&#x440;" horiz-adv-x="602" 
d="M337 565c211 0 251 -60 217 -277c-37 -230 -96 -293 -278 -293c-42 0 -80 1 -122 6l-29 -187c-2 -10 -7 -15 -17 -15h-119c-10 0 -14 5 -13 15l113 707c2 14 11 22 24 25c85 13 155 19 224 19zM323 437h-99l-49 -307c28 -4 63 -6 88 -6c101 0 120 27 141 156
c19 118 17 157 -81 157z" />
    <glyph glyph-name="uni0441" unicode="&#x441;" horiz-adv-x="512" 
d="M335 565c38 0 109 -2 162 -13c10 -2 15 -7 12 -20l-12 -79c-2 -11 -8 -16 -19 -16h-163c-92 0 -111 -31 -132 -157c-19 -125 -10 -157 82 -157h163c11 0 16 -5 15 -15l-13 -80c-2 -12 -8 -17 -20 -19c-56 -12 -128 -14 -166 -14c-213 0 -244 57 -209 285
c36 229 87 285 300 285z" />
    <glyph glyph-name="uni0442" unicode="&#x442;" horiz-adv-x="524" 
d="M71 560h456c10 0 14 -5 13 -15l-17 -107c-2 -10 -7 -15 -17 -15h-150l-66 -408c-1 -10 -7 -15 -17 -15h-127c-10 0 -14 5 -13 15l66 408h-150c-10 0 -14 5 -13 15l17 107c2 10 8 15 18 15z" />
    <glyph glyph-name="uni0443" unicode="&#x443;" horiz-adv-x="620" 
d="M464 560h118c10 0 14 -5 13 -15l-85 -533c-24 -150 -64 -219 -279 -219c-72 0 -131 4 -187 14c-8 1 -12 5 -10 16l12 76c1 11 6 15 16 15h175c88 0 113 20 123 86l1 6c-44 -8 -82 -11 -125 -11c-181 0 -224 70 -194 258l46 292c2 10 8 15 18 15h118c10 0 14 -5 13 -15
l-43 -264c-20 -129 -5 -157 96 -157c25 0 61 1 90 6l66 415c2 10 8 15 18 15z" />
    <glyph glyph-name="uni0444" unicode="&#x444;" horiz-adv-x="810" 
d="M416 774h118c10 0 14 -5 13 -15l-35 -217c31 17 70 23 103 23c124 0 179 -79 146 -285c-33 -207 -113 -285 -237 -285c-32 0 -79 6 -94 23l-33 -204c-1 -10 -7 -15 -17 -15h-118c-10 0 -15 5 -13 15l32 204c-21 -17 -70 -23 -102 -23c-124 0 -179 78 -147 285
c33 206 114 285 237 285c33 0 71 -6 95 -23l35 217c1 10 7 15 17 15zM288 436c-71 0 -89 -49 -107 -156c-16 -108 -14 -156 57 -156c19 0 45 4 62 15l45 282c-14 11 -39 15 -57 15zM555 436c-19 0 -44 -4 -61 -15l-45 -282c14 -11 38 -15 57 -15c71 0 89 48 106 156
c17 107 14 156 -57 156z" />
    <glyph glyph-name="uni0445" unicode="&#x445;" horiz-adv-x="575" 
d="M437 560h143c13 0 14 -8 5 -18l-212 -249l147 -274c4 -10 0 -19 -12 -19h-143c-7 0 -12 4 -14 10l-87 168l-141 -168c-4 -6 -10 -10 -17 -10h-143c-12 0 -14 9 -5 19l233 274l-133 249c-7 10 -2 18 10 18h144c7 0 12 -3 16 -9l73 -142l117 142c5 6 12 9 19 9z" />
    <glyph glyph-name="uni0447" unicode="&#x447;" horiz-adv-x="569" 
d="M405 560h128c10 0 14 -5 12 -16l-84 -528c-1 -11 -7 -16 -17 -16h-127c-10 0 -14 5 -13 16l25 155h-38c-220 0 -273 41 -242 243l21 131c1 10 7 15 17 15h129c10 0 14 -5 12 -15l-19 -119c-15 -102 1 -117 120 -117h22l37 235c1 11 7 16 17 16z" />
    <glyph glyph-name="uni0446" unicode="&#x446;" horiz-adv-x="612" 
d="M419 560h127c10 0 14 -5 13 -15l-65 -408h48c10 0 14 -5 12 -15l-32 -205c-1 -10 -7 -15 -17 -15h-121c-10 0 -14 5 -13 15l13 83h-362c-10 0 -14 5 -13 15l84 530c2 10 8 15 18 15h127c10 0 14 -5 12 -15l-64 -408h151l65 408c1 10 7 15 17 15z" />
    <glyph glyph-name="uni0448" unicode="&#x448;" horiz-adv-x="809" 
d="M646 560h127c10 0 14 -5 12 -15l-84 -530c-1 -10 -7 -15 -17 -15h-662c-10 0 -14 5 -13 15l84 530c2 10 8 15 18 15h127c10 0 14 -5 12 -15l-64 -413h116l64 413c2 10 8 15 18 15h116c10 0 14 -5 12 -15l-64 -413h115l65 413c2 10 8 15 18 15z" />
    <glyph glyph-name="uni0449" unicode="&#x449;" horiz-adv-x="832" 
d="M638 560h128c9 0 14 -6 12 -15l-64 -408h47c9 0 14 -6 13 -15l-33 -206c-1 -9 -8 -15 -17 -15h-121c-9 0 -14 6 -13 15l13 84h-581c-9 0 -14 6 -13 15l85 530c1 9 8 15 17 15h127c9 0 14 -6 13 -15l-64 -408h106l64 408c2 9 9 15 18 15h127c9 0 14 -6 12 -15l-64 -408
h107l64 408c1 9 8 15 17 15z" />
    <glyph glyph-name="uni044F" unicode="&#x44f;" horiz-adv-x="569" 
d="M320 565c77 0 136 -1 214 -9c9 -1 11 -3 10 -9l-85 -535c-2 -10 -4 -12 -14 -12h-127c-9 0 -11 2 -9 12l29 184h-50l-156 -181c-8 -11 -15 -15 -33 -15h-123c-11 0 -14 6 -7 14l163 191c-81 20 -103 67 -88 167c22 138 94 193 276 193zM375 433h-79
c-69 0 -91 -17 -100 -68c-7 -52 10 -64 79 -64h79z" />
    <glyph glyph-name="uni044C" unicode="&#x44c;" horiz-adv-x="559" 
d="M109 560h124c9 0 13 -5 11 -13l-31 -194h107c160 0 212 -42 194 -154l-7 -49c-18 -112 -84 -155 -244 -155c-76 0 -167 2 -244 10c-9 1 -10 5 -9 12l84 531c1 8 6 12 15 12zM302 237h-107l-18 -114h93c64 0 86 10 91 48l3 16c6 38 -16 50 -62 50z" />
    <glyph glyph-name="uni044A" unicode="&#x44a;" horiz-adv-x="632" 
d="M65 560h242c8 0 11 -4 10 -11l-31 -196h107c160 0 212 -42 194 -154l-7 -49c-18 -112 -84 -155 -244 -155c-76 0 -168 2 -244 10c-9 1 -11 3 -10 10l66 411h-104c-8 0 -12 4 -11 11l18 112c1 7 6 11 14 11zM374 237h-106l-18 -114h93c63 0 85 10 91 48l3 16
c6 38 -16 50 -63 50z" />
    <glyph glyph-name="uni044B" unicode="&#x44b;" horiz-adv-x="798" 
d="M108 560h126c8 0 12 -4 10 -11l-31 -196h107c160 0 212 -42 194 -154l-7 -49c-18 -112 -84 -155 -244 -155c-76 0 -167 2 -244 10c-9 1 -10 3 -9 10l84 534c1 7 6 11 14 11zM643 560h118c10 0 14 -5 12 -15l-83 -529c-2 -11 -8 -16 -18 -16h-118c-10 0 -14 5 -13 16
l84 529c2 10 8 15 18 15zM302 237h-107l-18 -114h93c64 0 86 10 91 48l3 16c6 38 -16 50 -62 50z" />
    <glyph glyph-name="uni044D" unicode="&#x44d;" horiz-adv-x="533" 
d="M272 565c203 0 247 -66 212 -284s-99 -286 -303 -286c-77 0 -137 7 -175 15c-13 3 -19 8 -17 24l12 77c2 7 6 11 14 11h186c80 0 108 31 126 104h-211c-8 0 -12 3 -11 10l15 89c1 7 6 10 14 10h210c6 73 -13 104 -93 104h-185c-8 0 -12 3 -11 11l13 77c2 15 10 20 24 24
c39 9 102 14 180 14z" />
    <glyph glyph-name="uni044E" unicode="&#x44e;" horiz-adv-x="839" 
d="M580 565c208 0 246 -56 210 -285c-36 -228 -93 -285 -300 -285c-182 0 -233 44 -219 211h-74l-31 -191c-1 -10 -7 -15 -17 -15h-127c-10 0 -14 5 -13 15l84 530c2 10 8 15 18 15h127c10 0 14 -5 12 -15l-31 -200h74c37 174 101 220 287 220zM560 437
c-91 0 -111 -31 -131 -157s-10 -157 81 -157c92 0 111 31 131 157c21 126 11 157 -81 157z" />
    <glyph glyph-name="pi" unicode="&#x3c0;" horiz-adv-x="686" 
d="M71 561h619c10 0 14 -5 13 -15l-17 -105c-2 -10 -8 -15 -18 -15h-85l-65 -411c-1 -10 -7 -15 -17 -15h-112c-10 0 -14 5 -13 15l65 411h-160c-23 -144 -52 -267 -98 -411c-3 -10 -7 -15 -17 -15h-112c-10 0 -16 5 -13 15c46 144 75 267 98 411h-90c-10 0 -14 5 -12 15
l17 105c1 10 7 15 17 15z" />
    <glyph glyph-name="zero" unicode="0" horiz-adv-x="686" 
d="M415 780c238 0 282 -91 233 -394c-47 -303 -119 -391 -357 -391c-239 0 -283 88 -235 391c49 303 120 394 359 394zM393 643c-111 0 -148 -60 -180 -257c-30 -196 -12 -254 100 -254c111 0 147 58 178 254c32 197 14 257 -98 257z" />
    <glyph glyph-name="one" unicode="1" horiz-adv-x="483" 
d="M304 137h123c10 0 14 -5 13 -15l-18 -107c-1 -10 -7 -15 -17 -15h-400c-10 0 -14 5 -13 15l17 107c1 10 7 15 18 15h127l73 461c7 44 -10 52 -62 52h-65c-12 -1 -17 4 -15 15l14 84c1 12 8 17 19 19c36 8 76 12 105 12c91 0 181 -15 160 -141z" />
    <glyph glyph-name="two" unicode="2" horiz-adv-x="620" 
d="M357 780c148 0 277 -25 252 -182l-14 -91c-11 -69 -25 -122 -131 -184l-197 -111c-32 -17 -44 -30 -48 -56l-3 -18h324c7 0 7 -1 7 -6l-20 -126c-1 -5 -3 -6 -8 -6h-514c-22 0 -25 11 -23 28l15 90c13 84 53 119 155 182l236 140c36 22 46 48 53 91l5 34
c10 63 -31 78 -127 78h-194c-9 0 -11 3 -10 11l14 86c2 14 9 19 22 22c65 12 110 18 206 18z" />
    <glyph glyph-name="three" unicode="3" horiz-adv-x="614" 
d="M329 780c198 0 299 -32 274 -195l-8 -45c-9 -61 -35 -133 -122 -152c81 -20 84 -92 75 -151l-7 -44c-26 -163 -136 -198 -337 -198c-78 0 -142 5 -190 15c-15 4 -22 7 -19 21l14 89c1 9 7 12 17 12h188c133 0 162 18 174 90l1 9c10 68 -4 94 -107 94h-179
c-10 0 -13 4 -12 14l16 97c1 10 6 14 16 14h178c103 0 127 25 138 95l2 13c12 71 -19 85 -150 85h-184c-10 0 -15 3 -13 12l14 87c1 15 10 19 25 23c51 9 117 15 196 15z" />
    <glyph glyph-name="four" unicode="4" horiz-adv-x="677" 
d="M247 774h127c12 0 13 -6 8 -18l-190 -430h183l27 173c2 9 7 16 16 19l134 43c11 3 17 0 15 -13l-35 -222h112c11 0 16 -5 14 -15l-17 -107c-2 -11 -8 -15 -19 -15h-112l-27 -173c-2 -11 -8 -16 -18 -16h-127c-10 0 -14 5 -12 16l27 173h-337c-10 0 -14 4 -12 15l12 74
c1 10 6 22 12 36l200 450c4 8 9 10 19 10z" />
    <glyph glyph-name="five" unicode="5" horiz-adv-x="630" 
d="M162 774h464c10 0 15 -5 14 -15l-17 -107c-2 -10 -9 -15 -19 -15h-344l-39 -162c31 4 79 6 103 6c183 0 280 -38 254 -206l-12 -75c-27 -168 -138 -205 -337 -205c-78 0 -157 5 -204 14c-15 3 -22 8 -20 23l14 87c1 9 7 13 17 13h205c130 0 161 24 173 101l2 8
c11 77 -11 103 -141 103h-194c-19 0 -25 6 -23 20l15 95l71 300c2 10 7 15 18 15z" />
    <glyph glyph-name="six" unicode="6" horiz-adv-x="629" 
d="M339 774h135c12 0 14 -8 7 -18l-189 -289c22 5 52 7 76 7c167 0 249 -59 226 -199l-11 -74c-26 -160 -142 -206 -314 -206c-174 0 -279 46 -253 207l11 73c6 43 17 71 35 102l258 387c5 7 11 10 19 10zM325 344c-105 0 -134 -29 -146 -103l-1 -5c-12 -75 9 -104 113 -104
c101 0 128 30 140 103l1 5c12 75 -6 104 -107 104z" />
    <glyph glyph-name="seven" unicode="7" horiz-adv-x="601" 
d="M104 774h536c10 0 15 -4 13 -15l-14 -81c-1 -10 -5 -16 -10 -23l-439 -645c-6 -7 -12 -10 -20 -10h-148c-12 0 -14 8 -7 18l425 619h-357c-11 0 -15 5 -14 14l17 108c2 11 7 15 18 15z" />
    <glyph glyph-name="eight" unicode="8" horiz-adv-x="660" 
d="M395 779h16c178 0 250 -67 227 -212c-15 -90 -56 -145 -133 -184c78 -36 109 -86 95 -178c-23 -142 -125 -210 -315 -210h-18c-190 0 -269 68 -247 212c14 84 67 146 158 190c-68 36 -90 91 -77 169c23 146 116 213 294 213zM387 642h-11c-65 0 -109 -23 -119 -83
c-8 -53 21 -78 67 -96l70 -22c51 25 76 62 84 109c9 59 -18 92 -91 92zM376 306l-91 30c-72 -30 -97 -63 -104 -106c-10 -65 29 -98 111 -98h13c83 0 130 27 139 84c9 55 -27 77 -68 90z" />
    <glyph glyph-name="nine" unicode="9" horiz-adv-x="629" 
d="M377 779c174 0 280 -46 254 -207l-11 -73c-7 -43 -17 -71 -36 -102l-257 -387c-6 -7 -12 -10 -20 -10h-135c-12 0 -14 8 -7 18l189 289c-21 -5 -51 -8 -76 -8c-166 0 -248 60 -226 200l13 74c25 160 141 206 312 206zM356 641c-102 0 -128 -29 -140 -103l-1 -4
c-12 -75 6 -104 107 -104c104 0 134 29 146 103l1 5c12 74 -9 103 -113 103z" />
    <glyph glyph-name="zero.osf" horiz-adv-x="650" 
d="M363 566c218 0 271 -70 236 -287c-34 -216 -109 -284 -327 -284s-271 68 -237 284c35 217 110 287 328 287zM341 430c-96 0 -132 -36 -150 -151c-17 -113 7 -148 103 -148s132 35 149 148c19 115 -6 151 -102 151z" />
    <glyph glyph-name="one.osf" horiz-adv-x="499" 
d="M313 137h123c10 0 14 -5 13 -15l-18 -107c-1 -10 -7 -15 -17 -15h-399c-11 0 -15 5 -14 15l17 107c1 10 7 15 18 15h127l39 246c7 44 -10 52 -62 52h-65c-11 -1 -17 4 -15 15l14 84c2 12 8 17 19 19c36 8 77 12 105 12c92 0 181 -15 161 -141z" />
    <glyph glyph-name="two.osf" horiz-adv-x="616" 
d="M331 565c138 0 267 -13 246 -146l-6 -41c-13 -84 -30 -113 -140 -162l-123 -45c-31 -9 -39 -13 -43 -34l-1 -6h267c8 0 11 -3 10 -11l-18 -115c-1 -4 -3 -5 -7 -5h-503c-22 0 -26 9 -24 24l14 86c8 47 28 67 94 92l275 122c26 10 37 27 40 45l2 13c7 44 -33 46 -123 46
h-204c-8 0 -11 2 -11 9l16 97c2 11 9 14 22 17c65 9 121 14 217 14z" />
    <glyph glyph-name="three.osf" horiz-adv-x="607" 
d="M292 565c199 0 299 -33 274 -194l-7 -42c-9 -59 -35 -132 -123 -150c82 -20 85 -91 76 -150l-7 -40c-26 -162 -135 -196 -336 -196c-78 0 -142 5 -190 15c-14 3 -21 8 -19 24l14 84c1 10 7 14 17 14h184c133 0 167 17 178 88l1 5c10 68 -6 94 -108 94h-179
c-10 0 -13 4 -11 13l15 97c2 10 6 14 16 14h178c103 0 127 24 138 94l1 6c11 71 -18 87 -150 87h-185c-10 0 -14 5 -12 14l13 85c3 15 11 20 27 23c51 10 117 15 195 15z" />
    <glyph glyph-name="four.osf" horiz-adv-x="686" 
d="M222 560h127c12 0 13 -6 8 -18l-188 -423h182l27 173c2 9 7 16 17 19l133 43c11 3 17 1 15 -13l-35 -222h112c11 0 15 -5 14 -14l-17 -108c-2 -11 -8 -15 -19 -15h-112l-26 -168c-2 -10 -7 -15 -17 -15h-128c-10 0 -14 5 -13 15l27 168h-337c-10 0 -14 4 -12 15l11 75
c2 10 7 21 13 35l199 443c3 8 9 10 19 10z" />
    <glyph glyph-name="five.osf" horiz-adv-x="620" 
d="M124 560h459c10 0 14 -5 13 -15l-17 -107c-2 -10 -8 -15 -18 -15h-340l-36 -150c31 4 79 6 103 6c183 0 279 -38 253 -206l-11 -75c-28 -168 -139 -205 -338 -205c-78 0 -156 5 -204 13c-14 4 -21 9 -19 24l14 87c1 9 7 13 17 13h205c129 0 160 24 173 101l1 7
c12 78 -11 104 -141 104h-193c-20 0 -26 6 -23 20l14 94l70 289c2 10 7 15 18 15z" />
    <glyph glyph-name="six.osf" horiz-adv-x="629" 
d="M339 774h135c12 0 14 -8 7 -18l-189 -289c21 5 51 7 76 7c166 0 248 -59 226 -199l-11 -74c-26 -160 -143 -206 -314 -206c-174 0 -280 46 -254 207l11 73c7 43 18 71 36 102l258 387c5 7 11 10 19 10zM324 344c-104 0 -134 -29 -146 -103l-1 -5c-12 -75 9 -104 114 -104
c101 0 128 30 139 103l1 5c12 75 -6 104 -107 104z" />
    <glyph glyph-name="seven.osf" horiz-adv-x="598" 
d="M69 560h535c10 0 14 -4 12 -15l-12 -81c-2 -10 -6 -16 -11 -23l-435 -632c-5 -7 -11 -10 -19 -10h-148c-12 0 -14 8 -8 18l422 606h-358c-11 0 -15 5 -14 14l17 108c2 11 8 15 19 15z" />
    <glyph glyph-name="eight.osf" 
d="M395 779h17c177 0 249 -67 226 -212c-15 -90 -55 -145 -133 -184c78 -36 110 -86 95 -178c-23 -142 -125 -210 -314 -210h-18c-191 0 -270 68 -247 212c13 84 66 146 157 190c-67 36 -90 91 -77 169c23 146 116 213 294 213zM387 642h-11c-64 0 -109 -23 -119 -83
c-8 -53 21 -78 67 -96l70 -22c51 25 76 62 84 109c10 59 -18 92 -91 92zM376 306l-91 30c-72 -30 -97 -63 -103 -106c-11 -65 29 -98 110 -98h13c83 0 130 27 140 84c8 55 -28 77 -69 90z" />
    <glyph glyph-name="nine.osf" horiz-adv-x="621" 
d="M341 565c174 0 279 -46 254 -207l-12 -73c-6 -43 -16 -71 -35 -102l-249 -374c-5 -7 -11 -10 -19 -10h-135c-12 0 -14 8 -8 18l181 275c-22 -4 -51 -7 -76 -7c-166 0 -248 60 -226 200l12 74c25 160 141 206 313 206zM319 427c-102 0 -128 -29 -139 -103l-1 -4
c-12 -75 6 -104 107 -104c104 0 134 29 146 103l1 5c11 74 -10 103 -114 103z" />
    <glyph glyph-name="zero.subs" horiz-adv-x="382" 
d="M177 234c126 0 149 -48 124 -209c-26 -160 -64 -208 -190 -208s-148 48 -123 208c26 161 64 209 189 209zM166 160c-58 0 -76 -31 -93 -135c-16 -103 -7 -133 50 -133s76 30 92 133c17 104 8 135 -49 135z" />
    <glyph glyph-name="one.subs" horiz-adv-x="283" 
d="M125 -105h65c6 0 10 -4 9 -11l-9 -55c-1 -6 -6 -9 -12 -9h-217c-6 0 -9 3 -8 10l9 54c1 6 5 11 12 11h69l37 236c4 25 -5 32 -36 32h-32c-7 0 -11 3 -10 10l7 42c1 7 6 9 12 12c16 5 42 7 56 7c46 0 101 -6 90 -76z" />
    <glyph glyph-name="two.subs" horiz-adv-x="352" 
d="M154 234c77 0 144 -11 131 -93l-8 -50c-6 -37 -14 -67 -67 -96l-113 -57c-22 -11 -39 -21 -41 -37l-2 -6h190c4 0 6 -2 6 -5l-11 -65c0 -3 -3 -5 -6 -5h-275c-11 0 -13 6 -11 15l8 50c7 49 29 72 90 106l115 63c26 13 31 29 34 48l3 19c5 32 -12 39 -53 39h-115
c-5 0 -7 3 -6 8l7 46c1 7 4 9 10 11c36 6 76 9 114 9z" />
    <glyph glyph-name="three.subs" horiz-adv-x="342" 
d="M146 234c94 0 142 -20 128 -108l-2 -16c-6 -33 -23 -72 -71 -84c45 -9 49 -51 44 -83l-3 -18c-14 -89 -68 -108 -162 -108c-39 0 -82 3 -117 10c-6 1 -9 4 -8 11l7 45c2 6 5 8 11 8h85c74 0 94 7 100 44l2 12c5 27 -8 45 -63 45h-85c-7 0 -7 3 -7 8l8 51c1 6 3 8 10 8h84
c54 0 73 11 78 47l2 10c6 36 -12 44 -87 44h-84c-6 0 -10 2 -9 8l8 45c1 7 5 10 11 11c38 7 81 10 120 10z" />
    <glyph glyph-name="four.subs" horiz-adv-x="385" 
d="M90 231h65c8 0 9 -4 6 -11l-100 -229h96l16 96c0 5 3 10 8 12l70 23c8 3 12 1 11 -7l-20 -124h60c8 0 11 -4 10 -10l-9 -55c-1 -7 -5 -10 -12 -10h-60l-14 -86c-1 -7 -5 -10 -12 -10h-66c-6 0 -9 3 -7 10l13 86h-179c-6 0 -9 3 -8 11l6 34c0 5 3 11 7 19l106 245
c3 5 6 6 13 6z" />
    <glyph glyph-name="five.subs" horiz-adv-x="359" 
d="M42 231h251c6 0 9 -3 8 -10l-9 -54c0 -7 -4 -10 -11 -10h-182l-18 -82c14 3 41 4 52 4c111 0 150 -26 135 -121l-3 -20c-15 -95 -56 -121 -188 -121c-40 0 -74 2 -110 8c-5 1 -8 4 -7 11l8 48c1 6 4 8 10 8h110c60 0 85 5 92 48l2 13c7 43 -15 52 -76 52h-105
c-10 0 -13 3 -12 10l8 51l36 157c1 5 4 8 9 8z" />
    <glyph glyph-name="six.subs" horiz-adv-x="350" 
d="M136 231h72c8 0 9 -5 5 -12l-98 -152c12 3 27 4 40 4c76 0 127 -30 116 -104l-8 -45c-11 -73 -63 -105 -166 -105c-99 0 -144 32 -134 113l5 32c4 23 10 39 21 57l134 206c4 4 8 6 13 6zM126 3c-49 0 -68 -10 -74 -49l-2 -13c-6 -39 10 -49 58 -49c49 0 68 10 74 49l2 13
c6 39 -10 49 -58 49z" />
    <glyph glyph-name="seven.subs" horiz-adv-x="339" 
d="M15 231h281c6 0 10 -2 8 -10l-6 -40c-2 -7 -4 -11 -8 -15l-229 -339c-3 -5 -8 -7 -13 -7h-76c-8 0 -9 5 -5 12l222 325h-186c-8 0 -11 3 -10 9l9 55c2 8 5 10 13 10z" />
    <glyph glyph-name="eight.subs" horiz-adv-x="371" 
d="M167 234h9c93 0 132 -36 120 -112c-8 -53 -31 -77 -70 -98c41 -15 59 -42 51 -93c-12 -77 -66 -114 -168 -114h-10c-100 0 -144 37 -132 112c6 42 29 78 84 100c-39 17 -47 48 -40 93c13 76 63 112 156 112zM163 160h-8c-33 0 -53 -15 -57 -47c-5 -27 8 -39 31 -46l39 -8
c24 11 36 30 39 53c5 31 -8 48 -44 48zM157 -15l-47 12c-33 -12 -50 -29 -54 -56c-5 -34 13 -49 56 -49h7c44 0 67 13 72 45c4 28 -6 41 -34 48z" />
    <glyph glyph-name="nine.subs" horiz-adv-x="350" 
d="M157 234c99 0 145 -32 133 -113l-4 -32c-4 -23 -10 -39 -21 -57l-135 -205c-3 -5 -8 -7 -13 -7h-71c-9 0 -9 5 -5 12l98 153c-12 -4 -28 -5 -40 -5c-76 0 -127 31 -116 104l7 45c12 74 64 105 167 105zM145 160c-48 0 -66 -11 -73 -49l-2 -14c-6 -39 9 -49 57 -49
c49 0 69 10 75 49l2 14c6 38 -10 49 -59 49z" />
    <glyph glyph-name="zero.tf" 
d="M402 780c239 0 283 -91 234 -394c-48 -303 -119 -391 -358 -391c-238 0 -282 88 -234 391s120 394 358 394zM381 643c-112 0 -149 -60 -180 -257c-31 -196 -13 -254 99 -254s148 58 179 254c31 197 14 257 -98 257z" />
    <glyph glyph-name="one.tf" 
d="M393 137h123c10 0 14 -5 13 -15l-18 -107c-1 -10 -7 -15 -17 -15h-399c-11 0 -15 5 -14 15l17 107c1 10 7 15 18 15h127l73 461c7 44 -10 52 -62 52h-65c-11 -1 -16 4 -14 15l13 84c1 12 8 17 19 19c36 8 76 12 105 12c91 0 181 -15 161 -141z" />
    <glyph glyph-name="two.tf" 
d="M378 780c148 0 277 -25 252 -182l-14 -91c-11 -69 -25 -122 -131 -184l-196 -111c-33 -17 -45 -30 -49 -56l-3 -18h324c7 0 7 -1 7 -6l-20 -126c-1 -5 -3 -6 -8 -6h-514c-22 0 -25 11 -23 28l15 90c13 84 53 119 156 182l235 140c36 22 46 48 53 91l5 34
c11 63 -31 78 -127 78h-194c-8 0 -11 3 -10 11l14 86c2 14 9 19 22 22c65 12 110 18 206 18z" />
    <glyph glyph-name="three.tf" 
d="M353 780c199 0 299 -32 274 -195l-8 -45c-9 -61 -35 -133 -122 -152c81 -20 84 -92 75 -151l-7 -44c-26 -163 -136 -198 -337 -198c-78 0 -142 5 -190 15c-15 4 -22 7 -19 21l14 89c1 9 7 12 17 12h188c133 0 163 18 174 90l2 9c9 68 -5 94 -108 94h-178
c-10 0 -14 4 -13 14l16 97c2 10 6 14 16 14h179c102 0 126 25 137 95l2 13c12 71 -18 85 -150 85h-184c-10 0 -15 3 -13 12l14 87c2 15 10 19 26 23c51 9 117 15 195 15z" />
    <glyph glyph-name="four.tf" 
d="M239 774h126c12 0 13 -6 8 -18l-189 -430h182l28 173c1 9 7 16 16 19l134 43c11 3 17 0 15 -13l-36 -222h113c11 0 15 -5 14 -15l-17 -107c-2 -11 -8 -15 -19 -15h-112l-27 -173c-2 -11 -8 -16 -18 -16h-127c-10 0 -14 5 -13 16l27 173h-337c-10 0 -14 4 -12 15l12 74
c1 10 6 22 13 36l200 450c3 8 8 10 19 10z" />
    <glyph glyph-name="five.tf" 
d="M178 774h464c10 0 14 -5 13 -15l-17 -107c-1 -10 -8 -15 -18 -15h-345l-38 -162c31 4 79 6 103 6c183 0 279 -38 253 -206l-11 -75c-28 -168 -139 -205 -338 -205c-78 0 -157 5 -204 14c-15 3 -21 8 -19 23l14 87c1 9 7 13 17 13h205c130 0 160 24 173 101l1 8
c12 77 -10 103 -141 103h-193c-20 0 -25 6 -23 20l15 95l71 300c2 10 7 15 18 15z" />
    <glyph glyph-name="six.tf" 
d="M355 774h135c12 0 14 -8 7 -18l-189 -289c21 5 51 7 76 7c166 0 248 -59 226 -199l-11 -74c-26 -160 -143 -206 -314 -206c-174 0 -280 46 -254 207l11 73c7 43 18 71 36 102l258 387c5 7 11 10 19 10zM340 344c-104 0 -134 -29 -146 -103l-1 -5c-12 -75 9 -104 114 -104
c101 0 128 30 139 103l1 5c12 75 -6 104 -107 104z" />
    <glyph glyph-name="seven.tf" 
d="M134 774h536c10 0 15 -4 13 -15l-14 -81c-1 -10 -5 -16 -10 -23l-439 -645c-6 -7 -12 -10 -20 -10h-148c-12 0 -14 8 -7 18l425 619h-357c-11 0 -15 5 -14 14l17 108c2 11 7 15 18 15z" />
    <glyph glyph-name="eight.tf" 
d="M395 779h17c177 0 249 -67 226 -212c-15 -90 -55 -145 -133 -184c78 -36 110 -86 95 -178c-23 -142 -125 -210 -314 -210h-18c-191 0 -270 68 -247 212c13 84 66 146 157 190c-67 36 -90 91 -77 169c23 146 116 213 294 213zM387 642h-11c-64 0 -109 -23 -119 -83
c-8 -53 21 -78 67 -96l70 -22c51 25 76 62 84 109c10 59 -18 92 -91 92zM376 306l-91 30c-72 -30 -97 -63 -103 -106c-11 -65 29 -98 110 -98h13c83 0 130 27 140 84c8 55 -28 77 -69 90z" />
    <glyph glyph-name="nine.tf" 
d="M393 779c174 0 280 -46 254 -207l-12 -73c-6 -43 -16 -71 -35 -102l-257 -387c-6 -7 -12 -10 -20 -10h-135c-12 0 -14 8 -7 18l189 289c-22 -5 -51 -8 -76 -8c-166 0 -248 60 -226 200l12 74c25 160 142 206 313 206zM371 641c-101 0 -128 -29 -140 -103v-4
c-12 -75 5 -104 106 -104c105 0 135 29 146 103l1 5c12 74 -8 103 -113 103z" />
    <glyph glyph-name="zero.tosf" 
d="M369 566c218 0 271 -70 236 -287c-34 -216 -109 -284 -327 -284s-271 68 -237 284c35 217 110 287 328 287zM347 430c-96 0 -132 -36 -150 -151c-17 -113 7 -148 103 -148s132 35 149 148c19 115 -6 151 -102 151z" />
    <glyph glyph-name="one.tosf" 
d="M394 137h123c10 0 14 -5 13 -15l-18 -107c-1 -10 -7 -15 -17 -15h-399c-11 0 -15 5 -14 15l17 107c1 10 7 15 18 15h127l39 246c7 44 -10 52 -62 52h-65c-11 -1 -17 4 -15 15l14 84c2 12 8 17 19 19c36 8 77 12 105 12c92 0 181 -15 161 -141z" />
    <glyph glyph-name="two.tosf" 
d="M354 565c138 0 267 -13 246 -146l-6 -41c-13 -84 -30 -113 -140 -162l-123 -45c-31 -9 -39 -13 -43 -34l-1 -6h267c8 0 11 -3 10 -11l-18 -115c-1 -4 -3 -5 -7 -5h-503c-22 0 -26 9 -24 24l14 86c8 47 28 67 94 92l275 122c26 10 37 27 40 45l2 13c7 44 -33 46 -123 46
h-204c-8 0 -11 2 -11 9l16 97c2 11 9 14 22 17c65 9 121 14 217 14z" />
    <glyph glyph-name="three.tosf" 
d="M319 565c199 0 299 -33 274 -194l-7 -42c-9 -59 -35 -132 -123 -150c82 -20 85 -91 76 -150l-7 -40c-26 -162 -135 -196 -336 -196c-78 0 -142 5 -190 15c-14 3 -21 8 -19 24l14 84c1 10 7 14 17 14h184c133 0 167 17 178 88l1 5c10 68 -6 94 -108 94h-179
c-10 0 -13 4 -11 13l15 97c2 10 6 14 16 14h178c103 0 127 24 138 94l1 6c11 71 -18 87 -150 87h-185c-10 0 -14 5 -12 14l13 85c3 15 11 20 27 23c51 10 117 15 195 15z" />
    <glyph glyph-name="four.tosf" 
d="M209 560h127c12 0 13 -6 8 -18l-188 -423h182l27 173c2 9 7 16 17 19l133 43c11 3 17 1 15 -13l-35 -222h112c11 0 15 -5 14 -14l-17 -108c-2 -11 -8 -15 -19 -15h-112l-26 -168c-2 -10 -7 -15 -17 -15h-128c-10 0 -14 5 -13 15l27 168h-337c-10 0 -14 4 -12 15l11 75
c2 10 7 21 13 35l199 443c3 8 9 10 19 10z" />
    <glyph glyph-name="five.tosf" 
d="M144 560h459c10 0 14 -5 13 -15l-17 -107c-2 -10 -8 -15 -18 -15h-340l-36 -150c31 4 79 6 103 6c183 0 279 -38 253 -206l-11 -75c-28 -168 -139 -205 -338 -205c-78 0 -156 5 -204 13c-14 4 -21 9 -19 24l14 87c1 9 7 13 17 13h205c129 0 160 24 173 101l1 7
c12 78 -11 104 -141 104h-193c-20 0 -26 6 -23 20l14 94l70 289c2 10 7 15 18 15z" />
    <glyph glyph-name="six.tosf" 
d="M355 774h135c12 0 14 -8 7 -18l-189 -289c21 5 51 7 76 7c166 0 248 -59 226 -199l-11 -74c-26 -160 -143 -206 -314 -206c-174 0 -280 46 -254 207l11 73c7 43 18 71 36 102l258 387c5 7 11 10 19 10zM340 344c-104 0 -134 -29 -146 -103l-1 -5c-12 -75 9 -104 114 -104
c101 0 128 30 139 103l1 5c12 75 -6 104 -107 104z" />
    <glyph glyph-name="seven.tosf" 
d="M100 560h535c10 0 14 -4 12 -15l-12 -81c-2 -10 -6 -16 -11 -23l-435 -632c-5 -7 -11 -10 -19 -10h-148c-12 0 -14 8 -8 18l422 606h-358c-11 0 -15 5 -14 14l17 108c2 11 8 15 19 15z" />
    <glyph glyph-name="eight.tosf" 
d="M395 779h17c177 0 249 -67 226 -212c-15 -90 -55 -145 -133 -184c78 -36 110 -86 95 -178c-23 -142 -125 -210 -314 -210h-18c-191 0 -270 68 -247 212c13 84 66 146 157 190c-67 36 -90 91 -77 169c23 146 116 213 294 213zM387 642h-11c-64 0 -109 -23 -119 -83
c-8 -53 21 -78 67 -96l70 -22c51 25 76 62 84 109c10 59 -18 92 -91 92zM376 306l-91 30c-72 -30 -97 -63 -103 -106c-11 -65 29 -98 110 -98h13c83 0 130 27 140 84c8 55 -28 77 -69 90z" />
    <glyph glyph-name="nine.tosf" 
d="M361 565c174 0 279 -46 254 -207l-12 -73c-6 -43 -16 -71 -35 -102l-249 -374c-5 -7 -11 -10 -19 -10h-135c-12 0 -14 8 -8 18l181 275c-22 -4 -51 -7 -76 -7c-166 0 -248 60 -226 200l12 74c25 160 141 206 313 206zM339 427c-102 0 -128 -29 -139 -103l-1 -4
c-12 -75 6 -104 107 -104c104 0 134 29 146 103l1 5c11 74 -10 103 -114 103z" />
    <glyph glyph-name="zero.zero" horiz-adv-x="687" 
d="M416 780c238 0 282 -91 233 -394c-48 -303 -119 -391 -358 -391c-238 0 -282 88 -234 391s120 394 359 394zM394 643c-112 0 -149 -60 -180 -257c-6 -42 -10 -77 -11 -106l295 306c-15 41 -47 57 -104 57zM504 492l-294 -306c15 -39 47 -54 103 -54c112 0 148 58 179 254
c7 42 11 78 12 106z" />
    <glyph glyph-name="zero.osf.zero" horiz-adv-x="650" 
d="M363 566c218 0 271 -70 236 -287c-34 -216 -109 -284 -327 -284s-271 68 -237 284c35 217 110 287 328 287zM341 430c-96 0 -132 -36 -150 -151c-6 -34 -6 -61 -2 -81l215 223c-16 6 -37 9 -63 9zM443 369l-216 -227c16 -8 38 -11 67 -11c96 0 132 35 149 148
c6 39 7 68 0 90z" />
    <glyph glyph-name="zero.tf.zero" 
d="M403 780c238 0 282 -91 233 -394c-48 -303 -119 -391 -358 -391c-238 0 -282 88 -234 391s120 394 359 394zM381 643c-112 0 -149 -60 -180 -257c-6 -42 -10 -77 -11 -106l295 306c-15 41 -47 57 -104 57zM491 492l-294 -306c15 -39 47 -54 103 -54c112 0 148 58 179 254
c7 42 11 78 12 106z" />
    <glyph glyph-name="zero.tosf.zero" 
d="M369 566c218 0 271 -70 236 -287c-34 -216 -109 -284 -327 -284s-271 68 -237 284c35 217 110 287 328 287zM347 430c-96 0 -132 -36 -150 -151c-6 -34 -6 -61 -2 -81l215 223c-16 6 -37 9 -63 9zM449 369l-216 -227c16 -8 38 -11 67 -11c96 0 132 35 149 148
c6 39 7 68 0 90z" />
    <glyph glyph-name="fraction" unicode="&#x2044;" horiz-adv-x="140" 
d="M316 813h39c10 0 11 -6 5 -17l-491 -822c-8 -12 -16 -17 -26 -17h-40c-10 0 -13 5 -5 17l493 822c7 11 13 17 25 17z" />
    <glyph glyph-name="onehalf" unicode="&#xbd;" horiz-adv-x="859" 
d="M659 813h39c10 0 11 -6 5 -17l-491 -822c-8 -12 -15 -17 -25 -17h-41c-10 0 -12 5 -4 17l492 822c7 11 13 17 25 17zM264 363h-217c-7 0 -10 3 -9 10l8 54c2 6 6 10 13 10h69l37 237c4 24 -6 32 -36 32h-32c-8 0 -10 3 -10 9l7 42c1 8 6 10 12 13c16 5 42 7 56 7
c46 0 101 -6 90 -76l-41 -264h64c7 0 10 -3 9 -10l-8 -55c-2 -6 -6 -9 -12 -9zM695 414c77 0 145 -11 131 -93l-8 -50c-5 -37 -14 -67 -67 -96l-112 -57c-22 -11 -40 -21 -43 -37l-1 -6h191c4 0 5 -2 5 -5l-11 -65c0 -3 -3 -5 -6 -5h-274c-11 0 -13 6 -12 15l8 50
c8 49 30 72 90 106l116 63c25 13 30 29 33 48l3 19c5 32 -12 39 -53 39h-115c-5 0 -7 3 -6 8l8 46c1 7 3 9 9 11c37 6 76 9 114 9z" />
    <glyph glyph-name="onequarter" unicode="&#xbc;" horiz-adv-x="887" 
d="M662 813h39c10 0 11 -6 5 -17l-491 -822c-8 -12 -15 -17 -25 -17h-41c-10 0 -12 5 -4 17l492 822c7 11 13 17 25 17zM271 363h-216c-7 0 -11 3 -9 10l8 54c1 6 5 10 12 10h69l38 237c3 24 -6 32 -37 32h-32c-7 0 -10 3 -9 9l7 42c1 8 5 10 11 13c16 5 43 7 56 7
c47 0 101 -6 90 -76l-41 -264h65c6 0 10 -3 8 -10l-8 -55c-2 -6 -6 -9 -12 -9zM769 171h60c8 0 11 -4 10 -10l-9 -55c-1 -7 -5 -10 -12 -10h-60l-14 -86c-1 -7 -5 -10 -12 -10h-65c-7 0 -9 3 -8 10l13 86h-179c-6 0 -9 3 -8 11l6 34c1 5 3 11 7 19l106 245c3 5 6 6 13 6h65
c8 0 9 -4 6 -11l-100 -229h96l15 96c1 5 4 10 10 12l69 23c8 3 12 1 11 -7z" />
    <glyph glyph-name="threequarters" unicode="&#xbe;" horiz-adv-x="922" 
d="M697 813h39c10 0 11 -6 5 -17l-491 -822c-8 -12 -16 -17 -26 -17h-40c-10 0 -13 5 -5 17l493 822c7 11 13 17 25 17zM236 777c93 0 142 -20 127 -109l-2 -15c-5 -33 -23 -73 -71 -84c45 -9 49 -51 45 -83l-3 -18c-15 -89 -69 -108 -163 -108c-39 0 -81 3 -117 9
c-5 1 -9 4 -7 12l7 45c1 6 4 8 11 8h84c74 0 95 7 101 44l2 12c4 26 -8 45 -64 45h-84c-7 0 -8 3 -8 8l9 51c1 6 2 8 9 8h84c55 0 73 11 79 47l1 10c6 36 -12 44 -86 44h-85c-6 0 -9 2 -8 7l7 46c1 7 5 10 11 11c38 7 82 10 121 10zM652 411h65c8 0 9 -4 5 -11l-99 -229h96
l15 96c1 5 3 10 9 12l69 23c8 3 13 1 11 -7l-19 -124h60c7 0 10 -4 9 -10l-8 -55c-1 -7 -5 -10 -13 -10h-60l-14 -86c-1 -7 -4 -10 -11 -10h-66c-6 0 -9 3 -8 10l14 86h-179c-6 0 -9 3 -8 11l5 34c1 5 3 11 7 19l106 245c3 5 7 6 14 6z" />
    <glyph glyph-name="oneeighth" unicode="&#x215b;" horiz-adv-x="873" 
d="M667 813h39c10 0 11 -6 5 -17l-491 -822c-8 -12 -15 -17 -25 -17h-41c-10 0 -12 5 -4 17l492 822c7 11 13 17 25 17zM163 777c47 0 102 -6 90 -76l-41 -264h65c6 0 10 -3 8 -10l-8 -55c-1 -6 -6 -9 -12 -9h-216c-7 0 -11 3 -9 10l8 54c1 6 6 10 12 10h69l38 237
c3 24 -6 32 -37 32h-32c-7 0 -10 3 -9 9l7 42c1 8 5 10 11 13c17 5 43 7 56 7zM704 414h9c93 0 132 -36 119 -112c-8 -53 -30 -77 -69 -98c41 -15 59 -42 50 -93c-12 -77 -65 -114 -167 -114h-10c-100 0 -144 37 -132 112c6 42 28 78 84 100c-39 17 -47 48 -40 93
c12 76 62 112 156 112zM699 340h-8c-32 0 -52 -15 -57 -47c-4 -27 8 -39 32 -46l38 -8c25 11 36 30 40 53c4 31 -8 48 -45 48zM694 165l-48 12c-33 -12 -49 -29 -54 -56c-5 -34 14 -49 57 -49h7c44 0 67 13 72 45c4 28 -7 42 -34 48z" />
    <glyph glyph-name="threeeighths" unicode="&#x215c;" horiz-adv-x="889" 
d="M677 813h39c10 0 11 -6 5 -17l-491 -822c-8 -12 -16 -17 -26 -17h-40c-10 0 -13 5 -5 17l493 822c7 11 13 17 25 17zM230 777c94 0 142 -20 128 -109l-3 -15c-5 -33 -23 -73 -71 -84c46 -9 49 -51 45 -83l-3 -18c-15 -89 -69 -108 -163 -108c-39 0 -81 3 -116 9
c-6 1 -10 4 -8 12l7 45c1 6 5 8 11 8h85c74 0 94 7 100 44l2 12c4 26 -8 45 -64 45h-84c-7 0 -8 3 -7 8l8 51c1 6 3 8 9 8h85c54 0 72 11 78 47l2 10c6 36 -13 44 -87 44h-85c-6 0 -9 2 -8 7l7 46c1 7 5 10 11 11c38 7 82 10 121 10zM719 414h9c94 0 133 -36 120 -112
c-8 -53 -30 -77 -69 -98c41 -15 58 -42 50 -93c-12 -77 -65 -114 -167 -114h-10c-100 0 -145 37 -133 112c7 42 29 78 85 100c-39 17 -47 48 -40 93c12 76 62 112 155 112zM715 340h-8c-32 0 -52 -15 -57 -47c-4 -27 8 -39 32 -46l38 -8c24 11 36 30 40 53
c4 31 -8 48 -45 48zM709 165l-47 12c-33 -12 -49 -29 -54 -56c-5 -34 14 -49 57 -49h7c44 0 66 13 71 45c5 28 -6 42 -34 48z" />
    <glyph glyph-name="fiveeighths" unicode="&#x215d;" horiz-adv-x="903" 
d="M699 813h39c10 0 12 -6 5 -17l-490 -822c-8 -12 -16 -17 -26 -17h-40c-10 0 -13 5 -5 17l492 822c7 11 14 17 25 17zM125 774h251c6 0 9 -3 8 -10l-8 -54c-1 -7 -6 -10 -12 -10h-182l-18 -82c15 3 42 4 53 4c110 0 149 -26 134 -121l-4 -20c-14 -95 -56 -121 -187 -121
c-40 0 -74 2 -110 8c-5 1 -8 4 -7 11l8 48c1 5 4 7 10 7h110c61 0 85 6 92 49l2 13c7 43 -15 52 -76 52h-105c-10 0 -14 3 -13 10l9 51l36 157c1 5 4 8 9 8zM734 414h9c93 0 132 -36 119 -112c-8 -53 -30 -77 -69 -98c41 -15 59 -42 50 -93c-12 -77 -65 -114 -167 -114h-10
c-100 0 -144 37 -132 112c6 42 28 78 84 100c-39 17 -47 48 -40 93c12 76 62 112 156 112zM729 340h-8c-32 0 -52 -15 -57 -47c-4 -27 8 -39 32 -46l38 -8c25 11 36 30 40 53c4 31 -8 48 -45 48zM723 165l-47 12c-33 -12 -49 -29 -54 -56c-5 -34 14 -49 57 -49h7
c44 0 67 13 72 45c4 28 -7 42 -35 48z" />
    <glyph glyph-name="seveneighths" unicode="&#x215e;" horiz-adv-x="840" 
d="M615 813h40c10 0 11 -6 5 -17l-491 -822c-8 -12 -16 -17 -26 -17h-40c-10 0 -13 5 -5 17l492 822c7 11 14 17 25 17zM106 774h281c7 0 10 -2 8 -10l-6 -41c-1 -6 -3 -10 -7 -14l-230 -339c-2 -5 -7 -7 -12 -7h-76c-8 0 -9 5 -5 11l221 326h-186c-8 0 -10 3 -9 9l8 55
c2 8 5 10 13 10zM668 414h9c93 0 132 -36 120 -112c-8 -53 -31 -77 -69 -98c40 -15 58 -42 50 -93c-12 -77 -65 -114 -168 -114h-10c-100 0 -144 37 -132 112c6 42 29 78 84 100c-39 17 -46 48 -39 93c12 76 62 112 155 112zM664 340h-9c-32 0 -52 -15 -56 -47
c-5 -27 7 -39 31 -46l39 -8c24 11 35 30 39 53c5 31 -8 48 -44 48zM658 165l-47 12c-33 -12 -50 -29 -54 -56c-6 -34 13 -49 57 -49h7c44 0 66 13 71 45c4 28 -6 42 -34 48z" />
    <glyph glyph-name="zero.dnom" horiz-adv-x="382" 
d="M205 414c126 0 149 -48 123 -209c-25 -160 -63 -208 -189 -208s-149 48 -123 208c25 161 63 209 189 209zM193 340c-57 0 -76 -31 -92 -135c-17 -103 -7 -133 50 -133s76 30 92 133c16 104 8 135 -50 135z" />
    <glyph glyph-name="one.dnom" horiz-adv-x="283" 
d="M154 75h65c6 0 9 -4 8 -11l-8 -55c-1 -6 -6 -9 -12 -9h-217c-6 0 -9 3 -8 10l8 54c1 6 5 11 12 11h69l38 236c3 25 -6 32 -37 32h-32c-7 0 -10 3 -10 10l7 42c2 7 6 9 12 12c17 5 43 7 56 7c47 0 102 -6 91 -76z" />
    <glyph glyph-name="two.dnom" horiz-adv-x="352" 
d="M183 414c77 0 144 -11 131 -93l-9 -50c-5 -37 -14 -67 -66 -96l-113 -57c-22 -11 -40 -21 -42 -37l-1 -6h190c4 0 6 -2 5 -5l-11 -65c0 -3 -2 -5 -5 -5h-275c-11 0 -13 6 -12 15l8 50c8 49 30 72 91 106l115 63c25 13 30 29 34 48l2 19c6 32 -12 39 -53 39h-115
c-5 0 -6 3 -6 8l8 46c1 7 4 9 10 11c36 6 76 9 114 9z" />
    <glyph glyph-name="three.dnom" horiz-adv-x="342" 
d="M174 414c93 0 141 -20 127 -108l-2 -16c-5 -33 -23 -72 -71 -84c45 -9 49 -51 44 -83l-2 -18c-14 -89 -68 -108 -162 -108c-39 0 -82 3 -118 10c-6 1 -8 4 -7 11l7 45c1 6 4 8 11 8h84c74 0 95 7 101 44l2 12c5 27 -8 45 -63 45h-85c-7 0 -8 3 -7 8l8 51c0 6 3 8 10 8h84
c54 0 72 11 78 47l2 10c6 36 -13 44 -87 44h-85c-6 0 -9 2 -8 8l8 45c1 7 4 10 10 11c38 7 82 10 121 10z" />
    <glyph glyph-name="four.dnom" horiz-adv-x="385" 
d="M119 411h65c8 0 9 -4 5 -11l-100 -229h96l16 96c1 5 3 10 9 12l69 23c8 3 12 1 11 -7l-19 -124h60c7 0 10 -4 9 -10l-8 -55c-1 -7 -6 -10 -13 -10h-60l-14 -86c-1 -7 -4 -10 -11 -10h-66c-6 0 -9 3 -8 10l14 86h-179c-7 0 -9 3 -8 11l5 34c1 5 3 11 7 19l106 245
c3 5 7 6 14 6z" />
    <glyph glyph-name="five.dnom" horiz-adv-x="359" 
d="M71 411h251c6 0 9 -3 8 -10l-9 -54c-1 -7 -5 -10 -11 -10h-182l-19 -82c15 3 42 4 53 4c111 0 150 -26 134 -121l-2 -20c-16 -95 -56 -121 -188 -121c-40 0 -74 2 -110 8c-6 1 -9 4 -8 11l8 48c1 6 5 8 11 8h110c60 0 85 5 92 48l2 13c6 43 -15 52 -76 52h-105
c-10 0 -14 3 -13 10l8 51l36 157c1 5 4 8 10 8z" />
    <glyph glyph-name="six.dnom" horiz-adv-x="350" 
d="M166 411h71c8 0 9 -5 5 -12l-97 -152c11 3 27 4 40 4c76 0 127 -30 115 -104l-8 -45c-11 -73 -62 -105 -165 -105c-99 0 -145 32 -135 113l5 32c4 23 10 39 21 57l135 206c3 4 8 6 13 6zM156 183c-49 0 -68 -10 -75 -49l-2 -13c-6 -39 11 -49 59 -49c49 0 67 10 73 49
l2 13c7 39 -9 49 -57 49z" />
    <glyph glyph-name="seven.dnom" horiz-adv-x="339" 
d="M42 411h281c7 0 10 -2 9 -10l-7 -40c-1 -7 -4 -11 -7 -15l-229 -339c-4 -5 -8 -7 -13 -7h-76c-8 0 -10 5 -5 12l221 325h-186c-7 0 -11 3 -9 9l9 55c1 8 4 10 12 10z" />
    <glyph glyph-name="eight.dnom" horiz-adv-x="371" 
d="M196 414h9c93 0 132 -36 119 -112c-8 -53 -30 -77 -69 -98c41 -15 59 -42 50 -93c-12 -77 -65 -114 -167 -114h-10c-100 0 -144 37 -132 112c6 42 28 78 84 100c-39 17 -47 48 -40 93c12 76 62 112 156 112zM191 340h-8c-32 0 -52 -15 -57 -47c-4 -27 8 -39 32 -46l38 -8
c25 11 36 30 40 53c4 31 -8 48 -45 48zM185 165l-47 12c-33 -12 -49 -29 -54 -56c-5 -34 14 -49 57 -49h7c44 0 67 13 72 45c4 28 -7 42 -35 48z" />
    <glyph glyph-name="nine.dnom" horiz-adv-x="350" 
d="M185 414c99 0 145 -32 134 -113l-4 -32c-5 -23 -10 -39 -22 -57l-135 -205c-3 -5 -7 -7 -12 -7h-71c-9 0 -10 5 -5 12l98 153c-13 -4 -28 -5 -40 -5c-76 0 -128 31 -116 104l7 45c12 74 63 105 166 105zM173 340c-48 0 -66 -11 -72 -49l-2 -14c-7 -39 9 -49 57 -49
c49 0 68 10 75 49l1 14c6 38 -10 49 -59 49z" />
    <glyph glyph-name="zero.numr" horiz-adv-x="382" 
d="M263 777c127 0 149 -48 123 -209c-25 -161 -63 -208 -189 -208s-148 47 -123 208s64 209 189 209zM251 703c-57 0 -76 -31 -92 -135c-16 -103 -7 -134 50 -134c58 0 76 31 92 134c17 104 8 135 -50 135z" />
    <glyph glyph-name="one.numr" horiz-adv-x="283" 
d="M212 437h64c7 0 10 -3 9 -10l-8 -55c-2 -6 -6 -9 -12 -9h-217c-7 0 -10 3 -9 10l8 54c2 6 6 10 13 10h69l38 237c3 24 -7 32 -37 32h-32c-8 0 -10 3 -10 9l7 42c1 8 6 10 12 13c16 5 42 7 56 7c46 0 101 -6 90 -76z" />
    <glyph glyph-name="two.numr" horiz-adv-x="352" 
d="M240 777c78 0 144 -11 131 -94l-8 -49c-6 -37 -14 -67 -67 -96l-112 -58c-23 -10 -40 -21 -43 -37l-1 -6h191c4 0 5 -1 5 -4l-11 -66c0 -3 -2 -4 -5 -4h-275c-11 0 -13 6 -12 15l8 50c8 48 29 72 90 105l115 64c26 13 31 29 34 48l3 19c5 32 -13 39 -54 39h-114
c-5 0 -7 2 -6 7l7 47c1 6 4 9 10 10c36 7 77 10 114 10z" />
    <glyph glyph-name="three.numr" horiz-adv-x="342" 
d="M232 777c94 0 142 -20 128 -109l-3 -15c-5 -33 -23 -73 -70 -84c45 -9 49 -51 44 -83l-3 -18c-14 -89 -68 -108 -162 -108c-39 0 -81 3 -117 9c-6 1 -9 4 -8 12l7 45c1 6 5 8 11 8h85c74 0 95 7 100 44l2 12c5 26 -8 45 -63 45h-85c-7 0 -7 3 -7 8l9 51c0 6 2 8 9 8h84
c54 0 73 11 79 47l1 10c6 36 -13 44 -87 44h-84c-7 0 -9 2 -9 7l8 46c1 7 5 10 11 11c37 7 81 10 120 10z" />
    <glyph glyph-name="four.numr" horiz-adv-x="385" 
d="M176 774h65c8 0 9 -4 5 -11l-99 -230h96l15 97c1 5 4 10 9 12l70 23c7 3 12 1 11 -7l-20 -125h61c7 0 10 -3 9 -9l-9 -55c-1 -8 -5 -10 -12 -10h-60l-14 -86c-2 -7 -5 -10 -11 -10h-66c-7 0 -10 3 -8 10l14 86h-179c-7 0 -10 2 -9 10l6 35c1 5 3 10 7 19l106 244
c3 6 6 7 13 7z" />
    <glyph glyph-name="five.numr" horiz-adv-x="359" 
d="M128 774h251c6 0 9 -3 8 -10l-8 -54c-1 -7 -6 -10 -12 -10h-182l-19 -82c16 3 43 4 54 4c110 0 149 -26 134 -121l-4 -20c-14 -95 -56 -121 -187 -121c-40 0 -74 2 -110 8c-5 1 -8 4 -7 11l8 48c0 5 4 7 10 7h110c61 0 85 6 92 49l2 13c7 43 -15 52 -76 52h-105
c-11 0 -14 3 -13 10l8 51l37 157c1 5 4 8 9 8z" />
    <glyph glyph-name="six.numr" horiz-adv-x="350" 
d="M222 774h71c8 0 10 -6 6 -12l-98 -152c12 3 28 4 40 4c76 0 127 -31 115 -104l-7 -46c-11 -72 -64 -104 -166 -104c-99 0 -145 32 -134 113l5 32c4 23 10 39 21 57l135 205c3 5 7 7 12 7zM212 546c-49 0 -68 -10 -74 -49l-2 -13c-6 -39 10 -50 59 -50c48 0 67 11 73 50
l2 13c6 39 -10 49 -58 49z" />
    <glyph glyph-name="seven.numr" horiz-adv-x="339" 
d="M99 774h281c7 0 10 -2 9 -10l-6 -41c-2 -6 -4 -10 -7 -14l-230 -339c-3 -5 -7 -7 -12 -7h-76c-8 0 -10 5 -6 11l222 326h-186c-8 0 -11 3 -10 9l9 55c1 8 4 10 12 10z" />
    <glyph glyph-name="eight.numr" horiz-adv-x="371" 
d="M253 777h9c94 0 132 -36 120 -112c-8 -53 -30 -77 -70 -98c40 -15 59 -42 51 -93c-12 -78 -66 -114 -168 -114h-10c-100 0 -144 36 -132 112c6 42 29 77 84 100c-38 17 -47 48 -40 92c12 77 63 113 156 113zM249 703h-9c-32 0 -51 -16 -57 -47c-4 -27 9 -39 32 -46l39 -9
c24 12 36 31 39 54c5 31 -8 48 -44 48zM243 528l-47 12c-33 -12 -49 -29 -54 -56c-5 -34 13 -50 56 -50h7c45 0 67 14 72 46c5 27 -6 41 -34 48z" />
    <glyph glyph-name="nine.numr" horiz-adv-x="350" 
d="M243 777c99 0 144 -32 134 -113l-5 -32c-4 -23 -10 -39 -21 -57l-135 -205c-3 -5 -7 -7 -12 -7h-72c-8 0 -9 5 -5 12l98 152c-12 -3 -28 -4 -40 -4c-76 0 -128 30 -116 104l8 45c11 74 63 105 166 105zM231 702c-48 0 -67 -10 -73 -49l-2 -13c-6 -39 9 -49 57 -49
c49 0 68 10 75 49l2 13c6 39 -10 49 -59 49z" />
    <glyph glyph-name="uni24EA" unicode="&#x24ea;" horiz-adv-x="800" 
d="M468 753c244 0 346 -130 308 -366c-38 -239 -186 -366 -424 -366c-239 0 -347 127 -309 366c38 238 186 366 425 366zM460 701c-210 0 -332 -105 -365 -314c-33 -210 56 -314 265 -314c210 0 331 104 364 314c33 207 -51 314 -264 314zM442 592c127 0 149 -47 123 -209
c-25 -160 -63 -208 -189 -208s-148 48 -123 208c25 162 64 209 189 209zM431 518c-57 0 -77 -31 -93 -135c-16 -103 -7 -133 50 -133c58 0 76 30 92 133c17 104 8 135 -49 135z" />
    <glyph glyph-name="uni2460" unicode="&#x2460;" horiz-adv-x="800" 
d="M467 753c242 0 347 -128 309 -366c-38 -239 -186 -366 -425 -366c-238 0 -346 127 -308 366c38 238 186 366 424 366zM459 701c-209 0 -331 -105 -364 -314c-33 -210 56 -314 265 -314s330 104 363 314c34 208 -52 314 -264 314zM395 592c46 0 101 -6 90 -76l-42 -264h65
c6 0 10 -3 9 -10l-8 -55c-2 -6 -6 -9 -12 -9h-217c-7 0 -10 3 -9 10l8 54c2 6 6 10 12 10h69l38 237c4 24 -6 32 -36 32h-32c-8 0 -11 3 -10 9l7 42c1 8 5 10 12 13c16 5 42 7 56 7z" />
    <glyph glyph-name="uni2461" unicode="&#x2461;" horiz-adv-x="800" 
d="M467 753c244 0 347 -130 309 -366c-38 -239 -186 -366 -425 -366c-238 0 -346 127 -308 366c38 238 186 366 424 366zM459 701c-209 0 -331 -105 -364 -314c-33 -210 56 -314 265 -314s330 104 363 314c33 207 -51 314 -264 314zM440 592c77 0 143 -11 130 -94l-7 -49
c-6 -37 -15 -67 -68 -96l-113 -58c-22 -10 -39 -21 -41 -37l-2 -6h191c4 0 5 -1 5 -4l-11 -66c0 -3 -2 -4 -5 -4h-275c-11 0 -13 6 -12 15l8 50c7 48 29 72 90 105l116 64c25 13 30 29 33 48l4 19c4 32 -13 39 -54 39h-115c-5 0 -7 2 -6 7l8 47c1 6 3 9 10 10
c36 7 76 10 114 10z" />
    <glyph glyph-name="uni2462" unicode="&#x2462;" horiz-adv-x="800" 
d="M467 753c242 0 347 -130 309 -366c-38 -239 -186 -366 -425 -366c-238 0 -346 127 -308 366c38 238 186 366 424 366zM459 701c-209 0 -331 -105 -364 -314c-33 -210 56 -314 265 -314s330 104 363 314c33 207 -52 314 -264 314zM434 592c94 0 141 -20 127 -109l-2 -15
c-6 -33 -23 -73 -71 -84c46 -9 49 -51 45 -83l-3 -18c-15 -89 -69 -108 -163 -108c-39 0 -81 3 -116 9c-6 1 -10 4 -8 12l7 45c1 6 5 8 11 8h85c74 0 94 7 100 44l2 12c4 26 -8 45 -64 45h-85c-6 0 -7 3 -6 8l8 51c1 6 2 8 9 8h84c55 0 73 11 79 47l2 10c5 36 -13 44 -87 44
h-85c-6 0 -9 2 -8 7l7 46c1 7 5 10 11 11c38 7 82 10 121 10z" />
    <glyph glyph-name="uni2463" unicode="&#x2463;" horiz-adv-x="800" 
d="M467 753c242 0 347 -130 309 -366c-38 -239 -186 -366 -425 -366c-238 0 -346 127 -308 366c38 238 186 366 424 366zM459 701c-209 0 -331 -105 -364 -314c-33 -210 56 -314 265 -314s330 104 363 314c33 207 -52 314 -264 314zM353 589h65c8 0 9 -4 5 -11l-99 -230h96
l15 97c1 5 4 10 9 12l69 23c8 3 13 1 12 -7l-20 -125h61c7 0 10 -3 9 -9l-9 -55c-1 -8 -5 -10 -12 -10h-60l-14 -86c-2 -7 -5 -10 -12 -10h-65c-7 0 -10 3 -8 10l14 86h-179c-7 0 -10 2 -9 10l5 35c1 5 4 10 8 19l106 244c3 6 6 7 13 7z" />
    <glyph glyph-name="uni2464" unicode="&#x2464;" horiz-adv-x="800" 
d="M467 753c242 0 347 -130 309 -366c-38 -239 -186 -366 -425 -366c-238 0 -346 127 -308 366c38 238 186 366 424 366zM459 701c-209 0 -331 -105 -364 -314c-33 -210 56 -314 265 -314s330 104 363 314c33 207 -52 314 -264 314zM317 589h250c7 0 10 -3 9 -10l-9 -54
c-1 -7 -5 -10 -11 -10h-182l-19 -82c15 3 42 4 53 4c111 0 149 -26 135 -121l-4 -20c-15 -95 -56 -121 -188 -121c-39 0 -74 2 -109 8c-6 1 -9 4 -8 11l8 48c1 5 5 7 11 7h110c60 0 84 6 91 49l2 13c7 43 -15 52 -76 52h-105c-10 0 -13 3 -12 10l8 51l36 157c2 5 4 8 10 8z
" />
    <glyph glyph-name="uni2465" unicode="&#x2465;" horiz-adv-x="800" 
d="M467 753c242 0 347 -130 309 -366c-38 -239 -186 -366 -425 -366c-238 0 -346 127 -308 366c38 238 186 366 424 366zM459 701c-209 0 -331 -105 -364 -314c-33 -210 56 -314 265 -314s330 104 363 314c33 207 -52 314 -264 314zM416 589h72c8 0 9 -6 5 -12l-98 -152
c12 3 28 4 40 4c76 0 127 -31 116 -104l-8 -46c-11 -72 -63 -104 -166 -104c-99 0 -144 32 -134 113l5 32c4 23 10 39 21 57l135 205c3 5 7 7 12 7zM406 361c-49 0 -68 -10 -74 -49l-2 -13c-6 -39 10 -50 59 -50c48 0 67 11 73 50l2 13c6 39 -10 49 -58 49z" />
    <glyph glyph-name="uni2466" unicode="&#x2466;" horiz-adv-x="800" 
d="M467 753c242 0 347 -130 309 -366c-38 -239 -186 -366 -425 -366c-238 0 -346 127 -308 366c38 238 186 366 424 366zM459 701c-209 0 -331 -105 -364 -314c-33 -210 56 -314 265 -314s330 104 363 314c33 207 -52 314 -264 314zM301 589h281c7 0 10 -2 9 -10l-6 -41
c-2 -6 -4 -10 -7 -14l-230 -339c-3 -5 -7 -7 -12 -7h-76c-8 0 -10 5 -6 11l222 326h-186c-8 0 -11 3 -10 9l9 55c1 8 5 10 12 10z" />
    <glyph glyph-name="uni2467" unicode="&#x2467;" horiz-adv-x="800" 
d="M467 753c242 0 347 -130 309 -366c-38 -239 -186 -366 -425 -366c-238 0 -346 127 -308 366c38 238 186 366 424 366zM459 701c-209 0 -331 -105 -364 -314c-33 -210 56 -314 265 -314s330 104 363 314c33 207 -52 314 -264 314zM439 592h9c94 0 132 -36 120 -112
c-8 -53 -30 -77 -70 -98c41 -15 59 -42 51 -93c-12 -78 -66 -114 -168 -114h-10c-100 0 -144 36 -132 112c6 42 29 77 84 100c-39 17 -47 48 -40 92c13 77 63 113 156 113zM433 518h-8c-32 0 -52 -16 -57 -47c-5 -27 8 -39 32 -46l38 -9c24 12 36 31 39 54
c6 31 -7 48 -44 48zM429 343l-47 12c-33 -12 -50 -29 -54 -56c-5 -34 13 -50 56 -50h8c44 0 66 14 71 46c4 27 -6 41 -34 48z" />
    <glyph glyph-name="uni2468" unicode="&#x2468;" horiz-adv-x="800" 
d="M467 753c242 0 347 -130 309 -366c-38 -239 -186 -366 -425 -366c-238 0 -346 127 -308 366c38 238 186 366 424 366zM459 701c-209 0 -331 -105 -364 -314c-33 -210 56 -314 265 -314s330 104 363 314c33 207 -52 314 -264 314zM441 592c99 0 145 -32 134 -113l-5 -32
c-4 -23 -10 -39 -21 -57l-135 -205c-3 -5 -7 -7 -12 -7h-71c-9 0 -10 5 -6 12l98 152c-12 -3 -28 -4 -40 -4c-76 0 -127 30 -115 104l7 45c11 74 63 105 166 105zM429 517c-47 0 -66 -10 -72 -49l-2 -13c-7 -39 9 -49 57 -49c49 0 68 10 75 49l2 13c6 39 -11 49 -60 49z" />
    <glyph glyph-name="uni24FF" unicode="&#x24ff;" horiz-adv-x="800" 
d="M353 27c-224 0 -323 116 -287 340c35 224 171 340 395 340c226 0 321 -118 286 -340c-36 -224 -170 -340 -394 -340zM439 572c-126 0 -164 -47 -189 -209c-26 -160 -3 -208 123 -208s164 48 189 208c26 162 3 209 -123 209zM427 498c58 0 67 -31 50 -135
c-16 -103 -34 -133 -92 -133c-57 0 -66 30 -50 133c16 104 35 135 92 135z" />
    <glyph glyph-name="uni2776" unicode="&#x2776;" horiz-adv-x="800" 
d="M460 707c227 0 321 -118 286 -340c-35 -224 -170 -340 -394 -340s-322 116 -286 340c35 224 170 340 394 340zM391 572c-14 0 -39 -2 -55 -7c-7 -3 -11 -5 -12 -13l-7 -42c-1 -6 2 -9 10 -9h32c30 0 40 -8 36 -32l-38 -237h-69c-6 0 -11 -4 -12 -10l-9 -54
c0 -7 3 -10 10 -10h216c6 0 11 3 12 9l9 55c1 7 -3 10 -9 10h-65l42 264c11 70 -45 76 -91 76z" />
    <glyph glyph-name="uni2777" unicode="&#x2777;" horiz-adv-x="800" 
d="M460 707c227 0 321 -118 286 -340c-35 -224 -170 -340 -394 -340s-322 116 -286 340c35 224 170 340 394 340zM436 572c-38 0 -77 -3 -114 -10c-6 -1 -8 -4 -10 -10l-7 -47c-1 -5 1 -7 6 -7h115c41 0 58 -7 53 -39l-3 -19c-3 -19 -8 -35 -33 -48l-116 -64
c-61 -33 -83 -57 -90 -105l-8 -50c-2 -9 1 -15 12 -15h274c3 0 6 1 6 4l10 66c1 3 0 4 -4 4h-191l1 6c3 16 20 27 42 37l113 58c52 29 62 59 68 96l7 49c13 83 -54 94 -131 94z" />
    <glyph glyph-name="uni2778" unicode="&#x2778;" horiz-adv-x="800" 
d="M460 707c227 0 321 -118 286 -340c-35 -224 -170 -340 -394 -340s-322 116 -286 340c35 224 170 340 394 340zM430 572c-39 0 -82 -3 -120 -10c-6 -1 -10 -4 -11 -11l-7 -46c-1 -5 2 -7 8 -7h85c74 0 92 -8 86 -44l-1 -10c-6 -36 -24 -47 -79 -47h-84c-7 0 -8 -2 -9 -8
l-8 -51c-1 -5 0 -8 6 -8h85c56 0 68 -19 64 -45l-2 -12c-6 -37 -27 -44 -101 -44h-84c-7 0 -11 -2 -12 -8l-7 -45c-1 -8 2 -11 8 -12c36 -6 78 -9 117 -9c94 0 148 19 163 108l3 18c4 32 1 74 -45 83c48 11 65 51 70 84l3 15c14 89 -34 109 -128 109z" />
    <glyph glyph-name="uni2779" unicode="&#x2779;" horiz-adv-x="800" 
d="M460 707c227 0 321 -118 286 -340c-35 -224 -170 -340 -394 -340s-322 116 -286 340c35 224 170 340 394 340zM415 569h-65c-7 0 -10 -1 -13 -7l-106 -244c-4 -9 -7 -14 -8 -19l-5 -35c-1 -8 1 -10 8 -10h179l-14 -86c-1 -7 2 -10 8 -10h66c7 0 10 3 12 10l13 86h60
c7 0 11 2 12 10l9 55c2 6 -2 9 -9 9h-61l21 125c1 8 -4 10 -12 7l-69 -23c-5 -2 -8 -7 -9 -12l-16 -97h-96l100 230c4 7 3 11 -5 11z" />
    <glyph glyph-name="uni277A" unicode="&#x277a;" horiz-adv-x="800" 
d="M460 707c227 0 321 -118 286 -340c-35 -224 -170 -340 -394 -340s-322 116 -286 340c35 224 170 340 394 340zM564 569h-250c-6 0 -8 -3 -10 -8l-36 -157l-8 -51c-1 -7 2 -10 12 -10h105c61 0 83 -9 76 -52l-2 -13c-7 -43 -31 -49 -92 -49h-110c-6 0 -9 -2 -10 -7l-8 -48
c-1 -7 2 -10 7 -11c36 -6 71 -8 110 -8c132 0 173 26 188 121l3 20c15 95 -23 121 -134 121c-11 0 -38 -1 -54 -4l20 82h182c6 0 10 3 11 10l9 54c1 7 -2 10 -9 10z" />
    <glyph glyph-name="uni277B" unicode="&#x277b;" horiz-adv-x="800" 
d="M460 707c227 0 321 -118 286 -340c-35 -224 -170 -340 -394 -340s-322 116 -286 340c35 224 170 340 394 340zM485 569h-72c-5 0 -9 -2 -13 -7l-134 -205c-11 -18 -17 -34 -21 -57l-5 -32c-11 -81 35 -113 134 -113c103 0 155 32 166 104l8 46c11 73 -40 104 -116 104
c-13 0 -28 -1 -40 -4l97 152c5 6 4 12 -4 12zM403 341c48 0 64 -10 58 -49l-2 -13c-6 -39 -25 -50 -74 -50c-48 0 -64 11 -58 50l2 13c6 39 25 49 74 49z" />
    <glyph glyph-name="uni277C" unicode="&#x277c;" horiz-adv-x="800" 
d="M460 707c227 0 321 -118 286 -340c-35 -224 -170 -340 -394 -340s-322 116 -286 340c35 224 170 340 394 340zM579 569h-281c-7 0 -11 -2 -12 -10l-9 -55c-1 -6 2 -9 10 -9h186l-222 -326c-4 -6 -3 -11 5 -11h76c6 0 10 2 13 7l229 339c4 4 6 8 8 14l6 41
c1 8 -2 10 -9 10z" />
    <glyph glyph-name="uni277D" unicode="&#x277d;" horiz-adv-x="800" 
d="M460 707c227 0 321 -118 286 -340c-35 -224 -170 -340 -394 -340s-322 116 -286 340c35 224 170 340 394 340zM444 572h-9c-93 0 -142 -36 -155 -113c-7 -44 1 -75 40 -92c-55 -23 -78 -58 -85 -100c-11 -76 33 -112 133 -112h10c102 0 156 36 168 114
c8 51 -10 78 -51 93c39 21 62 45 70 98c12 76 -27 112 -121 112zM422 498h8c37 0 49 -17 44 -48c-3 -23 -15 -42 -39 -54l-38 9c-24 7 -37 19 -32 46c4 31 25 47 57 47zM379 335l47 -12c28 -7 38 -21 34 -48c-5 -32 -28 -46 -72 -46h-7c-43 0 -61 16 -56 50
c4 27 21 44 54 56z" />
    <glyph glyph-name="uni277E" unicode="&#x277e;" horiz-adv-x="800" 
d="M460 707c227 0 321 -118 286 -340c-35 -224 -170 -340 -394 -340s-322 116 -286 340c35 224 170 340 394 340zM438 572c-103 0 -155 -31 -167 -105l-7 -45c-11 -74 40 -104 116 -104c12 0 28 1 40 4l-98 -152c-4 -7 -3 -12 5 -12h71c5 0 10 2 13 7l134 205
c12 18 18 34 22 57l4 32c12 81 -34 113 -133 113zM426 497c49 0 65 -10 60 -49l-2 -13c-7 -39 -26 -49 -75 -49c-48 0 -64 10 -57 49l2 13c6 39 25 49 72 49z" />
    <glyph glyph-name="zerosuperior" unicode="&#x2070;" horiz-adv-x="382" 
d="M286 931c127 0 150 -48 124 -209s-64 -208 -190 -208c-125 0 -148 47 -123 208c26 161 64 209 189 209zM275 857c-57 0 -76 -31 -92 -135c-17 -103 -8 -134 49 -134c58 0 76 31 93 134c17 104 7 135 -50 135z" />
    <glyph glyph-name="onesuperior" unicode="&#xb9;" horiz-adv-x="283" 
d="M236 591h64c7 0 10 -3 10 -10l-9 -55c-1 -6 -6 -9 -12 -9h-217c-7 0 -9 3 -9 10l9 54c1 6 5 10 12 10h69l38 237c3 24 -6 32 -37 32h-32c-7 0 -10 3 -9 9l6 42c1 8 6 10 12 13c17 5 42 7 56 7c46 0 102 -6 91 -76z" />
    <glyph glyph-name="twosuperior" unicode="&#xb2;" horiz-adv-x="352" 
d="M264 931c78 0 145 -11 131 -94l-8 -49c-5 -37 -14 -67 -66 -96l-113 -58c-22 -10 -40 -21 -43 -37l-1 -6h191c4 0 5 -1 5 -4l-10 -66c-1 -3 -3 -4 -6 -4h-275c-11 0 -13 6 -12 15l8 50c8 48 30 72 91 105l115 64c25 13 31 29 34 48l2 19c6 32 -12 39 -53 39h-115
c-5 0 -6 2 -6 7l8 47c1 6 3 9 9 10c37 7 77 10 114 10z" />
    <glyph glyph-name="threesuperior" unicode="&#xb3;" horiz-adv-x="342" 
d="M256 931c94 0 142 -20 128 -109l-2 -15c-6 -33 -23 -73 -70 -84c44 -9 49 -51 43 -83l-3 -18c-14 -89 -68 -108 -162 -108c-39 0 -81 3 -117 9c-6 1 -8 4 -7 12l7 45c1 6 4 8 10 8h85c74 0 95 7 101 44l2 12c5 26 -8 45 -64 45h-84c-7 0 -8 3 -7 8l8 51c1 6 3 8 9 8h85
c54 0 72 11 78 47l2 10c5 36 -13 44 -87 44h-85c-6 0 -9 2 -8 7l7 46c1 7 5 10 11 11c38 7 81 10 120 10z" />
    <glyph glyph-name="foursuperior" unicode="&#x2074;" horiz-adv-x="385" 
d="M201 928h65c8 0 8 -4 5 -11l-100 -230h96l15 97c1 5 4 10 10 12l69 23c8 3 12 1 11 -7l-20 -125h61c7 0 10 -3 9 -9l-8 -55c-1 -8 -6 -10 -13 -10h-60l-14 -86c-1 -7 -5 -10 -11 -10h-66c-7 0 -9 3 -8 10l14 86h-179c-7 0 -9 2 -8 10l5 35c1 5 3 10 7 19l106 244
c3 6 7 7 14 7z" />
    </font>
</defs>
</svg>
