<?xml version="1.0" standalone="no"?>
<!DOCTYPE svg PUBLIC "-//W3C//DTD SVG 1.1//EN" "http://www.w3.org/Graphics/SVG/1.1/DTD/svg11.dtd" >
<svg xmlns="http://www.w3.org/2000/svg" xmlns:xlink="http://www.w3.org/1999/xlink" version="1.1">
<metadata>
Created by FontForge 20160407 at Wed Jun 29 19:31:21 2016
 By Jimmy Wärting
Please contact us to learn more about license restrictions.
</metadata>
<defs>
<font id="UniviaPro-Light" horiz-adv-x="605" >
  <font-face 
    font-family="Univia Pro Light"
    font-weight="300"
    font-stretch="normal"
    units-per-em="1000"
    panose-1="0 0 4 0 0 0 0 0 0 0"
    ascent="800"
    descent="-200"
    x-height="535"
    cap-height="741"
    bbox="-123.081 -257.392 1234 1077"
    underline-thickness="50"
    underline-position="-100"
    stemh="48"
    stemv="53"
    unicode-range="U+0020-1F603"
  />
<missing-glyph horiz-adv-x="414" 
d="M97 741h456c6 0 9 -3 9 -9v-723c0 -6 -3 -9 -9 -9h-456c-6 0 -9 3 -9 9v723c0 6 3 9 9 9zM307 619c-37 0 -69 -2 -101 -5c-5 -1 -8 -4 -8 -10v-27c0 -5 2 -7 7 -7h102c64 0 112 -4 112 -69v-31c0 -46 -13 -63 -45 -78l-78 -37c-36 -20 -42 -30 -40 -59l2 -43
c1 -3 3 -5 5 -5h36c3 0 5 3 5 6l1 28c1 21 6 24 29 36l71 34c51 25 70 48 70 117v37c0 103 -77 113 -168 113zM281 190c-22 0 -34 -12 -34 -33s12 -32 34 -32c21 0 34 11 34 32s-12 33 -34 33z" />
    <glyph glyph-name="f_b" unicode="fb" horiz-adv-x="888" 
d="M602 542c194 0 224 -52 224 -270c0 -223 -29 -277 -208 -277c-59 0 -103 1 -200 15c-9 2 -12 7 -12 15v671l-129 3c-67 2 -111 -16 -111 -86v-78h143c6 0 9 -3 7 -10l-4 -26c-2 -6 -5 -8 -10 -8h-136v-482c0 -6 -3 -9 -9 -9h-35c-6 0 -9 3 -9 9v482h-79c-6 0 -9 3 -9 9
v26c0 6 3 9 9 9h79v86c0 105 86 126 159 126c42 0 119 -4 178 -8c6 -1 9 -3 9 -9v-193c46 3 92 5 143 5zM618 43c137 0 155 45 155 230c0 179 -18 221 -171 221h-143v-440c69 -9 116 -11 159 -11z" />
    <glyph glyph-name="f_f" unicode="ff" horiz-adv-x="655" 
d="M643 741c6 -2 8 -4 8 -9v-24c0 -6 -4 -9 -10 -9h-66c-34 0 -86 -1 -86 -58v-106h143c6 0 9 -3 8 -10l-5 -26c-1 -6 -4 -8 -10 -8h-136v-482c0 -6 -3 -9 -9 -9h-35c-6 0 -9 3 -9 9v482h-270v-482c0 -6 -4 -9 -10 -9h-34c-6 0 -9 3 -9 9v482h-79c-6 0 -10 3 -10 9v26
c0 6 4 9 10 9h79v114c0 97 93 98 124 98c28 0 66 -3 87 -6c6 -2 8 -4 8 -9v-24c0 -6 -4 -9 -10 -9h-71c-34 0 -85 -1 -85 -58v-106h270v114c0 97 94 98 125 98c28 0 61 -3 82 -6z" />
    <glyph glyph-name="f_f_b" unicode="ffb" horiz-adv-x="1213" 
d="M927 542c195 0 224 -52 224 -270c0 -223 -28 -277 -207 -277c-59 0 -103 1 -200 15c-9 2 -12 7 -12 15v671l-129 3c-67 2 -111 -16 -111 -86v-78h143c6 0 8 -3 7 -10l-5 -26c-1 -6 -4 -8 -10 -8h-135v-482c0 -6 -4 -9 -10 -9h-34c-6 0 -10 3 -10 9v482h-272v-482
c0 -6 -3 -9 -9 -9h-35c-6 0 -9 3 -9 9v482h-79c-6 0 -9 3 -9 9v26c0 6 3 9 9 9h79v114c0 97 94 98 125 98c28 0 61 -3 82 -6c6 -2 8 -4 8 -9v-24c0 -6 -4 -9 -10 -9h-66c-34 0 -86 -1 -86 -58v-106h272v86c0 105 87 126 160 126c42 0 118 -4 178 -8c6 -1 9 -3 9 -9v-193
c46 3 92 5 142 5zM944 43c137 0 154 45 154 230c0 179 -18 221 -171 221h-142v-440c69 -9 115 -11 159 -11z" />
    <glyph glyph-name="f_f_i" unicode="ffi" horiz-adv-x="871" 
d="M561 747c25 0 55 -3 79 -6c6 -2 8 -4 8 -9v-24c0 -6 -4 -9 -10 -9h-63c-34 0 -86 -1 -86 -58v-106h295c6 0 9 -3 9 -9v-517c0 -6 -3 -9 -9 -9h-35c-6 0 -9 3 -9 9v482h-251v-482c0 -6 -3 -9 -9 -9h-35c-6 0 -9 3 -9 9v482h-270v-482c0 -6 -4 -9 -10 -9h-34
c-6 0 -9 3 -9 9v482h-79c-6 0 -10 3 -10 9v26c0 6 4 9 10 9h79v114c0 97 93 98 124 98c28 0 71 -3 92 -6c7 -2 8 -4 8 -9v-24c0 -6 -3 -9 -9 -9h-77c-34 0 -85 -1 -85 -58v-106h270v114c0 97 94 98 125 98zM767 713c23 0 36 -13 36 -36c0 -25 -13 -38 -36 -38
c-24 0 -37 13 -37 38c0 23 13 36 37 36z" />
    <glyph glyph-name="f_f_j" unicode="ffj" horiz-adv-x="854" 
d="M561 747c28 0 50 -3 70 -6c7 -2 8 -4 8 -9v-24c0 -6 -3 -9 -9 -9h-55c-34 0 -86 -1 -86 -58v-106h278c6 0 9 -3 9 -9v-640c0 -80 -55 -81 -84 -81c-9 0 -34 0 -49 3c-7 1 -8 4 -8 9v26c0 7 3 9 9 9h37c25 0 42 2 42 52v587h-234v-482c0 -6 -3 -9 -9 -9h-35
c-6 0 -9 3 -9 9v482h-270v-482c0 -6 -4 -9 -10 -9h-34c-6 0 -9 3 -9 9v482h-79c-6 0 -10 3 -10 9v26c0 6 4 9 10 9h79v114c0 97 93 98 124 98c28 0 56 -3 77 -6c6 -2 8 -4 8 -9v-24c0 -6 -3 -9 -9 -9h-62c-34 0 -85 -1 -85 -58v-106h270v114c0 97 94 98 125 98zM750 713
c24 0 37 -13 37 -36c0 -25 -13 -38 -37 -38s-37 13 -37 38c0 23 13 36 37 36z" />
    <glyph glyph-name="f_f_k" unicode="ffk" horiz-adv-x="1116" 
d="M841 327l268 -313c5 -6 4 -14 -10 -14h-38c-6 0 -13 2 -17 8l-262 308v-307c0 -6 -3 -9 -9 -9h-35c-6 0 -9 3 -9 9v687l-129 3c-67 2 -112 -16 -112 -86v-78h143c6 0 9 -3 8 -10l-5 -26c-1 -6 -4 -8 -10 -8h-136v-482c0 -6 -3 -9 -9 -9h-34c-6 0 -10 3 -10 9v482h-269
v-482c0 -6 -3 -9 -9 -9h-35c-6 0 -9 3 -9 9v482h-79c-6 0 -9 3 -9 9v26c0 6 3 9 9 9h79v114c0 97 94 98 125 98c28 0 61 -3 82 -6c6 -2 8 -4 8 -9v-24c0 -6 -4 -9 -10 -9h-66c-34 0 -86 -1 -86 -58v-106h269v86c0 105 87 126 160 126c42 0 118 -4 178 -8c6 -1 9 -3 9 -9
v-390l197 189c5 5 10 6 18 6h46c11 0 11 -6 5 -12z" />
    <glyph glyph-name="f_f_l" unicode="ffl" horiz-adv-x="861" 
d="M773 739c6 -1 10 -3 10 -9v-721c0 -6 -4 -9 -10 -9h-34c-6 0 -9 3 -9 9v687l-129 3c-68 2 -112 -16 -112 -86v-78h143c6 0 9 -3 8 -10l-5 -26c-1 -6 -4 -8 -10 -8h-136v-482c0 -6 -3 -9 -9 -9h-35c-6 0 -9 3 -9 9v482h-270v-482c0 -6 -4 -9 -10 -9h-34c-6 0 -9 3 -9 9
v482h-79c-6 0 -10 3 -10 9v26c0 6 4 9 10 9h79v114c0 97 93 98 124 98c28 0 82 -3 103 -6c6 -2 8 -4 8 -9v-24c0 -6 -3 -9 -9 -9h-88c-34 0 -85 -1 -85 -58v-106h270v86c0 105 87 126 160 126c42 0 118 -4 177 -8z" />
    <glyph glyph-name="f_j" unicode="fj" horiz-adv-x="531" 
d="M237 747c28 0 51 -3 72 -6c6 -2 8 -4 8 -9v-24c0 -6 -3 -9 -9 -9h-57c-34 0 -85 -1 -85 -58v-106h277c6 0 10 -3 10 -9v-640c0 -80 -56 -81 -85 -81c-9 0 -34 0 -49 3c-6 1 -8 4 -8 9v26c0 7 4 9 10 9h37c25 0 41 2 41 52v587h-233v-482c0 -6 -4 -9 -10 -9h-34
c-6 0 -9 3 -9 9v482h-79c-6 0 -10 3 -10 9v26c0 6 4 9 10 9h79v114c0 97 93 98 124 98zM427 713c23 0 36 -13 36 -36c0 -25 -13 -38 -36 -38c-24 0 -37 13 -37 38c0 23 13 36 37 36z" />
    <glyph glyph-name="f_k" unicode="fk" horiz-adv-x="793" 
d="M518 327l268 -313c5 -6 4 -14 -10 -14h-37c-6 0 -13 2 -18 8l-262 308v-307c0 -6 -3 -9 -9 -9h-35c-6 0 -9 3 -9 9v687l-129 3c-67 2 -111 -16 -111 -86v-78h143c6 0 9 -3 7 -10l-5 -26c-1 -6 -4 -8 -9 -8h-136v-482c0 -6 -4 -9 -10 -9h-34c-6 0 -9 3 -9 9v482h-79
c-6 0 -10 3 -10 9v26c0 6 4 9 10 9h79v86c0 105 86 126 159 126c42 0 119 -4 178 -8c6 -1 9 -3 9 -9v-390l198 189c4 5 10 6 17 6h47c10 0 11 -6 5 -12z" />
    <glyph glyph-name="fi" unicode="fi" horiz-adv-x="548" 
d="M237 747c28 0 53 -3 74 -6c6 -2 8 -4 8 -9v-24c0 -6 -3 -9 -9 -9h-59c-34 0 -85 -1 -85 -58v-106h294c6 0 10 -3 10 -9v-517c0 -6 -4 -9 -10 -9h-34c-6 0 -9 3 -9 9v482h-251v-482c0 -6 -4 -9 -10 -9h-34c-6 0 -9 3 -9 9v482h-79c-6 0 -10 3 -10 9v26c0 6 4 9 10 9h79
v114c0 97 93 98 124 98zM443 713c24 0 37 -13 37 -36c0 -25 -13 -38 -37 -38s-37 13 -37 38c0 23 13 36 37 36z" />
    <glyph glyph-name="fl" unicode="fl" horiz-adv-x="537" 
d="M450 739c6 -1 9 -3 9 -9v-721c0 -6 -3 -9 -9 -9h-35c-6 0 -9 3 -9 9v687l-129 3c-67 2 -111 -16 -111 -86v-78h143c6 0 9 -3 7 -10l-5 -26c-1 -6 -4 -8 -9 -8h-136v-482c0 -6 -4 -9 -10 -9h-34c-6 0 -9 3 -9 9v482h-79c-6 0 -10 3 -10 9v26c0 6 4 9 10 9h79v86
c0 105 86 126 159 126c42 0 119 -4 178 -8z" />
    <glyph glyph-name=".notdef" horiz-adv-x="414" 
d="M97 741h456c6 0 9 -3 9 -9v-723c0 -6 -3 -9 -9 -9h-456c-6 0 -9 3 -9 9v723c0 6 3 9 9 9zM307 619c-37 0 -69 -2 -101 -5c-5 -1 -8 -4 -8 -10v-27c0 -5 2 -7 7 -7h102c64 0 112 -4 112 -69v-31c0 -46 -13 -63 -45 -78l-78 -37c-36 -20 -42 -30 -40 -59l2 -43
c1 -3 3 -5 5 -5h36c3 0 5 3 5 6l1 28c1 21 6 24 29 36l71 34c51 25 70 48 70 117v37c0 103 -77 113 -168 113zM281 190c-22 0 -34 -12 -34 -33s12 -32 34 -32c21 0 34 11 34 32s-12 33 -34 33z" />
    <glyph glyph-name="A" unicode="A" horiz-adv-x="643" 
d="M321 746c77 0 87 -15 114 -114l173 -622c2 -8 0 -10 -7 -10h-41c-5 0 -6 2 -8 9l-68 241h-325l-68 -241c-2 -7 -4 -9 -9 -9h-41c-7 0 -9 2 -8 10l177 622c28 99 39 114 111 114zM321 697c-35 0 -39 -11 -58 -78l-90 -319h297l-88 319c-19 67 -23 78 -61 78z" />
    <glyph glyph-name="Aacute" unicode="&#xc1;" horiz-adv-x="643" 
d="M390 941h42c4 0 7 -3 7 -8v-7c0 -3 -1 -6 -3 -9l-107 -118c-3 -4 -6 -4 -10 -1l-12 9c-4 3 -5 6 -2 10l76 119c2 3 5 5 9 5zM321 746c77 0 87 -15 114 -114l173 -622c2 -8 0 -10 -7 -10h-41c-5 0 -6 2 -8 9l-68 241h-325l-68 -241c-2 -7 -4 -9 -9 -9h-41c-7 0 -9 2 -8 10
l177 622c28 99 39 114 111 114zM321 697c-35 0 -39 -11 -58 -78l-90 -319h297l-88 319c-19 67 -23 78 -61 78z" />
    <glyph glyph-name="Abreve" unicode="&#x102;" horiz-adv-x="643" 
d="M425 928h21c8 0 10 -2 9 -10c-7 -86 -37 -112 -134 -112s-127 26 -133 112c-1 8 1 10 8 10h21c6 0 9 -2 10 -8c8 -55 29 -72 94 -72c66 0 86 17 94 72c2 6 4 8 10 8zM321 746c77 0 87 -15 114 -114l173 -622c2 -8 0 -10 -7 -10h-41c-5 0 -6 2 -8 9l-68 241h-325l-68 -241
c-2 -7 -4 -9 -9 -9h-41c-7 0 -9 2 -8 10l177 622c28 99 39 114 111 114zM321 697c-35 0 -39 -11 -58 -78l-90 -319h297l-88 319c-19 67 -23 78 -61 78z" />
    <glyph glyph-name="Acaron" unicode="&#x1cd;" horiz-adv-x="643" 
d="M423 939l12 -10c3 -2 5 -6 2 -10l-94 -118c-2 -3 -4 -5 -10 -5h-24c-6 0 -8 2 -10 5l-93 118c-3 4 -2 8 2 10l12 10c4 3 7 3 10 -1l91 -91l92 91c3 4 6 4 10 1zM321 746c77 0 87 -15 114 -114l173 -622c2 -8 0 -10 -7 -10h-41c-5 0 -6 2 -8 9l-68 241h-325l-68 -241
c-2 -7 -4 -9 -9 -9h-41c-7 0 -9 2 -8 10l177 622c28 99 39 114 111 114zM321 697c-35 0 -39 -11 -58 -78l-90 -319h297l-88 319c-19 67 -23 78 -61 78z" />
    <glyph glyph-name="Acircumflex" unicode="&#xc2;" horiz-adv-x="643" 
d="M309 941h24c6 0 8 -2 10 -5l94 -119c3 -4 1 -7 -2 -10l-12 -9c-4 -3 -7 -3 -10 1l-92 91l-91 -91c-3 -4 -6 -4 -10 -1l-12 9c-4 3 -5 6 -2 10l93 119c2 3 4 5 10 5zM321 746c77 0 87 -15 114 -114l173 -622c2 -8 0 -10 -7 -10h-41c-5 0 -6 2 -8 9l-68 241h-325l-68 -241
c-2 -7 -4 -9 -9 -9h-41c-7 0 -9 2 -8 10l177 622c28 99 39 114 111 114zM321 697c-35 0 -39 -11 -58 -78l-90 -319h297l-88 319c-19 67 -23 78 -61 78z" />
    <glyph glyph-name="Adieresis" unicode="&#xc4;" horiz-adv-x="643" 
d="M241 902c26 0 39 -13 39 -38c0 -26 -13 -40 -39 -40c-25 0 -39 14 -39 40c0 25 14 38 39 38zM402 902c25 0 39 -13 39 -38c0 -26 -14 -40 -39 -40s-40 14 -40 40c0 25 15 38 40 38zM321 746c77 0 87 -15 114 -114l173 -622c2 -8 0 -10 -7 -10h-41c-5 0 -6 2 -8 9l-68 241
h-325l-68 -241c-2 -7 -4 -9 -9 -9h-41c-7 0 -9 2 -8 10l177 622c28 99 39 114 111 114zM321 697c-35 0 -39 -11 -58 -78l-90 -319h297l-88 319c-19 67 -23 78 -61 78z" />
    <glyph glyph-name="Agrave" unicode="&#xc0;" horiz-adv-x="643" 
d="M222 941h42c5 0 7 -2 9 -5l76 -119c3 -4 2 -7 -1 -10l-13 -9c-3 -3 -6 -3 -10 1l-107 118c-2 3 -3 6 -3 9v7c0 5 3 8 7 8zM321 746c77 0 87 -15 114 -114l173 -622c2 -8 0 -10 -7 -10h-41c-5 0 -6 2 -8 9l-68 241h-325l-68 -241c-2 -7 -4 -9 -9 -9h-41c-7 0 -9 2 -8 10
l177 622c28 99 39 114 111 114zM321 697c-35 0 -39 -11 -58 -78l-90 -319h297l-88 319c-19 67 -23 78 -61 78z" />
    <glyph glyph-name="Amacron" unicode="&#x100;" horiz-adv-x="643" 
d="M200 876h242c6 0 9 -3 9 -9v-26c0 -6 -3 -9 -9 -9l-242 1c-6 0 -9 2 -9 8v26c0 6 3 9 9 9zM321 746c77 0 87 -15 114 -114l173 -622c2 -8 0 -10 -7 -10h-41c-5 0 -6 2 -8 9l-68 241h-325l-68 -241c-2 -7 -4 -9 -9 -9h-41c-7 0 -9 2 -8 10l177 622c28 99 39 114 111 114z
M321 697c-35 0 -39 -11 -58 -78l-90 -319h297l-88 319c-19 67 -23 78 -61 78z" />
    <glyph glyph-name="Aogonek" unicode="&#x104;" horiz-adv-x="643" 
d="M321 746c77 0 87 -15 114 -114l173 -622c2 -8 0 -10 -7 -10h-13c-7 -29 -12 -53 -12 -71c0 -37 14 -42 52 -42h40c7 0 10 -3 10 -9v-19c0 -6 -3 -10 -8 -12c-20 -3 -38 -5 -51 -5c-58 0 -84 15 -84 75c0 29 6 59 17 92l-68 241h-325l-68 -241c-2 -7 -4 -9 -9 -9h-41
c-7 0 -9 2 -8 10l177 622c28 99 39 114 111 114zM321 697c-35 0 -39 -11 -58 -78l-90 -319h297l-88 319c-19 67 -23 78 -61 78z" />
    <glyph glyph-name="Aring" unicode="&#xc5;" horiz-adv-x="643" 
d="M321 983c63 0 96 -32 96 -93c0 -60 -33 -92 -96 -92s-95 32 -95 92c0 61 32 93 95 93zM321 952c-41 0 -62 -21 -62 -62s21 -62 62 -62s62 21 62 62s-21 62 -62 62zM321 746c77 0 87 -15 114 -114l173 -622c2 -8 0 -10 -7 -10h-41c-5 0 -6 2 -8 9l-68 241h-325l-68 -241
c-2 -7 -4 -9 -9 -9h-41c-7 0 -9 2 -8 10l177 622c28 99 39 114 111 114zM321 697c-35 0 -39 -11 -58 -78l-90 -319h297l-88 319c-19 67 -23 78 -61 78z" />
    <glyph glyph-name="Aringacute" unicode="&#x1fa;" horiz-adv-x="643" 
d="M363 1077h42c4 0 7 -3 7 -7v-8c0 -3 -1 -7 -3 -9l-70 -72c51 -5 78 -36 78 -91c0 -60 -33 -92 -96 -92s-95 32 -95 92c0 52 23 82 69 91l59 91c2 3 4 5 9 5zM321 952c-41 0 -62 -21 -62 -62s21 -62 62 -62s62 21 62 62s-21 62 -62 62zM321 746c77 0 87 -15 114 -114
l173 -622c2 -8 0 -10 -7 -10h-41c-5 0 -6 2 -8 9l-68 241h-325l-68 -241c-2 -7 -4 -9 -9 -9h-41c-7 0 -9 2 -8 10l177 622c28 99 39 114 111 114zM321 697c-35 0 -39 -11 -58 -78l-90 -319h297l-88 319c-19 67 -23 78 -61 78z" />
    <glyph glyph-name="Atilde" unicode="&#xc3;" horiz-adv-x="643" 
d="M257 917c41 0 94 -53 128 -53c26 0 36 9 49 46c4 8 6 9 12 7l16 -3c7 -2 9 -5 7 -13c-17 -68 -34 -85 -83 -85c-41 0 -95 53 -128 53c-26 0 -36 -10 -50 -48c-3 -8 -5 -9 -11 -7l-17 3c-6 3 -8 5 -6 13c18 70 35 87 83 87zM321 746c77 0 87 -15 114 -114l173 -622
c2 -8 0 -10 -7 -10h-41c-5 0 -6 2 -8 9l-68 241h-325l-68 -241c-2 -7 -4 -9 -9 -9h-41c-7 0 -9 2 -8 10l177 622c28 99 39 114 111 114zM321 697c-35 0 -39 -11 -58 -78l-90 -319h297l-88 319c-19 67 -23 78 -61 78z" />
    <glyph glyph-name="AE" unicode="&#xc6;" horiz-adv-x="970" 
d="M321 745l230 -4h358c6 0 9 -3 9 -9v-31c0 -6 -3 -9 -9 -9h-372v-312h335c6 0 9 -4 9 -10v-31c0 -6 -3 -9 -9 -9h-335v-281h372c6 0 9 -3 9 -9v-31c0 -6 -3 -9 -9 -9h-412c-10 0 -15 5 -15 14v236h-323l-69 -241c-2 -7 -3 -9 -9 -9h-40c-7 0 -9 2 -8 10l177 622
c28 99 39 113 111 113zM482 695h-161c-35 0 -39 -9 -58 -76l-90 -319h309v395z" />
    <glyph glyph-name="AEacute" unicode="&#x1fc;" horiz-adv-x="970" 
d="M581 941h43c4 0 7 -3 7 -8v-7c0 -3 -1 -6 -3 -9l-108 -118c-3 -4 -6 -4 -10 -1l-12 9c-3 3 -4 6 -2 10l77 119c2 3 4 5 8 5zM321 745l230 -4h358c6 0 9 -3 9 -9v-31c0 -6 -3 -9 -9 -9h-372v-312h335c6 0 9 -4 9 -10v-31c0 -6 -3 -9 -9 -9h-335v-281h372c6 0 9 -3 9 -9
v-31c0 -6 -3 -9 -9 -9h-412c-10 0 -15 5 -15 14v236h-323l-69 -241c-2 -7 -3 -9 -9 -9h-40c-7 0 -9 2 -8 10l177 622c28 99 39 113 111 113zM482 695h-161c-35 0 -39 -9 -58 -76l-90 -319h309v395z" />
    <glyph glyph-name="B" unicode="B" horiz-adv-x="668" 
d="M336 746c163 0 253 -42 253 -204c0 -91 -24 -150 -86 -165v-2c85 -16 106 -96 106 -178c0 -166 -92 -202 -241 -202c-40 0 -210 1 -267 4c-7 0 -10 2 -10 9v725c0 7 3 9 10 9c57 3 195 4 235 4zM333 697h-186v-298h208c126 0 179 15 179 140c0 129 -70 158 -201 158z
M394 351h-247v-307h223c117 0 184 27 184 153c0 123 -57 154 -160 154z" />
    <glyph glyph-name="C" unicode="C" horiz-adv-x="575" 
d="M355 746c44 0 123 -1 173 -5c6 0 9 -4 9 -9v-26c0 -6 -3 -9 -9 -9h-173c-195 0 -234 -76 -234 -327c0 -250 39 -326 234 -326h173c6 0 9 -3 9 -9v-26c0 -5 -3 -9 -9 -9c-50 -4 -129 -5 -173 -5c-235 0 -289 88 -289 375c0 288 54 376 289 376z" />
    <glyph glyph-name="Cacute" unicode="&#x106;" horiz-adv-x="575" 
d="M391 941h42c4 0 7 -3 7 -8v-7c0 -3 -1 -6 -3 -9l-107 -118c-4 -4 -7 -4 -10 -1l-13 9c-3 3 -4 6 -1 10l76 119c2 3 4 5 9 5zM355 746c44 0 123 -1 173 -5c6 0 9 -4 9 -9v-26c0 -6 -3 -9 -9 -9h-173c-195 0 -234 -76 -234 -327c0 -250 39 -326 234 -326h173c6 0 9 -3 9 -9
v-26c0 -5 -3 -9 -9 -9c-50 -4 -129 -5 -173 -5c-235 0 -289 88 -289 375c0 288 54 376 289 376z" />
    <glyph glyph-name="Ccaron" unicode="&#x10c;" horiz-adv-x="575" 
d="M444 939l12 -10c4 -2 5 -6 2 -10l-93 -118c-2 -3 -4 -5 -10 -5h-24c-6 0 -8 2 -10 5l-94 118c-2 4 -1 8 2 10l12 10c4 3 7 3 10 -1l92 -91l91 91c4 4 6 4 10 1zM355 746c44 0 123 -1 173 -5c6 0 9 -4 9 -9v-26c0 -6 -3 -9 -9 -9h-173c-195 0 -234 -76 -234 -327
c0 -250 39 -326 234 -326h173c6 0 9 -3 9 -9v-26c0 -5 -3 -9 -9 -9c-50 -4 -129 -5 -173 -5c-235 0 -289 88 -289 375c0 288 54 376 289 376z" />
    <glyph glyph-name="Ccedilla" unicode="&#xc7;" horiz-adv-x="575" 
d="M528 697h-173c-195 0 -234 -76 -234 -327c0 -250 39 -326 234 -326h173c6 0 9 -3 9 -9v-26c0 -5 -3 -9 -9 -9c-50 -4 -129 -5 -173 -5h-3c6 -28 11 -56 11 -78c0 -60 -26 -75 -84 -75c-13 0 -31 2 -51 5c-5 2 -8 6 -8 12v19c0 6 3 9 10 9h40c38 0 52 5 52 42
c0 18 -4 41 -10 67c-199 11 -246 106 -246 374c0 288 54 376 289 376c44 0 123 -1 173 -5c6 0 9 -4 9 -9v-26c0 -6 -3 -9 -9 -9z" />
    <glyph glyph-name="Ccircumflex" unicode="&#x108;" horiz-adv-x="575" 
d="M325 941h24c6 0 8 -2 10 -5l93 -119c3 -4 2 -7 -2 -10l-12 -9c-4 -3 -6 -3 -10 1l-91 91l-92 -91c-3 -4 -6 -4 -10 -1l-12 9c-3 3 -4 6 -2 10l94 119c2 3 4 5 10 5zM355 746c44 0 123 -1 173 -5c6 0 9 -4 9 -9v-26c0 -6 -3 -9 -9 -9h-173c-195 0 -234 -76 -234 -327
c0 -250 39 -326 234 -326h173c6 0 9 -3 9 -9v-26c0 -5 -3 -9 -9 -9c-50 -4 -129 -5 -173 -5c-235 0 -289 88 -289 375c0 288 54 376 289 376z" />
    <glyph glyph-name="Cdotaccent" unicode="&#x10a;" horiz-adv-x="575" 
d="M349 902c25 0 39 -13 39 -38c0 -26 -14 -40 -39 -40s-39 14 -39 40c0 25 14 38 39 38zM355 746c44 0 123 -1 173 -5c6 0 9 -4 9 -9v-26c0 -6 -3 -9 -9 -9h-173c-195 0 -234 -76 -234 -327c0 -250 39 -326 234 -326h173c6 0 9 -3 9 -9v-26c0 -5 -3 -9 -9 -9
c-50 -4 -129 -5 -173 -5c-235 0 -289 88 -289 375c0 288 54 376 289 376z" />
    <glyph glyph-name="D" unicode="D" horiz-adv-x="727" 
d="M371 746c227 0 292 -99 292 -375c0 -278 -65 -376 -292 -376c-55 0 -213 1 -270 4c-7 0 -10 2 -10 9v725c0 7 3 9 10 9c57 3 215 4 270 4zM364 697h-217v-653h224c186 0 237 85 237 327c0 240 -53 326 -244 326z" />
    <glyph glyph-name="Eth" unicode="&#xd0;" horiz-adv-x="731" 
d="M375 746c227 0 292 -99 292 -375c0 -278 -65 -376 -292 -376c-55 0 -213 1 -270 4c-7 0 -10 2 -10 9v333h-70c-6 0 -9 2 -9 8v26c0 6 3 9 9 9h70v349c0 7 3 9 10 9c57 3 215 4 270 4zM151 44h224c186 0 237 85 237 327c0 240 -53 326 -244 326h-217v-313h176
c6 0 10 -3 10 -9v-26c0 -6 -4 -9 -10 -9l-176 1v-297z" />
    <glyph glyph-name="Dcaron" unicode="&#x10e;" horiz-adv-x="727" 
d="M442 939l13 -10c3 -2 4 -6 1 -10l-93 -118c-2 -3 -4 -5 -10 -5h-24c-6 0 -8 2 -10 5l-93 118c-3 4 -2 8 1 10l13 10c3 3 6 3 10 -1l91 -91l91 91c4 4 7 4 10 1zM371 746c227 0 292 -99 292 -375c0 -278 -65 -376 -292 -376c-55 0 -213 1 -270 4c-7 0 -10 2 -10 9v725
c0 7 3 9 10 9c57 3 215 4 270 4zM364 697h-217v-653h224c186 0 237 85 237 327c0 240 -53 326 -244 326z" />
    <glyph glyph-name="Dcroat" unicode="&#x110;" horiz-adv-x="731" 
d="M375 746c227 0 292 -99 292 -375c0 -278 -65 -376 -292 -376c-55 0 -213 1 -270 4c-7 0 -10 2 -10 9v332h-70c-6 0 -9 2 -9 8v27c0 6 3 9 9 9h70v349c0 7 3 9 10 9c57 3 215 4 270 4zM151 44h224c186 0 237 85 237 327c0 240 -53 326 -244 326h-217v-313h176
c6 0 10 -3 10 -9v-27c0 -6 -4 -9 -10 -9l-176 1v-296z" />
    <glyph glyph-name="E" unicode="E" 
d="M106 741h438c6 0 9 -3 9 -9v-31c0 -6 -3 -9 -9 -9h-397v-312h360c6 0 9 -4 9 -10v-31c0 -6 -3 -9 -9 -9h-360v-281h397c6 0 9 -3 9 -9v-31c0 -6 -3 -9 -9 -9h-438c-10 0 -15 5 -15 14v712c0 10 5 15 15 15z" />
    <glyph glyph-name="Eacute" unicode="&#xc9;" 
d="M369 941h42c5 0 7 -3 7 -8v-7c0 -3 0 -6 -3 -9l-107 -118c-3 -4 -6 -4 -10 -1l-12 9c-3 3 -4 6 -2 10l76 119c2 3 5 5 9 5zM106 741h438c6 0 9 -3 9 -9v-31c0 -6 -3 -9 -9 -9h-397v-312h360c6 0 9 -4 9 -10v-31c0 -6 -3 -9 -9 -9h-360v-281h397c6 0 9 -3 9 -9v-31
c0 -6 -3 -9 -9 -9h-438c-10 0 -15 5 -15 14v712c0 10 5 15 15 15z" />
    <glyph glyph-name="Ebreve" unicode="&#x114;" 
d="M437 928h21c7 0 9 -2 8 -10c-6 -86 -36 -112 -133 -112s-127 26 -134 112c0 8 1 10 9 10h21c6 0 8 -2 10 -8c8 -55 29 -72 94 -72s86 17 94 72c1 6 4 8 10 8zM106 741h438c6 0 9 -3 9 -9v-31c0 -6 -3 -9 -9 -9h-397v-312h360c6 0 9 -4 9 -10v-31c0 -6 -3 -9 -9 -9h-360
v-281h397c6 0 9 -3 9 -9v-31c0 -6 -3 -9 -9 -9h-438c-10 0 -15 5 -15 14v712c0 10 5 15 15 15z" />
    <glyph glyph-name="Ecaron" unicode="&#x11a;" 
d="M411 939l12 -10c3 -2 4 -6 2 -10l-94 -118c-2 -3 -4 -5 -10 -5h-24c-6 0 -8 2 -10 5l-93 118c-3 4 -2 8 2 10l12 10c4 3 6 3 10 -1l91 -91l92 91c3 4 6 4 10 1zM106 741h438c6 0 9 -3 9 -9v-31c0 -6 -3 -9 -9 -9h-397v-312h360c6 0 9 -4 9 -10v-31c0 -6 -3 -9 -9 -9h-360
v-281h397c6 0 9 -3 9 -9v-31c0 -6 -3 -9 -9 -9h-438c-10 0 -15 5 -15 14v712c0 10 5 15 15 15z" />
    <glyph glyph-name="Ecircumflex" unicode="&#xca;" 
d="M297 941h24c6 0 8 -2 10 -5l94 -119c2 -4 1 -7 -2 -10l-12 -9c-4 -3 -7 -3 -10 1l-92 91l-91 -91c-4 -4 -6 -4 -10 -1l-12 9c-4 3 -5 6 -2 10l93 119c2 3 4 5 10 5zM106 741h438c6 0 9 -3 9 -9v-31c0 -6 -3 -9 -9 -9h-397v-312h360c6 0 9 -4 9 -10v-31c0 -6 -3 -9 -9 -9
h-360v-281h397c6 0 9 -3 9 -9v-31c0 -6 -3 -9 -9 -9h-438c-10 0 -15 5 -15 14v712c0 10 5 15 15 15z" />
    <glyph glyph-name="Edieresis" unicode="&#xcb;" 
d="M229 902c26 0 39 -13 39 -38c0 -26 -13 -40 -39 -40c-25 0 -39 14 -39 40c0 25 14 38 39 38zM389 902c26 0 40 -13 40 -38c0 -26 -14 -40 -40 -40c-24 0 -39 14 -39 40c0 25 15 38 39 38zM106 741h438c6 0 9 -3 9 -9v-31c0 -6 -3 -9 -9 -9h-397v-312h360c6 0 9 -4 9 -10
v-31c0 -6 -3 -9 -9 -9h-360v-281h397c6 0 9 -3 9 -9v-31c0 -6 -3 -9 -9 -9h-438c-10 0 -15 5 -15 14v712c0 10 5 15 15 15z" />
    <glyph glyph-name="Edotaccent" unicode="&#x116;" 
d="M330 902c25 0 38 -13 38 -38c0 -26 -13 -40 -38 -40s-40 14 -40 40c0 25 15 38 40 38zM106 741h438c6 0 9 -3 9 -9v-31c0 -6 -3 -9 -9 -9h-397v-312h360c6 0 9 -4 9 -10v-31c0 -6 -3 -9 -9 -9h-360v-281h397c6 0 9 -3 9 -9v-31c0 -6 -3 -9 -9 -9h-438c-10 0 -15 5 -15 14
v712c0 10 5 15 15 15z" />
    <glyph glyph-name="Egrave" unicode="&#xc8;" 
d="M216 941h42c4 0 7 -2 9 -5l76 -119c2 -4 1 -7 -2 -10l-12 -9c-4 -3 -7 -3 -10 1l-107 118c-3 3 -3 6 -3 9v7c0 5 2 8 7 8zM106 741h438c6 0 9 -3 9 -9v-31c0 -6 -3 -9 -9 -9h-397v-312h360c6 0 9 -4 9 -10v-31c0 -6 -3 -9 -9 -9h-360v-281h397c6 0 9 -3 9 -9v-31
c0 -6 -3 -9 -9 -9h-438c-10 0 -15 5 -15 14v712c0 10 5 15 15 15z" />
    <glyph glyph-name="Emacron" unicode="&#x112;" 
d="M188 876h242c6 0 9 -3 9 -9v-26c0 -6 -3 -9 -9 -9l-242 1c-6 0 -9 2 -9 8v26c0 6 3 9 9 9zM106 741h438c6 0 9 -3 9 -9v-31c0 -6 -3 -9 -9 -9h-397v-312h360c6 0 9 -4 9 -10v-31c0 -6 -3 -9 -9 -9h-360v-281h397c6 0 9 -3 9 -9v-31c0 -6 -3 -9 -9 -9h-438
c-10 0 -15 5 -15 14v712c0 10 5 15 15 15z" />
    <glyph glyph-name="Eogonek" unicode="&#x118;" 
d="M106 741h438c6 0 9 -3 9 -9v-31c0 -6 -3 -9 -9 -9h-397v-312h360c6 0 9 -4 9 -10v-31c0 -6 -3 -9 -9 -9h-360v-281h397c6 0 9 -3 9 -9v-31c0 -6 -3 -9 -9 -9h-86c-7 -29 -11 -52 -11 -71c0 -37 13 -42 51 -42h41c7 0 9 -3 9 -9v-19c0 -6 -2 -10 -8 -12
c-20 -3 -37 -5 -50 -5c-58 0 -85 15 -85 75c0 24 6 54 14 83h-313c-10 0 -15 5 -15 14v712c0 10 5 15 15 15z" />
    <glyph glyph-name="F" unicode="F" horiz-adv-x="585" 
d="M106 741h449c6 0 9 -3 9 -9v-31c0 -6 -3 -9 -9 -9h-408v-312h370c6 0 9 -3 9 -9v-31c0 -6 -3 -9 -9 -9h-370v-322c0 -6 -4 -9 -10 -9h-36c-6 0 -10 3 -10 9v717c0 10 5 15 15 15z" />
    <glyph glyph-name="G" unicode="G" horiz-adv-x="642" 
d="M355 746c44 0 125 -1 175 -5c5 0 9 -4 9 -9v-26c0 -6 -4 -9 -10 -9h-174c-195 0 -234 -76 -234 -327c0 -250 39 -326 234 -326h174v307c0 6 3 9 9 9h35c6 0 9 -3 9 -9v-326c0 -6 -2 -9 -4 -11c-37 -21 -170 -19 -223 -19c-235 0 -289 87 -289 375s54 376 289 376z" />
    <glyph glyph-name="Gbreve" unicode="&#x11e;" horiz-adv-x="642" 
d="M438 928h21c8 0 10 -2 9 -10c-7 -86 -37 -112 -134 -112s-127 26 -133 112c-1 8 1 10 8 10h21c6 0 9 -2 10 -8c8 -55 29 -72 94 -72c66 0 86 17 94 72c2 6 4 8 10 8zM355 746c44 0 125 -1 175 -5c5 0 9 -4 9 -9v-26c0 -6 -4 -9 -10 -9h-174c-195 0 -234 -76 -234 -327
c0 -250 39 -326 234 -326h174v307c0 6 3 9 9 9h35c6 0 9 -3 9 -9v-326c0 -6 -2 -9 -4 -11c-37 -21 -170 -19 -223 -19c-235 0 -289 87 -289 375s54 376 289 376z" />
    <glyph glyph-name="Gcircumflex" unicode="&#x11c;" horiz-adv-x="642" 
d="M329 941h24c6 0 8 -2 10 -5l94 -119c3 -4 1 -7 -2 -10l-12 -9c-4 -3 -7 -3 -10 1l-92 91l-91 -91c-3 -4 -6 -4 -10 -1l-12 9c-4 3 -5 6 -2 10l93 119c3 3 4 5 10 5zM355 746c44 0 125 -1 175 -5c5 0 9 -4 9 -9v-26c0 -6 -4 -9 -10 -9h-174c-195 0 -234 -76 -234 -327
c0 -250 39 -326 234 -326h174v307c0 6 3 9 9 9h35c6 0 9 -3 9 -9v-326c0 -6 -2 -9 -4 -11c-37 -21 -170 -19 -223 -19c-235 0 -289 87 -289 375s54 376 289 376z" />
    <glyph glyph-name="Gcommaaccent" unicode="&#x122;" horiz-adv-x="642" 
d="M355 746c44 0 125 -1 175 -5c5 0 9 -4 9 -9v-26c0 -6 -4 -9 -10 -9h-174c-195 0 -234 -76 -234 -327c0 -250 39 -326 234 -326h174v307c0 6 3 9 9 9h35c6 0 9 -3 9 -9v-326c0 -6 -2 -9 -4 -11c-37 -21 -170 -19 -223 -19c-235 0 -289 87 -289 375s54 376 289 376z
M343 -37h38c4 0 7 -2 7 -7v-7c0 -4 -1 -7 -3 -9l-103 -119c-3 -3 -6 -3 -10 0l-12 9c-4 3 -5 6 -2 10l76 119c2 3 5 4 9 4z" />
    <glyph glyph-name="Gdotaccent" unicode="&#x120;" horiz-adv-x="642" 
d="M335 902c25 0 38 -13 38 -38c0 -26 -13 -40 -38 -40s-40 14 -40 40c0 25 15 38 40 38zM355 746c44 0 125 -1 175 -5c5 0 9 -4 9 -9v-26c0 -6 -4 -9 -10 -9h-174c-195 0 -234 -76 -234 -327c0 -250 39 -326 234 -326h174v307c0 6 3 9 9 9h35c6 0 9 -3 9 -9v-326
c0 -6 -2 -9 -4 -11c-37 -21 -170 -19 -223 -19c-235 0 -289 87 -289 375s54 376 289 376z" />
    <glyph glyph-name="H" unicode="H" horiz-adv-x="761" 
d="M624 741h37c6 0 9 -3 9 -9v-723c0 -6 -3 -9 -9 -9h-37c-6 0 -9 3 -9 9v348h-469v-348c0 -6 -3 -9 -9 -9h-37c-6 0 -9 3 -9 9v723c0 6 3 9 9 9h37c6 0 9 -3 9 -9v-325h469v325c0 6 3 9 9 9z" />
    <glyph glyph-name="Hbar" unicode="&#x126;" horiz-adv-x="762" 
d="M671 658h42c6 0 9 -4 9 -10v-25c0 -6 -3 -10 -9 -10h-42v-604c0 -6 -4 -9 -10 -9h-36c-6 0 -10 3 -10 9v348h-468v-348c0 -6 -4 -9 -10 -9h-36c-6 0 -10 3 -10 9v604h-43c-6 0 -9 3 -9 9v26c0 6 3 10 9 10h43v74c0 6 4 9 10 9h36c6 0 10 -3 10 -9v-74h468v74
c0 6 4 9 10 9h36c6 0 10 -3 10 -9v-74zM615 407v206h-468v-206h468z" />
    <glyph glyph-name="Hcircumflex" unicode="&#x124;" horiz-adv-x="761" 
d="M374 941h23c6 0 8 -2 11 -5l93 -119c3 -4 1 -7 -2 -10l-12 -9c-4 -3 -7 -3 -10 1l-91 91l-92 -91c-3 -4 -6 -4 -10 -1l-12 9c-3 3 -5 6 -2 10l93 119c3 3 5 5 11 5zM624 741h37c6 0 9 -3 9 -9v-723c0 -6 -3 -9 -9 -9h-37c-6 0 -9 3 -9 9v348h-469v-348c0 -6 -3 -9 -9 -9
h-37c-6 0 -9 3 -9 9v723c0 6 3 9 9 9h37c6 0 9 -3 9 -9v-325h469v325c0 6 3 9 9 9z" />
    <glyph glyph-name="I" unicode="I" horiz-adv-x="238" 
d="M101 741h36c6 0 10 -3 10 -9v-723c0 -6 -4 -9 -10 -9h-36c-6 0 -10 3 -10 9v723c0 6 4 9 10 9z" />
    <glyph glyph-name="IJ" unicode="&#x132;" horiz-adv-x="789" 
d="M101 741h36c6 0 10 -3 10 -9v-723c0 -6 -4 -9 -10 -9h-36c-6 0 -10 3 -10 9v723c0 6 4 9 10 9zM368 741h322c10 0 15 -5 15 -15l2 -348c0 -295 -61 -383 -305 -383c-56 0 -91 1 -139 5c-5 0 -9 4 -9 9v26c0 6 4 9 10 9h138c204 0 251 77 249 334l-1 314h-282
c-6 0 -9 3 -9 9v31c0 6 3 9 9 9z" />
    <glyph glyph-name="Iacute" unicode="&#xcd;" horiz-adv-x="237" 
d="M183 941h43c4 0 7 -3 7 -8v-7c0 -3 -1 -6 -4 -9l-107 -118c-3 -4 -6 -4 -10 -1l-12 9c-3 3 -4 6 -2 10l77 119c2 3 4 5 8 5zM100 741h37c6 0 9 -3 9 -9v-723c0 -6 -3 -9 -9 -9h-37c-6 0 -9 3 -9 9v723c0 6 3 9 9 9z" />
    <glyph glyph-name="Icaron" unicode="&#x1cf;" horiz-adv-x="238" 
d="M219 939l12 -10c3 -2 5 -6 2 -10l-94 -118c-2 -3 -4 -5 -10 -5h-24c-6 0 -7 2 -10 5l-93 118c-3 4 -2 8 2 10l12 10c4 3 7 3 10 -1l91 -91l92 91c3 4 6 4 10 1zM100 741h36c6 0 10 -3 10 -9v-723c0 -6 -4 -9 -10 -9h-36c-6 0 -10 3 -10 9v723c0 6 4 9 10 9z" />
    <glyph glyph-name="Icircumflex" unicode="&#xce;" horiz-adv-x="238" 
d="M106 941h24c6 0 8 -2 10 -5l93 -119c3 -4 2 -7 -2 -10l-12 -9c-4 -3 -6 -3 -10 1l-91 91l-92 -91c-3 -4 -6 -4 -10 -1l-12 9c-3 3 -4 6 -2 10l94 119c2 3 4 5 10 5zM101 741h36c6 0 10 -3 10 -9v-723c0 -6 -4 -9 -10 -9h-36c-6 0 -10 3 -10 9v723c0 6 4 9 10 9z" />
    <glyph glyph-name="Idieresis" unicode="&#xcf;" horiz-adv-x="238" 
d="M38 902c26 0 39 -13 39 -38c0 -26 -13 -40 -39 -40c-25 0 -39 14 -39 40c0 25 14 38 39 38zM199 902c25 0 39 -13 39 -38c0 -26 -14 -40 -39 -40s-40 14 -40 40c0 25 15 38 40 38zM101 741h36c6 0 10 -3 10 -9v-723c0 -6 -4 -9 -10 -9h-36c-6 0 -10 3 -10 9v723
c0 6 4 9 10 9z" />
    <glyph glyph-name="Idotaccent" unicode="&#x130;" horiz-adv-x="238" 
d="M118 902c26 0 39 -13 39 -38c0 -26 -13 -40 -39 -40c-25 0 -39 14 -39 40c0 25 14 38 39 38zM101 741h36c6 0 10 -3 10 -9v-723c0 -6 -4 -9 -10 -9h-36c-6 0 -10 3 -10 9v723c0 6 4 9 10 9z" />
    <glyph glyph-name="Igrave" unicode="&#xcc;" horiz-adv-x="237" 
d="M13 941h43c4 0 6 -2 8 -5l77 -119c2 -4 1 -7 -2 -10l-12 -9c-4 -3 -7 -3 -10 1l-108 118c-2 3 -3 6 -3 9v7c0 5 3 8 7 8zM100 741h36c7 0 10 -3 10 -9v-723c0 -6 -3 -9 -10 -9h-36c-6 0 -9 3 -9 9v723c0 6 3 9 9 9z" />
    <glyph glyph-name="Imacron" unicode="&#x12a;" horiz-adv-x="238" 
d="M-3 876h242c6 0 9 -3 9 -9v-26c0 -6 -3 -9 -9 -9l-242 1c-6 0 -9 2 -9 8v26c0 6 3 9 9 9zM101 741h36c6 0 10 -3 10 -9v-723c0 -6 -4 -9 -10 -9h-36c-6 0 -10 3 -10 9v723c0 6 4 9 10 9z" />
    <glyph glyph-name="Iogonek" unicode="&#x12e;" horiz-adv-x="238" 
d="M101 741h36c6 0 10 -3 10 -9v-724c0 -5 -3 -8 -8 -8h-9c-7 -29 -12 -52 -12 -71c0 -37 14 -42 52 -42h40c7 0 10 -3 10 -9v-19c0 -6 -3 -10 -8 -12c-20 -3 -38 -5 -51 -5c-58 0 -84 15 -84 75c0 25 6 56 14 86v729c0 6 4 9 10 9z" />
    <glyph glyph-name="Itilde" unicode="&#x128;" horiz-adv-x="238" 
d="M54 917c42 0 94 -53 128 -53c26 0 38 9 50 46c3 8 5 8 11 7l16 -3c7 -1 9 -5 7 -13c-17 -68 -34 -85 -83 -85c-41 0 -95 53 -128 53c-26 0 -36 -10 -50 -48c-3 -8 -5 -9 -11 -7l-17 3c-6 2 -8 5 -6 13c18 70 35 87 83 87zM101 741h36c6 0 10 -3 10 -9v-723
c0 -6 -4 -9 -10 -9h-36c-6 0 -10 3 -10 9v723c0 6 4 9 10 9z" />
    <glyph glyph-name="J" unicode="J" horiz-adv-x="551" 
d="M130 741h322c10 0 15 -5 15 -15l2 -348c0 -295 -61 -383 -305 -383c-56 0 -91 1 -139 5c-5 0 -9 4 -9 9v26c0 6 4 9 10 9h138c204 0 251 77 249 334l-1 314h-282c-6 0 -9 3 -9 9v31c0 6 3 9 9 9z" />
    <glyph glyph-name="Jcircumflex" unicode="&#x134;" horiz-adv-x="546" 
d="M272 941h24c6 0 8 -2 10 -5l93 -119c3 -4 2 -7 -2 -10l-12 -9c-4 -3 -6 -3 -10 1l-91 91l-92 -91c-3 -4 -6 -4 -10 -1l-12 9c-3 3 -4 6 -2 10l94 119c2 3 4 5 10 5zM125 741h322c10 0 15 -5 15 -15l2 -348c0 -295 -61 -383 -305 -383c-56 0 -91 1 -139 5c-5 0 -9 4 -9 9
v26c0 6 4 9 10 9h138c204 0 251 77 249 334l-1 314h-282c-6 0 -9 3 -9 9v31c0 6 3 9 9 9z" />
    <glyph glyph-name="K" unicode="K" horiz-adv-x="574" 
d="M494 741h43c10 0 11 -6 5 -12l-339 -330l355 -384c6 -7 5 -15 -10 -15h-40c-6 0 -11 2 -14 6l-347 378v-375c0 -6 -4 -9 -10 -9h-36c-6 0 -10 3 -10 9v723c0 6 4 9 10 9h36c6 0 10 -3 10 -9v-316l334 320c3 3 7 5 13 5z" />
    <glyph glyph-name="Kcommaaccent" unicode="&#x136;" horiz-adv-x="574" 
d="M494 741h43c10 0 11 -6 5 -12l-339 -330l355 -384c6 -7 5 -15 -10 -15h-40c-6 0 -11 2 -14 6l-347 378v-375c0 -6 -4 -9 -10 -9h-36c-6 0 -10 3 -10 9v723c0 6 4 9 10 9h36c6 0 10 -3 10 -9v-316l334 320c3 3 7 5 13 5zM300 -37h38c4 0 7 -2 7 -7v-7c0 -4 -1 -7 -4 -9
l-102 -119c-4 -3 -6 -3 -10 0l-13 9c-3 3 -4 6 -1 10l76 119c2 3 4 4 9 4z" />
    <glyph glyph-name="L" unicode="L" horiz-adv-x="562" 
d="M101 741h36c6 0 10 -3 10 -9v-683h391c6 0 10 -3 10 -9v-31c0 -6 -4 -9 -10 -9h-432c-9 0 -15 4 -15 14v718c0 6 4 9 10 9z" />
    <glyph glyph-name="Lacute" unicode="&#x139;" horiz-adv-x="562" 
d="M185 941h42c4 0 7 -3 7 -8v-7c0 -3 -1 -6 -3 -9l-107 -118c-4 -4 -6 -4 -10 -1l-12 9c-4 3 -5 6 -2 10l76 119c2 3 4 5 9 5zM101 741h36c6 0 10 -3 10 -9v-683h391c6 0 10 -3 10 -9v-31c0 -6 -4 -9 -10 -9h-432c-9 0 -15 4 -15 14v718c0 6 4 9 10 9z" />
    <glyph glyph-name="Lcaron" unicode="&#x13d;" horiz-adv-x="562" 
d="M101 741h36c6 0 10 -3 10 -9v-683h391c6 0 10 -3 10 -9v-31c0 -6 -4 -9 -10 -9h-432c-9 0 -15 4 -15 14v718c0 6 4 9 10 9zM328 741h40c4 0 7 -3 7 -8v-7c0 -3 -1 -6 -4 -9l-88 -118c-3 -4 -6 -4 -10 -1l-12 9c-4 3 -4 6 -2 10l61 119c1 3 4 5 8 5z" />
    <glyph glyph-name="Lcommaaccent" unicode="&#x13b;" horiz-adv-x="562" 
d="M101 741h36c6 0 10 -3 10 -9v-683h391c6 0 10 -3 10 -9v-31c0 -6 -4 -9 -10 -9h-432c-9 0 -15 4 -15 14v718c0 6 4 9 10 9zM309 -37h38c4 0 7 -2 7 -7v-7c0 -4 -1 -7 -4 -9l-102 -119c-4 -3 -7 -3 -10 0l-13 9c-3 3 -4 6 -1 10l76 119c2 3 4 4 9 4z" />
    <glyph glyph-name="Ldot" unicode="&#x13f;" horiz-adv-x="562" 
d="M101 741h36c6 0 10 -3 10 -9v-683h391c6 0 10 -3 10 -9v-31c0 -6 -4 -9 -10 -9h-432c-9 0 -15 4 -15 14v718c0 6 4 9 10 9zM346 345c25 0 39 -13 39 -39s-13 -39 -39 -39c-25 0 -39 13 -39 39s14 39 39 39z" />
    <glyph glyph-name="Lslash" unicode="&#x141;" horiz-adv-x="568" 
d="M153 49h391c6 0 10 -3 10 -9v-31c0 -6 -4 -9 -10 -9h-432c-9 0 -15 4 -15 14v283l-66 -38c-5 -3 -10 -1 -11 4l-12 20c-4 4 -2 9 3 12l86 49v388c0 6 4 9 10 9h36c6 0 10 -3 10 -9v-355l107 61c6 4 10 3 13 -2l12 -20c3 -6 3 -9 -4 -13l-128 -74v-280z" />
    <glyph glyph-name="M" unicode="M" horiz-adv-x="903" 
d="M728 741h36c9 0 14 -4 15 -14l60 -718c0 -6 -3 -9 -9 -9h-37c-6 0 -9 3 -9 9l-52 646l-245 -624c-3 -8 -9 -12 -18 -12h-35c-9 0 -15 4 -18 12l-244 624l-52 -646c0 -6 -3 -9 -9 -9h-37c-6 0 -10 3 -9 9l59 718c1 10 7 14 16 14h35c19 0 24 -11 35 -37l242 -624l242 624
c10 26 16 37 34 37z" />
    <glyph glyph-name="N" unicode="N" horiz-adv-x="755" 
d="M618 741h37c6 0 9 -3 9 -9v-723c0 -6 -3 -9 -9 -9h-39c-7 0 -14 0 -23 12l-446 659v-662c0 -6 -4 -9 -10 -9h-36c-6 0 -10 3 -10 9v723c0 6 4 9 10 9h42c16 0 22 -1 33 -17l433 -639v647c0 6 3 9 9 9z" />
    <glyph glyph-name="Nacute" unicode="&#x143;" horiz-adv-x="755" 
d="M413 941h42c5 0 8 -3 8 -8v-7c0 -3 -1 -6 -4 -9l-107 -118c-3 -4 -6 -4 -10 -1l-12 9c-3 3 -4 6 -2 10l77 119c2 3 4 5 8 5zM618 741h37c6 0 9 -3 9 -9v-723c0 -6 -3 -9 -9 -9h-39c-7 0 -14 0 -23 12l-446 659v-662c0 -6 -4 -9 -10 -9h-36c-6 0 -10 3 -10 9v723
c0 6 4 9 10 9h42c16 0 22 -1 33 -17l433 -639v647c0 6 3 9 9 9z" />
    <glyph glyph-name="Ncaron" unicode="&#x147;" horiz-adv-x="755" 
d="M479 939l12 -10c4 -2 5 -6 2 -10l-93 -118c-2 -3 -4 -5 -10 -5h-24c-6 0 -8 2 -10 5l-94 118c-3 4 -1 8 2 10l12 10c4 3 7 3 10 -1l92 -91l91 91c4 4 6 4 10 1zM618 741h37c6 0 9 -3 9 -9v-723c0 -6 -3 -9 -9 -9h-39c-7 0 -14 0 -23 12l-446 659v-662c0 -6 -4 -9 -10 -9
h-36c-6 0 -10 3 -10 9v723c0 6 4 9 10 9h42c16 0 22 -1 33 -17l433 -639v647c0 6 3 9 9 9z" />
    <glyph glyph-name="Ncommaaccent" unicode="&#x145;" horiz-adv-x="755" 
d="M618 741h37c6 0 9 -3 9 -9v-723c0 -6 -3 -9 -9 -9h-39c-7 0 -14 0 -23 12l-446 659v-662c0 -6 -4 -9 -10 -9h-36c-6 0 -10 3 -10 9v723c0 6 4 9 10 9h42c16 0 22 -1 33 -17l433 -639v647c0 6 3 9 9 9zM359 -37h38c4 0 7 -2 7 -7v-7c0 -4 -1 -7 -4 -9l-102 -119
c-4 -3 -7 -3 -10 0l-13 9c-3 3 -4 6 -1 10l76 119c2 3 4 4 9 4z" />
    <glyph glyph-name="Eng" unicode="&#x14a;" horiz-adv-x="755" 
d="M618 741h37c6 0 9 -3 9 -9v-548c2 -295 -12 -383 -256 -383c-51 0 -70 2 -90 4c-5 1 -9 5 -9 10v26c0 6 4 9 10 9h89c147 0 193 39 198 157l-459 664v-662c0 -6 -4 -9 -10 -9h-36c-6 0 -10 3 -10 9v723c0 6 4 9 10 9h42c16 0 22 -1 33 -17l433 -634v642c0 6 3 9 9 9z" />
    <glyph glyph-name="Ntilde" unicode="&#xd1;" horiz-adv-x="755" 
d="M314 917c42 0 94 -52 128 -52c26 0 38 8 50 46c3 7 5 8 11 7l16 -3c7 -2 9 -6 7 -14c-17 -67 -34 -84 -83 -84c-41 0 -95 52 -128 52c-26 0 -36 -9 -50 -48c-3 -7 -5 -8 -11 -7l-17 3c-6 2 -8 6 -6 14c18 69 35 86 83 86zM618 741h37c6 0 9 -3 9 -9v-723
c0 -6 -3 -9 -9 -9h-39c-7 0 -14 0 -23 12l-446 659v-662c0 -6 -4 -9 -10 -9h-36c-6 0 -10 3 -10 9v723c0 6 4 9 10 9h42c16 0 22 -1 33 -17l433 -639v647c0 6 3 9 9 9z" />
    <glyph glyph-name="O" unicode="O" horiz-adv-x="709" 
d="M354 746c235 0 289 -87 289 -377s-54 -374 -289 -374s-288 84 -288 374s53 377 288 377zM354 697c-195 0 -233 -75 -233 -328s38 -325 233 -325s233 72 233 325s-38 328 -233 328z" />
    <glyph glyph-name="Oacute" unicode="&#xd3;" horiz-adv-x="709" 
d="M400 941h42c4 0 7 -3 7 -8v-7c0 -3 -1 -6 -3 -9l-107 -118c-4 -4 -6 -4 -10 -1l-12 9c-4 3 -5 6 -2 10l76 119c2 3 4 5 9 5zM354 746c235 0 289 -87 289 -377s-54 -374 -289 -374s-288 84 -288 374s53 377 288 377zM354 697c-195 0 -233 -75 -233 -328s38 -325 233 -325
s233 72 233 325s-38 328 -233 328z" />
    <glyph glyph-name="Obreve" unicode="&#x14e;" horiz-adv-x="709" 
d="M458 928h21c8 0 9 -2 9 -10c-7 -86 -37 -112 -134 -112s-127 26 -133 112c-1 8 1 10 8 10h21c6 0 8 -2 10 -8c8 -55 29 -72 94 -72s86 17 94 72c2 6 4 8 10 8zM354 746c235 0 289 -87 289 -377s-54 -374 -289 -374s-288 84 -288 374s53 377 288 377zM354 697
c-195 0 -233 -75 -233 -328s38 -325 233 -325s233 72 233 325s-38 328 -233 328z" />
    <glyph glyph-name="Ocaron" unicode="&#x1d1;" horiz-adv-x="709" 
d="M455 939l13 -10c3 -2 4 -6 1 -10l-93 -118c-2 -3 -4 -5 -10 -5h-24c-6 0 -8 2 -10 5l-93 118c-3 4 -2 8 1 10l13 10c3 3 6 3 10 -1l91 -91l91 91c4 4 7 4 10 1zM354 746c235 0 289 -87 289 -377s-54 -374 -289 -374s-288 84 -288 374s53 377 288 377zM354 697
c-195 0 -233 -75 -233 -328s38 -325 233 -325s233 72 233 325s-38 328 -233 328z" />
    <glyph glyph-name="Ocircumflex" unicode="&#xd4;" horiz-adv-x="709" 
d="M342 941h24c6 0 8 -2 10 -5l93 -119c3 -4 2 -7 -1 -10l-13 -9c-3 -3 -6 -3 -10 1l-91 91l-91 -91c-4 -4 -7 -4 -10 -1l-13 9c-3 3 -4 6 -1 10l93 119c2 3 4 5 10 5zM354 746c235 0 289 -87 289 -377s-54 -374 -289 -374s-288 84 -288 374s53 377 288 377zM354 697
c-195 0 -233 -75 -233 -328s38 -325 233 -325s233 72 233 325s-38 328 -233 328z" />
    <glyph glyph-name="Odieresis" unicode="&#xd6;" horiz-adv-x="709" 
d="M274 902c26 0 39 -13 39 -38c0 -26 -13 -40 -39 -40c-25 0 -40 14 -40 40c0 25 15 38 40 38zM434 902c26 0 40 -13 40 -38c0 -26 -14 -40 -40 -40c-25 0 -39 14 -39 40c0 25 14 38 39 38zM354 746c235 0 289 -87 289 -377s-54 -374 -289 -374s-288 84 -288 374
s53 377 288 377zM354 697c-195 0 -233 -75 -233 -328s38 -325 233 -325s233 72 233 325s-38 328 -233 328z" />
    <glyph glyph-name="Ograve" unicode="&#xd2;" horiz-adv-x="709" 
d="M243 941h42c4 0 7 -2 9 -5l76 -119c3 -4 2 -7 -2 -10l-12 -9c-4 -3 -7 -3 -10 1l-107 118c-2 3 -3 6 -3 9v7c0 5 3 8 7 8zM354 746c235 0 289 -87 289 -377s-54 -374 -289 -374s-288 84 -288 374s53 377 288 377zM354 697c-195 0 -233 -75 -233 -328s38 -325 233 -325
s233 72 233 325s-38 328 -233 328z" />
    <glyph glyph-name="Ohungarumlaut" unicode="&#x150;" horiz-adv-x="709" 
d="M337 941h42c5 0 7 -3 7 -8v-7c0 -3 0 -6 -3 -9l-107 -118c-3 -4 -6 -4 -10 -1l-12 9c-3 3 -4 6 -2 10l76 119c2 3 5 5 9 5zM494 941h42c4 0 7 -3 7 -8v-7c0 -3 -1 -6 -3 -9l-107 -118c-4 -4 -6 -4 -10 -1l-12 9c-4 3 -5 6 -2 10l76 119c2 3 4 5 9 5zM354 746
c235 0 289 -87 289 -377s-54 -374 -289 -374s-288 84 -288 374s53 377 288 377zM354 697c-195 0 -233 -75 -233 -328s38 -325 233 -325s233 72 233 325s-38 328 -233 328z" />
    <glyph glyph-name="Omacron" unicode="&#x14c;" horiz-adv-x="709" 
d="M233 876h241c6 0 10 -3 10 -9v-26c0 -6 -4 -9 -10 -9l-241 1c-6 0 -9 2 -9 8v26c0 6 3 9 9 9zM354 746c235 0 289 -87 289 -377s-54 -374 -289 -374s-288 84 -288 374s53 377 288 377zM354 697c-195 0 -233 -75 -233 -328s38 -325 233 -325s233 72 233 325
s-38 328 -233 328z" />
    <glyph glyph-name="Oslash" unicode="&#xd8;" horiz-adv-x="709" 
d="M354 746c97 0 163 -15 206 -53l29 40c4 5 8 6 14 1l23 -16c5 -3 5 -7 1 -12l-34 -49c37 -58 50 -150 50 -288c0 -290 -54 -374 -289 -374c-93 0 -157 13 -201 47l-35 -48c-4 -6 -8 -7 -13 -2l-23 15c-4 4 -5 9 -2 14l39 55c-40 57 -53 150 -53 293c0 290 53 377 288 377z
M354 697c-195 0 -233 -75 -233 -328c0 -115 8 -191 35 -242l371 519c-35 37 -90 51 -173 51zM555 605l-369 -517c35 -31 88 -44 168 -44c195 0 233 72 233 325c0 109 -7 186 -32 236z" />
    <glyph glyph-name="Oslashacute" unicode="&#x1fe;" horiz-adv-x="709" 
d="M411 941h42c5 0 7 -3 7 -8v-7c0 -3 0 -6 -3 -9l-107 -118c-3 -4 -6 -4 -10 -1l-12 9c-4 3 -5 6 -2 10l76 119c2 3 5 5 9 5zM643 369c0 -290 -54 -374 -289 -374c-93 0 -157 13 -201 47l-35 -48c-4 -6 -8 -7 -13 -2l-23 15c-4 4 -5 9 -2 14l39 55c-40 57 -53 150 -53 293
c0 290 53 377 288 377c97 0 163 -15 206 -53l29 40c4 5 8 6 14 1l23 -16c5 -3 5 -7 1 -12l-34 -49c37 -58 50 -150 50 -288zM354 697c-195 0 -233 -75 -233 -328c0 -115 8 -191 35 -242l371 519c-35 37 -90 51 -173 51zM587 369c0 109 -7 186 -32 236l-369 -517
c35 -31 88 -44 168 -44c195 0 233 72 233 325z" />
    <glyph glyph-name="Otilde" unicode="&#xd5;" horiz-adv-x="709" 
d="M290 917c41 0 94 -53 127 -53c27 0 37 9 50 46c3 8 5 9 11 7l17 -3c7 -2 9 -5 7 -13c-18 -68 -35 -85 -84 -85c-41 0 -94 53 -127 53c-26 0 -37 -10 -50 -48c-3 -8 -5 -9 -11 -7l-17 3c-6 3 -8 5 -6 13c18 70 35 87 83 87zM354 746c235 0 289 -87 289 -377
s-54 -374 -289 -374s-288 84 -288 374s53 377 288 377zM354 697c-195 0 -233 -75 -233 -328s38 -325 233 -325s233 72 233 325s-38 328 -233 328z" />
    <glyph glyph-name="OE" unicode="&#x152;" horiz-adv-x="1010" 
d="M355 746l327 -5h267c6 0 9 -3 9 -9v-31c0 -6 -3 -9 -9 -9h-387v-312h350c6 0 9 -4 9 -10v-31c0 -6 -3 -9 -9 -9h-350v-281h387c6 0 9 -3 9 -9v-31c0 -6 -3 -9 -9 -9h-267l-327 -5c-235 -3 -289 84 -289 374s54 381 289 377zM507 697h-152c-195 0 -233 -75 -233 -328
s38 -325 233 -325h152v653z" />
    <glyph glyph-name="P" unicode="P" horiz-adv-x="621" 
d="M273 746c229 0 303 -21 303 -232c0 -214 -74 -230 -303 -230h-126v-275c0 -7 -3 -9 -10 -9h-36c-7 0 -10 2 -10 9v724c0 7 3 9 10 9c57 3 131 4 172 4zM270 697h-123v-363h123c194 0 251 8 251 179c0 170 -57 184 -251 184z" />
    <glyph glyph-name="Thorn" unicode="&#xde;" horiz-adv-x="618" 
d="M100 743h37c6 0 9 -4 9 -10v-130c45 2 94 2 122 2c230 0 304 -22 304 -233s-74 -233 -304 -233c-28 0 -77 0 -122 2v-130c0 -6 -3 -9 -9 -9h-37c-6 0 -9 3 -9 9v722c0 6 3 10 9 10zM265 556h-119v-367h119c195 0 252 14 252 183s-57 184 -252 184z" />
    <glyph glyph-name="Q" unicode="Q" horiz-adv-x="709" 
d="M643 369c0 -276 -49 -366 -257 -373l34 -117c2 -7 -2 -10 -9 -10h-36c-6 0 -10 2 -12 9l-35 117c-213 7 -262 95 -262 374c0 290 53 377 288 377s289 -87 289 -377zM354 44c195 0 233 72 233 325s-38 328 -233 328s-233 -75 -233 -328s38 -325 233 -325z" />
    <glyph glyph-name="R" unicode="R" horiz-adv-x="632" 
d="M273 746c229 0 303 -21 303 -232c0 -166 -44 -212 -172 -225l175 -277c4 -6 2 -12 -7 -12h-34c-13 0 -17 4 -23 13l-172 271h-196v-275c0 -7 -3 -9 -10 -9h-36c-7 0 -10 2 -10 9v724c0 7 3 9 10 9c57 3 131 4 172 4zM270 697h-123v-363h123c194 0 251 8 251 179
c0 170 -57 184 -251 184z" />
    <glyph glyph-name="Racute" unicode="&#x154;" horiz-adv-x="632" 
d="M348 941h43c4 0 7 -3 7 -8v-7c0 -3 -1 -6 -3 -9l-107 -118c-4 -4 -7 -4 -11 -1l-12 9c-3 3 -4 6 -2 10l77 119c2 3 4 5 8 5zM273 746c229 0 303 -21 303 -232c0 -166 -44 -212 -172 -225l175 -277c4 -6 2 -12 -7 -12h-34c-13 0 -17 4 -23 13l-172 271h-196v-275
c0 -7 -3 -9 -10 -9h-36c-7 0 -10 2 -10 9v724c0 7 3 9 10 9c57 3 131 4 172 4zM270 697h-123v-363h123c194 0 251 8 251 179c0 170 -57 184 -251 184z" />
    <glyph glyph-name="Rcaron" unicode="&#x158;" horiz-adv-x="632" 
d="M415 939l12 -10c3 -2 4 -6 2 -10l-94 -118c-2 -3 -4 -5 -10 -5h-24c-6 0 -8 2 -10 5l-93 118c-3 4 -2 8 2 10l12 10c4 3 6 3 10 -1l91 -91l92 91c3 4 6 4 10 1zM273 746c229 0 303 -21 303 -232c0 -166 -44 -212 -172 -225l175 -277c4 -6 2 -12 -7 -12h-34
c-13 0 -17 4 -23 13l-172 271h-196v-275c0 -7 -3 -9 -10 -9h-36c-7 0 -10 2 -10 9v724c0 7 3 9 10 9c57 3 131 4 172 4zM270 697h-123v-363h123c194 0 251 8 251 179c0 170 -57 184 -251 184z" />
    <glyph glyph-name="Rcommaaccent" unicode="&#x156;" horiz-adv-x="632" 
d="M273 746c229 0 303 -21 303 -232c0 -166 -44 -212 -172 -225l175 -277c4 -6 2 -12 -7 -12h-34c-13 0 -17 4 -23 13l-172 271h-196v-275c0 -7 -3 -9 -10 -9h-36c-7 0 -10 2 -10 9v724c0 7 3 9 10 9c57 3 131 4 172 4zM270 697h-123v-363h123c194 0 251 8 251 179
c0 170 -57 184 -251 184zM300 -37h38c4 0 7 -2 7 -7v-7c0 -4 -1 -7 -3 -9l-103 -119c-3 -3 -6 -3 -10 0l-12 9c-3 3 -4 6 -2 10l77 119c2 3 4 4 8 4z" />
    <glyph glyph-name="S" unicode="S" horiz-adv-x="587" 
d="M291 746c52 0 139 -2 202 -7c6 0 9 -3 9 -8v-25c0 -6 -3 -9 -8 -9h-217c-110 0 -162 -33 -162 -111v-13c0 -61 14 -93 88 -124l234 -100c97 -43 104 -122 104 -168v-27c0 -156 -128 -159 -243 -159c-53 0 -178 2 -242 7c-5 0 -8 3 -8 9v25c0 5 4 8 9 8h254
c90 0 175 9 175 111v22c0 36 -5 95 -81 130l-242 101c-90 38 -104 90 -104 160v19c0 127 92 159 232 159z" />
    <glyph glyph-name="Sacute" unicode="&#x15a;" horiz-adv-x="587" 
d="M346 941h42c4 0 7 -3 7 -8v-7c0 -3 -1 -6 -3 -9l-107 -118c-4 -4 -7 -4 -10 -1l-13 9c-3 3 -4 6 -1 10l76 119c2 3 4 5 9 5zM291 746c52 0 139 -2 202 -7c6 0 9 -3 9 -8v-25c0 -6 -3 -9 -8 -9h-217c-110 0 -162 -33 -162 -111v-13c0 -61 14 -93 88 -124l234 -100
c97 -43 104 -122 104 -168v-27c0 -156 -128 -159 -243 -159c-53 0 -178 2 -242 7c-5 0 -8 3 -8 9v25c0 5 4 8 9 8h254c90 0 175 9 175 111v22c0 36 -5 95 -81 130l-242 101c-90 38 -104 90 -104 160v19c0 127 92 159 232 159z" />
    <glyph glyph-name="Scaron" unicode="&#x160;" horiz-adv-x="587" 
d="M397 939l12 -10c3 -2 4 -6 2 -10l-94 -118c-2 -3 -4 -5 -10 -5h-24c-6 0 -8 2 -10 5l-93 118c-3 4 -2 8 2 10l12 10c4 3 6 3 10 -1l91 -91l92 91c3 4 6 4 10 1zM291 746c52 0 139 -2 202 -7c6 0 9 -3 9 -8v-25c0 -6 -3 -9 -8 -9h-217c-110 0 -162 -33 -162 -111v-13
c0 -61 14 -93 88 -124l234 -100c97 -43 104 -122 104 -168v-27c0 -156 -128 -159 -243 -159c-53 0 -178 2 -242 7c-5 0 -8 3 -8 9v25c0 5 4 8 9 8h254c90 0 175 9 175 111v22c0 36 -5 95 -81 130l-242 101c-90 38 -104 90 -104 160v19c0 127 92 159 232 159z" />
    <glyph glyph-name="Scedilla" unicode="&#x15e;" horiz-adv-x="587" 
d="M291 746c52 0 139 -2 202 -7c6 0 9 -3 9 -8v-25c0 -6 -3 -9 -8 -9h-217c-110 0 -162 -33 -162 -111v-13c0 -61 14 -93 88 -124l234 -100c97 -43 104 -122 104 -168v-27c0 -131 -90 -154 -187 -158c7 -28 12 -56 12 -79c0 -60 -26 -75 -84 -75c-13 0 -30 2 -50 5
c-6 2 -8 6 -8 12v19c0 6 2 9 9 9h40c38 0 52 5 52 42c0 18 -4 40 -10 66h-17c-53 0 -178 2 -242 7c-5 0 -8 3 -8 9v25c0 6 4 8 9 8h254c90 0 175 9 175 111v22c0 36 -5 95 -81 130l-242 101c-90 38 -104 90 -104 160v19c0 127 92 159 232 159z" />
    <glyph glyph-name="Scircumflex" unicode="&#x15c;" horiz-adv-x="587" 
d="M283 941h24c6 0 8 -2 10 -5l94 -119c2 -4 1 -7 -2 -10l-12 -9c-4 -3 -7 -3 -10 1l-92 91l-91 -91c-4 -4 -6 -4 -10 -1l-12 9c-4 3 -5 6 -2 10l93 119c2 3 4 5 10 5zM291 746c52 0 139 -2 202 -7c6 0 9 -3 9 -8v-25c0 -6 -3 -9 -8 -9h-217c-110 0 -162 -33 -162 -111v-13
c0 -61 14 -93 88 -124l234 -100c97 -43 104 -122 104 -168v-27c0 -156 -128 -159 -243 -159c-53 0 -178 2 -242 7c-5 0 -8 3 -8 9v25c0 5 4 8 9 8h254c90 0 175 9 175 111v22c0 36 -5 95 -81 130l-242 101c-90 38 -104 90 -104 160v19c0 127 92 159 232 159z" />
    <glyph glyph-name="Scommaaccent" unicode="&#x218;" horiz-adv-x="587" 
d="M291 746c52 0 139 -2 202 -7c6 0 9 -3 9 -8v-25c0 -6 -3 -9 -8 -9h-217c-110 0 -162 -33 -162 -111v-13c0 -61 14 -93 88 -124l234 -100c97 -43 104 -122 104 -168v-27c0 -156 -128 -159 -243 -159c-53 0 -178 2 -242 7c-5 0 -8 3 -8 9v25c0 5 4 8 9 8h254
c90 0 175 9 175 111v22c0 36 -5 95 -81 130l-242 101c-90 38 -104 90 -104 160v19c0 127 92 159 232 159zM280 -37h38c5 0 7 -2 7 -7v-7c0 -4 0 -7 -3 -9l-103 -119c-3 -3 -6 -3 -10 0l-12 9c-3 3 -4 6 -2 10l77 119c2 3 4 4 8 4z" />
    <glyph glyph-name="T" unicode="T" horiz-adv-x="584" 
d="M23 741h538c6 0 10 -3 10 -9v-31c0 -6 -4 -9 -10 -9h-241v-683c0 -6 -3 -9 -9 -9h-37c-6 0 -9 3 -9 9v683h-242c-6 0 -10 3 -10 9v31c0 6 4 9 10 9z" />
    <glyph glyph-name="Tbar" unicode="&#x166;" horiz-adv-x="594" 
d="M28 741h538c6 0 10 -3 10 -9v-31c0 -6 -4 -9 -10 -9h-241v-290h129c6 0 9 -3 9 -9v-25c0 -6 -3 -10 -9 -10h-129v-349c0 -6 -3 -9 -9 -9h-37c-6 0 -9 3 -9 9v349h-130c-6 0 -9 3 -9 9v26c0 6 3 9 9 9h130v290h-242c-6 0 -10 3 -10 9v31c0 6 4 9 10 9z" />
    <glyph glyph-name="Tcaron" unicode="&#x164;" horiz-adv-x="584" 
d="M393 939l13 -10c3 -2 4 -6 1 -10l-93 -118c-2 -3 -4 -5 -10 -5h-24c-6 0 -8 2 -10 5l-93 118c-3 4 -2 8 1 10l13 10c3 3 6 3 10 -1l91 -91l91 91c4 4 7 4 10 1zM23 741h538c6 0 10 -3 10 -9v-31c0 -6 -4 -9 -10 -9h-241v-683c0 -6 -3 -9 -9 -9h-37c-6 0 -9 3 -9 9v683
h-242c-6 0 -10 3 -10 9v31c0 6 4 9 10 9z" />
    <glyph glyph-name="Tcedilla" unicode="&#x162;" horiz-adv-x="584" 
d="M23 741h538c6 0 10 -3 10 -9v-31c0 -6 -4 -9 -10 -9h-241v-680c9 -40 14 -70 14 -95c0 -60 -26 -75 -84 -75c-13 0 -31 2 -51 5c-5 2 -8 6 -8 12v19c0 7 3 9 10 9h40c38 0 52 5 52 42c0 19 -5 42 -12 71h-8c-6 0 -8 3 -8 8v684h-242c-6 0 -10 3 -10 9v31c0 6 4 9 10 9z
" />
    <glyph glyph-name="uni021A" unicode="&#x21a;" horiz-adv-x="584" 
d="M23 741h538c6 0 10 -3 10 -9v-31c0 -6 -4 -9 -10 -9h-241v-683c0 -6 -3 -9 -9 -9h-37c-6 0 -9 3 -9 9v683h-242c-6 0 -10 3 -10 9v31c0 6 4 9 10 9zM271 -37h38c5 0 8 -2 8 -7v-7c0 -4 -1 -7 -4 -9l-103 -119c-3 -3 -6 -3 -10 0l-12 9c-3 3 -4 6 -2 10l77 119
c2 3 4 4 8 4z" />
    <glyph glyph-name="U" unicode="U" horiz-adv-x="731" 
d="M601 741h37c7 0 9 -2 9 -9v-362c0 -300 -56 -375 -281 -375c-226 0 -282 75 -282 375v362c0 7 3 9 9 9h37c7 0 9 -2 9 -9v-362c0 -260 45 -326 227 -326c181 0 226 66 226 326v362c0 7 2 9 9 9z" />
    <glyph glyph-name="Uacute" unicode="&#xda;" horiz-adv-x="731" 
d="M413 941h42c5 0 7 -3 7 -8v-7c0 -3 0 -6 -3 -9l-107 -118c-3 -4 -6 -4 -10 -1l-12 9c-3 3 -4 6 -2 10l76 119c2 3 5 5 9 5zM601 741h37c7 0 9 -2 9 -9v-362c0 -300 -56 -375 -281 -375c-226 0 -282 75 -282 375v362c0 7 3 9 9 9h37c7 0 9 -2 9 -9v-362
c0 -260 45 -326 227 -326c181 0 226 66 226 326v362c0 7 2 9 9 9z" />
    <glyph glyph-name="Ubreve" unicode="&#x16c;" horiz-adv-x="731" 
d="M469 928h22c7 0 9 -2 8 -10c-6 -86 -37 -112 -133 -112c-97 0 -127 26 -134 112c-1 8 1 10 8 10h22c6 0 8 -2 9 -8c9 -55 29 -72 95 -72c65 0 85 17 94 72c1 6 3 8 9 8zM601 741h37c7 0 9 -2 9 -9v-362c0 -300 -56 -375 -281 -375c-226 0 -282 75 -282 375v362
c0 7 3 9 9 9h37c7 0 9 -2 9 -9v-362c0 -260 45 -326 227 -326c181 0 226 66 226 326v362c0 7 2 9 9 9z" />
    <glyph glyph-name="Ucaron" unicode="&#x1d3;" horiz-adv-x="731" 
d="M467 939l12 -10c3 -2 5 -6 2 -10l-93 -118c-3 -3 -5 -5 -11 -5h-23c-6 0 -8 2 -11 5l-93 118c-3 4 -1 8 2 10l12 10c4 3 7 3 10 -1l92 -91l91 91c3 4 6 4 10 1zM601 741h37c7 0 9 -2 9 -9v-362c0 -300 -56 -375 -281 -375c-226 0 -282 75 -282 375v362c0 7 3 9 9 9h37
c7 0 9 -2 9 -9v-362c0 -260 45 -326 227 -326c181 0 226 66 226 326v362c0 7 2 9 9 9z" />
    <glyph glyph-name="Ucircumflex" unicode="&#xdb;" horiz-adv-x="731" 
d="M354 941h23c6 0 8 -2 11 -5l93 -119c3 -4 1 -7 -2 -10l-12 -9c-4 -3 -7 -3 -10 1l-91 91l-92 -91c-3 -4 -6 -4 -10 -1l-12 9c-3 3 -5 6 -2 10l93 119c3 3 5 5 11 5zM601 741h37c7 0 9 -2 9 -9v-362c0 -300 -56 -375 -281 -375c-226 0 -282 75 -282 375v362c0 7 3 9 9 9
h37c7 0 9 -2 9 -9v-362c0 -260 45 -326 227 -326c181 0 226 66 226 326v362c0 7 2 9 9 9z" />
    <glyph glyph-name="Udieresis" unicode="&#xdc;" horiz-adv-x="731" 
d="M286 902c25 0 38 -13 38 -38c0 -26 -13 -40 -38 -40s-40 14 -40 40c0 25 15 38 40 38zM446 902c25 0 39 -13 39 -38c0 -26 -14 -40 -39 -40s-39 14 -39 40c0 25 14 38 39 38zM601 741h37c7 0 9 -2 9 -9v-362c0 -300 -56 -375 -281 -375c-226 0 -282 75 -282 375v362
c0 7 3 9 9 9h37c7 0 9 -2 9 -9v-362c0 -260 45 -326 227 -326c181 0 226 66 226 326v362c0 7 2 9 9 9z" />
    <glyph glyph-name="Udieresisacute" unicode="&#x1d7;" horiz-adv-x="731" 
d="M433 1067h43c4 0 7 -3 7 -7v-8c0 -3 -1 -6 -3 -8l-108 -119c-3 -4 -6 -4 -10 -1l-12 10c-3 2 -4 6 -2 10l77 119c2 2 4 4 8 4zM286 902c25 0 38 -13 38 -38c0 -26 -13 -40 -38 -40s-40 14 -40 40c0 25 15 38 40 38zM446 902c25 0 39 -13 39 -38c0 -26 -14 -40 -39 -40
s-39 14 -39 40c0 25 14 38 39 38zM601 741h37c7 0 9 -2 9 -9v-362c0 -300 -56 -375 -281 -375c-226 0 -282 75 -282 375v362c0 7 3 9 9 9h37c7 0 9 -2 9 -9v-362c0 -260 45 -326 227 -326c181 0 226 66 226 326v362c0 7 2 9 9 9z" />
    <glyph glyph-name="Udieresiscaron" unicode="&#x1d9;" horiz-adv-x="731" 
d="M467 1068l12 -9c3 -3 5 -6 2 -10l-93 -119c-3 -3 -5 -5 -11 -5h-23c-6 0 -8 2 -11 5l-93 119c-3 4 -1 7 2 10l12 9c4 3 7 3 10 -1l92 -91l91 91c3 4 6 4 10 1zM286 902c25 0 38 -13 38 -38c0 -26 -13 -40 -38 -40s-40 14 -40 40c0 25 15 38 40 38zM446 902
c25 0 39 -13 39 -38c0 -26 -14 -40 -39 -40s-39 14 -39 40c0 25 14 38 39 38zM601 741h37c7 0 9 -2 9 -9v-362c0 -300 -56 -375 -281 -375c-226 0 -282 75 -282 375v362c0 7 3 9 9 9h37c7 0 9 -2 9 -9v-362c0 -260 45 -326 227 -326c181 0 226 66 226 326v362c0 7 2 9 9 9z
" />
    <glyph glyph-name="Udieresisgrave" unicode="&#x1db;" horiz-adv-x="731" 
d="M255 1067h42c5 0 7 -2 9 -4l76 -119c3 -4 2 -8 -1 -10l-13 -10c-3 -3 -6 -3 -10 1l-107 119c-2 2 -3 5 -3 8v8c0 4 3 7 7 7zM286 902c25 0 38 -13 38 -38c0 -26 -13 -40 -38 -40s-40 14 -40 40c0 25 15 38 40 38zM446 902c25 0 39 -13 39 -38c0 -26 -14 -40 -39 -40
s-39 14 -39 40c0 25 14 38 39 38zM601 741h37c7 0 9 -2 9 -9v-362c0 -300 -56 -375 -281 -375c-226 0 -282 75 -282 375v362c0 7 3 9 9 9h37c7 0 9 -2 9 -9v-362c0 -260 45 -326 227 -326c181 0 226 66 226 326v362c0 7 2 9 9 9z" />
    <glyph glyph-name="Udieresismacron" unicode="&#x1d5;" horiz-adv-x="731" 
d="M245 1002h241c6 0 9 -3 9 -9v-26c0 -6 -3 -9 -9 -9h-241c-6 0 -10 3 -10 9v26c0 6 4 9 10 9zM286 902c25 0 38 -13 38 -38c0 -26 -13 -40 -38 -40s-40 14 -40 40c0 25 15 38 40 38zM446 902c25 0 39 -13 39 -38c0 -26 -14 -40 -39 -40s-39 14 -39 40c0 25 14 38 39 38z
M601 741h37c7 0 9 -2 9 -9v-362c0 -300 -56 -375 -281 -375c-226 0 -282 75 -282 375v362c0 7 3 9 9 9h37c7 0 9 -2 9 -9v-362c0 -260 45 -326 227 -326c181 0 226 66 226 326v362c0 7 2 9 9 9z" />
    <glyph glyph-name="Ugrave" unicode="&#xd9;" horiz-adv-x="731" 
d="M262 941h42c5 0 7 -2 9 -5l76 -119c3 -4 2 -7 -1 -10l-13 -9c-3 -3 -6 -3 -10 1l-107 118c-2 3 -3 6 -3 9v7c0 5 3 8 7 8zM601 741h37c7 0 9 -2 9 -9v-362c0 -300 -56 -375 -281 -375c-226 0 -282 75 -282 375v362c0 7 3 9 9 9h37c7 0 9 -2 9 -9v-362
c0 -260 45 -326 227 -326c181 0 226 66 226 326v362c0 7 2 9 9 9z" />
    <glyph glyph-name="Uhungarumlaut" unicode="&#x170;" horiz-adv-x="731" 
d="M330 941h42c4 0 7 -3 7 -8v-7c0 -3 -1 -6 -3 -9l-107 -118c-4 -4 -6 -4 -10 -1l-12 9c-4 3 -5 6 -2 10l76 119c2 3 4 5 9 5zM487 941h42c4 0 7 -3 7 -8v-7c0 -3 -1 -6 -3 -9l-107 -118c-4 -4 -7 -4 -10 -1l-13 9c-3 3 -4 6 -1 10l76 119c2 3 4 5 9 5zM601 741h37
c7 0 9 -2 9 -9v-362c0 -300 -56 -375 -281 -375c-226 0 -282 75 -282 375v362c0 7 3 9 9 9h37c7 0 9 -2 9 -9v-362c0 -260 45 -326 227 -326c181 0 226 66 226 326v362c0 7 2 9 9 9z" />
    <glyph glyph-name="Umacron" unicode="&#x16a;" horiz-adv-x="731" 
d="M245 876h241c6 0 9 -3 9 -9v-26c0 -6 -3 -9 -9 -9h-241c-6 0 -10 3 -10 9v26c0 6 4 9 10 9zM601 741h37c7 0 9 -2 9 -9v-362c0 -300 -56 -375 -281 -375c-226 0 -282 75 -282 375v362c0 7 3 9 9 9h37c7 0 9 -2 9 -9v-362c0 -260 45 -326 227 -326c181 0 226 66 226 326
v362c0 7 2 9 9 9z" />
    <glyph glyph-name="Uogonek" unicode="&#x172;" horiz-adv-x="731" 
d="M601 741h37c7 0 9 -2 9 -9v-362c0 -289 -52 -369 -257 -375c-7 -26 -11 -48 -11 -66c0 -37 14 -42 52 -42h40c7 0 10 -3 10 -9v-19c0 -6 -3 -10 -8 -12c-20 -3 -38 -5 -51 -5c-58 0 -84 15 -84 75c0 23 4 50 11 78c-212 4 -265 83 -265 375v362c0 7 3 9 9 9h37
c7 0 9 -2 9 -9v-362c0 -260 45 -326 227 -326c181 0 226 66 226 326v362c0 7 2 9 9 9z" />
    <glyph glyph-name="Uring" unicode="&#x16e;" horiz-adv-x="731" 
d="M366 983c62 0 95 -32 95 -93c0 -60 -33 -92 -95 -92c-63 0 -96 32 -96 92c0 61 33 93 96 93zM366 952c-41 0 -62 -21 -62 -62s21 -62 62 -62s62 21 62 62s-21 62 -62 62zM601 741h37c7 0 9 -2 9 -9v-362c0 -300 -56 -375 -281 -375c-226 0 -282 75 -282 375v362
c0 7 3 9 9 9h37c7 0 9 -2 9 -9v-362c0 -260 45 -326 227 -326c181 0 226 66 226 326v362c0 7 2 9 9 9z" />
    <glyph glyph-name="Utilde" unicode="&#x168;" horiz-adv-x="731" 
d="M302 917c41 0 94 -53 127 -53c27 0 38 9 50 46c3 8 5 8 11 7l17 -3c7 -1 8 -5 7 -13c-18 -68 -35 -85 -84 -85c-41 0 -94 53 -128 53c-26 0 -36 -10 -50 -48c-3 -8 -5 -9 -11 -7l-16 3c-7 2 -9 5 -7 13c18 70 35 87 84 87zM601 741h37c7 0 9 -2 9 -9v-362
c0 -300 -56 -375 -281 -375c-226 0 -282 75 -282 375v362c0 7 3 9 9 9h37c7 0 9 -2 9 -9v-362c0 -260 45 -326 227 -326c181 0 226 66 226 326v362c0 7 2 9 9 9z" />
    <glyph glyph-name="V" unicode="V" horiz-adv-x="630" 
d="M42 741h41c6 0 7 -2 9 -9l173 -610c18 -70 22 -78 49 -78c30 0 34 8 52 78l172 610c1 7 3 9 9 9h40c7 0 10 -2 8 -10l-176 -622c-27 -99 -33 -114 -105 -114c-67 0 -74 15 -102 114l-177 622c-2 8 0 10 7 10z" />
    <glyph glyph-name="W" unicode="W" horiz-adv-x="1053" 
d="M966 741h41c8 0 9 -2 8 -10l-158 -622c-25 -99 -35 -114 -102 -114c-72 0 -81 15 -105 114l-123 503l-123 -503c-25 -99 -33 -114 -106 -114c-67 0 -77 15 -102 114l-158 622c-1 8 0 10 8 10h41c5 0 7 -2 9 -9l153 -610c18 -70 22 -78 49 -78c31 0 34 8 53 78l144 578
c2 8 5 9 11 9h42c5 0 8 -1 10 -9l145 -578c18 -70 22 -78 52 -78c27 0 32 8 49 78l153 610c2 7 4 9 9 9z" />
    <glyph glyph-name="Wacute" unicode="&#x1e82;" horiz-adv-x="1053" 
d="M594 941h42c5 0 7 -3 7 -8v-7c0 -3 0 -6 -3 -9l-107 -118c-3 -4 -6 -4 -10 -1l-12 9c-3 3 -4 6 -2 10l76 119c2 3 5 5 9 5zM966 741h41c8 0 9 -2 8 -10l-158 -622c-25 -99 -35 -114 -102 -114c-72 0 -81 15 -105 114l-123 503l-123 -503c-25 -99 -33 -114 -106 -114
c-67 0 -77 15 -102 114l-158 622c-1 8 0 10 8 10h41c5 0 7 -2 9 -9l153 -610c18 -70 22 -78 49 -78c31 0 34 8 53 78l144 578c2 8 5 9 11 9h42c5 0 8 -1 10 -9l145 -578c18 -70 22 -78 52 -78c27 0 32 8 49 78l153 610c2 7 4 9 9 9z" />
    <glyph glyph-name="Wcircumflex" unicode="&#x174;" horiz-adv-x="1053" 
d="M515 941h24c6 0 8 -2 10 -5l93 -119c3 -4 2 -7 -2 -10l-12 -9c-4 -3 -6 -3 -10 1l-91 91l-92 -91c-3 -4 -6 -4 -10 -1l-12 9c-3 3 -4 6 -2 10l94 119c2 3 4 5 10 5zM966 741h41c8 0 9 -2 8 -10l-158 -622c-25 -99 -35 -114 -102 -114c-72 0 -81 15 -105 114l-123 503
l-123 -503c-25 -99 -33 -114 -106 -114c-67 0 -77 15 -102 114l-158 622c-1 8 0 10 8 10h41c5 0 7 -2 9 -9l153 -610c18 -70 22 -78 49 -78c31 0 34 8 53 78l144 578c2 8 5 9 11 9h42c5 0 8 -1 10 -9l145 -578c18 -70 22 -78 52 -78c27 0 32 8 49 78l153 610c2 7 4 9 9 9z
" />
    <glyph glyph-name="Wdieresis" unicode="&#x1e84;" horiz-adv-x="1053" 
d="M447 902c25 0 39 -13 39 -38c0 -26 -14 -40 -39 -40s-40 14 -40 40c0 25 15 38 40 38zM607 902c26 0 39 -13 39 -38c0 -26 -13 -40 -39 -40c-25 0 -39 14 -39 40c0 25 14 38 39 38zM966 741h41c8 0 9 -2 8 -10l-158 -622c-25 -99 -35 -114 -102 -114
c-72 0 -81 15 -105 114l-123 503l-123 -503c-25 -99 -33 -114 -106 -114c-67 0 -77 15 -102 114l-158 622c-1 8 0 10 8 10h41c5 0 7 -2 9 -9l153 -610c18 -70 22 -78 49 -78c31 0 34 8 53 78l144 578c2 8 5 9 11 9h42c5 0 8 -1 10 -9l145 -578c18 -70 22 -78 52 -78
c27 0 32 8 49 78l153 610c2 7 4 9 9 9z" />
    <glyph glyph-name="Wgrave" unicode="&#x1e80;" horiz-adv-x="1053" 
d="M415 941h42c5 0 7 -2 9 -5l76 -119c3 -4 2 -7 -1 -10l-13 -9c-3 -3 -6 -3 -10 1l-107 118c-2 3 -3 6 -3 9v7c0 5 3 8 7 8zM966 741h41c8 0 9 -2 8 -10l-158 -622c-25 -99 -35 -114 -102 -114c-72 0 -81 15 -105 114l-123 503l-123 -503c-25 -99 -33 -114 -106 -114
c-67 0 -77 15 -102 114l-158 622c-1 8 0 10 8 10h41c5 0 7 -2 9 -9l153 -610c18 -70 22 -78 49 -78c31 0 34 8 53 78l144 578c2 8 5 9 11 9h42c5 0 8 -1 10 -9l145 -578c18 -70 22 -78 52 -78c27 0 32 8 49 78l153 610c2 7 4 9 9 9z" />
    <glyph glyph-name="X" unicode="X" horiz-adv-x="600" 
d="M512 741h42c9 0 11 -5 6 -13l-227 -340l251 -375c6 -9 2 -13 -6 -13h-43c-8 0 -11 3 -15 9l-220 330l-219 -330c-4 -6 -7 -9 -15 -9h-43c-8 0 -12 4 -6 13l250 375l-227 340c-5 8 -3 13 6 13h42c9 0 12 -3 15 -9l197 -294l197 294c3 6 6 9 15 9z" />
    <glyph glyph-name="Y" unicode="Y" horiz-adv-x="619" 
d="M560 741h41c8 0 12 -4 7 -13l-271 -513v-206c0 -6 -3 -9 -9 -9h-37c-6 0 -9 3 -9 9v206l-271 513c-5 9 -1 13 7 13h41c8 0 12 -3 15 -9l235 -452l236 452c3 6 7 9 15 9z" />
    <glyph glyph-name="Yacute" unicode="&#xdd;" horiz-adv-x="619" 
d="M358 941h43c4 0 7 -3 7 -8v-7c0 -3 -1 -6 -4 -9l-107 -118c-3 -4 -6 -4 -10 -1l-12 9c-3 3 -4 6 -2 10l77 119c2 3 4 5 8 5zM560 741h41c8 0 12 -4 7 -13l-271 -513v-206c0 -6 -3 -9 -9 -9h-37c-6 0 -9 3 -9 9v206l-271 513c-5 9 -1 13 7 13h41c8 0 12 -3 15 -9l235 -452
l236 452c3 6 7 9 15 9z" />
    <glyph glyph-name="Ycircumflex" unicode="&#x176;" horiz-adv-x="619" 
d="M298 941h24c6 0 8 -2 10 -5l93 -119c3 -4 2 -7 -1 -10l-13 -9c-3 -3 -6 -3 -10 1l-91 91l-91 -91c-4 -4 -7 -4 -10 -1l-13 9c-3 3 -4 6 -2 10l94 119c2 3 4 5 10 5zM560 741h41c8 0 12 -4 7 -13l-271 -513v-206c0 -6 -3 -9 -9 -9h-37c-6 0 -9 3 -9 9v206l-271 513
c-5 9 -1 13 7 13h41c8 0 12 -3 15 -9l235 -452l236 452c3 6 7 9 15 9z" />
    <glyph glyph-name="Ydieresis" unicode="&#x178;" horiz-adv-x="619" 
d="M230 902c26 0 39 -13 39 -38c0 -26 -13 -40 -39 -40c-25 0 -40 14 -40 40c0 25 15 38 40 38zM390 902c26 0 39 -13 39 -38c0 -26 -13 -40 -39 -40c-25 0 -39 14 -39 40c0 25 14 38 39 38zM560 741h41c8 0 12 -4 7 -13l-271 -513v-206c0 -6 -3 -9 -9 -9h-37
c-6 0 -9 3 -9 9v206l-271 513c-5 9 -1 13 7 13h41c8 0 12 -3 15 -9l235 -452l236 452c3 6 7 9 15 9z" />
    <glyph glyph-name="Ygrave" unicode="&#x1ef2;" horiz-adv-x="619" 
d="M204 941h43c4 0 6 -2 8 -5l77 -119c2 -4 1 -7 -2 -10l-12 -9c-4 -3 -7 -3 -10 1l-107 118c-3 3 -4 6 -4 9v7c0 5 3 8 7 8zM560 741h41c8 0 12 -4 7 -13l-271 -513v-206c0 -6 -3 -9 -9 -9h-37c-6 0 -9 3 -9 9v206l-271 513c-5 9 -1 13 7 13h41c8 0 12 -3 15 -9l235 -452
l236 452c3 6 7 9 15 9z" />
    <glyph glyph-name="Ytilde" unicode="&#x1ef8;" horiz-adv-x="619" 
d="M246 917c41 0 94 -53 127 -53c27 0 37 9 50 46c3 8 5 9 11 7l17 -3c7 -2 9 -5 7 -13c-18 -68 -35 -85 -84 -85c-41 0 -94 53 -127 53c-26 0 -37 -10 -50 -48c-3 -8 -5 -9 -11 -7l-17 3c-7 3 -8 5 -7 13c19 70 36 87 84 87zM560 741h41c8 0 12 -4 7 -13l-271 -513v-206
c0 -6 -3 -9 -9 -9h-37c-6 0 -9 3 -9 9v206l-271 513c-5 9 -1 13 7 13h41c8 0 12 -3 15 -9l235 -452l236 452c3 6 7 9 15 9z" />
    <glyph glyph-name="Z" unicode="Z" horiz-adv-x="624" 
d="M52 741h518c9 0 12 -5 12 -12v-22c0 -7 -1 -10 -6 -16l-472 -642h477c6 0 10 -3 10 -9v-31c0 -6 -4 -9 -10 -9h-538c-9 0 -12 5 -12 12v20c0 7 1 10 6 16l474 644h-458c-7 0 -10 3 -10 9v31c0 6 3 9 9 9z" />
    <glyph glyph-name="Zacute" unicode="&#x179;" horiz-adv-x="624" 
d="M346 941h43c4 0 7 -3 7 -8v-7c0 -3 -1 -6 -3 -9l-108 -118c-3 -4 -6 -4 -10 -1l-12 9c-3 3 -4 6 -2 10l77 119c2 3 4 5 8 5zM52 741h518c9 0 12 -5 12 -12v-22c0 -7 -1 -10 -6 -16l-472 -642h477c6 0 10 -3 10 -9v-31c0 -6 -4 -9 -10 -9h-538c-9 0 -12 5 -12 12v20
c0 7 1 10 6 16l474 644h-458c-7 0 -10 3 -10 9v31c0 6 3 9 9 9z" />
    <glyph glyph-name="Zcaron" unicode="&#x17d;" horiz-adv-x="624" 
d="M412 939l13 -10c3 -2 4 -6 2 -10l-94 -118c-2 -3 -4 -5 -10 -5h-24c-6 0 -8 2 -10 5l-93 118c-3 4 -2 8 1 10l13 10c3 3 6 3 10 -1l91 -91l91 91c4 4 7 4 10 1zM52 741h518c9 0 12 -5 12 -12v-22c0 -7 -1 -10 -6 -16l-472 -642h477c6 0 10 -3 10 -9v-31
c0 -6 -4 -9 -10 -9h-538c-9 0 -12 5 -12 12v20c0 7 1 10 6 16l474 644h-458c-7 0 -10 3 -10 9v31c0 6 3 9 9 9z" />
    <glyph glyph-name="Zdotaccent" unicode="&#x17b;" horiz-adv-x="624" 
d="M311 902c26 0 39 -13 39 -38c0 -26 -13 -40 -39 -40c-25 0 -39 14 -39 40c0 25 14 38 39 38zM52 741h518c9 0 12 -5 12 -12v-22c0 -7 -1 -10 -6 -16l-472 -642h477c6 0 10 -3 10 -9v-31c0 -6 -4 -9 -10 -9h-538c-9 0 -12 5 -12 12v20c0 7 1 10 6 16l474 644h-458
c-7 0 -10 3 -10 9v31c0 6 3 9 9 9z" />
    <glyph glyph-name="Q.alt" horiz-adv-x="709" 
d="M440 0l160 -93c6 -3 6 -8 4 -13l-16 -26c-2 -5 -7 -7 -12 -4l-223 131c-234 0 -287 84 -287 374s53 377 288 377s289 -87 289 -377c0 -251 -40 -348 -203 -369zM121 369c0 -253 38 -325 233 -325s233 72 233 325s-38 328 -233 328s-233 -75 -233 -328z" />
    <glyph glyph-name="a" unicode="a" horiz-adv-x="514" 
d="M225 542c122 0 215 -33 215 -157v-351c0 -8 0 -18 -18 -23c-36 -11 -139 -16 -201 -16c-135 0 -180 39 -180 156c0 101 48 142 161 142h185v86c0 91 -69 115 -162 115h-124c-7 0 -9 2 -9 9v22c0 6 1 8 8 10c50 6 91 7 125 7zM387 246h-185c-78 0 -107 -28 -107 -95
c0 -80 29 -109 135 -109c28 0 113 2 157 12v192z" />
    <glyph glyph-name="aacute" unicode="&#xe1;" horiz-adv-x="514" 
d="M288 741h43c4 0 7 -3 7 -8v-7c0 -3 -1 -6 -4 -9l-107 -118c-3 -4 -6 -4 -10 -1l-12 9c-3 3 -4 6 -2 10l77 119c2 3 4 5 8 5zM225 542c122 0 215 -33 215 -157v-351c0 -8 0 -18 -18 -23c-36 -11 -139 -16 -201 -16c-135 0 -180 39 -180 156c0 101 48 142 161 142h185v86
c0 91 -69 115 -162 115h-124c-7 0 -9 2 -9 9v22c0 6 1 8 8 10c50 6 91 7 125 7zM387 246h-185c-78 0 -107 -28 -107 -95c0 -80 29 -109 135 -109c28 0 113 2 157 12v192z" />
    <glyph glyph-name="abreve" unicode="&#x103;" horiz-adv-x="514" 
d="M357 728h21c7 0 9 -2 8 -10c-6 -86 -36 -112 -133 -112s-127 26 -134 112c0 8 1 10 9 10h21c6 0 8 -2 10 -8c8 -55 29 -72 94 -72s86 17 94 72c1 6 4 8 10 8zM225 542c122 0 215 -33 215 -157v-351c0 -8 0 -18 -18 -23c-36 -11 -139 -16 -201 -16
c-135 0 -180 39 -180 156c0 101 48 142 161 142h185v86c0 91 -69 115 -162 115h-124c-7 0 -9 2 -9 9v22c0 6 1 8 8 10c50 6 91 7 125 7zM387 246h-185c-78 0 -107 -28 -107 -95c0 -80 29 -109 135 -109c28 0 113 2 157 12v192z" />
    <glyph glyph-name="acaron" unicode="&#x1ce;" horiz-adv-x="514" 
d="M354 739l13 -10c3 -2 4 -6 1 -10l-93 -118c-2 -3 -4 -5 -10 -5h-24c-6 0 -8 2 -10 5l-94 118c-2 4 -1 8 2 10l13 10c3 3 6 3 10 -1l91 -91l91 91c4 4 7 4 10 1zM225 542c122 0 215 -33 215 -157v-351c0 -8 0 -18 -18 -23c-36 -11 -139 -16 -201 -16
c-135 0 -180 39 -180 156c0 101 48 142 161 142h185v86c0 91 -69 115 -162 115h-124c-7 0 -9 2 -9 9v22c0 6 1 8 8 10c50 6 91 7 125 7zM387 246h-185c-78 0 -107 -28 -107 -95c0 -80 29 -109 135 -109c28 0 113 2 157 12v192z" />
    <glyph glyph-name="acircumflex" unicode="&#xe2;" horiz-adv-x="514" 
d="M241 741h24c6 0 8 -2 10 -5l93 -119c3 -4 2 -7 -1 -10l-13 -9c-3 -3 -6 -3 -10 1l-91 91l-91 -91c-4 -4 -7 -4 -10 -1l-13 9c-3 3 -4 6 -2 10l94 119c2 3 4 5 10 5zM225 542c122 0 215 -33 215 -157v-351c0 -8 0 -18 -18 -23c-36 -11 -139 -16 -201 -16
c-135 0 -180 39 -180 156c0 101 48 142 161 142h185v86c0 91 -69 115 -162 115h-124c-7 0 -9 2 -9 9v22c0 6 1 8 8 10c50 6 91 7 125 7zM387 246h-185c-78 0 -107 -28 -107 -95c0 -80 29 -109 135 -109c28 0 113 2 157 12v192z" />
    <glyph glyph-name="adieresis" unicode="&#xe4;" horiz-adv-x="514" 
d="M173 702c26 0 39 -13 39 -38c0 -26 -13 -40 -39 -40c-25 0 -40 14 -40 40c0 25 15 38 40 38zM333 702c26 0 39 -13 39 -38c0 -26 -13 -40 -39 -40c-25 0 -39 14 -39 40c0 25 14 38 39 38zM225 542c122 0 215 -33 215 -157v-351c0 -8 0 -18 -18 -23
c-36 -11 -139 -16 -201 -16c-135 0 -180 39 -180 156c0 101 48 142 161 142h185v86c0 91 -69 115 -162 115h-124c-7 0 -9 2 -9 9v22c0 6 1 8 8 10c50 6 91 7 125 7zM387 246h-185c-78 0 -107 -28 -107 -95c0 -80 29 -109 135 -109c28 0 113 2 157 12v192z" />
    <glyph glyph-name="agrave" unicode="&#xe0;" horiz-adv-x="514" 
d="M159 741h43c4 0 6 -2 8 -5l77 -119c2 -4 1 -7 -2 -10l-12 -9c-4 -3 -7 -3 -10 1l-107 118c-3 3 -4 6 -4 9v7c0 5 3 8 7 8zM225 542c122 0 215 -33 215 -157v-351c0 -8 0 -18 -18 -23c-36 -11 -139 -16 -201 -16c-135 0 -180 39 -180 156c0 101 48 142 161 142h185v86
c0 91 -69 115 -162 115h-124c-7 0 -9 2 -9 9v22c0 6 1 8 8 10c50 6 91 7 125 7zM387 246h-185c-78 0 -107 -28 -107 -95c0 -80 29 -109 135 -109c28 0 113 2 157 12v192z" />
    <glyph glyph-name="amacron" unicode="&#x101;" horiz-adv-x="514" 
d="M132 676h241c6 0 10 -3 10 -9v-26c0 -6 -4 -9 -10 -9h-241c-6 0 -9 3 -9 9v26c0 6 3 9 9 9zM225 542c122 0 215 -33 215 -157v-351c0 -8 0 -18 -18 -23c-36 -11 -139 -16 -201 -16c-135 0 -180 39 -180 156c0 101 48 142 161 142h185v86c0 91 -69 115 -162 115h-124
c-7 0 -9 2 -9 9v22c0 6 1 8 8 10c50 6 91 7 125 7zM387 246h-185c-78 0 -107 -28 -107 -95c0 -80 29 -109 135 -109c28 0 113 2 157 12v192z" />
    <glyph glyph-name="aogonek" unicode="&#x105;" horiz-adv-x="514" 
d="M409 -113h41c6 0 9 -3 9 -9v-19c0 -6 -2 -10 -8 -12c-20 -3 -37 -5 -50 -5c-59 0 -85 15 -85 75c0 24 6 53 12 82c-37 -3 -77 -4 -107 -4c-135 0 -180 39 -180 156c0 101 48 142 161 142h185v86c0 91 -69 115 -162 115h-124c-7 0 -9 2 -9 9v22c0 6 1 8 8 10
c50 6 91 7 125 7c122 0 215 -33 215 -157v-351c0 -8 0 -18 -18 -23c-12 -4 -31 -7 -53 -9c-7 -32 -12 -55 -12 -73c0 -37 14 -42 52 -42zM95 151c0 -80 29 -109 135 -109c28 0 113 2 157 12v192h-185c-78 0 -107 -28 -107 -95z" />
    <glyph glyph-name="aring" unicode="&#xe5;" horiz-adv-x="514" 
d="M253 783c63 0 95 -32 95 -93c0 -60 -32 -92 -95 -92s-96 32 -96 92c0 61 33 93 96 93zM253 752c-41 0 -62 -21 -62 -62s21 -62 62 -62s62 21 62 62s-21 62 -62 62zM225 542c122 0 215 -33 215 -157v-351c0 -8 0 -18 -18 -23c-36 -11 -139 -16 -201 -16
c-135 0 -180 39 -180 156c0 101 48 142 161 142h185v86c0 91 -69 115 -162 115h-124c-7 0 -9 2 -9 9v22c0 6 1 8 8 10c50 6 91 7 125 7zM387 246h-185c-78 0 -107 -28 -107 -95c0 -80 29 -109 135 -109c28 0 113 2 157 12v192z" />
    <glyph glyph-name="aringacute" unicode="&#x1fb;" horiz-adv-x="514" 
d="M294 877h43c4 0 7 -3 7 -7v-8c0 -3 -1 -7 -4 -9l-69 -72c51 -5 77 -36 77 -91c0 -60 -32 -92 -95 -92s-96 32 -96 92c0 52 24 82 69 90l60 92c2 3 4 5 8 5zM253 752c-41 0 -62 -21 -62 -62s21 -62 62 -62s62 21 62 62s-21 62 -62 62zM225 542c122 0 215 -33 215 -157
v-351c0 -8 0 -18 -18 -23c-36 -11 -139 -16 -201 -16c-135 0 -180 39 -180 156c0 101 48 142 161 142h185v86c0 91 -69 115 -162 115h-124c-7 0 -9 2 -9 9v22c0 6 1 8 8 10c50 6 91 7 125 7zM387 246h-185c-78 0 -107 -28 -107 -95c0 -80 29 -109 135 -109
c28 0 113 2 157 12v192z" />
    <glyph glyph-name="atilde" unicode="&#xe3;" horiz-adv-x="514" 
d="M189 717c41 0 94 -53 127 -53c27 0 39 9 50 46c3 8 5 8 11 7l17 -3c7 -1 9 -5 7 -13c-18 -68 -35 -85 -84 -85c-41 0 -94 53 -127 53c-26 0 -37 -10 -50 -48c-3 -8 -5 -9 -11 -7l-17 3c-7 2 -8 5 -7 13c19 70 36 87 84 87zM225 542c122 0 215 -33 215 -157v-351
c0 -8 0 -18 -18 -23c-36 -11 -139 -16 -201 -16c-135 0 -180 39 -180 156c0 101 48 142 161 142h185v86c0 91 -69 115 -162 115h-124c-7 0 -9 2 -9 9v22c0 6 1 8 8 10c50 6 91 7 125 7zM387 246h-185c-78 0 -107 -28 -107 -95c0 -80 29 -109 135 -109c28 0 113 2 157 12v192
z" />
    <glyph glyph-name="ae" unicode="&#xe6;" horiz-adv-x="849" 
d="M596 542c163 0 202 -51 205 -252v-29c0 -13 -3 -19 -23 -19h-338c2 -158 29 -199 156 -199h150c6 0 9 -4 9 -10v-23c0 -5 -2 -8 -8 -9c-42 -5 -113 -6 -151 -6c-78 0 -140 16 -169 54c-60 -45 -138 -54 -207 -54c-134 0 -179 39 -179 156c0 101 47 142 160 142h185v86
c0 91 -68 115 -162 115h-124c-7 0 -9 2 -9 9v22c0 7 2 8 8 10c50 6 91 7 125 7c84 0 160 -16 193 -74c27 56 80 74 179 74zM596 494c-129 0 -155 -40 -156 -203h308c-2 167 -30 203 -152 203zM386 246h-185c-78 0 -107 -28 -107 -95c0 -80 29 -109 135 -109
c42 0 127 9 178 46c-15 36 -21 94 -21 158z" />
    <glyph glyph-name="aeacute" unicode="&#x1fd;" horiz-adv-x="849" 
d="M479 741h42c5 0 7 -3 7 -8v-7c0 -3 0 -6 -3 -9l-107 -118c-3 -4 -6 -4 -10 -1l-12 9c-3 3 -4 6 -2 10l76 119c2 3 5 5 9 5zM596 542c163 0 202 -51 205 -252v-29c0 -13 -3 -19 -23 -19h-338c2 -158 29 -199 156 -199h150c6 0 9 -4 9 -10v-23c0 -5 -2 -8 -8 -9
c-42 -5 -113 -6 -151 -6c-78 0 -140 16 -169 54c-60 -45 -138 -54 -207 -54c-134 0 -179 39 -179 156c0 101 47 142 160 142h185v86c0 91 -68 115 -162 115h-124c-7 0 -9 2 -9 9v22c0 7 2 8 8 10c50 6 91 7 125 7c84 0 160 -16 193 -74c27 56 80 74 179 74zM596 494
c-129 0 -155 -40 -156 -203h308c-2 167 -30 203 -152 203zM386 246h-185c-78 0 -107 -28 -107 -95c0 -80 29 -109 135 -109c42 0 127 9 178 46c-15 36 -21 94 -21 158z" />
    <glyph glyph-name="b" unicode="b" horiz-adv-x="559" 
d="M87 741h35c6 0 9 -4 9 -10v-194c46 3 92 5 142 5c195 0 224 -52 224 -270c0 -223 -29 -277 -207 -277c-59 0 -103 1 -200 15c-10 2 -12 7 -12 15v706c0 6 3 10 9 10zM273 494h-142v-440c69 -9 115 -11 159 -11c137 0 154 45 154 230c0 179 -18 221 -171 221z" />
    <glyph glyph-name="c" unicode="c" horiz-adv-x="466" 
d="M276 542c30 0 104 -1 145 -6c7 -1 9 -4 9 -9v-24c0 -6 -4 -9 -10 -9h-144c-135 0 -161 -46 -161 -225c0 -180 26 -226 161 -226h144c6 0 10 -4 10 -10v-23c0 -5 -2 -8 -9 -9c-41 -5 -115 -6 -145 -6c-175 0 -215 56 -215 274c0 217 40 273 215 273z" />
    <glyph glyph-name="cacute" unicode="&#x107;" horiz-adv-x="466" 
d="M312 741h43c4 0 7 -3 7 -8v-7c0 -3 -1 -6 -3 -9l-107 -118c-4 -4 -7 -4 -11 -1l-12 9c-3 3 -4 6 -2 10l77 119c2 3 4 5 8 5zM276 542c30 0 104 -1 145 -6c7 -1 9 -4 9 -9v-24c0 -6 -4 -9 -10 -9h-144c-135 0 -161 -46 -161 -225c0 -180 26 -226 161 -226h144
c6 0 10 -4 10 -10v-23c0 -5 -2 -8 -9 -9c-41 -5 -115 -6 -145 -6c-175 0 -215 56 -215 274c0 217 40 273 215 273z" />
    <glyph glyph-name="ccaron" unicode="&#x10d;" horiz-adv-x="466" 
d="M372 739l12 -10c3 -2 5 -6 2 -10l-93 -118c-3 -3 -5 -5 -11 -5h-23c-7 0 -8 2 -11 5l-93 118c-3 4 -1 8 2 10l12 10c4 3 7 3 10 -1l91 -91l92 91c3 4 6 4 10 1zM276 542c30 0 104 -1 145 -6c7 -1 9 -4 9 -9v-24c0 -6 -4 -9 -10 -9h-144c-135 0 -161 -46 -161 -225
c0 -180 26 -226 161 -226h144c6 0 10 -4 10 -10v-23c0 -5 -2 -8 -9 -9c-41 -5 -115 -6 -145 -6c-175 0 -215 56 -215 274c0 217 40 273 215 273z" />
    <glyph glyph-name="ccedilla" unicode="&#xe7;" horiz-adv-x="466" 
d="M420 494h-144c-135 0 -161 -46 -161 -225c0 -180 26 -226 161 -226h144c6 0 10 -4 10 -10v-23c0 -5 -2 -8 -9 -9c-33 -4 -88 -5 -124 -6c7 -28 12 -56 12 -78c0 -60 -26 -75 -85 -75c-13 0 -30 2 -50 5c-6 2 -8 6 -8 12v19c0 6 3 9 9 9h41c38 0 51 5 51 42
c0 18 -4 41 -10 66c-159 4 -196 64 -196 274c0 217 40 273 215 273c30 0 104 -1 145 -6c7 -1 9 -4 9 -9v-24c0 -6 -4 -9 -10 -9z" />
    <glyph glyph-name="ccircumflex" unicode="&#x109;" horiz-adv-x="466" 
d="M249 741h24c6 0 8 -2 10 -5l94 -119c2 -4 1 -7 -2 -10l-12 -9c-4 -3 -7 -3 -10 1l-92 91l-91 -91c-4 -4 -6 -4 -10 -1l-12 9c-4 3 -5 6 -2 10l93 119c2 3 4 5 10 5zM276 542c30 0 104 -1 145 -6c7 -1 9 -4 9 -9v-24c0 -6 -4 -9 -10 -9h-144c-135 0 -161 -46 -161 -225
c0 -180 26 -226 161 -226h144c6 0 10 -4 10 -10v-23c0 -5 -2 -8 -9 -9c-41 -5 -115 -6 -145 -6c-175 0 -215 56 -215 274c0 217 40 273 215 273z" />
    <glyph glyph-name="cdotaccent" unicode="&#x10b;" horiz-adv-x="466" 
d="M245 702c26 0 39 -13 39 -38c0 -26 -13 -40 -39 -40c-25 0 -39 14 -39 40c0 25 14 38 39 38zM276 542c30 0 104 -1 145 -6c7 -1 9 -4 9 -9v-24c0 -6 -4 -9 -10 -9h-144c-135 0 -161 -46 -161 -225c0 -180 26 -226 161 -226h144c6 0 10 -4 10 -10v-23c0 -5 -2 -8 -9 -9
c-41 -5 -115 -6 -145 -6c-175 0 -215 56 -215 274c0 217 40 273 215 273z" />
    <glyph glyph-name="d" unicode="d" horiz-adv-x="560" 
d="M438 741h34c6 0 10 -4 10 -10v-706c0 -8 -3 -13 -13 -15c-96 -14 -140 -15 -199 -15c-179 0 -208 53 -208 277c0 218 30 270 224 270c50 0 96 -2 143 -5v194c0 6 3 10 9 10zM429 494h-143c-153 0 -171 -42 -171 -221c0 -186 18 -230 155 -230c43 0 90 2 159 11v440z" />
    <glyph glyph-name="eth" unicode="&#xf0;" horiz-adv-x="549" 
d="M227 741h37c6 0 9 -2 12 -6l34 -58l100 36c5 3 9 1 11 -5l9 -19c2 -5 0 -10 -6 -12l-94 -34l133 -225c22 -38 28 -94 28 -175c-1 -196 -41 -248 -215 -248s-215 52 -215 248s41 248 215 248c37 0 68 -3 93 -10l-87 145l-88 -31c-6 -2 -10 0 -12 6l-7 18c-2 6 0 11 6 12
l81 30l-41 68c-4 6 -1 12 6 12zM276 443c-134 0 -162 -41 -162 -200s28 -201 162 -201s161 42 162 201c-1 159 -28 200 -162 200z" />
    <glyph glyph-name="dcaron" unicode="&#x10f;" horiz-adv-x="588" 
d="M438 741h34c6 0 10 -4 10 -10v-706c0 -8 -3 -13 -13 -15c-96 -14 -140 -15 -199 -15c-179 0 -208 53 -208 277c0 218 30 270 224 270c50 0 96 -2 143 -5v194c0 6 3 10 9 10zM615 741h39c4 0 7 -3 7 -8v-7c0 -3 -1 -6 -3 -9l-89 -118c-3 -4 -6 -4 -10 -1l-12 9
c-3 3 -4 6 -2 10l61 119c2 3 4 5 9 5zM429 494h-143c-153 0 -171 -42 -171 -221c0 -186 18 -230 155 -230c43 0 90 2 159 11v440z" />
    <glyph glyph-name="dcroat" unicode="&#x111;" horiz-adv-x="560" 
d="M482 653h62c6 0 9 -3 9 -9v-21c0 -6 -3 -9 -9 -9h-62v-589c0 -8 -3 -13 -13 -15c-96 -14 -140 -15 -199 -15c-179 0 -208 53 -208 277c0 218 30 270 224 270c50 0 96 -2 143 -5v77h-155c-6 0 -9 3 -9 9v21c0 6 3 9 9 9h155v78c0 6 3 10 9 10h34c6 0 10 -4 10 -10v-78z
M429 54v440h-143c-153 0 -171 -42 -171 -221c0 -186 18 -230 155 -230c43 0 90 2 159 11z" />
    <glyph glyph-name="e" unicode="e" horiz-adv-x="525" 
d="M272 542c163 0 201 -51 204 -252v-29c0 -13 -2 -19 -22 -19h-339c3 -158 29 -199 157 -199h149c6 0 10 -4 10 -10v-23c0 -5 -3 -8 -9 -9c-41 -5 -113 -6 -150 -6c-176 0 -210 56 -210 274c0 219 34 273 210 273zM272 494c-130 0 -156 -40 -157 -203h308
c-2 167 -29 203 -151 203z" />
    <glyph glyph-name="eacute" unicode="&#xe9;" horiz-adv-x="525" 
d="M311 741h43c4 0 7 -3 7 -8v-7c0 -3 -1 -6 -3 -9l-108 -118c-3 -4 -6 -4 -10 -1l-12 9c-3 3 -4 6 -2 10l77 119c2 3 4 5 8 5zM272 542c163 0 201 -51 204 -252v-29c0 -13 -2 -19 -22 -19h-339c3 -158 29 -199 157 -199h149c6 0 10 -4 10 -10v-23c0 -5 -3 -8 -9 -9
c-41 -5 -113 -6 -150 -6c-176 0 -210 56 -210 274c0 219 34 273 210 273zM272 494c-130 0 -156 -40 -157 -203h308c-2 167 -29 203 -151 203z" />
    <glyph glyph-name="ebreve" unicode="&#x115;" horiz-adv-x="525" 
d="M373 728h21c8 0 9 -2 9 -10c-7 -86 -37 -112 -134 -112s-127 26 -133 112c-1 8 1 10 8 10h21c6 0 9 -2 10 -8c8 -55 29 -72 94 -72s86 17 94 72c2 6 4 8 10 8zM272 542c163 0 201 -51 204 -252v-29c0 -13 -2 -19 -22 -19h-339c3 -158 29 -199 157 -199h149
c6 0 10 -4 10 -10v-23c0 -5 -3 -8 -9 -9c-41 -5 -113 -6 -150 -6c-176 0 -210 56 -210 274c0 219 34 273 210 273zM272 494c-130 0 -156 -40 -157 -203h308c-2 167 -29 203 -151 203z" />
    <glyph glyph-name="ecaron" unicode="&#x11b;" horiz-adv-x="525" 
d="M371 739l12 -10c3 -2 4 -6 2 -10l-94 -118c-2 -3 -4 -5 -10 -5h-24c-6 0 -8 2 -10 5l-93 118c-3 4 -2 8 2 10l12 10c4 3 6 3 10 -1l91 -91l92 91c3 4 6 4 10 1zM272 542c163 0 201 -51 204 -252v-29c0 -13 -2 -19 -22 -19h-339c3 -158 29 -199 157 -199h149
c6 0 10 -4 10 -10v-23c0 -5 -3 -8 -9 -9c-41 -5 -113 -6 -150 -6c-176 0 -210 56 -210 274c0 219 34 273 210 273zM272 494c-130 0 -156 -40 -157 -203h308c-2 167 -29 203 -151 203z" />
    <glyph glyph-name="ecircumflex" unicode="&#xea;" horiz-adv-x="525" 
d="M257 741h24c6 0 8 -2 10 -5l94 -119c2 -4 1 -7 -2 -10l-12 -9c-4 -3 -7 -3 -10 1l-92 91l-91 -91c-4 -4 -6 -4 -10 -1l-12 9c-4 3 -5 6 -2 10l93 119c2 3 4 5 10 5zM272 542c163 0 201 -51 204 -252v-29c0 -13 -2 -19 -22 -19h-339c3 -158 29 -199 157 -199h149
c6 0 10 -4 10 -10v-23c0 -5 -3 -8 -9 -9c-41 -5 -113 -6 -150 -6c-176 0 -210 56 -210 274c0 219 34 273 210 273zM272 494c-130 0 -156 -40 -157 -203h308c-2 167 -29 203 -151 203z" />
    <glyph glyph-name="edieresis" unicode="&#xeb;" horiz-adv-x="525" 
d="M189 702c26 0 39 -13 39 -38c0 -26 -13 -40 -39 -40c-25 0 -39 14 -39 40c0 25 14 38 39 38zM349 702c26 0 40 -13 40 -38c0 -26 -14 -40 -40 -40c-24 0 -39 14 -39 40c0 25 15 38 39 38zM272 542c163 0 201 -51 204 -252v-29c0 -13 -2 -19 -22 -19h-339
c3 -158 29 -199 157 -199h149c6 0 10 -4 10 -10v-23c0 -5 -3 -8 -9 -9c-41 -5 -113 -6 -150 -6c-176 0 -210 56 -210 274c0 219 34 273 210 273zM272 494c-130 0 -156 -40 -157 -203h308c-2 167 -29 203 -151 203z" />
    <glyph glyph-name="edotaccent" unicode="&#x117;" horiz-adv-x="525" 
d="M269 702c26 0 39 -13 39 -38c0 -26 -13 -40 -39 -40c-25 0 -39 14 -39 40c0 25 14 38 39 38zM272 542c163 0 201 -51 204 -252v-29c0 -13 -2 -19 -22 -19h-339c3 -158 29 -199 157 -199h149c6 0 10 -4 10 -10v-23c0 -5 -3 -8 -9 -9c-41 -5 -113 -6 -150 -6
c-176 0 -210 56 -210 274c0 219 34 273 210 273zM272 494c-130 0 -156 -40 -157 -203h308c-2 167 -29 203 -151 203z" />
    <glyph glyph-name="egrave" unicode="&#xe8;" horiz-adv-x="525" 
d="M168 741h42c4 0 7 -2 9 -5l76 -119c3 -4 2 -7 -2 -10l-12 -9c-4 -3 -7 -3 -10 1l-107 118c-2 3 -3 6 -3 9v7c0 5 3 8 7 8zM272 542c163 0 201 -51 204 -252v-29c0 -13 -2 -19 -22 -19h-339c3 -158 29 -199 157 -199h149c6 0 10 -4 10 -10v-23c0 -5 -3 -8 -9 -9
c-41 -5 -113 -6 -150 -6c-176 0 -210 56 -210 274c0 219 34 273 210 273zM272 494c-130 0 -156 -40 -157 -203h308c-2 167 -29 203 -151 203z" />
    <glyph glyph-name="emacron" unicode="&#x113;" horiz-adv-x="525" 
d="M148 676h242c6 0 9 -3 9 -9v-26c0 -6 -3 -9 -9 -9h-242c-6 0 -9 3 -9 9v26c0 6 3 9 9 9zM272 542c163 0 201 -51 204 -252v-29c0 -13 -2 -19 -22 -19h-339c3 -158 29 -199 157 -199h149c6 0 10 -4 10 -10v-23c0 -5 -3 -8 -9 -9c-41 -5 -113 -6 -150 -6
c-176 0 -210 56 -210 274c0 219 34 273 210 273zM272 494c-130 0 -156 -40 -157 -203h308c-2 167 -29 203 -151 203z" />
    <glyph glyph-name="eogonek" unicode="&#x119;" horiz-adv-x="525" 
d="M272 542c163 0 201 -51 204 -252v-29c0 -13 -2 -19 -22 -19h-339c3 -158 29 -199 157 -199h149c6 0 10 -4 10 -10v-23c0 -5 -3 -8 -9 -9c-16 -2 -33 -3 -50 -4c-7 -27 -11 -50 -11 -68c0 -37 14 -42 52 -42h41c6 0 9 -3 9 -9v-19c0 -6 -2 -10 -8 -12
c-20 -3 -37 -5 -50 -5c-59 0 -85 15 -85 75c0 23 5 51 12 79l-60 -1c-176 0 -210 56 -210 274c0 219 34 273 210 273zM272 494c-130 0 -156 -40 -157 -203h308c-2 167 -29 203 -151 203z" />
    <glyph glyph-name="f" unicode="f" horiz-adv-x="332" 
d="M237 747c28 0 61 -3 82 -6c6 -2 8 -4 8 -9v-24c0 -6 -3 -9 -9 -9h-67c-34 0 -85 -1 -85 -58v-106h143c6 0 9 -3 7 -10l-5 -26c-1 -6 -4 -8 -9 -8h-136v-482c0 -6 -4 -9 -10 -9h-34c-6 0 -9 3 -9 9v482h-79c-6 0 -10 3 -10 9v26c0 6 4 9 10 9h79v114c0 97 93 98 124 98z
" />
    <glyph glyph-name="g" unicode="g" horiz-adv-x="559" 
d="M269 542c69 0 124 -3 200 -8c9 -1 12 -7 12 -15v-504c-1 -167 -39 -214 -214 -214c-41 0 -88 1 -134 5c-6 0 -9 4 -9 10v23c0 6 3 10 9 10h134c132 0 161 33 161 144v8c-52 -5 -95 -6 -142 -6c-195 0 -224 51 -224 269c0 224 29 278 207 278zM428 494h-159
c-137 0 -154 -44 -154 -230c0 -179 18 -221 171 -221c46 0 96 1 142 5v446z" />
    <glyph glyph-name="gbreve" unicode="&#x11f;" horiz-adv-x="559" 
d="M391 728h21c8 0 10 -2 9 -10c-7 -86 -37 -112 -134 -112s-127 26 -133 112c-1 8 1 10 8 10h21c6 0 9 -2 10 -8c8 -55 29 -72 94 -72c66 0 86 17 95 72c1 6 3 8 9 8zM269 542c69 0 124 -3 200 -8c9 -1 12 -7 12 -15v-504c-1 -167 -39 -214 -214 -214c-41 0 -88 1 -134 5
c-6 0 -9 4 -9 10v23c0 6 3 10 9 10h134c132 0 161 33 161 144v8c-52 -5 -95 -6 -142 -6c-195 0 -224 51 -224 269c0 224 29 278 207 278zM428 494h-159c-137 0 -154 -44 -154 -230c0 -179 18 -221 171 -221c46 0 96 1 142 5v446z" />
    <glyph glyph-name="gcircumflex" unicode="&#x11d;" horiz-adv-x="559" 
d="M275 741h24c6 0 8 -2 10 -5l94 -119c3 -4 1 -7 -2 -10l-12 -9c-4 -3 -7 -3 -10 1l-92 91l-91 -91c-3 -4 -6 -4 -10 -1l-12 9c-4 3 -5 6 -2 10l93 119c2 3 4 5 10 5zM269 542c69 0 124 -3 200 -8c9 -1 12 -7 12 -15v-504c-1 -167 -39 -214 -214 -214c-41 0 -88 1 -134 5
c-6 0 -9 4 -9 10v23c0 6 3 10 9 10h134c132 0 161 33 161 144v8c-52 -5 -95 -6 -142 -6c-195 0 -224 51 -224 269c0 224 29 278 207 278zM428 494h-159c-137 0 -154 -44 -154 -230c0 -179 18 -221 171 -221c46 0 96 1 142 5v446z" />
    <glyph glyph-name="gcommaaccent" unicode="&#x123;" horiz-adv-x="559" 
d="M380 739l12 -9c3 -3 4 -6 2 -10l-77 -119c-2 -3 -4 -4 -8 -4h-38c-5 0 -8 2 -8 7v8c0 3 1 6 4 8l103 119c3 3 6 3 10 0zM269 542c69 0 124 -3 200 -8c9 -1 12 -7 12 -15v-504c-1 -167 -39 -214 -214 -214c-41 0 -88 1 -134 5c-6 0 -9 4 -9 10v23c0 6 3 10 9 10h134
c132 0 161 33 161 144v8c-52 -5 -95 -6 -142 -6c-195 0 -224 51 -224 269c0 224 29 278 207 278zM428 494h-159c-137 0 -154 -44 -154 -230c0 -179 18 -221 171 -221c46 0 96 1 142 5v446z" />
    <glyph glyph-name="gdotaccent" unicode="&#x121;" horiz-adv-x="559" 
d="M287 702c26 0 39 -13 39 -38c0 -26 -13 -40 -39 -40c-25 0 -39 14 -39 40c0 25 14 38 39 38zM269 542c69 0 124 -3 200 -8c9 -1 12 -7 12 -15v-504c-1 -167 -39 -214 -214 -214c-41 0 -88 1 -134 5c-6 0 -9 4 -9 10v23c0 6 3 10 9 10h134c132 0 161 33 161 144v8
c-52 -5 -95 -6 -142 -6c-195 0 -224 51 -224 269c0 224 29 278 207 278zM428 494h-159c-137 0 -154 -44 -154 -230c0 -179 18 -221 171 -221c46 0 96 1 142 5v446z" />
    <glyph glyph-name="h" unicode="h" horiz-adv-x="574" 
d="M87 741h35c6 0 9 -4 9 -10v-194c50 4 114 5 160 5c148 0 208 -25 208 -220v-313c0 -6 -3 -9 -9 -9h-35c-6 0 -9 3 -9 9v313c0 157 -45 172 -148 172h-167v-485c0 -6 -3 -9 -9 -9h-35c-6 0 -9 3 -9 9v722c0 6 3 10 9 10z" />
    <glyph glyph-name="hbar" unicode="&#x127;" horiz-adv-x="574" 
d="M291 542c148 0 208 -25 208 -220v-313c0 -6 -3 -9 -9 -9h-35c-6 0 -9 3 -9 9v313c0 157 -45 172 -148 172h-167v-485c0 -6 -3 -9 -9 -9h-35c-6 0 -9 3 -9 9v605h-62c-6 0 -10 3 -10 9v21c0 6 4 9 10 9h62v78c0 6 3 10 9 10h35c6 0 9 -4 9 -10v-78h155c6 0 9 -3 9 -9v-20
c0 -6 -3 -10 -9 -10h-155v-77c50 4 114 5 160 5z" />
    <glyph glyph-name="hcircumflex" unicode="&#x125;" horiz-adv-x="574" 
d="M91 909h24c6 0 8 -2 10 -5l94 -118c2 -4 1 -7 -2 -10l-12 -9c-4 -3 -7 -3 -11 0l-91 91l-91 -91c-4 -3 -6 -3 -10 0l-13 9c-3 3 -4 6 -1 10l93 118c2 3 4 5 10 5zM87 741h35c6 0 9 -4 9 -10v-194c50 4 114 5 160 5c148 0 208 -25 208 -220v-313c0 -6 -3 -9 -9 -9h-35
c-6 0 -9 3 -9 9v313c0 157 -45 172 -148 172h-167v-485c0 -6 -3 -9 -9 -9h-35c-6 0 -9 3 -9 9v722c0 6 3 10 9 10z" />
    <glyph glyph-name="i" unicode="i" horiz-adv-x="209" 
d="M104 713c24 0 37 -13 37 -36c0 -25 -13 -38 -37 -38c-23 0 -36 13 -36 38c0 23 13 36 36 36zM87 535h35c6 0 9 -3 9 -9v-517c0 -6 -3 -9 -9 -9h-35c-6 0 -9 3 -9 9v517c0 6 3 9 9 9z" />
    <glyph glyph-name="dotlessi" unicode="&#x131;" horiz-adv-x="209" 
d="M87 535h35c6 0 9 -3 9 -9v-517c0 -6 -3 -9 -9 -9h-35c-6 0 -9 3 -9 9v517c0 6 3 9 9 9z" />
    <glyph glyph-name="iacute" unicode="&#xed;" horiz-adv-x="209" 
d="M171 741h42c4 0 7 -3 7 -8v-7c0 -3 -1 -6 -3 -9l-107 -118c-4 -4 -6 -4 -10 -1l-12 9c-4 3 -5 6 -2 10l76 119c2 3 4 5 9 5zM87 535h35c6 0 9 -3 9 -9v-517c0 -6 -3 -9 -9 -9h-35c-6 0 -9 3 -9 9v517c0 6 3 9 9 9z" />
    <glyph glyph-name="icaron" unicode="&#x1d0;" horiz-adv-x="210" 
d="M206 739l12 -10c3 -2 5 -6 2 -10l-93 -118c-3 -3 -5 -5 -11 -5h-23c-6 0 -8 2 -11 5l-93 118c-3 4 -1 8 2 10l12 10c4 3 7 3 10 -1l91 -91l92 91c3 4 6 4 10 1zM88 535h34c6 0 10 -3 10 -9v-517c0 -6 -4 -9 -10 -9h-34c-6 0 -10 3 -10 9v517c0 6 4 9 10 9z" />
    <glyph glyph-name="icircumflex" unicode="&#xee;" horiz-adv-x="209" 
d="M92 741h24c6 0 7 -2 10 -5l93 -119c3 -4 2 -7 -2 -10l-12 -9c-4 -3 -7 -3 -10 1l-91 91l-92 -91c-3 -4 -6 -4 -10 -1l-12 9c-3 3 -5 6 -2 10l93 119c3 3 5 5 11 5zM121 0h-34c-6 0 -9 3 -9 9v517c0 6 3 9 9 9h34c6 0 10 -3 10 -9v-517c0 -6 -4 -9 -10 -9z" />
    <glyph glyph-name="idieresis" unicode="&#xef;" horiz-adv-x="209" 
d="M24 702c26 0 39 -13 39 -38c0 -26 -13 -40 -39 -40c-25 0 -39 14 -39 40c0 25 14 38 39 38zM185 702c25 0 39 -13 39 -38c0 -26 -14 -40 -39 -40s-40 14 -40 40c0 25 15 38 40 38zM87 535h35c6 0 9 -3 9 -9v-517c0 -6 -3 -9 -9 -9h-35c-6 0 -9 3 -9 9v517c0 6 3 9 9 9z
" />
    <glyph glyph-name="i.loclTRK" horiz-adv-x="209" 
d="M104 702c26 0 39 -13 39 -38c0 -26 -13 -40 -39 -40c-25 0 -39 14 -39 40c0 25 14 38 39 38zM87 535h35c6 0 9 -3 9 -9v-517c0 -6 -3 -9 -9 -9h-35c-6 0 -9 3 -9 9v517c0 6 3 9 9 9z" />
    <glyph glyph-name="igrave" unicode="&#xec;" horiz-adv-x="209" 
d="M-4 741h43c4 0 6 -2 8 -5l77 -119c2 -4 1 -7 -2 -10l-12 -9c-4 -3 -7 -3 -11 1l-107 118c-2 3 -3 6 -3 9v7c0 5 3 8 7 8zM87 535h35c6 0 9 -3 9 -9v-517c0 -6 -3 -9 -9 -9h-35c-6 0 -9 3 -9 9v517c0 6 3 9 9 9z" />
    <glyph glyph-name="ij" unicode="&#x133;" horiz-adv-x="419" 
d="M104 713c24 0 37 -13 37 -36c0 -25 -13 -38 -37 -38c-23 0 -36 13 -36 38c0 23 13 36 36 36zM87 535h35c6 0 9 -3 9 -9v-517c0 -6 -3 -9 -9 -9h-35c-6 0 -9 3 -9 9v517c0 6 3 9 9 9zM315 713c24 0 37 -13 37 -36c0 -25 -13 -38 -37 -38s-37 13 -37 38c0 23 13 36 37 36z
M297 535h35c6 0 9 -3 9 -9v-640c0 -80 -56 -81 -84 -81c-10 0 -34 0 -49 3c-7 1 -8 4 -8 9v26c0 7 3 9 9 9h37c25 0 42 2 42 52v622c0 6 3 9 9 9z" />
    <glyph glyph-name="imacron" unicode="&#x12b;" horiz-adv-x="209" 
d="M-16 676h241c6 0 9 -3 9 -9v-26c0 -6 -3 -9 -9 -9h-241c-6 0 -10 3 -10 9v26c0 6 4 9 10 9zM87 535h35c6 0 9 -3 9 -9v-517c0 -6 -3 -9 -9 -9h-35c-6 0 -9 3 -9 9v517c0 6 3 9 9 9z" />
    <glyph glyph-name="iogonek" unicode="&#x12f;" horiz-adv-x="209" 
d="M105 702c26 0 39 -13 39 -38c0 -26 -13 -40 -39 -40c-24 0 -39 14 -39 40c0 25 15 38 39 38zM87 535h35c6 0 9 -3 9 -9v-518c0 -5 -2 -8 -7 -8h-7c-7 -29 -12 -52 -12 -71c0 -37 14 -42 52 -42h40c7 0 10 -3 10 -9v-19c0 -6 -3 -10 -8 -12c-20 -3 -38 -5 -51 -5
c-58 0 -84 15 -84 75c0 25 6 56 14 86v523c0 6 3 9 9 9z" />
    <glyph glyph-name="itilde" unicode="&#x129;" horiz-adv-x="209" 
d="M40 717c41 0 94 -53 127 -53c27 0 39 9 50 46c3 8 5 8 11 7l17 -3c7 -1 9 -5 7 -13c-18 -68 -35 -85 -84 -85c-41 0 -94 53 -128 53c-26 0 -36 -10 -50 -48c-3 -8 -5 -9 -11 -7l-16 3c-7 2 -9 5 -7 13c19 70 35 87 84 87zM87 535h35c6 0 9 -3 9 -9v-517c0 -6 -3 -9 -9 -9
h-35c-6 0 -9 3 -9 9v517c0 6 3 9 9 9z" />
    <glyph glyph-name="j" unicode="j" horiz-adv-x="210" 
d="M106 713c24 0 37 -13 37 -36c0 -25 -13 -38 -37 -38s-37 13 -37 38c0 23 13 36 37 36zM88 535h35c6 0 9 -3 9 -9v-640c0 -80 -56 -81 -84 -81c-10 0 -34 0 -49 3c-7 1 -8 4 -8 9v26c0 7 3 9 9 9h37c25 0 42 2 42 52v622c0 6 3 9 9 9z" />
    <glyph glyph-name="jcircumflex" unicode="&#x135;" horiz-adv-x="210" 
d="M92 741h24c6 0 8 -2 10 -5l94 -119c3 -4 1 -7 -2 -10l-12 -9c-4 -3 -7 -3 -10 1l-92 91l-91 -91c-3 -4 -6 -4 -10 -1l-12 9c-4 3 -5 6 -2 10l93 119c2 3 4 5 10 5zM88 535h35c6 0 9 -3 9 -9v-640c0 -80 -55 -81 -84 -81c-9 0 -34 0 -49 3c-7 1 -8 4 -8 9v26c0 7 3 9 10 9
h36c25 0 42 2 42 52v622c0 6 3 9 9 9z" />
    <glyph glyph-name="k" unicode="k" horiz-adv-x="465" 
d="M87 741h34c6 0 10 -4 10 -10v-391l197 189c5 5 10 6 18 6h46c11 0 11 -6 5 -12l-208 -196l269 -313c5 -6 4 -14 -11 -14h-37c-6 0 -13 2 -17 8l-262 308v-306c0 -7 -4 -10 -10 -10h-34c-6 0 -9 3 -9 10v721c0 6 3 10 9 10z" />
    <glyph glyph-name="kcommaaccent" unicode="&#x137;" horiz-adv-x="465" 
d="M88 741h34c6 0 9 -4 9 -10v-391l198 189c4 5 10 6 18 6h46c10 0 11 -6 5 -12l-208 -196l268 -313c5 -6 5 -14 -10 -14h-37c-6 0 -13 2 -18 8l-262 308v-306c0 -7 -3 -10 -9 -10h-34c-6 0 -10 3 -10 10v721c0 6 4 10 10 10zM237 -37h38c5 0 8 -2 8 -7v-7c0 -4 -1 -7 -4 -9
l-103 -119c-3 -3 -6 -3 -10 0l-12 9c-3 3 -4 6 -2 10l77 119c2 3 4 4 8 4z" />
    <glyph glyph-name="kgreenlandic" unicode="&#x138;" horiz-adv-x="472" 
d="M382 535h43c9 0 10 -5 4 -12l-238 -236l262 -277c5 -6 5 -11 -6 -11h-47c-5 0 -10 2 -13 6l-253 264v-260c0 -6 -4 -9 -10 -9h-36c-6 0 -10 3 -10 9v517c0 6 4 9 10 9h36c6 0 10 -3 10 -9v-226l234 230c4 3 8 5 14 5z" />
    <glyph glyph-name="l" unicode="l" horiz-adv-x="209" 
d="M87 741h34c6 0 10 -3 10 -9v-723c0 -6 -4 -9 -10 -9h-34c-6 0 -9 3 -9 9v723c0 6 3 9 9 9z" />
    <glyph glyph-name="lacute" unicode="&#x13a;" horiz-adv-x="209" 
d="M164 922h43c4 0 7 -2 7 -7v-8c0 -3 -1 -6 -4 -8l-107 -119c-3 -3 -6 -3 -10 -1l-12 10c-3 3 -4 6 -2 10l77 119c2 3 4 4 8 4zM87 741h35c6 0 9 -3 9 -9v-723c0 -6 -3 -9 -9 -9h-35c-6 0 -9 3 -9 9v723c0 6 3 9 9 9z" />
    <glyph glyph-name="lcaron" unicode="&#x13e;" horiz-adv-x="238" 
d="M87 741h35c6 0 9 -3 9 -9v-723c0 -6 -3 -9 -9 -9h-35c-6 0 -9 3 -9 9v723c0 6 3 9 9 9zM251 741h39c5 0 8 -3 8 -8v-7c0 -3 -1 -6 -4 -9l-88 -118c-3 -4 -6 -4 -10 -1l-12 9c-4 3 -4 6 -2 10l61 119c1 3 4 5 8 5z" />
    <glyph glyph-name="lcommaaccent" unicode="&#x13c;" horiz-adv-x="209" 
d="M87 741h35c6 0 9 -3 9 -9v-723c0 -6 -3 -9 -9 -9h-35c-6 0 -9 3 -9 9v723c0 6 3 9 9 9zM86 -37h38c4 0 7 -2 7 -7v-7c0 -4 -1 -7 -3 -9l-103 -119c-3 -3 -6 -3 -10 0l-12 9c-3 3 -4 6 -2 10l76 119c2 3 5 4 9 4z" />
    <glyph glyph-name="ldot" unicode="&#x140;" horiz-adv-x="258" 
d="M87 741h35c6 0 9 -3 9 -9v-723c0 -6 -3 -9 -9 -9h-35c-6 0 -9 3 -9 9v723c0 6 3 9 9 9zM233 345c26 0 39 -13 39 -39s-13 -39 -39 -39c-25 0 -39 13 -39 39s14 39 39 39z" />
    <glyph glyph-name="lslash" unicode="&#x142;" horiz-adv-x="252" 
d="M102 741h35c6 0 9 -3 9 -9v-369l62 35c6 4 11 3 13 -2l12 -20c3 -6 3 -9 -3 -13l-84 -48v-306c0 -6 -3 -9 -9 -9h-35c-6 0 -9 3 -9 9v275l-53 -30c-5 -3 -10 -1 -12 4l-12 20c-3 4 -1 9 4 12l73 42v400c0 6 3 9 9 9z" />
    <glyph glyph-name="m" unicode="m" horiz-adv-x="867" 
d="M585 542c148 0 208 -25 208 -220l-1 -313c0 -6 -3 -9 -9 -9h-34c-6 0 -9 3 -9 9v313c0 157 -45 172 -148 172c-56 0 -112 -5 -151 -14c18 -31 26 -77 26 -147l-1 -324c0 -7 -3 -9 -8 -9h-35c-6 0 -9 3 -9 9v324c0 156 -45 161 -148 161h-135v-485c0 -6 -3 -9 -9 -9h-35
c-6 0 -9 3 -9 9v512c0 7 3 9 11 10c59 8 113 11 170 11c59 0 114 -8 148 -27c50 16 119 27 178 27z" />
    <glyph glyph-name="n" unicode="n" horiz-adv-x="574" 
d="M291 542c148 0 208 -25 208 -220v-313c0 -6 -4 -9 -10 -9h-34c-6 0 -9 3 -9 9v313c0 157 -45 172 -148 172h-167v-485c0 -6 -3 -9 -9 -9h-35c-6 0 -9 3 -9 9v512c0 7 3 9 11 10c72 11 146 11 202 11z" />
    <glyph glyph-name="nacute" unicode="&#x144;" horiz-adv-x="574" 
d="M324 741h43c4 0 7 -3 7 -8v-7c0 -3 -1 -6 -3 -9l-108 -118c-3 -4 -6 -4 -10 -1l-12 9c-3 3 -4 6 -2 10l77 119c2 3 4 5 8 5zM291 542c148 0 208 -25 208 -220v-313c0 -6 -4 -9 -10 -9h-34c-6 0 -9 3 -9 9v313c0 157 -45 172 -148 172h-167v-485c0 -6 -3 -9 -9 -9h-35
c-6 0 -9 3 -9 9v512c0 7 3 9 11 10c72 11 146 11 202 11z" />
    <glyph glyph-name="napostrophe" unicode="&#x149;" horiz-adv-x="574" 
d="M85 741h40c4 0 7 -3 7 -8v-7c0 -3 -1 -6 -4 -9l-88 -118c-3 -4 -6 -4 -10 -1l-12 9c-4 3 -4 6 -2 10l61 119c1 3 4 5 8 5zM291 542c148 0 208 -25 208 -220v-313c0 -6 -4 -9 -10 -9h-34c-6 0 -9 3 -9 9v313c0 157 -45 172 -148 172h-167v-485c0 -6 -3 -9 -9 -9h-35
c-6 0 -9 3 -9 9v512c0 7 3 9 11 10c72 11 146 11 202 11z" />
    <glyph glyph-name="ncaron" unicode="&#x148;" horiz-adv-x="574" 
d="M391 739l12 -10c3 -2 4 -6 2 -10l-94 -118c-2 -3 -4 -5 -10 -5h-24c-6 0 -8 2 -10 5l-93 118c-3 4 -2 8 1 10l13 10c4 3 6 3 10 -1l91 -91l91 91c4 4 7 4 11 1zM291 542c148 0 208 -25 208 -220v-313c0 -6 -4 -9 -10 -9h-34c-6 0 -9 3 -9 9v313c0 157 -45 172 -148 172
h-167v-485c0 -6 -3 -9 -9 -9h-35c-6 0 -9 3 -9 9v512c0 7 3 9 11 10c72 11 146 11 202 11z" />
    <glyph glyph-name="ncommaaccent" unicode="&#x146;" horiz-adv-x="574" 
d="M291 542c148 0 208 -25 208 -220v-313c0 -6 -4 -9 -10 -9h-34c-6 0 -9 3 -9 9v313c0 157 -45 172 -148 172h-167v-485c0 -6 -3 -9 -9 -9h-35c-6 0 -9 3 -9 9v512c0 7 3 9 11 10c72 11 146 11 202 11zM261 -37h38c4 0 7 -2 7 -7v-7c0 -4 -1 -7 -4 -9l-102 -119
c-4 -3 -7 -3 -10 0l-13 9c-3 3 -4 6 -1 10l76 119c2 3 4 4 9 4z" />
    <glyph glyph-name="eng" unicode="&#x14b;" horiz-adv-x="574" 
d="M291 542c148 0 208 -25 208 -220v-436c0 -80 -56 -81 -84 -81c-10 0 -34 0 -49 3c-7 1 -9 4 -9 9v26c0 7 4 9 10 9h37c25 0 42 2 42 52v418c0 157 -45 172 -148 172h-167v-485c0 -6 -3 -9 -9 -9h-35c-6 0 -9 3 -9 9v512c0 7 3 9 11 10c72 11 146 11 202 11z" />
    <glyph glyph-name="ntilde" unicode="&#xf1;" horiz-adv-x="574" 
d="M225 717c41 0 94 -53 127 -53c27 0 37 9 50 46c4 8 5 9 11 7l17 -3c7 -2 9 -5 7 -13c-18 -68 -34 -85 -83 -85c-42 0 -95 53 -128 53c-26 0 -36 -10 -50 -48c-3 -8 -5 -9 -11 -7l-17 3c-6 3 -8 5 -6 13c18 70 35 87 83 87zM291 542c148 0 208 -25 208 -220v-313
c0 -6 -4 -9 -10 -9h-34c-6 0 -9 3 -9 9v313c0 157 -45 172 -148 172h-167v-485c0 -6 -3 -9 -9 -9h-35c-6 0 -9 3 -9 9v512c0 7 3 9 11 10c72 11 146 11 202 11z" />
    <glyph glyph-name="o" unicode="o" horiz-adv-x="552" 
d="M276 542c176 0 215 -56 215 -273c0 -218 -39 -274 -215 -274c-175 0 -215 56 -215 274c0 217 40 273 215 273zM276 494c-135 0 -161 -46 -161 -225c0 -180 26 -226 161 -226c136 0 162 46 162 226c0 179 -26 225 -162 225z" />
    <glyph glyph-name="oacute" unicode="&#xf3;" horiz-adv-x="552" 
d="M326 741h42c5 0 7 -3 7 -8v-7c0 -3 0 -6 -3 -9l-107 -118c-3 -4 -6 -4 -10 -1l-12 9c-3 3 -4 6 -2 10l76 119c2 3 5 5 9 5zM276 542c176 0 215 -56 215 -273c0 -218 -39 -274 -215 -274c-175 0 -215 56 -215 274c0 217 40 273 215 273zM276 494
c-135 0 -161 -46 -161 -225c0 -180 26 -226 161 -226c136 0 162 46 162 226c0 179 -26 225 -162 225z" />
    <glyph glyph-name="obreve" unicode="&#x14f;" horiz-adv-x="552" 
d="M380 728h22c7 0 9 -2 8 -10c-7 -86 -37 -112 -134 -112c-96 0 -127 26 -133 112c-1 8 1 10 8 10h22c6 0 8 -2 9 -8c8 -55 29 -72 94 -72c66 0 86 17 95 72c1 6 3 8 9 8zM276 542c176 0 215 -56 215 -273c0 -218 -39 -274 -215 -274c-175 0 -215 56 -215 274
c0 217 40 273 215 273zM276 494c-135 0 -161 -46 -161 -225c0 -180 26 -226 161 -226c136 0 162 46 162 226c0 179 -26 225 -162 225z" />
    <glyph glyph-name="ocaron" unicode="&#x1d2;" horiz-adv-x="552" 
d="M378 739l12 -10c3 -2 5 -6 2 -10l-93 -118c-3 -3 -5 -5 -11 -5h-23c-7 0 -8 2 -11 5l-93 118c-3 4 -1 8 2 10l12 10c4 3 7 3 10 -1l91 -91l92 91c3 4 6 4 10 1zM276 542c176 0 215 -56 215 -273c0 -218 -39 -274 -215 -274c-175 0 -215 56 -215 274c0 217 40 273 215 273
zM276 494c-135 0 -161 -46 -161 -225c0 -180 26 -226 161 -226c136 0 162 46 162 226c0 179 -26 225 -162 225z" />
    <glyph glyph-name="ocircumflex" unicode="&#xf4;" horiz-adv-x="552" 
d="M265 741h23c6 0 8 -2 11 -5l93 -119c3 -4 1 -7 -2 -10l-12 -9c-4 -3 -7 -3 -10 1l-92 91l-91 -91c-3 -4 -6 -4 -10 -1l-12 9c-3 3 -5 6 -2 10l93 119c3 3 4 5 11 5zM276 542c176 0 215 -56 215 -273c0 -218 -39 -274 -215 -274c-175 0 -215 56 -215 274
c0 217 40 273 215 273zM276 494c-135 0 -161 -46 -161 -225c0 -180 26 -226 161 -226c136 0 162 46 162 226c0 179 -26 225 -162 225z" />
    <glyph glyph-name="odieresis" unicode="&#xf6;" horiz-adv-x="552" 
d="M196 702c26 0 39 -13 39 -38c0 -26 -13 -40 -39 -40c-24 0 -39 14 -39 40c0 25 15 38 39 38zM357 702c25 0 39 -13 39 -38c0 -26 -14 -40 -39 -40s-40 14 -40 40c0 25 15 38 40 38zM276 542c176 0 215 -56 215 -273c0 -218 -39 -274 -215 -274c-175 0 -215 56 -215 274
c0 217 40 273 215 273zM276 494c-135 0 -161 -46 -161 -225c0 -180 26 -226 161 -226c136 0 162 46 162 226c0 179 -26 225 -162 225z" />
    <glyph glyph-name="ograve" unicode="&#xf2;" horiz-adv-x="552" 
d="M169 741h42c4 0 7 -2 9 -5l76 -119c2 -4 1 -7 -2 -10l-12 -9c-4 -3 -7 -3 -10 1l-107 118c-3 3 -3 6 -3 9v7c0 5 2 8 7 8zM276 542c176 0 215 -56 215 -273c0 -218 -39 -274 -215 -274c-175 0 -215 56 -215 274c0 217 40 273 215 273zM276 494c-135 0 -161 -46 -161 -225
c0 -180 26 -226 161 -226c136 0 162 46 162 226c0 179 -26 225 -162 225z" />
    <glyph glyph-name="ohungarumlaut" unicode="&#x151;" horiz-adv-x="552" 
d="M260 741h42c4 0 7 -3 7 -8v-7c0 -3 -1 -6 -3 -9l-107 -118c-3 -4 -6 -4 -10 -1l-12 9c-4 3 -5 6 -2 10l76 119c2 3 5 5 9 5zM417 741h42c4 0 7 -3 7 -8v-7c0 -3 -1 -6 -3 -9l-107 -118c-4 -4 -6 -4 -10 -1l-12 9c-4 3 -5 6 -2 10l76 119c2 3 4 5 9 5zM276 542
c176 0 215 -56 215 -273c0 -218 -39 -274 -215 -274c-175 0 -215 56 -215 274c0 217 40 273 215 273zM276 494c-135 0 -161 -46 -161 -225c0 -180 26 -226 161 -226c136 0 162 46 162 226c0 179 -26 225 -162 225z" />
    <glyph glyph-name="omacron" unicode="&#x14d;" horiz-adv-x="552" 
d="M156 676h241c6 0 9 -3 9 -9v-26c0 -6 -3 -9 -9 -9h-241c-7 0 -10 3 -10 9v26c0 6 3 9 10 9zM276 542c176 0 215 -56 215 -273c0 -218 -39 -274 -215 -274c-175 0 -215 56 -215 274c0 217 40 273 215 273zM276 494c-135 0 -161 -46 -161 -225c0 -180 26 -226 161 -226
c136 0 162 46 162 226c0 179 -26 225 -162 225z" />
    <glyph glyph-name="oslash" unicode="&#xf8;" horiz-adv-x="552" 
d="M276 542c66 0 111 -9 143 -31l19 26c4 5 8 7 13 3l23 -16c5 -3 6 -8 2 -13l-22 -31c28 -41 37 -108 37 -211c0 -218 -39 -274 -215 -274c-66 0 -113 8 -146 32l-21 -30c-4 -6 -8 -7 -13 -3l-23 16c-5 4 -6 8 -3 13l27 37c-27 41 -36 108 -36 209c0 217 40 273 215 273z
M276 494c-135 0 -161 -46 -161 -225c0 -73 4 -123 19 -157l254 355c-24 20 -60 27 -112 27zM418 430l-256 -359c24 -21 61 -28 114 -28c136 0 162 46 162 226c0 74 -5 126 -20 161z" />
    <glyph glyph-name="oslashacute" unicode="&#x1ff;" horiz-adv-x="552" 
d="M326 741h43c4 0 7 -3 7 -8v-7c0 -3 -1 -6 -3 -9l-108 -118c-3 -4 -6 -4 -10 -1l-12 9c-3 3 -4 6 -2 10l77 119c2 3 4 5 8 5zM491 269c0 -218 -39 -274 -215 -274c-66 0 -113 8 -146 32l-21 -30c-4 -6 -8 -7 -13 -3l-23 16c-5 4 -6 8 -3 13l27 37c-27 41 -36 108 -36 209
c0 217 40 273 215 273c66 0 111 -9 143 -31l19 26c4 5 8 7 13 3l23 -16c5 -3 6 -8 2 -13l-22 -31c28 -41 37 -108 37 -211zM276 494c-135 0 -161 -46 -161 -225c0 -73 4 -123 19 -157l254 355c-24 20 -60 27 -112 27zM418 430l-256 -359c24 -21 61 -28 114 -28
c136 0 162 46 162 226c0 74 -5 126 -20 161z" />
    <glyph glyph-name="otilde" unicode="&#xf5;" horiz-adv-x="552" 
d="M213 717c41 0 93 -53 127 -53c26 0 37 9 50 46c3 8 5 9 11 7l16 -3c7 -2 9 -5 7 -13c-17 -68 -34 -85 -83 -85c-41 0 -95 53 -128 53c-26 0 -36 -10 -50 -48c-3 -8 -5 -9 -11 -7l-17 3c-6 3 -8 5 -6 13c18 70 35 87 84 87zM276 542c176 0 215 -56 215 -273
c0 -218 -39 -274 -215 -274c-175 0 -215 56 -215 274c0 217 40 273 215 273zM276 494c-135 0 -161 -46 -161 -225c0 -180 26 -226 161 -226c136 0 162 46 162 226c0 179 -26 225 -162 225z" />
    <glyph glyph-name="oe" unicode="&#x153;" horiz-adv-x="900" 
d="M647 542c163 0 202 -51 205 -252v-29c0 -13 -3 -19 -23 -19h-338c2 -158 29 -199 156 -199h150c6 0 9 -4 9 -10v-23c0 -5 -2 -8 -8 -9c-42 -5 -113 -6 -151 -6c-104 0 -158 21 -184 86c-28 -65 -83 -86 -187 -86c-176 0 -215 56 -215 274c0 217 39 273 215 273
c103 0 159 -21 187 -85c26 65 79 85 184 85zM276 494c-136 0 -162 -46 -162 -225c0 -180 26 -226 162 -226c135 0 161 46 161 226c0 179 -26 225 -161 225zM647 494c-129 0 -155 -40 -156 -203h308c-2 167 -30 203 -152 203z" />
    <glyph glyph-name="p" unicode="p" horiz-adv-x="559" 
d="M290 542c178 0 207 -55 207 -278c0 -218 -29 -269 -224 -269c-47 0 -90 2 -142 5v-184c0 -6 -3 -10 -9 -10h-35c-6 0 -9 4 -9 10v703c0 8 3 13 12 15c97 7 141 8 200 8zM290 494h-159v-446c46 -4 96 -5 142 -5c153 0 171 41 171 221c0 185 -17 230 -154 230z" />
    <glyph glyph-name="thorn" unicode="&#xfe;" horiz-adv-x="559" 
d="M87 741h35c6 0 9 -4 9 -10v-194c46 3 92 5 143 5c194 0 224 -52 224 -270c0 -223 -29 -277 -208 -277c-47 0 -87 1 -159 10v-189c0 -6 -3 -10 -9 -10h-35c-6 0 -9 4 -9 10v915c0 6 3 10 9 10zM274 494h-143v-440c69 -9 115 -11 159 -11c137 0 155 45 155 230
c0 179 -18 221 -171 221z" />
    <glyph glyph-name="q" unicode="q" horiz-adv-x="559" 
d="M269 542c59 0 103 -1 200 -8c9 -2 12 -7 12 -15v-703c0 -6 -3 -10 -9 -10h-35c-6 0 -9 4 -9 10v184c-52 -4 -95 -5 -142 -5c-195 0 -224 51 -224 269c0 224 29 278 207 278zM428 494h-159c-137 0 -154 -44 -154 -230c0 -179 18 -221 171 -221c46 0 96 1 142 5v446z" />
    <glyph glyph-name="r" unicode="r" horiz-adv-x="330" 
d="M205 542c26 0 81 -3 100 -7c6 -2 8 -5 8 -10v-22c0 -6 -4 -10 -10 -9h-89c-38 0 -85 -5 -85 -58v-427c0 -6 -3 -9 -9 -9h-35c-6 0 -9 3 -9 9v435c0 97 97 98 129 98z" />
    <glyph glyph-name="racute" unicode="&#x155;" horiz-adv-x="330" 
d="M224 741h42c4 0 7 -3 7 -8v-7c0 -3 -1 -6 -3 -9l-107 -118c-4 -4 -6 -4 -10 -1l-12 9c-4 3 -5 6 -2 10l76 119c2 3 4 5 9 5zM205 542c26 0 81 -3 100 -7c6 -2 8 -5 8 -10v-22c0 -6 -4 -10 -10 -9h-89c-38 0 -85 -5 -85 -58v-427c0 -6 -3 -9 -9 -9h-35c-6 0 -9 3 -9 9v435
c0 97 97 98 129 98z" />
    <glyph glyph-name="rcaron" unicode="&#x159;" horiz-adv-x="330" 
d="M269 739l12 -10c3 -2 4 -6 2 -10l-94 -118c-2 -3 -4 -5 -10 -5h-24c-6 0 -8 2 -10 5l-93 118c-3 4 -2 8 2 10l12 10c4 3 6 3 10 -1l91 -91l92 91c3 4 6 4 10 1zM204 542c26 0 81 -3 100 -7c6 -2 8 -5 8 -10v-22c0 -6 -4 -10 -10 -9h-89c-38 0 -85 -5 -85 -58v-427
c0 -6 -3 -9 -9 -9h-35c-6 0 -9 3 -9 9v435c0 97 97 98 129 98z" />
    <glyph glyph-name="rcommaaccent" unicode="&#x157;" horiz-adv-x="330" 
d="M205 542c26 0 81 -3 100 -7c6 -2 8 -5 8 -10v-22c0 -6 -4 -10 -10 -9h-89c-38 0 -85 -5 -85 -58v-427c0 -6 -3 -9 -9 -9h-35c-6 0 -9 3 -9 9v435c0 97 97 98 129 98zM83 -37h38c5 0 7 -2 7 -7v-7c0 -4 0 -7 -3 -9l-103 -119c-3 -3 -6 -3 -10 0l-12 9c-3 3 -4 6 -2 10
l77 119c2 3 4 4 8 4z" />
    <glyph glyph-name="s" unicode="s" horiz-adv-x="464" 
d="M225 542c31 0 118 -1 162 -6c6 -1 8 -4 8 -9v-24c0 -6 -3 -9 -9 -9h-177c-41 0 -101 -10 -101 -68v-19c0 -41 11 -65 68 -89l152 -63c77 -32 89 -75 89 -126v-14c0 -97 -52 -120 -191 -120c-49 0 -143 3 -168 6c-7 1 -8 4 -8 9v23c0 6 3 10 9 10h168c104 0 137 15 137 72
v15c0 36 -13 61 -61 82l-157 64c-76 32 -91 76 -91 132v22c0 104 101 112 170 112z" />
    <glyph glyph-name="sacute" unicode="&#x15b;" horiz-adv-x="464" 
d="M269 741h42c4 0 7 -3 7 -8v-7c0 -3 -1 -6 -3 -9l-107 -118c-3 -4 -6 -4 -10 -1l-12 9c-4 3 -5 6 -2 10l76 119c2 3 5 5 9 5zM225 542c31 0 118 -1 162 -6c6 -1 8 -4 8 -9v-24c0 -6 -3 -9 -9 -9h-177c-41 0 -101 -10 -101 -68v-19c0 -41 11 -65 68 -89l152 -63
c77 -32 89 -75 89 -126v-14c0 -97 -52 -120 -191 -120c-49 0 -143 3 -168 6c-7 1 -8 4 -8 9v23c0 6 3 10 9 10h168c104 0 137 15 137 72v15c0 36 -13 61 -61 82l-157 64c-76 32 -91 76 -91 132v22c0 104 101 112 170 112z" />
    <glyph glyph-name="scaron" unicode="&#x161;" horiz-adv-x="464" 
d="M335 739l12 -10c3 -2 5 -6 2 -10l-93 -118c-3 -3 -5 -5 -11 -5h-23c-6 0 -8 2 -11 5l-93 118c-3 4 -1 8 2 10l12 10c4 3 7 3 10 -1l92 -91l91 91c3 4 6 4 10 1zM225 542c31 0 118 -1 162 -6c6 -1 8 -4 8 -9v-24c0 -6 -3 -9 -9 -9h-177c-41 0 -101 -10 -101 -68v-19
c0 -41 11 -65 68 -89l152 -63c77 -32 89 -75 89 -126v-14c0 -97 -52 -120 -191 -120c-49 0 -143 3 -168 6c-7 1 -8 4 -8 9v23c0 6 3 10 9 10h168c104 0 137 15 137 72v15c0 36 -13 61 -61 82l-157 64c-76 32 -91 76 -91 132v22c0 104 101 112 170 112z" />
    <glyph glyph-name="scedilla" unicode="&#x15f;" horiz-adv-x="464" 
d="M176 318l152 -63c77 -32 89 -75 89 -126v-14c0 -80 -35 -109 -125 -118c8 -29 13 -57 13 -80c0 -60 -26 -75 -85 -75c-13 0 -30 2 -50 5c-6 2 -8 6 -8 12v19c0 6 3 9 9 9h41c38 0 52 5 52 42c0 18 -5 41 -11 66h-27c-49 0 -143 3 -168 6c-7 1 -8 4 -8 9v23c0 6 3 10 9 10
h168c104 0 137 15 137 72v15c0 36 -13 61 -61 82l-157 64c-76 32 -91 76 -91 132v22c0 104 101 112 170 112c31 0 118 -1 162 -6c6 -1 8 -4 8 -9v-24c0 -6 -3 -9 -9 -9h-177c-41 0 -101 -10 -101 -68v-19c0 -41 11 -65 68 -89z" />
    <glyph glyph-name="scircumflex" unicode="&#x15d;" horiz-adv-x="464" 
d="M222 741h23c6 0 8 -2 11 -5l93 -119c3 -4 1 -7 -2 -10l-12 -9c-4 -3 -7 -3 -10 1l-91 91l-92 -91c-3 -4 -6 -4 -10 -1l-12 9c-3 3 -5 6 -2 10l93 119c3 3 5 5 11 5zM225 542c31 0 118 -1 162 -6c6 -1 8 -4 8 -9v-24c0 -6 -3 -9 -9 -9h-177c-41 0 -101 -10 -101 -68v-19
c0 -41 11 -65 68 -89l152 -63c77 -32 89 -75 89 -126v-14c0 -97 -52 -120 -191 -120c-49 0 -143 3 -168 6c-7 1 -8 4 -8 9v23c0 6 3 10 9 10h168c104 0 137 15 137 72v15c0 36 -13 61 -61 82l-157 64c-76 32 -91 76 -91 132v22c0 104 101 112 170 112z" />
    <glyph glyph-name="scommaaccent" unicode="&#x219;" horiz-adv-x="464" 
d="M225 542c31 0 118 -1 162 -6c6 -1 8 -4 8 -9v-24c0 -6 -3 -9 -9 -9h-177c-41 0 -101 -10 -101 -68v-19c0 -41 11 -65 68 -89l152 -63c77 -32 89 -75 89 -126v-14c0 -97 -52 -120 -191 -120c-49 0 -143 3 -168 6c-7 1 -8 4 -8 9v23c0 6 3 10 9 10h168c104 0 137 15 137 72
v15c0 36 -13 61 -61 82l-157 64c-76 32 -91 76 -91 132v22c0 104 101 112 170 112zM207 -37h38c4 0 7 -2 7 -7v-7c0 -4 -1 -7 -3 -9l-103 -119c-4 -3 -6 -3 -10 0l-12 9c-4 3 -5 6 -2 10l76 119c2 3 4 4 9 4z" />
    <glyph glyph-name="germandbls" unicode="&#xdf;" horiz-adv-x="577" 
d="M279 746c153 0 222 -42 222 -204c0 -91 -23 -150 -85 -165v-2c85 -16 105 -96 105 -178c0 -166 -91 -202 -240 -202c-20 0 -51 1 -96 3c-8 0 -11 4 -9 10l8 29c2 5 5 7 11 7h88c117 0 185 27 185 153c0 123 -58 154 -161 154h-87c-6 0 -9 3 -9 9v29c0 6 3 10 10 10h86
c87 0 141 19 141 140c0 129 -51 158 -169 158c-124 0 -148 -47 -148 -160v-528c0 -6 -3 -9 -9 -9h-34c-6 0 -10 3 -10 9v523c0 151 34 214 201 214z" />
    <glyph glyph-name="t" unicode="t" horiz-adv-x="307" 
d="M108 680l34 8c7 2 10 -1 10 -8v-145h116c6 0 10 -3 10 -9v-26c0 -6 -4 -9 -10 -9h-116v-391c0 -46 14 -57 65 -57h60c7 0 10 -3 10 -9v-25c0 -5 -2 -8 -8 -10c-19 -3 -52 -4 -60 -4c-71 0 -120 12 -120 97v399h-57c-6 0 -10 3 -10 9v26c0 6 4 9 10 9h57v135c0 6 3 8 9 10
z" />
    <glyph glyph-name="tbar" unicode="&#x167;" horiz-adv-x="308" 
d="M218 43h60c7 0 10 -3 10 -9v-25c0 -5 -2 -8 -8 -10c-19 -3 -52 -4 -60 -4c-71 0 -120 12 -120 97v183h-42c-6 0 -10 3 -10 9v25c0 6 4 10 10 10h42v172h-57c-6 0 -10 3 -10 9v26c0 6 4 9 10 9h57v135c0 6 3 8 9 10l34 8c7 2 10 -1 10 -8v-145h116c6 0 10 -3 10 -9v-26
c0 -6 -4 -9 -10 -9h-116v-172h93c6 0 9 -4 9 -10v-25c0 -6 -3 -9 -9 -9h-93v-175c0 -46 14 -57 65 -57z" />
    <glyph glyph-name="tcaron" unicode="&#x165;" horiz-adv-x="324" 
d="M301 741h39c5 0 7 -3 7 -8v-7c0 -3 0 -6 -3 -9l-89 -118c-2 -4 -6 -4 -10 -1l-12 9c-3 3 -4 6 -2 10l61 118c2 5 4 6 9 6zM108 680l34 8c7 2 10 -1 10 -8v-145h116c6 0 10 -3 10 -9v-26c0 -6 -4 -9 -10 -9h-116v-391c0 -46 14 -57 65 -57h60c7 0 10 -3 10 -9v-25
c0 -5 -2 -8 -8 -10c-19 -3 -52 -4 -60 -4c-71 0 -120 12 -120 97v399h-57c-6 0 -10 3 -10 9v26c0 6 4 9 10 9h57v135c0 6 3 8 9 10z" />
    <glyph glyph-name="tcedilla" unicode="&#x163;" horiz-adv-x="307" 
d="M217 43h60c7 0 10 -3 10 -9v-25c0 -5 -2 -8 -8 -10c-17 -3 -46 -4 -57 -4c6 -28 11 -56 11 -78c0 -60 -26 -75 -84 -75c-13 0 -31 2 -51 5c-5 2 -8 6 -8 12v19c0 6 3 9 10 9h40c38 0 52 5 52 42c0 19 -4 41 -10 68c-51 5 -83 26 -83 95v399h-57c-6 0 -10 3 -10 9v26
c0 6 4 9 10 9h57v135c0 6 3 8 9 10l34 8c7 2 10 -1 10 -8v-145h116c6 0 10 -3 10 -9v-26c0 -6 -4 -9 -10 -9h-116v-391c0 -46 14 -57 65 -57z" />
    <glyph glyph-name="uni021B" unicode="&#x21b;" horiz-adv-x="307" 
d="M108 680l34 8c7 2 10 -1 10 -8v-145h116c6 0 10 -3 10 -9v-26c0 -6 -4 -9 -10 -9h-116v-391c0 -46 14 -57 65 -57h60c7 0 10 -3 10 -9v-25c0 -5 -2 -8 -8 -10c-19 -3 -52 -4 -60 -4c-71 0 -120 12 -120 97v399h-57c-6 0 -10 3 -10 9v26c0 6 4 9 10 9h57v135c0 6 3 8 9 10
zM175 -37h38c4 0 7 -2 7 -7v-7c0 -4 -1 -7 -3 -9l-103 -119c-3 -3 -6 -3 -10 0l-12 9c-4 3 -5 6 -2 10l76 119c2 3 4 4 9 4z" />
    <glyph glyph-name="u" unicode="u" horiz-adv-x="573" 
d="M451 535h35c6 0 9 -3 9 -9v-511c0 -6 -3 -8 -11 -10c-71 -10 -146 -10 -202 -10c-148 0 -208 25 -208 219v312c0 6 4 9 10 9h34c6 0 9 -3 9 -9v-312c0 -156 45 -171 148 -171h167v483c0 6 3 9 9 9z" />
    <glyph glyph-name="uacute" unicode="&#xfa;" horiz-adv-x="573" 
d="M331 741h42c5 0 8 -3 8 -8v-7c0 -3 -1 -6 -4 -9l-107 -118c-3 -4 -6 -4 -10 -1l-12 9c-3 3 -4 6 -2 10l77 119c2 3 4 5 8 5zM451 535h35c6 0 9 -3 9 -9v-511c0 -6 -3 -8 -11 -10c-71 -10 -146 -10 -202 -10c-148 0 -208 25 -208 219v312c0 6 4 9 10 9h34c6 0 9 -3 9 -9
v-312c0 -156 45 -171 148 -171h167v483c0 6 3 9 9 9z" />
    <glyph glyph-name="ubreve" unicode="&#x16d;" horiz-adv-x="573" 
d="M389 728h21c7 0 9 -2 8 -10c-6 -86 -36 -112 -133 -112s-127 26 -133 112c-1 8 1 10 8 10h21c6 0 8 -2 10 -8c8 -55 29 -72 94 -72s86 17 94 72c2 6 4 8 10 8zM451 535h35c6 0 9 -3 9 -9v-511c0 -6 -3 -8 -11 -10c-71 -10 -146 -10 -202 -10c-148 0 -208 25 -208 219v312
c0 6 4 9 10 9h34c6 0 9 -3 9 -9v-312c0 -156 45 -171 148 -171h167v483c0 6 3 9 9 9z" />
    <glyph glyph-name="ucaron" unicode="&#x1d4;" horiz-adv-x="573" 
d="M386 739l13 -10c3 -2 4 -6 1 -10l-93 -118c-2 -3 -4 -5 -10 -5h-24c-6 0 -8 2 -10 5l-93 118c-3 4 -2 8 1 10l13 10c3 3 6 3 10 -1l91 -91l91 91c4 4 7 4 10 1zM451 535h35c6 0 9 -3 9 -9v-511c0 -6 -3 -8 -11 -10c-71 -10 -146 -10 -202 -10c-148 0 -208 25 -208 219
v312c0 6 4 9 10 9h34c6 0 9 -3 9 -9v-312c0 -156 45 -171 148 -171h167v483c0 6 3 9 9 9z" />
    <glyph glyph-name="ucircumflex" unicode="&#xfb;" horiz-adv-x="573" 
d="M273 741h24c6 0 8 -2 10 -5l93 -119c3 -4 2 -7 -1 -10l-13 -9c-3 -3 -6 -3 -10 1l-91 91l-91 -91c-4 -4 -7 -4 -10 -1l-13 9c-3 3 -4 6 -1 10l93 119c2 3 4 5 10 5zM451 535h35c6 0 9 -3 9 -9v-511c0 -6 -3 -8 -11 -10c-71 -10 -146 -10 -202 -10
c-148 0 -208 25 -208 219v312c0 6 4 9 10 9h34c6 0 9 -3 9 -9v-312c0 -156 45 -171 148 -171h167v483c0 6 3 9 9 9z" />
    <glyph glyph-name="udieresis" unicode="&#xfc;" horiz-adv-x="573" 
d="M205 702c26 0 39 -13 39 -38c0 -26 -13 -40 -39 -40c-25 0 -40 14 -40 40c0 25 15 38 40 38zM365 702c26 0 40 -13 40 -38c0 -26 -14 -40 -40 -40c-25 0 -39 14 -39 40c0 25 14 38 39 38zM451 535h35c6 0 9 -3 9 -9v-511c0 -6 -3 -8 -11 -10c-71 -10 -146 -10 -202 -10
c-148 0 -208 25 -208 219v312c0 6 4 9 10 9h34c6 0 9 -3 9 -9v-312c0 -156 45 -171 148 -171h167v483c0 6 3 9 9 9z" />
    <glyph glyph-name="udieresisacute" unicode="&#x1d8;" horiz-adv-x="573" 
d="M357 864h42c5 0 7 -2 7 -7v-7c0 -4 0 -7 -3 -9l-107 -119c-3 -3 -6 -3 -10 0l-12 9c-3 3 -4 6 -2 10l76 119c2 3 5 4 9 4zM205 702c26 0 39 -13 39 -38c0 -26 -13 -40 -39 -40c-25 0 -40 14 -40 40c0 25 15 38 40 38zM365 702c26 0 40 -13 40 -38c0 -26 -14 -40 -40 -40
c-25 0 -39 14 -39 40c0 25 14 38 39 38zM451 535h35c6 0 9 -3 9 -9v-511c0 -6 -3 -8 -11 -10c-71 -10 -146 -10 -202 -10c-148 0 -208 25 -208 219v312c0 6 4 9 10 9h34c6 0 9 -3 9 -9v-312c0 -156 45 -171 148 -171h167v483c0 6 3 9 9 9z" />
    <glyph glyph-name="udieresiscaron" unicode="&#x1da;" horiz-adv-x="573" 
d="M386 862l13 -9c3 -3 4 -6 1 -10l-93 -119c-2 -2 -4 -4 -10 -4h-24c-6 0 -8 2 -10 4l-93 119c-3 4 -2 7 1 10l13 9c3 3 6 3 10 0l91 -91l91 91c4 3 7 3 10 0zM205 702c26 0 39 -13 39 -38c0 -26 -13 -40 -39 -40c-25 0 -40 14 -40 40c0 25 15 38 40 38zM365 702
c26 0 40 -13 40 -38c0 -26 -14 -40 -40 -40c-25 0 -39 14 -39 40c0 25 14 38 39 38zM451 535h35c6 0 9 -3 9 -9v-511c0 -6 -3 -8 -11 -10c-71 -10 -146 -10 -202 -10c-148 0 -208 25 -208 219v312c0 6 4 9 10 9h34c6 0 9 -3 9 -9v-312c0 -156 45 -171 148 -171h167v483
c0 6 3 9 9 9z" />
    <glyph glyph-name="udieresisgrave" unicode="&#x1dc;" horiz-adv-x="573" 
d="M173 864h43c4 0 6 -1 8 -4l77 -119c2 -4 1 -7 -2 -10l-12 -9c-4 -3 -7 -3 -10 0l-107 119c-3 2 -4 5 -4 9v7c0 5 3 7 7 7zM205 702c26 0 39 -13 39 -38c0 -26 -13 -40 -39 -40c-25 0 -40 14 -40 40c0 25 15 38 40 38zM365 702c26 0 40 -13 40 -38c0 -26 -14 -40 -40 -40
c-25 0 -39 14 -39 40c0 25 14 38 39 38zM451 535h35c6 0 9 -3 9 -9v-511c0 -6 -3 -8 -11 -10c-71 -10 -146 -10 -202 -10c-148 0 -208 25 -208 219v312c0 6 4 9 10 9h34c6 0 9 -3 9 -9v-312c0 -156 45 -171 148 -171h167v483c0 6 3 9 9 9z" />
    <glyph glyph-name="udieresismacron" unicode="&#x1d6;" horiz-adv-x="573" 
d="M164 797h241c6 0 10 -3 10 -9v-26c0 -6 -4 -9 -10 -9h-241c-6 0 -9 3 -9 9v26c0 6 3 9 9 9zM205 702c26 0 39 -13 39 -38c0 -26 -13 -40 -39 -40c-25 0 -40 14 -40 40c0 25 15 38 40 38zM365 702c26 0 40 -13 40 -38c0 -26 -14 -40 -40 -40c-25 0 -39 14 -39 40
c0 25 14 38 39 38zM451 535h35c6 0 9 -3 9 -9v-511c0 -6 -3 -8 -11 -10c-71 -10 -146 -10 -202 -10c-148 0 -208 25 -208 219v312c0 6 4 9 10 9h34c6 0 9 -3 9 -9v-312c0 -156 45 -171 148 -171h167v483c0 6 3 9 9 9z" />
    <glyph glyph-name="ugrave" unicode="&#xf9;" horiz-adv-x="573" 
d="M182 741h42c4 0 7 -2 9 -5l76 -119c2 -4 1 -7 -2 -10l-12 -9c-4 -3 -7 -3 -10 1l-107 118c-3 3 -4 6 -4 9v7c0 5 3 8 8 8zM451 535h35c6 0 9 -3 9 -9v-511c0 -6 -3 -8 -11 -10c-71 -10 -146 -10 -202 -10c-148 0 -208 25 -208 219v312c0 6 4 9 10 9h34c6 0 9 -3 9 -9
v-312c0 -156 45 -171 148 -171h167v483c0 6 3 9 9 9z" />
    <glyph glyph-name="uhungarumlaut" unicode="&#x171;" horiz-adv-x="573" 
d="M257 741h42c4 0 7 -3 7 -8v-7c0 -3 -1 -6 -3 -9l-107 -118c-4 -4 -6 -4 -10 -1l-13 9c-3 3 -4 6 -1 10l76 119c2 3 4 5 9 5zM413 741h43c4 0 7 -3 7 -8v-7c0 -3 -1 -6 -3 -9l-108 -118c-3 -4 -6 -4 -10 -1l-12 9c-3 3 -4 6 -2 10l77 119c2 3 4 5 8 5zM451 535h35
c6 0 9 -3 9 -9v-511c0 -6 -3 -8 -11 -10c-71 -10 -146 -10 -202 -10c-148 0 -208 25 -208 219v312c0 6 4 9 10 9h34c6 0 9 -3 9 -9v-312c0 -156 45 -171 148 -171h167v483c0 6 3 9 9 9z" />
    <glyph glyph-name="umacron" unicode="&#x16b;" horiz-adv-x="573" 
d="M164 676h241c6 0 10 -3 10 -9v-26c0 -6 -4 -9 -10 -9h-241c-6 0 -9 3 -9 9v26c0 6 3 9 9 9zM451 535h35c6 0 9 -3 9 -9v-511c0 -6 -3 -8 -11 -10c-71 -10 -146 -10 -202 -10c-148 0 -208 25 -208 219v312c0 6 4 9 10 9h34c6 0 9 -3 9 -9v-312c0 -156 45 -171 148 -171
h167v483c0 6 3 9 9 9z" />
    <glyph glyph-name="uogonek" unicode="&#x173;" horiz-adv-x="573" 
d="M451 535h35c6 0 9 -3 9 -9v-511c0 -6 -3 -8 -11 -10c-25 -3 -50 -5 -76 -7c-6 -24 -11 -51 -11 -69c0 -37 14 -42 52 -42h40c7 0 10 -3 10 -9v-19c0 -6 -2 -10 -8 -12c-20 -3 -37 -5 -51 -5c-58 0 -84 15 -84 75c0 23 5 51 12 79c-31 -1 -61 -1 -86 -1
c-148 0 -208 25 -208 219v312c0 6 4 9 10 9h34c6 0 9 -3 9 -9v-312c0 -156 45 -171 148 -171h167v483c0 6 3 9 9 9z" />
    <glyph glyph-name="uring" unicode="&#x16f;" horiz-adv-x="573" 
d="M285 783c63 0 95 -32 95 -93c0 -60 -32 -92 -95 -92s-95 32 -95 92c0 61 32 93 95 93zM285 752c-41 0 -62 -21 -62 -62s21 -62 62 -62s62 21 62 62s-21 62 -62 62zM451 535h35c6 0 9 -3 9 -9v-511c0 -6 -3 -8 -11 -10c-71 -10 -146 -10 -202 -10c-148 0 -208 25 -208 219
v312c0 6 4 9 10 9h34c6 0 9 -3 9 -9v-312c0 -156 45 -171 148 -171h167v483c0 6 3 9 9 9z" />
    <glyph glyph-name="utilde" unicode="&#x169;" horiz-adv-x="573" 
d="M221 717c41 0 94 -53 127 -53c27 0 39 9 50 46c3 8 5 8 11 7l17 -3c7 -1 9 -5 7 -13c-18 -68 -35 -85 -84 -85c-41 0 -94 53 -127 53c-26 0 -37 -10 -50 -48c-3 -8 -5 -9 -11 -7l-17 3c-6 2 -8 5 -6 13c18 70 35 87 83 87zM451 535h35c6 0 9 -3 9 -9v-511
c0 -6 -3 -8 -11 -10c-71 -10 -146 -10 -202 -10c-148 0 -208 25 -208 219v312c0 6 4 9 10 9h34c6 0 9 -3 9 -9v-312c0 -156 45 -171 148 -171h167v483c0 6 3 9 9 9z" />
    <glyph glyph-name="v" unicode="v" horiz-adv-x="510" 
d="M428 535h38c7 0 9 -2 8 -10l-118 -416c-27 -99 -30 -114 -102 -114c-68 0 -71 15 -100 114l-119 416c-2 8 0 10 7 10h39c5 0 7 -1 9 -9l115 -404c18 -70 22 -77 49 -77c30 0 34 7 52 77l113 404c2 8 4 9 9 9z" />
    <glyph glyph-name="w" unicode="w" horiz-adv-x="796" 
d="M712 535h36c8 0 10 -2 8 -10l-91 -404c-26 -115 -35 -126 -94 -126c-62 0 -68 11 -96 126l-77 318l-77 -318c-28 -115 -34 -126 -96 -126c-59 0 -68 11 -94 126l-91 404c-2 8 0 10 8 10h37c5 0 6 -1 8 -9l89 -399c17 -72 24 -81 42 -81c23 0 27 5 45 81l92 369
c3 13 6 16 13 16h48c7 0 10 -3 13 -16l92 -369c18 -76 22 -81 45 -81c18 0 25 9 42 81l89 399c1 8 3 9 9 9z" />
    <glyph glyph-name="wacute" unicode="&#x1e83;" horiz-adv-x="796" 
d="M448 741h42c4 0 7 -3 7 -8v-7c0 -3 -1 -6 -3 -9l-107 -118c-4 -4 -6 -4 -10 -1l-12 9c-4 3 -5 6 -2 10l76 119c2 3 4 5 9 5zM712 535h36c8 0 10 -2 8 -10l-91 -404c-26 -115 -35 -126 -94 -126c-62 0 -68 11 -96 126l-77 318l-77 -318c-28 -115 -34 -126 -96 -126
c-59 0 -68 11 -94 126l-91 404c-2 8 0 10 8 10h37c5 0 6 -1 8 -9l89 -399c17 -72 24 -81 42 -81c23 0 27 5 45 81l92 369c3 13 6 16 13 16h48c7 0 10 -3 13 -16l92 -369c18 -76 22 -81 45 -81c18 0 25 9 42 81l89 399c1 8 3 9 9 9z" />
    <glyph glyph-name="wcircumflex" unicode="&#x175;" horiz-adv-x="796" 
d="M386 741h24c6 0 7 -2 10 -5l93 -119c3 -4 2 -7 -2 -10l-12 -9c-4 -3 -7 -3 -10 1l-91 91l-92 -91c-3 -4 -6 -4 -10 -1l-12 9c-3 3 -5 6 -2 10l93 119c3 3 5 5 11 5zM712 535h36c8 0 10 -2 8 -10l-91 -404c-26 -115 -35 -126 -94 -126c-62 0 -68 11 -96 126l-77 318
l-77 -318c-28 -115 -34 -126 -96 -126c-59 0 -68 11 -94 126l-91 404c-2 8 0 10 8 10h37c5 0 6 -1 8 -9l89 -399c17 -72 24 -81 42 -81c23 0 27 5 45 81l92 369c3 13 6 16 13 16h48c7 0 10 -3 13 -16l92 -369c18 -76 22 -81 45 -81c18 0 25 9 42 81l89 399c1 8 3 9 9 9z" />
    <glyph glyph-name="wdieresis" unicode="&#x1e85;" horiz-adv-x="796" 
d="M318 702c25 0 39 -13 39 -38c0 -26 -14 -40 -39 -40s-40 14 -40 40c0 25 15 38 40 38zM478 702c25 0 39 -13 39 -38c0 -26 -14 -40 -39 -40s-39 14 -39 40c0 25 14 38 39 38zM712 535h36c8 0 10 -2 8 -10l-91 -404c-26 -115 -35 -126 -94 -126c-62 0 -68 11 -96 126
l-77 318l-77 -318c-28 -115 -34 -126 -96 -126c-59 0 -68 11 -94 126l-91 404c-2 8 0 10 8 10h37c5 0 6 -1 8 -9l89 -399c17 -72 24 -81 42 -81c23 0 27 5 45 81l92 369c3 13 6 16 13 16h48c7 0 10 -3 13 -16l92 -369c18 -76 22 -81 45 -81c18 0 25 9 42 81l89 399
c1 8 3 9 9 9z" />
    <glyph glyph-name="wgrave" unicode="&#x1e81;" horiz-adv-x="796" 
d="M290 741h42c5 0 7 -2 9 -5l76 -119c3 -4 2 -7 -2 -10l-12 -9c-4 -3 -6 -3 -10 1l-107 118c-2 3 -3 6 -3 9v7c0 5 3 8 7 8zM712 535h36c8 0 10 -2 8 -10l-91 -404c-26 -115 -35 -126 -94 -126c-62 0 -68 11 -96 126l-77 318l-77 -318c-28 -115 -34 -126 -96 -126
c-59 0 -68 11 -94 126l-91 404c-2 8 0 10 8 10h37c5 0 6 -1 8 -9l89 -399c17 -72 24 -81 42 -81c23 0 27 5 45 81l92 369c3 13 6 16 13 16h48c7 0 10 -3 13 -16l92 -369c18 -76 22 -81 45 -81c18 0 25 9 42 81l89 399c1 8 3 9 9 9z" />
    <glyph glyph-name="x" unicode="x" horiz-adv-x="497" 
d="M403 535h45c7 0 9 -5 4 -11l-171 -239l196 -274c3 -6 1 -11 -6 -11h-44c-4 0 -8 2 -10 6l-168 236l-169 -236c-2 -4 -5 -6 -9 -6h-45c-7 0 -9 5 -5 11l196 274l-172 239c-4 6 -2 11 5 11h44c5 0 8 -1 11 -5l144 -202l144 202c2 4 5 5 10 5z" />
    <glyph glyph-name="y" unicode="y" horiz-adv-x="571" 
d="M449 535h34c6 0 10 -3 10 -9v-507c-1 -170 -38 -218 -215 -218c-51 0 -90 1 -136 5c-6 0 -9 4 -9 10v23c0 6 3 10 9 10h136c133 0 161 33 161 144v12c-69 -8 -111 -10 -158 -10c-179 0 -208 54 -208 277v254c0 6 4 9 10 9h34c6 0 10 -3 10 -9v-253
c0 -185 17 -230 154 -230c44 0 90 1 158 11v472c0 6 4 9 10 9z" />
    <glyph glyph-name="yacute" unicode="&#xfd;" horiz-adv-x="571" 
d="M341 741h43c4 0 7 -3 7 -8v-7c0 -3 -1 -6 -3 -9l-108 -118c-3 -4 -6 -4 -10 -1l-12 9c-3 3 -4 6 -2 10l77 119c2 3 4 5 8 5zM449 535h34c6 0 10 -3 10 -9v-507c-1 -170 -38 -218 -215 -218c-51 0 -90 1 -136 5c-6 0 -9 4 -9 10v23c0 6 3 10 9 10h136
c133 0 161 33 161 144v12c-69 -8 -111 -10 -158 -10c-179 0 -208 54 -208 277v254c0 6 4 9 10 9h34c6 0 10 -3 10 -9v-253c0 -185 17 -230 154 -230c44 0 90 1 158 11v472c0 6 4 9 10 9z" />
    <glyph glyph-name="ycircumflex" unicode="&#x177;" horiz-adv-x="571" 
d="M284 741h24c6 0 8 -2 10 -5l94 -119c2 -4 1 -7 -2 -10l-12 -9c-4 -3 -7 -3 -10 1l-92 91l-91 -91c-4 -4 -6 -4 -10 -1l-12 9c-4 3 -5 6 -2 10l93 119c2 3 4 5 10 5zM449 535h34c6 0 10 -3 10 -9v-507c-1 -170 -38 -218 -215 -218c-51 0 -90 1 -136 5c-6 0 -9 4 -9 10v23
c0 6 3 10 9 10h136c133 0 161 33 161 144v12c-69 -8 -111 -10 -158 -10c-179 0 -208 54 -208 277v254c0 6 4 9 10 9h34c6 0 10 -3 10 -9v-253c0 -185 17 -230 154 -230c44 0 90 1 158 11v472c0 6 4 9 10 9z" />
    <glyph glyph-name="ydieresis" unicode="&#xff;" horiz-adv-x="571" 
d="M216 702c26 0 39 -13 39 -38c0 -26 -13 -40 -39 -40c-25 0 -39 14 -39 40c0 25 14 38 39 38zM376 702c26 0 40 -13 40 -38c0 -26 -14 -40 -40 -40c-24 0 -39 14 -39 40c0 25 15 38 39 38zM449 535h34c6 0 10 -3 10 -9v-507c-1 -170 -38 -218 -215 -218
c-51 0 -90 1 -136 5c-6 0 -9 4 -9 10v23c0 6 3 10 9 10h136c133 0 161 33 161 144v12c-69 -8 -111 -10 -158 -10c-179 0 -208 54 -208 277v254c0 6 4 9 10 9h34c6 0 10 -3 10 -9v-253c0 -185 17 -230 154 -230c44 0 90 1 158 11v472c0 6 4 9 10 9z" />
    <glyph glyph-name="ygrave" unicode="&#x1ef3;" horiz-adv-x="571" 
d="M194 741h43c4 0 6 -2 8 -5l77 -119c2 -4 1 -7 -2 -10l-12 -9c-4 -3 -7 -3 -10 1l-107 118c-3 3 -4 6 -4 9v7c0 5 3 8 7 8zM449 535h34c6 0 10 -3 10 -9v-507c-1 -170 -38 -218 -215 -218c-51 0 -90 1 -136 5c-6 0 -9 4 -9 10v23c0 6 3 10 9 10h136c133 0 161 33 161 144
v12c-69 -8 -111 -10 -158 -10c-179 0 -208 54 -208 277v254c0 6 4 9 10 9h34c6 0 10 -3 10 -9v-253c0 -185 17 -230 154 -230c44 0 90 1 158 11v472c0 6 4 9 10 9z" />
    <glyph glyph-name="ytilde" unicode="&#x1ef9;" horiz-adv-x="571" 
d="M232 717c41 0 94 -53 127 -53c27 0 37 9 50 46c4 8 5 9 11 7l17 -3c7 -2 9 -5 7 -13c-18 -68 -34 -85 -83 -85c-42 0 -95 53 -128 53c-26 0 -36 -10 -50 -48c-3 -8 -5 -9 -11 -7l-17 3c-6 3 -8 5 -6 13c18 70 35 87 83 87zM449 535h34c6 0 10 -3 10 -9v-507
c-1 -170 -38 -218 -215 -218c-51 0 -90 1 -136 5c-6 0 -9 4 -9 10v23c0 6 3 10 9 10h136c133 0 161 33 161 144v12c-69 -8 -111 -10 -158 -10c-179 0 -208 54 -208 277v254c0 6 4 9 10 9h34c6 0 10 -3 10 -9v-253c0 -185 17 -230 154 -230c44 0 90 1 158 11v472
c0 6 4 9 10 9z" />
    <glyph glyph-name="z" unicode="z" horiz-adv-x="493" 
d="M57 535h383c7 0 10 -3 10 -9v-14c0 -5 -2 -9 -6 -14l-336 -450h339c6 0 10 -4 10 -10v-28c0 -6 -4 -10 -10 -10h-403c-7 0 -11 3 -11 9v17c0 5 2 9 7 14l334 448h-317c-7 0 -10 3 -10 9v29c0 6 3 9 10 9z" />
    <glyph glyph-name="zacute" unicode="&#x17a;" horiz-adv-x="493" 
d="M280 741h42c4 0 7 -3 7 -8v-7c0 -3 -1 -6 -3 -9l-107 -118c-3 -4 -6 -4 -10 -1l-12 9c-4 3 -5 6 -2 10l76 119c2 3 5 5 9 5zM57 535h383c7 0 10 -3 10 -9v-14c0 -5 -2 -9 -6 -14l-336 -450h339c6 0 10 -4 10 -10v-28c0 -6 -4 -10 -10 -10h-403c-7 0 -11 3 -11 9v17
c0 5 2 9 7 14l334 448h-317c-7 0 -10 3 -10 9v29c0 6 3 9 10 9z" />
    <glyph glyph-name="zcaron" unicode="&#x17e;" horiz-adv-x="493" 
d="M346 739l12 -10c3 -2 5 -6 2 -10l-93 -118c-3 -3 -5 -5 -11 -5h-23c-6 0 -8 2 -11 5l-93 118c-3 4 -1 8 2 10l12 10c4 3 7 3 10 -1l92 -91l91 91c3 4 6 4 10 1zM57 535h383c7 0 10 -3 10 -9v-14c0 -5 -2 -9 -6 -14l-336 -450h339c6 0 10 -4 10 -10v-28
c0 -6 -4 -10 -10 -10h-403c-7 0 -11 3 -11 9v17c0 5 2 9 7 14l334 448h-317c-7 0 -10 3 -10 9v29c0 6 3 9 10 9z" />
    <glyph glyph-name="zdotaccent" unicode="&#x17c;" horiz-adv-x="493" 
d="M245 702c25 0 38 -13 38 -38c0 -26 -13 -40 -38 -40s-40 14 -40 40c0 25 15 38 40 38zM57 535h383c7 0 10 -3 10 -9v-14c0 -5 -2 -9 -6 -14l-336 -450h339c6 0 10 -4 10 -10v-28c0 -6 -4 -10 -10 -10h-403c-7 0 -11 3 -11 9v17c0 5 2 9 7 14l334 448h-317
c-7 0 -10 3 -10 9v29c0 6 3 9 10 9z" />
    <glyph glyph-name="g.alt" horiz-adv-x="547" 
d="M476 556l21 -22c5 -4 5 -8 0 -13l-35 -36c20 -31 27 -76 27 -142c0 -159 -39 -199 -215 -199c-51 0 -91 3 -121 12l-10 -27c-18 -48 -13 -60 58 -67l195 -17c78 -8 88 -66 88 -117v-7c0 -95 -51 -120 -191 -120c-49 0 -189 4 -213 6c-8 1 -9 5 -9 9v24c0 6 3 9 9 9h214
c104 0 137 16 137 72v8c0 35 -9 65 -58 70l-204 19c-89 8 -99 53 -77 108l20 49c-41 28 -53 80 -53 168c0 158 40 199 215 199c70 0 118 -6 151 -24l38 38c5 4 9 4 13 0zM274 191c136 0 162 34 162 152c0 117 -26 151 -162 151c-135 0 -161 -34 -161 -151
c0 -118 26 -152 161 -152z" />
    <glyph glyph-name="gbreve.alt" horiz-adv-x="548" 
d="M279 606c-97 0 -127 26 -133 112c-1 8 1 10 8 10h21c6 0 9 -2 10 -8c8 -55 29 -72 94 -72c66 0 86 17 95 72c1 6 3 8 9 8h21c8 0 10 -2 9 -10c-7 -86 -37 -112 -134 -112zM476 556l21 -22c5 -4 5 -8 0 -13l-35 -36c20 -31 27 -76 27 -142c0 -159 -39 -199 -215 -199
c-54 0 -96 4 -127 14l-3 -7c-21 -48 -13 -60 57 -68l195 -22c78 -8 88 -74 88 -126v-14c0 -96 -51 -120 -191 -120c-49 0 -189 4 -213 6c-8 1 -9 5 -9 9v24c0 6 3 9 9 9h214c104 0 137 16 137 72v15c0 36 -9 75 -58 80l-203 23c-89 9 -103 55 -77 110l14 30
c-37 29 -48 80 -48 164c0 158 40 199 215 199c70 0 118 -6 151 -24l38 38c5 4 9 4 13 0zM274 191c136 0 162 34 162 152c0 117 -26 151 -162 151c-135 0 -161 -34 -161 -151c0 -118 26 -152 161 -152z" />
    <glyph glyph-name="gcircumflex.alt" horiz-adv-x="548" 
d="M178 598l-12 9c-4 3 -5 6 -2 10l93 119c2 3 4 5 10 5h24c6 0 8 -2 10 -5l94 -119c3 -4 1 -7 -2 -10l-12 -9c-4 -3 -7 -3 -10 1l-92 91l-91 -91c-3 -4 -6 -4 -10 -1zM476 556l21 -22c5 -4 5 -8 0 -13l-35 -36c20 -31 27 -76 27 -142c0 -159 -39 -199 -215 -199
c-54 0 -96 4 -127 14l-3 -7c-21 -48 -13 -60 57 -68l195 -22c78 -8 88 -74 88 -126v-14c0 -96 -51 -120 -191 -120c-49 0 -189 4 -213 6c-8 1 -9 5 -9 9v24c0 6 3 9 9 9h214c104 0 137 16 137 72v15c0 36 -9 75 -58 80l-203 23c-89 9 -103 55 -77 110l14 30
c-37 29 -48 80 -48 164c0 158 40 199 215 199c70 0 118 -6 151 -24l38 38c5 4 9 4 13 0zM274 191c136 0 162 34 162 152c0 117 -26 151 -162 151c-135 0 -161 -34 -161 -151c0 -118 26 -152 161 -152z" />
    <glyph glyph-name="gcommaaccent.alt" horiz-adv-x="548" 
d="M301 597h-38c-5 0 -8 2 -8 7v8c0 3 1 6 4 8l103 119c3 3 6 3 10 0l12 -9c3 -3 4 -6 2 -10l-77 -119c-2 -3 -4 -4 -8 -4zM476 556l21 -22c5 -4 5 -8 0 -13l-35 -36c20 -31 27 -76 27 -142c0 -159 -39 -199 -215 -199c-54 0 -96 4 -127 14l-3 -7c-21 -48 -13 -60 57 -68
l195 -22c78 -8 88 -74 88 -126v-14c0 -96 -51 -120 -191 -120c-49 0 -189 4 -213 6c-8 1 -9 5 -9 9v24c0 6 3 9 9 9h214c104 0 137 16 137 72v15c0 36 -9 75 -58 80l-203 23c-89 9 -103 55 -77 110l14 30c-37 29 -48 80 -48 164c0 158 40 199 215 199c70 0 118 -6 151 -24
l38 38c5 4 9 4 13 0zM274 191c136 0 162 34 162 152c0 117 -26 151 -162 151c-135 0 -161 -34 -161 -151c0 -118 26 -152 161 -152z" />
    <glyph glyph-name="gdotaccent.alt" horiz-adv-x="548" 
d="M277 624c-25 0 -39 14 -39 40c0 25 14 38 39 38c26 0 39 -13 39 -38c0 -26 -13 -40 -39 -40zM476 556l21 -22c5 -4 5 -8 0 -13l-36 -36c21 -31 28 -76 28 -142c0 -159 -40 -199 -215 -199c-55 0 -97 4 -128 14l-3 -7c-20 -48 -13 -60 58 -68l194 -22
c78 -8 89 -74 89 -126v-14c0 -96 -52 -120 -191 -120c-49 0 -189 4 -214 6c-7 1 -8 5 -8 9v24c0 6 3 9 9 9h214c104 0 137 16 137 72v15c0 36 -9 75 -58 80l-204 23c-88 9 -102 55 -76 110l14 30c-37 29 -48 80 -48 164c0 158 40 199 215 199c69 0 117 -6 150 -24l39 38
c4 4 9 4 13 0zM274 191c135 0 162 34 162 152c0 117 -27 151 -162 151s-162 -34 -162 -151c0 -118 27 -152 162 -152z" />
    <glyph glyph-name="ordfeminine" unicode="&#xaa;" horiz-adv-x="395" 
d="M185 746c84 0 133 -24 133 -98v-211c0 -6 -1 -11 -12 -13c-31 -8 -94 -10 -121 -10c-86 0 -118 21 -118 93v6c0 62 30 89 104 89h102v40c0 51 -41 64 -88 64h-83c-4 0 -5 1 -5 5v24c0 4 1 5 5 6c30 4 56 5 83 5zM273 563h-99c-50 0 -61 -16 -61 -51v-2
c0 -43 15 -57 72 -57c13 0 64 1 88 6v104zM90 348h206c6 0 9 -4 9 -10v-20c0 -6 -3 -9 -9 -9h-206c-6 0 -9 3 -9 9v20c0 6 3 10 9 10z" />
    <glyph glyph-name="ordmasculine" unicode="&#xba;" horiz-adv-x="411" 
d="M205 746c109 0 135 -34 135 -166s-26 -166 -135 -166c-108 0 -134 34 -134 166s26 166 134 166zM205 706c-72 0 -89 -26 -89 -126s17 -126 89 -126c73 0 90 26 90 126s-17 126 -90 126zM102 348h206c6 0 10 -4 10 -10v-20c0 -6 -4 -9 -10 -9h-206c-6 0 -9 3 -9 9v20
c0 6 3 10 9 10z" />
    <glyph glyph-name="uni0410" unicode="&#x410;" horiz-adv-x="643" 
d="M321 746c77 0 87 -15 114 -114l173 -622c2 -8 0 -10 -7 -10h-41c-5 0 -6 2 -8 9l-68 241h-325l-68 -241c-2 -7 -4 -9 -9 -9h-41c-7 0 -9 2 -8 10l177 622c28 99 39 114 111 114zM321 697c-35 0 -39 -11 -58 -78l-90 -319h297l-88 319c-19 67 -23 78 -61 78z" />
    <glyph glyph-name="uni0411" unicode="&#x411;" horiz-adv-x="660" 
d="M147 422h221c149 0 241 -38 241 -204v-21c0 -166 -92 -202 -241 -202c-40 0 -210 1 -267 4c-7 0 -10 2 -10 9v724c0 6 4 9 10 9h466c6 0 10 -3 10 -9v-31c0 -6 -4 -9 -10 -9h-420v-270zM554 197v20c0 129 -72 155 -183 155h-224v-328h223c117 0 184 27 184 153z" />
    <glyph glyph-name="uni0412" unicode="&#x412;" horiz-adv-x="668" 
d="M336 746c163 0 253 -42 253 -204c0 -91 -24 -150 -86 -165v-2c85 -16 106 -96 106 -178c0 -166 -92 -202 -241 -202c-40 0 -210 1 -267 4c-7 0 -10 2 -10 9v725c0 7 3 9 10 9c57 3 195 4 235 4zM333 697h-186v-298h208c126 0 179 15 179 140c0 129 -70 158 -201 158z
M394 351h-247v-307h223c117 0 184 27 184 153c0 123 -57 154 -160 154z" />
    <glyph glyph-name="uni0413" unicode="&#x413;" horiz-adv-x="533" 
d="M137 0h-36c-6 0 -10 3 -10 9v718c0 10 6 14 15 14h405c6 0 9 -3 9 -9v-31c0 -6 -3 -9 -9 -9h-364v-683c0 -6 -4 -9 -10 -9z" />
    <glyph glyph-name="uni0414" unicode="&#x414;" horiz-adv-x="672" 
d="M229 741h326c10 0 15 -4 15 -14v-678h38c9 0 15 -4 15 -14v-178c0 -6 -3 -9 -9 -9h-34c-6 0 -10 3 -10 9v143h-487v-143c0 -6 -3 -9 -9 -9h-34c-6 0 -10 3 -10 9v178c0 10 6 14 15 14h46c38 27 45 54 55 128l69 552c1 8 4 12 14 12zM515 692h-250l-66 -530
c-6 -51 -15 -88 -32 -113h348v643z" />
    <glyph glyph-name="uni0415" unicode="&#x415;" 
d="M106 741h438c6 0 9 -3 9 -9v-31c0 -6 -3 -9 -9 -9h-397v-312h360c6 0 9 -4 9 -10v-31c0 -6 -3 -9 -9 -9h-360v-281h397c6 0 9 -3 9 -9v-31c0 -6 -3 -9 -9 -9h-438c-10 0 -15 5 -15 14v712c0 10 5 15 15 15z" />
    <glyph glyph-name="uni0401" unicode="&#x401;" 
d="M229 902c26 0 39 -13 39 -38c0 -26 -13 -40 -39 -40c-25 0 -39 14 -39 40c0 25 14 38 39 38zM389 902c26 0 40 -13 40 -38c0 -26 -14 -40 -40 -40c-24 0 -39 14 -39 40c0 25 15 38 39 38zM106 741h438c6 0 9 -3 9 -9v-31c0 -6 -3 -9 -9 -9h-397v-312h360c6 0 9 -4 9 -10
v-31c0 -6 -3 -9 -9 -9h-360v-281h397c6 0 9 -3 9 -9v-31c0 -6 -3 -9 -9 -9h-438c-10 0 -15 5 -15 14v712c0 10 5 15 15 15z" />
    <glyph glyph-name="uni0416" unicode="&#x416;" horiz-adv-x="894" 
d="M531 399l347 -384c6 -7 5 -15 -9 -15h-41c-6 0 -11 2 -14 6l-339 378v-375c0 -6 -4 -9 -10 -9h-36c-6 0 -10 3 -10 9v375l-340 -378c-2 -4 -7 -6 -13 -6h-41c-14 0 -15 8 -9 15l347 384l-331 330c-6 6 -5 12 5 12h43c6 0 10 -2 13 -5l326 -320v316c0 6 4 9 10 9h36
c6 0 10 -3 10 -9v-316l326 320c3 3 7 5 13 5h43c10 0 11 -6 5 -12z" />
    <glyph glyph-name="uni0417" unicode="&#x417;" horiz-adv-x="586" 
d="M233 746c186 0 283 -27 283 -185v-27c0 -93 -47 -147 -114 -163c68 -17 114 -70 114 -163v-26c0 -158 -94 -187 -283 -187c-35 0 -126 1 -176 4c-6 1 -9 2 -9 5v34c0 4 3 6 9 6h180c147 0 223 22 223 139v22c0 112 -67 142 -181 142h-186c-6 0 -8 2 -8 7v33c0 5 2 8 8 8
h186c114 0 181 28 181 141v27c0 117 -81 134 -227 134h-176c-6 0 -9 2 -9 6v33c0 3 3 5 9 6c50 3 141 4 176 4z" />
    <glyph glyph-name="uni0418" unicode="&#x418;" horiz-adv-x="755" 
d="M101 741h36c6 0 10 -3 10 -9v-647l433 639c11 16 17 17 33 17h42c6 0 9 -3 9 -9v-723c0 -6 -3 -9 -9 -9h-37c-6 0 -9 3 -9 9v662l-447 -659c-9 -12 -15 -12 -22 -12h-39c-6 0 -10 3 -10 9v723c0 6 4 9 10 9z" />
    <glyph glyph-name="uni0419" unicode="&#x419;" horiz-adv-x="755" 
d="M482 928h22c7 0 9 -2 8 -10c-6 -86 -37 -112 -134 -112c-96 0 -127 26 -133 112c-1 8 1 10 8 10h22c6 0 8 -2 9 -8c9 -55 29 -72 94 -72c66 0 86 17 95 72c1 6 3 8 9 8zM101 741h36c6 0 10 -3 10 -9v-647l433 639c11 16 17 17 33 17h42c6 0 9 -3 9 -9v-723
c0 -6 -3 -9 -9 -9h-37c-6 0 -9 3 -9 9v662l-447 -659c-9 -12 -15 -12 -22 -12h-39c-6 0 -10 3 -10 9v723c0 6 4 9 10 9z" />
    <glyph glyph-name="uni041A" unicode="&#x41a;" horiz-adv-x="574" 
d="M494 741h43c10 0 11 -6 5 -12l-339 -330l355 -384c6 -7 5 -15 -10 -15h-40c-6 0 -11 2 -14 6l-347 378v-375c0 -6 -4 -9 -10 -9h-36c-6 0 -10 3 -10 9v723c0 6 4 9 10 9h36c6 0 10 -3 10 -9v-316l334 320c3 3 7 5 13 5z" />
    <glyph glyph-name="uni041B" unicode="&#x41b;" horiz-adv-x="679" 
d="M246 741h327c10 0 15 -4 15 -14v-718c0 -6 -3 -9 -9 -9h-37c-6 0 -9 3 -9 9v683h-250l-66 -530c-17 -138 -64 -167 -149 -167c-12 0 -19 0 -30 3c-6 1 -9 4 -9 9v28c0 6 3 9 9 9h13c86 0 101 40 112 133l69 552c1 8 5 12 14 12z" />
    <glyph glyph-name="uni041C" unicode="&#x41c;" horiz-adv-x="903" 
d="M728 741h36c9 0 14 -4 15 -14l60 -718c0 -6 -3 -9 -9 -9h-37c-6 0 -9 3 -9 9l-52 646l-245 -624c-3 -8 -9 -12 -18 -12h-35c-9 0 -15 4 -18 12l-244 624l-52 -646c0 -6 -3 -9 -9 -9h-37c-6 0 -10 3 -9 9l59 718c1 10 7 14 16 14h35c19 0 24 -11 35 -37l242 -624l242 624
c10 26 16 37 34 37z" />
    <glyph glyph-name="uni041D" unicode="&#x41d;" horiz-adv-x="761" 
d="M624 741h37c6 0 9 -3 9 -9v-723c0 -6 -3 -9 -9 -9h-37c-6 0 -9 3 -9 9v348h-469v-348c0 -6 -3 -9 -9 -9h-37c-6 0 -9 3 -9 9v723c0 6 3 9 9 9h37c6 0 9 -3 9 -9v-325h469v325c0 6 3 9 9 9z" />
    <glyph glyph-name="uni041E" unicode="&#x41e;" horiz-adv-x="709" 
d="M354 746c235 0 289 -87 289 -377s-54 -374 -289 -374s-288 84 -288 374s53 377 288 377zM354 697c-195 0 -233 -75 -233 -328s38 -325 233 -325s233 72 233 325s-38 328 -233 328z" />
    <glyph glyph-name="uni041F" unicode="&#x41f;" horiz-adv-x="685" 
d="M106 741h473c9 0 15 -4 15 -14v-718c0 -6 -4 -9 -10 -9h-36c-6 0 -10 3 -10 9v683h-392v-683c0 -6 -3 -9 -9 -9h-37c-6 0 -9 3 -9 9v718c0 10 5 14 15 14z" />
    <glyph glyph-name="uni0420" unicode="&#x420;" horiz-adv-x="621" 
d="M273 746c229 0 303 -21 303 -232c0 -214 -74 -230 -303 -230h-126v-275c0 -7 -3 -9 -10 -9h-36c-7 0 -10 2 -10 9v724c0 7 3 9 10 9c57 3 131 4 172 4zM270 697h-123v-363h123c194 0 251 8 251 179c0 170 -57 184 -251 184z" />
    <glyph glyph-name="uni0421" unicode="&#x421;" horiz-adv-x="575" 
d="M355 746c44 0 123 -1 173 -5c6 0 9 -4 9 -9v-26c0 -6 -3 -9 -9 -9h-173c-195 0 -234 -76 -234 -327c0 -250 39 -326 234 -326h173c6 0 9 -3 9 -9v-26c0 -5 -3 -9 -9 -9c-50 -4 -129 -5 -173 -5c-235 0 -289 88 -289 375c0 288 54 376 289 376z" />
    <glyph glyph-name="uni0422" unicode="&#x422;" horiz-adv-x="584" 
d="M23 741h538c6 0 10 -3 10 -9v-31c0 -6 -4 -9 -10 -9h-241v-683c0 -6 -3 -9 -9 -9h-37c-6 0 -9 3 -9 9v683h-242c-6 0 -10 3 -10 9v31c0 6 4 9 10 9z" />
    <glyph glyph-name="uni0423" unicode="&#x423;" horiz-adv-x="584" 
d="M528 741h40c7 0 9 -4 7 -11l-211 -537c-66 -169 -106 -198 -185 -198c-21 0 -45 1 -54 4c-6 1 -8 4 -8 10v26c0 6 3 9 9 9h46c48 0 76 22 115 108l-278 578c-4 7 0 11 7 11h41c5 0 9 -2 11 -7l247 -515l201 515c3 5 6 7 12 7z" />
    <glyph glyph-name="uni0424" unicode="&#x424;" horiz-adv-x="847" 
d="M406 745h37c6 0 9 -3 9 -9v-85c269 -3 347 -51 347 -279c0 -227 -78 -275 -347 -278v-85c0 -6 -3 -9 -9 -9h-37c-6 0 -9 3 -9 9v85c-267 4 -349 51 -349 278c0 228 82 275 349 279v85c0 6 3 9 9 9zM397 143v459c-230 -4 -294 -42 -294 -230c0 -187 64 -226 294 -229z
M452 602v-459c230 3 292 42 292 229c0 188 -62 227 -292 230z" />
    <glyph glyph-name="uni0425" unicode="&#x425;" horiz-adv-x="601" 
d="M512 741h42c9 0 11 -5 6 -13l-227 -340l253 -379c6 -9 2 -13 -6 -13h-43c-8 0 -11 3 -15 9l-222 334l-221 -332c-3 -6 -6 -9 -15 -9h-42c-8 0 -12 5 -6 13l251 377l-227 340c-5 8 -3 13 6 13h42c9 0 12 -3 15 -9l197 -294l197 294c3 6 6 9 15 9z" />
    <glyph glyph-name="uni0427" unicode="&#x427;" horiz-adv-x="612" 
d="M475 741h37c6 0 9 -3 9 -9v-723c0 -6 -3 -9 -9 -9h-37c-6 0 -9 3 -9 9v275h-104c-230 0 -304 16 -304 230v218c0 6 3 9 9 9h37c6 0 9 -3 9 -9v-219c0 -171 57 -179 252 -179h101v398c0 6 3 9 9 9z" />
    <glyph glyph-name="uni0426" unicode="&#x426;" horiz-adv-x="719" 
d="M610 49h69c9 0 15 -4 15 -14v-178c0 -6 -4 -9 -10 -9h-33c-6 0 -9 3 -9 9v143h-536c-10 0 -15 4 -15 14v718c0 6 3 9 9 9h37c6 0 9 -3 9 -9v-683h409v683c0 6 3 9 9 9h37c6 0 9 -3 9 -9v-683z" />
    <glyph glyph-name="uni0428" unicode="&#x428;" horiz-adv-x="958" 
d="M821 741h37c6 0 9 -3 9 -9v-718c0 -10 -6 -14 -15 -14h-746c-10 0 -15 4 -15 14v718c0 6 3 9 9 9h37c6 0 9 -3 9 -9v-683h305v683c0 6 4 9 10 9h36c6 0 10 -3 10 -9v-683h305v683c0 6 3 9 9 9z" />
    <glyph glyph-name="uni0429" unicode="&#x429;" horiz-adv-x="976" 
d="M867 49h69c9 0 15 -4 15 -14v-178c0 -6 -3 -9 -9 -9h-34c-6 0 -9 3 -9 9v143h-793c-10 0 -15 4 -15 14v718c0 6 3 9 9 9h37c6 0 9 -3 9 -9v-683h305v683c0 6 4 9 10 9h36c6 0 10 -3 10 -9v-683h305v683c0 6 3 9 9 9h37c6 0 9 -3 9 -9v-683z" />
    <glyph glyph-name="uni042F" unicode="&#x42f;" horiz-adv-x="632" 
d="M360 746c40 0 115 -1 172 -4c7 0 9 -2 9 -9v-724c0 -7 -2 -9 -9 -9h-37c-7 0 -9 2 -9 9v275h-197l-172 -271c-6 -9 -9 -13 -22 -13h-34c-9 0 -12 6 -7 12l174 277c-127 13 -172 59 -172 225c0 211 75 232 304 232zM486 697h-123c-194 0 -252 -14 -252 -184
c0 -171 58 -179 252 -179h123v363z" />
    <glyph glyph-name="uni042C" unicode="&#x42c;" horiz-adv-x="650" 
d="M147 422h221c149 0 241 -38 241 -204v-21c0 -166 -92 -202 -241 -202c-40 0 -210 1 -267 4c-7 0 -10 2 -10 9v724c0 6 4 9 10 9h36c6 0 10 -3 10 -9v-310zM554 197v20c0 129 -72 155 -183 155h-224v-328h223c117 0 184 27 184 153z" />
    <glyph glyph-name="uni042A" unicode="&#x42a;" horiz-adv-x="691" 
d="M188 422h221c149 0 241 -38 241 -204v-21c0 -166 -92 -202 -241 -202c-40 0 -210 1 -267 4c-7 0 -9 2 -9 9v684h-106c-6 0 -9 3 -9 9v31c0 6 3 9 9 9h152c6 0 9 -3 9 -9v-310zM595 197v20c0 129 -72 155 -183 155h-224v-328h224c117 0 183 27 183 153z" />
    <glyph glyph-name="uni042B" unicode="&#x42b;" horiz-adv-x="849" 
d="M146 422h222c148 0 241 -38 241 -204v-21c0 -166 -93 -202 -241 -202c-41 0 -210 1 -268 4c-7 0 -9 2 -9 9v724c0 6 3 9 9 9h37c6 0 9 -3 9 -9v-310zM712 741h37c6 0 9 -3 9 -9v-723c0 -6 -3 -9 -9 -9h-37c-6 0 -9 3 -9 9v723c0 6 3 9 9 9zM553 197v20
c0 129 -72 155 -182 155h-225v-328h224c117 0 183 27 183 153z" />
    <glyph glyph-name="uni042D" unicode="&#x42d;" horiz-adv-x="597" 
d="M242 746c235 0 289 -88 289 -376c0 -287 -54 -375 -289 -375c-44 0 -146 1 -196 5c-6 0 -9 4 -9 9v26c0 6 3 9 9 9h196c189 0 231 71 234 302h-326c-6 0 -9 3 -9 9v31c0 6 3 10 9 10h326c-3 230 -46 301 -234 301h-196c-6 0 -9 3 -9 9v26c0 5 3 9 9 9c50 4 152 5 196 5z
" />
    <glyph glyph-name="uni042E" unicode="&#x42e;" horiz-adv-x="968" 
d="M613 746c235 0 289 -87 289 -377s-54 -374 -289 -374c-231 0 -286 81 -288 362h-179v-348c0 -6 -3 -9 -9 -9h-37c-6 0 -9 3 -9 9v723c0 6 3 9 9 9h37c6 0 9 -3 9 -9v-325h179c3 260 63 339 288 339zM613 697c-195 0 -233 -75 -233 -328s38 -325 233 -325s233 72 233 325
s-38 328 -233 328z" />
    <glyph glyph-name="uni0430" unicode="&#x430;" horiz-adv-x="514" 
d="M225 542c121 0 215 -33 215 -157v-351c0 -8 -1 -18 -18 -23c-36 -11 -139 -16 -201 -16c-135 0 -180 39 -180 153v7c0 97 48 138 161 138h185v86c0 91 -69 115 -162 115h-124c-7 0 -10 2 -10 9v22c0 7 2 8 9 10c49 6 90 7 125 7zM387 246h-184c-90 0 -109 -28 -109 -96
v-3c0 -82 33 -104 131 -104c28 0 117 2 162 11v192z" />
    <glyph glyph-name="uni0431" unicode="&#x431;" horiz-adv-x="562" 
d="M454 746h24c6 0 8 -6 8 -15c-4 -45 -38 -60 -96 -72c-150 -28 -239 -37 -259 -184c31 49 78 67 155 67c176 0 215 -56 215 -273c0 -218 -39 -274 -215 -274c-175 0 -215 56 -215 274v87c0 284 84 308 310 350c31 6 50 15 59 32c5 5 3 8 14 8zM286 494
c-135 0 -161 -46 -161 -225c0 -180 26 -226 161 -226c136 0 162 46 162 226c0 179 -26 225 -162 225z" />
    <glyph glyph-name="uni0432" unicode="&#x432;" horiz-adv-x="541" 
d="M272 542c129 0 197 -35 197 -151c0 -68 -19 -108 -69 -119v-2c67 -10 85 -64 85 -128c0 -118 -70 -147 -190 -147c-36 0 -160 1 -208 4c-7 0 -9 4 -9 9v521c0 5 3 8 9 9c48 2 148 4 185 4zM268 492h-135v-200h146c95 0 135 11 135 94c0 85 -50 106 -146 106zM311 248
h-178v-204h163c85 0 133 20 133 102s-42 102 -118 102z" />
    <glyph glyph-name="uni0433" unicode="&#x433;" horiz-adv-x="435" 
d="M89 535h316c5 0 8 -2 8 -7v-34c0 -5 -3 -8 -8 -8h-272v-478c0 -5 -3 -8 -8 -8h-39c-5 0 -8 3 -8 8v517c0 7 4 10 11 10z" />
    <glyph glyph-name="uni0434" unicode="&#x434;" horiz-adv-x="546" 
d="M183 535h261c7 0 12 -3 12 -10v-476h30c8 0 12 -3 12 -10v-140c0 -5 -3 -7 -8 -7h-36c-5 0 -8 2 -8 7v101h-362v-101c0 -5 -3 -7 -8 -7h-36c-5 0 -8 2 -8 7v140c0 7 4 10 11 10h35c30 18 37 42 44 95l51 382c1 6 3 9 10 9zM400 486h-177l-47 -358c-5 -35 -12 -61 -25 -79
h249v437z" />
    <glyph glyph-name="uni0435" unicode="&#x435;" horiz-adv-x="525" 
d="M272 542c163 0 202 -51 204 -252v-29c0 -13 -2 -19 -22 -19h-339c3 -158 29 -199 157 -199h150c6 0 9 -4 9 -10v-23c0 -5 -2 -8 -8 -9c-42 -5 -114 -6 -151 -6c-176 0 -210 56 -210 274c0 219 34 273 210 273zM272 494c-130 0 -155 -40 -157 -203h308
c-2 167 -29 203 -151 203z" />
    <glyph glyph-name="uni0451" unicode="&#x451;" horiz-adv-x="525" 
d="M189 702c26 0 39 -13 39 -38c0 -26 -13 -40 -39 -40c-24 0 -39 14 -39 40c0 25 15 38 39 38zM350 702c25 0 39 -13 39 -38c0 -26 -14 -40 -39 -40s-40 14 -40 40c0 25 15 38 40 38zM272 542c163 0 202 -51 204 -252v-29c0 -13 -2 -19 -22 -19h-339
c3 -158 29 -199 157 -199h150c6 0 9 -4 9 -10v-23c0 -5 -2 -8 -8 -9c-42 -5 -114 -6 -151 -6c-176 0 -210 56 -210 274c0 219 34 273 210 273zM272 494c-130 0 -155 -40 -157 -203h308c-2 167 -29 203 -151 203z" />
    <glyph glyph-name="uni0436" unicode="&#x436;" horiz-adv-x="739" 
d="M454 289l264 -278c5 -5 3 -11 -5 -11h-47c-5 0 -9 1 -12 5l-257 269v-265c0 -6 -3 -9 -9 -9h-37c-6 0 -9 3 -9 9v265l-257 -269c-3 -4 -6 -5 -12 -5h-47c-8 0 -10 6 -5 11l264 278l-250 237c-5 5 -2 9 6 9h44c5 0 8 -1 11 -4l246 -229v224c0 6 3 9 9 9h37c6 0 9 -3 9 -9
v-224l246 229c4 4 7 4 14 4h41c8 0 12 -4 6 -9z" />
    <glyph glyph-name="uni0437" unicode="&#x437;" horiz-adv-x="480" 
d="M197 541c145 0 220 -20 220 -134v-24c0 -62 -32 -103 -85 -115c54 -13 85 -53 85 -114v-23c0 -114 -73 -136 -220 -136c-33 0 -102 3 -141 6c-5 0 -8 2 -8 8v28c0 6 3 7 9 7h141c111 0 163 16 163 92v15c0 74 -45 94 -131 94h-143c-5 0 -9 2 -9 8v29c0 7 4 9 9 9h142
c87 0 132 20 132 94v18c0 77 -56 89 -166 89h-139c-5 0 -8 1 -8 7v27c0 7 3 10 9 10c39 3 107 5 140 5z" />
    <glyph glyph-name="uni0438" unicode="&#x438;" horiz-adv-x="604" 
d="M482 535h36c6 0 8 -2 8 -7v-520c0 -5 -2 -8 -8 -8h-39c-5 0 -8 2 -8 8v445l-331 -442c-7 -10 -12 -11 -20 -11h-34c-5 0 -8 3 -8 8v520c0 5 3 7 8 7h39c5 0 8 -2 8 -7v-435l320 428c8 12 12 14 29 14z" />
    <glyph glyph-name="uni0439" unicode="&#x439;" horiz-adv-x="604" 
d="M410 728h22c7 0 9 -2 8 -10c-7 -86 -37 -112 -134 -112c-96 0 -127 26 -133 112c-1 8 1 10 8 10h22c6 0 8 -2 9 -8c8 -55 29 -72 94 -72c66 0 86 17 95 72c1 6 3 8 9 8zM482 535h36c6 0 8 -2 8 -7v-520c0 -5 -2 -8 -8 -8h-39c-5 0 -8 2 -8 8v445l-331 -442
c-7 -10 -12 -11 -20 -11h-34c-5 0 -8 3 -8 8v520c0 5 3 7 8 7h39c5 0 8 -2 8 -7v-435l320 428c8 12 12 14 29 14z" />
    <glyph glyph-name="uni043A" unicode="&#x43a;" horiz-adv-x="471" 
d="M391 535h43c8 0 12 -4 6 -9l-250 -237l264 -278c6 -5 3 -11 -5 -11h-47c-5 0 -9 1 -12 5l-257 270v-266c0 -6 -2 -9 -9 -9h-37c-6 0 -9 3 -9 9v517c0 6 3 9 9 9h37c6 0 9 -3 9 -9v-224l246 229c3 3 6 4 12 4z" />
    <glyph glyph-name="uni043B" unicode="&#x43b;" horiz-adv-x="566" 
d="M217 535h258c8 0 13 -4 13 -12v-515c0 -5 -2 -8 -8 -8h-39c-5 0 -8 3 -8 8v478h-178l-49 -340c-16 -113 -50 -151 -138 -151c-11 0 -18 1 -27 3c-6 2 -9 4 -9 10v30c0 4 3 7 8 7h12c77 0 88 34 100 114l53 366c1 7 4 10 12 10z" />
    <glyph glyph-name="uni043C" unicode="&#x43c;" horiz-adv-x="726" 
d="M573 535h36c6 0 10 -3 11 -10l48 -517c0 -6 -3 -8 -8 -8h-40c-5 0 -7 2 -8 8l-38 434l-180 -419c-2 -6 -7 -8 -14 -8h-35c-7 0 -12 2 -14 8l-179 420l-39 -435c-1 -6 -3 -8 -8 -8h-39c-6 0 -9 3 -8 8l47 517c1 7 5 10 12 10h36c15 0 21 -8 29 -27l180 -426l181 426
c9 20 14 27 30 27z" />
    <glyph glyph-name="uni043D" unicode="&#x43d;" horiz-adv-x="608" 
d="M484 535h37c6 0 9 -3 9 -9v-517c0 -6 -3 -9 -9 -9h-37c-6 0 -9 3 -9 9v240h-342v-240c0 -6 -3 -9 -9 -9h-37c-6 0 -9 3 -9 9v517c0 6 3 9 9 9h37c6 0 9 -3 9 -9v-227h342v227c0 6 3 9 9 9z" />
    <glyph glyph-name="uni043E" unicode="&#x43e;" horiz-adv-x="552" 
d="M276 542c175 0 215 -56 215 -273c0 -218 -40 -274 -215 -274s-215 56 -215 274c0 217 40 273 215 273zM276 494c-135 0 -162 -46 -162 -225c0 -180 27 -226 162 -226s162 46 162 226c0 179 -27 225 -162 225z" />
    <glyph glyph-name="uni043F" unicode="&#x43f;" horiz-adv-x="549" 
d="M87 535h375c6 0 9 -3 9 -9v-517c0 -6 -3 -9 -9 -9h-37c-6 0 -9 3 -9 9v477h-283v-477c0 -6 -3 -9 -9 -9h-37c-6 0 -9 3 -9 9v517c0 6 3 9 9 9z" />
    <glyph glyph-name="uni0440" unicode="&#x440;" horiz-adv-x="559" 
d="M290 542c178 0 207 -55 207 -278c0 -218 -29 -269 -224 -269c-47 0 -90 2 -142 5v-184c0 -6 -3 -10 -9 -10h-35c-6 0 -9 4 -9 10v703c0 8 3 13 12 15c97 7 141 8 200 8zM290 494h-159v-446c46 -4 96 -5 142 -5c153 0 171 41 171 221c0 185 -17 230 -154 230z" />
    <glyph glyph-name="uni0441" unicode="&#x441;" horiz-adv-x="466" 
d="M276 542c30 0 103 -1 145 -6c6 -1 8 -4 8 -9v-24c0 -6 -3 -9 -9 -9h-144c-135 0 -162 -46 -162 -225c0 -180 27 -226 162 -226h144c6 0 9 -4 9 -10v-23c0 -5 -2 -8 -8 -9c-42 -5 -115 -6 -145 -6c-175 0 -215 56 -215 274c0 217 40 273 215 273z" />
    <glyph glyph-name="uni0442" unicode="&#x442;" horiz-adv-x="478" 
d="M31 535h416c6 0 9 -3 9 -9v-31c0 -6 -3 -9 -9 -9h-180v-477c0 -6 -3 -9 -9 -9h-37c-6 0 -9 3 -9 9v477h-181c-6 0 -9 3 -9 9v31c0 6 3 9 9 9z" />
    <glyph glyph-name="uni0443" unicode="&#x443;" horiz-adv-x="570" 
d="M448 535h35c6 0 9 -3 9 -9v-507c0 -170 -37 -218 -214 -218c-51 0 -90 1 -137 5c-6 0 -9 4 -9 10v23c0 6 3 10 9 10h137c133 0 161 33 161 144v12c-70 -8 -112 -10 -158 -10c-179 0 -208 54 -208 277v254c0 6 3 9 9 9h35c6 0 9 -3 9 -9v-253c0 -185 17 -230 155 -230
c43 0 89 1 158 11v472c0 6 3 9 9 9z" />
    <glyph glyph-name="uni0444" unicode="&#x444;" horiz-adv-x="742" 
d="M505 542c138 0 176 -63 176 -273c0 -211 -38 -273 -176 -273c-27 0 -84 6 -107 24v-204c0 -6 -3 -10 -9 -10h-35c-6 0 -9 4 -9 10v204c-23 -18 -80 -24 -107 -24c-138 0 -176 62 -176 273c0 210 38 273 176 273c27 0 84 -7 107 -24v214c0 6 3 9 9 9h35c6 0 9 -3 9 -9
v-214c23 17 80 24 107 24zM345 65v407c-20 16 -74 22 -101 22c-111 0 -129 -51 -129 -225c0 -175 18 -226 129 -226c27 0 81 6 101 22zM499 43c111 0 129 51 129 226c0 174 -18 225 -129 225c-27 0 -81 -6 -100 -22v-407c19 -16 73 -22 100 -22z" />
    <glyph glyph-name="uni0445" unicode="&#x445;" horiz-adv-x="495" 
d="M402 535h44c7 0 9 -5 4 -11l-171 -239l196 -274c3 -6 1 -11 -6 -11h-43c-4 0 -8 2 -10 6l-168 235l-169 -235c-2 -4 -5 -6 -9 -6h-44c-7 0 -9 5 -5 11l196 274l-172 239c-4 6 -2 11 5 11h43c5 0 8 -1 11 -5l144 -201l144 201c2 4 5 5 10 5z" />
    <glyph glyph-name="uni0447" unicode="&#x447;" horiz-adv-x="502" 
d="M378 535h37c6 0 9 -3 9 -9v-517c0 -6 -3 -9 -9 -9h-37c-6 0 -9 3 -9 9v190h-47c-230 0 -271 16 -271 229v98c0 6 3 9 9 9h37c6 0 9 -3 9 -9v-98c0 -171 24 -180 219 -180h44v278c0 6 3 9 9 9z" />
    <glyph glyph-name="uni0446" unicode="&#x446;" horiz-adv-x="579" 
d="M483 49h54c6 0 10 -3 10 -9v-139c0 -6 -4 -9 -10 -9h-33c-6 0 -9 3 -9 9v99h-408c-6 0 -9 3 -9 9v517c0 6 3 9 9 9h37c6 0 9 -3 9 -9v-477h294v477c0 6 4 9 10 9h36c6 0 10 -3 10 -9v-477z" />
    <glyph glyph-name="uni0448" unicode="&#x448;" horiz-adv-x="760" 
d="M636 535h37c6 0 9 -3 9 -9v-517c0 -6 -3 -9 -9 -9h-586c-6 0 -9 3 -9 9v517c0 6 3 9 9 9h37c6 0 9 -3 9 -9v-477h220v477c0 6 3 9 9 9h37c6 0 9 -3 9 -9v-477h219v477c0 6 3 9 9 9z" />
    <glyph glyph-name="uni0449" unicode="&#x449;" horiz-adv-x="779" 
d="M683 49h54c6 0 10 -3 10 -9v-139c0 -6 -4 -9 -10 -9h-34c-5 0 -9 3 -9 9v99h-607c-5 0 -9 4 -9 9v517c0 6 4 9 9 9h37c6 0 9 -3 9 -9v-477h220v477c0 6 4 9 9 9h37c5 0 9 -3 9 -9v-477h220v477c0 6 3 9 9 9h37c5 0 9 -3 9 -9v-477z" />
    <glyph glyph-name="uni044F" unicode="&#x44f;" horiz-adv-x="515" 
d="M286 542c36 0 95 -1 143 -4c6 -1 8 -3 8 -8v-522c0 -6 -1 -8 -8 -8h-39c-6 0 -8 2 -8 8v195h-139l-130 -192c-5 -8 -9 -11 -21 -11h-37c-7 0 -9 4 -5 9l133 198c-96 11 -129 46 -129 162c0 150 56 173 232 173zM382 492h-93c-139 0 -180 -13 -180 -124s41 -119 180 -119
h93v243z" />
    <glyph glyph-name="uni044C" unicode="&#x44c;" horiz-adv-x="524" 
d="M133 310h162c120 0 189 -29 189 -147v-21c0 -118 -69 -147 -189 -147c-36 0 -161 1 -209 4c-6 1 -8 3 -8 8v521c0 5 3 7 8 7h39c5 0 8 -2 8 -7v-218zM428 146v13c0 85 -51 102 -132 102h-163v-217h163c85 0 132 20 132 102z" />
    <glyph glyph-name="uni044A" unicode="&#x44a;" horiz-adv-x="583" 
d="M192 310h162c119 0 189 -29 189 -147v-21c0 -118 -70 -147 -189 -147c-36 0 -161 1 -210 4c-5 1 -7 2 -7 7v480h-108c-5 0 -8 3 -8 8v34c0 5 3 7 8 7h155c5 0 8 -2 8 -7v-218zM487 146v13c0 85 -51 102 -132 102h-163v-217h163c85 0 132 20 132 102z" />
    <glyph glyph-name="uni044B" unicode="&#x44b;" horiz-adv-x="680" 
d="M133 310h162c120 0 189 -29 189 -147v-21c0 -118 -69 -147 -189 -147c-36 0 -161 1 -209 4c-6 1 -8 2 -8 7v522c0 5 3 7 8 7h39c5 0 8 -2 8 -7v-218zM558 535h35c6 0 9 -3 9 -9v-517c0 -6 -3 -9 -9 -9h-35c-6 0 -9 3 -9 9v517c0 6 3 9 9 9zM428 146v13
c0 85 -51 102 -132 102h-163v-217h163c85 0 132 20 132 102z" />
    <glyph glyph-name="uni044D" unicode="&#x44d;" horiz-adv-x="490" 
d="M204 541c183 0 226 -65 226 -273s-43 -273 -226 -273c-40 0 -116 2 -154 6c-6 0 -9 3 -9 9v27c0 5 3 7 8 7h155c137 0 168 49 170 200h-243c-6 0 -8 3 -8 8v33c0 5 2 7 8 7h243c-2 152 -34 200 -170 200h-155c-5 0 -8 2 -8 7v27c0 6 3 9 9 9c38 4 114 6 154 6z" />
    <glyph glyph-name="uni044E" unicode="&#x44e;" horiz-adv-x="781" 
d="M505 542c175 0 215 -56 215 -273c0 -218 -40 -274 -215 -274c-170 0 -212 53 -215 254h-157v-240c0 -6 -3 -9 -9 -9h-37c-6 0 -9 3 -9 9v517c0 6 3 9 9 9h37c6 0 9 -3 9 -9v-227h157c4 192 48 243 215 243zM505 43c135 0 162 46 162 226c0 179 -27 225 -162 225
c-136 0 -162 -46 -162 -225c0 -180 26 -226 162 -226z" />
    <glyph glyph-name="pi" unicode="&#x3c0;" horiz-adv-x="612" 
d="M36 539h544c6 0 9 -3 9 -9v-28c0 -7 -3 -10 -9 -10h-89v-483c0 -6 -3 -9 -9 -9h-32c-6 0 -10 3 -10 9v483h-262c0 -161 -14 -322 -44 -483c-1 -6 -3 -9 -9 -9h-32c-6 0 -11 3 -10 9c31 161 45 322 45 483h-92c-6 0 -9 3 -9 10v28c0 6 3 9 9 9z" />
    <glyph glyph-name="zero" unicode="0" horiz-adv-x="659" 
d="M329 746c213 0 264 -87 264 -377s-51 -374 -264 -374c-212 0 -263 84 -263 374s51 377 263 377zM329 697c-168 0 -208 -77 -208 -328s40 -325 208 -325s208 74 208 325s-40 328 -208 328z" />
    <glyph glyph-name="one" unicode="1" horiz-adv-x="392" 
d="M243 49h120c6 0 9 -3 9 -9v-31c0 -6 -3 -9 -9 -9h-302c-6 0 -9 3 -9 9v31c0 6 3 9 9 9h126v590c0 53 -38 58 -85 58h-57c-6 -1 -10 3 -10 9v24c0 5 3 7 9 9c18 4 41 7 67 7c41 0 132 -1 132 -97v-600z" />
    <glyph glyph-name="two" unicode="2" horiz-adv-x="568" 
d="M247 746c136 0 259 -19 259 -172v-53c0 -68 -11 -123 -87 -165l-239 -136c-60 -34 -79 -60 -79 -112v-59h404c4 0 5 -1 5 -5v-39c0 -3 -2 -5 -5 -5h-435c-20 0 -25 11 -25 28v80c0 73 26 110 108 156l240 136c50 29 57 70 57 121v53c0 109 -96 123 -203 123h-165
c-5 0 -6 1 -6 5v31c0 4 1 6 5 6c64 5 113 7 166 7z" />
    <glyph glyph-name="three" unicode="3" horiz-adv-x="571" 
d="M219 746c186 0 282 -27 282 -185v-27c0 -93 -47 -147 -113 -163c67 -17 113 -70 113 -163v-26c0 -158 -94 -187 -282 -187c-35 0 -106 1 -156 4c-6 1 -9 2 -9 5v34c0 4 3 6 9 6h160c146 0 223 22 223 139v22c-1 112 -67 142 -182 142h-164c-6 0 -8 2 -8 7v33c0 5 2 8 8 8
h164c114 0 182 28 182 141v27c0 117 -82 134 -227 134h-156c-6 0 -9 2 -9 6v33c0 3 3 5 9 6c50 3 121 4 156 4z" />
    <glyph glyph-name="four" unicode="4" horiz-adv-x="608" 
d="M196 741h37c7 0 9 -4 7 -11l-148 -476h290v212c0 5 2 9 7 10l37 15c7 2 11 1 11 -6v-231h134c7 0 10 -3 10 -9v-31c0 -7 -3 -9 -10 -9h-134v-196c0 -6 -3 -9 -9 -9h-37c-6 0 -9 3 -9 9v196h-339c-6 0 -9 2 -9 9v17c0 10 3 22 7 32l144 471c2 6 5 7 11 7z" />
    <glyph glyph-name="five" unicode="5" horiz-adv-x="574" 
d="M99 741h387c6 0 10 -3 10 -9v-31c0 -6 -4 -9 -10 -9h-347l-18 -266c41 2 92 2 116 2c187 0 282 -32 283 -196v-42c-1 -164 -97 -195 -283 -195c-35 0 -114 0 -164 3c-5 0 -8 3 -8 7v33c0 4 3 6 9 6h170c140 0 220 24 220 145v42c-1 122 -80 148 -220 148h-170
c-6 0 -9 2 -9 6v36l18 306c1 9 5 14 16 14z" />
    <glyph glyph-name="six" unicode="6" horiz-adv-x="595" 
d="M287 741h41c8 0 10 -5 7 -11l-162 -314c35 15 77 18 129 18c157 0 250 -39 250 -195v-48c0 -156 -92 -196 -250 -196c-156 0 -249 40 -249 196v42c0 54 4 79 22 115l200 386c3 5 6 7 12 7zM302 385c-120 0 -194 -29 -194 -148v-45c0 -119 74 -148 194 -148
c121 0 195 29 195 148v45c0 119 -74 148 -195 148z" />
    <glyph glyph-name="seven" unicode="7" horiz-adv-x="535" 
d="M31 741h472c6 0 10 -3 10 -9v-24c0 -5 -2 -9 -4 -14l-347 -687c-2 -5 -6 -7 -11 -7h-42c-7 0 -10 5 -7 11l343 681h-414c-7 0 -10 3 -10 9v31c0 6 3 9 10 9z" />
    <glyph glyph-name="eight" unicode="8" horiz-adv-x="633" 
d="M310 746h15c157 0 229 -65 229 -203c0 -88 -27 -144 -93 -181c81 -33 112 -91 112 -169c0 -135 -83 -198 -249 -198h-17c-167 0 -248 63 -248 200c0 83 42 149 113 191c-59 32 -92 81 -92 160c0 135 74 200 230 200zM325 697h-15c-117 0 -174 -50 -174 -146
c0 -88 56 -126 117 -140l158 -29c63 38 88 93 88 161c0 104 -56 154 -174 154zM383 331l-158 32c-74 -38 -111 -92 -111 -169c0 -102 65 -150 193 -150h17c132 0 193 53 193 144c0 87 -52 128 -134 143z" />
    <glyph glyph-name="nine" unicode="9" horiz-adv-x="595" 
d="M292 746c157 0 250 -39 250 -196v-42c0 -54 -4 -79 -22 -115l-201 -386c-2 -5 -6 -7 -11 -7h-42c-7 0 -10 5 -6 11l162 314c-35 -15 -77 -18 -130 -18c-156 0 -249 39 -249 195v49c0 155 92 195 249 195zM292 697c-121 0 -194 -29 -194 -148v-45c0 -119 74 -148 194 -148
c121 0 195 29 195 148v45c0 119 -74 148 -195 148z" />
    <glyph glyph-name="zero.osf" horiz-adv-x="623" 
d="M311 542c195 1 250 -68 250 -275s-55 -270 -250 -271c-195 0 -249 64 -249 270c0 207 54 275 249 276zM311 493c-153 -1 -195 -56 -195 -227c0 -169 42 -221 195 -220c154 0 196 52 196 221c0 170 -42 226 -196 226z" />
    <glyph glyph-name="one.osf" horiz-adv-x="407" 
d="M251 49h120c6 0 10 -3 10 -9v-31c0 -6 -4 -9 -10 -9h-302c-6 0 -9 3 -9 9v31c0 6 3 9 9 9h127v385c0 53 -38 58 -85 58h-57c-6 -1 -10 3 -10 9v24c0 5 2 7 8 9c19 4 42 7 68 7c40 0 131 -1 131 -97v-395z" />
    <glyph glyph-name="two.osf" horiz-adv-x="564" 
d="M243 542c131 0 254 -6 254 -144v-24c0 -61 -6 -117 -87 -139l-223 -66c-61 -18 -78 -36 -79 -85v-35h393c4 0 6 -1 6 -5v-39c0 -3 -2 -5 -6 -5h-423c-20 0 -25 11 -25 28v58c0 73 25 101 108 127l223 66c57 16 57 50 57 95v24c0 94 -96 94 -198 94h-165c-5 0 -6 2 -6 6
v31c0 3 1 5 5 6c64 5 113 7 166 7z" />
    <glyph glyph-name="three.osf" horiz-adv-x="561" 
d="M214 540c186 0 282 -27 282 -185v-21c0 -93 -47 -147 -113 -163c67 -16 113 -69 113 -161v-20c0 -157 -94 -185 -282 -185c-35 0 -106 1 -156 4c-6 0 -9 3 -9 7v31c0 5 3 7 9 7h156c146 0 227 21 227 137v17c-1 111 -67 140 -182 140h-165c-6 0 -8 2 -8 7v32c0 6 2 8 8 8
h165c114 0 182 28 182 141v18c0 117 -82 137 -227 137h-157c-6 0 -8 3 -8 8v30c0 4 3 7 9 7c50 4 121 4 156 4z" />
    <glyph glyph-name="four.osf" horiz-adv-x="608" 
d="M199 535h37c7 0 9 -4 7 -11l-147 -476h289v212c0 5 2 9 7 11l38 15c6 2 10 0 10 -6v-232h135c6 0 9 -3 9 -9v-31c0 -6 -3 -9 -9 -9h-135v-184c0 -6 -3 -9 -9 -9h-37c-6 0 -9 3 -9 9v184h-339c-6 0 -9 3 -9 9v18c0 10 4 21 7 31l144 472c2 5 5 6 11 6z" />
    <glyph glyph-name="five.osf" horiz-adv-x="565" 
d="M95 535h383c6 0 9 -3 9 -9v-31c0 -6 -3 -9 -9 -9h-343l-17 -260c40 2 91 2 116 2c186 0 281 -32 282 -196v-37c-1 -163 -96 -194 -282 -194c-35 0 -114 1 -164 3c-6 1 -9 3 -9 7v33c0 4 3 7 9 7h170c140 0 221 22 221 144v36c-1 122 -80 148 -221 148h-170
c-6 0 -9 2 -9 6v36l19 301c0 8 5 13 15 13z" />
    <glyph glyph-name="six.osf" horiz-adv-x="595" 
d="M287 741h42c7 0 10 -5 6 -11l-162 -314c35 15 77 18 130 18c156 0 249 -39 249 -195v-48c0 -156 -92 -196 -249 -196s-250 40 -250 196v42c0 54 4 79 22 115l201 386c2 5 6 7 11 7zM303 385c-121 0 -195 -29 -195 -148v-45c0 -119 74 -148 195 -148s194 29 194 148v45
c0 119 -74 148 -194 148z" />
    <glyph glyph-name="seven.osf" horiz-adv-x="531" 
d="M28 535h473c6 0 9 -2 9 -9v-23c0 -6 -2 -10 -4 -14l-341 -676c-2 -5 -6 -7 -11 -7h-42c-7 0 -10 5 -6 12l336 668h-414c-7 0 -10 3 -10 9v31c0 7 3 9 10 9z" />
    <glyph glyph-name="eight.osf" horiz-adv-x="633" 
d="M310 746h15c157 0 229 -65 229 -203c0 -88 -27 -144 -93 -181c81 -33 112 -91 112 -169c0 -135 -83 -198 -249 -198h-17c-167 0 -248 63 -248 200c0 83 43 149 113 191c-59 32 -91 81 -91 160c0 135 73 200 229 200zM325 697h-15c-117 0 -174 -50 -174 -146
c0 -88 56 -126 117 -140l158 -29c63 38 88 93 88 161c0 104 -56 154 -174 154zM383 331l-158 32c-73 -38 -111 -92 -111 -169c0 -102 65 -150 193 -150h17c132 0 194 53 194 144c0 87 -53 128 -135 143z" />
    <glyph glyph-name="nine.osf" horiz-adv-x="584" 
d="M290 542c156 0 249 -40 249 -196v-37c0 -54 -4 -79 -22 -115l-198 -382c-2 -4 -6 -6 -11 -6h-42c-7 0 -10 4 -6 11l159 308c-35 -14 -77 -17 -129 -17c-157 0 -250 39 -250 195v43c0 156 92 196 250 196zM290 492c-121 0 -195 -29 -195 -147v-40c0 -120 74 -148 195 -148
c120 0 194 28 194 147v40c0 120 -74 148 -194 148z" />
    <glyph glyph-name="zero.subs" horiz-adv-x="377" 
d="M188 227c118 0 147 -47 147 -203c0 -155 -29 -201 -147 -201c-117 0 -146 46 -146 201c0 156 29 203 146 203zM188 185c-79 0 -98 -38 -98 -161s19 -159 98 -159c80 0 99 36 99 159s-19 161 -99 161z" />
    <glyph glyph-name="one.subs" horiz-adv-x="244" 
d="M154 -132h64c3 0 6 -2 6 -6v-31c0 -3 -3 -5 -6 -5h-176c-3 0 -5 2 -5 5v31c0 3 2 6 5 6h66v289c0 29 -20 30 -40 30h-33c-3 0 -5 2 -5 5v25c0 4 1 5 5 6c15 3 28 4 43 4c32 0 76 -4 76 -59v-300z" />
    <glyph glyph-name="two.subs" horiz-adv-x="332" 
d="M145 227c75 0 144 -12 144 -94v-35c0 -37 -5 -63 -51 -93l-110 -67c-23 -14 -41 -29 -41 -50v-20h203c3 0 4 -1 4 -3v-36c0 -2 -1 -3 -3 -3h-245c-10 0 -13 6 -13 15v42c0 39 15 56 57 83l120 75c27 17 31 36 31 63v20c0 52 -42 61 -100 61h-90c-3 0 -4 1 -4 5v25
c0 5 2 6 6 7c29 3 60 5 92 5z" />
    <glyph glyph-name="three.subs" horiz-adv-x="335" 
d="M144 227c84 0 147 -14 147 -96v-23c0 -43 -21 -74 -64 -83c42 -8 64 -39 64 -82v-23c0 -83 -62 -97 -147 -97c-30 0 -71 2 -97 4c-5 1 -8 3 -8 8v25c0 3 2 5 5 5h96c64 0 103 9 103 63v13c1 53 -35 65 -94 65h-83c-3 0 -4 1 -4 5v28c0 4 1 5 4 5h83c59 0 94 12 94 65v13
c0 54 -39 63 -103 63h-96c-3 0 -5 1 -5 4v27c0 4 3 6 8 7c26 3 67 4 97 4z" />
    <glyph glyph-name="four.subs" horiz-adv-x="354" 
d="M110 224h38c4 0 5 -2 3 -5l-73 -244h133v103c0 3 1 5 4 6l38 12c4 1 6 1 6 -4v-117h66c4 0 6 -2 6 -5v-32c0 -4 -2 -5 -6 -5h-66v-102c0 -3 -2 -5 -5 -5h-38c-3 0 -5 2 -5 5v102h-179c-3 0 -5 1 -5 5v23c0 5 2 12 4 17l73 243c1 3 3 3 6 3z" />
    <glyph glyph-name="five.subs" horiz-adv-x="332" 
d="M63 224h213c3 0 6 -1 6 -4v-33c0 -3 -3 -5 -6 -5h-179l-8 -124c21 2 50 2 63 2c80 0 143 -14 143 -99v-39c0 -85 -64 -99 -148 -99c-29 0 -71 2 -97 4c-4 1 -7 3 -7 8v25c0 3 2 5 5 5h96c65 0 103 11 103 65v22c0 55 -38 66 -103 66h-93c-6 0 -8 2 -8 7v29l11 163
c1 5 3 7 9 7z" />
    <glyph glyph-name="six.subs" horiz-adv-x="341" 
d="M157 224h40c4 0 6 -2 4 -6l-86 -165c18 7 41 9 65 9c78 0 131 -20 131 -97v-43c0 -83 -58 -99 -138 -99s-139 16 -139 99v40c0 24 2 37 11 54l106 205c1 2 3 3 6 3zM173 21c-59 0 -91 -11 -91 -66v-24c0 -54 32 -66 91 -66s91 12 91 66v24c0 55 -32 66 -91 66z" />
    <glyph glyph-name="seven.subs" horiz-adv-x="318" 
d="M27 224h264c3 0 5 -1 5 -4v-25c0 -3 -1 -6 -2 -8l-184 -358c-1 -2 -3 -3 -6 -3h-44c-4 0 -5 2 -3 6l181 350h-211c-3 0 -5 2 -5 5v33c0 3 2 4 5 4z" />
    <glyph glyph-name="eight.subs" horiz-adv-x="366" 
d="M179 227h9c88 0 128 -35 128 -110c0 -46 -15 -76 -52 -97c46 -17 63 -48 63 -91c0 -72 -47 -106 -140 -106h-10c-93 0 -139 34 -139 107c0 49 23 81 64 103c-36 19 -52 44 -52 86c0 73 41 108 129 108zM187 185h-7c-54 0 -82 -23 -82 -68c0 -41 26 -58 56 -64l75 -14
c29 17 40 44 40 75c0 47 -27 71 -82 71zM218 -1l-79 16c-35 -17 -53 -43 -53 -79c0 -48 32 -71 92 -71h8c63 0 93 23 93 66c0 40 -22 60 -61 68z" />
    <glyph glyph-name="nine.subs" horiz-adv-x="340" 
d="M168 227c80 0 139 -16 139 -99v-40c0 -25 -3 -38 -11 -54l-106 -205c-1 -2 -3 -3 -6 -3h-40c-4 0 -5 2 -3 6l85 165c-18 -7 -41 -9 -64 -9c-79 0 -132 20 -132 97v43c0 83 58 99 138 99zM168 184c-59 0 -90 -11 -90 -65v-25c0 -54 31 -66 90 -66s92 12 92 66v25
c0 54 -33 65 -92 65z" />
    <glyph glyph-name="zero.tf" 
d="M302 746c213 0 264 -87 264 -377s-51 -374 -264 -374c-212 0 -263 84 -263 374s51 377 263 377zM302 697c-168 0 -208 -77 -208 -328s40 -325 208 -325c169 0 209 74 209 325s-40 328 -209 328z" />
    <glyph glyph-name="one.tf" 
d="M349 49h120c6 0 10 -3 10 -9v-31c0 -6 -4 -9 -10 -9h-302c-6 0 -9 3 -9 9v31c0 6 3 9 9 9h127v590c0 53 -38 58 -85 58h-57c-6 -1 -10 3 -10 9v24c0 5 2 7 8 9c19 4 42 7 68 7c40 0 131 -1 131 -97v-600z" />
    <glyph glyph-name="two.tf" 
d="M265 746c136 0 259 -19 259 -172v-53c0 -68 -10 -123 -87 -165l-239 -136c-59 -34 -79 -60 -79 -112v-59h404c5 0 6 -1 6 -5v-39c0 -3 -2 -5 -5 -5h-435c-20 0 -25 11 -25 28v80c0 73 26 110 108 156l240 136c50 29 57 70 57 121v53c0 109 -96 123 -204 123h-165
c-4 0 -6 1 -6 5v31c0 4 2 6 6 6c64 5 113 7 165 7z" />
    <glyph glyph-name="three.tf" 
d="M236 746c186 0 282 -27 282 -185v-27c0 -93 -47 -147 -113 -163c67 -17 113 -70 113 -163v-26c0 -158 -94 -187 -282 -187c-35 0 -106 1 -156 4c-6 1 -9 2 -9 5v34c0 4 3 6 9 6h160c146 0 223 22 223 139v22c-1 112 -67 142 -182 142h-165c-6 0 -8 2 -8 7v33c0 5 2 8 8 8
h165c114 0 182 28 182 141v27c0 117 -82 134 -227 134h-156c-6 0 -9 2 -9 6v33c0 3 3 5 9 6c50 3 121 4 156 4z" />
    <glyph glyph-name="four.tf" 
d="M195 741h37c7 0 9 -4 7 -11l-147 -476h289v212c0 5 2 9 7 10l38 15c6 2 10 1 10 -6v-231h135c6 0 9 -3 9 -9v-31c0 -7 -3 -9 -9 -9h-135v-196c0 -6 -3 -9 -9 -9h-37c-6 0 -9 3 -9 9v196h-339c-6 0 -9 2 -9 9v17c0 10 4 22 7 32l144 471c2 6 5 7 11 7z" />
    <glyph glyph-name="five.tf" 
d="M114 741h388c6 0 9 -3 9 -9v-31c0 -6 -3 -9 -9 -9h-348l-17 -266c40 2 91 2 116 2c186 0 281 -32 282 -196v-42c-1 -164 -96 -195 -282 -195c-35 0 -114 0 -164 3c-6 0 -9 3 -9 7v33c0 4 3 6 9 6h170c140 0 221 24 221 145v42c-1 122 -80 148 -221 148h-170
c-6 0 -9 2 -9 6v36l19 306c0 9 5 14 15 14z" />
    <glyph glyph-name="six.tf" 
d="M292 741h42c7 0 10 -5 6 -11l-162 -314c35 15 77 18 130 18c156 0 249 -39 249 -195v-48c0 -156 -92 -196 -249 -196s-250 40 -250 196v42c0 54 4 79 22 115l201 386c2 5 6 7 11 7zM308 385c-121 0 -195 -29 -195 -148v-45c0 -119 74 -148 195 -148s194 29 194 148v45
c0 119 -74 148 -194 148z" />
    <glyph glyph-name="seven.tf" 
d="M66 741h473c6 0 9 -3 9 -9v-24c0 -5 -2 -9 -4 -14l-347 -687c-2 -5 -6 -7 -11 -7h-42c-7 0 -10 5 -6 11l342 681h-414c-7 0 -10 3 -10 9v31c0 6 3 9 10 9z" />
    <glyph glyph-name="eight.tf" 
d="M296 746h15c157 0 229 -65 229 -203c0 -88 -27 -144 -93 -181c81 -33 112 -91 112 -169c0 -135 -83 -198 -249 -198h-17c-167 0 -248 63 -248 200c0 83 43 149 113 191c-59 32 -91 81 -91 160c0 135 73 200 229 200zM311 697h-15c-117 0 -174 -50 -174 -146
c0 -88 56 -126 117 -140l158 -29c63 38 88 93 88 161c0 104 -56 154 -174 154zM369 331l-158 32c-73 -38 -111 -92 -111 -169c0 -102 65 -150 193 -150h17c132 0 194 53 194 144c0 87 -53 128 -135 143z" />
    <glyph glyph-name="nine.tf" 
d="M298 746c156 0 249 -39 249 -196v-42c0 -54 -4 -79 -22 -115l-201 -386c-2 -5 -6 -7 -11 -7h-41c-8 0 -10 5 -7 11l162 314c-35 -15 -77 -18 -129 -18c-157 0 -250 39 -250 195v49c0 155 92 195 250 195zM298 697c-121 0 -195 -29 -195 -148v-45c0 -119 74 -148 195 -148
c120 0 194 29 194 148v45c0 119 -74 148 -194 148z" />
    <glyph glyph-name="zero.tosf" 
d="M302 542c195 1 250 -68 250 -275s-55 -270 -250 -271c-195 0 -249 64 -249 270c0 207 54 275 249 276zM302 493c-153 -1 -195 -56 -195 -227c0 -169 42 -221 195 -220c154 0 196 52 196 221c0 170 -42 226 -196 226z" />
    <glyph glyph-name="one.tosf" 
d="M350 49h120c6 0 10 -3 10 -9v-31c0 -6 -4 -9 -10 -9h-302c-6 0 -9 3 -9 9v31c0 6 3 9 9 9h127v385c0 53 -38 58 -85 58h-57c-6 -1 -10 3 -10 9v24c0 5 2 7 8 9c19 4 42 7 68 7c40 0 131 -1 131 -97v-395z" />
    <glyph glyph-name="two.tosf" 
d="M263 542c131 0 254 -6 254 -144v-24c0 -61 -6 -117 -87 -139l-223 -66c-61 -18 -78 -36 -79 -85v-35h393c4 0 6 -1 6 -5v-39c0 -3 -2 -5 -6 -5h-423c-20 0 -25 11 -25 28v58c0 73 25 101 108 127l223 66c57 16 57 50 57 95v24c0 94 -96 94 -198 94h-165c-5 0 -6 2 -6 6
v31c0 3 1 5 5 6c64 5 113 7 166 7z" />
    <glyph glyph-name="three.tosf" 
d="M236 540c186 0 282 -27 282 -185v-21c0 -93 -47 -147 -113 -163c67 -16 113 -69 113 -161v-20c0 -157 -94 -185 -282 -185c-35 0 -106 1 -156 4c-6 0 -9 3 -9 7v31c0 5 3 7 9 7h156c146 0 227 21 227 137v17c-1 111 -67 140 -182 140h-165c-6 0 -8 2 -8 7v32c0 6 2 8 8 8
h165c114 0 182 28 182 141v18c0 117 -82 137 -227 137h-157c-6 0 -8 3 -8 8v30c0 4 3 7 9 7c50 4 121 4 156 4z" />
    <glyph glyph-name="four.tosf" 
d="M198 535h37c7 0 9 -4 7 -11l-147 -476h289v212c0 5 2 9 7 11l38 15c6 2 10 0 10 -6v-232h135c6 0 9 -3 9 -9v-31c0 -6 -3 -9 -9 -9h-135v-184c0 -6 -3 -9 -9 -9h-37c-6 0 -9 3 -9 9v184h-339c-6 0 -9 3 -9 9v18c0 10 4 21 7 31l144 472c2 5 5 6 11 6z" />
    <glyph glyph-name="five.tosf" 
d="M115 535h383c6 0 9 -3 9 -9v-31c0 -6 -3 -9 -9 -9h-343l-17 -260c40 2 91 2 116 2c186 0 281 -32 282 -196v-37c-1 -163 -96 -194 -282 -194c-35 0 -114 1 -164 3c-6 1 -9 3 -9 7v33c0 4 3 7 9 7h170c140 0 221 22 221 144v36c-1 122 -80 148 -221 148h-170
c-6 0 -9 2 -9 6v36l19 301c0 8 5 13 15 13z" />
    <glyph glyph-name="six.tosf" 
d="M292 741h42c7 0 10 -5 6 -11l-162 -314c35 15 77 18 130 18c156 0 249 -39 249 -195v-48c0 -156 -92 -196 -249 -196s-250 40 -250 196v42c0 54 4 79 22 115l201 386c2 5 6 7 11 7zM308 385c-121 0 -195 -29 -195 -148v-45c0 -119 74 -148 195 -148s194 29 194 148v45
c0 119 -74 148 -194 148z" />
    <glyph glyph-name="seven.tosf" 
d="M65 535h473c6 0 9 -2 9 -9v-23c0 -6 -2 -10 -4 -14l-341 -676c-2 -5 -6 -7 -11 -7h-42c-7 0 -10 5 -6 12l336 668h-414c-7 0 -10 3 -10 9v31c0 7 3 9 10 9z" />
    <glyph glyph-name="eight.tosf" 
d="M296 746h15c157 0 229 -65 229 -203c0 -88 -27 -144 -93 -181c81 -33 112 -91 112 -169c0 -135 -83 -198 -249 -198h-17c-167 0 -248 63 -248 200c0 83 43 149 113 191c-59 32 -91 81 -91 160c0 135 73 200 229 200zM311 697h-15c-117 0 -174 -50 -174 -146
c0 -88 56 -126 117 -140l158 -29c63 38 88 93 88 161c0 104 -56 154 -174 154zM369 331l-158 32c-73 -38 -111 -92 -111 -169c0 -102 65 -150 193 -150h17c132 0 194 53 194 144c0 87 -53 128 -135 143z" />
    <glyph glyph-name="nine.tosf" 
d="M300 542c156 0 249 -40 249 -196v-37c0 -54 -4 -79 -22 -115l-198 -382c-2 -4 -6 -6 -11 -6h-42c-7 0 -10 4 -6 11l159 308c-35 -14 -77 -17 -129 -17c-157 0 -250 39 -250 195v43c0 156 92 196 250 196zM300 492c-121 0 -195 -29 -195 -147v-40c0 -120 74 -148 195 -148
c120 0 194 28 194 147v40c0 120 -74 148 -194 148z" />
    <glyph glyph-name="zero.zero" horiz-adv-x="659" 
d="M330 746c213 0 263 -87 263 -377s-50 -374 -263 -374s-263 84 -263 374s50 377 263 377zM330 697c-168 0 -208 -77 -208 -328c0 -88 5 -154 18 -203l361 453c-30 57 -83 78 -171 78zM330 44c168 0 208 74 208 325c0 90 -5 157 -19 207l-361 -454c30 -57 83 -78 172 -78z
" />
    <glyph glyph-name="zero.osf.zero" horiz-adv-x="623" 
d="M311 542c195 1 250 -68 250 -275s-55 -270 -250 -271c-195 0 -249 64 -249 270c0 207 54 275 249 276zM116 266c0 -76 8 -128 32 -163l290 365c-30 18 -71 25 -127 25c-153 -1 -195 -56 -195 -227zM311 46c154 0 196 52 196 221c0 84 -10 140 -39 175l-292 -368
c30 -20 74 -28 135 -28z" />
    <glyph glyph-name="zero.tf.zero" 
d="M303 746c213 0 263 -87 263 -377s-50 -374 -263 -374s-263 84 -263 374s50 377 263 377zM303 697c-168 0 -208 -77 -208 -328c0 -88 5 -154 18 -203l361 453c-30 57 -83 78 -171 78zM303 44c168 0 208 74 208 325c0 90 -5 157 -19 207l-361 -454c30 -57 83 -78 172 -78z
" />
    <glyph glyph-name="zero.tosf.zero" 
d="M302 542c195 1 250 -68 250 -275s-55 -270 -250 -271c-195 0 -249 64 -249 270c0 207 54 275 249 276zM107 266c0 -76 8 -128 32 -163l290 365c-30 18 -71 25 -127 25c-153 -1 -195 -56 -195 -227zM302 46c154 0 196 52 196 221c0 84 -10 140 -39 175l-292 -368
c30 -20 74 -28 135 -28z" />
    <glyph glyph-name="fraction" unicode="&#x2044;" horiz-adv-x="140" 
d="M232 770h24c6 0 7 -4 4 -11l-338 -776c-4 -8 -8 -10 -14 -10h-25c-6 0 -8 3 -4 10l339 776c4 8 7 11 14 11z" />
    <glyph glyph-name="onehalf" unicode="&#xbd;" horiz-adv-x="777" 
d="M528 770h23c6 0 7 -4 5 -11l-339 -776c-3 -8 -7 -10 -13 -10h-25c-6 0 -8 3 -4 10l339 776c4 8 7 11 14 11zM234 379v-31c0 -3 -2 -5 -5 -5h-176c-4 0 -5 2 -5 5v31c0 3 1 6 5 6h66v289c0 28 -20 30 -40 30h-33c-3 0 -5 1 -5 5v25c0 4 1 5 4 6c15 2 28 4 44 4
c32 0 76 -4 76 -60v-299h64c3 0 5 -2 5 -6zM528 42h203c3 0 3 -1 3 -3v-36c0 -2 -1 -3 -3 -3h-244c-10 0 -13 6 -13 15v42c0 39 15 57 57 83l120 75c26 17 30 37 30 64v19c0 52 -41 61 -100 61h-89c-3 0 -4 2 -4 5v25c0 5 2 6 6 8c29 3 60 4 92 4c75 0 143 -12 143 -94v-35
c0 -36 -5 -63 -50 -92l-110 -68c-24 -14 -41 -29 -41 -49v-21z" />
    <glyph glyph-name="onequarter" unicode="&#xbc;" horiz-adv-x="798" 
d="M533 770h23c6 0 7 -4 5 -11l-339 -776c-3 -8 -7 -10 -13 -10h-25c-6 0 -8 3 -4 10l339 776c4 8 7 11 14 11zM237 379v-31c0 -3 -3 -5 -6 -5h-176c-3 0 -5 2 -5 5v31c0 3 2 6 5 6h66v289c0 28 -20 30 -39 30h-34c-3 0 -5 1 -5 5v25c0 4 1 5 5 6c15 2 28 4 43 4
c32 0 76 -4 76 -60v-299h64c3 0 6 -2 6 -6zM699 150h66c4 0 6 -2 6 -5v-32c0 -4 -2 -5 -6 -5h-66v-103c0 -3 -2 -5 -5 -5h-38c-3 0 -5 2 -5 5v103h-179c-3 0 -5 1 -5 5v23c0 5 2 11 4 16l73 243c1 3 3 3 6 3h38c4 0 5 -2 3 -5l-73 -243h133v102c0 3 2 5 4 6l38 13
c4 1 6 0 6 -4v-117z" />
    <glyph glyph-name="threequarters" unicode="&#xbe;" horiz-adv-x="847" 
d="M589 770h24c6 0 7 -4 4 -11l-338 -776c-4 -8 -8 -10 -14 -10h-25c-6 0 -8 3 -4 10l339 776c4 8 7 11 14 11zM157 744c84 0 147 -14 147 -97v-22c0 -43 -21 -74 -64 -83c42 -8 64 -39 64 -83v-22c0 -83 -62 -97 -147 -97c-30 0 -71 2 -97 4c-5 1 -8 2 -8 8v25c0 3 2 5 5 5
h96c64 0 103 9 103 63v13c1 53 -35 65 -94 65h-83c-3 0 -4 1 -4 5v28c0 4 1 5 4 5h83c59 0 94 12 94 65v13c0 54 -39 63 -103 63h-96c-3 0 -5 1 -5 4v27c0 4 3 6 8 6c26 4 67 5 97 5zM599 398h38c4 0 5 -2 4 -5l-74 -243h133v102c0 3 2 5 4 6l39 13c3 1 5 0 5 -4v-117h67
c3 0 5 -2 5 -5v-32c0 -4 -2 -5 -5 -5h-67v-103c0 -3 -1 -5 -5 -5h-38c-3 0 -5 2 -5 5v103h-179c-3 0 -5 1 -5 5v23c0 5 2 11 4 16l73 243c1 3 3 3 6 3z" />
    <glyph glyph-name="oneeighth" unicode="&#x215b;" horiz-adv-x="798" 
d="M521 770h23c6 0 7 -4 5 -11l-339 -776c-3 -8 -7 -10 -13 -10h-25c-6 0 -8 3 -4 10l339 776c4 8 7 11 14 11zM234 379v-31c0 -3 -2 -5 -5 -5h-176c-4 0 -5 2 -5 5v31c0 3 1 6 5 6h66v289c0 28 -20 30 -40 30h-33c-3 0 -5 1 -5 5v25c0 4 1 5 5 6c14 2 28 4 43 4
c32 0 76 -4 76 -60v-299h64c3 0 5 -2 5 -6zM695 194c45 -17 63 -48 63 -90c0 -73 -47 -107 -141 -107h-9c-93 0 -139 34 -139 107c0 49 23 81 64 104c-37 18 -52 43 -52 86c0 72 41 107 129 107h8c89 0 129 -35 129 -109c0 -47 -15 -77 -52 -98zM529 292
c0 -42 26 -58 56 -64l74 -15c30 17 40 45 40 75c0 47 -26 71 -81 71h-7c-54 0 -82 -22 -82 -67zM609 39h8c62 0 93 24 93 66c0 40 -23 60 -61 68l-79 16c-35 -16 -53 -42 -53 -78c0 -48 32 -72 92 -72z" />
    <glyph glyph-name="threeeighths" unicode="&#x215c;" horiz-adv-x="860" 
d="M577 770h24c6 0 7 -4 4 -11l-338 -776c-4 -8 -8 -10 -14 -10h-25c-6 0 -8 3 -4 10l339 776c4 8 7 11 14 11zM155 744c84 0 147 -14 147 -97v-22c0 -43 -21 -74 -65 -83c43 -8 65 -39 65 -83v-22c0 -83 -62 -97 -147 -97c-30 0 -72 2 -98 4c-4 1 -7 2 -7 8v25c0 3 2 5 5 5
h95c65 0 104 9 104 63v13c0 53 -35 65 -94 65h-83c-3 0 -5 1 -5 5v28c0 4 2 5 5 5h83c59 0 94 12 94 65v13c0 54 -39 63 -104 63h-95c-3 0 -5 1 -5 4v27c0 4 3 6 7 6c26 4 68 5 98 5zM672 401h9c88 0 128 -35 128 -109c0 -47 -15 -77 -52 -98c45 -17 63 -48 63 -90
c0 -73 -47 -107 -140 -107h-10c-93 0 -139 34 -139 107c0 49 23 81 64 104c-36 18 -52 43 -52 86c0 72 41 107 129 107zM680 359h-7c-54 0 -82 -22 -82 -67c0 -42 26 -58 56 -64l75 -15c29 17 39 45 39 75c0 47 -26 71 -81 71zM711 173l-79 16c-35 -16 -53 -42 -53 -78
c0 -48 32 -72 92 -72h8c63 0 93 24 93 66c0 40 -22 60 -61 68z" />
    <glyph glyph-name="fiveeighths" unicode="&#x215d;" horiz-adv-x="838" 
d="M574 770h24c6 0 7 -4 4 -11l-338 -776c-4 -8 -8 -10 -14 -10h-25c-6 0 -8 3 -4 10l339 776c4 8 7 11 14 11zM73 741h213c3 0 6 -1 6 -4v-33c0 -3 -3 -5 -6 -5h-179l-7 -125c20 3 49 3 62 3c81 0 143 -14 143 -99v-39c0 -85 -63 -99 -147 -99c-30 0 -72 1 -98 4
c-4 1 -7 3 -7 8v25c0 3 2 5 5 5h96c65 0 104 11 104 65v22c0 55 -39 66 -104 66h-93c-5 0 -8 2 -8 6v30l12 163c0 5 3 7 8 7zM650 401h9c88 0 128 -35 128 -109c0 -47 -15 -77 -52 -98c45 -17 63 -48 63 -90c0 -73 -47 -107 -140 -107h-10c-93 0 -139 34 -139 107
c0 49 23 81 64 104c-37 18 -52 43 -52 86c0 72 41 107 129 107zM658 359h-7c-54 0 -82 -22 -82 -67c0 -42 26 -58 56 -64l74 -15c30 17 40 45 40 75c0 47 -26 71 -81 71zM689 173l-79 16c-35 -16 -53 -42 -53 -78c0 -48 32 -72 92 -72h8c62 0 93 24 93 66
c0 40 -23 60 -61 68z" />
    <glyph glyph-name="seveneighths" unicode="&#x215e;" horiz-adv-x="787" 
d="M501 770h24c6 0 7 -4 4 -11l-338 -776c-4 -8 -8 -10 -14 -10h-25c-6 0 -8 3 -4 10l339 776c4 8 7 11 14 11zM37 741h263c3 0 5 -1 5 -4v-25c0 -3 -1 -6 -2 -8l-184 -358c-1 -2 -3 -3 -6 -3h-43c-4 0 -6 2 -4 6l181 350h-210c-4 0 -6 2 -6 5v33c0 3 2 4 6 4zM599 401h8
c88 0 129 -35 129 -109c0 -47 -15 -77 -52 -98c45 -17 62 -48 62 -90c0 -73 -46 -107 -140 -107h-9c-93 0 -140 34 -140 107c0 49 24 81 64 104c-36 18 -52 43 -52 86c0 72 42 107 130 107zM606 359h-6c-55 0 -83 -22 -83 -67c0 -42 26 -58 56 -64l75 -15c29 17 40 45 40 75
c0 47 -26 71 -82 71zM638 173l-80 16c-35 -16 -53 -42 -53 -78c0 -48 32 -72 93 -72h7c63 0 93 24 93 66c0 40 -22 60 -60 68z" />
    <glyph glyph-name="zero.dnom" horiz-adv-x="377" 
d="M188 401c118 0 147 -46 147 -203c0 -155 -29 -201 -147 -201c-117 0 -146 46 -146 201c0 157 29 203 146 203zM188 359c-79 0 -98 -37 -98 -161c0 -123 19 -159 98 -159c80 0 99 36 99 159c0 124 -19 161 -99 161z" />
    <glyph glyph-name="one.dnom" horiz-adv-x="244" 
d="M154 42h64c3 0 6 -2 6 -5v-32c0 -3 -3 -5 -6 -5h-176c-3 0 -5 2 -5 5v32c0 3 2 5 5 5h66v290c0 28 -20 29 -40 29h-33c-3 0 -5 2 -5 5v26c0 3 1 4 5 5c15 3 28 4 43 4c32 0 76 -3 76 -59v-300z" />
    <glyph glyph-name="two.dnom" horiz-adv-x="332" 
d="M145 401c75 0 144 -12 144 -94v-35c0 -36 -5 -63 -51 -92l-110 -68c-23 -14 -41 -29 -41 -49v-21h203c3 0 4 -1 4 -3v-36c0 -2 -1 -3 -3 -3h-245c-10 0 -13 6 -13 15v42c0 39 15 57 57 83l120 75c27 17 31 37 31 64v19c0 52 -42 61 -100 61h-90c-3 0 -4 2 -4 5v25
c0 5 2 6 6 8c29 3 60 4 92 4z" />
    <glyph glyph-name="three.dnom" horiz-adv-x="335" 
d="M144 401c84 0 147 -14 147 -96v-23c0 -43 -21 -74 -64 -83c42 -8 64 -39 64 -82v-22c0 -84 -62 -98 -147 -98c-30 0 -71 2 -97 5c-5 0 -8 2 -8 7v25c0 4 2 5 5 5h96c64 0 103 10 103 63v13c1 53 -35 65 -94 65h-83c-3 0 -4 2 -4 5v28c0 4 1 5 4 5h83c59 0 94 12 94 66v13
c0 53 -39 62 -103 62h-96c-3 0 -5 2 -5 5v26c0 5 3 6 8 7c26 3 67 4 97 4z" />
    <glyph glyph-name="four.dnom" horiz-adv-x="354" 
d="M110 398h38c4 0 5 -2 3 -5l-73 -243h133v102c0 3 1 5 4 6l38 13c4 1 6 0 6 -4v-117h66c4 0 6 -2 6 -5v-32c0 -4 -2 -5 -6 -5h-66v-103c0 -3 -2 -5 -5 -5h-38c-3 0 -5 2 -5 5v103h-179c-3 0 -5 1 -5 5v23c0 5 2 11 4 16l73 243c1 3 3 3 6 3z" />
    <glyph glyph-name="five.dnom" horiz-adv-x="332" 
d="M63 398h213c3 0 6 -1 6 -4v-33c0 -3 -3 -5 -6 -5h-179l-8 -124c21 2 50 3 63 3c80 0 143 -15 143 -99v-39c0 -85 -64 -100 -148 -100c-29 0 -71 2 -97 5c-4 0 -7 2 -7 8v24c0 4 2 5 5 5h96c65 0 103 11 103 66v21c0 56 -38 66 -103 66h-93c-6 0 -8 3 -8 7v29l11 163
c1 5 3 7 9 7z" />
    <glyph glyph-name="six.dnom" horiz-adv-x="341" 
d="M157 398h40c4 0 6 -2 4 -5l-86 -165c18 6 41 8 65 8c78 0 131 -20 131 -97v-43c0 -82 -58 -99 -138 -99s-139 16 -139 99v40c0 25 2 38 11 54l106 205c1 2 3 3 6 3zM173 195c-59 0 -91 -11 -91 -66v-23c0 -55 32 -67 91 -67s91 12 91 67v23c0 55 -32 66 -91 66z" />
    <glyph glyph-name="seven.dnom" horiz-adv-x="318" 
d="M27 398h264c3 0 5 -1 5 -4v-25c0 -3 -1 -5 -2 -7l-184 -359c-1 -2 -3 -3 -6 -3h-44c-4 0 -5 3 -3 6l181 350h-211c-3 0 -5 2 -5 5v33c0 3 2 4 5 4z" />
    <glyph glyph-name="eight.dnom" horiz-adv-x="366" 
d="M179 401h9c88 0 128 -35 128 -109c0 -47 -15 -77 -52 -98c46 -17 63 -48 63 -90c0 -73 -47 -107 -140 -107h-10c-93 0 -139 34 -139 107c0 49 23 81 64 104c-36 18 -52 43 -52 86c0 72 41 107 129 107zM187 359h-7c-54 0 -82 -22 -82 -67c0 -42 26 -58 56 -64l75 -15
c29 17 40 45 40 75c0 47 -27 71 -82 71zM218 173l-79 16c-35 -16 -53 -42 -53 -78c0 -48 32 -72 92 -72h8c63 0 93 24 93 66c0 40 -22 60 -61 68z" />
    <glyph glyph-name="nine.dnom" horiz-adv-x="340" 
d="M168 401c80 0 139 -16 139 -99v-39c0 -26 -3 -39 -11 -55l-106 -205c-1 -2 -3 -3 -6 -3h-40c-4 0 -5 3 -3 6l85 165c-18 -7 -41 -8 -64 -8c-79 0 -132 19 -132 96v43c0 83 58 99 138 99zM168 359c-59 0 -90 -12 -90 -66v-24c0 -54 31 -66 90 -66s92 12 92 66v24
c0 54 -33 66 -92 66z" />
    <glyph glyph-name="zero.numr" horiz-adv-x="377" 
d="M188 744c118 0 147 -47 147 -203s-29 -201 -147 -201c-117 0 -146 45 -146 201s29 203 146 203zM188 702c-79 0 -98 -38 -98 -161s19 -159 98 -159c80 0 99 36 99 159s-19 161 -99 161z" />
    <glyph glyph-name="one.numr" horiz-adv-x="244" 
d="M154 385h64c3 0 6 -2 6 -6v-31c0 -3 -3 -5 -6 -5h-176c-3 0 -5 2 -5 5v31c0 3 2 6 5 6h66v289c0 28 -20 30 -40 30h-33c-3 0 -5 1 -5 5v25c0 4 1 5 5 6c15 2 28 4 43 4c32 0 76 -4 76 -60v-299z" />
    <glyph glyph-name="two.numr" horiz-adv-x="332" 
d="M145 744c75 0 144 -12 144 -94v-35c0 -37 -5 -63 -51 -93l-110 -67c-23 -14 -41 -29 -41 -50v-20h203c3 0 4 -1 4 -3v-36c0 -2 -1 -3 -3 -3h-245c-10 0 -13 6 -13 15v42c0 39 15 56 57 83l120 75c27 17 31 36 31 63v20c0 52 -42 61 -100 61h-90c-3 0 -4 1 -4 5v25
c0 4 2 6 6 7c29 3 60 5 92 5z" />
    <glyph glyph-name="three.numr" horiz-adv-x="335" 
d="M144 744c84 0 147 -14 147 -97v-22c0 -43 -21 -74 -64 -83c42 -8 64 -39 64 -83v-22c0 -83 -62 -97 -147 -97c-30 0 -71 2 -97 4c-5 1 -8 2 -8 8v25c0 3 2 5 5 5h96c64 0 103 9 103 63v13c1 53 -35 65 -94 65h-83c-3 0 -4 1 -4 5v28c0 4 1 5 4 5h83c59 0 94 12 94 65v13
c0 54 -39 63 -103 63h-96c-3 0 -5 1 -5 4v27c0 4 3 6 8 6c26 4 67 5 97 5z" />
    <glyph glyph-name="four.numr" horiz-adv-x="354" 
d="M110 741h38c4 0 5 -2 3 -5l-73 -244h133v103c0 3 1 5 4 6l38 12c4 1 6 1 6 -4v-117h66c4 0 6 -2 6 -5v-32c0 -4 -2 -5 -6 -5h-66v-102c0 -3 -2 -5 -5 -5h-38c-3 0 -5 2 -5 5v102h-179c-3 0 -5 1 -5 5v23c0 5 2 12 4 17l73 243c1 3 3 3 6 3z" />
    <glyph glyph-name="five.numr" horiz-adv-x="332" 
d="M63 741h213c3 0 6 -1 6 -4v-33c0 -3 -3 -5 -6 -5h-179l-8 -125c21 3 50 3 63 3c80 0 143 -14 143 -99v-39c0 -85 -64 -99 -148 -99c-29 0 -71 1 -97 4c-4 1 -7 3 -7 8v25c0 3 2 5 5 5h96c65 0 103 11 103 65v22c0 55 -38 66 -103 66h-93c-6 0 -8 2 -8 6v30l11 163
c1 5 3 7 9 7z" />
    <glyph glyph-name="six.numr" horiz-adv-x="341" 
d="M157 741h40c4 0 6 -2 4 -6l-86 -165c18 7 41 8 65 8c78 0 131 -20 131 -96v-43c0 -83 -58 -99 -138 -99s-139 16 -139 99v40c0 24 2 37 11 54l106 205c1 2 3 3 6 3zM173 538c-59 0 -91 -11 -91 -66v-24c0 -54 32 -66 91 -66s91 12 91 66v24c0 55 -32 66 -91 66z" />
    <glyph glyph-name="seven.numr" horiz-adv-x="318" 
d="M27 741h264c3 0 5 -1 5 -4v-25c0 -3 -1 -6 -2 -8l-184 -358c-1 -2 -3 -3 -6 -3h-44c-4 0 -5 2 -3 6l181 350h-211c-3 0 -5 2 -5 5v33c0 3 2 4 5 4z" />
    <glyph glyph-name="eight.numr" horiz-adv-x="366" 
d="M179 744h9c88 0 128 -35 128 -110c0 -47 -15 -77 -52 -97c46 -17 63 -48 63 -91c0 -72 -47 -106 -140 -106h-10c-93 0 -139 34 -139 107c0 49 23 81 64 103c-36 19 -52 44 -52 86c0 73 41 108 129 108zM187 702h-7c-54 0 -82 -23 -82 -68c0 -41 26 -58 56 -64l75 -14
c29 17 40 44 40 75c0 46 -27 71 -82 71zM218 515l-79 17c-35 -17 -53 -43 -53 -79c0 -48 32 -71 92 -71h8c63 0 93 23 93 66c0 40 -22 60 -61 67z" />
    <glyph glyph-name="nine.numr" horiz-adv-x="340" 
d="M168 744c80 0 139 -16 139 -99v-40c0 -25 -3 -38 -11 -54l-106 -205c-1 -2 -3 -3 -6 -3h-40c-4 0 -5 2 -3 6l85 165c-18 -7 -41 -9 -64 -9c-79 0 -132 20 -132 97v43c0 83 58 99 138 99zM168 701c-59 0 -90 -11 -90 -65v-25c0 -54 31 -66 90 -66s92 12 92 66v25
c0 54 -33 65 -92 65z" />
    <glyph glyph-name="uni24EA" unicode="&#x24ea;" horiz-adv-x="800" 
d="M401 11c-233 0 -360 125 -360 359c0 233 127 359 360 359c236 0 359 -128 359 -359c0 -234 -126 -359 -359 -359zM401 49c213 0 321 107 321 321c0 211 -106 321 -321 321c-213 0 -322 -108 -322 -321c0 -214 109 -321 322 -321zM400 571c118 0 147 -47 147 -203
c0 -155 -29 -201 -147 -201c-117 0 -146 46 -146 201c0 156 29 203 146 203zM400 529c-79 0 -98 -38 -98 -161s19 -159 98 -159c80 0 99 36 99 159s-19 161 -99 161z" />
    <glyph glyph-name="uni2460" unicode="&#x2460;" horiz-adv-x="800" 
d="M401 11c-234 0 -360 125 -360 359c0 233 126 359 360 359c235 0 358 -126 358 -359c0 -234 -125 -359 -358 -359zM401 49c213 0 321 107 321 321c0 212 -106 321 -321 321c-214 0 -322 -108 -322 -321c0 -214 108 -321 322 -321zM437 212h64c3 0 5 -2 5 -6v-32
c0 -3 -2 -5 -5 -5h-176c-4 0 -5 2 -5 6v31c0 3 1 6 5 6h66v289c0 28 -20 30 -40 30h-33c-4 0 -6 1 -6 5v25c0 3 2 5 5 6c15 2 28 4 44 4c32 0 76 -4 76 -60v-299z" />
    <glyph glyph-name="uni2461" unicode="&#x2461;" horiz-adv-x="800" 
d="M401 11c-234 0 -360 125 -360 359c0 233 126 359 360 359c235 0 358 -128 358 -359c0 -234 -125 -359 -358 -359zM401 49c213 0 321 107 321 321c0 211 -107 321 -321 321s-322 -108 -322 -321c0 -214 108 -321 322 -321zM382 571c76 0 144 -12 144 -95v-35
c0 -36 -5 -63 -51 -92l-110 -68c-23 -13 -40 -28 -40 -49v-20h202c3 0 4 -1 4 -3v-37c0 -2 -1 -3 -3 -3h-244c-11 0 -14 6 -14 15v43c0 39 16 56 58 83l119 75c27 16 31 36 31 63v19c0 52 -41 62 -100 62h-90c-2 0 -4 1 -4 4v26c0 4 2 6 7 7c28 3 59 5 91 5z" />
    <glyph glyph-name="uni2462" unicode="&#x2462;" horiz-adv-x="800" 
d="M401 11c-234 0 -360 125 -360 359c0 233 126 359 360 359c233 0 358 -128 358 -359c0 -234 -125 -359 -358 -359zM401 49c213 0 321 107 321 321c0 211 -108 321 -321 321c-214 0 -322 -108 -322 -321c0 -214 108 -321 322 -321zM380 571c84 0 147 -14 147 -97v-23
c0 -43 -21 -74 -65 -82c43 -8 65 -40 65 -83v-22c0 -84 -62 -98 -147 -98c-30 0 -72 3 -98 5c-4 0 -7 2 -7 8v25c0 3 2 5 5 5h95c65 0 104 9 104 63v13c0 52 -35 64 -94 64h-83c-3 0 -5 2 -5 5v29c0 3 2 5 5 5h83c59 0 94 12 94 65v13c0 53 -39 63 -104 63h-95
c-3 0 -5 1 -5 4v26c0 5 3 7 7 7c26 3 68 5 98 5z" />
    <glyph glyph-name="uni2463" unicode="&#x2463;" horiz-adv-x="800" 
d="M401 11c-234 0 -360 125 -360 359c0 233 126 359 360 359c233 0 358 -128 358 -359c0 -234 -125 -359 -358 -359zM401 49c213 0 321 107 321 321c0 211 -108 321 -321 321c-214 0 -322 -108 -322 -321c0 -214 108 -321 322 -321zM332 568h38c3 0 4 -2 3 -6l-73 -243h133
v102c0 3 1 5 4 6l38 13c4 1 6 1 6 -4v-117h66c3 0 5 -2 5 -5v-32c0 -4 -2 -5 -5 -5h-66v-102c0 -4 -2 -6 -5 -6h-38c-3 0 -5 2 -5 6v102h-179c-3 0 -5 1 -5 5v23c0 5 2 11 4 16l73 243c1 3 3 4 6 4z" />
    <glyph glyph-name="uni2464" unicode="&#x2464;" horiz-adv-x="800" 
d="M401 11c-234 0 -360 125 -360 359c0 233 126 359 360 359c233 0 358 -128 358 -359c0 -234 -125 -359 -358 -359zM401 49c213 0 321 107 321 321c0 211 -108 321 -321 321c-214 0 -322 -108 -322 -321c0 -214 108 -321 322 -321zM294 568h214c3 0 5 -2 5 -5v-32
c0 -3 -2 -5 -5 -5h-180l-7 -125c20 3 49 3 63 3c80 0 143 -14 143 -99v-39c0 -85 -64 -100 -148 -100c-29 0 -71 2 -97 5c-5 1 -7 3 -7 8v25c0 3 2 5 5 5h95c65 0 104 10 104 65v22c0 55 -39 66 -104 66h-92c-6 0 -8 2 -8 6v29l11 163c0 5 3 8 8 8z" />
    <glyph glyph-name="uni2465" unicode="&#x2465;" horiz-adv-x="800" 
d="M401 11c-234 0 -360 125 -360 359c0 233 126 359 360 359c233 0 358 -128 358 -359c0 -234 -125 -359 -358 -359zM401 49c213 0 321 107 321 321c0 211 -108 321 -321 321c-214 0 -322 -108 -322 -321c0 -214 108 -321 322 -321zM385 568h40c4 0 6 -3 4 -6l-86 -165
c18 7 41 8 65 8c78 0 131 -20 131 -97v-43c0 -82 -58 -99 -138 -99s-139 16 -139 99v40c0 25 3 38 11 54l106 205c1 2 3 4 6 4zM401 365c-59 0 -91 -11 -91 -66v-24c0 -54 32 -66 91 -66s91 12 91 66v24c0 55 -32 66 -91 66z" />
    <glyph glyph-name="uni2466" unicode="&#x2466;" horiz-adv-x="800" 
d="M401 11c-234 0 -360 125 -360 359c0 233 126 359 360 359c233 0 358 -128 358 -359c0 -234 -125 -359 -358 -359zM401 49c213 0 321 107 321 321c0 211 -108 321 -321 321c-214 0 -322 -108 -322 -321c0 -214 108 -321 322 -321zM269 568h263c4 0 6 -2 6 -5v-25
c0 -3 -1 -5 -3 -7l-183 -358c-2 -3 -4 -4 -6 -4h-44c-4 0 -5 3 -3 6l180 351h-210c-3 0 -5 2 -5 5v32c0 3 2 5 5 5z" />
    <glyph glyph-name="uni2467" unicode="&#x2467;" horiz-adv-x="800" 
d="M401 11c-234 0 -360 125 -360 359c0 233 126 359 360 359c233 0 358 -128 358 -359c0 -234 -125 -359 -358 -359zM401 49c213 0 321 107 321 321c0 211 -108 321 -321 321c-214 0 -322 -108 -322 -321c0 -214 108 -321 322 -321zM398 571h8c88 0 129 -36 129 -110
c0 -47 -16 -77 -52 -97c45 -18 62 -49 62 -91c0 -72 -46 -107 -140 -107h-9c-94 0 -140 35 -140 108c0 48 24 81 64 103c-36 19 -52 44 -52 86c0 72 42 108 130 108zM404 529h-7c-54 0 -82 -23 -82 -68c0 -41 26 -58 56 -64l75 -15c29 17 40 45 40 75c0 47 -26 72 -82 72z
M437 342l-80 17c-35 -17 -53 -43 -53 -79c0 -48 32 -71 92 -71h8c63 0 93 23 93 66c0 39 -22 60 -60 67z" />
    <glyph glyph-name="uni2468" unicode="&#x2468;" horiz-adv-x="800" 
d="M401 11c-234 0 -360 125 -360 359c0 233 126 359 360 359c233 0 358 -128 358 -359c0 -234 -125 -359 -358 -359zM401 49c213 0 321 107 321 321c0 211 -108 321 -321 321c-214 0 -322 -108 -322 -321c0 -214 108 -321 322 -321zM400 570c80 0 139 -16 139 -99v-39
c0 -25 -3 -38 -11 -54l-106 -205c-1 -3 -3 -4 -6 -4h-40c-4 0 -5 3 -3 6l85 166c-18 -8 -41 -9 -64 -9c-78 0 -132 19 -132 97v42c0 84 58 99 138 99zM400 528c-59 0 -90 -11 -90 -65v-25c0 -54 31 -66 90 -66s92 12 92 66v25c0 54 -33 65 -92 65z" />
    <glyph glyph-name="uni24FF" unicode="&#x24ff;" horiz-adv-x="800" 
d="M400 10c-224 0 -341 116 -341 340s117 340 341 340s340 -118 340 -340c0 -224 -116 -340 -340 -340zM399 551c-117 0 -146 -47 -146 -203c0 -155 29 -201 146 -201c118 0 147 46 147 201c0 156 -29 203 -147 203zM399 509c80 0 99 -38 99 -161s-19 -159 -99 -159
c-79 0 -98 36 -98 159s19 161 98 161z" />
    <glyph glyph-name="uni2776" unicode="&#x2776;" horiz-adv-x="800" 
d="M400 10c-224 0 -341 116 -341 340s117 340 341 340s340 -118 340 -340c0 -224 -116 -340 -340 -340zM500 192h-64v299c0 56 -44 60 -76 60c-16 0 -29 -2 -44 -4c-3 -1 -5 -3 -5 -6v-25c0 -4 2 -5 6 -5h33c20 0 40 -2 40 -30v-289h-66c-4 0 -5 -3 -5 -6v-31
c0 -4 1 -6 5 -6h176c3 0 5 2 5 5v32c0 4 -2 6 -5 6z" />
    <glyph glyph-name="uni2777" unicode="&#x2777;" horiz-adv-x="800" 
d="M400 10c-224 0 -341 116 -341 340s117 340 341 340s340 -118 340 -340c0 -224 -116 -340 -340 -340zM381 551c-32 0 -63 -2 -91 -5c-5 -1 -7 -3 -7 -7v-26c0 -3 2 -4 4 -4h90c59 0 100 -10 100 -62v-19c0 -27 -4 -47 -31 -63l-119 -75c-42 -27 -58 -44 -58 -83v-43
c0 -9 3 -15 14 -15h244c2 0 3 1 3 3v37c0 2 -1 3 -4 3h-202v20c0 21 17 36 40 49l110 68c46 29 51 56 51 92v35c0 83 -68 95 -144 95z" />
    <glyph glyph-name="uni2778" unicode="&#x2778;" horiz-adv-x="800" 
d="M400 10c-224 0 -341 116 -341 340s117 340 341 340s340 -118 340 -340c0 -224 -116 -340 -340 -340zM379 551c-30 0 -72 -2 -98 -5c-4 0 -7 -2 -7 -7v-26c0 -3 2 -4 5 -4h95c65 0 104 -10 104 -63v-13c0 -53 -35 -65 -94 -65h-83c-3 0 -5 -2 -5 -5v-29c0 -3 2 -5 5 -5h83
c59 0 94 -12 94 -64v-13c0 -54 -39 -63 -104 -63h-95c-3 0 -5 -2 -5 -5v-25c0 -6 3 -8 7 -8c26 -2 68 -5 98 -5c85 0 147 14 147 98v22c0 43 -22 75 -65 83c44 8 65 39 65 82v23c0 83 -63 97 -147 97z" />
    <glyph glyph-name="uni2779" unicode="&#x2779;" horiz-adv-x="800" 
d="M400 10c-224 0 -341 116 -341 340s117 340 341 340s340 -118 340 -340c0 -224 -116 -340 -340 -340zM369 548h-38c-3 0 -5 -1 -6 -4l-73 -243c-2 -5 -4 -11 -4 -16v-23c0 -4 2 -5 5 -5h179v-102c0 -4 2 -6 5 -6h38c3 0 5 2 5 6v102h66c3 0 5 1 5 5v32c0 3 -2 5 -5 5h-66
v117c0 5 -2 5 -6 4l-38 -13c-3 -1 -4 -3 -4 -6v-102h-133l73 243c1 4 0 6 -3 6z" />
    <glyph glyph-name="uni277A" unicode="&#x277a;" horiz-adv-x="800" 
d="M400 10c-224 0 -341 116 -341 340s117 340 341 340s340 -118 340 -340c0 -224 -116 -340 -340 -340zM507 548h-214c-5 0 -8 -3 -8 -8l-11 -163v-29c0 -4 2 -6 8 -6h92c65 0 104 -11 104 -66v-22c0 -55 -39 -65 -104 -65h-95c-3 0 -5 -2 -5 -5v-25c0 -5 2 -7 7 -8
c26 -3 68 -5 97 -5c84 0 148 15 148 100v39c0 85 -63 99 -143 99c-14 0 -43 0 -63 -3l7 125h180c3 0 5 2 5 5v32c0 3 -2 5 -5 5z" />
    <glyph glyph-name="uni277B" unicode="&#x277b;" horiz-adv-x="800" 
d="M400 10c-224 0 -341 116 -341 340s117 340 341 340s340 -118 340 -340c0 -224 -116 -340 -340 -340zM424 548h-40c-3 0 -5 -2 -6 -4l-106 -205c-8 -16 -11 -29 -11 -54v-40c0 -83 59 -99 139 -99s138 17 138 99v43c0 77 -53 97 -131 97c-24 0 -47 -1 -65 -8l86 165
c2 3 0 6 -4 6zM400 345c59 0 91 -11 91 -66v-24c0 -54 -32 -66 -91 -66s-91 12 -91 66v24c0 55 32 66 91 66z" />
    <glyph glyph-name="uni277C" unicode="&#x277c;" horiz-adv-x="800" 
d="M400 10c-224 0 -341 116 -341 340s117 340 341 340s340 -118 340 -340c0 -224 -116 -340 -340 -340zM531 548h-263c-3 0 -5 -2 -5 -5v-32c0 -3 2 -5 5 -5h210l-180 -351c-2 -3 -1 -6 3 -6h44c2 0 4 1 6 4l183 358c2 2 3 4 3 7v25c0 3 -2 5 -6 5z" />
    <glyph glyph-name="uni277D" unicode="&#x277d;" horiz-adv-x="800" 
d="M400 10c-224 0 -341 116 -341 340s117 340 341 340s340 -118 340 -340c0 -224 -116 -340 -340 -340zM405 551h-8c-88 0 -130 -36 -130 -108c0 -42 16 -67 52 -86c-40 -22 -64 -55 -64 -103c0 -73 46 -108 140 -108h9c94 0 140 35 140 107c0 42 -17 73 -62 91
c36 20 52 50 52 97c0 74 -41 110 -129 110zM396 509h7c56 0 82 -25 82 -72c0 -30 -11 -58 -40 -75l-75 15c-30 6 -56 23 -56 64c0 45 28 68 82 68zM356 339l80 -17c38 -7 60 -28 60 -67c0 -43 -30 -66 -93 -66h-8c-60 0 -92 23 -92 71c0 36 18 62 53 79z" />
    <glyph glyph-name="uni277E" unicode="&#x277e;" horiz-adv-x="800" 
d="M400 10c-224 0 -341 116 -341 340s117 340 341 340s340 -118 340 -340c0 -224 -116 -340 -340 -340zM399 550c-80 0 -138 -15 -138 -99v-42c0 -78 54 -97 132 -97c23 0 46 1 64 9l-85 -166c-2 -3 -1 -6 3 -6h40c3 0 5 1 6 4l106 205c8 16 11 29 11 54v39
c0 83 -59 99 -139 99zM399 508c59 0 92 -11 92 -65v-25c0 -54 -33 -66 -92 -66s-90 12 -90 66v25c0 54 31 65 90 65z" />
    <glyph glyph-name="zerosuperior" unicode="&#x2070;" horiz-adv-x="377" 
d="M188 890c118 0 147 -47 147 -203s-29 -201 -147 -201c-117 0 -146 45 -146 201s29 203 146 203zM188 848c-79 0 -98 -38 -98 -161s19 -159 98 -159c80 0 99 36 99 159s-19 161 -99 161z" />
    <glyph glyph-name="onesuperior" unicode="&#xb9;" horiz-adv-x="244" 
d="M154 531h64c3 0 6 -2 6 -6v-31c0 -3 -3 -5 -6 -5h-176c-3 0 -5 2 -5 5v31c0 3 2 6 5 6h66v289c0 28 -20 30 -40 30h-33c-3 0 -5 1 -5 5v25c0 4 1 5 5 6c15 3 28 4 43 4c32 0 76 -4 76 -60v-299z" />
    <glyph glyph-name="twosuperior" unicode="&#xb2;" horiz-adv-x="332" 
d="M145 890c75 0 144 -12 144 -94v-35c0 -37 -5 -63 -51 -93l-110 -67c-23 -14 -41 -29 -41 -50v-20h203c3 0 4 -1 4 -3v-36c0 -2 -1 -3 -3 -3h-245c-10 0 -13 6 -13 15v42c0 39 15 56 57 83l120 75c27 17 31 36 31 63v20c0 52 -42 61 -100 61h-90c-3 0 -4 1 -4 5v25
c0 5 2 6 6 7c29 3 60 5 92 5z" />
    <glyph glyph-name="threesuperior" unicode="&#xb3;" horiz-adv-x="335" 
d="M144 890c84 0 147 -14 147 -96v-23c0 -43 -21 -74 -64 -83c42 -8 64 -39 64 -82v-23c0 -83 -62 -97 -147 -97c-30 0 -71 2 -97 4c-5 1 -8 3 -8 8v25c0 3 2 5 5 5h96c64 0 103 9 103 63v13c1 53 -35 65 -94 65h-83c-3 0 -4 1 -4 5v28c0 4 1 5 4 5h83c59 0 94 12 94 65v13
c0 54 -39 63 -103 63h-96c-3 0 -5 1 -5 4v27c0 4 3 6 8 7c26 3 67 4 97 4z" />
    <glyph glyph-name="foursuperior" unicode="&#x2074;" horiz-adv-x="354" 
d="M110 887h38c4 0 5 -2 3 -5l-73 -244h133v103c0 3 1 5 4 6l38 12c4 1 6 1 6 -4v-117h66c4 0 6 -2 6 -5v-32c0 -4 -2 -5 -6 -5h-66v-102c0 -3 -2 -5 -5 -5h-38c-3 0 -5 2 -5 5v102h-179c-3 0 -5 1 -5 5v23c0 5 2 12 4 17l73 243c1 3 3 3 6 3z" />
    <glyph glyph-name="fivesuperior" unicode="&#x2075;" horiz-adv-x="332" 
d="M63 887h213c3 0 6 -1 6 -4v-33c0 -3 -3 -5 -6 -5h-179l-8 -124c21 2 50 2 63 2c80 0 143 -14 143 -99v-39c0 -85 -64 -99 -148 -99c-29 0 -71 1 -97 4c-4 1 -7 3 -7 8v25c0 3 2 5 5 5h96c65 0 103 11 103 65v22c0 55 -38 66 -103 66h-93c-6 0 -8 2 -8 6v30l11 163
c1 5 3 7 9 7z" />
    <glyph glyph-name="sixsuperior" unicode="&#x2076;" horiz-adv-x="341" 
d="M157 887h40c4 0 6 -2 4 -6l-86 -165c18 7 41 9 65 9c78 0 131 -20 131 -97v-43c0 -83 -58 -99 -138 -99s-139 16 -139 99v40c0 24 2 37 11 54l106 205c1 2 3 3 6 3zM173 684c-59 0 -91 -11 -91 -66v-24c0 -54 32 -66 91 -66s91 12 91 66v24c0 55 -32 66 -91 66z" />
    <glyph glyph-name="sevensuperior" unicode="&#x2077;" horiz-adv-x="318" 
d="M27 887h264c3 0 5 -1 5 -4v-25c0 -3 -1 -6 -2 -8l-184 -358c-1 -2 -3 -3 -6 -3h-44c-4 0 -5 2 -3 6l181 350h-211c-3 0 -5 2 -5 5v33c0 3 2 4 5 4z" />
    <glyph glyph-name="eightsuperior" unicode="&#x2078;" horiz-adv-x="366" 
d="M179 890h9c88 0 128 -35 128 -110c0 -46 -15 -76 -52 -97c46 -17 63 -48 63 -91c0 -72 -47 -106 -140 -106h-10c-93 0 -139 34 -139 107c0 49 23 81 64 103c-36 19 -52 44 -52 86c0 73 41 108 129 108zM187 848h-7c-54 0 -82 -23 -82 -68c0 -41 26 -58 56 -64l75 -14
c29 17 40 44 40 75c0 46 -27 71 -82 71zM218 661l-79 17c-35 -17 -53 -43 -53 -79c0 -48 32 -71 92 -71h8c63 0 93 23 93 66c0 40 -22 60 -61 67z" />
    <glyph glyph-name="ninesuperior" unicode="&#x2079;" horiz-adv-x="340" 
d="M168 890c80 0 139 -16 139 -99v-40c0 -25 -3 -38 -11 -54l-106 -205c-1 -2 -3 -3 -6 -3h-40c-4 0 -5 2 -3 6l85 165c-18 -7 -41 -9 -64 -9c-79 0 -132 20 -132 97v43c0 83 58 99 138 99zM168 847c-59 0 -90 -11 -90 -65v-25c0 -54 31 -66 90 -66s92 12 92 66v25
c0 54 -33 65 -92 65z" />
    <glyph glyph-name="asterisk" unicode="*" horiz-adv-x="420" 
d="M198 759h22c7 0 10 -4 10 -11l-2 -134l123 46c7 3 11 0 13 -5l7 -21c2 -7 0 -11 -7 -13l-125 -41l85 -102c5 -6 4 -10 -1 -14l-16 -13c-6 -5 -11 -3 -14 2l-83 106l-81 -108c-4 -5 -8 -6 -14 -1l-16 12c-6 4 -7 8 -2 14l83 104l-125 41c-7 1 -9 5 -7 12l7 21
c1 6 7 9 13 6l123 -46l-2 134c-1 7 3 11 9 11z" />
    <glyph glyph-name="backslash" unicode="\" horiz-adv-x="437" 
d="M31 770h27c7 0 10 -3 13 -11l340 -776c3 -7 1 -10 -5 -10h-27c-6 0 -10 2 -14 10l-339 776c-2 7 -1 11 5 11z" />
    <glyph glyph-name="periodcentered" unicode="&#xb7;" horiz-adv-x="220" 
d="M110 304c24 0 36 -13 36 -37s-13 -37 -36 -37c-24 0 -37 13 -37 37s13 37 37 37z" />
    <glyph glyph-name="bullet" unicode="&#x2022;" horiz-adv-x="560" 
d="M280 375c70 0 111 -37 111 -100c0 -62 -41 -100 -111 -100s-111 38 -111 100c0 63 41 100 111 100z" />
    <glyph glyph-name="colon" unicode=":" horiz-adv-x="222" 
d="M111 542c25 0 37 -13 37 -37s-13 -37 -37 -37c-23 0 -37 13 -37 37s14 37 37 37zM111 69c25 0 37 -13 37 -36c0 -25 -13 -38 -37 -38c-23 0 -37 13 -37 38c0 23 14 36 37 36z" />
    <glyph glyph-name="comma" unicode="," horiz-adv-x="216" 
d="M99 104h46c4 0 7 -1 7 -6v-11c0 -3 -2 -8 -4 -10l-100 -213c-3 -5 -6 -6 -10 -4l-13 6c-3 2 -4 7 -3 10l68 223c2 4 3 5 9 5z" />
    <glyph glyph-name="ellipsis" unicode="&#x2026;" horiz-adv-x="527" 
d="M99 69c24 0 36 -13 36 -36c0 -25 -13 -38 -36 -38c-24 0 -37 13 -37 38c0 23 13 36 37 36zM264 69c24 0 36 -13 36 -36c0 -25 -13 -38 -36 -38c-24 0 -37 13 -37 38c0 23 13 36 37 36zM429 69c24 0 36 -13 36 -36c0 -25 -12 -38 -36 -38s-37 13 -37 38c0 23 13 36 37 36z
" />
    <glyph glyph-name="exclam" unicode="!" horiz-adv-x="239" 
d="M102 741h34c6 0 10 -3 10 -9v-389c0 -5 0 -9 -1 -16l-7 -148c-1 -6 -3 -10 -9 -10h-19c-6 0 -9 4 -9 10l-8 148v16v389c0 6 3 9 9 9zM119 69c25 0 37 -13 37 -36c0 -25 -13 -38 -37 -38c-23 0 -37 13 -37 38c0 23 14 36 37 36z" />
    <glyph glyph-name="exclamdown" unicode="&#xa1;" horiz-adv-x="228" 
d="M114 542c24 0 37 -14 37 -38s-13 -36 -37 -36c-23 0 -37 12 -37 36s14 38 37 38zM105 378h18c6 0 9 -3 10 -9l7 -148v-16v-389c0 -6 -3 -10 -9 -10h-34c-6 0 -9 4 -9 10v389v16l7 148c1 6 4 9 10 9z" />
    <glyph glyph-name="numbersign" unicode="#" horiz-adv-x="614" 
d="M448 234h103c6 0 9 -4 9 -10v-30c0 -6 -3 -9 -9 -9h-103v-176c0 -6 -4 -9 -10 -9h-33c-6 0 -9 3 -9 9v176h-185v-176c0 -6 -3 -9 -9 -9h-33c-6 0 -9 3 -9 9v176h-96c-6 0 -9 3 -9 9v30c0 6 3 10 9 10h96v268h-97c-6 0 -9 3 -9 9v30c0 6 3 9 9 9h97v182c0 6 3 9 9 9h33
c6 0 9 -3 9 -9v-182h185v182c0 6 3 9 9 9h33c6 0 10 -3 10 -9v-182h102c6 0 9 -3 9 -9v-30c0 -6 -3 -9 -9 -9h-102v-268zM211 234h185v268h-185v-268z" />
    <glyph glyph-name="period" unicode="." horiz-adv-x="197" 
d="M99 69c24 0 36 -13 36 -36c0 -25 -13 -38 -36 -38c-24 0 -37 13 -37 38c0 23 13 36 37 36z" />
    <glyph glyph-name="question" unicode="?" horiz-adv-x="480" 
d="M185 746c134 0 247 -13 247 -170v-57c0 -106 -28 -142 -107 -179l-110 -53c-38 -18 -42 -24 -43 -57l-1 -54c0 -4 -2 -7 -6 -7h-36c-3 0 -6 2 -6 6l-2 72c-1 39 6 50 58 78l123 59c55 26 75 53 75 135v57c0 116 -87 121 -192 121h-143c-6 0 -10 3 -10 9v26c0 5 4 9 9 9
c50 4 100 5 144 5zM147 69c24 0 37 -13 37 -36c0 -25 -13 -38 -37 -38c-23 0 -37 13 -37 38c0 23 14 36 37 36z" />
    <glyph glyph-name="questiondown" unicode="&#xbf;" horiz-adv-x="471" 
d="M329 542c23 0 36 -14 36 -38s-12 -36 -36 -36s-37 12 -37 36s13 38 37 38zM311 378h35c4 0 6 -2 6 -6l2 -72c2 -39 -6 -50 -58 -78l-122 -59c-55 -26 -75 -53 -75 -135v-49c0 -116 98 -129 211 -129h124c6 0 9 -3 9 -9v-26c0 -5 -3 -9 -9 -10c-50 -3 -80 -4 -124 -4
c-143 0 -267 21 -267 178v49c0 105 28 142 108 179l110 53c37 18 41 23 42 57l2 54c0 4 2 7 6 7z" />
    <glyph glyph-name="quotedbl" unicode="&#x22;" horiz-adv-x="353" 
d="M80 741h34c6 0 9 -3 9 -9v-130v-16l-8 -118c0 -6 -3 -10 -9 -10h-19c-6 0 -8 4 -9 10l-7 118c-1 8 -1 11 -1 16v130c0 6 4 9 10 9zM240 741h34c6 0 9 -3 9 -9v-130v-16l-8 -118c0 -6 -3 -10 -9 -10h-18c-6 0 -9 4 -10 10l-7 118c-1 8 -1 11 -1 16v130c0 6 4 9 10 9z" />
    <glyph glyph-name="quotesingle" unicode="'" horiz-adv-x="192" 
d="M79 741h34c6 0 9 -3 9 -9v-130v-16l-7 -118c-1 -6 -4 -10 -10 -10h-18c-6 0 -9 4 -10 10l-7 118v16v130c0 6 3 9 9 9z" />
    <glyph glyph-name="semicolon" unicode=";" horiz-adv-x="246" 
d="M129 542c24 0 36 -13 36 -37s-12 -37 -36 -37s-37 13 -37 37s13 37 37 37zM113 104h46c4 0 6 -1 6 -6v-11c0 -3 -1 -8 -3 -10l-101 -213c-2 -5 -5 -6 -10 -4l-12 6c-4 2 -4 7 -3 10l68 223c2 4 3 5 9 5z" />
    <glyph glyph-name="slash" unicode="/" horiz-adv-x="437" 
d="M379 770h27c6 0 7 -4 4 -11l-338 -776c-4 -8 -8 -10 -14 -10h-28c-6 0 -7 3 -4 10l339 776c4 8 7 11 14 11z" />
    <glyph glyph-name="underscore" unicode="_" horiz-adv-x="506" 
d="M9 -42h488c6 0 9 -3 9 -9v-23c0 -6 -3 -9 -9 -9h-488c-6 0 -9 3 -9 9v23c0 6 3 9 9 9z" />
    <glyph glyph-name="asterisk.alt" horiz-adv-x="434" 
d="M203 767h25c7 0 12 -5 12 -12l-8 -115c0 -6 -4 -11 -11 -11h-10c-7 0 -12 5 -12 11l-7 115c0 7 5 12 11 12zM54 640l8 25c2 6 8 9 15 6l107 -42c6 -2 10 -8 8 -14l-3 -10c-2 -7 -9 -9 -16 -7l-110 28c-7 2 -11 9 -9 14zM370 665l8 -24c1 -7 -2 -13 -9 -15l-111 -28
c-7 -2 -13 0 -15 7l-2 10c-2 6 0 12 7 14l107 42c6 3 13 -1 15 -6zM129 460l-21 15c-5 3 -5 11 -1 16l72 88c5 6 11 7 17 3l8 -6c5 -4 7 -10 2 -16l-61 -97c-4 -5 -11 -7 -16 -3zM324 475l-21 -15c-5 -4 -12 -2 -16 3l-61 97c-5 6 -3 12 2 16l8 6c5 4 12 3 17 -2l72 -89
c4 -5 4 -13 -1 -16z" />
    <glyph glyph-name="numbersign.alt" horiz-adv-x="724" 
d="M558 719h22c10 0 15 -8 13 -17l-37 -144h123c10 0 13 -8 13 -16v-21c0 -9 -8 -13 -15 -13h-134l-72 -280h123c11 0 12 -8 12 -15v-21c0 -9 -8 -13 -14 -13h-134l-45 -167c-3 -7 -7 -12 -15 -12h-23c-9 0 -14 8 -12 17l43 162h-179l-45 -167c-3 -7 -7 -12 -15 -12h-22
c-10 0 -14 8 -13 17l43 162h-130c-11 0 -13 8 -13 16v21c0 8 8 12 15 12h141l73 280h-130c-11 0 -13 8 -13 15v22c0 8 8 13 15 13h140l40 149c2 7 7 12 14 12h22c10 0 15 -8 13 -17l-37 -144h179l39 149c3 7 8 12 15 12zM492 508h-180l-72 -280h179z" />
    <glyph glyph-name="periodcentered.case" horiz-adv-x="225" 
d="M113 406c24 0 36 -13 36 -37s-13 -37 -36 -37c-24 0 -37 13 -37 37s13 37 37 37z" />
    <glyph glyph-name="bullet.case" horiz-adv-x="560" 
d="M280 469c70 0 111 -37 111 -100c0 -62 -41 -100 -111 -100s-111 38 -111 100c0 63 41 100 111 100z" />
    <glyph glyph-name="exclamdown.case" horiz-adv-x="246" 
d="M123 746c24 0 37 -13 37 -37s-13 -37 -37 -37c-23 0 -37 13 -37 37s14 37 37 37zM114 572h18c6 0 9 -3 10 -10l7 -148v-16v-389c0 -6 -3 -9 -9 -9h-34c-6 0 -9 3 -9 9v389v16l7 148c1 7 4 10 10 10z" />
    <glyph glyph-name="questiondown.case" horiz-adv-x="477" 
d="M332 747c23 0 36 -14 36 -38c0 -23 -12 -36 -36 -36s-37 13 -37 36c0 24 13 38 37 38zM314 573h35c4 0 6 -2 6 -6l2 -71c2 -40 -6 -52 -58 -78l-122 -60c-55 -26 -75 -53 -75 -135v-49c0 -116 98 -128 211 -128h124c6 0 9 -4 9 -10v-26c0 -5 -3 -9 -9 -9
c-50 -4 -80 -5 -124 -5c-143 0 -267 21 -267 178v49c0 106 29 141 108 179l110 53c37 18 41 24 42 57l2 54c0 4 2 7 6 7z" />
    <glyph glyph-name="comma.dnom" horiz-adv-x="149" 
d="M60 58h44c2 0 3 -1 3 -3v-9c0 -2 -1 -4 -2 -6l-67 -121c-1 -2 -3 -3 -5 -2l-14 8c-2 1 -2 3 -1 5l37 125c1 2 2 3 5 3z" />
    <glyph glyph-name="period.dnom" horiz-adv-x="137" 
d="M69 51c18 0 28 -9 28 -26c0 -18 -10 -28 -28 -28s-29 10 -29 28c0 17 11 26 29 26z" />
    <glyph glyph-name="semicolon.dnom" horiz-adv-x="176" 
d="M93 292c18 0 28 -10 28 -27s-10 -27 -28 -27s-29 10 -29 27s11 27 29 27zM73 58h44c2 0 3 -1 3 -3v-9c0 -2 -1 -4 -1 -6l-68 -121c-2 -2 -3 -3 -5 -1l-14 7c-2 1 -2 3 -1 5l38 125c0 2 1 3 4 3z" />
    <glyph glyph-name="comma.numr" horiz-adv-x="149" 
d="M59 401h44c2 0 3 -1 3 -4v-8c0 -3 -1 -5 -2 -7l-67 -120c-1 -2 -3 -3 -5 -2l-14 7c-2 1 -2 3 -1 6l37 125c1 2 2 3 5 3z" />
    <glyph glyph-name="period.numr" horiz-adv-x="137" 
d="M69 394c18 0 28 -10 28 -27s-10 -27 -28 -27s-29 10 -29 27s11 27 29 27z" />
    <glyph glyph-name="semicolon.numr" horiz-adv-x="176" 
d="M93 634c18 0 28 -10 28 -26c0 -18 -10 -28 -28 -28s-29 10 -29 28c0 16 11 26 29 26zM73 401h44c2 0 3 -1 3 -4v-8c0 -3 -1 -5 -1 -6l-68 -121c-2 -2 -3 -3 -5 -2l-14 7c-2 1 -2 3 -1 6l38 125c0 2 1 3 4 3z" />
    <glyph glyph-name="comma.subs" horiz-adv-x="149" 
d="M59 -116h44c2 0 3 -1 3 -4v-8c0 -3 -1 -5 -2 -7l-67 -120c-1 -2 -3 -3 -5 -2l-14 7c-2 1 -2 3 -1 6l37 125c1 2 2 3 5 3z" />
    <glyph glyph-name="period.subs" horiz-adv-x="137" 
d="M69 -123c18 0 28 -10 28 -27s-10 -27 -28 -27s-29 10 -29 27s11 27 29 27z" />
    <glyph glyph-name="semicolon.subs" horiz-adv-x="176" 
d="M93 117c18 0 28 -10 28 -26c0 -17 -10 -28 -28 -28s-29 11 -29 28c0 16 11 26 29 26zM73 -116h44c2 0 3 -1 3 -4v-8c0 -3 -1 -5 -1 -6l-68 -121c-2 -2 -3 -3 -5 -2l-14 7c-2 1 -2 3 -1 6l38 125c0 2 1 3 4 3z" />
    <glyph glyph-name="comma.sups" horiz-adv-x="149" 
d="M60 547h44c2 0 3 -1 3 -4v-8c0 -3 -1 -5 -2 -7l-67 -120c-1 -2 -3 -3 -5 -2l-14 7c-2 1 -2 3 -1 6l37 125c1 2 2 3 5 3z" />
    <glyph glyph-name="period.sups" horiz-adv-x="137" 
d="M69 540c18 0 28 -10 28 -27s-10 -27 -28 -27s-29 10 -29 27s11 27 29 27z" />
    <glyph glyph-name="semicolon.sups" horiz-adv-x="176" 
d="M93 780c18 0 28 -10 28 -26c0 -18 -10 -28 -28 -28s-29 10 -29 28c0 16 11 26 29 26zM73 547h44c2 0 3 -1 3 -4v-8c0 -3 -1 -5 -1 -6l-68 -121c-2 -2 -3 -3 -5 -2l-14 7c-2 1 -2 3 -1 6l38 125c0 2 1 3 4 3z" />
    <glyph glyph-name="braceleft" unicode="{" horiz-adv-x="308" 
d="M219 804c10 0 25 -1 43 -2c6 -1 8 -3 8 -9v-28c0 -6 -3 -9 -9 -9h-42c-57 0 -65 -30 -60 -81l27 -258c3 -25 -6 -39 -27 -50l-62 -27v-3l62 -27c21 -10 30 -25 27 -50l-27 -258c-5 -51 3 -81 60 -81h42c6 0 9 -3 9 -9v-28c0 -5 -2 -8 -8 -9c-18 -1 -33 -2 -43 -2
c-99 0 -124 42 -115 130l27 257c1 8 -3 14 -9 17l-75 34c-6 3 -7 9 -7 16v23c0 7 1 13 7 17l75 33c6 3 10 9 9 17l-27 257c-9 88 16 130 115 130z" />
    <glyph glyph-name="braceright" unicode="}" horiz-adv-x="308" 
d="M90 804c98 0 124 -42 114 -130l-27 -257c-1 -8 3 -14 9 -17l75 -33c6 -4 7 -10 7 -17v-23c0 -7 -1 -13 -7 -16l-75 -34c-6 -3 -10 -9 -9 -17l27 -257c10 -88 -16 -130 -114 -130c-10 0 -26 1 -43 2c-7 1 -9 4 -9 9v28c0 6 3 9 9 9h43c57 0 64 30 59 81l-27 258
c-3 25 6 40 27 50l62 27v3l-62 27c-21 11 -30 25 -27 50l27 258c5 51 -2 81 -59 81h-43c-6 0 -9 3 -9 9v28c0 6 2 8 9 9c17 1 33 2 43 2z" />
    <glyph glyph-name="bracketleft" unicode="[" horiz-adv-x="344" 
d="M104 798h198c6 0 9 -3 9 -9v-29c0 -6 -3 -10 -9 -10h-155v-822h155c6 0 9 -4 9 -10v-29c0 -6 -3 -9 -9 -9h-198c-6 0 -10 3 -10 9v900c0 6 4 9 10 9z" />
    <glyph glyph-name="bracketright" unicode="]" horiz-adv-x="344" 
d="M42 798h198c6 0 10 -3 10 -9v-900c0 -6 -4 -9 -10 -9h-198c-6 0 -9 3 -9 9v29c0 6 3 10 9 10h155v822h-155c-6 0 -9 4 -9 10v29c0 6 3 9 9 9z" />
    <glyph glyph-name="parenleft" unicode="(" horiz-adv-x="294" 
d="M228 798h34c3 0 5 -2 5 -5v-8c0 -2 -1 -4 -2 -6c-153 -209 -151 -257 -151 -440c0 -179 -2 -230 151 -439c1 -2 2 -4 2 -6v-8c0 -3 -2 -5 -5 -5h-34c-4 0 -7 1 -9 4c-158 203 -158 257 -158 454c0 201 0 252 158 455c2 3 5 4 9 4z" />
    <glyph glyph-name="parenleftsuperior" unicode="&#x207d;" horiz-adv-x="186" 
d="M130 915h32c2 0 3 -1 3 -3v-4c0 -2 -1 -4 -2 -5c-81 -111 -78 -138 -78 -234c0 -97 6 -119 78 -235c1 -1 2 -2 2 -4v-4c0 -2 -1 -3 -3 -3h-32c-3 0 -4 0 -6 2c-86 104 -83 138 -83 244s-5 141 83 243c2 2 3 3 6 3z" />
    <glyph glyph-name="parenright" unicode=")" horiz-adv-x="295" 
d="M32 798h34c5 0 7 -1 9 -4c159 -203 158 -254 158 -455c0 -197 1 -251 -158 -454c-2 -3 -4 -4 -9 -4h-34c-3 0 -5 2 -5 5v8c0 2 1 4 2 6c154 209 151 260 151 439c0 183 3 231 -151 440c-1 2 -2 4 -2 6v8c0 3 2 5 5 5z" />
    <glyph glyph-name="parenrightsuperior" unicode="&#x207e;" horiz-adv-x="186" 
d="M24 915h32c3 0 4 -1 6 -3c86 -104 83 -137 83 -243s5 -142 -83 -244c-2 -2 -3 -2 -6 -2h-32c-2 0 -3 1 -3 3v4c0 2 1 3 2 4c81 111 78 138 78 235c0 96 -6 118 -78 234c-1 1 -2 3 -2 5v4c0 2 1 3 3 3z" />
    <glyph glyph-name="braceleft.case" horiz-adv-x="314" 
d="M222 836c10 0 26 -1 43 -2c7 -1 9 -4 9 -9v-28c0 -6 -3 -10 -9 -10h-43c-57 0 -64 -30 -59 -80l27 -258c3 -25 -6 -40 -27 -50l-62 -27v-4l62 -27c21 -10 30 -25 27 -49l-27 -259c-5 -50 2 -80 59 -80h43c6 0 9 -4 9 -10v-28c0 -5 -2 -8 -9 -9c-17 -1 -33 -2 -43 -2
c-98 0 -124 43 -114 131l27 257c1 7 -3 14 -9 17l-75 33c-6 3 -7 9 -7 17v22c0 8 1 14 7 17l75 33c6 3 10 10 9 17l-27 257c-10 88 16 131 114 131z" />
    <glyph glyph-name="braceright.case" horiz-adv-x="314" 
d="M91 836c99 0 124 -43 115 -131l-27 -257c-1 -7 3 -14 9 -17l75 -33c6 -3 7 -9 7 -17v-22c0 -8 -1 -14 -7 -17l-75 -33c-6 -3 -10 -10 -9 -17l27 -257c9 -88 -16 -131 -115 -131c-10 0 -25 1 -43 2c-6 1 -8 4 -8 9v28c0 6 3 10 9 10h42c57 0 65 30 60 80l-27 259
c-3 24 6 39 27 49l62 27v4l-62 27c-21 10 -30 25 -27 50l27 258c5 50 -3 80 -60 80h-42c-6 0 -9 4 -9 10v28c0 5 2 8 8 9c18 1 33 2 43 2z" />
    <glyph glyph-name="bracketleft.case" horiz-adv-x="350" 
d="M108 833h198c6 0 9 -4 9 -10v-29c0 -6 -3 -9 -9 -9h-155v-823h155c6 0 9 -3 9 -9v-29c0 -6 -3 -10 -9 -10h-198c-6 0 -10 4 -10 10v899c0 6 4 10 10 10z" />
    <glyph glyph-name="bracketright.case" horiz-adv-x="350" 
d="M45 833h198c6 0 9 -4 9 -10v-899c0 -6 -3 -10 -9 -10h-198c-6 0 -10 4 -10 10v29c0 6 4 9 10 9h154v823h-154c-6 0 -10 3 -10 9v29c0 6 4 10 10 10z" />
    <glyph glyph-name="parenleft.case" horiz-adv-x="299" 
d="M231 828h34c3 0 5 -2 5 -5v-8c0 -2 -1 -4 -2 -6c-153 -209 -151 -257 -151 -440c0 -179 9 -224 151 -439c1 -2 2 -4 2 -6v-8c0 -3 -2 -5 -5 -5h-34c-4 0 -7 1 -9 4c-158 203 -158 257 -158 454c0 201 -7 258 158 455c2 3 5 4 9 4z" />
    <glyph glyph-name="parenright.case" horiz-adv-x="299" 
d="M34 828h34c5 0 7 -1 9 -4c159 -203 158 -254 158 -455c0 -197 7 -257 -158 -454c-2 -3 -4 -4 -9 -4h-34c-3 0 -5 2 -5 5v8c0 2 1 4 2 6c154 209 151 260 151 439c0 183 -8 224 -151 440c-1 2 -2 4 -2 6v8c0 3 2 5 5 5z" />
    <glyph glyph-name="parenleft.dnom" horiz-adv-x="186" 
d="M130 426h32c2 0 3 -1 3 -3v-4c0 -2 -1 -3 -2 -5c-81 -110 -78 -138 -78 -234s-3 -124 78 -234c1 -2 2 -3 2 -5v-4c0 -2 -1 -3 -3 -3h-32c-3 0 -4 1 -6 3c-86 104 -83 137 -83 243s-3 139 83 243c2 2 3 3 6 3z" />
    <glyph glyph-name="parenright.dnom" horiz-adv-x="186" 
d="M24 426h32c3 0 4 -1 6 -3c86 -104 83 -137 83 -243s3 -139 -83 -243c-2 -2 -3 -3 -6 -3h-32c-2 0 -3 1 -3 3v4c0 2 1 3 2 5c81 110 78 138 78 234s3 124 -78 234c-1 2 -2 3 -2 5v4c0 2 1 3 3 3z" />
    <glyph glyph-name="parenleft.numr" horiz-adv-x="186" 
d="M130 768h32c2 0 3 -1 3 -2v-4c0 -2 -1 -4 -2 -5c-81 -111 -78 -138 -78 -234c0 -97 6 -119 78 -235c1 -1 2 -2 2 -4v-4c0 -2 -1 -3 -3 -3h-32c-3 0 -4 0 -6 2c-86 104 -83 138 -83 244s-5 141 83 243c2 2 3 2 6 2z" />
    <glyph glyph-name="parenright.numr" horiz-adv-x="186" 
d="M24 768h32c3 0 4 0 6 -2c86 -104 83 -137 83 -243s5 -142 -83 -244c-2 -2 -3 -2 -6 -2h-32c-2 0 -3 1 -3 3v4c0 2 1 3 2 4c81 111 78 138 78 235c0 96 -6 118 -78 234c-1 1 -2 3 -2 5v4c0 1 1 2 3 2z" />
    </font>
</defs>
</svg>
