<?xml version="1.0" standalone="no"?>
<!DOCTYPE svg PUBLIC "-//W3C//DTD SVG 1.1//EN" "http://www.w3.org/Graphics/SVG/1.1/DTD/svg11.dtd" >
<svg xmlns="http://www.w3.org/2000/svg" xmlns:xlink="http://www.w3.org/1999/xlink" version="1.1">
<metadata>
Created by FontForge 20160407 at Wed Jun 29 19:31:21 2016
 By Jimmy Wärting
Please contact us to learn more about license restrictions.
</metadata>
<defs>
<font id="UniviaProLight-Italic" horiz-adv-x="571" >
  <font-face 
    font-family="Univia Pro Light"
    font-weight="300"
    font-style="italic"
    font-stretch="normal"
    units-per-em="1000"
    panose-1="0 0 4 0 0 0 0 0 0 0"
    ascent="800"
    descent="-200"
    x-height="535"
    cap-height="741"
    bbox="-176.4 -257.392 1218.35 1068.14"
    underline-thickness="50"
    underline-position="-100"
    slope="-9"
    stemh="48"
    stemv="53"
    unicode-range="U+0020-1F603"
  />
<missing-glyph horiz-adv-x="414" 
d="M214 741h456c6 0 9 -3 8 -9l-115 -723c-1 -6 -4 -9 -10 -9h-456c-6 0 -9 3 -8 9l115 723c1 6 4 9 10 9zM406 619c-38 0 -70 -2 -103 -5c-6 -1 -9 -4 -9 -10l-5 -27c0 -5 2 -7 6 -7h103c63 0 111 -4 100 -69l-5 -31c-7 -46 -23 -63 -57 -78l-84 -37
c-39 -20 -47 -30 -49 -59l-5 -43c0 -3 2 -5 5 -5h35c3 0 5 3 6 6l5 28c5 21 10 24 36 36l75 34c55 25 78 48 89 117l6 37c17 103 -59 113 -149 113zM312 190c-23 0 -37 -12 -40 -33s7 -32 29 -32c21 0 35 11 38 32c4 21 -6 33 -27 33z" />
    <glyph glyph-name="f_b" unicode="fb" horiz-adv-x="886" 
d="M339 747c42 0 118 -4 177 -8c6 -1 9 -3 8 -10l-31 -192c47 3 93 5 144 5c194 0 215 -52 181 -270c-35 -223 -73 -277 -252 -277c-59 0 -102 1 -197 15c-9 2 -11 7 -10 15l107 671l-129 3c-67 2 -114 -16 -125 -86l-12 -78h143c6 0 8 -3 5 -10l-9 -26c-2 -6 -5 -8 -11 -8
h-135l-77 -482c-1 -6 -4 -9 -10 -9h-35c-6 0 -9 3 -8 9l77 482h-79c-6 0 -10 3 -9 9l5 26c1 6 5 9 11 9h79l13 86c17 105 107 126 179 126zM629 494h-142l-70 -440c68 -9 113 -11 157 -11c137 0 162 45 191 230c29 179 17 221 -136 221z" />
    <glyph glyph-name="f_f" unicode="ff" horiz-adv-x="654" 
d="M628 747c28 0 61 -3 81 -6c6 -2 7 -4 7 -9l-4 -23c-2 -7 -6 -10 -12 -10h-65c-34 0 -86 -1 -95 -58l-17 -106h143c6 0 8 -3 6 -10l-9 -26c-2 -6 -5 -8 -11 -8h-136l-76 -482c-1 -6 -5 -9 -11 -9h-35c-6 0 -8 3 -7 9l76 482h-270l-77 -482c-1 -6 -5 -9 -11 -9h-34
c-6 0 -9 3 -8 9l76 482h-78c-6 0 -10 2 -9 9l5 26c1 7 5 9 11 9h78l18 114c16 97 109 98 141 98c28 0 65 -3 85 -6c6 -2 7 -4 7 -9l-4 -23c-2 -7 -5 -10 -11 -10h-71c-34 0 -85 -1 -95 -58l-16 -106h270l18 114c15 97 109 98 140 98z" />
    <glyph glyph-name="f_f_b" unicode="ffb" horiz-adv-x="1210" 
d="M664 747c42 0 118 -4 177 -8c6 -1 9 -3 7 -9l-30 -193c47 3 93 5 143 5c195 0 216 -52 181 -270c-35 -223 -72 -277 -251 -277c-59 0 -103 1 -197 15c-9 2 -11 7 -10 15l106 671l-128 3c-67 2 -114 -16 -126 -86l-12 -78h143c7 0 8 -3 6 -9l-9 -28c-2 -5 -6 -7 -11 -7
h-136l-76 -482c-1 -6 -5 -9 -11 -9h-34c-6 0 -9 3 -8 9l76 482h-272l-76 -482c-1 -6 -5 -9 -11 -9h-35c-6 0 -8 3 -7 9l76 482h-79c-6 0 -9 2 -8 9l4 26c1 7 5 9 11 9h79l18 114c15 97 109 98 140 98c28 0 61 -3 81 -6c6 -2 7 -4 7 -9l-4 -23c-2 -7 -6 -10 -12 -10h-65
c-34 0 -86 -1 -95 -58l-17 -106h272l13 86c18 105 107 126 180 126zM954 494h-143l-69 -440c67 -9 113 -11 156 -11c137 0 162 45 191 230c29 179 18 221 -135 221z" />
    <glyph glyph-name="f_f_i" unicode="ffi" horiz-adv-x="870" 
d="M628 747c25 0 55 -3 78 -6c6 -2 7 -4 7 -9l-4 -23c-2 -7 -6 -10 -12 -10h-62c-34 0 -86 -1 -95 -58l-17 -106h294c7 0 10 -2 9 -9l-82 -517c-1 -6 -5 -9 -11 -9h-35c-6 0 -8 3 -7 9l76 482h-251l-76 -482c-1 -6 -5 -9 -11 -9h-35c-6 0 -8 3 -7 9l76 482h-270l-77 -482
c-1 -6 -5 -9 -11 -9h-34c-6 0 -9 3 -8 9l76 482h-78c-6 0 -10 2 -9 9l5 26c1 7 5 9 11 9h78l18 114c16 97 109 98 141 98c28 0 70 -3 91 -6c5 -2 7 -4 6 -9l-4 -23c-1 -7 -5 -10 -11 -10h-76c-34 0 -85 -1 -95 -58l-16 -106h270l18 114c15 97 109 98 140 98zM829 713
c23 0 34 -13 31 -36c-5 -25 -20 -38 -43 -38c-24 0 -35 13 -31 38c3 23 19 36 43 36z" />
    <glyph glyph-name="f_f_j" unicode="ffj" horiz-adv-x="853" 
d="M628 747c28 0 49 -3 70 -6c5 -2 7 -4 6 -9l-4 -23c-1 -7 -5 -10 -11 -10h-54c-34 0 -86 -1 -95 -58l-17 -106h277c7 0 9 -3 9 -9l-102 -640c-13 -80 -68 -81 -97 -81c-9 0 -34 0 -48 3c-7 1 -9 4 -8 10l5 25c1 7 5 9 11 9h37c25 0 42 2 50 52l93 587h-234l-76 -482
c-1 -6 -5 -9 -11 -9h-35c-6 0 -8 3 -7 9l76 482h-270l-77 -482c-1 -6 -5 -9 -11 -9h-34c-6 0 -9 3 -8 9l76 482h-78c-6 0 -10 3 -9 9l5 26c1 6 5 9 11 9h78l18 114c16 97 109 98 141 98c28 0 55 -3 76 -6c5 -2 7 -4 6 -9l-4 -23c-1 -7 -5 -10 -11 -10h-61
c-34 0 -85 -1 -95 -58l-16 -106h270l18 114c15 97 109 98 140 98zM812 713c24 0 34 -13 31 -36c-4 -25 -19 -38 -43 -38c-23 0 -35 13 -30 38c3 23 19 36 42 36z" />
    <glyph glyph-name="f_f_k" unicode="ffk" horiz-adv-x="1110" 
d="M661 747c42 0 117 -4 176 -8c6 -1 10 -3 8 -10l-61 -389l227 189c6 5 11 6 19 6h46c11 0 10 -6 3 -12l-239 -196l219 -313c4 -6 3 -14 -12 -14h-38c-7 0 -12 3 -16 8l-213 308l-49 -307c-1 -6 -4 -9 -10 -9h-35c-6 0 -9 3 -8 9l109 687l-128 3c-68 2 -115 -16 -126 -86
l-12 -78h143c6 0 8 -3 6 -10l-9 -26c-2 -6 -5 -8 -11 -8h-136l-76 -482c-1 -6 -5 -9 -11 -9h-34c-6 0 -9 3 -8 9l76 482h-269l-76 -482c-1 -6 -5 -9 -11 -9h-35c-6 0 -8 3 -7 9l76 482h-79c-6 0 -9 3 -8 9l4 26c1 7 5 9 11 9h79l18 114c15 97 109 98 140 98
c28 0 60 -3 80 -6c6 -2 8 -4 8 -9l-4 -23c-2 -7 -5 -10 -12 -10h-65c-34 0 -86 -1 -95 -58l-17 -106h269l13 86c18 105 107 126 180 126z" />
    <glyph glyph-name="f_f_l" unicode="ffl" horiz-adv-x="858" 
d="M663 747c42 0 117 -4 176 -8c6 -1 9 -3 8 -9l-114 -720c-1 -7 -5 -10 -11 -10h-34c-6 0 -9 3 -8 10l109 686l-128 3c-68 2 -115 -16 -126 -86l-12 -78h143c6 0 8 -3 6 -10l-9 -26c-2 -6 -5 -8 -11 -8h-136l-76 -482c-1 -6 -5 -9 -11 -9h-35c-6 0 -8 3 -7 9l76 482h-270
l-77 -482c-1 -6 -5 -9 -11 -9h-34c-6 0 -9 3 -8 9l76 482h-78c-6 0 -10 3 -9 9l5 26c1 6 5 9 11 9h78l18 114c16 97 109 98 141 98c28 0 81 -3 101 -6c6 -2 8 -4 7 -9l-4 -23c-1 -7 -5 -10 -11 -10h-87c-34 0 -85 -1 -95 -58l-16 -106h270l13 86c18 105 107 126 180 126z
" />
    <glyph glyph-name="f_j" unicode="fj" horiz-adv-x="529" 
d="M305 747c28 0 50 -3 70 -6c6 -2 8 -4 7 -9l-4 -23c-1 -7 -5 -10 -11 -10h-56c-34 0 -85 -1 -95 -58l-16 -106h277c6 0 8 -3 8 -9l-102 -640c-12 -80 -68 -81 -96 -81c-10 0 -33 0 -48 3c-6 1 -9 4 -8 10l4 25c1 7 5 9 11 9h37c25 0 43 2 50 52l93 587h-233l-77 -482
c-1 -6 -5 -9 -11 -9h-34c-6 0 -9 3 -8 9l76 482h-78c-6 0 -10 3 -9 9l5 26c1 7 5 9 11 9h78l18 114c16 97 109 98 141 98zM489 713c23 0 34 -13 31 -36c-5 -25 -20 -38 -43 -38c-24 0 -35 13 -31 38c3 23 19 36 43 36z" />
    <glyph glyph-name="f_k" unicode="fk" horiz-adv-x="788" 
d="M339 747c42 0 118 -4 177 -8c6 -1 9 -3 8 -9l-62 -390l228 189c5 5 10 6 18 6h47c10 0 10 -6 3 -12l-240 -196l219 -313c4 -6 2 -14 -12 -14h-37c-6 0 -13 2 -16 8l-214 308l-48 -307c-1 -6 -5 -9 -11 -9h-35c-6 0 -8 3 -7 9l108 687l-128 3c-67 2 -114 -16 -126 -86
l-11 -78h143c6 0 7 -3 5 -10l-9 -26c-2 -6 -5 -8 -10 -8h-136l-77 -482c-1 -6 -5 -9 -11 -9h-34c-6 0 -9 3 -8 9l76 482h-78c-6 0 -10 3 -9 9l5 26c1 6 5 9 11 9h78l14 86c17 105 107 126 179 126z" />
    <glyph glyph-name="fi" unicode="fi" horiz-adv-x="546" 
d="M305 747c28 0 52 -3 72 -6c6 -2 8 -4 7 -9l-4 -24c-1 -6 -6 -9 -12 -9h-57c-34 0 -85 -1 -95 -58l-16 -106h294c6 0 9 -3 8 -9l-82 -517c-1 -6 -5 -9 -11 -9h-34c-6 0 -9 3 -8 9l76 482h-250l-77 -482c-1 -6 -5 -9 -11 -9h-34c-6 0 -9 3 -8 9l76 482h-78c-6 0 -10 2 -9 9
l5 26c1 6 5 9 11 9h78l18 114c16 97 109 98 141 98zM505 713c24 0 34 -13 31 -36c-4 -25 -19 -38 -43 -38c-23 0 -35 13 -30 38c3 23 19 36 42 36z" />
    <glyph glyph-name="fl" unicode="fl" horiz-adv-x="536" 
d="M339 747c42 0 118 -4 177 -8c6 -1 9 -3 8 -9l-114 -721c-1 -6 -5 -9 -11 -9h-35c-6 0 -8 3 -7 9l108 687l-128 3c-67 2 -114 -16 -126 -86l-11 -78h143c6 0 7 -3 5 -10l-9 -26c-2 -6 -5 -8 -10 -8h-136l-77 -482c-1 -6 -5 -9 -11 -9h-34c-6 0 -9 3 -8 9l76 482h-78
c-6 0 -10 3 -9 9l5 26c1 6 5 9 11 9h78l14 86c17 105 107 126 179 126z" />
    <glyph glyph-name=".notdef" horiz-adv-x="414" 
d="M214 741h456c6 0 9 -3 8 -9l-115 -723c-1 -6 -4 -9 -10 -9h-456c-6 0 -9 3 -8 9l115 723c1 6 4 9 10 9zM406 619c-38 0 -70 -2 -103 -5c-6 -1 -9 -4 -9 -10l-5 -27c0 -5 2 -7 6 -7h103c63 0 111 -4 100 -69l-5 -31c-7 -46 -23 -63 -57 -78l-84 -37
c-39 -20 -47 -30 -49 -59l-5 -43c0 -3 2 -5 5 -5h35c3 0 5 3 6 6l5 28c5 21 10 24 36 36l75 34c55 25 78 48 89 117l6 37c17 103 -59 113 -149 113zM312 190c-23 0 -37 -12 -40 -33s7 -32 29 -32c21 0 35 11 38 32c4 21 -6 33 -27 33z" />
    <glyph glyph-name="A" unicode="A" horiz-adv-x="640" 
d="M388 746c76 0 83 -15 95 -114l75 -622c1 -9 0 -10 -9 -10h-40c-5 0 -7 2 -7 9l-31 241h-324l-107 -241c-3 -7 -4 -9 -10 -9h-41c-7 0 -9 2 -6 10l276 622c43 99 56 114 129 114zM379 697c-34 0 -41 -11 -70 -78l-140 -319h297l-38 319c-8 67 -11 78 -49 78z" />
    <glyph glyph-name="Aacute" unicode="&#xc1;" horiz-adv-x="640" 
d="M470 941h42c5 0 7 -3 7 -8v-5c0 -4 -2 -7 -6 -11l-127 -118c-3 -4 -6 -4 -10 -1l-10 9c-3 3 -3 6 -1 10l96 119c2 3 5 5 9 5zM388 746c76 0 83 -15 95 -114l75 -622c1 -9 0 -10 -9 -10h-40c-5 0 -7 2 -7 9l-31 241h-324l-107 -241c-3 -7 -4 -9 -10 -9h-41
c-7 0 -9 2 -6 10l276 622c43 99 56 114 129 114zM379 697c-34 0 -41 -11 -70 -78l-140 -319h297l-38 319c-8 67 -11 78 -49 78z" />
    <glyph glyph-name="Abreve" unicode="&#x102;" horiz-adv-x="640" 
d="M520 928h21c7 0 9 -2 6 -10c-19 -86 -54 -112 -150 -112c-97 0 -124 26 -117 112c1 8 3 10 11 10h21c6 0 8 -2 8 -8c0 -55 18 -72 83 -72s89 17 106 72c2 6 5 8 11 8zM388 746c76 0 83 -15 95 -114l75 -622c1 -9 0 -10 -9 -10h-40c-5 0 -7 2 -7 9l-31 241h-324l-107 -241
c-3 -7 -4 -9 -10 -9h-41c-7 0 -9 2 -6 10l276 622c43 99 56 114 129 114zM379 697c-34 0 -41 -11 -70 -78l-140 -319h297l-38 319c-8 67 -11 78 -49 78z" />
    <glyph glyph-name="Acaron" unicode="&#x1cd;" horiz-adv-x="640" 
d="M519 939l11 -10c3 -2 4 -6 1 -10l-113 -118c-3 -3 -4 -5 -10 -5h-24c-6 0 -8 1 -10 5l-74 118c-3 4 -1 7 2 10l15 10c3 3 6 3 10 -1l77 -91l105 91c4 4 7 4 10 1zM388 746c76 0 83 -15 95 -114l75 -622c1 -9 0 -10 -9 -10h-40c-5 0 -7 2 -7 9l-31 241h-324l-107 -241
c-3 -7 -4 -9 -10 -9h-41c-7 0 -9 2 -6 10l276 622c43 99 56 114 129 114zM379 697c-34 0 -41 -11 -70 -78l-140 -319h297l-38 319c-8 67 -11 78 -49 78z" />
    <glyph glyph-name="Acircumflex" unicode="&#xc2;" horiz-adv-x="640" 
d="M405 941h24c6 0 8 -2 10 -5l74 -119c3 -4 1 -7 -3 -10l-13 -9c-4 -3 -7 -3 -11 1l-76 91l-106 -91c-4 -4 -6 -4 -10 -1l-11 9c-3 3 -4 6 -1 10l113 119c3 3 4 5 10 5zM388 746c76 0 83 -15 95 -114l75 -622c1 -9 0 -10 -9 -10h-40c-5 0 -7 2 -7 9l-31 241h-324l-107 -241
c-3 -7 -4 -9 -10 -9h-41c-7 0 -9 2 -6 10l276 622c43 99 56 114 129 114zM379 697c-34 0 -41 -11 -70 -78l-140 -319h297l-38 319c-8 67 -11 78 -49 78z" />
    <glyph glyph-name="Adieresis" unicode="&#xc4;" horiz-adv-x="640" 
d="M332 902c23 0 37 -11 32 -38c-3 -25 -18 -40 -44 -40c-24 0 -38 13 -34 40c4 26 21 38 46 38zM492 902c24 0 37 -11 33 -38c-4 -25 -19 -40 -45 -40c-24 0 -38 13 -34 40c5 26 22 38 46 38zM388 746c76 0 83 -15 95 -114l75 -622c1 -9 0 -10 -9 -10h-40c-5 0 -7 2 -7 9
l-31 241h-324l-107 -241c-3 -7 -4 -9 -10 -9h-41c-7 0 -9 2 -6 10l276 622c43 99 56 114 129 114zM379 697c-34 0 -41 -11 -70 -78l-140 -319h297l-38 319c-8 67 -11 78 -49 78z" />
    <glyph glyph-name="Agrave" unicode="&#xc0;" horiz-adv-x="640" 
d="M324 941h43c4 0 6 -1 7 -5l58 -119c2 -4 1 -7 -3 -10l-14 -9c-4 -3 -7 -3 -10 1l-87 117c-2 2 -2 6 -2 10v7c0 5 4 8 8 8zM388 746c76 0 83 -15 95 -114l75 -622c1 -9 0 -10 -9 -10h-40c-5 0 -7 2 -7 9l-31 241h-324l-107 -241c-3 -7 -4 -9 -10 -9h-41c-7 0 -9 2 -6 10
l276 622c43 99 56 114 129 114zM379 697c-34 0 -41 -11 -70 -78l-140 -319h297l-38 319c-8 67 -11 78 -49 78z" />
    <glyph glyph-name="Amacron" unicode="&#x100;" horiz-adv-x="640" 
d="M287 876h241c7 0 10 -2 8 -9l-4 -26c-1 -6 -4 -9 -10 -9l-242 1c-6 0 -9 2 -8 9l4 25c2 7 5 9 11 9zM388 746c76 0 83 -15 95 -114l75 -622c1 -9 0 -10 -9 -10h-40c-5 0 -7 2 -7 9l-31 241h-324l-107 -241c-3 -7 -4 -9 -10 -9h-41c-7 0 -9 2 -6 10l276 622
c43 99 56 114 129 114zM379 697c-34 0 -41 -11 -70 -78l-140 -319h297l-38 319c-8 67 -11 78 -49 78z" />
    <glyph glyph-name="Aogonek" unicode="&#x104;" horiz-adv-x="640" 
d="M388 746c76 0 83 -15 95 -114l75 -622c0 -8 -2 -10 -9 -10h-13c-12 -29 -20 -52 -23 -71c-6 -37 7 -42 45 -42h41c6 0 9 -3 8 -9l-4 -19c0 -6 -4 -10 -10 -12c-20 -3 -37 -5 -50 -5c-59 0 -83 15 -73 75c4 29 15 60 31 92l-30 241h-324l-107 -241c-3 -8 -5 -9 -10 -9h-41
c-7 0 -9 2 -6 10l276 622c43 99 56 114 129 114zM379 697c-34 0 -41 -11 -70 -78l-140 -319h297l-38 319c-8 67 -11 78 -49 78z" />
    <glyph glyph-name="Aring" unicode="&#xc5;" horiz-adv-x="640" 
d="M426 982c63 0 90 -31 80 -92c-9 -61 -47 -92 -109 -92c-63 0 -91 31 -82 92c10 61 47 92 111 92zM421 952c-42 0 -66 -21 -72 -62c-6 -40 10 -62 52 -62c41 0 66 22 72 62c6 41 -11 62 -52 62zM388 746c76 0 83 -15 95 -114l75 -622c1 -9 0 -10 -9 -10h-40
c-5 0 -7 2 -7 9l-31 241h-324l-107 -241c-3 -7 -4 -9 -10 -9h-41c-7 0 -9 2 -6 10l276 622c43 99 56 114 129 114zM379 697c-34 0 -41 -11 -70 -78l-140 -319h297l-38 319c-8 67 -11 78 -49 78z" />
    <glyph glyph-name="Aringacute" unicode="&#x1fa;" horiz-adv-x="640" 
d="M476 1059h42c4 0 6 -2 6 -7v-6c0 -3 -1 -6 -5 -10l-62 -57c40 -10 56 -40 48 -89c-9 -60 -47 -92 -109 -92c-63 0 -91 32 -82 92c9 55 40 86 93 91l59 74c3 3 6 4 10 4zM420 952c-42 0 -66 -21 -72 -62c-6 -40 10 -62 52 -62c41 0 66 22 72 62c6 41 -11 62 -52 62z
M388 746c76 0 83 -15 95 -114l75 -622c1 -9 0 -10 -9 -10h-40c-5 0 -7 2 -7 9l-31 241h-324l-107 -241c-3 -7 -4 -9 -10 -9h-41c-7 0 -9 2 -6 10l276 622c43 99 56 114 129 114zM379 697c-34 0 -41 -11 -70 -78l-140 -319h297l-38 319c-8 67 -11 78 -49 78z" />
    <glyph glyph-name="Atilde" unicode="&#xc3;" horiz-adv-x="640" 
d="M468 816c-54 0 -87 53 -127 53c-23 0 -36 -11 -55 -48c-5 -8 -7 -9 -14 -7l-15 3c-7 2 -7 5 -4 13c27 66 48 87 91 87c54 0 86 -53 127 -53c26 0 39 14 55 46c5 8 7 8 13 7l16 -3c6 -1 8 -4 5 -13c-27 -67 -51 -85 -92 -85zM388 746c76 0 83 -15 95 -114l75 -622
c1 -9 0 -10 -9 -10h-40c-5 0 -7 2 -7 9l-31 241h-324l-107 -241c-3 -7 -4 -9 -10 -9h-41c-7 0 -9 2 -6 10l276 622c43 99 56 114 129 114zM379 697c-34 0 -41 -11 -70 -78l-140 -319h297l-38 319c-8 67 -11 78 -49 78z" />
    <glyph glyph-name="AE" unicode="&#xc6;" horiz-adv-x="966" 
d="M387 745l230 -4h357c6 0 9 -3 8 -9l-5 -31c0 -6 -4 -9 -10 -9h-372l-50 -312h335c6 0 9 -4 8 -10l-5 -31c-1 -6 -5 -9 -11 -9h-335l-44 -281h372c6 0 8 -2 7 -9l-4 -31c-1 -6 -5 -9 -11 -9h-412c-10 0 -14 5 -13 14l37 236h-323l-106 -241c-4 -7 -5 -9 -11 -9h-40
c-7 0 -9 2 -6 10l275 622c44 99 57 113 129 113zM540 695h-161c-35 0 -41 -9 -70 -76l-141 -319h309z" />
    <glyph glyph-name="AEacute" unicode="&#x1fc;" horiz-adv-x="966" 
d="M679 940h42c4 0 6 -2 6 -7v-6c0 -3 -1 -6 -6 -10l-126 -119c-3 -3 -6 -3 -10 0l-11 9c-3 3 -3 6 0 10l95 119c3 3 5 4 10 4zM387 745l230 -4h357c6 0 9 -3 8 -9l-5 -31c0 -6 -4 -9 -10 -9h-372l-50 -312h335c6 0 9 -4 8 -10l-5 -31c-1 -6 -5 -9 -11 -9h-335l-44 -281h372
c6 0 8 -2 7 -9l-4 -31c-1 -6 -5 -9 -11 -9h-412c-10 0 -14 5 -13 14l37 236h-323l-106 -241c-4 -7 -5 -9 -11 -9h-40c-7 0 -9 2 -6 10l275 622c44 99 57 113 129 113zM540 695h-161c-35 0 -41 -9 -70 -76l-141 -319h309z" />
    <glyph glyph-name="B" unicode="B" horiz-adv-x="666" 
d="M404 746c162 0 245 -42 220 -204c-14 -91 -48 -150 -112 -165l-1 -2c82 -16 92 -96 78 -178c-26 -166 -124 -202 -273 -202c-40 0 -209 1 -266 4c-7 0 -9 2 -8 9l115 725c1 7 3 9 10 9c58 3 196 4 237 4zM393 697h-187l-48 -298h209c125 0 181 15 201 140
c21 129 -44 158 -175 158zM399 351h-248l-48 -307h223c117 0 188 27 208 153c19 123 -33 154 -135 154z" />
    <glyph glyph-name="C" unicode="C" 
d="M422 746c45 0 124 -1 173 -5c6 0 9 -3 7 -9l-4 -26c-2 -7 -5 -9 -11 -9h-173c-194 0 -245 -76 -285 -327c-40 -250 -13 -326 182 -326h173c6 0 9 -3 8 -9l-4 -26c-1 -6 -5 -9 -11 -9c-50 -4 -130 -5 -174 -5c-235 0 -275 88 -229 375c45 288 113 376 348 376z" />
    <glyph glyph-name="Cacute" unicode="&#x106;" 
d="M509 941h43c4 0 6 -3 6 -8v-5c0 -4 -2 -7 -6 -11l-126 -118c-4 -4 -7 -4 -10 -1l-11 9c-3 3 -3 6 -1 10l96 119c2 3 5 5 9 5zM422 746c45 0 124 -1 173 -5c6 0 9 -3 7 -9l-4 -26c-2 -7 -5 -9 -11 -9h-173c-194 0 -245 -76 -285 -327c-40 -250 -13 -326 182 -326h173
c6 0 9 -3 8 -9l-4 -26c-1 -6 -5 -9 -11 -9c-50 -4 -130 -5 -174 -5c-235 0 -275 88 -229 375c45 288 113 376 348 376z" />
    <glyph glyph-name="Ccaron" unicode="&#x10c;" 
d="M545 939l10 -10c3 -2 4 -6 1 -10l-112 -118c-3 -3 -5 -5 -11 -5h-23c-7 0 -9 1 -11 5l-74 118c-3 4 -1 7 3 10l14 10c4 3 7 3 10 -1l77 -91l106 91c4 4 6 4 10 1zM422 746c45 0 124 -1 173 -5c6 0 9 -3 7 -9l-4 -26c-2 -7 -5 -9 -11 -9h-173c-194 0 -245 -76 -285 -327
c-40 -250 -13 -326 182 -326h173c6 0 9 -3 8 -9l-4 -26c-1 -6 -5 -9 -11 -9c-50 -4 -130 -5 -174 -5c-235 0 -275 88 -229 375c45 288 113 376 348 376z" />
    <glyph glyph-name="Ccedilla" unicode="&#xc7;" 
d="M595 741c6 0 9 -3 7 -9l-4 -26c-2 -7 -5 -9 -11 -9h-173c-194 0 -245 -76 -285 -327c-40 -250 -13 -326 182 -326h173c6 0 9 -3 8 -9l-4 -26c-1 -6 -5 -9 -11 -9c-50 -4 -130 -5 -174 -5h-4c3 -28 4 -56 0 -78c-10 -60 -38 -75 -96 -75c-13 0 -30 2 -50 5
c-6 2 -7 5 -6 12l3 19c1 6 4 9 11 9h40c38 0 53 5 59 42c3 18 2 41 0 67c-197 11 -229 106 -186 374c45 288 113 376 348 376c45 0 124 -1 173 -5z" />
    <glyph glyph-name="Ccircumflex" unicode="&#x108;" 
d="M427 941h24c6 0 8 -2 10 -5l74 -119c3 -4 1 -7 -3 -10l-14 -9c-3 -3 -6 -3 -10 1l-76 91l-106 -91c-4 -4 -7 -4 -10 -1l-11 9c-3 3 -4 6 -1 10l113 119c3 3 4 5 10 5zM422 746c45 0 124 -1 173 -5c6 0 9 -3 7 -9l-4 -26c-2 -7 -5 -9 -11 -9h-173
c-194 0 -245 -76 -285 -327c-40 -250 -13 -326 182 -326h173c6 0 9 -3 8 -9l-4 -26c-1 -6 -5 -9 -11 -9c-50 -4 -130 -5 -174 -5c-235 0 -275 88 -229 375c45 288 113 376 348 376z" />
    <glyph glyph-name="Cdotaccent" unicode="&#x10a;" 
d="M437 902c25 0 36 -13 32 -38c-3 -25 -18 -40 -45 -40c-24 0 -37 14 -33 40c5 26 21 38 46 38zM422 746c45 0 124 -1 173 -5c6 0 9 -3 7 -9l-4 -26c-2 -7 -5 -9 -11 -9h-173c-194 0 -245 -76 -285 -327c-40 -250 -13 -326 182 -326h173c6 0 9 -3 8 -9l-4 -26
c-1 -6 -5 -9 -11 -9c-50 -4 -130 -5 -174 -5c-235 0 -275 88 -229 375c45 288 113 376 348 376z" />
    <glyph glyph-name="D" unicode="D" horiz-adv-x="725" 
d="M438 746c228 0 277 -99 233 -375c-44 -278 -125 -376 -352 -376c-55 0 -212 1 -269 4c-7 0 -9 2 -8 9l115 725c1 7 3 9 10 9c58 3 216 4 271 4zM423 697h-217l-103 -653h224c186 0 250 85 289 327c39 252 -2 326 -193 326z" />
    <glyph glyph-name="Eth" unicode="&#xd0;" horiz-adv-x="728" 
d="M441 746c228 0 277 -99 233 -375c-44 -278 -125 -376 -352 -376c-55 0 -213 1 -269 4c-7 0 -9 2 -8 9l53 333h-71c-6 0 -9 2 -8 8l4 26c1 7 5 9 11 9h71l55 349c1 7 3 9 10 9c58 3 216 4 271 4zM619 371c39 252 -2 326 -193 326h-217l-49 -313h176c6 0 9 -2 8 -9l-4 -26
c-2 -6 -5 -9 -11 -9l-176 1l-47 -297h224c186 0 250 85 289 327z" />
    <glyph glyph-name="Dcaron" unicode="&#x10e;" horiz-adv-x="725" 
d="M537 939l11 -10c3 -2 4 -6 0 -10l-112 -118c-3 -3 -5 -5 -11 -5h-23c-7 0 -8 1 -10 5l-75 118c-3 4 -1 7 3 10l14 10c4 3 7 3 10 -1l77 -91l106 91c4 4 7 4 10 1zM438 746c228 0 277 -99 233 -375c-44 -278 -125 -376 -352 -376c-55 0 -212 1 -269 4c-7 0 -9 2 -8 9
l115 725c1 7 3 9 10 9c58 3 216 4 271 4zM423 697h-217l-103 -653h224c186 0 250 85 289 327c39 252 -2 326 -193 326z" />
    <glyph glyph-name="Dcroat" unicode="&#x110;" horiz-adv-x="728" 
d="M441 746c228 0 277 -99 233 -375c-44 -278 -125 -376 -352 -376c-55 0 -213 1 -269 4c-7 0 -9 2 -8 9l53 333h-71c-6 0 -9 2 -8 8l4 26c1 7 5 9 11 9h71l55 349c1 7 3 9 10 9c58 3 216 4 271 4zM619 371c39 252 -2 326 -193 326h-217l-49 -313h176c6 0 9 -2 8 -9l-4 -26
c-2 -6 -5 -9 -11 -9l-176 1l-47 -297h224c186 0 250 85 289 327z" />
    <glyph glyph-name="E" unicode="E" horiz-adv-x="602" 
d="M173 741h437c6 0 9 -3 8 -9l-5 -31c0 -6 -4 -9 -10 -9h-397l-50 -312h360c6 0 9 -4 8 -10l-5 -31c-1 -6 -5 -9 -11 -9h-360l-44 -281h397c6 0 9 -3 7 -9l-4 -31c-1 -6 -5 -9 -11 -9h-438c-10 0 -14 5 -13 14l114 712c1 10 7 15 17 15z" />
    <glyph glyph-name="Eacute" unicode="&#xc9;" horiz-adv-x="602" 
d="M443 941h42c4 0 6 -3 6 -8v-5c0 -4 -1 -7 -6 -11l-126 -118c-3 -4 -6 -4 -10 -1l-11 9c-3 3 -3 6 0 10l95 119c3 3 5 5 10 5zM173 741h437c6 0 9 -3 8 -9l-5 -31c0 -6 -4 -9 -10 -9h-397l-50 -312h360c6 0 9 -4 8 -10l-5 -31c-1 -6 -5 -9 -11 -9h-360l-44 -281h397
c6 0 9 -3 7 -9l-4 -31c-1 -6 -5 -9 -11 -9h-438c-10 0 -14 5 -13 14l114 712c1 10 7 15 17 15z" />
    <glyph glyph-name="Ebreve" unicode="&#x114;" horiz-adv-x="602" 
d="M509 928h21c8 0 9 -2 7 -10c-20 -86 -54 -112 -151 -112s-123 26 -116 112c1 8 3 10 10 10h21c6 0 8 -2 9 -8c-1 -55 17 -72 83 -72c65 0 88 17 105 72c2 6 5 8 11 8zM173 741h437c6 0 9 -3 8 -9l-5 -31c0 -6 -4 -9 -10 -9h-397l-50 -312h360c6 0 9 -4 8 -10l-5 -31
c-1 -6 -5 -9 -11 -9h-360l-44 -281h397c6 0 9 -3 7 -9l-4 -31c-1 -6 -5 -9 -11 -9h-438c-10 0 -14 5 -13 14l114 712c1 10 7 15 17 15z" />
    <glyph glyph-name="Ecaron" unicode="&#x11a;" horiz-adv-x="602" 
d="M509 939l11 -10c2 -2 3 -6 0 -10l-112 -118c-3 -3 -5 -5 -11 -5h-23c-7 0 -9 1 -11 5l-74 118c-3 4 -1 7 3 10l14 10c4 3 7 3 10 -1l77 -91l106 91c4 4 7 4 10 1zM173 741h437c6 0 9 -3 8 -9l-5 -31c0 -6 -4 -9 -10 -9h-397l-50 -312h360c6 0 9 -4 8 -10l-5 -31
c-1 -6 -5 -9 -11 -9h-360l-44 -281h397c6 0 9 -3 7 -9l-4 -31c-1 -6 -5 -9 -11 -9h-438c-10 0 -14 5 -13 14l114 712c1 10 7 15 17 15z" />
    <glyph glyph-name="Ecircumflex" unicode="&#xca;" horiz-adv-x="602" 
d="M395 941h24c6 0 8 -2 10 -5l74 -119c3 -4 1 -7 -3 -10l-14 -9c-4 -3 -7 -3 -10 1l-77 91l-106 -91c-4 -4 -6 -4 -10 -1l-11 9c-2 3 -3 6 0 10l112 119c3 3 5 5 11 5zM173 741h437c6 0 9 -3 8 -9l-5 -31c0 -6 -4 -9 -10 -9h-397l-50 -312h360c6 0 9 -4 8 -10l-5 -31
c-1 -6 -5 -9 -11 -9h-360l-44 -281h397c6 0 9 -3 7 -9l-4 -31c-1 -6 -5 -9 -11 -9h-438c-10 0 -14 5 -13 14l114 712c1 10 7 15 17 15z" />
    <glyph glyph-name="Edieresis" unicode="&#xcb;" horiz-adv-x="602" 
d="M321 902c24 0 37 -11 33 -38c-4 -25 -19 -40 -45 -40c-24 0 -38 13 -34 40c5 26 22 38 46 38zM481 902c24 0 38 -11 33 -38c-3 -25 -18 -40 -44 -40c-25 0 -38 13 -34 40c4 26 21 38 45 38zM173 741h437c6 0 9 -3 8 -9l-5 -31c0 -6 -4 -9 -10 -9h-397l-50 -312h360
c6 0 9 -4 8 -10l-5 -31c-1 -6 -5 -9 -11 -9h-360l-44 -281h397c6 0 9 -3 7 -9l-4 -31c-1 -6 -5 -9 -11 -9h-438c-10 0 -14 5 -13 14l114 712c1 10 7 15 17 15z" />
    <glyph glyph-name="Edotaccent" unicode="&#x116;" horiz-adv-x="602" 
d="M402 902c25 0 36 -13 32 -38s-18 -40 -45 -40c-25 0 -37 14 -33 40s21 38 46 38zM173 741h437c6 0 9 -3 8 -9l-5 -31c0 -6 -4 -9 -10 -9h-397l-50 -312h360c6 0 9 -4 8 -10l-5 -31c-1 -6 -5 -9 -11 -9h-360l-44 -281h397c6 0 9 -3 7 -9l-4 -31c-1 -6 -5 -9 -11 -9h-438
c-10 0 -14 5 -13 14l114 712c1 10 7 15 17 15z" />
    <glyph glyph-name="Egrave" unicode="&#xc8;" horiz-adv-x="602" 
d="M313 941h43c5 0 6 -1 8 -5l58 -119c2 -4 1 -7 -3 -10l-15 -9c-3 -3 -7 -3 -10 1l-86 117c-2 2 -3 6 -3 10v7c0 5 4 8 8 8zM173 741h437c6 0 9 -3 8 -9l-5 -31c0 -6 -4 -9 -10 -9h-397l-50 -312h360c6 0 9 -4 8 -10l-5 -31c-1 -6 -5 -9 -11 -9h-360l-44 -281h397
c6 0 9 -3 7 -9l-4 -31c-1 -6 -5 -9 -11 -9h-438c-10 0 -14 5 -13 14l114 712c1 10 7 15 17 15z" />
    <glyph glyph-name="Emacron" unicode="&#x112;" horiz-adv-x="602" 
d="M277 876h241c6 0 9 -2 8 -9l-4 -26c-1 -6 -5 -9 -11 -9l-241 1c-6 0 -9 2 -8 9l4 25c1 7 5 9 11 9zM173 741h437c6 0 9 -3 8 -9l-5 -31c0 -6 -4 -9 -10 -9h-397l-50 -312h360c6 0 9 -4 8 -10l-5 -31c-1 -6 -5 -9 -11 -9h-360l-44 -281h397c6 0 9 -3 7 -9l-4 -31
c-1 -6 -5 -9 -11 -9h-438c-10 0 -14 5 -13 14l114 712c1 10 7 15 17 15z" />
    <glyph glyph-name="Eogonek" unicode="&#x118;" horiz-adv-x="602" 
d="M173 741h437c6 0 9 -3 8 -9l-5 -31c0 -6 -4 -9 -10 -9h-397l-50 -312h360c6 0 9 -4 8 -10l-5 -31c-1 -6 -5 -9 -11 -9h-360l-44 -281h397c6 0 9 -3 7 -9l-4 -31c-1 -6 -5 -9 -11 -9h-125c-8 -23 -19 -47 -23 -71c-5 -37 6 -42 45 -42h41c6 0 9 -3 8 -9l-4 -19
c-1 -6 -3 -10 -9 -12c-12 -3 -45 -5 -59 -5c-51 0 -75 19 -65 75c4 23 14 54 26 83h-273c-10 0 -14 5 -13 14l114 712c1 10 7 15 17 15z" />
    <glyph glyph-name="F" unicode="F" horiz-adv-x="584" 
d="M173 741h448c6 0 9 -3 8 -9l-5 -31c0 -6 -4 -9 -10 -9h-408l-50 -312h370c6 0 9 -3 9 -9l-6 -31c-1 -6 -5 -9 -11 -9h-370l-51 -322c-1 -6 -5 -9 -11 -9h-36c-6 0 -9 3 -8 9l114 717c1 10 7 15 17 15z" />
    <glyph glyph-name="G" unicode="G" horiz-adv-x="640" 
d="M422 746c44 0 125 -1 174 -5c7 0 9 -3 8 -9l-5 -26c-1 -6 -4 -9 -10 -9h-175c-195 0 -246 -76 -286 -327c-39 -250 -12 -326 183 -326h174l49 307c0 6 4 9 10 9h35c6 0 8 -3 8 -9l-52 -326c-1 -6 -3 -9 -6 -11c-40 -21 -173 -19 -226 -19c-235 0 -275 87 -230 375
c46 288 114 376 349 376z" />
    <glyph glyph-name="Gbreve" unicode="&#x11e;" horiz-adv-x="640" 
d="M539 928h21c8 0 9 -2 7 -10c-20 -86 -54 -112 -151 -112s-123 26 -116 112c0 8 3 10 10 10h21c6 0 8 -2 8 -8c0 -55 18 -72 83 -72c66 0 89 17 106 72c2 6 5 8 11 8zM422 746c44 0 125 -1 174 -5c7 0 9 -3 8 -9l-5 -26c-1 -6 -4 -9 -10 -9h-175
c-195 0 -246 -76 -286 -327c-39 -250 -12 -326 183 -326h174l49 307c0 6 4 9 10 9h35c6 0 8 -3 8 -9l-52 -326c-1 -6 -3 -9 -6 -11c-40 -21 -173 -19 -226 -19c-235 0 -275 87 -230 375c46 288 114 376 349 376z" />
    <glyph glyph-name="Gcircumflex" unicode="&#x11c;" horiz-adv-x="640" 
d="M432 941h24c6 0 7 -2 9 -5l75 -119c3 -4 1 -7 -4 -10l-13 -9c-4 -3 -7 -3 -10 1l-77 91l-106 -91c-4 -4 -6 -4 -10 -1l-11 9c-3 3 -4 6 0 10l112 119c3 3 5 5 11 5zM422 746c44 0 125 -1 174 -5c7 0 9 -3 8 -9l-5 -26c-1 -6 -4 -9 -10 -9h-175c-195 0 -246 -76 -286 -327
c-39 -250 -12 -326 183 -326h174l49 307c0 6 4 9 10 9h35c6 0 8 -3 8 -9l-52 -326c-1 -6 -3 -9 -6 -11c-40 -21 -173 -19 -226 -19c-235 0 -275 87 -230 375c46 288 114 376 349 376z" />
    <glyph glyph-name="Gcommaaccent" unicode="&#x122;" horiz-adv-x="640" 
d="M422 746c44 0 125 -1 174 -5c7 0 9 -3 8 -9l-5 -26c-1 -6 -4 -9 -10 -9h-175c-195 0 -246 -76 -286 -327c-39 -250 -12 -326 183 -326h174l49 307c0 6 4 9 10 9h35c6 0 8 -3 8 -9l-52 -326c-1 -6 -3 -9 -6 -11c-40 -21 -173 -19 -226 -19c-235 0 -275 87 -230 375
c46 288 114 376 349 376zM273 -37h38c5 0 6 -2 6 -7v-5c0 -4 -1 -7 -6 -11l-121 -119c-4 -3 -7 -3 -10 0l-11 9c-3 3 -3 6 -1 10l96 119c2 3 5 4 9 4z" />
    <glyph glyph-name="Gdotaccent" unicode="&#x120;" horiz-adv-x="640" 
d="M447 902c25 0 36 -13 32 -38c-3 -25 -18 -40 -45 -40c-24 0 -37 14 -33 40c5 26 21 38 46 38zM422 746c44 0 125 -1 174 -5c7 0 9 -3 8 -9l-5 -26c-1 -6 -4 -9 -10 -9h-175c-195 0 -246 -76 -286 -327c-39 -250 -12 -326 183 -326h174l49 307c0 6 4 9 10 9h35
c6 0 8 -3 8 -9l-52 -326c-1 -6 -3 -9 -6 -11c-40 -21 -173 -19 -226 -19c-235 0 -275 87 -230 375c46 288 114 376 349 376z" />
    <glyph glyph-name="H" unicode="H" horiz-adv-x="760" 
d="M691 741h36c6 0 9 -3 8 -9l-114 -723c-1 -6 -5 -9 -11 -9h-37c-6 0 -8 3 -7 9l54 348h-468l-55 -348c-1 -6 -5 -9 -11 -9h-37c-6 0 -8 3 -7 9l114 723c1 6 5 9 11 9h36c6 0 9 -3 8 -9l-51 -325h468l52 325c1 6 5 9 11 9z" />
    <glyph glyph-name="Hbar" unicode="&#x126;" horiz-adv-x="761" 
d="M725 658h42c6 0 9 -3 8 -10l-4 -25c-1 -7 -5 -10 -11 -10h-42l-96 -604c-1 -6 -5 -9 -11 -9h-36c-6 0 -9 3 -8 9l55 348h-469l-55 -348c-1 -6 -5 -9 -11 -9h-36c-6 0 -9 3 -8 9l95 604h-43c-6 0 -9 3 -7 10l4 25c1 6 4 10 10 10h43l12 74c1 6 5 9 11 9h37c6 0 9 -3 8 -9
l-12 -74h468l12 74c1 6 5 9 11 9h37c6 0 9 -3 8 -9zM630 407l32 206h-468l-33 -206h469z" />
    <glyph glyph-name="Hcircumflex" unicode="&#x124;" horiz-adv-x="760" 
d="M465 941h23c6 0 8 -2 10 -5l74 -119c3 -4 1 -7 -3 -10l-13 -9c-4 -3 -7 -3 -10 1l-77 91l-106 -91c-4 -4 -6 -4 -10 -1l-11 9c-3 3 -4 6 0 10l112 119c3 3 5 5 11 5zM691 741h36c6 0 9 -3 8 -9l-114 -723c-1 -6 -5 -9 -11 -9h-37c-6 0 -8 3 -7 9l54 348h-468l-55 -348
c-1 -6 -5 -9 -11 -9h-37c-6 0 -8 3 -7 9l114 723c1 6 5 9 11 9h36c6 0 9 -3 8 -9l-51 -325h468l52 325c1 6 5 9 11 9z" />
    <glyph glyph-name="I" unicode="I" horiz-adv-x="236" 
d="M167 741h37c6 0 8 -3 7 -9l-114 -723c-1 -6 -5 -9 -11 -9h-36c-6 0 -9 3 -8 9l114 723c1 6 5 9 11 9z" />
    <glyph glyph-name="IJ" unicode="&#x132;" horiz-adv-x="785" 
d="M167 741h37c6 0 8 -3 7 -9l-114 -723c-1 -6 -5 -9 -11 -9h-36c-6 0 -9 3 -8 9l114 723c1 6 5 9 11 9zM433 741h322c10 0 14 -5 13 -15l-54 -348c-47 -295 -122 -383 -366 -383c-56 0 -90 1 -138 5c-4 0 -8 3 -7 9l4 26c1 7 5 9 10 9h139c204 0 263 77 302 334l49 314
h-282c-6 0 -9 3 -8 9l5 31c1 6 5 9 11 9z" />
    <glyph glyph-name="Iacute" unicode="&#xcd;" horiz-adv-x="236" 
d="M275 941h42c4 0 6 -3 6 -8v-5c0 -4 -2 -7 -6 -11l-126 -118c-4 -4 -6 -4 -10 -1l-11 9c-3 3 -3 6 0 10l95 119c2 3 5 5 10 5zM167 741h37c6 0 8 -3 7 -9l-114 -723c-1 -6 -5 -9 -11 -9h-36c-6 0 -9 3 -8 9l114 723c1 6 5 9 11 9z" />
    <glyph glyph-name="Icaron" unicode="&#x1cf;" horiz-adv-x="236" 
d="M316 939l11 -10c3 -2 4 -6 0 -10l-112 -118c-3 -3 -5 -5 -11 -5h-23c-6 0 -8 1 -10 5l-74 118c-3 4 -1 7 2 10l14 10c4 3 7 3 10 -1l78 -91l105 91c4 4 7 4 10 1zM167 741h37c6 0 8 -3 7 -9l-114 -723c-1 -6 -5 -9 -11 -9h-36c-6 0 -9 3 -8 9l114 723c1 6 5 9 11 9z" />
    <glyph glyph-name="Icircumflex" unicode="&#xce;" horiz-adv-x="236" 
d="M204 941h24c6 0 8 -2 10 -5l74 -119c3 -4 1 -7 -3 -10l-14 -9c-4 -3 -7 -3 -10 1l-76 91l-107 -91c-4 -4 -6 -4 -10 -1l-10 9c-3 3 -4 6 -1 10l112 119c3 3 5 5 11 5zM167 741h37c6 0 8 -3 7 -9l-114 -723c-1 -6 -5 -9 -11 -9h-36c-6 0 -9 3 -8 9l114 723c1 6 5 9 11 9z
" />
    <glyph glyph-name="Idieresis" unicode="&#xcf;" horiz-adv-x="236" 
d="M129 902c24 0 37 -11 33 -38c-4 -25 -19 -40 -45 -40c-24 0 -38 13 -34 40c5 26 22 38 46 38zM289 902c24 0 38 -11 33 -38c-3 -25 -18 -40 -44 -40c-25 0 -38 13 -34 40c4 26 21 38 45 38zM167 741h37c6 0 8 -3 7 -9l-114 -723c-1 -6 -5 -9 -11 -9h-36c-6 0 -9 3 -8 9
l114 723c1 6 5 9 11 9z" />
    <glyph glyph-name="Idotaccent" unicode="&#x130;" horiz-adv-x="236" 
d="M206 902c26 0 37 -13 33 -38s-18 -40 -45 -40c-25 0 -37 14 -33 40s21 38 45 38zM167 741h37c6 0 8 -3 7 -9l-114 -723c-1 -6 -5 -9 -11 -9h-36c-6 0 -9 3 -8 9l114 723c1 6 5 9 11 9z" />
    <glyph glyph-name="Igrave" unicode="&#xcc;" horiz-adv-x="236" 
d="M103 941h43c5 0 6 -1 8 -5l58 -119c2 -4 1 -7 -3 -10l-15 -9c-4 -3 -7 -3 -10 1l-86 117c-2 2 -3 6 -3 10v7c0 5 4 8 8 8zM167 741h37c6 0 8 -3 7 -9l-114 -723c-1 -6 -5 -9 -11 -9h-36c-6 0 -9 3 -8 9l114 723c1 6 5 9 11 9z" />
    <glyph glyph-name="Imacron" unicode="&#x12a;" horiz-adv-x="236" 
d="M80 876h241c6 0 9 -2 8 -9l-4 -26c-1 -6 -5 -9 -11 -9l-241 1c-6 0 -9 2 -8 9l4 25c1 7 5 9 11 9zM167 741h37c6 0 8 -3 7 -9l-114 -723c-1 -6 -5 -9 -11 -9h-36c-6 0 -9 3 -8 9l114 723c1 6 5 9 11 9z" />
    <glyph glyph-name="Iogonek" unicode="&#x12e;" horiz-adv-x="235" 
d="M167 741h37c6 0 8 -3 7 -10l-115 -723c0 -6 -3 -8 -8 -8h-9c-12 -29 -20 -52 -23 -71c-6 -37 7 -42 45 -42h40c7 0 10 -2 8 -9l-3 -19c-1 -7 -4 -10 -10 -12c-20 -3 -38 -5 -51 -5c-58 0 -82 15 -73 75c5 25 16 56 29 86l115 728c2 7 5 10 11 10z" />
    <glyph glyph-name="Itilde" unicode="&#x128;" horiz-adv-x="236" 
d="M265 816c-55 0 -87 53 -128 53c-23 0 -36 -11 -55 -48c-4 -8 -7 -9 -13 -7l-16 3c-6 2 -7 5 -4 13c28 66 49 87 92 87c54 0 85 -53 126 -53c26 0 39 14 55 46c5 8 7 8 13 7l16 -3c6 -1 9 -4 5 -13c-27 -67 -51 -85 -91 -85zM167 741h37c6 0 8 -3 7 -9l-114 -723
c-1 -6 -5 -9 -11 -9h-36c-6 0 -9 3 -8 9l114 723c1 6 5 9 11 9z" />
    <glyph glyph-name="J" unicode="J" horiz-adv-x="549" 
d="M197 741h322c10 0 14 -5 13 -15l-54 -348c-47 -295 -122 -383 -366 -383c-56 0 -90 1 -138 5c-4 0 -8 3 -7 9l4 26c1 7 5 9 10 9h139c204 0 263 77 302 334l49 314h-282c-6 0 -9 3 -8 9l5 31c1 6 5 9 11 9z" />
    <glyph glyph-name="Jcircumflex" unicode="&#x134;" horiz-adv-x="544" 
d="M388 941h24c6 0 8 -2 10 -5l74 -119c3 -4 1 -7 -3 -10l-14 -9c-4 -3 -7 -3 -10 1l-76 91l-107 -91c-4 -4 -6 -4 -10 -1l-10 9c-3 3 -4 6 -1 10l112 119c3 3 5 5 11 5zM192 741h322c10 0 14 -5 13 -15l-54 -348c-47 -295 -122 -383 -366 -383c-56 0 -90 1 -138 5
c-4 0 -8 3 -7 9l4 26c1 7 5 9 10 9h139c204 0 263 77 302 334l49 314h-282c-6 0 -9 3 -8 9l5 31c1 6 5 9 11 9z" />
    <glyph glyph-name="K" unicode="K" horiz-adv-x="570" 
d="M560 741h43c10 0 11 -6 3 -12l-391 -330l294 -384c4 -7 3 -15 -12 -15h-40c-6 0 -10 2 -13 6l-287 378l-60 -375c-1 -6 -5 -9 -11 -9h-36c-6 0 -9 3 -8 9l114 723c1 6 5 9 11 9h37c6 0 9 -3 8 -9l-50 -316l384 319c4 4 8 6 14 6z" />
    <glyph glyph-name="Kcommaaccent" unicode="&#x136;" horiz-adv-x="570" 
d="M560 741h43c10 0 11 -6 3 -12l-391 -330l294 -384c4 -7 3 -15 -12 -15h-40c-6 0 -10 2 -13 6l-287 378l-60 -375c-1 -6 -5 -9 -11 -9h-36c-6 0 -9 3 -8 9l114 723c1 6 5 9 11 9h37c6 0 9 -3 8 -9l-50 -316l384 319c4 4 8 6 14 6zM234 -37h38c4 0 5 -2 5 -7v-5
c0 -4 -1 -7 -5 -11l-122 -119c-3 -3 -6 -3 -10 0l-10 9c-4 3 -4 6 -1 10l96 119c2 3 5 4 9 4z" />
    <glyph glyph-name="L" unicode="L" horiz-adv-x="556" 
d="M168 741h37c6 0 9 -3 8 -9l-108 -683h391c6 0 9 -2 8 -9l-5 -30c-1 -7 -5 -10 -11 -10h-432c-9 0 -14 4 -13 14l114 718c1 6 5 9 11 9z" />
    <glyph glyph-name="Lacute" unicode="&#x139;" horiz-adv-x="556" 
d="M285 941h43c4 0 6 -3 6 -8v-5c0 -4 -2 -7 -6 -11l-126 -118c-4 -4 -7 -4 -10 -1l-11 9c-3 3 -3 6 -1 10l96 119c2 3 5 5 9 5zM168 741h37c6 0 9 -3 8 -9l-108 -683h391c6 0 9 -2 8 -9l-5 -30c-1 -7 -5 -10 -11 -10h-432c-9 0 -14 4 -13 14l114 718c1 6 5 9 11 9z" />
    <glyph glyph-name="Lcaron" unicode="&#x13d;" horiz-adv-x="557" 
d="M168 741h37c6 0 9 -3 8 -9l-108 -683h391c6 0 9 -2 8 -9l-5 -30c-1 -7 -5 -10 -11 -10h-432c-9 0 -14 4 -13 14l114 718c1 6 5 9 11 9zM438 741h42c5 0 7 -2 7 -7v-6c0 -4 -2 -7 -6 -10l-127 -119c-3 -3 -6 -3 -10 -1l-10 10c-3 3 -3 6 -1 10l96 119c2 3 5 4 9 4z" />
    <glyph glyph-name="Lcommaaccent" unicode="&#x13b;" horiz-adv-x="556" 
d="M168 741h37c6 0 9 -3 8 -9l-108 -683h391c6 0 9 -2 8 -9l-5 -30c-1 -7 -5 -10 -11 -10h-432c-9 0 -14 4 -13 14l114 718c1 6 5 9 11 9zM249 -37h38c4 0 5 -2 5 -7v-5c0 -4 -1 -7 -5 -11l-122 -119c-4 -3 -6 -3 -10 0l-11 9c-3 3 -3 6 0 10l95 119c3 3 6 4 10 4z" />
    <glyph glyph-name="Ldot" unicode="&#x13f;" horiz-adv-x="556" 
d="M168 741h37c6 0 9 -3 8 -9l-108 -683h391c6 0 9 -2 8 -9l-5 -30c-1 -7 -5 -10 -11 -10h-432c-9 0 -14 4 -13 14l114 718c1 6 5 9 11 9zM341 304c24 0 36 -13 36 -37s-13 -37 -36 -37c-24 0 -37 13 -37 37s13 37 37 37z" />
    <glyph glyph-name="Lslash" unicode="&#x141;" horiz-adv-x="561" 
d="M110 49h391c6 0 9 -2 8 -9l-5 -30c-1 -7 -5 -10 -11 -10h-432c-9 0 -14 4 -13 14l45 283l-72 -38c-5 -3 -9 -1 -11 4l-9 20c-2 5 -1 8 5 11l94 50l62 388c1 6 5 9 11 9h37c6 0 9 -3 8 -9l-56 -355l115 61c7 3 11 3 14 -3l8 -19c3 -5 2 -9 -5 -13l-140 -74z" />
    <glyph glyph-name="M" unicode="M" horiz-adv-x="902" 
d="M795 741h35c9 0 14 -4 14 -14l-55 -717c0 -7 -4 -10 -10 -10h-37c-6 0 -8 3 -8 10l50 644l-343 -623c-4 -8 -11 -12 -20 -12h-35c-9 0 -14 4 -16 12l-145 623l-155 -645c-1 -6 -4 -9 -10 -9h-37c-6 0 -9 3 -8 9l174 718c2 10 8 14 17 14h36c18 0 22 -11 28 -37l144 -624
l340 624c15 26 22 37 41 37z" />
    <glyph glyph-name="N" unicode="N" horiz-adv-x="754" 
d="M684 741h37c6 0 9 -3 8 -10l-114 -721c-1 -7 -5 -10 -11 -10h-39c-7 0 -14 0 -21 12l-342 659l-105 -662c-1 -6 -5 -9 -11 -9h-36c-6 0 -9 3 -8 9l114 723c1 6 5 9 11 9h42c16 0 21 -1 31 -17l331 -639l103 647c1 6 4 9 10 9z" />
    <glyph glyph-name="Nacute" unicode="&#x143;" horiz-adv-x="754" 
d="M511 941h43c4 0 6 -3 6 -8v-5c0 -4 -2 -7 -6 -11l-126 -118c-4 -4 -7 -4 -10 -1l-11 9c-3 3 -3 6 -1 10l96 119c2 3 5 5 9 5zM684 741h37c6 0 9 -3 8 -10l-114 -721c-1 -7 -5 -10 -11 -10h-39c-7 0 -14 0 -21 12l-342 659l-105 -662c-1 -6 -5 -9 -11 -9h-36
c-6 0 -9 3 -8 9l114 723c1 6 5 9 11 9h42c16 0 21 -1 31 -17l331 -639l103 647c1 6 4 9 10 9z" />
    <glyph glyph-name="Ncaron" unicode="&#x147;" horiz-adv-x="754" 
d="M578 939l10 -10c3 -2 4 -6 1 -10l-113 -118c-2 -3 -4 -5 -10 -5h-24c-6 0 -8 1 -10 5l-74 118c-3 4 -1 7 3 10l14 10c4 3 6 3 10 -1l77 -91l106 91c3 4 6 4 10 1zM684 741h37c6 0 9 -3 8 -10l-114 -721c-1 -7 -5 -10 -11 -10h-39c-7 0 -14 0 -21 12l-342 659l-105 -662
c-1 -6 -5 -9 -11 -9h-36c-6 0 -9 3 -8 9l114 723c1 6 5 9 11 9h42c16 0 21 -1 31 -17l331 -639l103 647c1 6 4 9 10 9z" />
    <glyph glyph-name="Ncommaaccent" unicode="&#x145;" horiz-adv-x="754" 
d="M684 741h37c6 0 9 -3 8 -10l-114 -721c-1 -7 -5 -10 -11 -10h-39c-7 0 -14 0 -21 12l-342 659l-105 -662c-1 -6 -5 -9 -11 -9h-36c-6 0 -9 3 -8 9l114 723c1 6 5 9 11 9h42c16 0 21 -1 31 -17l331 -639l103 647c1 6 4 9 10 9zM338 -37h38c5 0 6 -2 6 -7v-5
c0 -4 -2 -7 -6 -11l-122 -119c-3 -3 -6 -3 -10 0l-10 9c-4 3 -4 6 -1 10l96 119c2 3 5 4 9 4z" />
    <glyph glyph-name="Eng" unicode="&#x14a;" horiz-adv-x="754" 
d="M684 741h37c6 0 9 -3 8 -10l-86 -547c-46 -295 -74 -383 -318 -383c-51 0 -69 2 -89 4c-5 1 -8 5 -7 10l4 27c1 6 5 8 11 8h89c147 0 200 39 224 157l-355 664l-105 -662c-1 -6 -5 -9 -11 -9h-36c-6 0 -9 3 -8 9l114 723c1 6 5 9 11 9h42c18 0 23 -2 31 -17l333 -634
l101 642c1 6 4 9 10 9z" />
    <glyph glyph-name="Ntilde" unicode="&#xd1;" horiz-adv-x="754" 
d="M526 816c-54 0 -86 53 -127 53c-23 0 -36 -11 -55 -48c-5 -8 -7 -9 -14 -7l-15 3c-6 2 -7 5 -4 13c28 66 49 87 91 87c55 0 86 -53 127 -53c26 0 39 14 55 46c5 8 7 8 13 7l16 -3c6 -1 8 -4 5 -13c-27 -67 -51 -85 -92 -85zM684 741h37c6 0 9 -3 8 -10l-114 -721
c-1 -7 -5 -10 -11 -10h-39c-7 0 -14 0 -21 12l-342 659l-105 -662c-1 -6 -5 -9 -11 -9h-36c-6 0 -9 3 -8 9l114 723c1 6 5 9 11 9h42c16 0 21 -1 31 -17l331 -639l103 647c1 6 4 9 10 9z" />
    <glyph glyph-name="O" unicode="O" horiz-adv-x="708" 
d="M422 746c235 0 275 -87 229 -377s-113 -374 -348 -374s-275 84 -229 374s113 377 348 377zM414 697c-194 0 -244 -75 -285 -328c-40 -253 -13 -325 182 -325s245 72 285 325s13 328 -182 328z" />
    <glyph glyph-name="Oacute" unicode="&#xd3;" horiz-adv-x="708" 
d="M519 941h42c4 0 6 -3 6 -8v-5c0 -4 -2 -7 -6 -11l-126 -118c-4 -4 -6 -4 -10 -1l-11 9c-3 3 -3 6 0 10l95 119c2 3 5 5 10 5zM422 746c235 0 275 -87 229 -377s-113 -374 -348 -374s-275 84 -229 374s113 377 348 377zM414 697c-194 0 -244 -75 -285 -328
c-40 -253 -13 -325 182 -325s245 72 285 325s13 328 -182 328z" />
    <glyph glyph-name="Obreve" unicode="&#x14e;" horiz-adv-x="708" 
d="M561 928h21c7 0 9 -2 6 -10c-19 -86 -54 -112 -150 -112c-97 0 -123 26 -116 112c0 8 2 10 10 10h21c6 0 8 -2 8 -8c0 -55 18 -72 83 -72c66 0 89 17 106 72c2 6 5 8 11 8zM422 746c235 0 275 -87 229 -377s-113 -374 -348 -374s-275 84 -229 374s113 377 348 377z
M414 697c-194 0 -244 -75 -285 -328c-40 -253 -13 -325 182 -325s245 72 285 325s13 328 -182 328z" />
    <glyph glyph-name="Ocaron" unicode="&#x1d1;" horiz-adv-x="708" 
d="M555 939l10 -10c3 -2 4 -6 1 -10l-112 -118c-3 -3 -5 -5 -11 -5h-23c-7 0 -9 1 -11 5l-74 118c-3 4 -1 7 3 10l14 10c4 3 7 3 10 -1l77 -91l106 91c4 4 6 4 10 1zM422 746c235 0 275 -87 229 -377s-113 -374 -348 -374s-275 84 -229 374s113 377 348 377zM414 697
c-194 0 -244 -75 -285 -328c-40 -253 -13 -325 182 -325s245 72 285 325s13 328 -182 328z" />
    <glyph glyph-name="Ocircumflex" unicode="&#xd4;" horiz-adv-x="708" 
d="M441 941h24c6 0 8 -2 10 -5l74 -119c3 -4 1 -7 -4 -10l-13 -9c-4 -3 -7 -3 -10 1l-77 91l-106 -91c-4 -4 -6 -4 -10 -1l-11 9c-3 3 -4 6 0 10l112 119c3 3 5 5 11 5zM422 746c235 0 275 -87 229 -377s-113 -374 -348 -374s-275 84 -229 374s113 377 348 377zM414 697
c-194 0 -244 -75 -285 -328c-40 -253 -13 -325 182 -325s245 72 285 325s13 328 -182 328z" />
    <glyph glyph-name="Odieresis" unicode="&#xd6;" horiz-adv-x="708" 
d="M367 902c24 0 37 -11 33 -38c-4 -25 -19 -40 -45 -40c-24 0 -38 13 -34 40c4 26 22 38 46 38zM527 902c24 0 38 -11 33 -38c-3 -25 -18 -40 -45 -40c-24 0 -37 13 -33 40c4 26 21 38 45 38zM422 746c235 0 275 -87 229 -377s-113 -374 -348 -374s-275 84 -229 374
s113 377 348 377zM414 697c-194 0 -244 -75 -285 -328c-40 -253 -13 -325 182 -325s245 72 285 325s13 328 -182 328z" />
    <glyph glyph-name="Ograve" unicode="&#xd2;" horiz-adv-x="708" 
d="M359 941h43c4 0 6 -1 8 -5l58 -119c2 -4 1 -7 -4 -10l-14 -9c-4 -3 -7 -3 -10 1l-87 117c-1 2 -2 6 -2 10v7c0 5 4 8 8 8zM422 746c235 0 275 -87 229 -377s-113 -374 -348 -374s-275 84 -229 374s113 377 348 377zM414 697c-194 0 -244 -75 -285 -328
c-40 -253 -13 -325 182 -325s245 72 285 325s13 328 -182 328z" />
    <glyph glyph-name="Ohungarumlaut" unicode="&#x150;" horiz-adv-x="708" 
d="M425 941h42c5 0 6 -3 6 -8v-5c0 -4 -1 -7 -5 -11l-127 -118c-3 -4 -6 -4 -10 -1l-11 9c-2 3 -2 6 0 10l95 119c3 3 6 5 10 5zM582 941h42c4 0 6 -3 6 -8v-5c0 -4 -1 -7 -6 -11l-126 -118c-3 -4 -6 -4 -10 -1l-11 9c-3 3 -3 6 0 10l95 119c3 3 5 5 10 5zM422 746
c235 0 275 -87 229 -377s-113 -374 -348 -374s-275 84 -229 374s113 377 348 377zM414 697c-194 0 -244 -75 -285 -328c-40 -253 -13 -325 182 -325s245 72 285 325s13 328 -182 328z" />
    <glyph glyph-name="Omacron" unicode="&#x14c;" horiz-adv-x="708" 
d="M323 876h240c7 0 10 -2 9 -9l-4 -26c-1 -6 -5 -9 -11 -9l-241 1c-6 0 -9 2 -8 9l4 25c1 7 5 9 11 9zM422 746c235 0 275 -87 229 -377s-113 -374 -348 -374s-275 84 -229 374s113 377 348 377zM414 697c-194 0 -244 -75 -285 -328c-40 -253 -13 -325 182 -325
s245 72 285 325s13 328 -182 328z" />
    <glyph glyph-name="Oslash" unicode="&#xd8;" horiz-adv-x="708" 
d="M303 -5c-93 0 -155 13 -194 47l-42 -48c-5 -6 -7 -7 -13 -2l-20 15c-5 4 -5 8 -1 14l48 55c-31 57 -30 150 -7 293c46 290 113 377 348 377c97 0 160 -15 198 -53l35 40c5 5 8 7 14 2l20 -17c5 -3 5 -7 0 -12l-42 -49c29 -58 25 -150 4 -288
c-46 -290 -113 -374 -348 -374zM414 697c-194 0 -244 -75 -285 -328c-18 -115 -22 -191 -3 -242l454 519c-29 37 -82 51 -166 51zM601 605l-451 -517c30 -32 82 -44 161 -44c195 0 245 72 285 325c17 109 22 185 5 236z" />
    <glyph glyph-name="Oslashacute" unicode="&#x1fe;" horiz-adv-x="708" 
d="M514 940h42c5 0 7 -2 7 -7v-6c0 -4 -2 -7 -6 -10l-127 -119c-3 -3 -6 -3 -10 -1l-10 10c-3 3 -3 6 -1 10l96 119c2 3 5 4 9 4zM651 369c-46 -290 -113 -374 -348 -374c-93 0 -155 13 -194 47l-42 -48c-5 -6 -7 -7 -13 -2l-20 15c-5 4 -5 8 -1 14l48 55
c-31 57 -30 150 -7 293c46 290 113 377 348 377c97 0 160 -15 198 -53l35 40c5 5 8 7 14 2l20 -17c5 -3 5 -7 0 -12l-42 -49c29 -58 25 -150 4 -288zM414 697c-194 0 -244 -75 -285 -328c-18 -115 -22 -191 -3 -242l454 519c-29 37 -82 51 -166 51zM601 605l-451 -517
c30 -32 82 -44 161 -44c195 0 245 72 285 325c17 109 22 185 5 236z" />
    <glyph glyph-name="Otilde" unicode="&#xd5;" horiz-adv-x="708" 
d="M504 816c-55 0 -87 53 -128 53c-23 0 -36 -11 -55 -48c-4 -8 -7 -9 -13 -7l-16 3c-6 2 -7 5 -4 13c28 66 49 87 92 87c54 0 85 -53 126 -53c26 0 39 14 55 46c5 8 7 8 13 7l16 -3c6 -1 9 -4 5 -13c-27 -67 -51 -85 -91 -85zM422 746c235 0 275 -87 229 -377
s-113 -374 -348 -374s-275 84 -229 374s113 377 348 377zM414 697c-194 0 -244 -75 -285 -328c-40 -253 -13 -325 182 -325s245 72 285 325s13 328 -182 328z" />
    <glyph glyph-name="OE" unicode="&#x152;" horiz-adv-x="1007" 
d="M422 746l326 -5h267c6 0 9 -3 8 -10l-5 -29c-1 -7 -5 -10 -11 -10h-386l-50 -312h350c6 0 9 -4 8 -10l-5 -31c-1 -6 -6 -9 -12 -9h-349l-44 -281h387c6 0 9 -3 7 -9l-4 -31c-1 -6 -5 -9 -11 -9h-267l-328 -5c-235 -3 -275 84 -229 374s113 381 348 377zM566 697h-152
c-195 0 -245 -75 -285 -328s-13 -325 182 -325h151z" />
    <glyph glyph-name="P" unicode="P" horiz-adv-x="619" 
d="M340 746c229 0 300 -21 267 -232c-34 -214 -111 -230 -340 -230h-126l-44 -275c-1 -7 -4 -9 -11 -9h-36c-7 0 -10 2 -8 9l115 724c1 7 3 9 10 9c58 3 133 4 173 4zM329 697h-123l-58 -363h123c195 0 253 8 281 179c27 170 -29 184 -223 184z" />
    <glyph glyph-name="Thorn" unicode="&#xde;" horiz-adv-x="617" 
d="M168 743h36c6 0 9 -4 9 -10l-21 -130c45 1 93 2 122 2c229 0 300 -22 267 -233s-111 -233 -341 -233c-28 0 -76 1 -121 2l-21 -129c-1 -7 -5 -10 -11 -10h-37c-6 0 -9 3 -8 10l115 721c1 7 5 10 11 10zM303 556h-119l-58 -367h119c195 0 254 14 281 183s-28 184 -223 184
z" />
    <glyph glyph-name="Q" unicode="Q" horiz-adv-x="708" 
d="M422 746c235 0 275 -87 229 -377c-44 -276 -106 -366 -316 -373l15 -117c1 -7 -3 -10 -10 -10h-35c-6 0 -10 1 -12 9l-15 117c-213 7 -248 95 -204 374c46 290 113 377 348 377zM596 369c40 253 13 328 -182 328c-194 0 -244 -75 -285 -328c-40 -253 -13 -325 182 -325
s245 72 285 325z" />
    <glyph glyph-name="R" unicode="R" horiz-adv-x="630" 
d="M340 746c229 0 300 -21 267 -232c-27 -166 -78 -212 -208 -225l131 -277c3 -6 0 -12 -9 -12h-34c-13 0 -16 4 -21 13l-129 271h-196l-44 -275c-1 -7 -4 -9 -11 -9h-36c-7 0 -10 2 -8 10l115 723c1 7 3 9 10 9c58 3 133 4 173 4zM329 697h-123l-58 -363h123
c195 0 253 8 281 179c27 170 -29 184 -223 184z" />
    <glyph glyph-name="Racute" unicode="&#x154;" horiz-adv-x="630" 
d="M447 941h42c4 0 6 -3 6 -8v-5c0 -4 -1 -7 -6 -11l-126 -118c-3 -4 -6 -4 -10 -1l-11 9c-3 3 -3 6 0 10l95 119c3 3 5 5 10 5zM340 746c229 0 300 -21 267 -232c-27 -166 -78 -212 -208 -225l131 -277c3 -6 0 -12 -9 -12h-34c-13 0 -16 4 -21 13l-129 271h-196l-44 -275
c-1 -7 -4 -9 -11 -9h-36c-7 0 -10 2 -8 10l115 723c1 7 3 9 10 9c58 3 133 4 173 4zM329 697h-123l-58 -363h123c195 0 253 8 281 179c27 170 -29 184 -223 184z" />
    <glyph glyph-name="Rcaron" unicode="&#x158;" horiz-adv-x="630" 
d="M513 939l10 -10c3 -2 4 -6 1 -10l-112 -118c-3 -3 -5 -5 -11 -5h-23c-7 0 -9 1 -11 5l-74 118c-3 4 -1 7 3 10l14 10c4 3 6 3 10 -1l77 -91l106 91c3 4 6 4 10 1zM340 746c229 0 300 -21 267 -232c-27 -166 -78 -212 -208 -225l131 -277c3 -6 0 -12 -9 -12h-34
c-13 0 -16 4 -21 13l-129 271h-196l-44 -275c-1 -7 -4 -9 -11 -9h-36c-7 0 -10 2 -8 10l115 723c1 7 3 9 10 9c58 3 133 4 173 4zM329 697h-123l-58 -363h123c195 0 253 8 281 179c27 170 -29 184 -223 184z" />
    <glyph glyph-name="Rcommaaccent" unicode="&#x156;" horiz-adv-x="630" 
d="M340 746c229 0 300 -21 267 -232c-27 -166 -78 -212 -208 -225l131 -277c3 -6 0 -12 -9 -12h-34c-13 0 -16 4 -21 13l-129 271h-196l-44 -275c-1 -7 -4 -9 -11 -9h-36c-7 0 -10 2 -8 10l115 723c1 7 3 9 10 9c58 3 133 4 173 4zM329 697h-123l-58 -363h123
c195 0 253 8 281 179c27 170 -29 184 -223 184zM273 -37h38c5 0 6 -2 6 -7v-5c0 -4 -2 -7 -6 -11l-122 -119c-3 -3 -6 -3 -10 0l-10 9c-4 3 -4 6 -1 10l96 119c2 3 5 4 9 4z" />
    <glyph glyph-name="S" unicode="S" horiz-adv-x="586" 
d="M359 746c52 0 139 -2 202 -7c6 0 7 -4 7 -8l-5 -27c-1 -4 -5 -7 -10 -7h-216c-110 0 -167 -33 -179 -111l-2 -13c-10 -61 -1 -93 69 -124l217 -100c91 -43 85 -122 78 -168l-5 -27c-24 -156 -153 -159 -268 -159c-53 0 -178 2 -241 7c-4 0 -8 3 -7 9l5 24c2 6 6 9 11 9
h253c90 0 176 9 192 111l4 22c5 36 11 95 -60 130l-226 101c-85 38 -90 90 -79 160l3 19c21 127 117 159 257 159z" />
    <glyph glyph-name="Sacute" unicode="&#x15a;" horiz-adv-x="586" 
d="M441 941h42c5 0 6 -3 6 -8v-5c0 -4 -1 -7 -5 -11l-127 -118c-3 -4 -6 -4 -10 -1l-11 9c-2 3 -2 6 0 10l95 119c3 3 6 5 10 5zM359 746c52 0 139 -2 202 -7c6 0 7 -4 7 -8l-5 -27c-1 -4 -5 -7 -10 -7h-216c-110 0 -167 -33 -179 -111l-2 -13c-10 -61 -1 -93 69 -124
l217 -100c91 -43 85 -122 78 -168l-5 -27c-24 -156 -153 -159 -268 -159c-53 0 -178 2 -241 7c-4 0 -8 3 -7 9l5 24c2 6 6 9 11 9h253c90 0 176 9 192 111l4 22c5 36 11 95 -60 130l-226 101c-85 38 -90 90 -79 160l3 19c21 127 117 159 257 159z" />
    <glyph glyph-name="Scaron" unicode="&#x160;" horiz-adv-x="586" 
d="M491 939l10 -10c3 -2 4 -6 1 -10l-112 -118c-3 -3 -5 -5 -11 -5h-23c-7 0 -9 1 -11 5l-74 118c-3 4 -1 7 3 10l14 10c4 3 7 3 10 -1l77 -91l106 91c3 4 6 4 10 1zM359 746c52 0 139 -2 202 -7c6 0 7 -4 7 -8l-5 -27c-1 -4 -5 -7 -10 -7h-216c-110 0 -167 -33 -179 -111
l-2 -13c-10 -61 -1 -93 69 -124l217 -100c91 -43 85 -122 78 -168l-5 -27c-24 -156 -153 -159 -268 -159c-53 0 -178 2 -241 7c-4 0 -8 3 -7 9l5 24c2 6 6 9 11 9h253c90 0 176 9 192 111l4 22c5 36 11 95 -60 130l-226 101c-85 38 -90 90 -79 160l3 19
c21 127 117 159 257 159z" />
    <glyph glyph-name="Scedilla" unicode="&#x15e;" horiz-adv-x="586" 
d="M561 739c6 0 7 -4 7 -8l-5 -27c-1 -4 -5 -7 -10 -7h-216c-110 0 -167 -33 -179 -111l-2 -13c-10 -61 -1 -93 69 -124l217 -100c91 -43 85 -122 78 -168l-5 -27c-23 -149 -141 -157 -251 -159c3 -28 4 -55 0 -78c-10 -60 -38 -75 -96 -75c-13 0 -30 2 -50 5
c-6 2 -7 5 -6 12l3 19c1 6 4 9 11 9h40c38 0 53 5 59 42c3 18 2 40 0 66c-63 0 -163 2 -219 7c-4 0 -8 3 -7 9l5 24c2 6 6 9 11 9h253c90 0 176 9 192 111l4 22c5 36 11 95 -60 130l-226 101c-85 38 -90 90 -79 160l3 19c21 127 117 159 257 159c52 0 139 -2 202 -7z" />
    <glyph glyph-name="Scircumflex" unicode="&#x15c;" horiz-adv-x="586" 
d="M373 941h24c6 0 8 -2 10 -5l74 -119c3 -4 1 -7 -4 -10l-13 -9c-4 -3 -7 -3 -10 1l-77 91l-106 -91c-4 -4 -6 -4 -10 -1l-11 9c-3 3 -4 6 0 10l112 119c3 3 5 5 11 5zM359 746c52 0 139 -2 202 -7c6 0 7 -4 7 -8l-5 -27c-1 -4 -5 -7 -10 -7h-216
c-110 0 -167 -33 -179 -111l-2 -13c-10 -61 -1 -93 69 -124l217 -100c91 -43 85 -122 78 -168l-5 -27c-24 -156 -153 -159 -268 -159c-53 0 -178 2 -241 7c-4 0 -8 3 -7 9l5 24c2 6 6 9 11 9h253c90 0 176 9 192 111l4 22c5 36 11 95 -60 130l-226 101
c-85 38 -90 90 -79 160l3 19c21 127 117 159 257 159z" />
    <glyph glyph-name="Scommaaccent" unicode="&#x218;" horiz-adv-x="586" 
d="M359 746c52 0 139 -2 202 -7c6 0 7 -4 7 -8l-5 -27c-1 -4 -5 -7 -10 -7h-216c-110 0 -167 -33 -179 -111l-2 -13c-10 -61 -1 -93 69 -124l217 -100c91 -43 85 -122 78 -168l-5 -27c-24 -156 -153 -159 -268 -159c-53 0 -178 2 -241 7c-4 0 -8 3 -7 9l5 24c2 6 6 9 11 9
h253c90 0 176 9 192 111l4 22c5 36 11 95 -60 130l-226 101c-85 38 -90 90 -79 160l3 19c21 127 117 159 257 159zM226 -37h38c5 0 6 -2 6 -7v-5c0 -4 -1 -7 -6 -11l-121 -119c-4 -3 -7 -3 -10 0l-11 9c-3 3 -3 6 -1 10l96 119c2 3 5 4 9 4z" />
    <glyph glyph-name="T" unicode="T" horiz-adv-x="578" 
d="M87 741h539c6 0 9 -3 8 -10l-6 -29c-1 -7 -4 -10 -10 -10h-241l-109 -682c-1 -7 -4 -10 -10 -10h-37c-6 0 -9 3 -8 10l109 682h-242c-6 0 -10 2 -9 10l5 30c1 6 5 9 11 9z" />
    <glyph glyph-name="Tbar" unicode="&#x166;" horiz-adv-x="588" 
d="M92 741h539c6 0 8 -3 7 -10l-5 -29c-1 -7 -4 -10 -10 -10h-241l-46 -290h128c6 0 9 -3 8 -9l-4 -25c-1 -6 -5 -10 -11 -10h-128l-56 -348c-1 -7 -4 -10 -10 -10h-37c-6 0 -9 3 -8 10l55 348h-129c-6 0 -9 3 -8 9l4 26c1 6 5 9 11 9h129l46 290h-242c-6 0 -9 2 -8 10l5 30
c1 6 5 9 11 9z" />
    <glyph glyph-name="Tcaron" unicode="&#x164;" horiz-adv-x="578" 
d="M490 939l10 -10c3 -2 4 -6 1 -10l-112 -118c-3 -3 -5 -5 -11 -5h-23c-7 0 -9 1 -11 5l-74 118c-3 4 -1 7 3 10l14 10c4 3 7 3 10 -1l77 -91l106 91c4 4 6 4 10 1zM87 741h539c6 0 9 -3 8 -10l-6 -29c-1 -7 -4 -10 -10 -10h-241l-109 -682c-1 -7 -4 -10 -10 -10h-37
c-6 0 -9 3 -8 10l109 682h-242c-6 0 -10 2 -9 10l5 30c1 6 5 9 11 9z" />
    <glyph glyph-name="Tcedilla" unicode="&#x162;" horiz-adv-x="578" 
d="M87 741h539c6 0 9 -3 8 -10l-6 -29c-1 -7 -4 -10 -10 -10h-241l-109 -688c3 -35 3 -62 -1 -87c-9 -60 -37 -75 -96 -75c-13 0 -30 2 -50 5c-6 2 -7 5 -6 12l3 19c1 6 5 9 11 9h41c38 0 52 5 58 42c3 19 4 42 2 71h-10c-6 0 -8 3 -7 10l109 682h-242c-6 0 -10 2 -9 10
l5 30c1 6 5 9 11 9z" />
    <glyph glyph-name="uni021A" unicode="&#x21a;" horiz-adv-x="578" 
d="M87 741h539c6 0 9 -3 8 -10l-6 -29c-1 -7 -4 -10 -10 -10h-241l-109 -682c-1 -7 -4 -10 -10 -10h-37c-6 0 -9 3 -8 10l109 682h-242c-6 0 -10 2 -9 10l5 30c1 6 5 9 11 9zM216 -37h38c4 0 5 -2 5 -7v-5c0 -4 -1 -7 -5 -11l-122 -119c-4 -3 -7 -3 -10 0l-11 9
c-3 3 -3 6 0 10l95 119c2 3 5 4 10 4z" />
    <glyph glyph-name="U" unicode="U" horiz-adv-x="729" 
d="M667 741h37c7 0 9 -2 8 -10l-58 -361c-47 -300 -115 -375 -340 -375c-226 0 -270 75 -222 375l57 362c1 7 4 9 11 9h36c7 0 10 -2 8 -10l-57 -361c-41 -260 -7 -326 174 -326c182 0 237 66 278 326l58 362c1 7 3 9 10 9z" />
    <glyph glyph-name="Uacute" unicode="&#xda;" horiz-adv-x="729" 
d="M499 941h42c5 0 7 -3 7 -8v-5c0 -4 -2 -7 -6 -11l-127 -118c-3 -4 -6 -4 -10 -1l-10 9c-3 3 -3 6 -1 10l96 119c2 3 5 5 9 5zM667 741h37c7 0 9 -2 8 -10l-58 -361c-47 -300 -115 -375 -340 -375c-226 0 -270 75 -222 375l57 362c1 7 4 9 11 9h36c7 0 10 -2 8 -10
l-57 -361c-41 -260 -7 -326 174 -326c182 0 237 66 278 326l58 362c1 7 3 9 10 9z" />
    <glyph glyph-name="Ubreve" unicode="&#x16c;" horiz-adv-x="729" 
d="M566 928h21c7 0 9 -2 6 -10c-20 -86 -54 -112 -151 -112c-96 0 -123 26 -116 112c1 8 3 10 11 10h21c6 0 8 -2 8 -8c0 -55 18 -72 83 -72s89 17 106 72c2 6 5 8 11 8zM667 741h37c7 0 9 -2 8 -10l-58 -361c-47 -300 -115 -375 -340 -375c-226 0 -270 75 -222 375l57 362
c1 7 4 9 11 9h36c7 0 10 -2 8 -10l-57 -361c-41 -260 -7 -326 174 -326c182 0 237 66 278 326l58 362c1 7 3 9 10 9z" />
    <glyph glyph-name="Ucaron" unicode="&#x1d3;" horiz-adv-x="729" 
d="M565 939l11 -10c3 -2 4 -6 0 -10l-112 -118c-3 -3 -5 -5 -11 -5h-23c-6 0 -8 1 -10 5l-74 118c-3 4 -1 7 2 10l14 10c4 3 7 3 10 -1l78 -91l105 91c4 4 7 4 10 1zM667 741h37c7 0 9 -2 8 -10l-58 -361c-47 -300 -115 -375 -340 -375c-226 0 -270 75 -222 375l57 362
c1 7 4 9 11 9h36c7 0 10 -2 8 -10l-57 -361c-41 -260 -7 -326 174 -326c182 0 237 66 278 326l58 362c1 7 3 9 10 9z" />
    <glyph glyph-name="Ucircumflex" unicode="&#xdb;" horiz-adv-x="729" 
d="M451 941h24c6 0 8 -2 10 -5l74 -119c3 -4 1 -7 -3 -10l-14 -9c-3 -3 -6 -3 -10 1l-76 91l-106 -91c-4 -4 -7 -4 -10 -1l-11 9c-3 3 -4 6 -1 10l113 119c3 3 4 5 10 5zM667 741h37c7 0 9 -2 8 -10l-58 -361c-47 -300 -115 -375 -340 -375c-226 0 -270 75 -222 375l57 362
c1 7 4 9 11 9h36c7 0 10 -2 8 -10l-57 -361c-41 -260 -7 -326 174 -326c182 0 237 66 278 326l58 362c1 7 3 9 10 9z" />
    <glyph glyph-name="Udieresis" unicode="&#xdc;" horiz-adv-x="729" 
d="M378 902c23 0 36 -11 32 -38c-4 -25 -18 -40 -44 -40c-25 0 -39 13 -34 40c4 26 21 38 46 38zM538 902c24 0 37 -11 33 -38c-4 -25 -19 -40 -45 -40c-24 0 -38 13 -34 40c5 26 21 38 46 38zM667 741h37c7 0 9 -2 8 -10l-58 -361c-47 -300 -115 -375 -340 -375
c-226 0 -270 75 -222 375l57 362c1 7 4 9 11 9h36c7 0 10 -2 8 -10l-57 -361c-41 -260 -7 -326 174 -326c182 0 237 66 278 326l58 362c1 7 3 9 10 9z" />
    <glyph glyph-name="Udieresisacute" unicode="&#x1d7;" horiz-adv-x="729" 
d="M548 1067h42c4 0 6 -3 6 -7v-6c0 -4 -2 -7 -6 -10l-126 -119c-4 -4 -6 -4 -10 -1l-11 10c-3 2 -3 6 0 10l95 119c2 2 5 4 10 4zM378 902c23 0 36 -11 32 -38c-4 -25 -18 -40 -44 -40c-25 0 -39 13 -34 40c4 26 21 38 46 38zM538 902c24 0 37 -11 33 -38
c-4 -25 -19 -40 -45 -40c-24 0 -38 13 -34 40c5 26 21 38 46 38zM667 741h37c7 0 9 -2 8 -10l-58 -361c-47 -300 -115 -375 -340 -375c-226 0 -270 75 -222 375l57 362c1 7 4 9 11 9h36c7 0 10 -2 8 -10l-57 -361c-41 -260 -7 -326 174 -326c182 0 237 66 278 326l58 362
c1 7 3 9 10 9z" />
    <glyph glyph-name="Udieresiscaron" unicode="&#x1d9;" horiz-adv-x="729" 
d="M587 1066l11 -10c3 -2 4 -6 0 -10l-112 -118c-3 -3 -5 -5 -11 -5h-23c-7 0 -8 1 -10 5l-75 118c-3 4 -1 7 3 10l14 10c4 3 7 3 10 -1l77 -91l106 91c4 4 7 4 10 1zM378 902c23 0 36 -11 32 -38c-4 -25 -18 -40 -44 -40c-25 0 -39 13 -34 40c4 26 21 38 46 38zM538 902
c24 0 37 -11 33 -38c-4 -25 -19 -40 -45 -40c-24 0 -38 13 -34 40c5 26 21 38 46 38zM667 741h37c7 0 9 -2 8 -10l-58 -361c-47 -300 -115 -375 -340 -375c-226 0 -270 75 -222 375l57 362c1 7 4 9 11 9h36c7 0 10 -2 8 -10l-57 -361c-41 -260 -7 -326 174 -326
c182 0 237 66 278 326l58 362c1 7 3 9 10 9z" />
    <glyph glyph-name="Udieresisgrave" unicode="&#x1db;" horiz-adv-x="729" 
d="M370 1067h43c5 0 6 -1 8 -4l58 -119c2 -4 1 -8 -3 -10l-15 -10c-3 -3 -7 -3 -10 1l-86 117c-2 3 -3 6 -3 10v8c0 4 4 7 8 7zM378 902c23 0 36 -11 32 -38c-4 -25 -18 -40 -44 -40c-25 0 -39 13 -34 40c4 26 21 38 46 38zM538 902c24 0 37 -11 33 -38
c-4 -25 -19 -40 -45 -40c-24 0 -38 13 -34 40c5 26 21 38 46 38zM667 741h37c7 0 9 -2 8 -10l-58 -361c-47 -300 -115 -375 -340 -375c-226 0 -270 75 -222 375l57 362c1 7 4 9 11 9h36c7 0 10 -2 8 -10l-57 -361c-41 -260 -7 -326 174 -326c182 0 237 66 278 326l58 362
c1 7 3 9 10 9z" />
    <glyph glyph-name="Udieresismacron" unicode="&#x1d5;" horiz-adv-x="729" 
d="M347 1011h241c6 0 9 -3 8 -9l-4 -26c-1 -7 -5 -9 -11 -9h-241c-6 0 -9 3 -8 10l4 25c1 6 5 9 11 9zM378 902c23 0 36 -11 32 -38c-4 -25 -18 -40 -44 -40c-25 0 -39 13 -34 40c4 26 21 38 46 38zM538 902c24 0 37 -11 33 -38c-4 -25 -19 -40 -45 -40c-24 0 -38 13 -34 40
c5 26 21 38 46 38zM667 741h37c7 0 9 -2 8 -10l-58 -361c-47 -300 -115 -375 -340 -375c-226 0 -270 75 -222 375l57 362c1 7 4 9 11 9h36c7 0 10 -2 8 -10l-57 -361c-41 -260 -7 -326 174 -326c182 0 237 66 278 326l58 362c1 7 3 9 10 9z" />
    <glyph glyph-name="Ugrave" unicode="&#xd9;" horiz-adv-x="729" 
d="M370 941h43c4 0 6 -1 7 -5l58 -119c2 -4 1 -7 -3 -10l-14 -9c-4 -3 -7 -3 -10 1l-87 117c-2 2 -2 6 -2 10v7c0 5 4 8 8 8zM667 741h37c7 0 9 -2 8 -10l-58 -361c-47 -300 -115 -375 -340 -375c-226 0 -270 75 -222 375l57 362c1 7 4 9 11 9h36c7 0 10 -2 8 -10l-57 -361
c-41 -260 -7 -326 174 -326c182 0 237 66 278 326l58 362c1 7 3 9 10 9z" />
    <glyph glyph-name="Uhungarumlaut" unicode="&#x170;" horiz-adv-x="729" 
d="M373 941h42c5 0 7 -3 7 -8v-5c0 -4 -2 -7 -6 -11l-127 -118c-3 -4 -6 -4 -10 -1l-10 9c-3 3 -3 6 -1 10l96 119c2 3 5 5 9 5zM530 941h42c5 0 6 -3 6 -8v-5c0 -4 -1 -7 -5 -11l-127 -118c-3 -4 -6 -4 -10 -1l-11 9c-3 3 -3 6 0 10l95 119c3 3 6 5 10 5zM667 741h37
c7 0 9 -2 8 -10l-58 -361c-47 -300 -115 -375 -340 -375c-226 0 -270 75 -222 375l57 362c1 7 4 9 11 9h36c7 0 10 -2 8 -10l-57 -361c-41 -260 -7 -326 174 -326c182 0 237 66 278 326l58 362c1 7 3 9 10 9z" />
    <glyph glyph-name="Umacron" unicode="&#x16a;" horiz-adv-x="729" 
d="M333 876h241c7 0 9 -2 8 -9l-4 -26c-1 -6 -4 -9 -10 -9l-242 1c-6 0 -9 2 -8 9l4 25c2 7 5 9 11 9zM667 741h37c7 0 9 -2 8 -10l-58 -361c-47 -300 -115 -375 -340 -375c-226 0 -270 75 -222 375l57 362c1 7 4 9 11 9h36c7 0 10 -2 8 -10l-57 -361
c-41 -260 -7 -326 174 -326c182 0 237 66 278 326l58 362c1 7 3 9 10 9z" />
    <glyph glyph-name="Uogonek" unicode="&#x172;" horiz-adv-x="729" 
d="M667 741h37c7 0 9 -2 8 -10l-58 -361c-46 -294 -112 -372 -327 -375c-7 -21 -17 -44 -21 -66c-5 -37 6 -42 45 -42h41c7 0 9 -3 8 -9l-3 -19c-1 -6 -4 -10 -10 -12c-12 -3 -45 -5 -59 -5c-50 0 -75 19 -65 75c4 22 13 51 24 78c-202 6 -241 87 -195 375l57 362
c1 7 4 9 11 9h36c7 0 10 -2 8 -10l-57 -361c-41 -260 -7 -326 174 -326c182 0 237 66 278 326l58 362c1 7 3 9 10 9z" />
    <glyph glyph-name="Uring" unicode="&#x16e;" horiz-adv-x="729" 
d="M471 982c63 0 90 -32 80 -93c-9 -60 -47 -92 -110 -92c-62 0 -90 32 -81 92c10 61 47 93 111 93zM466 951c-42 0 -66 -21 -72 -62c-6 -40 10 -62 52 -62c41 0 66 22 72 62c6 41 -11 62 -52 62zM667 741h37c7 0 9 -2 8 -10l-58 -361c-47 -300 -115 -375 -340 -375
c-226 0 -270 75 -222 375l57 362c1 7 4 9 11 9h36c7 0 10 -2 8 -10l-57 -361c-41 -260 -7 -326 174 -326c182 0 237 66 278 326l58 362c1 7 3 9 10 9z" />
    <glyph glyph-name="Utilde" unicode="&#x168;" horiz-adv-x="729" 
d="M514 816c-54 0 -87 53 -127 53c-23 0 -36 -11 -55 -48c-5 -8 -7 -9 -14 -7l-15 3c-7 2 -7 5 -4 13c27 66 48 87 91 87c54 0 86 -53 127 -53c26 0 38 14 55 46c5 8 6 8 12 7l17 -3c6 -1 8 -4 4 -13c-27 -67 -50 -85 -91 -85zM667 741h37c7 0 9 -2 8 -10l-58 -361
c-47 -300 -115 -375 -340 -375c-226 0 -270 75 -222 375l57 362c1 7 4 9 11 9h36c7 0 10 -2 8 -10l-57 -361c-41 -260 -7 -326 174 -326c182 0 237 66 278 326l58 362c1 7 3 9 10 9z" />
    <glyph glyph-name="V" unicode="V" horiz-adv-x="627" 
d="M612 741h40c7 0 10 -2 7 -10l-274 -622c-44 -99 -52 -114 -124 -114c-67 0 -71 15 -84 114l-78 621c-1 9 1 11 8 11h42c5 0 6 -2 7 -9l76 -610c8 -70 10 -78 37 -78c29 0 35 8 64 78l268 609c3 8 5 10 11 10z" />
    <glyph glyph-name="W" unicode="W" horiz-adv-x="1050" 
d="M1031 741h42c7 0 9 -2 6 -10l-257 -622c-40 -99 -53 -114 -120 -114c-72 0 -78 15 -87 114l-43 503l-203 -503c-40 -99 -51 -114 -124 -114c-67 0 -74 15 -83 114l-60 621c0 9 2 11 9 11h41c6 0 8 -2 8 -9l57 -610c6 -70 9 -78 36 -78c30 0 36 8 65 78l236 578
c3 8 6 9 12 9h42c6 0 9 -1 9 -9l53 -578c7 -70 10 -78 40 -78c27 0 33 9 61 78l250 609c3 8 5 10 10 10z" />
    <glyph glyph-name="Wacute" unicode="&#x1e82;" horiz-adv-x="1050" 
d="M695 941h43c4 0 6 -3 6 -8v-5c0 -4 -2 -7 -6 -11l-127 -118c-3 -4 -6 -4 -10 -1l-10 9c-3 3 -3 6 -1 10l96 119c2 3 5 5 9 5zM1031 741h42c7 0 9 -2 6 -10l-257 -622c-40 -99 -53 -114 -120 -114c-72 0 -78 15 -87 114l-43 503l-203 -503c-40 -99 -51 -114 -124 -114
c-67 0 -74 15 -83 114l-60 621c0 9 2 11 9 11h41c6 0 8 -2 8 -9l57 -610c6 -70 9 -78 36 -78c30 0 36 8 65 78l236 578c3 8 6 9 12 9h42c6 0 9 -1 9 -9l53 -578c7 -70 10 -78 40 -78c27 0 33 9 61 78l250 609c3 8 5 10 10 10z" />
    <glyph glyph-name="Wcircumflex" unicode="&#x174;" horiz-adv-x="1050" 
d="M612 941h24c6 0 7 -2 9 -5l75 -119c3 -4 1 -7 -4 -10l-13 -9c-4 -3 -7 -3 -10 1l-77 91l-106 -91c-4 -4 -6 -4 -10 -1l-11 9c-3 3 -4 6 0 10l112 119c3 3 5 5 11 5zM1031 741h42c7 0 9 -2 6 -10l-257 -622c-40 -99 -53 -114 -120 -114c-72 0 -78 15 -87 114l-43 503
l-203 -503c-40 -99 -51 -114 -124 -114c-67 0 -74 15 -83 114l-60 621c0 9 2 11 9 11h41c6 0 8 -2 8 -9l57 -610c6 -70 9 -78 36 -78c30 0 36 8 65 78l236 578c3 8 6 9 12 9h42c6 0 9 -1 9 -9l53 -578c7 -70 10 -78 40 -78c27 0 33 9 61 78l250 609c3 8 5 10 10 10z" />
    <glyph glyph-name="Wdieresis" unicode="&#x1e84;" horiz-adv-x="1050" 
d="M538 902c24 0 37 -11 33 -38c-4 -25 -19 -40 -45 -40c-24 0 -38 13 -34 40c4 26 22 38 46 38zM698 902c24 0 37 -11 33 -38c-4 -25 -19 -40 -45 -40c-24 0 -38 13 -33 40c4 26 21 38 45 38zM1031 741h42c7 0 9 -2 6 -10l-257 -622c-40 -99 -53 -114 -120 -114
c-72 0 -78 15 -87 114l-43 503l-203 -503c-40 -99 -51 -114 -124 -114c-67 0 -74 15 -83 114l-60 621c0 9 2 11 9 11h41c6 0 8 -2 8 -9l57 -610c6 -70 9 -78 36 -78c30 0 36 8 65 78l236 578c3 8 6 9 12 9h42c6 0 9 -1 9 -9l53 -578c7 -70 10 -78 40 -78c27 0 33 9 61 78
l250 609c3 8 5 10 10 10z" />
    <glyph glyph-name="Wgrave" unicode="&#x1e80;" horiz-adv-x="1050" 
d="M530 941h43c4 0 6 -1 8 -5l58 -119c1 -4 1 -7 -4 -10l-14 -9c-4 -3 -7 -3 -10 1l-87 117c-2 2 -2 6 -2 10v7c0 5 4 8 8 8zM1031 741h42c7 0 9 -2 6 -10l-257 -622c-40 -99 -53 -114 -120 -114c-72 0 -78 15 -87 114l-43 503l-203 -503c-40 -99 -51 -114 -124 -114
c-67 0 -74 15 -83 114l-60 621c0 9 2 11 9 11h41c6 0 8 -2 8 -9l57 -610c6 -70 9 -78 36 -78c30 0 36 8 65 78l236 578c3 8 6 9 12 9h42c6 0 9 -1 9 -9l53 -578c7 -70 10 -78 40 -78c27 0 33 9 61 78l250 609c3 8 5 10 10 10z" />
    <glyph glyph-name="X" unicode="X" horiz-adv-x="597" 
d="M578 741h42c9 0 11 -5 5 -13l-281 -340l190 -375c5 -9 1 -13 -8 -13h-42c-8 0 -11 3 -14 9l-167 330l-272 -330c-5 -6 -8 -9 -16 -9h-43c-8 0 -12 4 -5 13l311 375l-174 340c-4 8 0 13 8 13h42c9 0 11 -4 14 -9l151 -294l243 294c4 6 8 9 16 9z" />
    <glyph glyph-name="Y" unicode="Y" horiz-adv-x="618" 
d="M626 741h41c8 0 12 -4 5 -13l-351 -513l-33 -206c-1 -6 -5 -9 -11 -9h-37c-6 0 -9 3 -8 10l33 205l-189 513c-4 9 0 13 9 13h40c8 0 11 -2 14 -10l164 -451l307 452c4 6 8 9 16 9z" />
    <glyph glyph-name="Yacute" unicode="&#xdd;" horiz-adv-x="618" 
d="M473 941h43c4 0 6 -3 6 -8v-5c0 -4 -2 -7 -6 -11l-126 -118c-4 -4 -7 -4 -10 -1l-11 9c-3 3 -3 6 -1 10l96 119c2 3 5 5 9 5zM626 741h41c8 0 12 -4 5 -13l-351 -513l-33 -206c-1 -6 -5 -9 -11 -9h-37c-6 0 -9 3 -8 10l33 205l-189 513c-4 9 0 13 9 13h40
c8 0 11 -2 14 -10l164 -451l307 452c4 6 8 9 16 9z" />
    <glyph glyph-name="Ycircumflex" unicode="&#x176;" horiz-adv-x="618" 
d="M396 941h24c6 0 7 -2 9 -5l75 -119c3 -4 1 -7 -4 -10l-13 -9c-4 -3 -7 -3 -10 1l-77 91l-106 -91c-4 -4 -6 -4 -10 -1l-11 9c-3 3 -4 6 0 10l112 119c3 3 5 5 11 5zM626 741h41c8 0 12 -4 5 -13l-351 -513l-33 -206c-1 -6 -5 -9 -11 -9h-37c-6 0 -9 3 -8 10l33 205
l-189 513c-4 9 0 13 9 13h40c8 0 11 -2 14 -10l164 -451l307 452c4 6 8 9 16 9z" />
    <glyph glyph-name="Ydieresis" unicode="&#x178;" horiz-adv-x="618" 
d="M322 902c24 0 37 -11 33 -38c-4 -25 -19 -40 -45 -40c-24 0 -38 13 -34 40c4 26 22 38 46 38zM482 902c24 0 38 -11 33 -38c-4 -25 -19 -40 -45 -40c-24 0 -38 13 -33 40c4 26 21 38 45 38zM626 741h41c8 0 12 -4 5 -13l-351 -513l-33 -206c-1 -6 -5 -9 -11 -9h-37
c-6 0 -9 3 -8 10l33 205l-189 513c-4 9 0 13 9 13h40c8 0 11 -2 14 -10l164 -451l307 452c4 6 8 9 16 9z" />
    <glyph glyph-name="Ygrave" unicode="&#x1ef2;" horiz-adv-x="618" 
d="M314 941h43c4 0 6 -1 8 -5l58 -119c1 -4 1 -7 -4 -10l-14 -9c-4 -3 -7 -3 -10 1l-87 117c-2 2 -2 6 -2 10v7c0 5 4 8 8 8zM626 741h41c8 0 12 -4 5 -13l-351 -513l-33 -206c-1 -6 -5 -9 -11 -9h-37c-6 0 -9 3 -8 10l33 205l-189 513c-4 9 0 13 9 13h40c8 0 11 -2 14 -10
l164 -451l307 452c4 6 8 9 16 9z" />
    <glyph glyph-name="Ytilde" unicode="&#x1ef8;" horiz-adv-x="618" 
d="M459 816c-55 0 -87 53 -128 53c-23 0 -36 -11 -55 -48c-4 -8 -7 -9 -14 -7l-15 3c-6 2 -7 5 -4 13c28 66 49 87 92 87c54 0 85 -53 126 -53c26 0 39 14 55 46c5 8 7 8 13 7l16 -3c6 -1 9 -4 5 -13c-27 -67 -51 -85 -91 -85zM626 741h41c8 0 12 -4 5 -13l-351 -513
l-33 -206c-1 -6 -5 -9 -11 -9h-37c-6 0 -9 3 -8 10l33 205l-189 513c-4 9 0 13 9 13h40c8 0 11 -2 14 -10l164 -451l307 452c4 6 8 9 16 9z" />
    <glyph glyph-name="Z" unicode="Z" horiz-adv-x="619" 
d="M118 741h517c9 0 12 -3 10 -12l-3 -22c-1 -7 -3 -10 -8 -16l-574 -642h477c6 0 10 -3 8 -9l-4 -30c-1 -7 -6 -10 -12 -10h-538c-9 0 -11 4 -10 12l3 19c1 7 3 10 9 17l576 644h-458c-7 0 -10 3 -9 9l4 30c2 8 5 10 12 10z" />
    <glyph glyph-name="Zacute" unicode="&#x179;" horiz-adv-x="619" 
d="M457 941h42c4 0 6 -3 6 -8v-5c0 -4 -1 -7 -6 -11l-126 -118c-3 -4 -6 -4 -10 -1l-11 9c-3 3 -3 6 0 10l95 119c2 3 5 5 10 5zM118 741h517c9 0 12 -3 10 -12l-3 -22c-1 -7 -3 -10 -8 -16l-574 -642h477c6 0 10 -3 8 -9l-4 -30c-1 -7 -6 -10 -12 -10h-538
c-9 0 -11 4 -10 12l3 19c1 7 3 10 9 17l576 644h-458c-7 0 -10 3 -9 9l4 30c2 8 5 10 12 10z" />
    <glyph glyph-name="Zcaron" unicode="&#x17d;" horiz-adv-x="619" 
d="M510 939l11 -10c2 -2 3 -6 0 -10l-112 -118c-3 -3 -5 -5 -11 -5h-23c-7 0 -9 1 -11 5l-74 118c-3 4 -1 7 3 10l14 10c4 3 7 3 10 -1l77 -91l106 91c4 4 6 4 10 1zM118 741h517c9 0 12 -3 10 -12l-3 -22c-1 -7 -3 -10 -8 -16l-574 -642h477c6 0 10 -3 8 -9l-4 -30
c-1 -7 -6 -10 -12 -10h-538c-9 0 -11 4 -10 12l3 19c1 7 3 10 9 17l576 644h-458c-7 0 -10 3 -9 9l4 30c2 8 5 10 12 10z" />
    <glyph glyph-name="Zdotaccent" unicode="&#x17b;" horiz-adv-x="619" 
d="M403 902c25 0 36 -13 32 -38s-18 -40 -45 -40c-25 0 -37 14 -33 40s21 38 46 38zM118 741h517c9 0 12 -3 10 -12l-3 -22c-1 -7 -3 -10 -8 -16l-574 -642h477c6 0 10 -3 8 -9l-4 -30c-1 -7 -6 -10 -12 -10h-538c-9 0 -11 4 -10 12l3 19c1 7 3 10 9 17l576 644h-458
c-7 0 -10 3 -9 9l4 30c2 8 5 10 12 10z" />
    <glyph glyph-name="Q.alt" horiz-adv-x="708" 
d="M422 746c235 0 275 -87 229 -377c-40 -251 -96 -348 -263 -369l147 -93c5 -3 6 -8 2 -13l-20 -26c-4 -6 -8 -7 -13 -4l-202 131c-234 0 -274 84 -228 374s113 377 348 377zM596 369c40 253 13 328 -182 328c-194 0 -244 -75 -285 -328c-40 -253 -13 -325 182 -325
s245 72 285 325z" />
    <glyph glyph-name="a" unicode="a" horiz-adv-x="512" 
d="M259 542c121 0 210 -33 191 -157l-56 -351c-1 -8 -4 -18 -22 -23c-37 -11 -142 -16 -204 -16c-135 0 -173 39 -155 156c17 101 71 142 183 142h185l14 86c14 91 -50 115 -143 115h-125c-6 0 -9 2 -8 10l4 20c1 8 3 9 10 11c51 6 91 7 126 7zM374 246h-185
c-78 0 -112 -28 -122 -95c-13 -80 12 -109 117 -109c28 0 114 2 160 12z" />
    <glyph glyph-name="aacute" unicode="&#xe1;" horiz-adv-x="512" 
d="M363 741h42c4 0 6 -3 6 -8v-5c0 -4 -1 -7 -6 -11l-126 -118c-3 -4 -6 -4 -10 -1l-11 9c-3 3 -3 6 0 10l95 119c2 3 5 5 10 5zM259 542c121 0 210 -33 191 -157l-56 -351c-1 -8 -4 -18 -22 -23c-37 -11 -142 -16 -204 -16c-135 0 -173 39 -155 156c17 101 71 142 183 142
h185l14 86c14 91 -50 115 -143 115h-125c-6 0 -9 2 -8 10l4 20c1 8 3 9 10 11c51 6 91 7 126 7zM374 246h-185c-78 0 -112 -28 -122 -95c-13 -80 12 -109 117 -109c28 0 114 2 160 12z" />
    <glyph glyph-name="abreve" unicode="&#x103;" horiz-adv-x="512" 
d="M422 728h21c8 0 9 -2 7 -10c-20 -86 -54 -112 -151 -112s-123 26 -116 112c0 8 3 10 10 10h21c6 0 8 -2 9 -8c-1 -55 17 -72 83 -72c65 0 88 17 105 72c2 6 5 8 11 8zM259 542c121 0 210 -33 191 -157l-56 -351c-1 -8 -4 -18 -22 -23c-37 -11 -142 -16 -204 -16
c-135 0 -173 39 -155 156c17 101 71 142 183 142h185l14 86c14 91 -50 115 -143 115h-125c-6 0 -9 2 -8 10l4 20c1 8 3 9 10 11c51 6 91 7 126 7zM374 246h-185c-78 0 -112 -28 -122 -95c-13 -80 12 -109 117 -109c28 0 114 2 160 12z" />
    <glyph glyph-name="acaron" unicode="&#x1ce;" horiz-adv-x="512" 
d="M416 739l11 -10c2 -2 3 -6 0 -10l-112 -118c-3 -3 -5 -5 -11 -5h-23c-7 0 -9 1 -11 5l-74 118c-3 4 -1 7 3 10l14 10c4 3 7 3 10 -1l77 -91l106 91c4 4 6 4 10 1zM259 542c121 0 210 -33 191 -157l-56 -351c-1 -8 -4 -18 -22 -23c-37 -11 -142 -16 -204 -16
c-135 0 -173 39 -155 156c17 101 71 142 183 142h185l14 86c14 91 -50 115 -143 115h-125c-6 0 -9 2 -8 10l4 20c1 8 3 9 10 11c51 6 91 7 126 7zM374 246h-185c-78 0 -112 -28 -122 -95c-13 -80 12 -109 117 -109c28 0 114 2 160 12z" />
    <glyph glyph-name="acircumflex" unicode="&#xe2;" horiz-adv-x="512" 
d="M303 741h24c6 0 7 -2 9 -5l75 -119c3 -4 1 -7 -4 -10l-13 -9c-4 -3 -7 -3 -10 1l-77 91l-106 -91c-4 -4 -6 -4 -10 -1l-11 9c-3 3 -4 6 0 10l112 119c3 3 5 5 11 5zM259 542c121 0 210 -33 191 -157l-56 -351c-1 -8 -4 -18 -22 -23c-37 -11 -142 -16 -204 -16
c-135 0 -173 39 -155 156c17 101 71 142 183 142h185l14 86c14 91 -50 115 -143 115h-125c-6 0 -9 2 -8 10l4 20c1 8 3 9 10 11c51 6 91 7 126 7zM374 246h-185c-78 0 -112 -28 -122 -95c-13 -80 12 -109 117 -109c28 0 114 2 160 12z" />
    <glyph glyph-name="adieresis" unicode="&#xe4;" horiz-adv-x="512" 
d="M235 702c24 0 37 -11 33 -38c-4 -25 -19 -40 -45 -40c-24 0 -38 13 -34 40c4 26 22 38 46 38zM395 702c24 0 38 -11 33 -38c-3 -25 -19 -40 -45 -40c-24 0 -38 13 -33 40c4 26 21 38 45 38zM259 542c121 0 210 -33 191 -157l-56 -351c-1 -8 -4 -18 -22 -23
c-37 -11 -142 -16 -204 -16c-135 0 -173 39 -155 156c17 101 71 142 183 142h185l14 86c14 91 -50 115 -143 115h-125c-6 0 -9 2 -8 10l4 20c1 8 3 9 10 11c51 6 91 7 126 7zM374 246h-185c-78 0 -112 -28 -122 -95c-13 -80 12 -109 117 -109c28 0 114 2 160 12z" />
    <glyph glyph-name="agrave" unicode="&#xe0;" horiz-adv-x="512" 
d="M215 741h43c4 0 6 -1 8 -5l58 -119c1 -4 1 -7 -4 -10l-14 -9c-4 -3 -7 -3 -10 1l-87 117c-2 2 -2 6 -2 10v7c0 5 4 8 8 8zM259 542c121 0 210 -33 191 -157l-56 -351c-1 -8 -4 -18 -22 -23c-37 -11 -142 -16 -204 -16c-135 0 -173 39 -155 156c17 101 71 142 183 142h185
l14 86c14 91 -50 115 -143 115h-125c-6 0 -9 2 -8 10l4 20c1 8 3 9 10 11c51 6 91 7 126 7zM374 246h-185c-78 0 -112 -28 -122 -95c-13 -80 12 -109 117 -109c28 0 114 2 160 12z" />
    <glyph glyph-name="amacron" unicode="&#x101;" horiz-adv-x="512" 
d="M192 676h240c7 0 10 -2 8 -9l-3 -26c-1 -6 -5 -9 -11 -9l-241 1c-7 0 -9 2 -8 9l3 25c2 7 6 9 12 9zM259 542c121 0 210 -33 191 -157l-56 -351c-1 -8 -4 -18 -22 -23c-37 -11 -142 -16 -204 -16c-135 0 -173 39 -155 156c17 101 71 142 183 142h185l14 86
c14 91 -50 115 -143 115h-125c-6 0 -9 2 -8 10l4 20c1 8 3 9 10 11c51 6 91 7 126 7zM374 246h-185c-78 0 -112 -28 -122 -95c-13 -80 12 -109 117 -109c28 0 114 2 160 12z" />
    <glyph glyph-name="aogonek" unicode="&#x105;" horiz-adv-x="512" 
d="M259 542c121 0 210 -33 191 -157l-56 -351c-1 -8 -4 -18 -22 -23c-15 -4 -43 -8 -74 -11c-10 -28 -20 -48 -23 -71c-5 -37 6 -42 45 -42h41c7 0 9 -2 8 -9l-3 -19c-2 -7 -4 -10 -10 -12c-12 -3 -45 -5 -59 -5c-50 0 -75 19 -65 75c4 22 13 52 25 80c-33 -2 -66 -2 -89 -2
c-135 0 -173 39 -155 156c17 101 71 142 183 142h185l14 86c14 91 -50 115 -143 115h-125c-6 0 -9 2 -8 10l4 20c1 8 3 9 10 11c51 6 91 7 126 7zM374 246h-185c-78 0 -112 -28 -122 -95c-13 -80 12 -109 117 -109c28 0 114 2 160 12z" />
    <glyph glyph-name="aring" unicode="&#xe5;" horiz-adv-x="512" 
d="M311 783c64 0 90 -32 81 -93c-9 -60 -47 -92 -110 -92s-90 32 -81 92c9 61 47 93 110 93zM306 752c-41 0 -65 -21 -71 -62c-6 -40 10 -62 51 -62c42 0 67 22 73 62c6 41 -11 62 -53 62zM259 542c121 0 210 -33 191 -157l-56 -351c-1 -8 -4 -18 -22 -23
c-37 -11 -142 -16 -204 -16c-135 0 -173 39 -155 156c17 101 71 142 183 142h185l14 86c14 91 -50 115 -143 115h-125c-6 0 -9 2 -8 10l4 20c1 8 3 9 10 11c51 6 91 7 126 7zM374 246h-185c-78 0 -112 -28 -122 -95c-13 -80 12 -109 117 -109c28 0 114 2 160 12z" />
    <glyph glyph-name="aringacute" unicode="&#x1fb;" horiz-adv-x="512" 
d="M380 873h42c4 0 6 -2 6 -7v-5c0 -4 -1 -7 -5 -11l-75 -71c42 -9 59 -39 51 -89c-9 -60 -47 -92 -110 -92s-90 32 -81 92c9 55 40 86 92 91l70 88c3 3 6 4 10 4zM314 752c-42 0 -66 -21 -72 -62c-6 -40 10 -62 52 -62c41 0 66 22 72 62c6 41 -11 62 -52 62zM259 542
c121 0 210 -33 191 -157l-56 -351c-1 -8 -4 -18 -22 -23c-37 -11 -142 -16 -204 -16c-135 0 -173 39 -155 156c17 101 71 142 183 142h185l14 86c14 91 -50 115 -143 115h-125c-6 0 -9 2 -8 10l4 20c1 8 3 9 10 11c51 6 91 7 126 7zM374 246h-185c-78 0 -112 -28 -122 -95
c-13 -80 12 -109 117 -109c28 0 114 2 160 12z" />
    <glyph glyph-name="atilde" unicode="&#xe3;" horiz-adv-x="512" 
d="M372 616c-54 0 -86 53 -127 53c-23 0 -36 -11 -55 -48c-5 -8 -7 -9 -14 -7l-15 3c-6 2 -7 5 -4 13c28 66 49 87 91 87c55 0 86 -53 127 -53c26 0 39 14 55 46c5 8 7 8 13 7l16 -3c6 -1 8 -4 5 -13c-27 -67 -51 -85 -92 -85zM259 542c121 0 210 -33 191 -157l-56 -351
c-1 -8 -4 -18 -22 -23c-37 -11 -142 -16 -204 -16c-135 0 -173 39 -155 156c17 101 71 142 183 142h185l14 86c14 91 -50 115 -143 115h-125c-6 0 -9 2 -8 10l4 20c1 8 3 9 10 11c51 6 91 7 126 7zM374 246h-185c-78 0 -112 -28 -122 -95c-13 -80 12 -109 117 -109
c28 0 114 2 160 12z" />
    <glyph glyph-name="ae" unicode="&#xe6;" horiz-adv-x="846" 
d="M631 542c163 0 194 -51 165 -252l-5 -29c-2 -13 -5 -19 -25 -19h-339c-22 -158 -3 -199 125 -199h149c6 0 10 -4 9 -10l-4 -23c-1 -5 -5 -9 -11 -10c-42 -5 -113 -5 -151 -5c-78 0 -137 16 -160 54c-68 -45 -154 -54 -222 -54c-128 0 -167 42 -149 153l1 7
c16 97 70 138 183 138h185l13 86c14 91 -50 115 -143 115h-124c-7 0 -10 2 -9 9l5 22c1 7 3 8 9 10c51 6 92 7 126 7c84 0 157 -16 181 -74c36 56 92 74 191 74zM624 494c-130 0 -162 -40 -190 -203h308c25 167 4 203 -118 203zM375 246h-184c-90 0 -114 -28 -124 -96l-1 -3
c-11 -71 11 -104 105 -104c42 0 142 8 199 45c-9 36 -6 94 5 158z" />
    <glyph glyph-name="aeacute" unicode="&#x1fd;" horiz-adv-x="846" 
d="M559 741h42c5 0 7 -3 6 -8v-6c0 -4 -3 -7 -5 -10l-127 -118c-3 -4 -6 -4 -10 -1l-11 9c-2 3 -2 6 0 10l95 119c3 3 6 5 10 5zM631 542c163 0 194 -51 165 -252l-5 -29c-2 -13 -5 -19 -25 -19h-339c-22 -158 -3 -199 125 -199h149c6 0 10 -4 9 -10l-4 -23
c-1 -5 -5 -9 -11 -10c-42 -5 -113 -5 -151 -5c-78 0 -137 16 -160 54c-68 -45 -154 -54 -222 -54c-128 0 -167 42 -149 153l1 7c16 97 70 138 183 138h185l13 86c14 91 -50 115 -143 115h-124c-7 0 -10 2 -9 9l5 22c1 7 3 8 9 10c51 6 92 7 126 7c84 0 157 -16 181 -74
c36 56 92 74 191 74zM624 494c-130 0 -162 -40 -190 -203h308c25 167 4 203 -118 203zM375 246h-184c-90 0 -114 -28 -124 -96l-1 -3c-11 -71 11 -104 105 -104c42 0 142 8 199 45c-9 36 -6 94 5 158z" />
    <glyph glyph-name="b" unicode="b" horiz-adv-x="557" 
d="M153 741h35c6 0 9 -4 8 -10l-31 -194c46 3 93 5 143 5c195 0 216 -52 181 -270c-35 -223 -73 -277 -251 -277c-59 0 -103 1 -197 15c-10 2 -11 7 -10 15l112 706c1 6 4 10 10 10zM301 494h-143l-70 -440c68 -9 113 -11 157 -11c137 0 162 45 191 230
c29 179 18 221 -135 221z" />
    <glyph glyph-name="c" unicode="c" horiz-adv-x="463" 
d="M311 542c30 0 104 -1 144 -6c6 -1 9 -4 7 -10l-4 -23c-1 -6 -4 -9 -10 -9h-144c-136 0 -169 -46 -198 -225c-28 -180 -10 -226 126 -226h144c6 0 9 -4 8 -10l-4 -23c-1 -5 -4 -8 -11 -9c-42 -5 -115 -6 -145 -6c-175 0 -206 56 -171 274c34 217 83 273 258 273z" />
    <glyph glyph-name="cacute" unicode="&#x107;" horiz-adv-x="463" 
d="M401 741h42c5 0 7 -3 7 -8v-5c0 -4 -2 -7 -6 -11l-127 -118c-3 -4 -6 -4 -10 -1l-10 9c-3 3 -3 6 -1 10l96 119c2 3 5 5 9 5zM311 542c30 0 104 -1 144 -6c6 -1 9 -4 7 -10l-4 -23c-1 -6 -4 -9 -10 -9h-144c-136 0 -169 -46 -198 -225c-28 -180 -10 -226 126 -226h144
c6 0 9 -4 8 -10l-4 -23c-1 -5 -4 -8 -11 -9c-42 -5 -115 -6 -145 -6c-175 0 -206 56 -171 274c34 217 83 273 258 273z" />
    <glyph glyph-name="ccaron" unicode="&#x10d;" horiz-adv-x="463" 
d="M420 739l10 -10c3 -2 4 -6 1 -10l-112 -118c-3 -3 -5 -5 -11 -5h-23c-7 0 -9 1 -11 5l-74 118c-3 4 -1 7 3 10l14 10c4 3 7 3 10 -1l77 -91l106 91c4 4 6 4 10 1zM311 542c30 0 104 -1 144 -6c6 -1 9 -4 7 -10l-4 -23c-1 -6 -4 -9 -10 -9h-144c-136 0 -169 -46 -198 -225
c-28 -180 -10 -226 126 -226h144c6 0 9 -4 8 -10l-4 -23c-1 -5 -4 -8 -11 -9c-42 -5 -115 -6 -145 -6c-175 0 -206 56 -171 274c34 217 83 273 258 273z" />
    <glyph glyph-name="ccedilla" unicode="&#xe7;" horiz-adv-x="463" 
d="M311 542c30 0 104 -1 144 -6c6 -1 9 -4 7 -10l-4 -23c-1 -6 -4 -9 -10 -9h-144c-136 0 -169 -46 -198 -225c-28 -180 -10 -226 126 -226h144c6 0 9 -4 8 -10l-4 -23c-1 -5 -4 -8 -11 -9c-34 -4 -89 -6 -124 -6c2 -28 3 -55 -1 -78c-9 -60 -37 -75 -96 -75
c-13 0 -30 2 -50 5c-5 2 -7 5 -6 12l4 19c1 6 4 9 10 9h41c38 0 52 5 58 42c3 18 2 40 0 66c-158 4 -185 64 -152 274c34 217 83 273 258 273z" />
    <glyph glyph-name="ccircumflex" unicode="&#x109;" horiz-adv-x="463" 
d="M324 741h23c6 0 8 -2 10 -5l75 -119c2 -4 1 -7 -4 -10l-13 -9c-4 -3 -7 -3 -10 1l-77 91l-106 -91c-4 -4 -6 -4 -10 -1l-11 9c-3 3 -4 6 0 10l112 119c3 3 5 5 11 5zM311 542c30 0 104 -1 144 -6c6 -1 9 -4 7 -10l-4 -23c-1 -6 -4 -9 -10 -9h-144
c-136 0 -169 -46 -198 -225c-28 -180 -10 -226 126 -226h144c6 0 9 -4 8 -10l-4 -23c-1 -5 -4 -8 -11 -9c-42 -5 -115 -6 -145 -6c-175 0 -206 56 -171 274c34 217 83 273 258 273z" />
    <glyph glyph-name="cdotaccent" unicode="&#x10b;" horiz-adv-x="463" 
d="M320 702c26 0 36 -13 33 -38c-4 -25 -19 -40 -45 -40c-25 0 -38 14 -33 40c4 26 21 38 45 38zM311 542c30 0 104 -1 144 -6c6 -1 9 -4 7 -10l-4 -23c-1 -6 -4 -9 -10 -9h-144c-136 0 -169 -46 -198 -225c-28 -180 -10 -226 126 -226h144c6 0 9 -4 8 -10l-4 -23
c-1 -5 -4 -8 -11 -9c-42 -5 -115 -6 -145 -6c-175 0 -206 56 -171 274c34 217 83 273 258 273z" />
    <glyph glyph-name="d" unicode="d" horiz-adv-x="558" 
d="M504 741h35c6 0 9 -4 8 -10l-112 -706c-1 -8 -5 -13 -15 -15c-99 -14 -143 -15 -202 -15c-179 0 -199 53 -164 277c35 218 72 270 267 270c50 0 96 -2 141 -5l31 194c1 6 5 10 11 10zM456 494h-142c-154 0 -178 -42 -207 -221c-29 -186 -19 -230 118 -230
c44 0 91 2 161 11z" />
    <glyph glyph-name="eth" unicode="&#xf0;" horiz-adv-x="547" 
d="M293 741h37c5 0 9 -2 11 -6l25 -58l106 36c6 3 10 1 11 -5l5 -19c1 -6 -2 -10 -8 -12l-99 -34l97 -225c16 -38 13 -94 0 -175c-31 -196 -80 -248 -254 -248s-206 52 -176 248c32 196 81 248 255 248c37 0 67 -3 91 -10l-63 145l-93 -31c-6 -2 -11 0 -12 6l-4 18
c-1 6 1 11 7 12l86 30l-29 68c-3 7 0 12 7 12zM295 443c-134 0 -168 -41 -194 -200c-25 -159 -4 -201 130 -201s168 42 194 201c25 159 4 200 -130 200z" />
    <glyph glyph-name="dcaron" unicode="&#x10f;" horiz-adv-x="586" 
d="M504 741h35c6 0 9 -4 8 -10l-112 -706c-1 -8 -5 -13 -15 -15c-99 -14 -143 -15 -202 -15c-179 0 -199 53 -164 277c35 218 72 270 267 270c50 0 96 -2 141 -5l31 194c1 6 5 10 11 10zM681 741h39c4 0 6 -3 6 -8l-1 -7c0 -3 -2 -6 -4 -9l-108 -118c-3 -4 -7 -4 -11 -1
l-10 9c-3 3 -3 6 0 10l79 119c2 3 6 5 10 5zM456 494h-142c-154 0 -178 -42 -207 -221c-29 -186 -19 -230 118 -230c44 0 91 2 161 11z" />
    <glyph glyph-name="dcroat" unicode="&#x111;" horiz-adv-x="557" 
d="M535 653h62c6 0 9 -3 8 -10l-4 -19c-1 -7 -4 -10 -10 -10h-63l-93 -589c-1 -8 -5 -13 -15 -15c-99 -14 -143 -15 -202 -15c-179 0 -199 53 -164 277c35 218 72 270 267 270c50 0 96 -2 141 -5l12 77h-154c-6 0 -9 3 -8 9l4 21c1 7 4 9 10 9h155l12 78c1 6 5 10 11 10h35
c6 0 9 -4 8 -10zM386 54l70 440h-142c-154 0 -178 -42 -207 -221c-29 -186 -19 -230 118 -230c44 0 91 2 161 11z" />
    <glyph glyph-name="e" unicode="e" horiz-adv-x="522" 
d="M308 542c163 0 193 -51 164 -252l-5 -29c-2 -13 -5 -19 -24 -19h-339c-23 -158 -3 -199 124 -199h150c6 0 9 -3 8 -10l-4 -23c-1 -5 -4 -8 -11 -9c-42 -5 -113 -6 -150 -6c-176 0 -201 56 -167 274c35 219 78 273 254 273zM300 494c-130 0 -162 -40 -189 -203h308
c25 167 3 203 -119 203z" />
    <glyph glyph-name="eacute" unicode="&#xe9;" horiz-adv-x="522" 
d="M405 741h42c5 0 7 -3 7 -8v-5c0 -4 -2 -7 -6 -11l-127 -118c-3 -4 -6 -4 -10 -1l-11 9c-2 3 -2 6 0 10l95 119c3 3 6 5 10 5zM308 542c163 0 193 -51 164 -252l-5 -29c-2 -13 -5 -19 -24 -19h-339c-23 -158 -3 -199 124 -199h150c6 0 9 -3 8 -10l-4 -23
c-1 -5 -4 -8 -11 -9c-42 -5 -113 -6 -150 -6c-176 0 -201 56 -167 274c35 219 78 273 254 273zM300 494c-130 0 -162 -40 -189 -203h308c25 167 3 203 -119 203z" />
    <glyph glyph-name="ebreve" unicode="&#x115;" horiz-adv-x="522" 
d="M445 728h21c7 0 9 -2 7 -10c-20 -86 -54 -112 -151 -112s-123 26 -116 112c0 8 3 10 10 10h21c6 0 8 -2 8 -8c0 -55 18 -72 83 -72c66 0 89 17 106 72c2 6 5 8 11 8zM308 542c163 0 193 -51 164 -252l-5 -29c-2 -13 -5 -19 -24 -19h-339c-23 -158 -3 -199 124 -199h150
c6 0 9 -3 8 -10l-4 -23c-1 -5 -4 -8 -11 -9c-42 -5 -113 -6 -150 -6c-176 0 -201 56 -167 274c35 219 78 273 254 273zM300 494c-130 0 -162 -40 -189 -203h308c25 167 3 203 -119 203z" />
    <glyph glyph-name="ecaron" unicode="&#x11b;" horiz-adv-x="522" 
d="M444 739l11 -10c3 -2 4 -6 0 -10l-112 -118c-3 -3 -5 -5 -11 -5h-23c-7 0 -8 1 -10 5l-75 118c-2 4 -1 7 3 10l14 10c4 3 7 3 10 -1l77 -91l106 91c4 4 7 4 10 1zM308 542c163 0 193 -51 164 -252l-5 -29c-2 -13 -5 -19 -24 -19h-339c-23 -158 -3 -199 124 -199h150
c6 0 9 -3 8 -10l-4 -23c-1 -5 -4 -8 -11 -9c-42 -5 -113 -6 -150 -6c-176 0 -201 56 -167 274c35 219 78 273 254 273zM300 494c-130 0 -162 -40 -189 -203h308c25 167 3 203 -119 203z" />
    <glyph glyph-name="ecircumflex" unicode="&#xea;" horiz-adv-x="522" 
d="M327 741h24c6 0 8 -2 10 -5l74 -119c3 -4 1 -7 -3 -10l-14 -9c-3 -3 -6 -3 -10 1l-76 91l-106 -91c-4 -4 -7 -4 -10 -1l-11 9c-3 3 -4 6 -1 10l113 119c3 3 4 5 10 5zM308 542c163 0 193 -51 164 -252l-5 -29c-2 -13 -5 -19 -24 -19h-339c-23 -158 -3 -199 124 -199h150
c6 0 9 -3 8 -10l-4 -23c-1 -5 -4 -8 -11 -9c-42 -5 -113 -6 -150 -6c-176 0 -201 56 -167 274c35 219 78 273 254 273zM300 494c-130 0 -162 -40 -189 -203h308c25 167 3 203 -119 203z" />
    <glyph glyph-name="edieresis" unicode="&#xeb;" horiz-adv-x="522" 
d="M252 702c24 0 37 -11 33 -38c-4 -25 -18 -40 -44 -40c-25 0 -39 13 -34 40c4 26 21 38 45 38zM413 702c23 0 37 -11 33 -38c-4 -25 -19 -40 -45 -40c-24 0 -38 13 -34 40c5 26 21 38 46 38zM308 542c163 0 193 -51 164 -252l-5 -29c-2 -13 -5 -19 -24 -19h-339
c-23 -158 -3 -199 124 -199h150c6 0 9 -3 8 -10l-4 -23c-1 -5 -4 -8 -11 -9c-42 -5 -113 -6 -150 -6c-176 0 -201 56 -167 274c35 219 78 273 254 273zM300 494c-130 0 -162 -40 -189 -203h308c25 167 3 203 -119 203z" />
    <glyph glyph-name="edotaccent" unicode="&#x117;" horiz-adv-x="522" 
d="M327 702c26 0 37 -13 33 -38s-19 -40 -45 -40c-25 0 -38 14 -33 40c4 26 21 38 45 38zM308 542c163 0 193 -51 164 -252l-5 -29c-2 -13 -5 -19 -24 -19h-339c-23 -158 -3 -199 124 -199h150c6 0 9 -3 8 -10l-4 -23c-1 -5 -4 -8 -11 -9c-42 -5 -113 -6 -150 -6
c-176 0 -201 56 -167 274c35 219 78 273 254 273zM300 494c-130 0 -162 -40 -189 -203h308c25 167 3 203 -119 203z" />
    <glyph glyph-name="egrave" unicode="&#xe8;" horiz-adv-x="522" 
d="M229 741h43c4 0 6 -1 8 -5l58 -119c2 -4 1 -7 -4 -10l-14 -9c-4 -3 -7 -3 -10 1l-87 117c-1 2 -2 6 -2 10v7c0 5 4 8 8 8zM308 542c163 0 193 -51 164 -252l-5 -29c-2 -13 -5 -19 -24 -19h-339c-23 -158 -3 -199 124 -199h150c6 0 9 -3 8 -10l-4 -23c-1 -5 -4 -8 -11 -9
c-42 -5 -113 -6 -150 -6c-176 0 -201 56 -167 274c35 219 78 273 254 273zM300 494c-130 0 -162 -40 -189 -203h308c25 167 3 203 -119 203z" />
    <glyph glyph-name="emacron" unicode="&#x113;" horiz-adv-x="522" 
d="M198 676h241c7 0 10 -2 8 -9l-4 -26c-1 -6 -4 -9 -10 -9l-242 1c-6 0 -8 2 -7 9l3 25c2 7 5 9 11 9zM308 542c163 0 193 -51 164 -252l-5 -29c-2 -13 -5 -19 -24 -19h-339c-23 -158 -3 -199 124 -199h150c6 0 9 -3 8 -10l-4 -23c-1 -5 -4 -8 -11 -9
c-42 -5 -113 -6 -150 -6c-176 0 -201 56 -167 274c35 219 78 273 254 273zM300 494c-130 0 -162 -40 -189 -203h308c25 167 3 203 -119 203z" />
    <glyph glyph-name="eogonek" unicode="&#x119;" horiz-adv-x="522" 
d="M308 542c163 0 193 -51 164 -252l-5 -29c-2 -13 -5 -19 -24 -19h-339c-23 -158 -3 -199 124 -199h150c6 0 9 -3 8 -10l-4 -23c-1 -5 -4 -8 -11 -9c-15 -2 -34 -3 -53 -4c-10 -24 -19 -46 -22 -68c-6 -37 6 -42 45 -42h40c7 0 9 -3 8 -9l-3 -19c-1 -6 -4 -10 -10 -12
c-11 -3 -44 -5 -59 -5c-50 0 -75 19 -65 75c4 22 13 51 25 78h-56c-176 0 -201 56 -167 274c35 219 78 273 254 273zM300 494c-130 0 -162 -40 -189 -203h308c25 167 3 203 -119 203z" />
    <glyph glyph-name="f" unicode="f" horiz-adv-x="330" 
d="M305 747c28 0 60 -3 80 -6c6 -2 8 -4 7 -10l-4 -23c-1 -6 -5 -9 -11 -9h-66c-34 0 -85 -1 -95 -58l-16 -106h143c6 0 7 -3 5 -10l-9 -26c-2 -6 -5 -8 -10 -8h-136l-77 -482c-1 -6 -5 -9 -11 -9h-34c-6 0 -9 3 -8 9l76 482h-78c-6 0 -10 3 -9 9l5 26c1 6 5 9 11 9h78
l18 114c16 97 109 98 141 98z" />
    <glyph glyph-name="g" unicode="g" horiz-adv-x="557" 
d="M303 542c69 0 123 -3 197 -8c10 -1 12 -7 11 -15l-80 -504c-27 -167 -73 -214 -248 -214c-40 0 -86 1 -133 5c-5 0 -9 4 -7 10l4 23c1 7 4 10 10 10h134c133 0 166 33 184 144l1 8c-53 -5 -96 -6 -143 -6c-195 0 -216 51 -181 269c35 224 73 278 251 278zM454 494h-158
c-137 0 -162 -44 -191 -230c-29 -179 -18 -221 135 -221c46 0 96 1 143 5z" />
    <glyph glyph-name="gbreve" unicode="&#x11f;" horiz-adv-x="557" 
d="M454 728h22c7 0 8 -2 6 -10c-20 -86 -54 -112 -151 -112s-123 26 -116 112c1 8 3 10 10 10h22c6 0 7 -2 8 -8c-1 -55 17 -72 83 -72c65 0 88 17 105 72c3 6 5 8 11 8zM303 542c69 0 123 -3 197 -8c10 -1 12 -7 11 -15l-80 -504c-27 -167 -73 -214 -248 -214
c-40 0 -86 1 -133 5c-5 0 -9 4 -7 10l4 23c1 7 4 10 10 10h134c133 0 166 33 184 144l1 8c-53 -5 -96 -6 -143 -6c-195 0 -216 51 -181 269c35 224 73 278 251 278zM454 494h-158c-137 0 -162 -44 -191 -230c-29 -179 -18 -221 135 -221c46 0 96 1 143 5z" />
    <glyph glyph-name="gcircumflex" unicode="&#x11d;" horiz-adv-x="557" 
d="M340 741h24c6 0 8 -2 10 -5l74 -119c3 -4 1 -7 -3 -10l-14 -9c-4 -3 -7 -3 -10 1l-76 91l-107 -91c-4 -4 -6 -4 -10 -1l-10 9c-3 3 -4 6 -1 10l112 119c3 3 5 5 11 5zM303 542c69 0 123 -3 197 -8c10 -1 12 -7 11 -15l-80 -504c-27 -167 -73 -214 -248 -214
c-40 0 -86 1 -133 5c-5 0 -9 4 -7 10l4 23c1 7 4 10 10 10h134c133 0 166 33 184 144l1 8c-53 -5 -96 -6 -143 -6c-195 0 -216 51 -181 269c35 224 73 278 251 278zM454 494h-158c-137 0 -162 -44 -191 -230c-29 -179 -18 -221 135 -221c46 0 96 1 143 5z" />
    <glyph glyph-name="gcommaaccent" unicode="&#x123;" horiz-adv-x="557" 
d="M431 739l12 -9c2 -3 3 -6 1 -10l-85 -119c-3 -3 -5 -4 -9 -4h-42c-5 0 -7 2 -7 7v7c0 3 0 5 4 9l116 119c3 3 6 3 10 0zM303 542c69 0 123 -3 197 -8c10 -1 12 -7 11 -15l-80 -504c-27 -167 -73 -214 -248 -214c-40 0 -86 1 -133 5c-5 0 -9 4 -7 10l4 23c1 7 4 10 10 10
h134c133 0 166 33 184 144l1 8c-53 -5 -96 -6 -143 -6c-195 0 -216 51 -181 269c35 224 73 278 251 278zM454 494h-158c-137 0 -162 -44 -191 -230c-29 -179 -18 -221 135 -221c46 0 96 1 143 5z" />
    <glyph glyph-name="gdotaccent" unicode="&#x121;" horiz-adv-x="557" 
d="M347 702c25 0 36 -13 32 -38c-3 -25 -18 -40 -45 -40c-25 0 -37 14 -33 40c5 26 21 38 46 38zM303 542c69 0 123 -3 197 -8c10 -1 12 -7 11 -15l-80 -504c-27 -167 -73 -214 -248 -214c-40 0 -86 1 -133 5c-5 0 -9 4 -7 10l4 23c1 7 4 10 10 10h134c133 0 166 33 184 144
l1 8c-53 -5 -96 -6 -143 -6c-195 0 -216 51 -181 269c35 224 73 278 251 278zM454 494h-158c-137 0 -162 -44 -191 -230c-29 -179 -18 -221 135 -221c46 0 96 1 143 5z" />
    <glyph glyph-name="h" unicode="h" 
d="M154 741h34c6 0 9 -3 8 -10l-31 -194c51 4 115 5 160 5c149 0 205 -25 174 -220l-50 -313c-1 -6 -4 -9 -10 -9h-35c-6 0 -9 3 -8 9l50 313c25 157 -18 172 -121 172h-166l-77 -485c-1 -6 -5 -9 -11 -9h-35c-6 0 -8 3 -7 10l114 721c1 7 5 10 11 10z" />
    <glyph glyph-name="hbar" unicode="&#x127;" 
d="M325 542c149 0 205 -25 174 -220l-50 -313c-1 -6 -4 -9 -10 -9h-35c-6 0 -9 3 -8 9l50 313c25 157 -18 172 -121 172h-166l-77 -485c-1 -6 -5 -9 -11 -9h-35c-6 0 -8 3 -7 10l96 604h-63c-6 0 -9 3 -8 10l4 20c1 7 4 9 10 9h63l12 78c1 7 5 10 11 10h34c6 0 9 -3 8 -10
l-12 -78h155c6 0 8 -2 7 -10l-3 -19c-1 -7 -5 -10 -11 -10h-155l-12 -77c51 4 115 5 160 5z" />
    <glyph glyph-name="hcircumflex" unicode="&#x125;" 
d="M182 906h24c6 0 7 -2 10 -5l74 -119c2 -3 0 -7 -3 -10l-14 -9c-4 -3 -7 -3 -10 1l-77 91l-106 -91c-4 -4 -6 -4 -10 -1l-11 9c-3 3 -4 7 0 10l112 119c3 3 5 5 11 5zM154 741h34c6 0 9 -3 8 -10l-31 -194c51 4 115 5 160 5c149 0 205 -25 174 -220l-50 -313
c-1 -6 -4 -9 -10 -9h-35c-6 0 -9 3 -8 9l50 313c25 157 -18 172 -121 172h-166l-77 -485c-1 -6 -5 -9 -11 -9h-35c-6 0 -8 3 -7 10l114 721c1 7 5 10 11 10z" />
    <glyph glyph-name="i" unicode="i" horiz-adv-x="209" 
d="M168 713c23 0 34 -13 30 -36c-4 -25 -19 -38 -42 -38c-24 0 -35 13 -31 38c3 23 19 36 43 36zM122 535h35c6 0 9 -2 8 -9l-82 -517c-1 -6 -5 -9 -11 -9h-35c-6 0 -9 3 -8 9l82 517c1 6 5 9 11 9z" />
    <glyph glyph-name="dotlessi" unicode="&#x131;" horiz-adv-x="209" 
d="M122 535h35c6 0 9 -2 8 -9l-82 -517c-1 -6 -5 -9 -11 -9h-35c-6 0 -9 3 -8 9l82 517c1 6 5 9 11 9z" />
    <glyph glyph-name="iacute" unicode="&#xed;" horiz-adv-x="209" 
d="M230 741h43c4 0 6 -3 6 -8v-5c0 -4 -2 -7 -6 -11l-126 -118c-4 -4 -7 -4 -10 -1l-11 9c-3 3 -3 6 -1 10l96 119c2 3 5 5 9 5zM122 535h35c6 0 9 -2 8 -9l-82 -517c-1 -6 -5 -9 -11 -9h-35c-6 0 -9 3 -8 9l82 517c1 6 5 9 11 9z" />
    <glyph glyph-name="icaron" unicode="&#x1d0;" horiz-adv-x="209" 
d="M272 739l11 -10c3 -2 4 -6 0 -10l-112 -118c-3 -3 -4 -5 -11 -5h-23c-6 0 -8 1 -10 5l-74 118c-3 4 -1 7 2 10l14 10c4 3 7 3 10 -1l78 -91l105 91c4 4 7 4 10 1zM122 535h35c6 0 9 -2 8 -9l-82 -517c-1 -6 -5 -9 -11 -9h-35c-6 0 -9 3 -8 9l82 517c1 6 5 9 11 9z" />
    <glyph glyph-name="icircumflex" unicode="&#xee;" horiz-adv-x="209" 
d="M158 741h24c6 0 8 -2 10 -5l74 -119c3 -4 1 -7 -3 -10l-14 -9c-3 -3 -6 -3 -10 1l-76 91l-106 -91c-4 -4 -7 -4 -10 -1l-11 9c-3 3 -4 6 -1 10l113 119c3 3 4 5 10 5zM122 535h35c6 0 9 -2 8 -9l-82 -517c-1 -6 -5 -9 -11 -9h-35c-6 0 -9 3 -8 9l82 517c1 6 5 9 11 9z
" />
    <glyph glyph-name="idieresis" unicode="&#xef;" horiz-adv-x="209" 
d="M85 702c23 0 37 -11 32 -38c-3 -25 -18 -40 -44 -40c-24 0 -39 13 -34 40c4 26 21 38 46 38zM245 702c24 0 37 -11 33 -38c-4 -25 -19 -40 -45 -40c-24 0 -38 13 -34 40c5 26 21 38 46 38zM122 535h35c6 0 9 -2 8 -9l-82 -517c-1 -6 -5 -9 -11 -9h-35c-6 0 -9 3 -8 9
l82 517c1 6 5 9 11 9z" />
    <glyph glyph-name="i.loclTRK" horiz-adv-x="209" 
d="M165 702c26 0 36 -13 33 -38c-4 -25 -19 -40 -45 -40c-25 0 -38 14 -33 40c4 26 21 38 45 38zM122 535h35c6 0 9 -2 8 -9l-82 -517c-1 -6 -5 -9 -11 -9h-35c-6 0 -9 3 -8 9l82 517c1 6 5 9 11 9z" />
    <glyph glyph-name="igrave" unicode="&#xec;" horiz-adv-x="209" 
d="M69 741h43c4 0 6 -1 8 -5l58 -119c1 -4 1 -7 -4 -10l-14 -9c-4 -3 -7 -3 -10 1l-87 117c-2 2 -2 6 -2 10v7c0 5 4 8 8 8zM122 535h35c6 0 9 -2 8 -9l-82 -517c-1 -6 -5 -9 -11 -9h-35c-6 0 -9 3 -8 9l82 517c1 6 5 9 11 9z" />
    <glyph glyph-name="ij" unicode="&#x133;" horiz-adv-x="419" 
d="M168 713c23 0 34 -13 30 -36c-4 -25 -19 -38 -42 -38c-24 0 -35 13 -31 38c3 23 19 36 43 36zM122 535h35c6 0 9 -2 8 -9l-82 -517c-1 -6 -5 -9 -11 -9h-35c-6 0 -9 3 -8 9l82 517c1 6 5 9 11 9zM378 713c24 0 34 -13 31 -36c-4 -25 -19 -38 -43 -38c-23 0 -35 13 -30 38
c3 23 19 36 42 36zM332 535h35c6 0 9 -2 8 -9l-102 -640c-13 -80 -68 -81 -97 -81c-9 0 -33 0 -47 3c-7 1 -9 4 -8 10l4 25c1 7 5 9 11 9h37c25 0 42 2 50 52l98 622c1 7 5 9 11 9z" />
    <glyph glyph-name="imacron" unicode="&#x12b;" horiz-adv-x="209" 
d="M40 676h241c7 0 10 -2 8 -9l-4 -26c-1 -6 -4 -9 -10 -9l-242 1c-6 0 -9 2 -8 9l4 25c2 7 5 9 11 9zM122 535h35c6 0 9 -2 8 -9l-82 -517c-1 -6 -5 -9 -11 -9h-35c-6 0 -9 3 -8 9l82 517c1 6 5 9 11 9z" />
    <glyph glyph-name="iogonek" unicode="&#x12f;" horiz-adv-x="209" 
d="M165 702c26 0 36 -13 33 -38c-4 -25 -19 -40 -45 -40c-25 0 -38 14 -33 40c4 26 21 38 45 38zM122 535h35c6 0 9 -2 8 -9l-82 -517c-1 -5 -4 -8 -9 -8h-8c-9 -25 -19 -49 -22 -72c-6 -37 6 -42 45 -42h41c6 0 9 -3 8 -9l-4 -19c-1 -6 -3 -10 -10 -12
c-11 -3 -44 -5 -58 -5c-51 0 -75 19 -65 75c4 24 14 56 28 86l82 523c1 6 5 9 11 9z" />
    <glyph glyph-name="itilde" unicode="&#x129;" horiz-adv-x="209" 
d="M221 616c-54 0 -87 53 -127 53c-23 0 -36 -11 -55 -48c-5 -8 -7 -9 -14 -7l-15 3c-7 2 -7 5 -4 13c27 66 48 87 91 87c54 0 86 -53 127 -53c26 0 38 14 55 46c5 8 6 8 13 7l16 -3c6 -1 8 -4 5 -13c-28 -67 -51 -85 -92 -85zM122 535h35c6 0 9 -2 8 -9l-82 -517
c-1 -6 -5 -9 -11 -9h-35c-6 0 -9 3 -8 9l82 517c1 6 5 9 11 9z" />
    <glyph glyph-name="j" unicode="j" horiz-adv-x="210" 
d="M169 713c24 0 34 -13 31 -36c-4 -25 -19 -38 -43 -38c-23 0 -35 13 -30 38c3 23 19 36 42 36zM123 535h35c6 0 9 -2 8 -9l-102 -640c-13 -80 -68 -81 -97 -81c-9 0 -33 0 -47 3c-7 1 -9 4 -8 10l4 25c1 7 5 9 11 9h37c25 0 42 2 50 52l98 622c1 7 5 9 11 9z" />
    <glyph glyph-name="jcircumflex" unicode="&#x135;" horiz-adv-x="210" 
d="M158 741h23c6 0 8 -2 10 -5l75 -119c2 -4 1 -7 -4 -10l-13 -9c-4 -3 -7 -3 -10 1l-77 91l-106 -91c-4 -4 -6 -4 -10 -1l-11 9c-3 3 -4 6 0 10l112 119c3 3 5 5 11 5zM123 535h35c6 0 9 -2 8 -9l-102 -640c-13 -80 -68 -81 -97 -81c-9 0 -33 0 -47 3c-7 1 -9 4 -8 10l4 25
c1 7 5 9 11 9h37c25 0 42 2 50 52l98 622c1 7 5 9 11 9z" />
    <glyph glyph-name="k" unicode="k" horiz-adv-x="461" 
d="M154 741h35c6 0 9 -4 8 -10l-62 -391l227 189c6 5 11 6 19 6h46c11 0 10 -6 3 -12l-239 -196l219 -313c3 -6 2 -14 -13 -14h-37c-7 0 -13 3 -17 8l-212 308l-48 -306c-2 -7 -6 -10 -12 -10h-34c-6 0 -8 3 -8 10l114 720c1 7 5 11 11 11z" />
    <glyph glyph-name="kcommaaccent" unicode="&#x137;" horiz-adv-x="461" 
d="M154 741h35c6 0 9 -4 8 -10l-62 -391l227 189c6 5 11 6 19 6h46c11 0 10 -6 3 -12l-239 -196l219 -313c3 -6 2 -14 -13 -14h-37c-7 0 -13 3 -17 8l-212 308l-48 -306c-2 -7 -6 -10 -12 -10h-34c-6 0 -8 3 -8 10l114 720c1 7 5 11 11 11zM186 -37h38c4 0 5 -2 5 -7v-5
c0 -4 -1 -7 -5 -11l-122 -119c-4 -3 -7 -3 -10 0l-11 9c-3 3 -3 6 0 10l95 119c3 3 6 4 10 4z" />
    <glyph glyph-name="kgreenlandic" unicode="&#x138;" horiz-adv-x="468" 
d="M416 535h42c9 0 9 -5 2 -12l-276 -236l219 -277c4 -6 3 -11 -8 -11h-47c-5 0 -10 2 -12 6l-211 264l-42 -260c-1 -6 -5 -9 -11 -9h-36c-6 0 -9 3 -8 9l82 517c0 6 5 9 11 9h36c6 0 9 -3 8 -9l-36 -226l269 228c6 5 12 7 18 7z" />
    <glyph glyph-name="l" unicode="l" horiz-adv-x="208" 
d="M154 741h35c6 0 9 -3 8 -10l-115 -722c-1 -6 -5 -9 -11 -9h-34c-6 0 -9 3 -8 9l114 723c1 6 5 9 11 9z" />
    <glyph glyph-name="lacute" unicode="&#x13a;" horiz-adv-x="208" 
d="M264 929h42c4 0 6 -3 6 -7v-6c0 -4 -2 -7 -6 -11l-126 -118c-4 -4 -6 -4 -10 -1l-11 9c-3 3 -3 7 0 10l95 119c2 3 5 5 10 5zM154 741h35c6 0 9 -3 8 -10l-115 -722c-1 -6 -5 -9 -11 -9h-34c-6 0 -9 3 -8 9l114 723c1 6 5 9 11 9z" />
    <glyph glyph-name="lcaron" unicode="&#x13e;" horiz-adv-x="237" 
d="M154 741h35c6 0 9 -3 8 -10l-115 -722c-1 -6 -4 -9 -10 -9h-35c-6 0 -9 3 -8 9l115 723c1 6 4 9 10 9zM318 741h40c4 0 7 -2 6 -8l-2 -7c0 -3 -1 -6 -5 -10l-107 -117c-3 -4 -6 -4 -10 -1l-10 9c-3 3 -3 6 0 10l79 119c2 3 5 5 9 5z" />
    <glyph glyph-name="lcommaaccent" unicode="&#x13c;" horiz-adv-x="208" 
d="M155 741h35c6 0 9 -3 8 -10l-115 -722c-1 -6 -5 -9 -11 -9h-34c-6 0 -9 3 -8 9l114 723c1 6 5 9 11 9zM34 -37h38c4 0 5 -2 5 -7v-5c0 -4 -1 -7 -5 -11l-122 -119c-3 -3 -6 -3 -10 0l-10 9c-4 3 -4 6 -1 10l96 119c2 3 5 4 9 4z" />
    <glyph glyph-name="ldot" unicode="&#x140;" horiz-adv-x="260" 
d="M154 741h35c6 0 9 -3 8 -10l-115 -722c-1 -6 -4 -9 -10 -9h-35c-6 0 -9 3 -8 9l115 723c1 6 4 9 10 9zM238 345c25 0 36 -13 33 -39c-5 -26 -19 -39 -45 -39c-25 0 -38 13 -33 39c3 26 20 39 45 39z" />
    <glyph glyph-name="lslash" unicode="&#x142;" horiz-adv-x="244" 
d="M165 741h35c6 0 9 -3 8 -10l-59 -368l68 35c7 4 10 3 13 -2l9 -20c2 -6 1 -9 -6 -13l-91 -48l-49 -306c-1 -6 -4 -9 -10 -9h-35c-6 0 -9 3 -8 9l44 276l-58 -31c-5 -3 -10 -2 -11 4l-9 20c-1 5 0 9 6 12l79 42l64 400c1 6 4 9 10 9z" />
    <glyph glyph-name="m" unicode="m" horiz-adv-x="864" 
d="M618 542c149 0 205 -25 174 -220l-50 -313c-1 -6 -5 -9 -11 -9h-34c-6 0 -9 3 -8 9l50 313c25 157 -18 172 -121 172c-56 0 -112 -5 -153 -14c12 -31 14 -77 3 -147l-52 -324c-2 -7 -5 -9 -10 -9h-35c-6 0 -9 3 -8 9l52 324c24 156 -20 161 -123 161h-134l-77 -485
c-1 -6 -5 -9 -11 -9h-35c-6 0 -8 3 -7 9l81 512c1 7 4 9 12 10c60 8 114 11 171 11c60 0 113 -8 144 -27c53 16 124 27 182 27z" />
    <glyph glyph-name="n" unicode="n" horiz-adv-x="570" 
d="M324 542c149 0 205 -25 174 -220l-50 -313c-1 -6 -5 -9 -11 -9h-34c-6 0 -9 3 -8 9l50 313c25 157 -18 172 -121 172h-166l-77 -485c-1 -6 -5 -9 -11 -9h-35c-6 0 -8 3 -7 9l81 512c1 7 4 9 12 10c73 11 148 11 203 11z" />
    <glyph glyph-name="nacute" unicode="&#x144;" horiz-adv-x="570" 
d="M390 741h42c4 0 6 -3 6 -8v-5c0 -4 -1 -7 -6 -11l-126 -118c-3 -4 -6 -4 -10 -1l-11 9c-3 3 -3 6 0 10l95 119c3 3 5 5 10 5zM324 542c149 0 205 -25 174 -220l-50 -313c-1 -6 -5 -9 -11 -9h-34c-6 0 -9 3 -8 9l50 313c25 157 -18 172 -121 172h-166l-77 -485
c-1 -6 -5 -9 -11 -9h-35c-6 0 -8 3 -7 9l81 512c1 7 4 9 12 10c73 11 148 11 203 11z" />
    <glyph glyph-name="napostrophe" unicode="&#x149;" horiz-adv-x="570" 
d="M158 741h42c4 0 6 -3 6 -8v-5c0 -4 -1 -7 -5 -11l-127 -118c-3 -4 -6 -4 -10 -1l-11 9c-3 3 -3 6 0 10l95 119c3 3 6 5 10 5zM324 542c149 0 205 -25 174 -220l-50 -313c-1 -6 -5 -9 -11 -9h-34c-6 0 -9 3 -8 9l50 313c25 157 -18 172 -121 172h-166l-77 -485
c-1 -6 -5 -9 -11 -9h-35c-6 0 -8 3 -7 9l81 512c1 7 4 9 12 10c73 11 148 11 203 11z" />
    <glyph glyph-name="ncaron" unicode="&#x148;" horiz-adv-x="570" 
d="M456 739l11 -10c2 -2 3 -6 0 -10l-112 -118c-3 -3 -5 -5 -11 -5h-23c-7 0 -9 1 -11 5l-74 118c-3 4 -1 7 3 10l14 10c4 3 7 3 10 -1l77 -91l106 91c4 4 7 4 10 1zM324 542c149 0 205 -25 174 -220l-50 -313c-1 -6 -5 -9 -11 -9h-34c-6 0 -9 3 -8 9l50 313
c25 157 -18 172 -121 172h-166l-77 -485c-1 -6 -5 -9 -11 -9h-35c-6 0 -8 3 -7 9l81 512c1 7 4 9 12 10c73 11 148 11 203 11z" />
    <glyph glyph-name="ncommaaccent" unicode="&#x146;" horiz-adv-x="570" 
d="M324 542c149 0 205 -25 174 -220l-50 -313c-1 -6 -5 -9 -11 -9h-34c-6 0 -9 3 -8 9l50 313c25 157 -18 172 -121 172h-166l-77 -485c-1 -6 -5 -9 -11 -9h-35c-6 0 -8 3 -7 9l81 512c1 7 4 9 12 10c73 11 148 11 203 11zM209 -37h38c5 0 6 -2 6 -7v-5c0 -4 -2 -7 -6 -11
l-122 -119c-3 -3 -6 -3 -10 0l-10 9c-4 3 -4 6 -1 10l96 119c2 3 5 4 9 4z" />
    <glyph glyph-name="eng" unicode="&#x14b;" horiz-adv-x="570" 
d="M324 542c149 0 205 -25 174 -220l-69 -436c-13 -80 -68 -81 -97 -81c-10 0 -34 0 -48 3c-7 1 -9 4 -8 11l5 24c1 7 5 9 11 9h37c25 0 42 2 50 52l66 418c25 157 -18 172 -121 172h-166l-77 -485c-1 -6 -5 -9 -11 -9h-35c-6 0 -8 3 -7 9l81 512c1 7 3 9 12 10
c73 11 148 11 203 11z" />
    <glyph glyph-name="ntilde" unicode="&#xf1;" horiz-adv-x="570" 
d="M405 616c-55 0 -87 53 -128 53c-23 0 -36 -11 -55 -48c-4 -8 -7 -9 -13 -7l-16 3c-6 2 -7 5 -4 13c28 66 49 87 92 87c54 0 85 -53 127 -53c25 0 38 14 55 46c4 8 6 8 12 7l16 -3c6 -1 9 -4 5 -13c-27 -67 -51 -85 -91 -85zM324 542c149 0 205 -25 174 -220l-50 -313
c-1 -6 -5 -9 -11 -9h-34c-6 0 -9 3 -8 9l50 313c25 157 -18 172 -121 172h-166l-77 -485c-1 -6 -5 -9 -11 -9h-35c-6 0 -8 3 -7 9l81 512c1 7 4 9 12 10c73 11 148 11 203 11z" />
    <glyph glyph-name="o" unicode="o" horiz-adv-x="550" 
d="M311 542c175 0 206 -56 172 -273c-35 -218 -83 -274 -259 -274c-175 0 -206 56 -171 274c34 217 83 273 258 273zM304 494c-136 0 -169 -46 -198 -225c-28 -180 -10 -226 126 -226c135 0 169 46 198 226c28 179 9 225 -126 225z" />
    <glyph glyph-name="oacute" unicode="&#xf3;" horiz-adv-x="550" 
d="M410 741h42c4 0 6 -3 6 -8v-5c0 -4 -1 -7 -6 -11l-126 -118c-3 -4 -6 -4 -10 -1l-11 9c-3 3 -3 6 0 10l95 119c3 3 5 5 10 5zM311 542c175 0 206 -56 172 -273c-35 -218 -83 -274 -259 -274c-175 0 -206 56 -171 274c34 217 83 273 258 273zM304 494
c-136 0 -169 -46 -198 -225c-28 -180 -10 -226 126 -226c135 0 169 46 198 226c28 179 9 225 -126 225z" />
    <glyph glyph-name="obreve" unicode="&#x14f;" horiz-adv-x="550" 
d="M444 728h22c7 0 8 -2 6 -10c-20 -86 -54 -112 -151 -112s-123 26 -116 112c1 8 3 10 10 10h22c6 0 8 -2 8 -8c-1 -55 17 -72 83 -72c65 0 88 17 105 72c3 6 5 8 11 8zM311 542c175 0 206 -56 172 -273c-35 -218 -83 -274 -259 -274c-175 0 -206 56 -171 274
c34 217 83 273 258 273zM304 494c-136 0 -169 -46 -198 -225c-28 -180 -10 -226 126 -226c135 0 169 46 198 226c28 179 9 225 -126 225z" />
    <glyph glyph-name="ocaron" unicode="&#x1d2;" horiz-adv-x="550" 
d="M444 739l11 -10c3 -2 4 -6 0 -10l-112 -118c-3 -3 -5 -5 -11 -5h-23c-7 0 -8 1 -10 5l-75 118c-2 4 -1 7 3 10l14 10c4 3 7 3 10 -1l77 -91l106 91c4 4 7 4 10 1zM311 542c175 0 206 -56 172 -273c-35 -218 -83 -274 -259 -274c-175 0 -206 56 -171 274
c34 217 83 273 258 273zM304 494c-136 0 -169 -46 -198 -225c-28 -180 -10 -226 126 -226c135 0 169 46 198 226c28 179 9 225 -126 225z" />
    <glyph glyph-name="ocircumflex" unicode="&#xf4;" horiz-adv-x="550" 
d="M330 741h24c6 0 8 -2 10 -5l74 -119c3 -4 1 -7 -3 -10l-14 -9c-4 -3 -6 -3 -10 1l-76 91l-107 -91c-3 -4 -6 -4 -10 -1l-10 9c-3 3 -4 6 -1 10l112 119c3 3 5 5 11 5zM311 542c175 0 206 -56 172 -273c-35 -218 -83 -274 -259 -274c-175 0 -206 56 -171 274
c34 217 83 273 258 273zM304 494c-136 0 -169 -46 -198 -225c-28 -180 -10 -226 126 -226c135 0 169 46 198 226c28 179 9 225 -126 225z" />
    <glyph glyph-name="odieresis" unicode="&#xf6;" horiz-adv-x="550" 
d="M256 702c24 0 37 -11 33 -38c-4 -25 -18 -40 -44 -40c-25 0 -39 13 -34 40c4 26 21 38 45 38zM417 702c23 0 37 -11 33 -38c-4 -25 -19 -40 -45 -40c-24 0 -38 13 -34 40c5 26 21 38 46 38zM311 542c175 0 206 -56 172 -273c-35 -218 -83 -274 -259 -274
c-175 0 -206 56 -171 274c34 217 83 273 258 273zM304 494c-136 0 -169 -46 -198 -225c-28 -180 -10 -226 126 -226c135 0 169 46 198 226c28 179 9 225 -126 225z" />
    <glyph glyph-name="ograve" unicode="&#xf2;" horiz-adv-x="550" 
d="M232 741h43c4 0 6 -1 8 -5l58 -119c2 -4 1 -7 -4 -10l-14 -9c-4 -3 -7 -3 -10 1l-87 117c-1 2 -2 6 -2 10v7c0 5 4 8 8 8zM311 542c175 0 206 -56 172 -273c-35 -218 -83 -274 -259 -274c-175 0 -206 56 -171 274c34 217 83 273 258 273zM304 494
c-136 0 -169 -46 -198 -225c-28 -180 -10 -226 126 -226c135 0 169 46 198 226c28 179 9 225 -126 225z" />
    <glyph glyph-name="ohungarumlaut" unicode="&#x151;" horiz-adv-x="550" 
d="M314 741h42c5 0 6 -3 6 -8v-5c0 -4 -1 -7 -5 -11l-127 -118c-3 -4 -6 -4 -10 -1l-11 9c-2 3 -2 6 0 10l95 119c3 3 6 5 10 5zM471 741h42c4 0 6 -3 6 -8v-5c0 -4 -1 -7 -5 -11l-127 -118c-3 -4 -6 -4 -10 -1l-11 9c-3 3 -3 6 0 10l95 119c3 3 6 5 10 5zM311 542
c175 0 206 -56 172 -273c-35 -218 -83 -274 -259 -274c-175 0 -206 56 -171 274c34 217 83 273 258 273zM304 494c-136 0 -169 -46 -198 -225c-28 -180 -10 -226 126 -226c135 0 169 46 198 226c28 179 9 225 -126 225z" />
    <glyph glyph-name="omacron" unicode="&#x14d;" horiz-adv-x="550" 
d="M212 676h241c6 0 9 -2 8 -9l-4 -26c-1 -6 -5 -9 -11 -9l-241 1c-6 0 -9 2 -8 9l4 25c1 7 5 9 11 9zM311 542c175 0 206 -56 172 -273c-35 -218 -83 -274 -259 -274c-175 0 -206 56 -171 274c34 217 83 273 258 273zM304 494c-136 0 -169 -46 -198 -225
c-28 -180 -10 -226 126 -226c135 0 169 46 198 226c28 179 9 225 -126 225z" />
    <glyph glyph-name="oslash" unicode="&#xf8;" horiz-adv-x="550" 
d="M483 269c-35 -218 -83 -274 -259 -274c-66 0 -112 8 -140 32l-27 -30c-6 -7 -10 -6 -13 -2l-20 15c-4 4 -5 8 -1 13l32 36c-20 43 -18 108 -2 210c34 217 83 273 258 273c65 0 110 -9 138 -31l23 26c5 5 9 6 14 2l20 -15c4 -3 5 -8 0 -13l-27 -31c22 -41 20 -108 4 -211z
M304 494c-136 0 -169 -46 -198 -225c-11 -73 -15 -123 -5 -157l310 355c-21 20 -55 27 -107 27zM435 430l-313 -359c21 -20 57 -28 110 -28c135 0 169 46 198 226c12 74 15 126 5 161z" />
    <glyph glyph-name="oslashacute" unicode="&#x1ff;" horiz-adv-x="549" 
d="M386 741h42c5 0 7 -3 7 -8l-1 -6c0 -4 -3 -7 -5 -10l-127 -118c-3 -4 -6 -4 -10 -1l-11 9c-2 3 -2 6 0 10l95 119c3 3 6 5 10 5zM482 269c-34 -218 -83 -274 -258 -274c-66 0 -112 8 -141 32l-26 -30c-6 -7 -10 -6 -14 -2l-20 15c-4 4 -4 8 0 13l32 36
c-20 43 -18 108 -2 210c34 217 83 273 258 273c65 0 109 -9 138 -31l23 26c5 5 9 6 14 2l19 -15c5 -3 6 -8 0 -13l-26 -31c21 -41 20 -108 3 -211zM303 494c-135 0 -168 -46 -197 -225c-12 -73 -15 -123 -6 -157l310 355c-20 20 -55 27 -107 27zM435 430l-314 -359
c22 -20 57 -28 110 -28c136 0 170 46 198 226c13 74 16 126 6 161z" />
    <glyph glyph-name="otilde" unicode="&#xf5;" horiz-adv-x="550" 
d="M393 616c-54 0 -87 53 -127 53c-23 0 -37 -11 -55 -48c-5 -8 -7 -9 -14 -7l-15 3c-7 2 -8 5 -4 13c27 66 48 87 91 87c54 0 86 -53 127 -53c25 0 38 14 55 46c4 8 6 8 12 7l17 -3c6 -1 8 -4 4 -13c-27 -67 -51 -85 -91 -85zM311 542c175 0 206 -56 172 -273
c-35 -218 -83 -274 -259 -274c-175 0 -206 56 -171 274c34 217 83 273 258 273zM304 494c-136 0 -169 -46 -198 -225c-28 -180 -10 -226 126 -226c135 0 169 46 198 226c28 179 9 225 -126 225z" />
    <glyph glyph-name="oe" unicode="&#x153;" horiz-adv-x="898" 
d="M683 542c163 0 194 -51 165 -252l-5 -29c-2 -13 -6 -19 -25 -19h-339c-22 -158 -3 -199 125 -199h149c6 0 10 -4 9 -10l-4 -23c-1 -5 -5 -8 -11 -9c-42 -5 -113 -6 -151 -6c-104 0 -154 21 -170 86c-38 -65 -97 -86 -201 -86c-176 0 -206 56 -172 274
c35 217 83 273 258 273c104 0 157 -21 174 -86c37 66 93 86 198 86zM304 494c-135 0 -169 -46 -198 -225c-28 -180 -9 -226 126 -226s170 46 198 226c29 179 9 225 -126 225zM676 494c-130 0 -162 -40 -190 -203h308c25 167 4 203 -118 203z" />
    <glyph glyph-name="p" unicode="p" horiz-adv-x="557" 
d="M325 542c178 0 198 -55 163 -278c-34 -218 -72 -269 -267 -269c-47 0 -89 2 -141 5l-29 -184c-1 -6 -4 -10 -10 -10h-35c-6 0 -9 4 -8 10l111 703c2 8 5 13 15 15c98 7 142 8 201 8zM317 494h-158l-71 -446c45 -4 95 -5 141 -5c153 0 177 41 206 221
c29 185 24 230 -118 230z" />
    <glyph glyph-name="thorn" unicode="&#xfe;" horiz-adv-x="558" 
d="M154 741h34c6 0 9 -4 8 -10l-31 -194c47 3 93 5 144 5c194 0 215 -52 181 -270c-35 -223 -73 -277 -252 -277c-47 0 -87 1 -157 9l-30 -188c-1 -6 -4 -10 -10 -10h-35c-6 0 -9 3 -8 10l145 915c1 6 5 10 11 10zM301 494h-142l-70 -440c67 -9 113 -11 157 -11
c137 0 162 45 191 230c28 179 17 221 -136 221z" />
    <glyph glyph-name="q" unicode="q" horiz-adv-x="557" 
d="M303 542c59 0 103 -1 198 -8c9 -2 11 -7 10 -15l-111 -703c-1 -6 -5 -10 -11 -10h-34c-6 0 -9 3 -8 10l29 184c-53 -4 -96 -5 -143 -5c-195 0 -216 51 -181 269c35 224 73 278 251 278zM454 494h-158c-139 0 -162 -44 -191 -230c-29 -179 -18 -221 135 -221
c46 0 96 1 143 5z" />
    <glyph glyph-name="r" unicode="r" horiz-adv-x="329" 
d="M241 542c26 0 81 -3 98 -7c6 -2 9 -5 8 -10l-5 -22c-1 -6 -4 -10 -10 -9h-89c-39 0 -87 -5 -95 -58l-68 -427c-1 -6 -4 -9 -10 -9h-35c-6 0 -9 3 -8 9l69 435c16 97 113 98 145 98z" />
    <glyph glyph-name="racute" unicode="&#x155;" horiz-adv-x="329" 
d="M300 741h42c4 0 6 -3 6 -8v-5c0 -4 -1 -7 -5 -11l-127 -118c-3 -4 -6 -4 -10 -1l-11 9c-3 3 -3 6 0 10l95 119c3 3 5 5 10 5zM241 542c26 0 81 -3 98 -7c6 -2 9 -5 8 -10l-5 -22c-1 -6 -4 -10 -10 -9h-89c-39 0 -87 -5 -95 -58l-68 -427c-1 -6 -4 -9 -10 -9h-35
c-6 0 -9 3 -8 9l69 435c16 97 113 98 145 98z" />
    <glyph glyph-name="rcaron" unicode="&#x159;" horiz-adv-x="329" 
d="M352 739l11 -10c3 -2 4 -6 1 -10l-113 -118c-3 -3 -4 -5 -10 -5h-24c-6 0 -8 1 -10 5l-74 118c-3 4 -1 7 2 10l15 10c3 3 6 3 10 -1l77 -91l105 91c4 4 7 4 10 1zM241 542c26 0 81 -3 98 -7c6 -2 9 -5 8 -10l-5 -22c-1 -6 -4 -10 -10 -9h-89c-39 0 -87 -5 -95 -58
l-68 -427c-1 -6 -4 -9 -10 -9h-35c-6 0 -9 3 -8 9l69 435c16 97 113 98 145 98z" />
    <glyph glyph-name="rcommaaccent" unicode="&#x157;" horiz-adv-x="329" 
d="M241 542c26 0 81 -3 98 -7c6 -2 9 -5 8 -10l-5 -22c-1 -6 -4 -10 -10 -9h-89c-39 0 -87 -5 -95 -58l-68 -427c-1 -6 -4 -9 -10 -9h-35c-6 0 -9 3 -8 9l69 435c16 97 113 98 145 98zM30 -37h38c4 0 5 -2 5 -7v-5c0 -4 -1 -7 -5 -11l-122 -119c-4 -3 -7 -3 -10 0l-11 9
c-3 3 -3 6 0 10l95 119c3 3 5 4 10 4z" />
    <glyph glyph-name="s" unicode="s" horiz-adv-x="463" 
d="M261 542c31 0 118 -1 161 -6c6 -1 8 -5 7 -10l-4 -23c-1 -6 -4 -9 -10 -9h-177c-42 0 -104 -10 -113 -68l-3 -19c-6 -41 1 -65 54 -89l143 -63c71 -32 77 -75 68 -126l-2 -14c-15 -97 -71 -120 -210 -120c-49 0 -143 3 -166 6c-8 1 -9 4 -8 9l4 23c1 6 4 10 10 10h168
c104 0 140 15 149 72l2 15c6 36 -3 61 -48 82l-147 64c-70 32 -78 76 -70 132l4 22c16 104 119 112 188 112z" />
    <glyph glyph-name="sacute" unicode="&#x15b;" horiz-adv-x="463" 
d="M349 741h42c4 0 6 -3 6 -8v-5c0 -4 -1 -7 -6 -11l-126 -118c-3 -4 -6 -4 -10 -1l-11 9c-3 3 -3 6 0 10l95 119c3 3 5 5 10 5zM261 542c31 0 118 -1 161 -6c6 -1 8 -5 7 -10l-4 -23c-1 -6 -4 -9 -10 -9h-177c-42 0 -104 -10 -113 -68l-3 -19c-6 -41 1 -65 54 -89l143 -63
c71 -32 77 -75 68 -126l-2 -14c-15 -97 -71 -120 -210 -120c-49 0 -143 3 -166 6c-8 1 -9 4 -8 9l4 23c1 6 4 10 10 10h168c104 0 140 15 149 72l2 15c6 36 -3 61 -48 82l-147 64c-70 32 -78 76 -70 132l4 22c16 104 119 112 188 112z" />
    <glyph glyph-name="scaron" unicode="&#x161;" horiz-adv-x="463" 
d="M402 739l11 -10c3 -2 4 -6 0 -10l-112 -118c-3 -3 -5 -5 -11 -5h-23c-6 0 -8 1 -10 5l-74 118c-3 4 -1 7 2 10l14 10c4 3 7 3 10 -1l78 -91l105 91c4 4 7 4 10 1zM261 542c31 0 118 -1 161 -6c6 -1 8 -5 7 -10l-4 -23c-1 -6 -4 -9 -10 -9h-177c-42 0 -104 -10 -113 -68
l-3 -19c-6 -41 1 -65 54 -89l143 -63c71 -32 77 -75 68 -126l-2 -14c-15 -97 -71 -120 -210 -120c-49 0 -143 3 -166 6c-8 1 -9 4 -8 9l4 23c1 6 4 10 10 10h168c104 0 140 15 149 72l2 15c6 36 -3 61 -48 82l-147 64c-70 32 -78 76 -70 132l4 22c16 104 119 112 188 112z
" />
    <glyph glyph-name="scedilla" unicode="&#x15f;" horiz-adv-x="463" 
d="M261 542c31 0 118 -1 161 -6c6 -1 8 -5 7 -10l-4 -23c-1 -6 -4 -9 -10 -9h-177c-42 0 -104 -10 -113 -68l-3 -19c-6 -41 1 -65 54 -89l143 -63c71 -32 77 -75 68 -126l-2 -14c-14 -89 -62 -116 -179 -120c3 -27 4 -55 0 -78c-9 -60 -37 -75 -96 -75c-13 0 -30 2 -50 5
c-6 2 -7 5 -6 12l3 19c1 6 5 9 11 9h41c38 0 52 5 58 42c3 18 2 40 0 66c-47 1 -135 3 -158 6c-8 1 -9 4 -8 9l4 23c1 6 4 10 10 10h168c104 0 140 15 149 72l2 15c6 36 -3 61 -48 82l-147 64c-70 32 -78 76 -70 132l4 22c16 104 119 112 188 112z" />
    <glyph glyph-name="scircumflex" unicode="&#x15d;" horiz-adv-x="463" 
d="M282 741h23c6 0 8 -2 10 -5l74 -119c3 -4 1 -7 -3 -10l-13 -9c-4 -3 -7 -3 -10 1l-77 91l-106 -91c-4 -4 -6 -4 -10 -1l-11 9c-3 3 -4 6 0 10l112 119c3 3 5 5 11 5zM261 542c31 0 118 -1 161 -6c6 -1 8 -5 7 -10l-4 -23c-1 -6 -4 -9 -10 -9h-177
c-42 0 -104 -10 -113 -68l-3 -19c-6 -41 1 -65 54 -89l143 -63c71 -32 77 -75 68 -126l-2 -14c-15 -97 -71 -120 -210 -120c-49 0 -143 3 -166 6c-8 1 -9 4 -8 9l4 23c1 6 4 10 10 10h168c104 0 140 15 149 72l2 15c6 36 -3 61 -48 82l-147 64c-70 32 -78 76 -70 132l4 22
c16 104 119 112 188 112z" />
    <glyph glyph-name="scommaaccent" unicode="&#x219;" horiz-adv-x="463" 
d="M261 542c31 0 118 -1 161 -6c6 -1 8 -5 7 -10l-4 -23c-1 -6 -4 -9 -10 -9h-177c-42 0 -104 -10 -113 -68l-3 -19c-6 -41 1 -65 54 -89l143 -63c71 -32 77 -75 68 -126l-2 -14c-15 -97 -71 -120 -210 -120c-49 0 -143 3 -166 6c-8 1 -9 4 -8 9l4 23c1 6 4 10 10 10h168
c104 0 140 15 149 72l2 15c6 36 -3 61 -48 82l-147 64c-70 32 -78 76 -70 132l4 22c16 104 119 112 188 112zM173 -37h38c4 0 5 -2 5 -7v-5c0 -4 -1 -7 -5 -11l-122 -119c-4 -3 -6 -3 -10 0l-11 9c-3 3 -3 6 0 10l95 119c3 3 6 4 10 4z" />
    <glyph glyph-name="germandbls" unicode="&#xdf;" horiz-adv-x="575" 
d="M346 746c153 0 215 -42 190 -204c-15 -91 -47 -150 -111 -165l-1 -2c83 -16 90 -96 77 -178c-26 -166 -123 -202 -272 -202c-20 0 -51 1 -95 3c-8 0 -10 4 -8 10l13 29c2 5 6 7 11 7h89c117 0 189 27 209 153c19 123 -33 154 -136 154h-87c-6 0 -9 3 -8 9l5 29
c1 6 3 10 10 10h87c87 0 144 19 163 140c21 129 -25 158 -144 158c-123 0 -155 -47 -173 -160l-83 -528c-1 -6 -5 -9 -11 -9h-34c-6 0 -9 3 -8 9l83 523c23 151 68 214 234 214z" />
    <glyph glyph-name="t" unicode="t" horiz-adv-x="300" 
d="M161 680l36 8c7 2 10 -1 9 -8l-23 -145h116c6 0 9 -2 8 -9l-5 -26c-1 -7 -4 -9 -10 -9h-116l-62 -391c-7 -46 4 -57 56 -57h60c6 0 9 -3 8 -10l-3 -23c-2 -6 -5 -9 -12 -11c-19 -3 -51 -4 -59 -4c-71 0 -118 12 -104 97l63 399h-58c-6 0 -9 3 -8 9l5 26c1 7 4 9 10 9h58
l21 135c1 6 5 8 10 10z" />
    <glyph glyph-name="tbar" unicode="&#x167;" horiz-adv-x="301" 
d="M184 535h116c6 0 9 -2 8 -9l-5 -26c-1 -7 -4 -9 -10 -9h-116l-27 -172h93c6 0 9 -4 7 -10l-4 -24c-1 -7 -5 -10 -11 -10h-92l-28 -175c-7 -46 4 -57 56 -57h60c6 0 9 -3 8 -10l-3 -23c-2 -6 -5 -9 -12 -11c-19 -3 -51 -4 -59 -4c-71 0 -118 12 -104 97l29 183h-42
c-7 0 -10 3 -9 9l4 25c2 6 6 10 12 10h42l27 172h-58c-6 0 -9 3 -8 9l5 26c1 7 4 9 10 9h58l21 135c1 6 5 8 10 10l36 8c7 2 10 -1 9 -8z" />
    <glyph glyph-name="tcaron" unicode="&#x165;" horiz-adv-x="318" 
d="M363 741h40c4 0 7 -3 6 -8l-1 -7c0 -3 -2 -6 -4 -9l-108 -118c-3 -4 -6 -4 -10 -1l-10 9c-3 3 -4 6 -1 10l79 118c2 5 5 6 9 6zM161 680l36 8c7 2 10 -1 9 -8l-23 -145h116c6 0 9 -2 8 -9l-5 -26c-1 -7 -4 -9 -10 -9h-116l-62 -391c-7 -46 4 -57 56 -57h60
c6 0 9 -3 8 -10l-3 -23c-2 -6 -5 -9 -12 -11c-19 -3 -51 -4 -59 -4c-71 0 -118 12 -104 97l63 399h-58c-6 0 -9 3 -8 9l5 26c1 7 4 9 10 9h58l21 135c1 6 5 8 10 10z" />
    <glyph glyph-name="tcedilla" unicode="&#x163;" horiz-adv-x="300" 
d="M183 535h116c6 0 9 -2 8 -9l-5 -26c-1 -7 -4 -9 -10 -9h-116l-62 -391c-7 -46 4 -57 56 -57h60c6 0 9 -3 8 -10l-3 -23c-2 -6 -5 -9 -12 -11c-18 -3 -46 -4 -57 -4c3 -28 4 -56 0 -78c-10 -60 -38 -75 -96 -75c-13 0 -30 2 -50 5c-6 2 -7 5 -6 12l3 19c1 6 4 9 11 9h40
c38 0 53 5 59 42c3 19 2 41 0 68c-50 5 -78 26 -67 95l63 399h-58c-6 0 -9 3 -8 9l5 26c1 7 4 9 10 9h58l21 135c1 6 5 8 10 10l36 8c7 2 10 -1 9 -8z" />
    <glyph glyph-name="uni021B" unicode="&#x21b;" horiz-adv-x="300" 
d="M161 680l36 8c7 2 10 -1 9 -8l-23 -145h116c6 0 9 -2 8 -9l-5 -26c-1 -7 -4 -9 -10 -9h-116l-62 -391c-7 -46 4 -57 56 -57h60c6 0 9 -3 8 -10l-3 -23c-2 -6 -5 -9 -12 -11c-19 -3 -51 -4 -59 -4c-71 0 -118 12 -104 97l63 399h-58c-6 0 -9 3 -8 9l5 26c1 7 4 9 10 9h58
l21 135c1 6 5 8 10 10zM121 -37h38c4 0 6 -2 6 -7l-1 -6c0 -4 -2 -8 -5 -10l-122 -119c-4 -3 -6 -3 -10 0l-11 9c-3 3 -3 6 0 10l95 119c3 3 6 4 10 4z" />
    <glyph glyph-name="u" unicode="u" 
d="M485 535h34c6 0 10 -2 8 -9l-81 -511c-1 -6 -4 -8 -12 -10c-73 -10 -148 -10 -204 -10c-148 0 -204 25 -173 219l50 312c1 7 5 9 11 9h34c6 0 8 -3 8 -9l-50 -312c-25 -156 18 -171 121 -171h166l77 483c2 7 5 9 11 9z" />
    <glyph glyph-name="uacute" unicode="&#xfa;" 
d="M396 741h42c5 0 7 -3 7 -8v-5c0 -4 -2 -7 -6 -11l-127 -118c-3 -4 -6 -4 -10 -1l-10 9c-3 3 -3 6 -1 10l96 119c2 3 5 5 9 5zM485 535h34c6 0 10 -2 8 -9l-81 -511c-1 -6 -4 -8 -12 -10c-73 -10 -148 -10 -204 -10c-148 0 -204 25 -173 219l50 312c1 7 5 9 11 9h34
c6 0 8 -3 8 -9l-50 -312c-25 -156 18 -171 121 -171h166l77 483c2 7 5 9 11 9z" />
    <glyph glyph-name="ubreve" unicode="&#x16d;" 
d="M453 728h21c8 0 9 -2 7 -10c-20 -86 -54 -112 -151 -112s-123 26 -116 112c0 8 3 10 10 10h21c6 0 8 -2 8 -8c0 -55 18 -72 83 -72c66 0 89 17 106 72c2 6 5 8 11 8zM485 535h34c6 0 10 -2 8 -9l-81 -511c-1 -6 -4 -8 -12 -10c-73 -10 -148 -10 -204 -10
c-148 0 -204 25 -173 219l50 312c1 7 5 9 11 9h34c6 0 8 -3 8 -9l-50 -312c-25 -156 18 -171 121 -171h166l77 483c2 7 5 9 11 9z" />
    <glyph glyph-name="ucaron" unicode="&#x1d4;" 
d="M453 739l10 -10c3 -2 4 -6 1 -10l-112 -118c-3 -3 -5 -5 -11 -5h-23c-7 0 -9 1 -11 5l-74 118c-3 4 -1 7 3 10l14 10c4 3 7 3 10 -1l77 -91l106 91c4 4 6 4 10 1zM485 535h34c6 0 10 -2 8 -9l-81 -511c-1 -6 -4 -8 -12 -10c-73 -10 -148 -10 -204 -10
c-148 0 -204 25 -173 219l50 312c1 7 5 9 11 9h34c6 0 8 -3 8 -9l-50 -312c-25 -156 18 -171 121 -171h166l77 483c2 7 5 9 11 9z" />
    <glyph glyph-name="ucircumflex" unicode="&#xfb;" 
d="M339 741h24c6 0 7 -2 9 -5l75 -119c3 -4 1 -7 -4 -10l-13 -9c-4 -3 -7 -3 -10 1l-77 91l-106 -91c-4 -4 -6 -4 -10 -1l-11 9c-3 3 -4 6 0 10l112 119c3 3 5 5 11 5zM485 535h34c6 0 10 -2 8 -9l-81 -511c-1 -6 -4 -8 -12 -10c-73 -10 -148 -10 -204 -10
c-148 0 -204 25 -173 219l50 312c1 7 5 9 11 9h34c6 0 8 -3 8 -9l-50 -312c-25 -156 18 -171 121 -171h166l77 483c2 7 5 9 11 9z" />
    <glyph glyph-name="udieresis" unicode="&#xfc;" 
d="M265 702c24 0 37 -11 33 -38c-4 -25 -19 -40 -45 -40c-24 0 -38 13 -34 40c4 26 22 38 46 38zM425 702c24 0 38 -11 33 -38c-3 -25 -18 -40 -45 -40c-24 0 -37 13 -33 40c4 26 21 38 45 38zM485 535h34c6 0 10 -2 8 -9l-81 -511c-1 -6 -4 -8 -12 -10
c-73 -10 -148 -10 -204 -10c-148 0 -204 25 -173 219l50 312c1 7 5 9 11 9h34c6 0 8 -3 8 -9l-50 -312c-25 -156 18 -171 121 -171h166l77 483c2 7 5 9 11 9z" />
    <glyph glyph-name="udieresisacute" unicode="&#x1d8;" 
d="M434 864h43c4 0 6 -2 6 -7v-5c0 -4 -2 -7 -6 -11l-127 -119c-3 -3 -6 -3 -10 0l-10 9c-3 3 -3 6 -1 10l96 119c2 3 5 4 9 4zM265 702c24 0 37 -11 33 -38c-4 -25 -19 -40 -45 -40c-24 0 -38 13 -34 40c4 26 22 38 46 38zM425 702c24 0 38 -11 33 -38
c-3 -25 -18 -40 -45 -40c-24 0 -37 13 -33 40c4 26 21 38 45 38zM485 535h34c6 0 10 -2 8 -9l-81 -511c-1 -6 -4 -8 -12 -10c-73 -10 -148 -10 -204 -10c-148 0 -204 25 -173 219l50 312c1 7 5 9 11 9h34c6 0 8 -3 8 -9l-50 -312c-25 -156 18 -171 121 -171h166l77 483
c2 7 5 9 11 9z" />
    <glyph glyph-name="udieresiscaron" unicode="&#x1da;" 
d="M472 861l11 -9c3 -3 4 -6 0 -10l-112 -118c-3 -3 -5 -5 -11 -5h-23c-6 0 -8 1 -10 5l-74 118c-3 4 -1 7 2 10l14 9c4 3 7 3 10 0l78 -91l105 91c4 3 7 3 10 0zM265 702c24 0 37 -11 33 -38c-4 -25 -19 -40 -45 -40c-24 0 -38 13 -34 40c4 26 22 38 46 38zM425 702
c24 0 38 -11 33 -38c-3 -25 -18 -40 -45 -40c-24 0 -37 13 -33 40c4 26 21 38 45 38zM485 535h34c6 0 10 -2 8 -9l-81 -511c-1 -6 -4 -8 -12 -10c-73 -10 -148 -10 -204 -10c-148 0 -204 25 -173 219l50 312c1 7 5 9 11 9h34c6 0 8 -3 8 -9l-50 -312
c-25 -156 18 -171 121 -171h166l77 483c2 7 5 9 11 9z" />
    <glyph glyph-name="udieresisgrave" unicode="&#x1dc;" 
d="M250 864h42c5 0 7 -1 8 -4l58 -119c2 -4 1 -7 -3 -10l-15 -9c-3 -3 -7 -4 -10 0l-86 118c-2 2 -3 5 -3 10v7c0 5 4 7 9 7zM265 702c24 0 37 -11 33 -38c-4 -25 -19 -40 -45 -40c-24 0 -38 13 -34 40c4 26 22 38 46 38zM425 702c24 0 38 -11 33 -38
c-3 -25 -18 -40 -45 -40c-24 0 -37 13 -33 40c4 26 21 38 45 38zM485 535h34c6 0 10 -2 8 -9l-81 -511c-1 -6 -4 -8 -12 -10c-73 -10 -148 -10 -204 -10c-148 0 -204 25 -173 219l50 312c1 7 5 9 11 9h34c6 0 8 -3 8 -9l-50 -312c-25 -156 18 -171 121 -171h166l77 483
c2 7 5 9 11 9z" />
    <glyph glyph-name="udieresismacron" unicode="&#x1d6;" 
d="M240 823h241c7 0 9 -2 8 -9l-4 -26c-1 -6 -5 -9 -11 -9l-241 1c-6 0 -9 2 -8 10l4 24c1 7 5 9 11 9zM265 702c24 0 37 -11 33 -38c-4 -25 -19 -40 -45 -40c-24 0 -38 13 -34 40c4 26 22 38 46 38zM425 702c24 0 38 -11 33 -38c-3 -25 -18 -40 -45 -40
c-24 0 -37 13 -33 40c4 26 21 38 45 38zM485 535h34c6 0 10 -2 8 -9l-81 -511c-1 -6 -4 -8 -12 -10c-73 -10 -148 -10 -204 -10c-148 0 -204 25 -173 219l50 312c1 7 5 9 11 9h34c6 0 8 -3 8 -9l-50 -312c-25 -156 18 -171 121 -171h166l77 483c2 7 5 9 11 9z" />
    <glyph glyph-name="ugrave" unicode="&#xf9;" 
d="M257 741h43c4 0 6 -1 8 -5l58 -119c2 -4 1 -7 -4 -10l-14 -9c-4 -3 -7 -3 -10 1l-87 117c-1 2 -2 6 -2 10v7c0 5 4 8 8 8zM485 535h34c6 0 10 -2 8 -9l-81 -511c-1 -6 -4 -8 -12 -10c-73 -10 -148 -10 -204 -10c-148 0 -204 25 -173 219l50 312c1 7 5 9 11 9h34
c6 0 8 -3 8 -9l-50 -312c-25 -156 18 -171 121 -171h166l77 483c2 7 5 9 11 9z" />
    <glyph glyph-name="uhungarumlaut" unicode="&#x171;" 
d="M294 741h42c4 0 6 -3 6 -8v-5c0 -4 -1 -7 -6 -11l-126 -118c-3 -4 -6 -4 -10 -1l-11 9c-3 3 -3 6 0 10l95 119c3 3 5 5 10 5zM451 741h42c4 0 6 -3 6 -8v-5c0 -4 -2 -7 -6 -11l-126 -118c-4 -4 -6 -4 -10 -1l-11 9c-3 3 -3 6 0 10l95 119c2 3 5 5 10 5zM485 535h34
c6 0 10 -2 8 -9l-81 -511c-1 -6 -4 -8 -12 -10c-73 -10 -148 -10 -204 -10c-148 0 -204 25 -173 219l50 312c1 7 5 9 11 9h34c6 0 8 -3 8 -9l-50 -312c-25 -156 18 -171 121 -171h166l77 483c2 7 5 9 11 9z" />
    <glyph glyph-name="umacron" unicode="&#x16b;" 
d="M221 676h240c7 0 10 -2 8 -9l-3 -26c-1 -6 -5 -9 -11 -9l-241 1c-6 0 -9 2 -8 9l4 25c1 7 5 9 11 9zM485 535h34c6 0 10 -2 8 -9l-81 -511c-1 -6 -4 -8 -12 -10c-73 -10 -148 -10 -204 -10c-148 0 -204 25 -173 219l50 312c1 7 5 9 11 9h34c6 0 8 -3 8 -9l-50 -312
c-25 -156 18 -171 121 -171h166l77 483c2 7 5 9 11 9z" />
    <glyph glyph-name="uogonek" unicode="&#x173;" 
d="M485 535h34c6 0 10 -2 8 -9l-81 -511c-1 -6 -4 -8 -12 -10c-27 -3 -55 -6 -83 -7c-10 -25 -19 -47 -22 -69c-6 -37 6 -42 45 -42h41c6 0 8 -3 7 -9l-3 -19c-1 -6 -4 -10 -10 -12c-11 -3 -44 -5 -58 -5c-51 0 -75 19 -65 75c4 22 12 51 24 79c-29 -1 -56 -1 -80 -1
c-148 0 -204 25 -173 219l50 312c1 7 5 9 11 9h34c6 0 8 -3 8 -9l-50 -312c-25 -156 18 -171 121 -171h166l77 483c2 7 5 9 11 9z" />
    <glyph glyph-name="uring" unicode="&#x16f;" 
d="M352 783c63 0 90 -32 81 -93c-10 -60 -47 -92 -110 -92s-90 32 -81 92c9 61 47 93 110 93zM347 752c-41 0 -66 -21 -72 -62c-6 -40 11 -62 52 -62c42 0 66 22 72 62c6 41 -10 62 -52 62zM485 535h34c6 0 10 -2 8 -9l-81 -511c-1 -6 -4 -8 -12 -10
c-73 -10 -148 -10 -204 -10c-148 0 -204 25 -173 219l50 312c1 7 5 9 11 9h34c6 0 8 -3 8 -9l-50 -312c-25 -156 18 -171 121 -171h166l77 483c2 7 5 9 11 9z" />
    <glyph glyph-name="utilde" unicode="&#x169;" 
d="M402 616c-55 0 -87 53 -128 53c-23 0 -36 -11 -55 -48c-4 -8 -7 -9 -13 -7l-16 3c-6 2 -7 5 -4 13c28 66 49 87 92 87c54 0 85 -53 126 -53c26 0 39 14 55 46c5 8 7 8 13 7l16 -3c6 -1 9 -4 5 -13c-27 -67 -51 -85 -91 -85zM485 535h34c6 0 10 -2 8 -9l-81 -511
c-1 -6 -4 -8 -12 -10c-73 -10 -148 -10 -204 -10c-148 0 -204 25 -173 219l50 312c1 7 5 9 11 9h34c6 0 8 -3 8 -9l-50 -312c-25 -156 18 -171 121 -171h166l77 483c2 7 5 9 11 9z" />
    <glyph glyph-name="v" unicode="v" horiz-adv-x="507" 
d="M461 535h38c7 0 9 -2 6 -10l-183 -416c-44 -99 -49 -114 -121 -114c-68 0 -69 15 -81 114l-54 416c0 8 2 10 9 10h39c5 0 6 -1 7 -9l51 -404c8 -70 10 -77 37 -77c30 0 35 7 64 77l178 404c3 8 4 9 10 9z" />
    <glyph glyph-name="w" unicode="w" horiz-adv-x="794" 
d="M746 535h36c7 0 9 -2 7 -10l-156 -404c-44 -115 -55 -126 -114 -126c-62 0 -66 11 -76 126l-27 318l-127 -318c-46 -115 -54 -126 -116 -126c-59 0 -67 11 -74 126l-27 404c0 9 1 10 8 10h39c5 0 6 -1 7 -9l25 -399c5 -72 11 -81 30 -81c22 0 27 5 57 81l151 369
c5 13 8 16 15 16h48c7 0 10 -3 11 -16l32 -369c7 -76 10 -81 33 -81c19 0 27 9 54 81l153 399c3 8 5 9 11 9z" />
    <glyph glyph-name="wacute" unicode="&#x1e83;" horiz-adv-x="794" 
d="M524 741h42c4 0 6 -3 6 -8v-5c0 -4 -1 -7 -5 -11l-127 -118c-3 -4 -6 -4 -10 -1l-11 9c-3 3 -3 6 0 10l95 119c3 3 5 5 10 5zM746 535h36c7 0 9 -2 7 -10l-156 -404c-44 -115 -55 -126 -114 -126c-62 0 -66 11 -76 126l-27 318l-127 -318c-46 -115 -54 -126 -116 -126
c-59 0 -67 11 -74 126l-27 404c0 9 1 10 8 10h39c5 0 6 -1 7 -9l25 -399c5 -72 11 -81 30 -81c22 0 27 5 57 81l151 369c5 13 8 16 15 16h48c7 0 10 -3 11 -16l32 -369c7 -76 10 -81 33 -81c19 0 27 9 54 81l153 399c3 8 5 9 11 9z" />
    <glyph glyph-name="wcircumflex" unicode="&#x175;" horiz-adv-x="794" 
d="M452 741h23c6 0 8 -2 10 -5l74 -119c3 -4 1 -7 -3 -10l-13 -9c-4 -3 -7 -3 -10 1l-77 91l-106 -91c-4 -4 -6 -4 -10 -1l-11 9c-3 3 -4 6 0 10l112 119c3 3 5 5 11 5zM746 535h36c7 0 9 -2 7 -10l-156 -404c-44 -115 -55 -126 -114 -126c-62 0 -66 11 -76 126l-27 318
l-127 -318c-46 -115 -54 -126 -116 -126c-59 0 -67 11 -74 126l-27 404c0 9 1 10 8 10h39c5 0 6 -1 7 -9l25 -399c5 -72 11 -81 30 -81c22 0 27 5 57 81l151 369c5 13 8 16 15 16h48c7 0 10 -3 11 -16l32 -369c7 -76 10 -81 33 -81c19 0 27 9 54 81l153 399c3 8 5 9 11 9z
" />
    <glyph glyph-name="wdieresis" unicode="&#x1e85;" horiz-adv-x="794" 
d="M378 702c23 0 37 -11 32 -38c-3 -25 -18 -40 -44 -40c-24 0 -38 13 -34 40c4 26 21 38 46 38zM538 702c24 0 37 -11 33 -38c-4 -25 -19 -40 -45 -40c-24 0 -38 13 -33 40c4 26 21 38 45 38zM746 535h36c7 0 9 -2 7 -10l-156 -404c-44 -115 -55 -126 -114 -126
c-62 0 -66 11 -76 126l-27 318l-127 -318c-46 -115 -54 -126 -116 -126c-59 0 -67 11 -74 126l-27 404c0 9 1 10 8 10h39c5 0 6 -1 7 -9l25 -399c5 -72 11 -81 30 -81c22 0 27 5 57 81l151 369c5 13 8 16 15 16h48c7 0 10 -3 11 -16l32 -369c7 -76 10 -81 33 -81
c19 0 27 9 54 81l153 399c3 8 5 9 11 9z" />
    <glyph glyph-name="wgrave" unicode="&#x1e81;" horiz-adv-x="794" 
d="M337 741h43c4 0 6 -1 7 -5l58 -119c2 -4 1 -7 -3 -10l-14 -9c-4 -3 -7 -3 -10 1l-87 117c-2 2 -2 6 -2 10v7c0 5 4 8 8 8zM746 535h36c7 0 9 -2 7 -10l-156 -404c-44 -115 -55 -126 -114 -126c-62 0 -66 11 -76 126l-27 318l-127 -318c-46 -115 -54 -126 -116 -126
c-59 0 -67 11 -74 126l-27 404c0 9 1 10 8 10h39c5 0 6 -1 7 -9l25 -399c5 -72 11 -81 30 -81c22 0 27 5 57 81l151 369c5 13 8 16 15 16h48c7 0 10 -3 11 -16l32 -369c7 -76 10 -81 33 -81c19 0 27 9 54 81l153 399c3 8 5 9 11 9z" />
    <glyph glyph-name="x" unicode="x" horiz-adv-x="494" 
d="M437 535h45c7 0 7 -5 2 -11l-209 -239l152 -274c3 -6 0 -11 -7 -11h-44c-4 0 -8 2 -9 6l-131 235l-207 -235c-2 -4 -6 -6 -10 -6h-44c-7 0 -8 5 -3 11l239 274l-134 239c-3 6 0 11 7 11h44c5 0 8 -2 9 -6l113 -200l176 201c3 4 6 5 11 5z" />
    <glyph glyph-name="y" unicode="y" horiz-adv-x="570" 
d="M484 535h34c6 0 9 -2 8 -9l-81 -507c-26 -170 -71 -218 -248 -218c-51 0 -90 1 -136 5c-6 0 -8 4 -8 10l4 23c1 7 5 10 11 10h136c133 0 167 33 184 144l2 12c-71 -8 -113 -10 -160 -10c-179 0 -199 54 -164 277l41 254c1 7 5 9 11 9h34c6 0 9 -2 8 -9l-40 -253
c-29 -185 -20 -230 117 -230c44 0 91 1 161 11l75 472c1 6 5 9 11 9z" />
    <glyph glyph-name="yacute" unicode="&#xfd;" horiz-adv-x="570" 
d="M399 741h42c4 0 6 -3 6 -8v-5c0 -4 -1 -7 -6 -11l-126 -118c-3 -4 -6 -4 -10 -1l-11 9c-3 3 -3 6 0 10l95 119c3 3 5 5 10 5zM484 535h34c6 0 9 -2 8 -9l-81 -507c-26 -170 -71 -218 -248 -218c-51 0 -90 1 -136 5c-6 0 -8 4 -8 10l4 23c1 7 5 10 11 10h136
c133 0 167 33 184 144l2 12c-71 -8 -113 -10 -160 -10c-179 0 -199 54 -164 277l41 254c1 7 5 9 11 9h34c6 0 9 -2 8 -9l-40 -253c-29 -185 -20 -230 117 -230c44 0 91 1 161 11l75 472c1 6 5 9 11 9z" />
    <glyph glyph-name="ycircumflex" unicode="&#x177;" horiz-adv-x="570" 
d="M351 741h24c6 0 8 -2 10 -5l74 -119c3 -4 1 -7 -3 -10l-14 -9c-4 -3 -7 -3 -10 1l-77 91l-106 -91c-4 -4 -6 -4 -10 -1l-11 9c-2 3 -3 6 0 10l112 119c3 3 5 5 11 5zM484 535h34c6 0 9 -2 8 -9l-81 -507c-26 -170 -71 -218 -248 -218c-51 0 -90 1 -136 5c-6 0 -8 4 -8 10
l4 23c1 7 5 10 11 10h136c133 0 167 33 184 144l2 12c-71 -8 -113 -10 -160 -10c-179 0 -199 54 -164 277l41 254c1 7 5 9 11 9h34c6 0 9 -2 8 -9l-40 -253c-29 -185 -20 -230 117 -230c44 0 91 1 161 11l75 472c1 6 5 9 11 9z" />
    <glyph glyph-name="ydieresis" unicode="&#xff;" horiz-adv-x="570" 
d="M277 702c24 0 37 -11 33 -38c-4 -25 -19 -40 -45 -40c-24 0 -38 13 -34 40c5 26 22 38 46 38zM437 702c24 0 38 -11 33 -38c-3 -25 -18 -40 -44 -40c-25 0 -38 13 -34 40c4 26 21 38 45 38zM484 535h34c6 0 9 -2 8 -9l-81 -507c-26 -170 -71 -218 -248 -218
c-51 0 -90 1 -136 5c-6 0 -8 4 -8 10l4 23c1 7 5 10 11 10h136c133 0 167 33 184 144l2 12c-71 -8 -113 -10 -160 -10c-179 0 -199 54 -164 277l41 254c1 7 5 9 11 9h34c6 0 9 -2 8 -9l-40 -253c-29 -185 -20 -230 117 -230c44 0 91 1 161 11l75 472c1 6 5 9 11 9z" />
    <glyph glyph-name="ygrave" unicode="&#x1ef3;" horiz-adv-x="570" 
d="M269 741h43c5 0 6 -1 8 -5l58 -119c2 -4 1 -7 -4 -10l-14 -9c-4 -3 -7 -3 -10 1l-87 117c-1 2 -2 6 -2 10v7c0 5 4 8 8 8zM484 535h34c6 0 9 -2 8 -9l-81 -507c-26 -170 -71 -218 -248 -218c-51 0 -90 1 -136 5c-6 0 -8 4 -8 10l4 23c1 7 5 10 11 10h136
c133 0 167 33 184 144l2 12c-71 -8 -113 -10 -160 -10c-179 0 -199 54 -164 277l41 254c1 7 5 9 11 9h34c6 0 9 -2 8 -9l-40 -253c-29 -185 -20 -230 117 -230c44 0 91 1 161 11l75 472c1 6 5 9 11 9z" />
    <glyph glyph-name="ytilde" unicode="&#x1ef9;" horiz-adv-x="570" 
d="M414 616c-55 0 -87 53 -128 53c-22 0 -36 -11 -55 -48c-4 -8 -7 -9 -13 -7l-16 3c-6 2 -7 5 -4 13c28 66 49 87 92 87c54 0 85 -53 127 -53c25 0 38 14 55 46c4 8 6 8 12 7l16 -3c6 -1 9 -4 5 -13c-27 -67 -51 -85 -91 -85zM484 535h34c6 0 9 -2 8 -9l-81 -507
c-26 -170 -71 -218 -248 -218c-51 0 -90 1 -136 5c-6 0 -8 4 -8 10l4 23c1 7 5 10 11 10h136c133 0 167 33 184 144l2 12c-71 -8 -113 -10 -160 -10c-179 0 -199 54 -164 277l41 254c1 7 5 9 11 9h34c6 0 9 -2 8 -9l-40 -253c-29 -185 -20 -230 117 -230c44 0 91 1 161 11
l75 472c1 6 5 9 11 9z" />
    <glyph glyph-name="z" unicode="z" horiz-adv-x="490" 
d="M91 535h383c7 0 9 -3 8 -9l-2 -13c-1 -6 -3 -10 -8 -15l-408 -450h339c6 0 10 -3 9 -10l-5 -28c-1 -7 -5 -10 -11 -10h-403c-7 0 -10 3 -9 9l3 16c1 6 3 10 8 15l405 448h-317c-7 0 -10 3 -9 10l5 29c1 6 6 8 12 8z" />
    <glyph glyph-name="zacute" unicode="&#x17a;" horiz-adv-x="490" 
d="M355 741h42c4 0 6 -3 6 -8v-5c0 -4 -1 -7 -6 -11l-126 -118c-3 -4 -6 -4 -10 -1l-11 9c-3 3 -3 6 0 10l95 119c3 3 5 5 10 5zM91 535h383c7 0 9 -3 8 -9l-2 -13c-1 -6 -3 -10 -8 -15l-408 -450h339c6 0 10 -3 9 -10l-5 -28c-1 -7 -5 -10 -11 -10h-403c-7 0 -10 3 -9 9
l3 16c1 6 3 10 8 15l405 448h-317c-7 0 -10 3 -9 10l5 29c1 6 6 8 12 8z" />
    <glyph glyph-name="zcaron" unicode="&#x17e;" horiz-adv-x="490" 
d="M412 739l11 -10c3 -2 4 -6 0 -10l-112 -118c-3 -3 -5 -5 -11 -5h-23c-6 0 -8 1 -10 5l-74 118c-3 4 -1 7 2 10l14 10c4 3 7 3 10 -1l78 -91l105 91c4 4 7 4 10 1zM91 535h383c7 0 9 -3 8 -9l-2 -13c-1 -6 -3 -10 -8 -15l-408 -450h339c6 0 10 -3 9 -10l-5 -28
c-1 -7 -5 -10 -11 -10h-403c-7 0 -10 3 -9 9l3 16c1 6 3 10 8 15l405 448h-317c-7 0 -10 3 -9 10l5 29c1 6 6 8 12 8z" />
    <glyph glyph-name="zdotaccent" unicode="&#x17c;" horiz-adv-x="490" 
d="M305 702c25 0 36 -13 33 -38c-4 -25 -19 -40 -45 -40c-25 0 -38 14 -33 40c4 26 21 38 45 38zM91 535h383c7 0 9 -3 8 -9l-2 -13c-1 -6 -3 -10 -8 -15l-408 -450h339c6 0 10 -3 9 -10l-5 -28c-1 -7 -5 -10 -11 -10h-403c-7 0 -10 3 -9 9l3 16c1 6 3 10 8 15l405 448h-317
c-7 0 -10 3 -9 10l5 29c1 6 6 8 12 8z" />
    <glyph glyph-name="g.alt" horiz-adv-x="545" 
d="M513 556l18 -22c4 -4 3 -8 -2 -13l-43 -37c17 -30 17 -75 7 -141c-26 -159 -72 -199 -247 -199c-52 0 -91 3 -119 13l-15 -28c-25 -48 -22 -60 47 -67l193 -17c76 -8 78 -66 70 -117l-1 -7c-16 -95 -71 -120 -211 -120c-48 0 -188 4 -211 6c-8 1 -9 5 -8 10l4 23
c1 7 4 9 10 9h214c104 0 140 16 148 72l2 8c6 35 1 65 -47 70l-201 19c-87 8 -91 53 -60 108l28 49c-36 28 -40 80 -26 168c25 158 71 199 246 199c70 0 117 -7 147 -25l44 39c5 4 10 4 13 0zM302 494c-136 0 -168 -34 -186 -151c-19 -118 2 -152 138 -152
c135 0 167 34 186 152c18 117 -3 151 -138 151z" />
    <glyph glyph-name="gbreve.alt" horiz-adv-x="545" 
d="M438 728h22c7 0 8 -2 6 -10c-20 -86 -54 -112 -151 -112s-123 26 -116 112c1 8 3 10 10 10h22c6 0 7 -2 8 -8c-1 -55 17 -72 83 -72c65 0 88 17 105 72c3 6 5 8 11 8zM513 556l18 -22c4 -4 3 -8 -2 -13l-43 -37c17 -30 17 -75 7 -141c-26 -159 -72 -199 -247 -199
c-52 0 -91 3 -119 13l-15 -28c-25 -48 -22 -60 47 -67l193 -17c76 -8 78 -66 70 -117l-1 -7c-16 -95 -71 -120 -211 -120c-48 0 -188 4 -211 6c-8 1 -9 5 -8 10l4 23c1 7 4 9 10 9h214c104 0 140 16 148 72l2 8c6 35 1 65 -47 70l-201 19c-87 8 -91 53 -60 108l28 49
c-36 28 -40 80 -26 168c25 158 71 199 246 199c70 0 117 -7 147 -25l44 39c5 4 10 4 13 0zM302 494c-136 0 -168 -34 -186 -151c-19 -118 2 -152 138 -152c135 0 167 34 186 152c18 117 -3 151 -138 151z" />
    <glyph glyph-name="gcircumflex.alt" horiz-adv-x="545" 
d="M325 741h24c6 0 8 -2 10 -5l74 -119c3 -4 1 -7 -3 -10l-14 -9c-3 -3 -6 -3 -10 1l-76 91l-106 -91c-4 -4 -7 -4 -10 -1l-11 9c-3 3 -4 6 -1 10l113 119c3 3 4 5 10 5zM513 556l18 -22c4 -4 3 -8 -2 -13l-43 -37c17 -30 17 -75 7 -141c-26 -159 -72 -199 -247 -199
c-52 0 -91 3 -119 13l-15 -28c-25 -48 -22 -60 47 -67l193 -17c76 -8 78 -66 70 -117l-1 -7c-16 -95 -71 -120 -211 -120c-48 0 -188 4 -211 6c-8 1 -9 5 -8 10l4 23c1 7 4 9 10 9h214c104 0 140 16 148 72l2 8c6 35 1 65 -47 70l-201 19c-87 8 -91 53 -60 108l28 49
c-36 28 -40 80 -26 168c25 158 71 199 246 199c70 0 117 -7 147 -25l44 39c5 4 10 4 13 0zM302 494c-136 0 -168 -34 -186 -151c-19 -118 2 -152 138 -152c135 0 167 34 186 152c18 117 -3 151 -138 151z" />
    <glyph glyph-name="gcommaaccent.alt" horiz-adv-x="545" 
d="M409 739l12 -9c3 -3 3 -6 1 -10l-85 -119c-2 -3 -5 -4 -9 -4h-42c-4 0 -7 2 -7 7v7c0 3 1 5 5 9l115 119c4 3 7 3 10 0zM513 556l18 -22c4 -4 3 -8 -2 -13l-43 -37c17 -30 17 -75 7 -141c-26 -159 -72 -199 -247 -199c-52 0 -91 3 -119 13l-15 -28
c-26 -48 -22 -60 47 -67l193 -17c76 -8 78 -66 70 -117l-2 -7c-15 -95 -70 -120 -210 -120c-49 0 -188 4 -212 6c-7 1 -8 5 -7 10l3 23c1 7 5 9 11 9h214c104 0 140 16 148 72l2 8c5 35 1 65 -48 70l-200 19c-88 8 -91 53 -60 108l27 49c-35 28 -39 80 -25 168
c25 158 71 199 246 199c70 0 117 -7 147 -25l44 39c5 4 9 4 13 0zM302 494c-136 0 -168 -34 -186 -151c-19 -118 2 -152 138 -152c135 0 166 34 185 152c19 117 -2 151 -137 151z" />
    <glyph glyph-name="gdotaccent.alt" horiz-adv-x="545" 
d="M330 702c26 0 36 -13 33 -38c-4 -25 -19 -40 -45 -40c-25 0 -38 14 -33 40c4 26 21 38 45 38zM513 556l18 -22c4 -4 3 -8 -2 -13l-43 -37c17 -30 17 -75 7 -141c-26 -159 -72 -199 -247 -199c-52 0 -91 3 -119 13l-15 -28c-25 -48 -22 -60 47 -67l193 -17
c76 -8 78 -66 70 -117l-1 -7c-16 -95 -71 -120 -211 -120c-48 0 -188 4 -211 6c-8 1 -9 5 -8 10l4 23c1 7 4 9 10 9h214c104 0 140 16 148 72l2 8c6 35 1 65 -47 70l-201 19c-87 8 -91 53 -60 108l28 49c-36 28 -40 80 -26 168c25 158 71 199 246 199c70 0 117 -7 147 -25
l44 39c5 4 10 4 13 0zM302 494c-136 0 -168 -34 -186 -151c-19 -118 2 -152 138 -152c135 0 167 34 186 152c18 117 -3 151 -138 151z" />
    <glyph glyph-name="ordfeminine" unicode="&#xaa;" horiz-adv-x="393" 
d="M251 746c84 0 130 -24 118 -98l-34 -210c-1 -6 -3 -12 -14 -14c-32 -8 -95 -10 -122 -10c-86 0 -115 21 -103 93c11 71 44 95 118 95h102l6 40c9 51 -30 64 -77 64h-83c-4 0 -4 2 -4 6l4 22c0 5 2 6 5 7c32 4 58 5 84 5zM310 563h-99c-51 0 -64 -15 -70 -53
c-7 -43 7 -57 64 -57c13 0 64 1 89 6zM94 348h205c6 0 10 -4 8 -10l-4 -19c-1 -8 -5 -10 -11 -10h-205c-6 0 -9 3 -8 9l3 20c2 7 6 10 12 10z" />
    <glyph glyph-name="ordmasculine" unicode="&#xba;" horiz-adv-x="409" 
d="M273 746c109 0 129 -34 108 -166s-52 -166 -161 -166c-108 0 -130 34 -109 166s53 166 162 166zM266 706c-72 0 -93 -26 -109 -126s-3 -126 69 -126c73 0 94 26 109 126c16 100 4 126 -69 126zM107 348h205c6 0 10 -4 9 -10l-4 -19c-1 -8 -6 -10 -12 -10h-205
c-6 0 -9 3 -8 9l4 20c1 7 5 10 11 10z" />
    <glyph glyph-name="uni0410" unicode="&#x410;" horiz-adv-x="622" 
d="M379 746c76 0 83 -15 95 -114l75 -622c0 -9 -1 -10 -9 -10h-41c-4 0 -6 2 -6 9l-31 241h-324l-107 -241c-3 -7 -4 -9 -10 -9h-41c-7 0 -9 2 -6 10l276 622c43 99 56 114 129 114zM370 697c-34 0 -41 -11 -70 -78l-140 -319h297l-38 319c-8 67 -11 78 -49 78z" />
    <glyph glyph-name="uni0411" unicode="&#x411;" horiz-adv-x="658" 
d="M167 741h467c6 0 9 -3 8 -9l-6 -30c-1 -8 -5 -10 -11 -10h-419l-44 -270h222c148 0 235 -38 209 -204l-4 -21c-26 -166 -124 -202 -273 -202c-40 0 -209 1 -266 4c-7 0 -9 2 -8 9l114 724c1 6 5 9 11 9zM379 372h-224l-52 -328h223c117 0 188 27 208 153l3 20
c21 129 -47 155 -158 155z" />
    <glyph glyph-name="uni0412" unicode="&#x412;" horiz-adv-x="666" 
d="M404 746c162 0 245 -42 220 -204c-14 -91 -48 -150 -112 -165l-1 -2c82 -16 92 -96 78 -178c-26 -166 -124 -202 -273 -202c-40 0 -209 1 -266 4c-7 0 -9 2 -8 9l115 725c1 7 3 9 10 9c58 3 196 4 237 4zM393 697h-187l-48 -298h209c125 0 181 15 201 140
c21 129 -44 158 -175 158zM399 351h-248l-48 -307h223c117 0 188 27 208 153c19 123 -33 154 -135 154z" />
    <glyph glyph-name="uni0413" unicode="&#x413;" horiz-adv-x="531" 
d="M172 741h405c6 0 9 -3 8 -10l-5 -30c-1 -6 -5 -9 -12 -9h-362l-109 -683c-1 -6 -5 -9 -11 -9h-36c-6 0 -9 3 -8 9l114 718c1 10 7 14 16 14z" />
    <glyph glyph-name="uni0414" unicode="&#x414;" horiz-adv-x="670" 
d="M295 741h327c9 0 14 -4 13 -14l-108 -678h38c9 0 14 -4 12 -14l-28 -178c-1 -6 -4 -9 -10 -9h-34c-6 0 -9 3 -8 10l22 142h-487l-22 -143c-1 -6 -5 -9 -11 -9h-34c-6 0 -9 3 -8 10l28 177c2 10 8 14 17 14h46c42 27 54 54 75 128l156 552c2 8 6 12 16 12zM574 692h-250
l-150 -530c-14 -51 -29 -88 -51 -113h349z" />
    <glyph glyph-name="uni0415" unicode="&#x415;" horiz-adv-x="598" 
d="M173 741h437c6 0 9 -3 8 -9l-5 -31c0 -6 -4 -9 -10 -9h-397l-50 -312h360c6 0 9 -4 8 -10l-5 -31c-1 -6 -5 -9 -11 -9h-360l-44 -281h397c6 0 9 -3 7 -9l-4 -31c-1 -6 -5 -9 -11 -9h-438c-10 0 -14 5 -13 14l114 712c1 10 7 15 17 15z" />
    <glyph glyph-name="uni0401" unicode="&#x401;" horiz-adv-x="598" 
d="M333 902c26 0 37 -13 33 -38c-4 -26 -20 -40 -46 -40c-25 0 -36 14 -33 40c5 25 21 38 46 38zM493 902c26 0 38 -13 33 -38c-3 -26 -20 -40 -45 -40s-37 14 -33 40c4 25 20 38 45 38zM173 741h437c6 0 9 -3 8 -9l-5 -31c0 -6 -4 -9 -10 -9h-397l-50 -312h360
c6 0 9 -4 8 -10l-5 -31c-1 -6 -5 -9 -11 -9h-360l-44 -281h397c6 0 9 -3 8 -9l-5 -31c-1 -6 -5 -9 -11 -9h-437c-10 0 -14 5 -13 14l113 712c1 10 7 15 17 15z" />
    <glyph glyph-name="uni0416" unicode="&#x416;" horiz-adv-x="890" 
d="M881 741h42c10 0 11 -6 4 -12l-383 -330l285 -384c4 -7 3 -15 -11 -15h-41c-6 0 -10 2 -13 6l-279 378l-60 -375c-1 -6 -5 -9 -11 -9h-36c-6 0 -9 3 -8 10l59 374l-400 -378c-3 -4 -8 -6 -14 -6h-41c-14 0 -14 8 -6 15l407 384l-279 330c-5 7 -3 12 7 12h43
c6 0 11 -2 14 -6l274 -319l50 316c1 6 5 9 11 9h37c6 0 8 -3 7 -9l-50 -316l377 319c4 4 9 6 15 6z" />
    <glyph glyph-name="uni0417" unicode="&#x417;" horiz-adv-x="583" 
d="M300 746c186 0 278 -27 253 -185l-5 -27c-14 -93 -70 -147 -139 -163c65 -17 102 -70 88 -163l-4 -26c-25 -158 -124 -187 -313 -187c-35 0 -126 1 -175 4c-6 1 -10 2 -9 6l6 33c1 5 5 6 11 6h179c147 0 227 22 246 139l3 22c17 112 -44 142 -159 142h-186
c-6 0 -8 2 -7 8l5 32c1 5 4 8 10 8h185c115 0 187 28 204 141l4 27c19 117 -60 134 -205 134h-177c-6 0 -9 2 -8 6l6 32c0 5 3 6 9 7c51 3 143 4 178 4z" />
    <glyph glyph-name="uni0418" unicode="&#x418;" horiz-adv-x="754" 
d="M680 741h41c6 0 9 -3 8 -9l-114 -723c-1 -6 -5 -9 -11 -9h-37c-6 0 -9 3 -8 9l106 662l-552 -659c-11 -12 -16 -12 -25 -12h-38c-6 0 -9 3 -8 9l114 723c1 6 5 9 11 9h37c6 0 9 -3 8 -9l-103 -647l535 638c12 16 18 18 36 18z" />
    <glyph glyph-name="uni0419" unicode="&#x419;" horiz-adv-x="754" 
d="M566 928h21c8 0 9 -2 7 -10c-20 -86 -55 -112 -152 -112c-96 0 -122 26 -115 112c0 8 3 10 10 10h21c6 0 8 -2 8 -8c0 -55 18 -72 83 -72c66 0 89 17 106 72c2 6 5 8 11 8zM680 741h41c6 0 9 -3 8 -9l-114 -723c-1 -6 -5 -9 -11 -9h-37c-6 0 -9 3 -8 9l106 662l-552 -659
c-11 -12 -16 -12 -25 -12h-38c-6 0 -9 3 -8 9l114 723c1 6 5 9 11 9h37c6 0 9 -3 8 -9l-103 -647l535 638c12 16 18 18 36 18z" />
    <glyph glyph-name="uni041A" unicode="&#x41a;" horiz-adv-x="570" 
d="M560 741h43c10 0 11 -6 3 -12l-391 -330l294 -384c4 -7 3 -15 -12 -15h-40c-6 0 -10 2 -13 6l-287 378l-60 -375c-1 -6 -5 -9 -11 -9h-36c-6 0 -9 3 -8 9l114 723c1 6 5 9 11 9h37c6 0 9 -3 8 -9l-50 -316l384 319c4 4 8 6 14 6z" />
    <glyph glyph-name="uni041B" unicode="&#x41b;" horiz-adv-x="679" 
d="M314 741h326c10 0 14 -4 13 -14l-113 -718c-1 -6 -5 -9 -11 -9h-37c-6 0 -9 3 -8 9l109 683h-250l-150 -530c-40 -138 -91 -167 -176 -167c-12 0 -19 0 -30 3c-5 1 -8 4 -7 11l5 26c1 7 5 9 11 9h12c86 0 107 40 133 133l157 552c2 8 6 12 16 12z" />
    <glyph glyph-name="uni041C" unicode="&#x41c;" horiz-adv-x="902" 
d="M795 741h35c9 0 14 -4 14 -14l-55 -717c0 -7 -4 -10 -10 -10h-37c-6 0 -8 3 -8 10l50 644l-343 -623c-4 -8 -11 -12 -20 -12h-35c-9 0 -14 4 -16 12l-145 623l-155 -645c-1 -6 -4 -9 -10 -9h-37c-6 0 -9 3 -8 9l174 718c2 10 8 14 17 14h36c18 0 22 -11 28 -37l144 -624
l340 624c15 26 22 37 41 37z" />
    <glyph glyph-name="uni041D" unicode="&#x41d;" horiz-adv-x="760" 
d="M691 741h36c6 0 9 -3 8 -9l-114 -723c-1 -6 -5 -9 -11 -9h-37c-6 0 -8 3 -7 9l54 348h-468l-55 -348c-1 -6 -5 -9 -11 -9h-37c-6 0 -8 3 -7 9l114 723c1 6 5 9 11 9h36c6 0 9 -3 8 -9l-51 -325h468l52 325c1 6 5 9 11 9z" />
    <glyph glyph-name="uni041E" unicode="&#x41e;" horiz-adv-x="708" 
d="M422 746c235 0 275 -87 229 -377s-113 -374 -348 -374s-275 84 -229 374s113 377 348 377zM414 697c-194 0 -244 -75 -285 -328c-40 -253 -13 -325 182 -325s245 72 285 325s13 328 -182 328z" />
    <glyph glyph-name="uni041F" unicode="&#x41f;" horiz-adv-x="684" 
d="M173 741h473c9 0 14 -4 13 -14l-114 -718c-1 -6 -5 -9 -11 -9h-36c-6 0 -9 3 -8 10l108 682h-392l-109 -683c-1 -6 -4 -9 -10 -9h-37c-6 0 -9 3 -8 10l114 717c2 10 8 14 17 14z" />
    <glyph glyph-name="uni0420" unicode="&#x420;" horiz-adv-x="619" 
d="M340 746c229 0 300 -21 267 -232c-34 -214 -111 -230 -340 -230h-126l-44 -275c-1 -7 -4 -9 -11 -9h-36c-7 0 -10 2 -8 9l115 724c1 7 3 9 10 9c58 3 133 4 173 4zM329 697h-123l-58 -363h123c195 0 253 8 281 179c27 170 -29 184 -223 184z" />
    <glyph glyph-name="uni0421" unicode="&#x421;" 
d="M422 746c45 0 124 -1 173 -5c6 0 9 -3 7 -9l-4 -26c-2 -7 -5 -9 -11 -9h-173c-194 0 -245 -76 -285 -327c-40 -250 -13 -326 182 -326h173c6 0 9 -3 8 -9l-4 -26c-1 -6 -5 -9 -11 -9c-50 -4 -130 -5 -174 -5c-235 0 -275 88 -229 375c45 288 113 376 348 376z" />
    <glyph glyph-name="uni0422" unicode="&#x422;" horiz-adv-x="586" 
d="M91 741h539c6 0 9 -3 8 -10l-6 -29c-1 -7 -4 -10 -10 -10h-241l-109 -682c-1 -7 -4 -10 -10 -10h-37c-6 0 -9 3 -8 10l109 682h-242c-6 0 -10 2 -9 10l5 30c1 6 5 9 11 9z" />
    <glyph glyph-name="uni0423" unicode="&#x423;" horiz-adv-x="580" 
d="M590 741h40c7 0 9 -4 6 -11l-296 -537c-93 -169 -138 -198 -217 -198c-21 0 -44 1 -53 4c-6 1 -8 4 -7 10l4 26c2 7 5 9 11 9h46c48 0 79 22 132 108l-187 578c-2 7 2 11 9 11h40c5 0 9 -2 11 -8l165 -514l283 515c4 5 7 7 13 7z" />
    <glyph glyph-name="uni0424" unicode="&#x424;" horiz-adv-x="844" 
d="M472 745h37c6 0 9 -3 7 -9l-13 -85c268 -3 340 -51 303 -279c-36 -227 -122 -275 -391 -278l-14 -85c-1 -6 -4 -9 -10 -9h-37c-6 0 -9 3 -8 9l13 85c-266 4 -340 51 -304 278c37 228 125 275 393 279l13 84c1 7 5 10 11 10zM368 143l72 459c-230 -4 -300 -42 -330 -230
c-29 -187 29 -226 258 -229zM495 602l-72 -459c231 3 299 42 328 229c30 188 -26 227 -256 230z" />
    <glyph glyph-name="uni0425" unicode="&#x425;" horiz-adv-x="597" 
d="M578 741h42c9 0 11 -5 5 -13l-281 -340l191 -377c5 -9 0 -13 -8 -13h-42c-8 0 -11 3 -14 8l-168 333l-272 -330c-5 -6 -8 -9 -16 -9h-43c-8 0 -12 4 -5 13l311 375l-174 340c-4 8 0 13 8 13h42c9 0 11 -4 14 -9l151 -294l243 294c4 6 8 9 16 9z" />
    <glyph glyph-name="uni0427" unicode="&#x427;" horiz-adv-x="609" 
d="M539 741h37c6 0 9 -3 8 -9l-115 -723c-1 -6 -4 -9 -10 -9h-37c-6 0 -9 3 -8 9l44 275h-104c-230 0 -302 16 -268 230l35 218c1 6 4 9 10 9h37c6 0 9 -3 8 -9l-34 -219c-28 -171 28 -179 222 -179h101l64 398c1 6 4 9 10 9z" />
    <glyph glyph-name="uni0426" unicode="&#x426;" horiz-adv-x="716" 
d="M631 741h37c6 0 9 -3 8 -9l-108 -683h69c9 0 14 -4 12 -14l-28 -178c-1 -6 -4 -9 -10 -9h-34c-6 0 -9 3 -8 9l23 143h-536c-10 0 -14 4 -13 14l114 718c1 6 4 9 10 9h37c6 0 9 -3 8 -9l-108 -683h408l108 683c1 6 5 9 11 9z" />
    <glyph glyph-name="uni0428" unicode="&#x428;" horiz-adv-x="957" 
d="M888 741h37c6 0 9 -3 8 -9l-114 -718c-1 -10 -8 -14 -17 -14h-746c-10 0 -14 4 -13 14l114 718c1 6 4 9 10 9h37c6 0 9 -3 8 -9l-108 -683h305l108 683c1 6 5 9 11 9h37c6 0 8 -3 7 -9l-108 -683h306l108 683c1 6 4 9 10 9z" />
    <glyph glyph-name="uni0429" unicode="&#x429;" horiz-adv-x="973" 
d="M888 741h37c6 0 9 -3 8 -9l-108 -683h69c9 0 14 -4 12 -14l-28 -178c-1 -6 -4 -9 -10 -9h-34c-6 0 -9 3 -8 9l23 143h-793c-10 0 -14 4 -13 14l114 718c1 6 4 9 10 9h37c6 0 9 -3 8 -9l-108 -683h305l108 683c1 6 5 9 11 9h37c6 0 8 -3 7 -9l-108 -683h306l108 683
c1 6 4 9 10 9z" />
    <glyph glyph-name="uni042F" unicode="&#x42f;" horiz-adv-x="631" 
d="M427 746c41 0 115 -1 171 -4c7 0 9 -2 9 -9l-115 -724c-2 -7 -4 -9 -11 -9h-37c-7 0 -9 2 -8 9l44 275h-197l-215 -271c-7 -9 -11 -13 -24 -13h-34c-9 0 -11 6 -5 12l218 277c-125 13 -163 59 -136 225c33 211 111 232 340 232zM545 697h-123c-194 0 -253 -14 -280 -184
c-28 -171 28 -179 222 -179h123z" />
    <glyph glyph-name="uni042C" unicode="&#x42c;" horiz-adv-x="647" 
d="M167 741h37c6 0 9 -3 8 -9l-50 -310h222c148 0 235 -38 209 -204l-4 -21c-26 -166 -124 -202 -273 -202c-40 0 -209 1 -266 4c-7 0 -9 2 -8 9l114 724c1 6 5 9 11 9zM379 372h-224l-52 -328h223c117 0 188 27 208 153l3 20c21 129 -47 155 -158 155z" />
    <glyph glyph-name="uni042A" unicode="&#x42a;" horiz-adv-x="685" 
d="M91 741h151c6 0 9 -3 8 -9l-49 -310h221c149 0 235 -38 209 -204l-4 -21c-26 -166 -124 -202 -273 -202c-40 0 -209 1 -266 4c-7 0 -9 2 -8 9l109 684h-106c-6 0 -9 3 -8 9l5 31c1 6 5 9 11 9zM418 372h-225l-52 -328h223c117 0 189 27 209 153l2 20
c21 129 -47 155 -157 155z" />
    <glyph glyph-name="uni042B" unicode="&#x42b;" horiz-adv-x="849" 
d="M168 741h36c6 0 9 -3 8 -9l-49 -310h221c149 0 235 -38 209 -204l-3 -21c-26 -166 -125 -202 -273 -202c-41 0 -210 1 -267 4c-7 0 -9 2 -8 9l115 724c1 6 5 9 11 9zM779 741h37c6 0 9 -3 8 -9l-114 -723c-1 -6 -5 -9 -11 -9h-37c-6 0 -9 3 -8 9l115 723c1 6 4 9 10 9z
M380 372h-225l-52 -328h224c117 0 188 27 208 153l3 20c20 129 -48 155 -158 155z" />
    <glyph glyph-name="uni042D" unicode="&#x42d;" horiz-adv-x="594" 
d="M308 746c236 0 276 -88 230 -376c-46 -287 -114 -375 -349 -375c-44 0 -146 1 -195 5c-5 0 -9 4 -8 10l4 25c2 7 6 9 12 9h195c188 0 242 71 282 302h-326c-6 0 -9 3 -7 10l4 30c1 7 5 10 11 10h326c33 230 2 301 -187 301h-196c-6 0 -9 3 -7 9l4 26c1 6 5 9 11 9
c51 4 152 5 196 5z" />
    <glyph glyph-name="uni042E" unicode="&#x42e;" horiz-adv-x="967" 
d="M681 746c236 0 275 -87 229 -377s-113 -374 -348 -374c-231 0 -274 81 -231 362h-178l-55 -348c-1 -6 -5 -9 -11 -9h-37c-6 0 -9 3 -8 9l115 723c1 6 5 9 11 9h36c6 0 9 -3 8 -9l-52 -325h179c44 260 118 339 342 339zM673 697c-194 0 -244 -75 -285 -328
c-39 -253 -13 -325 182 -325s245 72 285 325s13 328 -182 328z" />
    <glyph glyph-name="uni0430" unicode="&#x430;" horiz-adv-x="514" 
d="M261 542c121 0 210 -33 191 -157l-56 -351c-1 -8 -4 -18 -22 -23c-37 -11 -142 -16 -204 -16c-135 0 -173 39 -155 156c17 101 71 142 183 142h185l14 86c14 91 -50 115 -143 115h-125c-6 0 -9 2 -8 10l4 20c1 8 3 9 10 11c51 6 91 7 126 7zM376 246h-185
c-78 0 -112 -28 -122 -95c-13 -80 12 -109 117 -109c28 0 114 2 160 12z" />
    <glyph glyph-name="uni0431" unicode="&#x431;" horiz-adv-x="560" 
d="M521 746h24c6 0 7 -6 5 -15c-10 -45 -47 -60 -106 -72c-155 -28 -245 -37 -289 -184c39 49 89 67 166 67c175 0 206 -56 172 -273c-35 -218 -83 -274 -259 -274c-175 0 -206 56 -171 274l14 87c45 284 132 308 365 350c32 6 53 15 64 32c6 5 5 8 15 8zM314 494
c-136 0 -169 -46 -198 -225c-28 -180 -10 -226 126 -226c135 0 169 46 198 226c28 179 9 225 -126 225z" />
    <glyph glyph-name="uni0432" unicode="&#x432;" horiz-adv-x="539" 
d="M308 542c129 0 192 -35 173 -151c-11 -68 -36 -108 -88 -119v-2c65 -10 75 -64 64 -128c-18 -118 -93 -147 -213 -147c-36 0 -160 1 -207 4c-7 0 -9 4 -8 9l83 521c0 5 5 8 10 9c49 2 149 4 186 4zM296 492h-135l-31 -200h146c94 0 136 11 149 94c14 85 -33 106 -129 106
zM300 248h-177l-33 -204h163c85 0 136 20 149 102c14 82 -25 102 -102 102z" />
    <glyph glyph-name="uni0433" unicode="&#x433;" horiz-adv-x="434" 
d="M124 535h316c5 0 7 -2 6 -7l-5 -34c-1 -5 -4 -8 -9 -8h-271l-76 -478c-1 -5 -5 -8 -10 -8h-39c-5 0 -8 3 -7 8l82 517c1 7 6 10 13 10z" />
    <glyph glyph-name="uni0434" unicode="&#x434;" horiz-adv-x="545" 
d="M218 535h261c7 0 11 -3 10 -10l-75 -476h30c8 0 11 -3 10 -10l-22 -140c-1 -5 -4 -7 -9 -7h-36c-5 0 -8 2 -7 7l16 101h-362l-16 -101c-1 -5 -4 -7 -9 -7h-36c-5 0 -8 2 -7 7l22 140c1 7 6 10 13 10h35c32 18 43 42 59 95l111 382c2 6 4 9 12 9zM428 486h-177l-105 -358
c-10 -35 -22 -61 -37 -79h249z" />
    <glyph glyph-name="uni0435" unicode="&#x435;" horiz-adv-x="523" 
d="M307 542c164 0 194 -51 165 -252l-5 -29c-2 -13 -5 -19 -25 -19h-338c-23 -158 -3 -199 124 -199h150c6 0 9 -3 8 -10l-4 -23c-1 -5 -4 -8 -11 -9c-42 -5 -113 -6 -150 -6c-176 0 -201 56 -167 274c35 219 78 273 253 273zM300 494c-130 0 -162 -40 -189 -203h308
c25 167 3 203 -119 203z" />
    <glyph glyph-name="uni0451" unicode="&#x451;" horiz-adv-x="523" 
d="M245 702c25 0 36 -13 33 -38c-5 -26 -20 -40 -45 -40s-38 14 -34 40c4 25 21 38 46 38zM405 702c26 0 37 -13 33 -38c-4 -26 -20 -40 -45 -40s-38 14 -33 40c3 25 20 38 45 38zM307 542c164 0 194 -51 165 -252l-5 -29c-2 -13 -5 -19 -25 -19h-338
c-23 -158 -3 -199 124 -199h150c6 0 9 -3 8 -10l-4 -23c-1 -5 -4 -8 -11 -9c-42 -5 -113 -6 -150 -6c-176 0 -201 56 -167 274c35 219 78 273 253 273zM300 494c-130 0 -162 -40 -189 -203h308c25 167 3 203 -119 203z" />
    <glyph glyph-name="uni0436" unicode="&#x436;" horiz-adv-x="736" 
d="M691 535h41c8 0 10 -4 5 -9l-289 -237l221 -278c4 -5 1 -11 -7 -11h-47c-5 0 -9 1 -12 5l-213 269l-42 -265c-1 -6 -5 -9 -11 -9h-37c-6 0 -9 3 -8 9l43 265l-300 -269c-4 -4 -7 -5 -13 -5h-47c-8 0 -10 6 -3 11l308 278l-213 237c-5 5 0 9 8 9h42c6 0 9 0 12 -5
l210 -228l35 224c1 7 5 9 11 9h37c6 0 9 -2 8 -9l-36 -224l282 229c5 4 8 4 15 4z" />
    <glyph glyph-name="uni0437" unicode="&#x437;" horiz-adv-x="477" 
d="M231 541c145 0 216 -20 198 -134l-3 -24c-11 -62 -48 -103 -104 -115c52 -13 77 -53 67 -114l-3 -23c-19 -114 -95 -136 -242 -136c-33 0 -101 3 -139 6c-5 0 -9 2 -8 8l5 28c0 6 4 7 10 7h141c111 0 165 16 178 92l2 15c12 74 -30 94 -116 94h-143c-6 0 -9 2 -8 8l5 29
c1 7 5 9 10 9h143c86 0 134 20 146 94l2 18c13 77 -42 89 -152 89h-139c-5 0 -7 1 -6 7l4 27c1 7 4 10 11 10c39 3 108 5 141 5z" />
    <glyph glyph-name="uni0438" unicode="&#x438;" horiz-adv-x="603" 
d="M517 535h36c6 0 7 -2 6 -7l-82 -520c-1 -5 -3 -8 -9 -8h-39c-5 0 -8 2 -6 8l70 445l-401 -442c-9 -10 -14 -11 -22 -11h-34c-5 0 -8 3 -7 8l82 520c1 5 5 7 10 7h39c5 0 8 -2 7 -7l-70 -435l388 428c11 12 15 14 32 14z" />
    <glyph glyph-name="uni0439" unicode="&#x439;" horiz-adv-x="603" 
d="M475 728h21c7 0 9 -2 7 -10c-20 -86 -54 -112 -151 -112s-123 26 -116 112c0 8 2 10 10 10h21c6 0 8 -2 8 -8c0 -55 18 -72 83 -72c66 0 89 17 106 72c2 6 5 8 11 8zM517 535h36c6 0 7 -2 6 -7l-82 -520c-1 -5 -3 -8 -9 -8h-39c-5 0 -8 2 -6 8l70 445l-401 -442
c-9 -10 -14 -11 -22 -11h-34c-5 0 -8 3 -7 8l82 520c1 5 5 7 10 7h39c5 0 8 -2 7 -7l-70 -435l388 428c11 12 15 14 32 14z" />
    <glyph glyph-name="uni043A" unicode="&#x43a;" horiz-adv-x="469" 
d="M426 535h43c8 0 11 -4 5 -9l-289 -237l221 -278c4 -5 1 -11 -7 -11h-47c-5 0 -9 1 -12 5l-214 270l-41 -266c-1 -6 -4 -9 -11 -9h-37c-6 0 -9 3 -8 9l82 517c1 6 5 9 11 9h37c6 0 8 -3 8 -9l-36 -224l282 229c4 3 7 4 13 4z" />
    <glyph glyph-name="uni043B" unicode="&#x43b;" horiz-adv-x="566" 
d="M252 535h258c8 0 13 -4 11 -12l-81 -515c-1 -5 -4 -8 -10 -8h-39c-5 0 -7 3 -6 8l76 478h-179l-103 -340c-34 -113 -74 -151 -162 -151c-11 0 -18 1 -27 3c-5 2 -8 4 -7 10l5 30c0 4 4 7 9 7h12c77 0 94 34 119 114l110 366c2 7 6 10 14 10z" />
    <glyph glyph-name="uni043C" unicode="&#x43c;" horiz-adv-x="724" 
d="M607 535h35c7 0 10 -3 10 -10l-34 -517c-1 -6 -4 -8 -9 -8h-40c-5 0 -7 2 -6 8l30 434l-246 -419c-4 -6 -8 -8 -16 -8h-35c-6 0 -11 2 -13 8l-112 420l-108 -435c-2 -6 -4 -8 -9 -8h-39c-6 0 -9 3 -7 8l129 517c2 7 6 10 14 10h36c15 0 20 -8 25 -27l112 -426l249 426
c12 20 18 27 34 27z" />
    <glyph glyph-name="uni043D" unicode="&#x43d;" horiz-adv-x="608" 
d="M519 535h37c6 0 8 -3 8 -9l-82 -517c-1 -6 -5 -9 -11 -9h-37c-6 0 -8 3 -7 9l37 240h-341l-38 -240c-1 -6 -5 -9 -11 -9h-37c-6 0 -9 3 -8 9l82 517c1 6 5 9 11 9h37c6 0 8 -3 8 -9l-36 -227h342l36 227c0 6 4 9 10 9z" />
    <glyph glyph-name="uni043E" unicode="&#x43e;" horiz-adv-x="550" 
d="M311 542c175 0 206 -56 172 -273c-35 -218 -83 -274 -259 -274c-175 0 -206 56 -171 274c34 217 83 273 258 273zM304 494c-136 0 -169 -46 -198 -225c-28 -180 -10 -226 126 -226c135 0 169 46 198 226c28 179 9 225 -126 225z" />
    <glyph glyph-name="uni043F" unicode="&#x43f;" horiz-adv-x="549" 
d="M122 535h375c6 0 8 -3 8 -9l-82 -517c-1 -6 -5 -9 -11 -9h-37c-6 0 -9 3 -8 9l76 477h-282l-76 -477c-1 -6 -5 -9 -11 -9h-37c-6 0 -9 3 -8 9l82 517c1 6 5 9 11 9z" />
    <glyph glyph-name="uni0440" unicode="&#x440;" horiz-adv-x="557" 
d="M325 542c179 0 198 -55 163 -278c-34 -218 -72 -269 -266 -269c-47 0 -90 2 -141 5l-29 -184c-1 -6 -5 -10 -11 -10h-35c-6 0 -9 4 -8 10l111 703c2 8 5 13 15 15c98 7 142 8 201 8zM317 494h-158l-71 -446c45 -4 95 -5 141 -5c153 0 177 41 206 221
c30 185 24 230 -118 230z" />
    <glyph glyph-name="uni0441" unicode="&#x441;" horiz-adv-x="468" 
d="M311 542c30 0 104 -1 144 -6c6 -1 9 -4 7 -10l-4 -23c-1 -6 -4 -9 -10 -9h-144c-136 0 -169 -46 -198 -225c-28 -180 -10 -226 126 -226h144c6 0 9 -4 8 -10l-4 -23c-1 -5 -4 -8 -11 -9c-42 -5 -115 -6 -145 -6c-175 0 -206 56 -171 274c34 217 83 273 258 273z" />
    <glyph glyph-name="uni0442" unicode="&#x442;" horiz-adv-x="474" 
d="M64 535h416c6 0 8 -3 8 -9l-5 -31c-1 -6 -4 -9 -10 -9h-180l-76 -477c-1 -6 -5 -9 -11 -9h-37c-6 0 -8 3 -7 9l76 477h-181c-6 0 -10 3 -9 9l5 31c1 6 5 9 11 9z" />
    <glyph glyph-name="uni0443" unicode="&#x443;" horiz-adv-x="569" 
d="M483 535h34c6 0 9 -2 8 -9l-81 -507c-26 -170 -72 -218 -248 -218c-51 0 -90 1 -137 5c-5 0 -7 4 -7 10l4 23c1 7 5 10 11 10h136c133 0 167 33 184 144l2 12c-71 -8 -113 -10 -160 -10c-179 0 -199 54 -164 277l41 254c1 7 5 9 11 9h34c6 0 9 -2 8 -9l-40 -253
c-29 -185 -20 -230 117 -230c44 0 91 1 161 11l75 472c1 6 5 9 11 9z" />
    <glyph glyph-name="uni0444" unicode="&#x444;" horiz-adv-x="739" 
d="M421 741h34c6 0 9 -3 8 -9l-33 -214c25 17 83 24 110 24c138 0 166 -63 132 -273c-33 -211 -81 -273 -219 -273c-27 0 -83 6 -102 24l-33 -204c-1 -7 -5 -10 -11 -10h-34c-6 0 -9 3 -8 10l32 204c-26 -18 -84 -24 -111 -24c-138 0 -166 62 -132 273
c33 210 81 273 219 273c27 0 83 -7 103 -24l34 214c1 6 5 9 11 9zM272 494c-111 0 -137 -51 -165 -225c-28 -175 -18 -226 93 -226c27 0 82 6 104 22l64 407c-16 16 -70 22 -96 22zM526 494c-26 0 -82 -6 -104 -22l-64 -407c16 -16 70 -22 97 -22c111 0 137 51 164 226
c28 174 18 225 -93 225z" />
    <glyph glyph-name="uni0445" unicode="&#x445;" horiz-adv-x="493" 
d="M437 535h43c7 0 8 -5 3 -11l-209 -239l152 -274c2 -6 0 -11 -7 -11h-44c-4 0 -7 2 -9 6l-130 235l-207 -235c-3 -4 -6 -6 -11 -6h-43c-7 0 -8 5 -3 11l239 274l-134 239c-3 6 0 11 7 11h44c4 0 7 -2 9 -6l113 -200l175 201c3 4 7 5 12 5z" />
    <glyph glyph-name="uni0447" unicode="&#x447;" horiz-adv-x="498" 
d="M410 535h37c6 0 8 -3 7 -9l-82 -517c-1 -6 -4 -9 -10 -9h-37c-6 0 -9 3 -8 9l30 190h-47c-229 0 -268 16 -234 229l15 98c0 6 5 9 11 9h36c6 0 9 -3 8 -9l-15 -98c-27 -171 -5 -180 190 -180h44l44 278c1 6 5 9 11 9z" />
    <glyph glyph-name="uni0446" unicode="&#x446;" horiz-adv-x="576" 
d="M472 535h36c6 0 8 -3 8 -9l-75 -477h54c6 0 9 -3 8 -9l-22 -139c-1 -6 -5 -9 -11 -9h-33c-6 0 -9 3 -8 9l16 99h-408c-6 0 -9 3 -8 9l82 517c1 6 5 9 11 9h37c6 0 8 -3 8 -9l-76 -477h294l76 477c0 6 4 9 11 9z" />
    <glyph glyph-name="uni0448" unicode="&#x448;" horiz-adv-x="760" 
d="M671 535h37c6 0 8 -3 8 -9l-82 -517c-1 -6 -5 -9 -11 -9h-586c-6 0 -9 3 -8 9l82 517c1 6 5 9 11 9h37c6 0 8 -3 8 -9l-76 -477h220l75 477c1 6 5 9 11 9h37c6 0 8 -3 8 -9l-76 -477h219l76 477c0 6 4 9 10 9z" />
    <glyph glyph-name="uni0449" unicode="&#x449;" horiz-adv-x="776" 
d="M672 535h37c5 0 8 -3 7 -9l-75 -477h54c6 0 9 -3 8 -9l-22 -139c-1 -6 -5 -9 -11 -9h-34c-5 0 -9 3 -8 9l16 99h-607c-5 0 -9 4 -8 9l82 517c1 6 6 9 11 9h37c5 0 8 -3 8 -9l-76 -477h220l75 477c1 6 5 9 11 9h37c5 0 8 -3 8 -9l-76 -477h220l75 477c1 6 5 9 11 9z" />
    <glyph glyph-name="uni044F" unicode="&#x44f;" horiz-adv-x="513" 
d="M321 542c36 0 95 -1 142 -4c7 -1 8 -3 7 -8l-83 -522c-1 -6 -2 -8 -9 -8h-39c-6 0 -8 2 -6 8l30 195h-139l-161 -192c-6 -8 -10 -11 -22 -11h-37c-7 0 -8 4 -4 9l165 198c-94 11 -123 46 -104 162c24 150 84 173 260 173zM409 492h-93c-139 0 -182 -13 -200 -124
c-17 -111 23 -119 162 -119h93z" />
    <glyph glyph-name="uni044C" unicode="&#x44c;" horiz-adv-x="522" 
d="M121 535h39c5 0 8 -2 7 -7l-35 -218h163c119 0 184 -29 165 -147l-3 -21c-19 -118 -93 -147 -213 -147c-36 0 -161 1 -208 4c-6 1 -8 3 -7 8l82 521c1 5 5 7 10 7zM288 261h-163l-35 -217h163c85 0 135 20 148 102l3 13c13 85 -35 102 -116 102z" />
    <glyph glyph-name="uni044A" unicode="&#x44a;" horiz-adv-x="578" 
d="M62 535h155c5 0 7 -2 6 -7l-34 -218h162c120 0 185 -29 166 -147l-4 -21c-18 -118 -93 -147 -212 -147c-36 0 -161 1 -209 4c-5 1 -7 2 -6 7l76 480h-108c-5 0 -8 3 -7 8l5 34c1 5 5 7 10 7zM345 261h-163l-35 -217h163c85 0 135 20 148 102l2 13c14 85 -34 102 -115 102
z" />
    <glyph glyph-name="uni044B" unicode="&#x44b;" horiz-adv-x="680" 
d="M121 535h39c5 0 8 -2 7 -7l-35 -218h163c119 0 184 -29 165 -147l-3 -21c-19 -118 -93 -147 -213 -147c-36 0 -161 1 -208 4c-6 1 -8 2 -7 7l82 522c1 5 5 7 10 7zM593 535h35c6 0 8 -3 8 -9l-82 -517c-1 -6 -5 -9 -11 -9h-35c-6 0 -9 3 -8 9l82 517c1 6 5 9 11 9z
M288 261h-163l-35 -217h163c85 0 135 20 148 102l3 13c13 85 -35 102 -116 102z" />
    <glyph glyph-name="uni044D" unicode="&#x44d;" horiz-adv-x="488" 
d="M239 541c183 0 215 -65 183 -273c-33 -208 -87 -273 -270 -273c-40 0 -115 2 -153 6c-5 0 -8 3 -8 9l5 27c0 5 4 7 9 7h155c136 0 175 49 202 200h-244c-5 0 -7 3 -6 8l4 33c1 5 5 7 10 7h243c22 152 -3 200 -139 200h-155c-5 0 -7 2 -6 7l4 27c1 6 5 9 11 9
c38 4 115 6 155 6z" />
    <glyph glyph-name="uni044E" unicode="&#x44e;" horiz-adv-x="779" 
d="M541 542c175 0 206 -56 171 -273c-34 -218 -83 -274 -258 -274c-170 0 -204 53 -175 254h-156l-38 -240c-1 -6 -5 -9 -11 -9h-37c-6 0 -9 3 -8 9l82 517c1 6 5 9 11 9h37c6 0 8 -3 8 -9l-36 -227h157c34 192 86 243 253 243zM533 494c-135 0 -169 -46 -197 -225
c-29 -180 -10 -226 125 -226c136 0 170 46 198 226c29 179 10 225 -126 225z" />
    <glyph glyph-name="pi" unicode="&#x3c0;" horiz-adv-x="609" 
d="M70 539h543c6 0 9 -3 8 -9l-5 -28c0 -7 -4 -10 -10 -10h-89l-77 -483c-1 -6 -4 -9 -10 -9h-32c-6 0 -9 3 -8 9l76 483h-262c-25 -161 -65 -322 -121 -483c-2 -6 -4 -9 -10 -9h-32c-7 0 -11 3 -8 10c55 161 95 321 121 482h-92c-6 0 -9 3 -8 10l5 28c1 7 5 9 11 9z" />
    <glyph glyph-name="zero" unicode="0" horiz-adv-x="658" 
d="M398 746c213 0 250 -87 204 -377s-110 -374 -323 -374c-212 0 -250 84 -204 374s111 377 323 377zM390 697c-168 0 -220 -77 -260 -328c-39 -251 -11 -325 157 -325s220 74 260 325s12 328 -157 328z" />
    <glyph glyph-name="one" unicode="1" horiz-adv-x="385" 
d="M198 49h121c6 0 8 -3 7 -9l-5 -31c-1 -6 -4 -9 -10 -9h-302c-6 0 -9 3 -8 9l5 31c1 6 5 9 11 9h126l94 590c8 53 -30 58 -77 58h-57c-6 -1 -9 3 -8 9l4 24c1 5 3 7 10 9c19 4 43 7 68 7c41 0 132 -1 116 -97z" />
    <glyph glyph-name="two" unicode="2" horiz-adv-x="564" 
d="M314 746c136 0 256 -19 231 -172l-7 -53c-11 -68 -31 -123 -114 -165l-261 -136c-64 -34 -88 -60 -96 -112l-10 -59h404c5 0 6 -1 5 -6l-6 -38c0 -3 -3 -5 -6 -5h-435c-20 0 -23 11 -21 28l14 80c11 73 43 110 132 156l262 136c54 29 68 70 76 121l8 53
c18 109 -77 123 -184 123h-165c-4 0 -6 1 -5 5l5 30c1 5 3 7 7 7c64 5 114 7 166 7z" />
    <glyph glyph-name="three" unicode="3" horiz-adv-x="568" 
d="M286 746c186 0 278 -27 253 -185l-5 -27c-14 -93 -69 -147 -138 -163c64 -17 102 -70 87 -163l-4 -26c-25 -158 -124 -187 -312 -187c-35 0 -106 1 -155 4c-6 1 -9 2 -8 5l5 34c1 4 5 6 11 6h159c146 0 226 22 245 139l3 22c17 112 -44 142 -158 142h-165c-6 0 -8 1 -7 7
l5 32c1 7 3 9 9 9h165c114 0 186 28 204 141l4 27c19 117 -61 134 -206 134h-155c-6 0 -10 1 -9 6l6 32c1 5 4 6 10 7c51 3 121 4 156 4z" />
    <glyph glyph-name="four" unicode="4" horiz-adv-x="605" 
d="M263 741h37c7 0 8 -4 5 -11l-222 -476h289l33 212c1 5 4 9 9 10l40 15c7 2 11 1 9 -6l-36 -231h135c6 0 9 -3 8 -9l-5 -31c-1 -7 -5 -9 -11 -9h-135l-31 -196c-1 -6 -4 -9 -10 -9h-37c-6 0 -9 3 -8 10l31 195h-339c-6 0 -9 2 -7 9l3 17c1 10 6 22 11 32l219 471
c3 6 6 7 12 7z" />
    <glyph glyph-name="five" unicode="5" horiz-adv-x="574" 
d="M167 741h388c6 0 9 -3 8 -9l-6 -30c-1 -8 -5 -10 -11 -10h-346l-60 -266c41 2 92 2 116 2c187 0 276 -32 251 -196l-6 -42c-27 -164 -128 -195 -314 -195c-35 0 -113 0 -162 3c-7 0 -10 3 -9 8l6 31c1 6 4 7 10 7h170c140 0 224 24 243 145l7 42c19 122 -57 148 -197 148
h-170c-6 0 -9 2 -8 6l5 36l67 306c2 9 7 14 18 14z" />
    <glyph glyph-name="six" unicode="6" horiz-adv-x="592" 
d="M355 741h42c7 0 9 -5 4 -11l-211 -314c37 15 80 18 132 18c157 0 243 -39 219 -195l-8 -48c-24 -156 -123 -196 -281 -196c-156 0 -243 40 -218 196l6 42c9 54 17 79 41 115l262 386c3 5 7 7 12 7zM314 385c-121 0 -199 -29 -217 -148l-8 -45c-19 -119 51 -148 171 -148
c121 0 199 29 218 148l7 45c19 119 -51 148 -171 148z" />
    <glyph glyph-name="seven" unicode="7" horiz-adv-x="531" 
d="M94 741h473c6 0 9 -3 8 -9l-4 -24c-1 -5 -3 -9 -6 -14l-456 -687c-3 -5 -7 -7 -12 -7h-42c-7 0 -9 5 -5 11l451 681h-415c-6 0 -9 3 -8 9l5 31c1 6 4 9 11 9z" />
    <glyph glyph-name="eight" unicode="8" horiz-adv-x="631" 
d="M376 746h15c157 0 219 -65 197 -203c-14 -88 -50 -144 -122 -181c76 -33 98 -91 86 -169c-22 -135 -115 -198 -281 -198h-17c-167 0 -238 63 -216 200c13 83 66 149 143 191c-54 32 -79 81 -66 160c21 135 105 200 261 200zM383 697h-15c-117 0 -182 -50 -197 -146
c-14 -88 36 -126 96 -140l152 -29c69 38 103 93 114 161c16 104 -32 154 -150 154zM383 331l-152 32c-80 -38 -126 -92 -138 -169c-16 -102 41 -150 169 -150h17c132 0 202 53 216 144c14 87 -31 128 -112 143z" />
    <glyph glyph-name="nine" unicode="9" horiz-adv-x="592" 
d="M359 746c156 0 243 -39 218 -196l-6 -42c-9 -54 -18 -79 -41 -115l-261 -386c-4 -5 -8 -7 -13 -7h-42c-7 0 -9 5 -4 11l211 314c-37 -15 -80 -18 -132 -18c-157 0 -243 39 -219 195l8 49c24 155 123 195 281 195zM351 697c-121 0 -199 -29 -218 -148l-7 -45
c-19 -119 50 -148 171 -148s199 29 217 148l8 45c19 119 -51 148 -171 148z" />
    <glyph glyph-name="zero.osf" horiz-adv-x="621" 
d="M346 542c195 1 239 -68 206 -275s-97 -270 -292 -271c-196 0 -240 64 -207 270c33 207 98 275 293 276zM339 493c-154 -1 -205 -56 -232 -227c-27 -169 7 -221 161 -220c153 0 203 52 230 221c27 170 -6 226 -159 226z" />
    <glyph glyph-name="one.osf" horiz-adv-x="399" 
d="M207 49h120c6 0 9 -3 8 -9l-5 -31c-1 -6 -5 -9 -11 -9h-302c-6 0 -8 3 -7 9l4 31c2 6 5 9 11 9h126l61 385c10 53 -28 58 -75 58h-57c-6 -1 -10 2 -9 9l5 23c1 6 3 8 9 10c20 4 43 7 69 7c40 0 131 -1 115 -97z" />
    <glyph glyph-name="two.osf" horiz-adv-x="558" 
d="M277 542c130 0 252 -6 231 -144l-4 -24c-10 -61 -24 -117 -109 -139l-233 -66c-64 -18 -84 -36 -93 -85l-5 -35h393c4 0 5 -1 4 -5l-5 -39c-1 -3 -3 -5 -7 -5h-423c-20 0 -23 11 -21 28l9 58c12 73 42 101 128 127l234 66c59 16 65 50 73 95l3 24c15 94 -81 94 -183 94
h-165c-5 0 -6 2 -6 6l6 31c0 3 2 5 6 6c65 5 114 7 167 7z" />
    <glyph glyph-name="three.osf" horiz-adv-x="558" 
d="M248 540c186 0 277 -27 253 -185l-5 -21c-14 -93 -69 -147 -138 -163c64 -16 102 -69 87 -161l-3 -20c-25 -157 -123 -185 -311 -185c-35 0 -106 1 -156 4c-5 0 -8 3 -7 7l5 31c1 5 4 7 10 7h156c146 0 230 21 248 137l3 17c17 111 -45 140 -159 140h-165c-6 0 -8 2 -7 7
l5 32c1 6 3 8 9 8h165c114 0 186 28 204 141l3 18c18 117 -61 137 -206 137h-157c-6 0 -7 3 -6 8l4 30c1 4 5 7 11 7c51 4 122 4 157 4z" />
    <glyph glyph-name="four.osf" horiz-adv-x="605" 
d="M234 535h37c7 0 8 -4 5 -11l-223 -476h290l33 211c1 6 4 10 9 12l40 15c6 2 11 0 9 -6l-36 -232h134c7 0 10 -3 9 -9l-5 -31c-1 -6 -5 -9 -11 -9h-135l-29 -184c-1 -6 -5 -9 -11 -9h-36c-6 0 -9 3 -9 9l30 184h-339c-6 0 -8 3 -7 10l2 17c1 10 7 21 12 31l219 472
c3 5 6 6 12 6z" />
    <glyph glyph-name="five.osf" horiz-adv-x="564" 
d="M130 535h382c6 0 9 -3 8 -9l-5 -31c-1 -6 -4 -9 -10 -9h-343l-59 -260c42 2 92 2 117 2c187 0 276 -32 251 -196l-6 -37c-27 -163 -127 -194 -313 -194c-35 0 -114 1 -163 3c-6 1 -9 3 -8 7l5 33c1 4 5 7 11 7h170c140 0 224 22 243 144l6 36c18 122 -57 148 -198 148
h-170c-6 0 -8 2 -8 6l6 36l66 301c2 8 7 13 18 13z" />
    <glyph glyph-name="six.osf" horiz-adv-x="592" 
d="M353 741h42c7 0 9 -5 5 -11l-212 -314c37 15 80 18 133 18c156 0 243 -39 218 -195l-7 -48c-25 -156 -124 -196 -281 -196s-243 40 -219 196l7 42c9 54 17 79 40 115l262 386c3 5 7 7 12 7zM312 385c-120 0 -198 -29 -217 -148l-7 -45c-20 -119 50 -148 171 -148
s199 29 217 148l8 45c18 119 -51 148 -172 148z" />
    <glyph glyph-name="seven.osf" horiz-adv-x="528" 
d="M59 535h472c6 0 9 -2 8 -9l-3 -23c-2 -6 -4 -10 -7 -14l-448 -676c-4 -5 -8 -7 -13 -7h-40c-8 0 -10 5 -5 12l442 668h-414c-6 0 -10 3 -9 9l5 31c1 7 5 9 12 9z" />
    <glyph glyph-name="eight.osf" horiz-adv-x="631" 
d="M376 746h15c157 0 219 -65 197 -203c-14 -88 -50 -144 -122 -181c76 -33 98 -91 86 -169c-22 -135 -115 -198 -281 -198h-17c-167 0 -238 63 -216 200c13 83 66 149 143 191c-54 32 -79 81 -66 160c21 135 105 200 261 200zM383 697h-15c-117 0 -182 -50 -197 -146
c-14 -88 36 -126 96 -140l152 -29c70 38 103 93 114 161c17 104 -32 154 -150 154zM383 331l-152 32c-80 -38 -126 -92 -138 -169c-16 -102 41 -150 169 -150h17c132 0 202 53 216 144c14 87 -31 128 -112 143z" />
    <glyph glyph-name="nine.osf" horiz-adv-x="583" 
d="M323 542c157 0 244 -40 219 -196l-6 -37c-8 -54 -17 -79 -40 -115l-259 -382c-3 -4 -6 -6 -12 -6h-41c-8 0 -10 4 -5 11l208 308c-37 -14 -80 -17 -133 -17c-156 0 -243 39 -218 195l6 43c26 156 124 196 281 196zM316 492c-121 0 -199 -29 -218 -147l-6 -40
c-19 -120 50 -148 170 -148c121 0 199 28 218 147l6 40c20 120 -50 148 -170 148z" />
    <glyph glyph-name="zero.subs" horiz-adv-x="374" 
d="M174 227c118 0 139 -47 115 -203c-25 -155 -61 -201 -179 -201c-117 0 -139 46 -114 201c24 156 61 203 178 203zM167 185c-79 0 -104 -38 -123 -161c-20 -123 -7 -159 73 -159c79 0 104 36 124 159c19 123 6 161 -74 161z" />
    <glyph glyph-name="one.subs" horiz-adv-x="239" 
d="M83 -132h64c3 0 5 -2 4 -6l-5 -31c-1 -4 -3 -5 -6 -5h-176c-4 0 -5 2 -5 6l5 30c1 4 3 6 6 6h66l46 289c5 29 -15 30 -35 30h-33c-3 0 -6 2 -5 6l4 24c1 4 3 5 6 6c15 3 29 4 44 4c32 0 76 -4 67 -59z" />
    <glyph glyph-name="two.subs" horiz-adv-x="327" 
d="M129 227c75 0 142 -12 129 -94l-6 -35c-6 -37 -14 -63 -65 -93l-121 -67c-25 -14 -45 -29 -48 -50l-4 -20h203c3 0 4 -1 3 -4l-5 -35c-1 -2 -2 -3 -5 -3h-243c-11 0 -13 6 -11 15l7 42c6 39 23 56 70 83l131 75c30 17 37 36 41 63l3 20c8 52 -31 61 -90 61h-89
c-3 0 -5 1 -4 5l4 24c1 6 4 8 8 8c30 3 60 5 92 5z" />
    <glyph glyph-name="three.subs" horiz-adv-x="332" 
d="M128 227c84 0 144 -14 131 -96l-3 -23c-7 -43 -33 -74 -77 -83c41 -8 58 -39 50 -82l-3 -23c-13 -83 -77 -97 -162 -97c-29 0 -71 2 -97 4c-5 1 -6 3 -6 8l4 25c1 4 3 5 6 5h95c65 0 105 9 114 63l2 13c9 53 -25 65 -84 65h-83c-3 0 -4 1 -4 5l4 28c1 4 3 5 6 5h83
c59 0 96 12 104 65l2 13c9 54 -28 63 -93 63h-96c-3 0 -5 1 -4 5l4 25c2 5 4 7 9 8c27 3 68 4 98 4z" />
    <glyph glyph-name="four.subs" horiz-adv-x="351" 
d="M94 224h38c4 0 5 -2 3 -5l-112 -244h133l16 103c1 3 2 5 5 6l41 12c3 1 5 1 5 -4l-19 -117h66c3 0 5 -2 5 -5l-5 -32c-1 -4 -3 -5 -7 -5h-66l-16 -102c-1 -3 -2 -5 -6 -5h-38c-3 0 -4 2 -4 5l16 102h-179c-3 0 -5 1 -4 5l4 23c1 5 3 12 6 17l112 243c1 3 3 3 6 3z" />
    <glyph glyph-name="five.subs" horiz-adv-x="330" 
d="M47 224h214c3 0 5 -1 5 -4l-6 -33c0 -3 -3 -5 -6 -5h-179l-27 -124c20 2 49 2 63 2c80 0 140 -14 127 -99l-6 -39c-14 -85 -80 -99 -163 -99c-30 0 -72 2 -97 4c-4 1 -7 3 -6 8l4 25c0 3 3 5 6 5h96c65 0 104 11 113 65l4 22c9 55 -28 66 -93 66h-93c-6 0 -8 2 -7 7l4 29
l38 163c1 5 4 7 9 7z" />
    <glyph glyph-name="six.subs" horiz-adv-x="338" 
d="M141 224h41c4 0 5 -2 2 -6l-111 -165c18 7 42 9 65 9c78 0 129 -20 117 -97l-7 -43c-13 -83 -74 -99 -154 -99s-136 16 -123 99l6 40c4 24 8 37 19 54l139 205c1 2 4 3 6 3zM126 21c-60 0 -93 -11 -102 -66l-4 -24c-8 -54 21 -66 81 -66c59 0 92 12 101 66l4 24
c8 55 -22 66 -80 66z" />
    <glyph glyph-name="seven.subs" horiz-adv-x="315" 
d="M9 224h263c4 0 6 -1 5 -4l-3 -25c-1 -3 -2 -6 -4 -8l-241 -358c-2 -2 -4 -3 -7 -3h-43c-4 0 -5 2 -3 6l237 350h-211c-3 0 -5 1 -5 5l6 33c0 3 2 4 6 4z" />
    <glyph glyph-name="eight.subs" horiz-adv-x="363" 
d="M164 227h9c88 0 123 -35 111 -110c-8 -46 -28 -76 -68 -97c43 -17 55 -48 48 -91c-11 -72 -63 -106 -156 -106h-10c-93 0 -133 34 -122 107c7 49 36 81 80 103c-33 19 -45 44 -38 86c11 73 58 108 146 108zM165 185h-7c-54 0 -86 -23 -93 -68c-6 -41 17 -58 46 -64
l73 -14c32 17 47 44 52 75c7 47 -15 71 -71 71zM167 -1l-77 16c-37 -17 -60 -43 -65 -79c-8 -48 21 -71 81 -71h7c63 0 97 23 104 66c6 40 -13 60 -50 68z" />
    <glyph glyph-name="nine.subs" horiz-adv-x="340" 
d="M153 227c80 0 137 -16 123 -99l-5 -40c-4 -25 -9 -38 -20 -54l-139 -204c-1 -3 -4 -4 -7 -4h-40c-4 0 -4 2 -2 6l111 165c-19 -7 -42 -9 -65 -9c-78 0 -129 20 -117 97l7 43c13 83 74 99 154 99zM146 184c-58 0 -92 -11 -101 -65l-3 -25c-9 -54 21 -66 79 -66
c60 0 94 12 103 66l3 25c9 54 -21 65 -81 65z" />
    <glyph glyph-name="zero.tf" horiz-adv-x="605" 
d="M372 746c212 0 249 -87 203 -377s-110 -374 -323 -374c-212 0 -250 84 -204 374s111 377 324 377zM364 697c-168 0 -220 -77 -260 -328s-12 -325 156 -325s220 74 260 325s12 328 -156 328z" />
    <glyph glyph-name="one.tf" horiz-adv-x="605" 
d="M308 49h120c6 0 9 -3 8 -9l-5 -31c-1 -6 -5 -9 -11 -9h-302c-6 0 -8 3 -7 9l4 31c2 6 5 9 11 9h126l94 590c8 53 -29 58 -76 58h-57c-6 -1 -9 3 -8 9l3 24c1 5 4 7 10 9c19 4 43 7 69 7c41 0 132 -1 116 -97z" />
    <glyph glyph-name="two.tf" horiz-adv-x="605" 
d="M334 746c136 0 256 -19 231 -172l-7 -53c-11 -68 -31 -123 -114 -165l-260 -136c-65 -34 -89 -60 -97 -112l-9 -59h404c4 0 5 -1 4 -6l-5 -38c-1 -3 -3 -5 -7 -5h-435c-20 0 -23 11 -21 28l14 80c11 73 43 110 132 156l262 136c54 29 68 70 76 121l8 53
c18 109 -77 123 -184 123h-165c-4 0 -6 1 -5 5l5 30c1 5 3 7 7 7c65 5 114 7 166 7z" />
    <glyph glyph-name="three.tf" horiz-adv-x="605" 
d="M304 746c186 0 278 -27 253 -185l-5 -27c-14 -93 -70 -147 -139 -163c65 -17 102 -70 88 -163l-4 -26c-25 -158 -124 -187 -313 -187c-35 0 -105 1 -154 4c-6 1 -10 2 -9 5l6 34c1 4 5 6 11 6h158c147 0 227 22 246 139l3 22c17 112 -44 142 -159 142h-165
c-6 0 -8 1 -7 7l5 32c1 7 4 9 10 9h164c115 0 187 28 204 141l4 27c19 117 -60 134 -205 134h-156c-6 0 -9 1 -8 6l6 32c0 5 4 6 10 7c51 3 121 4 156 4z" />
    <glyph glyph-name="four.tf" horiz-adv-x="605" 
d="M264 741h36c8 0 9 -4 6 -11l-223 -476h289l34 212c1 5 4 9 9 10l40 15c6 2 10 1 9 -6l-37 -231h135c6 0 9 -3 8 -9l-4 -31c-2 -7 -5 -9 -12 -9h-134l-31 -196c-1 -6 -5 -9 -11 -9h-37c-6 0 -9 3 -8 10l31 195h-338c-6 0 -9 2 -8 9l3 17c2 10 7 22 12 32l219 471
c2 6 6 7 12 7z" />
    <glyph glyph-name="five.tf" horiz-adv-x="605" 
d="M183 741h387c6 0 9 -3 8 -9l-5 -30c-1 -8 -5 -10 -11 -10h-346l-60 -266c41 2 91 2 116 2c187 0 276 -32 251 -196l-7 -42c-26 -164 -127 -195 -313 -195c-35 0 -113 0 -162 3c-7 0 -10 3 -9 8l5 31c1 6 5 7 11 7h169c140 0 224 24 244 145l7 42c18 122 -57 148 -197 148
h-170c-6 0 -9 2 -9 6l6 36l67 306c2 9 7 14 18 14z" />
    <glyph glyph-name="six.tf" horiz-adv-x="605" 
d="M360 741h42c7 0 9 -5 5 -11l-212 -314c37 15 80 18 133 18c156 0 243 -39 218 -195l-7 -48c-25 -156 -124 -196 -281 -196s-243 40 -219 196l7 42c9 54 17 79 40 115l262 386c3 5 7 7 12 7zM319 385c-120 0 -198 -29 -217 -148l-7 -45c-20 -119 50 -148 171 -148
s199 29 217 148l8 45c18 119 -51 148 -172 148z" />
    <glyph glyph-name="seven.tf" horiz-adv-x="605" 
d="M131 741h473c6 0 9 -3 8 -9l-4 -24c0 -5 -3 -9 -6 -14l-456 -687c-3 -5 -7 -7 -12 -7h-42c-7 0 -9 5 -5 11l451 681h-414c-7 0 -10 3 -9 9l5 31c1 6 5 9 11 9z" />
    <glyph glyph-name="eight.tf" horiz-adv-x="605" 
d="M363 746h15c157 0 219 -65 197 -203c-14 -88 -50 -144 -122 -181c76 -33 98 -91 86 -169c-22 -135 -115 -198 -281 -198h-17c-167 0 -238 63 -216 200c13 83 66 149 143 191c-54 32 -79 81 -66 160c21 135 105 200 261 200zM370 697h-15c-117 0 -182 -50 -197 -146
c-14 -88 36 -126 96 -140l152 -29c70 38 103 93 114 161c17 104 -32 154 -150 154zM370 331l-152 32c-80 -38 -126 -92 -138 -169c-16 -102 41 -150 169 -150h17c132 0 202 53 216 144c14 87 -31 128 -112 143z" />
    <glyph glyph-name="nine.tf" horiz-adv-x="605" 
d="M366 746c157 0 243 -39 218 -196l-6 -42c-9 -54 -17 -79 -41 -115l-261 -386c-4 -5 -8 -7 -13 -7h-41c-8 0 -10 5 -5 11l211 314c-37 -15 -79 -18 -132 -18c-156 0 -243 39 -218 195l7 49c25 155 123 195 281 195zM358 697c-121 0 -199 -29 -218 -148l-7 -45
c-18 -119 51 -148 171 -148c121 0 199 29 218 148l7 45c19 119 -51 148 -171 148z" />
    <glyph glyph-name="zero.tosf" horiz-adv-x="605" 
d="M338 542c195 1 239 -68 206 -275s-97 -270 -292 -271c-196 0 -240 64 -207 270c33 207 98 275 293 276zM331 493c-154 -1 -205 -56 -232 -227c-27 -169 7 -221 161 -220c153 0 203 52 230 221c27 170 -6 226 -159 226z" />
    <glyph glyph-name="one.tosf" horiz-adv-x="605" 
d="M310 49h120c6 0 9 -3 8 -9l-5 -31c-1 -6 -4 -9 -10 -9h-302c-6 0 -9 3 -8 9l5 31c1 6 5 9 11 9h126l61 385c9 53 -29 58 -76 58h-57c-6 -1 -10 2 -9 9l5 23c1 6 4 8 10 10c19 4 42 7 68 7c40 0 131 -1 116 -97z" />
    <glyph glyph-name="two.tosf" horiz-adv-x="605" 
d="M301 542c130 0 252 -6 231 -144l-4 -24c-10 -61 -24 -117 -109 -139l-233 -66c-64 -18 -84 -36 -93 -85l-5 -35h393c4 0 5 -1 4 -5l-5 -39c-1 -3 -3 -5 -7 -5h-423c-20 0 -23 11 -21 28l9 58c12 73 42 101 128 127l234 66c59 16 65 50 73 95l3 24c15 94 -81 94 -183 94
h-165c-5 0 -6 2 -6 6l6 31c0 3 2 5 6 6c65 5 114 7 167 7z" />
    <glyph glyph-name="three.tosf" horiz-adv-x="605" 
d="M272 540c186 0 277 -27 253 -185l-5 -21c-14 -93 -69 -147 -138 -163c64 -16 102 -69 87 -161l-3 -20c-25 -157 -123 -185 -311 -185c-35 0 -106 1 -156 4c-5 0 -8 3 -7 7l5 31c1 5 4 7 10 7h156c146 0 230 21 248 137l3 17c17 111 -45 140 -159 140h-165c-6 0 -8 2 -7 7
l5 32c1 6 3 8 9 8h165c114 0 186 28 204 141l3 18c18 117 -61 137 -206 137h-157c-6 0 -7 3 -6 8l4 30c1 4 5 7 11 7c51 4 122 4 157 4z" />
    <glyph glyph-name="four.tosf" horiz-adv-x="605" 
d="M234 535h37c7 0 8 -4 5 -11l-223 -476h289l34 211c1 6 4 10 9 12l40 15c6 2 10 0 9 -6l-36 -232h134c7 0 10 -3 9 -9l-5 -31c-1 -6 -5 -9 -12 -9h-134l-30 -184c0 -6 -4 -9 -10 -9h-36c-6 0 -9 3 -9 9l30 184h-339c-6 0 -8 3 -7 10l2 17c1 10 7 21 12 31l219 472
c3 5 6 6 12 6z" />
    <glyph glyph-name="five.tosf" horiz-adv-x="605" 
d="M150 535h382c6 0 9 -3 8 -9l-5 -31c-1 -6 -4 -9 -10 -9h-343l-59 -260c42 2 92 2 117 2c187 0 276 -32 251 -196l-6 -37c-27 -163 -127 -194 -313 -194c-35 0 -114 1 -163 3c-6 1 -9 3 -8 7l5 33c1 4 5 7 11 7h170c140 0 224 22 243 144l6 36c18 122 -57 148 -198 148
h-170c-6 0 -8 2 -8 6l6 36l66 301c2 8 7 13 18 13z" />
    <glyph glyph-name="six.tosf" horiz-adv-x="605" 
d="M360 741h42c7 0 9 -5 5 -11l-212 -314c37 15 80 18 133 18c156 0 243 -39 218 -195l-7 -48c-25 -156 -124 -196 -281 -196s-243 40 -219 196l7 42c9 54 17 79 40 115l262 386c3 5 7 7 12 7zM319 385c-120 0 -198 -29 -217 -148l-7 -45c-20 -119 50 -148 171 -148
s199 29 217 148l8 45c18 119 -51 148 -172 148z" />
    <glyph glyph-name="seven.tosf" horiz-adv-x="605" 
d="M98 535h473c6 0 9 -2 8 -9l-4 -23c-1 -6 -3 -10 -6 -14l-449 -676c-3 -5 -7 -7 -12 -7h-41c-7 0 -9 5 -5 12l443 668h-414c-7 0 -10 3 -9 9l5 31c1 7 5 9 11 9z" />
    <glyph glyph-name="eight.tosf" horiz-adv-x="605" 
d="M363 746h15c157 0 219 -65 197 -203c-14 -88 -50 -144 -122 -181c76 -33 98 -91 86 -169c-22 -135 -115 -198 -281 -198h-17c-167 0 -238 63 -216 200c13 83 66 149 143 191c-54 32 -79 81 -66 160c21 135 105 200 261 200zM370 697h-15c-117 0 -182 -50 -197 -146
c-14 -88 36 -126 96 -140l152 -29c70 38 103 93 114 161c17 104 -32 154 -150 154zM370 331l-152 32c-80 -38 -126 -92 -138 -169c-16 -102 41 -150 169 -150h17c132 0 202 53 216 144c14 87 -31 128 -112 143z" />
    <glyph glyph-name="nine.tosf" horiz-adv-x="605" 
d="M334 542c157 0 244 -40 219 -196l-6 -37c-8 -54 -17 -79 -40 -115l-259 -382c-3 -4 -6 -6 -12 -6h-41c-8 0 -10 4 -5 11l208 308c-37 -14 -80 -17 -133 -17c-156 0 -243 39 -218 195l6 43c26 156 124 196 281 196zM327 492c-121 0 -199 -29 -218 -147l-6 -40
c-19 -120 50 -148 170 -148c121 0 199 28 218 147l6 40c20 120 -50 148 -170 148z" />
    <glyph glyph-name="zero.zero" horiz-adv-x="658" 
d="M397 746c213 0 250 -87 204 -377s-110 -374 -323 -374s-250 84 -204 374s111 377 323 377zM389 697c-168 0 -220 -77 -260 -328c-14 -88 -19 -154 -12 -202l432 452c-22 56 -71 78 -160 78zM558 575l-432 -454c21 -56 71 -77 160 -77c168 0 220 74 260 325
c13 90 19 157 12 206z" />
    <glyph glyph-name="zero.osf.zero" horiz-adv-x="621" 
d="M346 542c195 1 239 -68 206 -275s-97 -270 -292 -271c-196 0 -240 64 -207 270c33 207 98 275 293 276zM339 493c-154 -1 -205 -56 -232 -227c-12 -76 -12 -128 7 -162l346 364c-26 17 -66 25 -121 25zM487 441l-350 -367c27 -20 69 -28 131 -28c153 0 203 52 230 221
c13 84 12 139 -11 174z" />
    <glyph glyph-name="zero.tf.zero" horiz-adv-x="605" 
d="M371 746c213 0 250 -87 204 -377s-110 -374 -323 -374s-250 84 -204 374s111 377 323 377zM363 697c-168 0 -220 -77 -260 -328c-14 -88 -19 -154 -12 -202l432 452c-22 56 -71 78 -160 78zM532 575l-432 -454c21 -56 71 -77 160 -77c168 0 220 74 260 325
c13 90 19 157 12 206z" />
    <glyph glyph-name="zero.tosf.zero" horiz-adv-x="605" 
d="M338 542c195 1 239 -68 206 -275s-97 -270 -292 -271c-196 0 -240 64 -207 270c33 207 98 275 293 276zM331 493c-154 -1 -205 -56 -232 -227c-12 -76 -12 -128 7 -162l346 364c-26 17 -66 25 -121 25zM479 441l-350 -367c27 -20 69 -28 131 -28c153 0 203 52 230 221
c13 84 12 139 -11 174z" />
    <glyph glyph-name="fraction" unicode="&#x2044;" horiz-adv-x="140" 
d="M304 770h23c6 0 7 -4 3 -11l-461 -776c-5 -8 -10 -10 -16 -10h-24c-6 0 -7 3 -3 10l462 776c5 8 9 11 16 11z" />
    <glyph glyph-name="onehalf" unicode="&#xbd;" horiz-adv-x="771" 
d="M596 770h24c6 0 7 -4 3 -11l-461 -776c-5 -8 -10 -10 -16 -10h-25c-6 0 -6 3 -2 10l462 776c5 8 8 11 15 11zM230 343h-176c-3 0 -5 2 -4 5l5 31c0 3 2 6 6 6h66l46 289c4 28 -16 30 -36 30h-33c-3 0 -4 1 -4 5l4 25c0 4 2 5 6 6c15 2 28 4 44 4c32 0 75 -4 66 -60
l-47 -299h64c3 0 5 -2 4 -6l-4 -31c-1 -3 -4 -5 -7 -5zM596 401c76 0 142 -12 129 -94l-6 -35c-6 -36 -14 -63 -65 -92l-121 -68c-25 -14 -45 -29 -48 -49l-3 -21h202c3 0 4 -1 3 -3l-6 -36c0 -2 -1 -3 -3 -3h-244c-10 0 -12 6 -11 15l7 42c6 39 24 57 70 83l132 75
c29 17 36 37 41 64l2 19c9 52 -31 61 -89 61h-90c-3 0 -4 2 -4 5l4 25c1 5 4 6 8 8c29 3 60 4 92 4z" />
    <glyph glyph-name="onequarter" unicode="&#xbc;" horiz-adv-x="796" 
d="M602 770h24c6 0 7 -4 3 -11l-461 -776c-5 -8 -10 -10 -16 -10h-25c-6 0 -6 3 -2 10l462 776c5 8 8 11 15 11zM234 343h-176c-4 0 -5 2 -4 5l4 31c1 3 3 6 6 6h67l45 289c4 28 -16 30 -35 30h-33c-4 0 -5 1 -5 5l4 25c1 4 3 5 6 6c15 2 29 4 44 4c32 0 75 -4 66 -60
l-46 -299h63c3 0 5 -2 5 -6l-5 -31c-1 -3 -3 -5 -6 -5zM670 150h67c3 0 5 -2 4 -5l-4 -32c-1 -4 -3 -5 -7 -5h-66l-16 -103c-1 -3 -3 -5 -6 -5h-38c-3 0 -5 2 -4 5l16 103h-179c-3 0 -5 1 -4 5l3 23c1 5 4 11 7 16l112 243c1 3 3 3 6 3h38c4 0 5 -2 3 -5l-112 -243h133
l16 102c0 3 2 5 5 6l40 13c4 1 6 0 6 -4z" />
    <glyph glyph-name="threequarters" unicode="&#xbe;" horiz-adv-x="845" 
d="M658 770h24c6 0 7 -4 3 -11l-461 -776c-5 -8 -10 -10 -16 -10h-24c-6 0 -7 3 -3 10l462 776c5 8 9 11 15 11zM223 744c84 0 145 -14 132 -97l-4 -22c-7 -43 -33 -74 -78 -83c42 -8 58 -39 52 -83l-4 -22c-13 -83 -78 -97 -163 -97c-29 0 -70 2 -96 4c-4 1 -7 2 -6 8l4 25
c0 3 2 5 5 5h96c65 0 105 9 113 63l2 13c10 53 -24 65 -83 65h-83c-3 0 -4 1 -4 5l5 28c0 4 2 5 6 5h83c58 0 95 12 104 65l2 13c8 54 -30 63 -95 63h-95c-3 0 -4 1 -4 4l4 27c1 4 4 6 8 6c27 4 69 5 99 5zM610 398h38c4 0 5 -2 3 -5l-112 -243h133l16 102c1 3 3 5 5 6
l40 13c4 1 6 0 6 -4l-19 -117h66c4 0 6 -2 5 -5l-5 -32c-1 -4 -3 -5 -6 -5h-67l-16 -103c-1 -3 -2 -5 -6 -5h-38c-3 0 -5 2 -4 5l16 103h-179c-3 0 -5 1 -4 5l4 23c1 5 4 11 7 16l111 243c1 3 3 3 6 3z" />
    <glyph glyph-name="oneeighth" unicode="&#x215b;" horiz-adv-x="792" 
d="M589 770h24c6 0 7 -4 3 -11l-461 -776c-5 -8 -10 -10 -16 -10h-25c-6 0 -6 3 -2 10l462 776c5 8 8 11 15 11zM154 744c32 0 75 -4 66 -60l-47 -299h64c3 0 5 -2 5 -6l-5 -31c-1 -3 -4 -5 -7 -5h-176c-3 0 -5 2 -4 5l5 31c0 3 2 6 6 6h66l46 289c4 28 -16 30 -36 30h-33
c-3 0 -4 1 -4 5l4 25c0 4 2 5 6 6c15 2 28 4 44 4zM621 401h8c89 0 123 -35 111 -109c-7 -47 -27 -77 -67 -98c43 -17 55 -48 48 -90c-11 -73 -63 -107 -157 -107h-9c-93 0 -134 34 -123 107c8 49 37 81 80 104c-33 18 -44 43 -37 86c11 72 58 107 146 107zM622 359h-7
c-54 0 -86 -22 -93 -67c-7 -42 16 -58 45 -64l73 -15c32 17 47 45 52 75c7 47 -14 71 -70 71zM623 173l-76 16c-38 -16 -60 -42 -66 -78c-7 -48 21 -72 81 -72h8c62 0 97 24 104 66c6 40 -13 60 -51 68z" />
    <glyph glyph-name="threeeighths" unicode="&#x215c;" horiz-adv-x="853" 
d="M644 770h24c6 0 7 -4 3 -11l-461 -776c-5 -8 -10 -10 -16 -10h-24c-6 0 -7 3 -3 10l462 776c5 8 9 11 15 11zM218 744c85 0 146 -14 133 -97l-4 -22c-7 -43 -33 -74 -78 -83c42 -8 58 -39 52 -83l-4 -22c-13 -83 -78 -97 -163 -97c-29 0 -70 2 -96 4c-4 1 -7 2 -6 8l4 25
c0 3 2 5 5 5h96c65 0 105 9 113 63l2 13c9 53 -24 65 -83 65h-83c-3 0 -5 1 -4 5l5 28c0 4 2 5 5 5h83c59 0 96 12 104 65l2 13c9 54 -29 63 -94 63h-95c-3 0 -4 1 -4 4l4 27c1 4 4 6 8 6c27 4 69 5 98 5zM682 401h8c89 0 123 -35 111 -109c-7 -47 -27 -77 -67 -98
c43 -17 55 -48 48 -90c-11 -73 -63 -107 -156 -107h-10c-93 0 -134 34 -123 107c8 49 37 81 80 104c-33 18 -44 43 -37 86c11 72 58 107 146 107zM683 359h-7c-54 0 -86 -22 -93 -67c-7 -42 16 -58 45 -64l73 -15c32 17 47 45 52 75c7 47 -14 71 -70 71zM684 173l-76 16
c-38 -16 -60 -42 -66 -78c-7 -48 21 -72 81 -72h8c63 0 97 24 104 66c6 40 -13 60 -51 68z" />
    <glyph glyph-name="fiveeighths" unicode="&#x215d;" horiz-adv-x="834" 
d="M644 770h23c6 0 7 -4 3 -11l-461 -776c-5 -8 -10 -10 -16 -10h-24c-6 0 -7 3 -3 10l462 776c6 8 9 11 16 11zM138 741h214c3 0 5 -1 4 -4l-4 -33c-1 -3 -4 -5 -7 -5h-179l-28 -125c22 3 51 3 64 3c80 0 141 -14 127 -99l-6 -39c-14 -85 -80 -99 -164 -99
c-29 0 -70 1 -96 4c-4 1 -7 3 -6 8l4 25c0 3 3 5 6 5h96c65 0 105 11 114 65l3 22c9 55 -28 66 -93 66h-93c-6 0 -8 2 -7 6l5 30l37 163c1 5 4 7 9 7zM662 401h8c89 0 123 -35 111 -109c-7 -47 -27 -77 -67 -98c43 -17 55 -48 48 -90c-11 -73 -63 -107 -156 -107h-10
c-93 0 -134 34 -123 107c8 49 37 81 80 104c-33 18 -44 43 -37 86c11 72 58 107 146 107zM663 359h-7c-54 0 -86 -22 -93 -67c-7 -42 16 -58 45 -64l73 -15c32 17 47 45 52 75c7 47 -14 71 -70 71zM664 173l-76 16c-38 -16 -60 -42 -66 -78c-7 -48 21 -72 81 -72h8
c62 0 97 24 104 66c6 40 -13 60 -51 68z" />
    <glyph glyph-name="seveneighths" unicode="&#x215e;" horiz-adv-x="785" 
d="M571 770h24c6 0 7 -4 2 -11l-461 -776c-5 -8 -9 -10 -15 -10h-25c-6 0 -7 3 -2 10l461 776c6 8 9 11 16 11zM102 741h263c4 0 6 -1 5 -4l-4 -25c0 -3 -1 -6 -3 -8l-241 -358c-2 -2 -4 -3 -6 -3h-44c-4 0 -5 2 -2 6l236 350h-211c-3 0 -5 2 -4 5l4 33c1 3 3 4 7 4z
M611 401h8c88 0 123 -35 111 -109c-7 -47 -28 -77 -67 -98c42 -17 55 -48 48 -90c-12 -73 -63 -107 -157 -107h-9c-93 0 -135 34 -123 107c7 49 36 81 80 104c-33 18 -45 43 -38 86c11 72 59 107 147 107zM612 359h-7c-55 0 -87 -22 -94 -67c-6 -42 17 -58 46 -64l73 -15
c31 17 47 45 52 75c7 47 -15 71 -70 71zM613 173l-77 16c-37 -16 -59 -42 -65 -78c-8 -48 20 -72 81 -72h7c63 0 98 24 104 66c6 40 -13 60 -50 68z" />
    <glyph glyph-name="zero.dnom" horiz-adv-x="374" 
d="M201 401c118 0 139 -46 114 -203c-24 -155 -60 -201 -178 -201c-117 0 -139 46 -115 201c25 157 62 203 179 203zM194 359c-79 0 -104 -37 -124 -161c-19 -123 -6 -159 73 -159c80 0 105 36 124 159c20 124 7 161 -73 161z" />
    <glyph glyph-name="one.dnom" horiz-adv-x="239" 
d="M109 42h64c3 0 5 -2 4 -5l-4 -32c-1 -3 -4 -5 -7 -5h-176c-3 0 -5 2 -4 5l5 32c1 3 2 5 6 5h66l46 290c4 28 -16 29 -35 29h-33c-4 0 -5 2 -5 5l4 26c1 3 2 4 6 5c15 3 29 4 44 4c32 0 76 -3 66 -59z" />
    <glyph glyph-name="two.dnom" horiz-adv-x="327" 
d="M157 401c75 0 141 -12 128 -94l-5 -35c-6 -36 -15 -63 -66 -92l-120 -68c-25 -14 -46 -29 -49 -49l-3 -21h203c3 0 3 -1 3 -3l-6 -36c0 -2 -1 -3 -3 -3h-245c-10 0 -12 6 -11 15l7 42c6 39 24 57 70 83l132 75c30 17 36 37 41 64l3 19c8 52 -31 61 -90 61h-90
c-2 0 -4 2 -3 5l3 25c1 5 4 6 8 8c29 3 61 4 93 4z" />
    <glyph glyph-name="three.dnom" horiz-adv-x="332" 
d="M156 401c84 0 144 -14 131 -96l-3 -23c-7 -43 -33 -74 -78 -83c42 -8 58 -39 51 -82l-3 -22c-13 -84 -77 -98 -162 -98c-30 0 -71 2 -97 5c-5 0 -8 2 -7 7l5 25c0 4 2 5 5 5h96c64 0 105 10 113 63l2 13c9 53 -25 65 -83 65h-83c-3 0 -5 2 -4 5l4 28c1 4 3 5 6 5h83
c59 0 95 12 104 66l2 13c9 53 -28 62 -93 62h-96c-3 0 -5 2 -4 5l4 26c0 5 4 6 8 7c27 3 69 4 99 4z" />
    <glyph glyph-name="four.dnom" horiz-adv-x="351" 
d="M122 398h38c4 0 5 -2 3 -5l-112 -243h133l16 102c0 3 2 5 5 6l40 13c4 1 6 0 6 -4l-20 -117h67c3 0 5 -2 4 -5l-4 -32c-1 -4 -3 -5 -7 -5h-66l-16 -103c-1 -3 -3 -5 -6 -5h-38c-3 0 -5 2 -4 5l16 103h-179c-3 0 -5 1 -4 5l3 23c1 5 4 11 7 16l112 243c1 3 3 3 6 3z" />
    <glyph glyph-name="five.dnom" horiz-adv-x="330" 
d="M75 398h213c3 0 6 -1 5 -4l-5 -33c-1 -3 -4 -5 -7 -5h-179l-27 -124c21 2 50 3 63 3c81 0 141 -15 127 -99l-5 -39c-14 -85 -80 -100 -164 -100c-29 0 -71 2 -96 5c-5 0 -8 2 -6 8l4 24c0 4 2 5 5 5h96c65 0 105 11 114 66l3 21c9 56 -27 66 -92 66h-93c-6 0 -8 3 -8 7
l5 29l37 163c2 5 4 7 10 7z" />
    <glyph glyph-name="six.dnom" horiz-adv-x="338" 
d="M168 398h40c4 0 5 -2 2 -5l-110 -165c18 6 41 8 65 8c78 0 129 -20 117 -97l-7 -43c-13 -82 -74 -99 -154 -99s-137 16 -124 99l7 40c3 25 8 38 19 54l139 205c1 2 3 3 6 3zM152 195c-60 0 -93 -11 -102 -66l-3 -23c-9 -55 21 -67 80 -67s93 12 101 67l4 23
c9 55 -21 66 -80 66z" />
    <glyph glyph-name="seven.dnom" horiz-adv-x="315" 
d="M36 398h264c3 0 5 -1 5 -4l-4 -25c-1 -3 -2 -5 -4 -7l-240 -359c-2 -2 -4 -3 -7 -3h-44c-4 0 -5 3 -2 6l236 350h-210c-4 0 -6 2 -5 5l5 33c1 3 3 4 6 4z" />
    <glyph glyph-name="eight.dnom" horiz-adv-x="363" 
d="M192 401h8c89 0 123 -35 111 -109c-7 -47 -27 -77 -67 -98c43 -17 55 -48 48 -90c-11 -73 -63 -107 -156 -107h-10c-93 0 -134 34 -123 107c8 49 37 81 80 104c-33 18 -44 43 -37 86c11 72 58 107 146 107zM193 359h-7c-54 0 -86 -22 -93 -67c-6 -42 17 -58 46 -64
l72 -15c32 17 47 45 53 75c6 47 -15 71 -71 71zM194 173l-76 16c-38 -16 -60 -42 -66 -78c-7 -48 21 -72 81 -72h8c63 0 97 24 104 66c6 40 -13 60 -51 68z" />
    <glyph glyph-name="nine.dnom" horiz-adv-x="340" 
d="M180 401c81 0 137 -16 124 -99l-6 -39c-4 -26 -9 -39 -20 -55l-138 -205c-2 -2 -4 -3 -7 -3h-40c-4 0 -5 3 -2 6l111 165c-19 -7 -42 -8 -65 -8c-79 0 -129 19 -117 96l7 43c13 83 73 99 153 99zM173 359c-58 0 -91 -12 -100 -66l-4 -24c-8 -54 21 -66 80 -66
s93 12 102 66l4 24c8 54 -22 66 -82 66z" />
    <glyph glyph-name="zero.numr" horiz-adv-x="374" 
d="M255 744c118 0 139 -47 115 -203c-25 -156 -61 -201 -180 -201c-117 0 -138 45 -113 201c24 156 60 203 178 203zM248 702c-80 0 -104 -38 -123 -161c-20 -123 -7 -159 72 -159c80 0 106 36 125 159s5 161 -74 161z" />
    <glyph glyph-name="one.numr" horiz-adv-x="239" 
d="M164 385h63c3 0 5 -2 5 -6l-5 -31c-1 -3 -3 -5 -6 -5h-176c-4 0 -5 2 -4 5l4 31c1 3 3 6 6 6h67l45 289c4 28 -16 30 -35 30h-33c-4 0 -5 1 -5 5l4 25c1 4 3 5 6 6c15 2 29 4 44 4c32 0 75 -4 66 -60z" />
    <glyph glyph-name="two.numr" horiz-adv-x="327" 
d="M211 744c75 0 141 -12 128 -94l-5 -35c-6 -37 -15 -63 -65 -93l-121 -67c-26 -14 -45 -29 -48 -50l-4 -20h203c3 0 4 -1 3 -3l-6 -36c0 -2 -1 -3 -3 -3h-244c-11 0 -13 6 -12 15l7 42c6 39 25 56 71 83l131 75c30 17 37 36 41 63l3 20c8 52 -32 61 -91 61h-89
c-3 0 -3 1 -3 5l4 25c1 4 3 6 8 7c28 3 60 5 92 5z" />
    <glyph glyph-name="three.numr" horiz-adv-x="332" 
d="M210 744c84 0 145 -14 132 -97l-4 -22c-7 -43 -33 -74 -78 -83c42 -8 58 -39 52 -83l-4 -22c-13 -83 -78 -97 -163 -97c-29 0 -70 2 -96 4c-4 1 -7 2 -6 8l4 25c0 3 2 5 5 5h96c65 0 105 9 113 63l2 13c10 53 -24 65 -83 65h-83c-3 0 -4 1 -4 5l5 28c0 4 2 5 6 5h83
c58 0 95 12 104 65l2 13c8 54 -30 63 -95 63h-95c-3 0 -4 1 -4 4l4 27c1 4 4 6 8 6c27 4 69 5 99 5z" />
    <glyph glyph-name="four.numr" horiz-adv-x="351" 
d="M177 741h38c4 0 5 -2 3 -5l-112 -244h133l16 103c0 3 3 5 5 6l41 12c3 1 5 1 4 -4l-18 -117h66c4 0 5 -2 5 -5l-5 -32c-1 -4 -3 -5 -6 -5h-67l-16 -102c-1 -3 -2 -5 -6 -5h-38c-3 0 -5 2 -4 5l16 102h-179c-3 0 -5 1 -4 5l4 23c1 5 4 12 7 17l111 243c1 3 3 3 6 3z" />
    <glyph glyph-name="five.numr" horiz-adv-x="330" 
d="M129 741h214c3 0 5 -1 4 -4l-5 -33c-1 -3 -3 -5 -6 -5h-179l-28 -125c21 3 50 3 64 3c80 0 140 -14 127 -99l-6 -39c-14 -85 -80 -99 -164 -99c-29 0 -70 1 -96 4c-4 1 -7 3 -7 8l5 25c0 3 2 5 5 5h96c65 0 105 11 115 65l3 22c8 55 -28 66 -93 66h-93c-6 0 -8 2 -7 6
l4 30l38 163c1 5 4 7 9 7z" />
    <glyph glyph-name="six.numr" horiz-adv-x="338" 
d="M223 741h40c4 0 6 -2 3 -6l-111 -165c18 7 42 8 66 8c78 0 128 -20 116 -96l-7 -43c-13 -83 -75 -99 -154 -99c-81 0 -136 16 -123 99l6 40c4 24 8 37 19 54l138 205c2 2 4 3 7 3zM207 538c-59 0 -93 -11 -101 -66l-4 -24c-9 -54 21 -66 81 -66c59 0 92 12 101 66l3 24
c9 55 -21 66 -80 66z" />
    <glyph glyph-name="seven.numr" horiz-adv-x="315" 
d="M92 741h263c4 0 6 -1 5 -4l-4 -25c-1 -3 -2 -6 -4 -8l-240 -358c-2 -2 -4 -3 -6 -3h-44c-4 0 -6 2 -3 6l236 350h-210c-3 0 -5 2 -4 5l4 33c1 3 3 4 7 4z" />
    <glyph glyph-name="eight.numr" horiz-adv-x="363" 
d="M246 744h8c89 0 124 -35 112 -110c-8 -47 -28 -77 -68 -97c42 -17 55 -48 49 -91c-12 -72 -64 -106 -158 -106h-9c-94 0 -134 34 -122 107c7 49 36 81 80 103c-33 19 -45 44 -38 86c11 73 58 108 146 108zM246 702h-6c-55 0 -86 -23 -93 -68c-7 -41 17 -58 46 -64l73 -14
c31 17 47 44 51 75c8 46 -15 71 -71 71zM249 515l-77 17c-38 -17 -59 -43 -65 -79c-8 -48 20 -71 81 -71h7c63 0 97 23 104 66c6 40 -13 60 -50 67z" />
    <glyph glyph-name="nine.numr" horiz-adv-x="340" 
d="M234 744c81 0 138 -16 125 -99l-7 -40c-4 -25 -9 -38 -19 -54l-139 -205c-2 -2 -3 -3 -6 -3h-40c-5 0 -6 2 -3 6l111 165c-18 -7 -42 -9 -65 -9c-79 0 -129 20 -116 97l6 43c13 83 73 99 153 99zM227 701c-58 0 -91 -11 -99 -65l-4 -25c-9 -54 20 -66 79 -66
c60 0 94 12 102 66l4 25c9 54 -22 65 -82 65z" />
    <glyph glyph-name="uni24EA" unicode="&#x24ea;" horiz-adv-x="800" 
d="M467 729c236 0 338 -128 301 -359c-37 -234 -182 -359 -416 -359c-233 0 -339 125 -302 359c37 233 183 359 417 359zM460 691c-213 0 -339 -108 -373 -321c-34 -214 58 -321 272 -321c213 0 338 107 372 321c33 211 -55 321 -271 321zM441 571c118 0 139 -47 114 -203
c-24 -155 -60 -201 -179 -201c-117 0 -138 46 -114 201c25 156 62 203 179 203zM434 529c-79 0 -104 -38 -124 -161c-19 -123 -6 -159 73 -159c80 0 105 36 124 159c20 123 7 161 -73 161z" />
    <glyph glyph-name="uni2460" unicode="&#x2460;" horiz-adv-x="800" 
d="M466 729c235 0 338 -126 302 -359c-37 -234 -183 -359 -416 -359s-339 125 -302 359c37 233 183 359 416 359zM460 691c-213 0 -339 -108 -373 -321c-34 -214 58 -321 271 -321c214 0 339 107 372 321c34 212 -55 321 -270 321zM401 571c33 0 76 -4 67 -60l-48 -299h64
c3 0 6 -2 5 -6l-5 -32c-1 -3 -3 -5 -6 -5h-177c-3 0 -4 2 -3 6l4 31c1 3 3 6 6 6h66l46 289c4 28 -15 30 -35 30h-33c-3 0 -5 1 -5 5l4 25c1 3 3 5 6 6c15 2 29 4 44 4z" />
    <glyph glyph-name="uni2461" unicode="&#x2461;" horiz-adv-x="800" 
d="M466 729c236 0 338 -128 302 -359c-37 -234 -183 -359 -416 -359s-339 125 -302 359c37 233 183 359 416 359zM460 691c-213 0 -339 -108 -373 -321c-34 -214 58 -321 271 -321c214 0 339 107 372 321c34 211 -55 321 -270 321zM423 571c75 0 141 -12 128 -95l-5 -35
c-6 -36 -15 -63 -65 -92l-121 -68c-26 -13 -45 -28 -49 -49l-3 -20h203c3 0 3 -1 3 -3l-6 -37c0 -2 -1 -3 -3 -3h-244c-11 0 -13 6 -11 15l6 43c6 39 24 56 71 83l132 75c29 16 36 36 40 63l3 19c8 52 -32 62 -90 62h-90c-3 0 -4 1 -4 4l5 26c0 4 3 6 7 7c30 3 61 5 93 5z
" />
    <glyph glyph-name="uni2462" unicode="&#x2462;" horiz-adv-x="800" 
d="M466 729c234 0 338 -128 302 -359c-37 -234 -183 -359 -416 -359s-339 125 -302 359c37 233 183 359 416 359zM460 691c-213 0 -339 -108 -373 -321c-34 -214 58 -321 271 -321c214 0 339 107 372 321c34 211 -57 321 -270 321zM420 571c85 0 144 -14 131 -97l-3 -23
c-7 -43 -32 -74 -77 -82c42 -8 58 -40 51 -83l-4 -22c-13 -84 -77 -98 -162 -98c-29 0 -71 3 -96 5c-5 0 -8 2 -6 8l3 25c0 3 3 5 6 5h96c65 0 105 9 113 63l2 13c9 52 -25 64 -84 64h-83c-3 0 -4 2 -4 5l5 29c1 3 2 5 5 5h83c59 0 96 12 105 65l2 13c8 53 -29 63 -94 63
h-95c-3 0 -5 1 -5 4l4 26c1 5 4 7 9 7c27 3 69 5 98 5z" />
    <glyph glyph-name="uni2463" unicode="&#x2463;" horiz-adv-x="800" 
d="M466 729c234 0 338 -128 302 -359c-37 -234 -183 -359 -416 -359s-339 125 -302 359c37 233 183 359 416 359zM460 691c-213 0 -339 -108 -373 -321c-34 -214 58 -321 271 -321c214 0 339 107 372 321c34 211 -57 321 -270 321zM371 568h38c4 0 5 -2 3 -6l-112 -243h133
l16 102c1 3 3 5 5 6l41 13c3 1 5 1 5 -4l-19 -117h66c4 0 5 -2 5 -5l-5 -32c0 -4 -3 -5 -6 -5h-67l-16 -102c-1 -4 -2 -6 -5 -6h-38c-3 0 -5 2 -4 6l16 102h-179c-3 0 -5 1 -5 5l4 23c1 5 4 11 6 16l112 243c1 3 3 4 6 4z" />
    <glyph glyph-name="uni2464" unicode="&#x2464;" horiz-adv-x="800" 
d="M466 729c234 0 338 -128 302 -359c-37 -234 -183 -359 -416 -359s-339 125 -302 359c37 233 183 359 416 359zM460 691c-213 0 -339 -108 -373 -321c-34 -214 58 -321 271 -321c214 0 339 107 372 321c34 211 -57 321 -270 321zM334 568h213c3 0 6 -2 5 -5l-5 -32
c0 -3 -3 -5 -6 -5h-179l-27 -125c20 3 49 3 63 3c80 0 140 -14 127 -99l-6 -39c-14 -85 -80 -100 -164 -100c-29 0 -70 2 -96 5c-4 1 -7 3 -6 8l4 25c0 3 3 5 6 5h96c65 0 105 10 113 65l4 22c8 55 -28 66 -93 66h-93c-6 0 -8 2 -7 6l4 29l38 163c1 5 4 8 9 8z" />
    <glyph glyph-name="uni2465" unicode="&#x2465;" horiz-adv-x="800" 
d="M466 729c234 0 338 -128 302 -359c-37 -234 -183 -359 -416 -359s-339 125 -302 359c37 233 183 359 416 359zM460 691c-213 0 -339 -108 -373 -321c-34 -214 58 -321 271 -321c214 0 339 107 372 321c34 211 -57 321 -270 321zM425 568h40c4 0 5 -3 2 -6l-111 -165
c19 7 42 8 66 8c78 0 128 -20 116 -97l-7 -43c-13 -82 -74 -99 -153 -99c-80 0 -137 16 -124 99l7 40c3 25 8 38 19 54l139 205c1 2 3 4 6 4zM409 365c-60 0 -93 -11 -102 -66l-4 -24c-8 -54 22 -66 82 -66c59 0 92 12 100 66l4 24c9 55 -21 66 -80 66z" />
    <glyph glyph-name="uni2466" unicode="&#x2466;" horiz-adv-x="800" 
d="M466 729c234 0 338 -128 302 -359c-37 -234 -183 -359 -416 -359s-339 125 -302 359c37 233 183 359 416 359zM460 691c-213 0 -339 -108 -373 -321c-34 -214 58 -321 271 -321c214 0 339 107 372 321c34 211 -57 321 -270 321zM309 568h263c4 0 6 -2 5 -5l-4 -25l-3 -7
l-241 -358c-2 -3 -4 -4 -6 -4h-44c-4 0 -5 3 -3 6l236 351h-210c-3 0 -5 2 -4 5l5 32c0 3 2 5 6 5z" />
    <glyph glyph-name="uni2467" unicode="&#x2467;" horiz-adv-x="800" 
d="M466 729c234 0 338 -128 302 -359c-37 -234 -183 -359 -416 -359s-339 125 -302 359c37 233 183 359 416 359zM460 691c-213 0 -339 -108 -373 -321c-34 -214 58 -321 271 -321c214 0 339 107 372 321c34 211 -57 321 -270 321zM438 571h9c88 0 122 -36 111 -110
c-8 -47 -27 -77 -68 -97c43 -18 55 -49 48 -91c-11 -72 -63 -107 -157 -107h-9c-93 0 -134 35 -122 108c7 48 36 81 80 103c-34 19 -45 44 -38 86c11 72 59 108 146 108zM438 529h-7c-54 0 -86 -23 -93 -68c-6 -41 17 -58 46 -64l73 -15c31 17 47 45 51 75
c8 47 -14 72 -70 72zM441 342l-77 17c-38 -17 -60 -43 -66 -79c-7 -48 22 -71 82 -71h8c62 0 96 23 103 66c6 39 -13 60 -50 67z" />
    <glyph glyph-name="uni2468" unicode="&#x2468;" horiz-adv-x="800" 
d="M466 729c234 0 338 -128 302 -359c-37 -234 -183 -359 -416 -359s-339 125 -302 359c37 233 183 359 416 359zM460 691c-213 0 -339 -108 -373 -321c-34 -214 58 -321 271 -321c214 0 339 107 372 321c34 211 -57 321 -270 321zM440 570c81 0 138 -16 124 -99l-6 -39
c-4 -25 -9 -38 -20 -54l-138 -205c-2 -3 -4 -4 -7 -4h-40c-4 0 -5 3 -2 6l111 166c-19 -8 -43 -9 -66 -9c-78 0 -128 19 -116 97l7 42c13 84 73 99 153 99zM433 528c-58 0 -91 -11 -100 -65l-4 -25c-8 -54 21 -66 80 -66s93 12 102 66l4 25c8 54 -22 65 -82 65z" />
    <glyph glyph-name="uni24FF" unicode="&#x24ff;" horiz-adv-x="800" 
d="M352 10c-224 0 -322 116 -287 340c36 224 171 340 395 340s321 -118 286 -340c-35 -224 -170 -340 -394 -340zM438 551c-117 0 -154 -47 -179 -203c-24 -155 -3 -201 114 -201c118 0 155 46 179 201c25 156 4 203 -114 203zM431 509c79 0 93 -38 73 -161
c-19 -123 -44 -159 -124 -159c-79 0 -92 36 -73 159c20 123 44 161 124 161z" />
    <glyph glyph-name="uni2776" unicode="&#x2776;" horiz-adv-x="800" 
d="M460 690c224 0 321 -118 286 -340c-36 -224 -170 -340 -394 -340s-322 116 -287 340c36 224 171 340 395 340zM398 551c-15 0 -29 -2 -44 -4c-3 -1 -5 -3 -6 -6l-4 -25c0 -4 2 -5 5 -5h33c20 0 39 -2 35 -30l-46 -289h-66c-3 0 -5 -3 -6 -6l-5 -31c0 -4 1 -6 4 -6h177
c3 0 5 2 6 5l5 32c1 4 -2 6 -5 6h-64l47 299c10 56 -34 60 -66 60z" />
    <glyph glyph-name="uni2777" unicode="&#x2777;" horiz-adv-x="800" 
d="M460 690c224 0 321 -118 286 -340c-36 -224 -170 -340 -394 -340s-322 116 -287 340c36 224 171 340 395 340zM419 551c-32 0 -63 -2 -92 -5c-4 -1 -7 -3 -8 -7l-4 -26c0 -3 1 -4 4 -4h90c58 0 98 -10 89 -62l-2 -19c-5 -27 -12 -47 -41 -63l-131 -75
c-47 -27 -65 -44 -71 -83l-7 -43c-1 -9 1 -15 12 -15h244c2 0 3 1 3 3l5 37c1 2 1 3 -2 3h-203l3 20c3 21 23 36 48 49l122 68c50 29 59 56 65 92l5 35c13 83 -53 95 -129 95z" />
    <glyph glyph-name="uni2778" unicode="&#x2778;" horiz-adv-x="800" 
d="M460 690c224 0 321 -118 286 -340c-36 -224 -170 -340 -394 -340s-322 116 -287 340c36 224 171 340 395 340zM417 551c-29 0 -71 -2 -98 -5c-5 0 -8 -2 -9 -7l-4 -26c0 -3 2 -4 5 -4h95c65 0 102 -10 93 -63l-2 -13c-8 -53 -45 -65 -104 -65h-83c-3 0 -4 -2 -5 -5
l-5 -29c0 -3 1 -5 4 -5h83c59 0 93 -12 84 -64l-2 -13c-9 -54 -49 -63 -114 -63h-96c-3 0 -5 -2 -5 -5l-4 -25c-1 -6 2 -8 6 -8c26 -2 67 -5 96 -5c85 0 150 14 163 98l4 22c7 43 -9 75 -51 83c44 8 70 39 77 82l3 23c13 83 -47 97 -131 97z" />
    <glyph glyph-name="uni2779" unicode="&#x2779;" horiz-adv-x="800" 
d="M460 690c224 0 321 -118 286 -340c-36 -224 -170 -340 -394 -340s-322 116 -287 340c36 224 171 340 395 340zM406 548h-38c-3 0 -5 -1 -6 -4l-112 -243c-2 -5 -6 -11 -6 -16l-4 -23c-1 -4 1 -5 4 -5h179l-16 -102c0 -4 2 -6 5 -6h38c3 0 4 2 5 6l16 102h66c4 0 6 1 7 5
l5 32c0 3 -2 5 -5 5h-66l19 117c0 5 -2 5 -5 4l-41 -13c-2 -1 -5 -3 -5 -6l-16 -102h-133l112 243c2 4 1 6 -3 6z" />
    <glyph glyph-name="uni277A" unicode="&#x277a;" horiz-adv-x="800" 
d="M460 690c224 0 321 -118 286 -340c-36 -224 -170 -340 -394 -340s-322 116 -287 340c36 224 171 340 395 340zM544 548h-213c-5 0 -8 -3 -9 -8l-38 -163l-4 -29c-1 -4 1 -6 7 -6h93c65 0 101 -11 92 -66l-3 -22c-9 -55 -49 -65 -114 -65h-96c-3 0 -5 -2 -5 -5l-4 -25
c-1 -5 2 -7 6 -8c26 -3 67 -5 96 -5c84 0 150 15 164 100l6 39c13 85 -47 99 -127 99c-14 0 -43 0 -63 -3l27 125h179c3 0 5 2 6 5l5 32c1 3 -2 5 -5 5z" />
    <glyph glyph-name="uni277B" unicode="&#x277b;" horiz-adv-x="800" 
d="M460 690c224 0 321 -118 286 -340c-36 -224 -170 -340 -394 -340s-322 116 -287 340c36 224 171 340 395 340zM462 548h-40c-3 0 -5 -2 -7 -4l-138 -205c-11 -16 -16 -29 -19 -54l-7 -40c-13 -83 43 -99 123 -99s141 17 154 99l7 43c12 77 -38 97 -116 97
c-24 0 -47 -1 -66 -8l111 165c3 3 2 6 -2 6zM406 345c59 0 89 -11 80 -66l-4 -24c-8 -54 -42 -66 -101 -66c-60 0 -89 12 -81 66l4 24c9 55 42 66 102 66z" />
    <glyph glyph-name="uni277C" unicode="&#x277c;" horiz-adv-x="800" 
d="M460 690c224 0 321 -118 286 -340c-36 -224 -170 -340 -394 -340s-322 116 -287 340c36 224 171 340 395 340zM569 548h-263c-4 0 -6 -2 -7 -5l-4 -32c-1 -3 1 -5 4 -5h210l-236 -351c-3 -3 -1 -6 3 -6h44c2 0 4 1 6 4l240 358c2 2 3 4 4 7l4 25c1 3 -1 5 -5 5z" />
    <glyph glyph-name="uni277D" unicode="&#x277d;" horiz-adv-x="800" 
d="M460 690c224 0 321 -118 286 -340c-36 -224 -170 -340 -394 -340s-322 116 -287 340c36 224 171 340 395 340zM443 551h-8c-88 0 -135 -36 -146 -108c-7 -42 4 -67 38 -86c-44 -22 -73 -55 -81 -103c-11 -73 29 -108 122 -108h10c93 0 146 35 157 107c7 42 -5 73 -48 91
c40 20 60 50 67 97c12 74 -23 110 -111 110zM428 509h7c56 0 78 -25 70 -72c-4 -30 -20 -58 -51 -75l-73 15c-29 6 -52 23 -46 64c7 45 39 68 93 68zM361 339l77 -17c37 -7 56 -28 50 -67c-7 -43 -42 -66 -104 -66h-8c-60 0 -88 23 -81 71c6 36 28 62 66 79z" />
    <glyph glyph-name="uni277E" unicode="&#x277e;" horiz-adv-x="800" 
d="M460 690c224 0 321 -118 286 -340c-36 -224 -170 -340 -394 -340s-322 116 -287 340c36 224 171 340 395 340zM437 550c-80 0 -140 -15 -154 -99l-6 -42c-12 -78 38 -97 116 -97c23 0 47 1 66 9l-112 -166c-2 -3 -1 -6 3 -6h40c3 0 5 1 6 4l139 205c11 16 16 29 20 54
l6 39c13 83 -43 99 -124 99zM430 508c60 0 90 -11 82 -65l-4 -25c-9 -54 -43 -66 -102 -66s-88 12 -80 66l4 25c9 54 42 65 100 65z" />
    <glyph glyph-name="zerosuperior" unicode="&#x2070;" horiz-adv-x="374" 
d="M278 890c118 0 139 -47 115 -203c-25 -156 -61 -201 -179 -201c-117 0 -139 45 -114 201s61 203 178 203zM271 848c-79 0 -104 -38 -123 -161c-20 -123 -6 -159 73 -159s104 36 124 159c19 123 6 161 -74 161z" />
    <glyph glyph-name="onesuperior" unicode="&#xb9;" horiz-adv-x="239" 
d="M187 531h63c3 0 6 -2 5 -6l-5 -31c0 -3 -3 -5 -6 -5h-177c-3 0 -4 2 -3 5l5 31c0 3 2 6 5 6h67l45 289c4 28 -15 30 -35 30h-33c-3 0 -5 1 -5 5l4 25c1 4 3 5 6 6c15 3 29 4 44 4c33 0 76 -4 67 -60z" />
    <glyph glyph-name="twosuperior" unicode="&#xb2;" horiz-adv-x="327" 
d="M234 890c76 0 142 -12 128 -94l-5 -35c-6 -37 -14 -63 -65 -93l-121 -67c-25 -14 -45 -29 -49 -50l-3 -20h203c3 0 3 -1 3 -3l-6 -36c0 -2 -1 -3 -3 -3h-244c-11 0 -13 6 -11 15l6 42c7 39 25 56 71 83l131 75c30 17 37 36 41 63l3 20c8 52 -31 61 -90 61h-89
c-3 0 -5 1 -4 5l4 25c1 5 3 6 7 7c30 3 61 5 93 5z" />
    <glyph glyph-name="threesuperior" unicode="&#xb3;" horiz-adv-x="332" 
d="M233 890c84 0 145 -14 132 -96l-4 -23c-7 -43 -33 -74 -77 -83c41 -8 58 -39 51 -82l-4 -23c-13 -83 -77 -97 -162 -97c-29 0 -71 2 -97 4c-4 1 -7 3 -6 8l4 25c0 3 3 5 6 5h95c65 0 105 9 114 63l2 13c9 53 -25 65 -84 65h-83c-3 0 -5 1 -4 5l5 28c1 4 2 5 5 5h83
c59 0 96 12 104 65l2 13c9 54 -28 63 -93 63h-95c-3 0 -5 1 -5 4l4 27c1 4 4 6 9 7c27 3 69 4 98 4z" />
    <glyph glyph-name="foursuperior" unicode="&#x2074;" horiz-adv-x="351" 
d="M200 887h38c3 0 4 -2 2 -5l-112 -244h133l16 103c1 3 3 5 5 6l40 12c4 1 6 1 6 -4l-19 -117h66c4 0 6 -2 5 -5l-5 -32c-1 -4 -3 -5 -6 -5h-67l-16 -102c0 -3 -2 -5 -6 -5h-38c-3 0 -4 2 -4 5l16 102h-179c-3 0 -5 1 -4 5l4 23c0 5 3 12 6 17l112 243c1 3 4 3 7 3z" />
    <glyph glyph-name="fivesuperior" unicode="&#x2075;" horiz-adv-x="330" 
d="M152 887h214c3 0 5 -1 4 -4l-5 -33c0 -3 -3 -5 -6 -5h-179l-28 -124c21 2 50 2 64 2c80 0 140 -14 127 -99l-6 -39c-14 -85 -79 -99 -163 -99c-30 0 -72 1 -97 4c-4 1 -7 3 -6 8l4 25c0 3 3 5 6 5h96c65 0 104 11 113 65l4 22c9 55 -28 66 -93 66h-93c-6 0 -8 2 -7 6
l5 30l36 163c2 5 5 7 10 7z" />
    <glyph glyph-name="sixsuperior" unicode="&#x2076;" horiz-adv-x="338" 
d="M247 887h41c4 0 5 -2 2 -6l-111 -165c18 7 42 9 65 9c79 0 129 -20 117 -97l-7 -43c-13 -83 -74 -99 -153 -99c-81 0 -138 16 -124 99l6 40c4 24 8 37 19 54l139 205c1 2 4 3 6 3zM231 684c-59 0 -93 -11 -101 -66l-4 -24c-9 -54 22 -66 81 -66s92 12 101 66l3 24
c9 55 -21 66 -80 66z" />
    <glyph glyph-name="sevensuperior" unicode="&#x2077;" horiz-adv-x="315" 
d="M115 887h263c4 0 5 -1 5 -4l-4 -25c0 -3 -2 -6 -4 -8l-240 -358c-2 -2 -4 -3 -6 -3h-44c-4 0 -5 2 -3 6l236 350h-210c-3 0 -5 2 -4 5l5 33c0 3 3 4 6 4z" />
    <glyph glyph-name="eightsuperior" unicode="&#x2078;" horiz-adv-x="363" 
d="M269 890h9c88 0 123 -35 111 -110c-7 -46 -28 -76 -67 -97c42 -17 55 -48 48 -91c-12 -72 -63 -106 -157 -106h-10c-93 0 -134 34 -122 107c8 49 36 81 80 103c-33 19 -45 44 -38 86c11 73 59 108 146 108zM270 848h-6c-55 0 -87 -23 -94 -68c-6 -41 17 -58 46 -64
l73 -14c32 17 47 44 52 75c7 46 -15 71 -71 71zM272 661l-77 17c-37 -17 -59 -43 -65 -79c-8 -48 21 -71 81 -71h8c62 0 96 23 103 66c6 40 -13 60 -50 67z" />
    <glyph glyph-name="ninesuperior" unicode="&#x2079;" horiz-adv-x="340" 
d="M258 890c80 0 136 -16 123 -99l-6 -40c-4 -25 -9 -38 -19 -54l-139 -205c-2 -2 -3 -3 -6 -3h-40c-5 0 -5 2 -3 6l111 165c-18 -7 -42 -9 -65 -9c-78 0 -129 20 -117 97l7 43c13 83 74 99 154 99zM251 847c-58 0 -92 -11 -100 -65l-4 -25c-9 -54 20 -66 79 -66
c60 0 94 12 102 66l4 25c9 54 -21 65 -81 65z" />
    <glyph glyph-name="asterisk" unicode="*" horiz-adv-x="416" 
d="M265 759h22c6 0 10 -4 8 -11l-23 -134l131 46c6 2 10 0 11 -6l5 -20c0 -7 -2 -11 -9 -13l-132 -41l69 -102c3 -6 2 -10 -4 -14l-18 -13c-6 -5 -10 -3 -14 2l-65 106l-98 -108c-5 -5 -10 -6 -15 -1l-14 12c-5 4 -5 8 0 14l100 104l-118 41c-7 1 -9 7 -5 13l9 20
c3 6 8 9 15 6l115 -46l19 134c1 7 4 11 11 11z" />
    <glyph glyph-name="backslash" unicode="\" horiz-adv-x="432" 
d="M100 770h27c7 0 10 -3 11 -11l218 -776c2 -7 -1 -10 -7 -10h-28c-6 0 -9 2 -11 10l-216 776c-1 7 0 11 6 11z" />
    <glyph glyph-name="periodcentered" unicode="&#xb7;" horiz-adv-x="220" 
d="M108 304c24 0 34 -13 31 -37c-4 -24 -19 -37 -43 -37c-23 0 -35 13 -31 37s19 37 43 37z" />
    <glyph glyph-name="bullet" unicode="&#x2022;" horiz-adv-x="560" 
d="M290 375c70 0 104 -37 94 -100c-9 -62 -56 -100 -126 -100c-71 0 -105 38 -95 100c9 63 56 100 127 100z" />
    <glyph glyph-name="colon" unicode=":" horiz-adv-x="219" 
d="M145 542c24 0 34 -13 31 -37c-4 -24 -19 -37 -43 -37c-23 0 -34 13 -30 37c3 24 19 37 42 37zM70 69c24 0 35 -13 31 -36c-4 -25 -19 -38 -43 -38c-23 0 -34 13 -30 38c3 23 19 36 42 36z" />
    <glyph glyph-name="comma" unicode="," horiz-adv-x="216" 
d="M72 104h45c4 0 6 -1 5 -6l-1 -10c0 -4 -3 -9 -5 -12l-134 -212c-3 -5 -6 -6 -10 -4l-12 6c-3 2 -3 7 -1 10l103 223c2 4 4 5 10 5z" />
    <glyph glyph-name="ellipsis" unicode="&#x2026;" horiz-adv-x="524" 
d="M64 69c25 0 35 -13 31 -36c-4 -25 -19 -38 -42 -38c-24 0 -35 13 -31 38c4 23 19 36 42 36zM230 69c24 0 34 -13 30 -36c-3 -25 -19 -38 -42 -38c-24 0 -35 13 -31 38c4 23 19 36 43 36zM395 69c24 0 34 -13 31 -36c-4 -25 -19 -38 -43 -38s-35 13 -31 38
c4 23 19 36 43 36z" />
    <glyph glyph-name="exclam" unicode="!" horiz-adv-x="237" 
d="M168 741h35c6 0 8 -3 7 -9l-61 -389c-1 -5 -2 -9 -3 -16l-31 -148c-1 -6 -4 -10 -10 -10h-19c-6 0 -8 4 -8 10l16 148c1 7 1 11 2 16l62 389c1 6 4 9 10 9zM79 69c24 0 35 -13 31 -36c-4 -25 -19 -38 -43 -38c-23 0 -34 13 -30 38c3 23 19 36 42 36z" />
    <glyph glyph-name="exclamdown" unicode="&#xa1;" horiz-adv-x="226" 
d="M149 542c24 0 34 -14 30 -38c-3 -24 -18 -36 -42 -36c-23 0 -34 12 -31 36c4 24 19 38 43 38zM114 378h18c6 0 9 -3 8 -9l-16 -148c-1 -8 -2 -11 -2 -16l-62 -389c-1 -6 -4 -10 -10 -10h-34c-6 0 -9 4 -8 10l61 389l4 16l30 148c1 6 5 9 11 9z" />
    <glyph glyph-name="numbersign" unicode="#" horiz-adv-x="617" 
d="M379 550h209c6 0 9 -3 8 -9l-5 -30c-1 -6 -5 -9 -11 -9h-208l-43 -268h210c6 0 8 -4 8 -10l-5 -30c-1 -6 -5 -9 -11 -9h-209l-28 -176c-1 -6 -5 -9 -11 -9h-56c-6 0 -9 3 -8 9l28 176h-202c-6 0 -9 3 -8 9l5 30c0 6 5 10 11 10h201l43 268h-203c-6 0 -9 3 -8 9l5 30
c1 6 5 9 11 9h202l29 182c1 6 5 9 11 9h56c6 0 9 -3 8 -9z" />
    <glyph glyph-name="period" unicode="." horiz-adv-x="194" 
d="M65 69c24 0 34 -13 30 -36c-3 -25 -19 -38 -42 -38c-24 0 -35 13 -31 38c4 23 19 36 43 36z" />
    <glyph glyph-name="question" unicode="?" horiz-adv-x="476" 
d="M250 746c134 0 245 -13 220 -170l-9 -57c-17 -106 -51 -142 -135 -179l-118 -53c-42 -18 -46 -24 -53 -57l-9 -54c-1 -4 -3 -7 -7 -7h-36c-3 0 -6 2 -5 7l9 71c6 39 14 50 71 78l132 59c59 26 83 53 96 135l9 57c18 116 -68 121 -173 121h-143c-6 0 -9 3 -8 9l4 25
c2 6 5 10 11 10c51 4 100 5 144 5zM105 69c24 0 35 -13 31 -36c-4 -25 -19 -38 -43 -38c-23 0 -34 13 -31 38c4 23 19 36 43 36z" />
    <glyph glyph-name="questiondown" unicode="&#xbf;" horiz-adv-x="469" 
d="M365 542c23 0 34 -14 30 -38c-3 -24 -18 -36 -42 -36s-35 12 -32 36c4 24 20 38 44 38zM320 378h36c4 0 6 -2 5 -6l-9 -72c-5 -39 -14 -50 -70 -78l-133 -59c-59 -26 -83 -53 -96 -135l-8 -49c-18 -116 78 -129 192 -129h123c6 0 9 -3 8 -10l-4 -24c-2 -7 -5 -10 -11 -11
c-50 -3 -80 -4 -124 -4c-143 0 -264 21 -239 178l8 49c17 105 50 142 135 179l119 53c40 18 45 23 52 57l10 54c0 4 2 7 6 7z" />
    <glyph glyph-name="quotedbl" unicode="&#x22;" horiz-adv-x="349" 
d="M144 741h34c6 0 9 -3 8 -9l-21 -130c-1 -5 -1 -8 -3 -16l-25 -118c-2 -6 -6 -10 -12 -10h-18c-6 0 -9 3 -8 10l12 118c1 8 1 11 2 16l20 130c1 6 5 9 11 9zM304 741h34c6 0 9 -3 8 -9l-21 -130c-1 -5 -1 -8 -3 -16l-25 -118c-2 -6 -5 -10 -11 -10h-19c-6 0 -8 3 -7 10
l11 118c1 8 1 11 2 16l20 130c1 6 5 9 11 9z" />
    <glyph glyph-name="quotesingle" unicode="'" horiz-adv-x="190" 
d="M144 741h34c6 0 9 -3 8 -9l-21 -130c-1 -5 -1 -8 -2 -16l-26 -118c-2 -6 -5 -10 -11 -10h-19c-6 0 -8 3 -7 10l11 118c1 8 1 11 2 16l20 130c1 6 5 9 11 9z" />
    <glyph glyph-name="semicolon" unicode=";" horiz-adv-x="246" 
d="M164 542c24 0 34 -13 31 -37c-4 -24 -19 -37 -43 -37s-35 13 -31 37c3 24 19 37 43 37zM78 104h45c5 0 7 -1 6 -6l-1 -10c0 -4 -3 -9 -5 -12l-134 -212c-3 -5 -7 -6 -10 -4l-12 6c-4 2 -3 7 -1 10l103 223c2 4 4 5 9 5z" />
    <glyph glyph-name="slash" unicode="/" horiz-adv-x="445" 
d="M455 770h26c6 0 7 -4 3 -11l-461 -776c-5 -8 -10 -10 -16 -10h-27c-6 0 -7 3 -2 10l462 776c5 8 8 11 15 11z" />
    <glyph glyph-name="underscore" unicode="_" horiz-adv-x="507" 
d="M-47 -42h488c6 0 9 -3 7 -9l-3 -23c-1 -6 -5 -9 -11 -9h-488c-6 0 -9 3 -8 9l4 23c1 6 5 9 11 9z" />
    <glyph glyph-name="asterisk.alt" horiz-adv-x="430" 
d="M271 767h25c7 0 10 -5 9 -12l-25 -115c-1 -6 -7 -11 -13 -11h-10c-7 0 -12 5 -11 11l12 115c1 8 7 12 13 12zM130 671l100 -42c6 -2 8 -8 5 -14l-4 -10c-3 -7 -11 -9 -17 -7l-106 28c-7 2 -9 9 -6 14l11 25c3 6 10 9 17 6zM294 629l113 42c7 3 13 -1 14 -6l4 -24
c1 -7 -4 -13 -11 -15l-115 -28c-8 -2 -13 0 -14 7l-1 10c-1 6 2 12 10 14zM234 582l8 -6c4 -4 4 -10 -1 -16l-76 -97c-5 -5 -13 -7 -18 -3l-17 15c-5 3 -4 11 1 16l86 88c5 6 12 7 17 3zM265 576l9 6c6 4 13 3 17 -2l58 -89c3 -5 2 -13 -4 -16l-23 -15c-7 -5 -13 -2 -16 3
l-46 97c-3 6 -1 12 5 16z" />
    </font>
</defs>
</svg>
